<?xml version="1.0" encoding="UTF-8" standalone="no"?>
<svg xmlns:xlink="http://www.w3.org/1999/xlink" height="7.55px" width="14.85px" xmlns="http://www.w3.org/2000/svg">
  <g transform="matrix(1.0, 0.0, 0.0, 1.0, 7.6, 4.05)">
    <path d="M-6.8 0.55 L-6.45 1.05 -5.5 1.6 -5.25 1.75 -3.95 2.65 -3.6 2.9 -0.9 3.45 1.2 3.15 1.8 2.85 2.3 2.8 2.5 2.8 2.55 2.85 3.3 2.9 4.25 2.75 5.0 2.4 Q5.5 1.95 6.0 1.55 L6.0 0.95 6.1 0.8 Q6.4 0.5 6.65 0.2 L6.85 -0.3 7.05 -0.55 Q7.35 -1.2 7.05 -1.85 L5.9 -2.35 5.7 -2.35 4.0 -3.15 Q2.1 -3.9 1.0 -3.65 L-0.55 -3.25 -0.75 -3.25 -2.45 -3.5 -3.2 -3.2 -4.0 -2.4 Q-4.1 -1.9 -4.45 -1.75 L-5.0 -1.55 -5.75 -1.3 -6.5 -0.8 -6.5 -0.75 -6.75 -0.1 -6.7 0.2 Q-6.95 0.4 -6.8 0.55" fill="url(#gradient0)" fill-rule="evenodd" stroke="none">
      <animate attributeName="d" dur="2s" repeatCount="indefinite" values="M-6.8 0.55 L-6.45 1.05 -5.5 1.6 -5.25 1.75 -3.95 2.65 -3.6 2.9 -0.9 3.45 1.2 3.15 1.8 2.85 2.3 2.8 2.5 2.8 2.55 2.85 3.3 2.9 4.25 2.75 5.0 2.4 Q5.5 1.95 6.0 1.55 L6.0 0.95 6.1 0.8 Q6.4 0.5 6.65 0.2 L6.85 -0.3 7.05 -0.55 Q7.35 -1.2 7.05 -1.85 L5.9 -2.35 5.7 -2.35 4.0 -3.15 Q2.1 -3.9 1.0 -3.65 L-0.55 -3.25 -0.75 -3.25 -2.45 -3.5 -3.2 -3.2 -4.0 -2.4 Q-4.1 -1.9 -4.45 -1.75 L-5.0 -1.55 -5.75 -1.3 -6.5 -0.8 -6.5 -0.75 -6.75 -0.1 -6.7 0.2 Q-6.95 0.4 -6.8 0.55;M-7.55 0.2 L-7.2 0.75 -6.3 1.4 -6.05 1.5 -4.7 2.5 -4.25 2.85 -1.55 3.5 0.65 3.2 1.3 2.9 1.85 2.9 2.05 2.9 2.1 2.95 2.9 3.0 3.9 2.9 4.7 2.55 Q5.75 2.05 5.85 1.65 L5.85 1.05 5.95 0.85 Q6.4 0.4 6.6 0.25 L6.8 -0.25 7.05 -0.55 Q7.4 -1.2 7.1 -1.9 L5.9 -2.5 5.75 -2.5 4.0 -3.4 Q2.1 -4.25 0.95 -4.0 L-0.7 -3.6 -0.9 -3.6 -2.7 -3.95 -3.5 -3.65 -4.45 -2.8 Q-4.5 -2.3 -4.9 -2.15 L-5.55 -1.95 -6.35 -1.7 -7.15 -1.2 -7.1 -1.15 -7.45 -0.45 -7.4 -0.15 Q-7.5 0.05 -7.55 0.2"/>
    </path>
    <path d="M-6.8 0.55 Q-6.95 0.4 -6.7 0.2 L-6.75 -0.1 -6.5 -0.75 -6.5 -0.8 -5.75 -1.3 -5.0 -1.55 -4.45 -1.75 Q-4.1 -1.9 -4.0 -2.4 L-3.2 -3.2 -2.45 -3.5 -0.75 -3.25 -0.55 -3.25 1.0 -3.65 Q2.1 -3.9 4.0 -3.15 L5.7 -2.35 5.9 -2.35 7.05 -1.85 Q7.35 -1.2 7.05 -0.55 L6.85 -0.3 6.65 0.2 Q6.4 0.5 6.1 0.8 L6.0 0.95 6.0 1.55 Q5.5 1.95 5.0 2.4 L4.25 2.75 3.3 2.9 2.55 2.85 2.5 2.8 2.3 2.8 1.8 2.85 1.2 3.15 -0.9 3.45 -3.6 2.9 -3.95 2.65 -5.25 1.75 -5.5 1.6 -6.45 1.05 -6.8 0.55" fill="none" stroke="#000000" stroke-linecap="round" stroke-linejoin="round" stroke-opacity="0.0" stroke-width="1.0">
      <animate attributeName="stroke" dur="2s" repeatCount="indefinite" values="#000000;#000001"/>
      <animate attributeName="stroke-width" dur="2s" repeatCount="indefinite" values="0.0;0.0"/>
      <animate attributeName="fill-opacity" dur="2s" repeatCount="indefinite" values="0.0;0.0"/>
      <animate attributeName="d" dur="2s" repeatCount="indefinite" values="M-6.8 0.55 Q-6.95 0.4 -6.7 0.2 L-6.75 -0.1 -6.5 -0.75 -6.5 -0.8 -5.75 -1.3 -5.0 -1.55 -4.45 -1.75 Q-4.1 -1.9 -4.0 -2.4 L-3.2 -3.2 -2.45 -3.5 -0.75 -3.25 -0.55 -3.25 1.0 -3.65 Q2.1 -3.9 4.0 -3.15 L5.7 -2.35 5.9 -2.35 7.05 -1.85 Q7.35 -1.2 7.05 -0.55 L6.85 -0.3 6.65 0.2 Q6.4 0.5 6.1 0.8 L6.0 0.95 6.0 1.55 Q5.5 1.95 5.0 2.4 L4.25 2.75 3.3 2.9 2.55 2.85 2.5 2.8 2.3 2.8 1.8 2.85 1.2 3.15 -0.9 3.45 -3.6 2.9 -3.95 2.65 -5.25 1.75 -5.5 1.6 -6.45 1.05 -6.8 0.55;M-7.55 0.2 Q-7.5 0.05 -7.4 -0.15 L-7.45 -0.45 -7.1 -1.15 -7.15 -1.2 -6.35 -1.7 -5.55 -1.95 -4.9 -2.15 Q-4.5 -2.3 -4.45 -2.8 L-3.5 -3.65 -2.7 -3.95 -0.9 -3.6 -0.7 -3.6 0.95 -4.0 Q2.1 -4.25 4.0 -3.4 L5.75 -2.5 5.9 -2.5 7.1 -1.9 Q7.4 -1.2 7.05 -0.55 L6.8 -0.25 6.6 0.25 Q6.4 0.4 5.95 0.85 L5.85 1.05 5.85 1.65 Q5.75 2.05 4.7 2.55 L3.9 2.9 2.9 3.0 2.1 2.95 2.05 2.9 1.85 2.9 1.3 2.9 0.65 3.2 -1.55 3.5 -4.25 2.85 -4.7 2.5 -6.05 1.5 -6.3 1.4 -7.2 0.75 -7.55 0.2"/>
    </path>
  </g>
  <defs>
    <radialGradient cx="0" cy="0" gradientTransform="matrix(0.0072, 0.0034, -0.0076, 0.0038, 0.8, -0.1)" gradientUnits="userSpaceOnUse" id="gradient0" r="819.2" spreadMethod="pad">
      <animateTransform additive="replace" attributeName="gradientTransform" dur="2s" from="1" repeatCount="indefinite" to="1" type="scale"/>
      <animateTransform additive="sum" attributeName="gradientTransform" dur="2s" from="0.8 -0.1" repeatCount="indefinite" to="0.45 -0.25" type="translate"/>
      <animateTransform additive="sum" attributeName="gradientTransform" dur="2s" from="24.8516" repeatCount="indefinite" to="27.0825" type="rotate"/>
      <animateTransform additive="sum" attributeName="gradientTransform" dur="2s" from="0.008 0.0067" repeatCount="indefinite" to="0.0083 0.0071" type="scale"/>
      <animateTransform additive="sum" attributeName="gradientTransform" dur="2s" from="-33.7323" repeatCount="indefinite" to="-33.9673" type="skewX"/>
      <stop offset="0.0" stop-color="#990000" stop-opacity="0.7058824">
        <animate attributeName="offset" dur="2s" repeatCount="indefinite" values="0.0;0.0"/>
        <animate attributeName="stop-color" dur="2s" repeatCount="indefinite" values="#990000;#d20203"/>
        <animate attributeName="stop-opacity" dur="2s" repeatCount="indefinite" values="0.7058824;0.7058824"/>
      </stop>
      <stop offset="1.0" stop-color="#990033" stop-opacity="0.2509804">
        <animate attributeName="offset" dur="2s" repeatCount="indefinite" values="1.0;1.0"/>
        <animate attributeName="stop-color" dur="2s" repeatCount="indefinite" values="#990033;#ba014c"/>
        <animate attributeName="stop-opacity" dur="2s" repeatCount="indefinite" values="0.2509804;0.2509804"/>
      </stop>
    </radialGradient>
  </defs>
</svg>
