<?xml version="1.0" encoding="UTF-8" standalone="no"?>
<svg xmlns:xlink="http://www.w3.org/1999/xlink" height="181.2px" width="110.0px" xmlns="http://www.w3.org/2000/svg">
  <g transform="matrix(1.0, 0.0, 0.0, 1.0, 0.0, -1.0)">
    <path d="M98.0 16.0 Q98.5 16.0 98.6 16.2 109.2 39.7 95.0 49.0 L95.0 70.0 95.0 71.0 95.8 72.1 96.0 73.0 Q98.2 87.8 109.8 93.4 L110.0 94.0 Q109.85 99.35 106.2 101.4 106.0 101.5 106.0 102.0 102.0 103.5 98.2 105.4 98.0 105.5 98.0 106.0 L97.9 107.0 Q96.25 115.75 97.0 127.0 97.0 127.5 97.15 127.55 100.55 128.95 102.0 132.0 L102.15 132.95 Q105.6 144.4 103.0 157.0 102.5 157.0 102.2 157.25 98.35 160.35 92.0 161.0 L91.75 161.7 Q87.15 165.65 84.0 171.0 L83.5 171.0 Q86.5 162.65 84.0 162.0 L84.0 161.5 Q74.7 170.7 62.0 177.0 L61.95 178.0 Q61.35 184.4 50.0 181.0 L49.0 181.1 38.0 182.0 37.75 181.2 Q33.2 175.65 25.0 169.0 L24.5 169.0 Q25.85 152.3 22.0 149.0 L21.75 149.75 17.0 154.0 17.25 154.85 Q20.95 160.25 15.0 161.0 L14.5 161.0 Q22.05 170.1 14.0 170.0 L13.85 169.05 Q9.85 158.9 0.0 158.0 L0.0 157.0 0.0 155.0 Q1.65 153.65 5.0 153.5 L5.0 153.0 4.85 152.45 Q0.5 151.0 1.0 145.0 6.9 151.05 12.05 152.85 L13.0 153.0 Q17.15 147.65 22.75 143.65 L23.0 143.0 Q22.3 136.05 22.95 124.0 L23.0 123.0 22.75 122.25 22.0 122.0 21.15 121.75 Q16.5 118.5 13.0 114.0 L12.95 113.0 Q11.0 88.9 11.0 68.0 L10.45 67.85 Q9.5 65.0 9.0 62.0 L8.0 61.95 Q6.3 61.7 6.0 60.0 L5.05 59.85 Q1.15 58.35 1.0 53.0 4.8 46.8 15.0 47.0 L16.0 47.0 16.0 46.0 Q18.3 36.2 21.85 23.95 L22.0 23.0 Q43.5 10.0 69.05 1.15 L70.0 1.0 Q86.25 3.75 96.75 12.3 L97.0 13.0 Q98.65 12.9 98.1 15.05 L98.0 16.0" fill="#ff0000" fill-rule="evenodd" stroke="none"/>
  </g>
</svg>
