<?xml version="1.0" encoding="UTF-8" standalone="no"?>
<svg xmlns:xlink="http://www.w3.org/1999/xlink" height="126.0px" width="232.0px" xmlns="http://www.w3.org/2000/svg">
  <g transform="matrix(1.0, 0.0, 0.0, 1.0, 8.0, 0.0)">
    <path d="M104.0 126.0 L-8.0 67.0 110.0 8.0 224.0 69.0 104.0 126.0" fill="#ff0000" fill-opacity="0.0" fill-rule="evenodd" stroke="none"/>
    <path d="M210.0 11.0 Q214.1 13.4 214.0 20.0 L214.0 21.0 214.75 21.25 215.0 22.0 216.75 23.25 217.0 24.0 Q218.75 27.75 218.05 34.0 L218.0 35.0 217.75 35.85 Q215.8 38.8 212.0 40.0 212.3 42.7 214.85 43.45 L215.0 44.0 Q216.7 44.3 216.1 47.0 L216.0 48.0 216.05 49.0 Q216.75 54.25 215.0 57.0 L214.75 57.75 214.0 58.0 217.75 60.3 218.0 61.0 217.75 61.8 Q215.95 63.95 213.0 65.0 L213.1 66.0 Q213.7 68.7 212.0 69.0 L211.95 69.5 199.0 70.0 199.0 71.0 Q199.7 73.8 205.0 72.5 L205.0 73.0 205.5 73.0 Q205.45 84.75 203.0 75.0 L202.1 75.2 194.0 79.0 194.05 80.0 Q195.0 86.65 192.0 85.0 L191.5 84.95 Q191.0 81.5 191.0 78.0 L192.0 78.0 191.95 77.5 183.0 77.0 183.0 78.0 Q184.75 80.25 183.55 84.9 L183.0 85.0 182.0 85.05 Q180.4 85.15 181.0 83.0 L181.0 82.0 181.0 79.0 181.0 78.0 181.0 77.0 180.2 77.25 Q178.2 78.7 175.0 79.0 L174.1 79.2 Q173.5 79.5 173.0 80.0 L172.1 80.2 Q168.55 82.05 164.0 83.0 L163.85 83.55 Q162.05 84.05 161.0 85.0 L160.05 85.15 158.0 86.0 157.1 86.2 156.0 87.0 155.15 87.2 Q145.25 93.25 136.0 100.0 136.0 100.5 135.8 100.6 132.9 101.9 131.0 104.0 L130.1 104.2 Q129.5 104.5 129.0 105.0 L128.75 105.75 127.0 107.0 126.75 107.75 125.0 109.0 Q128.25 109.25 134.0 107.5 L134.0 108.0 134.5 108.0 Q134.35 118.55 132.0 111.0 L131.05 111.15 Q129.0 112.0 127.0 113.0 126.5 113.0 126.15 113.25 124.95 113.95 123.0 114.0 L123.0 115.0 Q122.75 123.3 120.0 117.0 L120.0 116.0 120.0 115.0 Q119.5 115.0 119.35 115.25 115.85 120.85 109.0 123.0 L108.1 122.8 Q106.2 121.8 105.0 120.0 L104.2 119.75 100.0 116.0 99.1 115.8 98.0 115.0 98.1 116.0 Q98.7 119.2 97.0 120.0 L97.0 120.5 Q93.7 119.8 95.0 114.0 L94.25 113.75 Q94.0 113.5 94.0 113.0 L93.0 113.0 92.0 113.0 91.0 113.0 90.0 112.95 Q87.3 112.8 86.0 114.0 85.5 114.0 85.3 114.25 83.8 116.15 84.0 112.0 L83.25 111.75 Q83.0 111.5 83.0 111.0 L82.0 110.9 Q80.0 110.5 79.0 109.0 L78.25 108.75 75.0 105.0 Q74.5 105.0 74.35 104.75 72.4 101.6 69.0 100.0 L69.1 101.0 Q69.7 103.7 68.0 104.0 L67.5 103.9 Q67.0 101.5 67.0 99.0 L68.0 99.0 68.0 98.0 69.0 98.0 70.0 98.0 Q72.7 101.3 75.75 104.25 L76.0 105.0 79.75 108.25 80.0 109.0 Q82.15 108.4 82.5 109.9 L83.0 110.0 84.0 110.0 84.0 109.0 84.0 108.0 85.1 107.2 86.0 107.0 Q91.85 108.65 96.15 111.75 L97.0 112.0 98.75 113.25 99.0 114.0 100.75 115.25 101.0 116.0 Q104.2 116.25 105.4 118.8 105.5 119.0 106.0 119.0 113.5 123.6 119.4 113.2 119.5 113.0 120.0 113.0 L120.0 112.0 121.1 111.2 122.0 111.0 122.0 110.0 123.1 109.2 124.0 109.0 124.0 108.0 125.1 107.2 126.0 107.0 126.0 106.0 Q127.7 105.7 128.4 104.2 128.5 104.0 129.0 104.0 L129.0 103.0 130.0 103.0 130.0 102.0 Q132.8 101.3 134.3 99.25 134.5 99.0 135.0 99.0 L135.0 98.0 Q144.35 91.85 154.15 86.2 L155.0 86.0 155.0 85.0 Q157.15 85.65 157.5 84.1 L158.0 84.0 159.0 84.0 160.0 84.0 160.0 83.0 161.0 83.0 162.0 83.0 162.0 82.0 171.05 79.15 172.0 79.0 172.0 78.0 174.0 78.0 175.0 78.0 175.0 77.0 179.0 76.1 180.0 76.0 180.0 75.0 180.0 70.0 179.0 70.0 175.0 70.0 175.0 72.0 175.0 73.0 174.9 74.0 Q174.2 78.0 174.0 73.0 L174.05 72.0 Q174.45 69.1 171.0 70.0 L170.0 70.0 169.0 70.0 168.0 70.0 162.0 70.0 161.5 70.05 Q160.25 80.45 160.0 68.0 L160.0 67.0 160.0 63.0 160.0 62.0 Q171.0 60.25 161.95 53.7 161.0 53.0 161.0 51.0 L161.0 43.0 161.0 42.0 160.0 42.0 Q158.05 41.95 157.0 41.0 L156.25 40.75 156.0 40.0 155.1 39.8 154.0 39.0 153.1 38.8 Q150.95 37.55 148.0 37.0 L147.25 36.75 147.0 36.0 146.15 35.8 Q138.9 31.6 131.0 28.0 L130.25 27.75 Q130.0 27.5 130.0 27.0 L129.1 26.8 123.0 24.0 122.25 23.75 Q122.0 23.5 122.0 23.0 L121.05 22.85 119.0 22.0 118.1 21.8 Q117.5 21.5 117.0 21.0 L116.2 20.75 112.0 17.0 111.25 16.75 111.0 16.0 110.45 15.85 Q109.55 13.45 108.0 12.0 L107.95 11.5 91.0 11.0 Q90.5 11.0 90.2 11.25 87.85 13.35 84.0 14.0 L83.75 14.75 83.0 15.0 82.1 15.2 Q81.5 15.5 81.0 16.0 L80.0 16.0 79.0 16.0 78.75 16.65 Q74.2 19.7 70.0 23.0 L69.75 23.75 68.0 25.0 67.1 25.2 66.0 26.0 65.75 26.75 63.0 29.0 62.75 29.65 Q59.65 31.65 57.0 34.0 58.25 35.2 62.0 34.5 L62.0 35.0 Q63.75 37.25 62.55 41.9 L62.0 42.0 61.2 41.75 Q59.65 40.35 60.0 37.0 L59.1 37.2 Q55.95 38.95 52.0 40.0 L51.75 40.75 51.0 41.0 51.0 43.0 51.0 44.0 51.0 45.0 Q51.2 49.15 50.0 47.0 L49.0 47.0 48.45 46.9 Q48.0 45.0 48.0 43.0 47.5 43.0 47.35 43.25 45.65 45.65 43.0 47.0 L42.75 47.65 Q38.5 50.5 35.0 54.0 34.5 54.0 34.25 54.25 33.0 55.5 31.0 56.0 31.0 56.5 30.8 56.6 29.0 57.5 27.0 58.0 L26.75 58.75 26.0 59.0 25.85 59.55 Q24.05 60.05 23.0 61.0 L22.15 61.2 Q18.75 63.25 14.0 64.0 L13.9 64.55 Q12.05 64.95 11.0 64.0 10.5 64.0 10.15 64.25 8.95 64.95 7.0 65.0 L7.0 66.0 7.8 67.1 8.0 68.0 Q9.2 69.8 11.1 70.8 L12.0 71.0 Q17.9 70.2 23.2 74.75 L24.0 75.0 Q26.75 75.75 26.1 80.0 L26.0 81.0 Q29.1 83.45 33.9 84.5 L34.0 85.0 Q35.5 85.0 36.85 85.45 L37.0 86.0 37.8 87.1 38.0 88.0 37.75 88.85 Q35.8 91.6 36.0 87.0 L35.45 86.9 Q35.15 85.4 33.0 86.0 L32.2 85.75 Q28.1 82.6 24.0 84.0 L23.5 84.0 Q23.65 81.9 22.0 82.0 L21.1 81.8 18.0 80.0 17.15 79.75 15.0 78.0 14.0 78.0 13.0 78.0 12.0 77.95 Q10.3 77.7 11.0 75.0 L11.0 74.0 10.4 73.8 Q9.1 70.9 7.0 69.0 L6.8 68.1 6.0 67.0 Q5.5 67.0 5.4 66.8 5.0 66.0 5.0 65.0 L4.0 64.95 Q1.45 64.55 0.0 63.0 L0.0 62.0 0.0 61.0 0.0 60.0 1.0 60.0 2.0 60.0 3.75 61.25 4.0 62.0 Q5.3 63.2 7.9 62.55 L8.0 62.0 8.0 61.0 8.0 60.0 8.0 59.0 9.0 59.0 10.0 59.0 10.0 58.0 Q12.95 57.45 15.1 56.2 L16.0 56.0 16.0 55.0 Q20.95 53.1 24.75 56.3 L25.0 57.0 26.0 57.0 Q28.0 56.5 29.25 55.25 29.5 55.0 30.0 55.0 32.0 54.5 33.25 53.25 33.5 53.0 34.0 53.0 L34.0 52.0 Q38.6 50.1 41.35 46.25 41.5 46.0 42.0 46.0 L42.0 45.0 Q46.75 43.25 49.35 39.25 49.5 39.0 50.0 39.0 L50.0 38.0 Q53.75 37.25 55.4 34.2 L56.0 34.0 56.0 33.0 Q59.15 31.15 61.3 28.25 61.5 28.0 62.0 28.0 L62.0 27.0 Q63.0 26.5 64.05 26.15 L65.0 26.0 65.0 25.0 66.1 24.2 67.0 24.0 67.0 23.0 Q68.0 22.5 69.05 22.15 L70.0 22.0 70.0 21.0 Q73.35 18.35 77.1 16.2 L78.0 16.0 78.0 15.0 79.0 15.0 80.0 15.0 80.0 14.0 81.0 14.0 82.0 14.0 82.0 13.0 83.0 13.0 84.0 13.0 84.0 12.0 Q86.95 11.45 89.1 10.2 L90.0 10.0 90.0 9.0 98.0 9.0 99.0 9.0 101.0 9.0 102.0 9.0 107.9 9.5 108.0 10.0 108.75 10.25 109.0 11.0 110.75 13.15 111.0 14.0 112.75 16.15 113.0 17.0 Q116.65 19.7 116.5 14.0 L117.0 14.0 Q122.9 13.2 128.2 17.75 L129.0 18.0 129.75 18.25 130.0 19.0 Q131.7 20.75 131.05 25.0 L131.0 26.0 Q131.5 26.0 131.75 26.25 L132.0 27.0 Q138.45 29.55 144.1 32.8 L145.0 33.0 Q146.7 32.2 146.5 29.0 L147.0 29.0 Q152.9 28.2 158.2 32.75 L159.0 33.0 160.75 34.25 161.0 35.0 161.0 39.0 161.0 40.0 161.0 41.0 162.0 41.0 163.1 40.2 164.0 40.0 164.0 39.0 Q165.7 38.7 165.1 36.0 L165.0 35.0 164.25 34.75 Q164.0 34.5 164.0 34.0 L163.5 33.95 Q163.0 30.0 163.0 26.0 L163.0 25.0 163.0 21.0 164.0 21.0 Q165.0 20.5 166.05 20.15 L167.0 20.0 167.0 19.0 167.0 17.0 167.0 16.0 167.0 14.0 168.0 14.0 168.0 13.0 168.0 12.0 168.0 11.0 168.0 9.0 176.0 9.0 177.0 9.0 180.0 9.0 181.0 9.0 181.0 8.0 181.0 5.0 182.0 5.0 182.0 4.0 182.0 1.0 182.0 0.0 188.0 0.0 189.0 0.0 193.0 0.0 194.0 0.0 194.0 1.0 195.0 1.0 196.0 1.0 197.0 1.0 198.8 1.4 Q199.0 1.5 199.0 2.0 200.75 4.25 200.05 9.0 L200.0 10.0 204.0 10.0 205.0 10.0 209.9 10.5 210.0 11.0 M84.0 24.0 L83.8 24.6 Q83.0 25.0 82.0 25.0 L82.05 26.0 Q82.7 30.2 81.0 32.0 L80.0 32.0 79.5 31.95 Q79.0 28.0 79.0 24.0 L80.0 24.0 81.0 24.0 81.0 23.0 Q86.25 20.25 93.0 19.5 L93.0 20.0 Q94.7 21.75 93.55 25.85 L93.0 26.0 93.0 26.5 91.0 26.0 90.45 25.85 Q90.0 24.5 90.0 23.0 L91.0 23.0 91.0 22.0 90.0 22.0 89.0 22.0 88.75 22.75 88.0 23.0 Q87.5 23.0 87.4 23.2 86.7 24.7 84.0 24.0 M158.0 35.0 L157.1 34.8 151.0 32.0 150.0 32.0 150.0 35.0 150.0 36.0 Q152.9 36.1 154.3 37.75 L155.0 38.0 Q155.5 38.0 155.75 38.25 L156.0 39.0 157.0 39.0 158.0 39.0 158.0 38.0 158.0 35.0 M171.0 90.0 L171.0 91.0 Q170.5 101.2 167.0 92.0 L166.85 92.55 Q163.05 94.05 160.0 96.0 L160.0 98.0 160.0 99.0 160.1 99.95 Q160.65 102.15 159.0 102.0 L158.1 101.8 Q157.5 101.5 157.0 101.0 L156.45 100.85 Q156.0 99.5 156.0 98.0 L157.0 98.0 157.0 97.0 157.0 96.0 157.0 95.0 157.0 94.0 158.0 94.0 159.0 94.0 159.0 93.0 Q164.25 90.25 171.0 89.5 L171.0 90.0 M166.0 66.0 L166.0 64.0 165.0 64.0 161.0 64.0 161.0 67.0 161.0 68.0 165.9 67.5 166.0 67.0 166.0 66.0" fill="#ff0000" fill-rule="evenodd" stroke="none"/>
  </g>
</svg>
