<?xml version="1.0" encoding="UTF-8" standalone="no"?>
<svg xmlns:xlink="http://www.w3.org/1999/xlink" height="144.05px" width="100.3px" xmlns="http://www.w3.org/2000/svg">
  <g transform="matrix(1.0, 0.0, 0.0, 1.0, -0.95, -1.0)">
    <path d="M87.5 54.0 Q85.4 58.1 82.55 59.45 80.55 60.35 75.0 60.85 L75.0 64.3 75.35 65.7 Q75.8 66.8 77.0 68.0 L77.0 66.0 Q87.15 71.45 94.65 73.95 96.4 74.8 96.75 76.1 97.05 77.05 97.05 81.0 97.05 83.6 96.6 84.45 95.9 85.8 93.5 85.8 92.1 85.8 89.95 84.4 L88.0 83.0 Q86.75 83.0 86.4 84.15 86.0 85.65 86.0 91.5 86.0 98.5 86.7 99.3 L87.2 99.6 Q87.45 99.85 87.5 101.0 89.95 99.8 92.15 101.25 L95.1 102.95 Q94.65 112.4 92.5 116.8 91.05 119.8 89.35 119.8 L88.55 119.6 88.0 119.0 86.0 119.0 86.0 134.2 Q91.05 134.55 91.85 135.05 93.0 135.7 93.0 139.05 93.0 141.35 91.65 142.65 89.2 145.0 82.5 145.0 77.4 145.0 75.35 143.65 73.0 142.1 73.0 138.0 73.0 137.35 75.35 136.0 77.45 134.8 78.2 134.7 L79.0 135.0 80.6 127.8 Q80.6 124.5 79.4 122.45 77.95 120.0 75.0 120.0 74.95 120.0 68.25 122.55 61.5 125.05 58.3 125.05 L56.0 125.0 Q57.45 130.55 52.4 137.25 46.55 145.0 36.85 145.0 34.3 145.0 31.25 142.2 27.0 138.25 27.0 131.3 27.0 128.9 29.05 125.1 L31.1 121.7 Q31.1 118.5 27.7 115.7 23.2 112.65 21.0 111.0 L21.7 114.7 22.1 118.2 Q22.1 120.75 21.55 121.75 20.45 123.9 17.0 122.9 L17.0 128.0 Q17.45 130.85 17.45 134.0 19.35 134.15 22.05 135.3 25.05 136.55 25.05 137.6 25.05 140.75 20.65 143.0 16.75 145.0 12.4 145.0 10.5 145.2 8.65 144.3 5.0 142.5 5.0 137.0 5.0 135.45 7.45 134.6 9.7 133.9 13.0 134.0 L11.45 130.0 Q10.6 128.0 10.6 127.35 10.6 121.05 9.1 118.8 8.3 117.55 5.8 116.8 3.45 116.1 2.5 114.25 1.0 111.35 1.0 104.0 1.0 103.45 2.55 103.2 L6.0 102.5 Q11.0 101.15 11.0 96.35 L10.65 92.65 Q10.25 88.35 10.0 83.0 L9.1 82.95 Q5.8 84.55 4.0 85.0 L1.5 85.0 1.0 72.5 Q1.0 71.7 3.4 68.35 L8.7 61.0 Q16.35 49.75 16.35 42.8 16.35 40.35 15.8 39.6 15.4 39.0 14.0 39.0 12.8 39.0 10.95 42.25 9.1 45.5 5.7 45.5 4.45 45.5 2.85 44.5 0.7 43.1 1.0 41.0 5.7 38.95 12.05 37.7 15.0 37.1 15.0 34.95 10.45 25.6 10.0 24.0 L11.65 24.15 Q12.85 23.8 13.0 22.0 11.2 21.25 7.25 20.25 5.8 19.9 5.8 18.5 5.8 14.85 14.35 8.2 23.6 1.0 31.0 1.0 46.3 1.0 46.3 8.75 46.3 12.15 43.65 15.1 41.0 18.05 41.0 20.0 41.0 22.3 42.6 23.05 44.45 23.9 45.0 28.0 47.35 27.0 48.5 27.0 L53.1 27.3 55.0 29.0 57.0 29.0 Q57.5 26.3 58.75 23.35 L60.0 20.0 66.05 21.15 Q67.0 21.5 67.0 22.85 L62.5 27.65 Q58.0 32.9 58.0 36.0 58.0 45.1 66.35 48.4 71.6 50.5 87.5 54.0 M65.55 141.0 L63.2 139.65 63.0 139.0 Q64.2 139.65 65.55 141.0 M96.2 128.15 L96.2 125.25 101.25 125.25 101.25 128.15 96.2 128.15" fill="#ff0000" fill-rule="evenodd" stroke="none"/>
  </g>
</svg>
