<?xml version="1.0" encoding="UTF-8" standalone="no"?>
<svg xmlns:xlink="http://www.w3.org/1999/xlink" height="172.0px" width="132.0px" xmlns="http://www.w3.org/2000/svg">
  <g transform="matrix(1.0, 0.0, 0.0, 1.0, 0.0, 0.0)">
    <path d="M93.85 47.5 Q104.05 56.9 110.55 61.0 L107.7 64.35 Q105.2 67.25 105.0 68.0 L106.0 72.85 Q106.2 73.6 105.15 75.05 104.0 76.6 104.0 78.0 104.0 79.15 109.15 84.75 115.1 91.2 119.5 92.0 124.55 92.9 125.35 94.8 126.75 98.05 130.9 100.7 130.25 102.45 128.7 103.15 L126.25 103.6 126.0 105.0 Q126.0 106.1 127.1 108.15 128.2 110.15 128.2 110.7 128.2 111.5 127.85 111.75 127.1 112.3 127.1 112.35 126.0 113.75 126.0 120.5 126.0 129.15 129.0 130.15 130.9 130.75 131.05 130.9 132.0 131.75 132.0 134.5 132.0 137.05 127.75 138.1 L122.05 138.75 Q116.35 138.75 115.7 136.85 115.35 135.75 115.0 135.5 114.2 134.9 111.8 134.9 L109.0 135.0 Q109.35 136.8 110.85 138.5 L113.9 141.6 Q118.05 146.35 118.05 155.75 118.05 160.15 114.4 163.0 109.8 166.55 99.95 166.95 L86.1 169.55 Q73.65 172.0 68.0 172.0 67.4 172.0 67.3 171.45 L67.0 170.0 Q67.15 169.7 79.75 167.45 L96.7 164.7 97.0 164.5 Q97.0 163.15 95.95 159.45 L94.0 153.0 94.0 147.0 95.0 147.0 95.0 142.0 99.0 142.0 100.25 144.8 100.0 149.0 Q102.1 148.95 102.25 148.5 102.45 147.85 103.55 147.6 L103.85 143.25 104.0 138.9 Q104.0 133.45 103.65 132.1 103.35 130.85 102.0 130.85 99.3 130.85 95.95 132.35 91.9 134.4 89.6 135.6 80.35 140.25 71.0 140.0 69.35 155.95 71.45 157.05 L73.8 156.9 Q75.45 156.55 76.4 157.75 L76.8 158.1 77.0 159.05 Q77.0 163.9 74.1 165.3 72.35 166.15 66.55 166.15 63.8 166.15 62.45 164.55 60.2 161.75 57.0 160.0 56.75 163.05 52.35 164.8 49.15 166.1 46.45 166.1 37.1 166.1 33.4 162.25 31.9 160.7 31.0 157.0 L29.65 157.6 28.0 158.0 Q24.75 158.0 22.1 154.8 20.1 152.45 19.85 150.95 L22.1 149.3 Q23.65 148.0 22.2 148.1 L22.0 148.0 22.55 147.9 Q23.75 147.9 24.15 148.4 24.5 148.85 24.5 150.15 L24.8 150.25 26.45 146.75 Q27.0 145.55 27.0 138.75 27.0 133.05 25.45 131.95 L24.35 131.2 Q23.85 130.6 23.85 129.0 23.85 128.0 26.5 126.0 28.95 124.2 30.0 124.0 18.95 112.85 18.0 112.85 17.15 112.85 16.75 113.75 16.0 115.45 16.0 120.5 16.0 128.4 19.5 129.8 L21.9 130.7 Q23.0 131.4 23.0 133.4 23.0 136.65 21.35 137.0 18.1 137.75 16.45 139.2 L14.5 138.0 11.7 138.35 Q11.5 139.95 11.6 141.95 11.3 143.15 8.65 143.15 7.3 143.15 6.55 142.3 5.8 141.45 6.0 140.0 7.95 139.25 10.0 139.0 9.4 137.45 8.25 137.25 L7.1 137.4 Q6.0 137.4 5.55 136.5 5.2 135.65 3.0 136.0 3.05 138.7 1.45 139.65 L0.8 139.9 0.0 140.0 1.4 138.15 3.0 136.0 Q4.4 133.4 6.2 131.65 L8.75 129.25 Q11.0 126.6 11.0 117.5 L10.7 115.0 10.35 113.2 Q9.1 112.4 8.45 110.8 7.85 109.5 7.85 108.25 L7.95 106.85 Q8.05 106.15 8.15 106.45 L8.65 106.55 10.2 105.4 Q10.65 105.0 11.0 105.0 L13.1 104.95 Q15.3 105.25 16.0 107.0 L20.55 100.85 Q21.75 98.9 21.75 96.4 21.75 95.25 21.0 93.0 L23.35 92.75 24.8 92.95 24.8 90.5 Q24.95 88.3 25.7 87.0 31.05 86.05 32.3 84.5 31.95 82.5 30.85 80.65 30.0 79.25 30.0 76.15 30.0 74.45 31.2 72.65 32.55 70.65 33.0 63.0 L34.0 63.0 34.0 60.0 Q31.35 61.0 30.25 61.0 28.45 61.0 27.45 60.1 26.15 58.95 26.0 56.0 L26.0 54.0 31.65 54.5 Q32.95 54.5 42.65 45.35 53.0 35.65 53.0 32.0 53.0 30.0 51.9 28.25 L49.5 25.0 Q46.0 20.1 46.0 12.0 46.0 5.95 53.85 2.5 59.5 0.0 64.5 0.0 74.45 0.0 84.25 7.3 94.05 14.65 94.05 22.15 94.05 26.6 89.9 31.1 85.95 35.35 83.0 35.0 83.3 37.7 93.85 47.5 M10.55 150.5 Q10.55 151.6 9.75 152.4 8.95 153.2 7.85 153.2 6.75 153.2 5.95 152.4 5.15 151.6 5.15 150.5 5.15 149.4 5.95 148.6 6.75 147.8 7.85 147.8 8.95 147.8 9.75 148.6 10.55 149.4 10.55 150.5" fill="#ff0000" fill-rule="evenodd" stroke="none"/>
  </g>
</svg>
