<?xml version="1.0" encoding="UTF-8" standalone="no"?>
<svg xmlns:xlink="http://www.w3.org/1999/xlink" height="170.9px" width="133.05px" xmlns="http://www.w3.org/2000/svg">
  <g transform="matrix(1.0, 0.0, 0.0, 1.0, 0.0, 0.0)">
    <path d="M107.85 67.35 Q107.85 69.1 107.55 69.45 L106.9 69.9 Q106.0 70.95 106.05 80.0 108.65 79.55 111.55 80.95 115.95 83.0 115.95 88.3 115.95 92.35 114.0 94.45 L112.05 96.0 Q112.05 99.9 116.3 99.9 124.85 99.9 127.4 100.75 133.05 102.6 133.05 109.5 133.05 113.6 130.15 118.15 127.45 122.45 125.05 123.0 125.45 127.1 128.9 132.0 L132.3 136.7 Q131.7 138.3 130.15 139.9 127.05 143.1 122.15 143.1 119.15 143.1 116.25 141.5 113.1 139.7 112.05 137.0 L112.3 138.1 Q112.45 141.55 110.55 142.7 109.6 143.25 108.55 143.15 L108.05 143.15 108.05 151.0 Q111.75 150.85 113.7 152.95 115.05 154.45 115.05 156.0 115.05 159.2 111.65 161.15 108.55 162.95 104.1 162.95 98.2 162.95 97.05 153.0 98.95 153.95 101.55 151.95 104.35 149.8 104.35 146.4 104.35 144.2 101.25 140.45 98.8 137.6 97.8 136.95 93.4 141.2 90.55 142.05 86.7 143.2 71.05 144.0 72.0 145.75 72.0 147.35 72.0 149.35 71.4 150.2 70.75 151.15 69.0 151.15 L68.0 151.1 67.7 151.0 67.5 154.55 Q67.5 158.05 71.1 160.05 74.7 162.05 74.7 164.5 74.7 166.65 72.7 168.55 70.2 170.9 66.0 170.9 61.45 170.9 59.1 168.55 57.0 166.45 57.0 163.05 57.0 161.05 57.95 159.9 59.05 158.6 61.25 158.6 L64.05 159.0 64.05 151.0 Q61.25 150.75 60.05 149.3 58.85 147.85 59.05 145.0 L59.15 144.45 59.85 144.4 60.05 144.0 Q58.8 144.05 47.65 140.6 34.95 136.65 32.0 136.0 L32.05 136.2 32.95 139.7 Q32.95 140.75 32.15 141.6 30.85 143.05 28.0 143.0 L28.0 151.0 Q32.15 150.35 34.15 153.75 35.35 155.8 35.35 157.7 35.35 160.1 31.8 161.5 28.9 162.65 25.65 162.65 23.0 162.65 20.2 160.8 17.0 158.7 17.0 156.0 17.0 155.15 18.95 153.35 21.35 151.15 24.0 151.05 L24.0 142.5 Q19.7 142.9 19.5 140.5 L19.8 137.6 Q19.55 139.2 17.3 140.7 14.05 142.9 9.7 142.9 4.5 142.9 1.85 140.1 0.0 138.15 0.0 136.0 0.0 134.25 4.2 131.85 8.35 129.45 8.35 126.15 8.35 123.55 5.7 122.55 3.0 121.5 3.0 118.5 3.0 118.0 3.5 117.75 4.0 117.5 4.0 117.0 4.0 115.7 2.5 111.25 L1.0 107.0 Q1.0 101.0 11.5 99.0 L18.7 97.45 Q22.0 96.3 22.0 94.0 22.0 93.4 21.45 92.35 L20.9 91.45 Q19.75 87.45 19.75 85.55 19.75 81.85 23.4 80.15 27.0 78.4 27.0 73.95 27.0 70.9 25.5 69.55 24.0 68.2 24.0 66.0 24.0 64.2 25.75 59.2 28.1 52.45 31.85 46.7 43.2 29.2 62.05 28.0 60.25 25.65 57.05 23.05 L51.85 18.85 Q46.0 13.9 46.0 8.0 46.0 5.9 50.5 3.3 55.5 0.4 61.05 0.5 L67.05 0.0 Q74.15 0.0 79.15 2.05 86.05 4.9 86.05 11.0 86.05 12.8 79.0 18.8 L70.05 26.0 70.05 29.0 Q87.15 32.55 97.6 43.3 107.85 53.85 107.85 67.35" fill="#ff0000" fill-rule="evenodd" stroke="none"/>
  </g>
</svg>
