<?xml version="1.0" encoding="UTF-8" standalone="no"?>
<svg xmlns:xlink="http://www.w3.org/1999/xlink" height="186.25px" width="143.0px" xmlns="http://www.w3.org/2000/svg">
  <g transform="matrix(1.0, 0.0, 0.0, 1.0, 0.0, 0.0)">
    <path d="M111.5 74.05 Q110.65 75.8 110.0 80.0 116.35 79.7 118.05 80.7 119.95 81.8 119.95 86.25 119.95 90.05 119.0 93.6 L118.0 96.5 Q118.0 98.05 121.3 98.85 L128.6 100.25 Q139.15 102.6 139.15 110.1 139.15 112.7 137.6 117.3 136.0 121.85 136.0 123.5 136.0 127.9 137.4 130.15 138.8 132.4 138.8 133.25 138.8 136.6 137.05 137.45 134.2 138.15 132.0 139.0 L132.75 139.85 Q139.55 145.15 143.0 145.0 L143.0 152.0 Q140.2 154.3 134.5 155.8 127.85 157.6 115.0 159.0 122.35 162.25 124.4 164.2 126.1 165.85 126.1 168.9 126.1 172.1 123.45 174.8 119.7 178.6 112.05 178.6 105.85 178.6 103.25 175.6 100.8 172.75 99.0 164.0 L103.9 162.6 Q107.3 161.5 107.3 160.2 107.3 159.9 105.95 158.5 104.55 157.0 104.0 157.0 102.15 157.0 100.3 157.9 L96.75 159.75 Q91.25 162.2 81.0 160.85 78.3 162.6 77.1 165.75 76.15 168.2 75.0 168.2 L74.15 168.1 74.0 168.0 81.95 172.75 Q84.95 174.5 84.95 178.3 84.95 182.55 80.2 184.6 76.35 186.25 69.95 186.25 62.85 186.25 60.15 182.2 58.0 179.0 58.0 171.85 58.0 170.35 59.55 169.95 L68.0 168.0 66.7 167.9 Q65.0 167.35 63.25 165.15 61.3 162.7 62.0 161.0 56.85 160.6 50.5 158.65 45.05 157.0 39.0 157.0 38.75 157.0 37.6 158.15 36.5 159.3 35.75 159.3 L34.4 159.15 33.0 159.0 Q33.05 159.9 33.25 160.6 34.0 161.2 40.15 164.05 44.1 165.85 44.1 168.8 44.1 173.2 39.35 175.75 35.3 177.9 29.85 177.9 26.8 177.9 22.4 175.9 16.3 173.15 16.3 168.7 16.3 165.95 20.7 163.8 25.85 161.25 27.0 159.0 25.0 158.65 23.15 157.3 21.45 156.0 21.0 156.0 20.55 156.0 17.8 156.95 15.05 157.85 12.85 157.85 10.55 157.85 6.2 156.2 1.6 154.35 0.0 153.85 L0.0 146.0 1.0 146.0 Q0.9 143.05 3.6 141.95 L11.0 140.0 11.0 139.0 Q7.0 138.85 5.4 136.5 4.0 134.5 4.0 130.0 4.0 128.8 5.75 127.0 7.5 125.15 7.5 122.65 7.5 120.65 6.65 119.75 L4.75 118.3 Q2.0 115.8 2.0 106.0 2.0 103.15 10.15 100.8 21.05 97.7 25.0 95.0 23.2 94.1 22.35 91.05 21.8 89.05 21.8 86.8 21.8 82.1 23.55 80.65 24.75 79.65 27.4 80.0 L31.25 80.35 Q33.0 80.0 33.0 77.15 33.0 75.65 31.5 72.7 30.0 69.75 30.0 64.15 30.0 63.65 30.45 64.0 30.9 64.35 30.9 63.85 30.9 56.1 37.3 48.05 47.05 35.85 67.0 34.0 57.8 20.35 50.7 14.7 48.8 13.15 48.4 12.2 48.0 11.1 48.0 7.0 48.0 5.4 52.3 3.1 58.1 0.0 67.0 0.0 70.05 0.0 76.1 1.1 84.9 2.75 89.7 5.6 104.6 14.35 76.0 31.0 L76.0 34.0 Q94.4 37.1 103.35 46.8 112.1 56.25 112.1 72.15 112.1 72.8 111.5 74.05" fill="#ff0000" fill-rule="evenodd" stroke="none"/>
  </g>
</svg>
