<?xml version="1.0" encoding="UTF-8" standalone="no"?>
<svg xmlns:xlink="http://www.w3.org/1999/xlink" height="118.0px" width="173.0px" xmlns="http://www.w3.org/2000/svg">
  <g transform="matrix(1.0, 0.0, 0.0, 1.0, 0.0, -1.0)">
    <path d="M136.75 91.3 L136.15 91.1 134.65 90.4 134.0 90.0 136.75 91.3 M164.0 48.0 L162.0 48.0 162.0 59.8 Q168.4 59.25 171.25 62.95 173.0 65.2 173.0 68.0 173.0 71.45 170.0 73.95 166.05 77.3 157.85 77.3 155.6 77.3 150.55 74.15 145.5 71.0 145.0 71.0 143.9 71.0 142.9 72.25 L140.7 75.45 Q136.85 80.95 130.65 84.15 124.15 87.55 116.8 89.75 107.55 92.6 104.6 93.8 L82.2 102.8 Q80.05 103.8 79.7 104.65 79.45 105.15 79.8 106.95 L77.35 106.55 75.05 106.2 67.05 107.0 Q64.8 107.0 63.45 106.25 61.75 105.3 61.0 103.0 L72.95 103.75 Q77.15 103.65 77.15 102.05 L77.05 101.2 76.95 101.1 78.0 101.0 Q78.65 101.0 79.3 101.4 L80.0 102.0 Q80.8 101.65 81.05 101.1 L81.3 99.75 81.15 97.0 75.25 96.15 Q70.3 95.0 64.0 95.0 L62.2 95.4 60.35 95.8 Q56.5 95.55 51.0 92.0 51.1 93.75 52.05 99.55 52.05 102.35 48.8 103.9 46.3 105.05 43.35 105.05 37.8 105.05 34.1 101.25 31.0 98.1 31.0 95.0 31.0 90.75 37.8 89.9 L42.9 89.4 Q45.45 89.15 46.1 88.4 31.85 69.7 29.0 67.0 L27.65 69.15 26.0 71.0 33.45 79.65 Q35.15 81.6 35.15 82.75 35.15 83.6 31.3 85.75 27.25 88.0 25.0 88.0 18.7 88.0 11.2 84.65 1.8 80.4 0.0 80.0 L0.0 75.0 Q2.1 73.2 7.7 70.65 13.45 68.0 13.8 67.7 15.9 66.05 17.05 62.3 18.0 59.25 19.1 59.25 L22.2 61.9 Q25.75 64.6 29.0 65.0 27.9 59.4 26.9 56.15 26.45 54.8 26.0 50.0 L26.0 41.0 27.0 41.0 Q24.65 34.7 33.75 25.7 43.15 16.45 54.85 14.65 57.75 14.2 62.25 11.9 L70.9 7.3 Q83.3 1.0 95.0 1.0 104.15 1.0 109.5 3.2 113.05 4.65 116.45 8.0 120.2 11.7 122.25 12.8 126.4 15.0 133.5 15.0 L145.75 14.0 Q148.1 14.0 148.6 15.45 L149.25 19.5 Q151.0 27.0 163.7 33.85 169.95 36.75 169.4 45.45 169.2 48.75 168.0 51.3 166.8 53.8 165.55 53.8 164.85 53.8 164.25 53.2 163.45 52.35 163.45 50.85 163.45 50.25 163.75 49.2 L164.0 48.0 M143.95 85.0 Q142.75 83.15 142.0 81.0 L143.15 80.0 Q144.4 79.0 145.0 79.0 148.85 79.0 153.3 86.0 155.55 89.5 157.0 93.0 157.0 94.1 156.1 94.8 155.3 95.45 154.15 95.45 L152.2 94.35 149.5 92.0 Q146.9 92.85 145.55 94.4 144.45 95.7 144.0 95.7 141.8 95.7 140.0 92.0 141.45 91.75 143.0 90.4 145.0 88.7 145.0 86.5 L143.95 85.0 M103.2 104.45 L103.0 106.0 Q107.1 106.65 108.55 108.05 110.0 109.45 110.0 112.75 110.0 116.4 107.5 117.85 105.45 119.0 101.0 119.0 95.6 119.0 93.25 116.75 91.0 114.65 91.0 110.0 91.0 108.85 92.1 108.6 L94.55 108.5 Q98.05 108.3 98.05 103.9 L97.95 101.8 100.4 101.7 Q103.2 101.7 103.2 104.45 M133.5 102.3 Q135.8 103.8 135.8 105.95 135.8 108.1 133.5 109.6 131.15 111.1 127.9 111.1 124.65 111.1 122.35 109.6 120.0 108.1 120.0 105.95 120.0 103.8 122.35 102.3 124.65 100.8 127.9 100.8 131.15 100.8 133.5 102.3" fill="#ff0000" fill-rule="evenodd" stroke="none"/>
  </g>
</svg>
