<?xml version="1.0" encoding="UTF-8" standalone="no"?>
<svg xmlns:xlink="http://www.w3.org/1999/xlink" height="191.05px" width="163.15px" xmlns="http://www.w3.org/2000/svg">
  <g transform="matrix(1.0, 0.0, 0.0, 1.0, -1.0, -0.95)">
    <path d="M91.0 34.0 Q93.05 34.15 93.9 36.05 L94.85 40.05 Q95.9 45.75 100.65 45.75 L103.3 44.9 Q105.95 44.0 106.5 44.0 L111.15 45.8 Q116.65 48.2 121.5 51.4 136.95 61.5 140.05 75.05 140.8 74.85 141.45 74.35 141.9 74.0 142.5 74.0 145.25 74.0 146.65 74.65 148.75 75.65 148.75 78.3 148.75 79.15 147.35 80.25 145.55 81.7 142.8 81.7 140.2 81.7 136.95 77.35 127.3 64.35 122.0 58.0 L117.0 58.0 116.85 63.0 118.6 66.45 Q120.3 70.25 120.3 72.55 L120.05 73.1 119.6 72.95 Q118.85 73.1 118.85 77.8 L119.0 84.0 119.85 83.35 Q120.35 83.0 121.0 83.0 125.55 83.0 128.05 84.25 130.7 85.6 130.7 88.15 L129.35 90.45 Q128.0 92.85 128.0 94.0 128.0 100.2 129.1 102.8 131.2 108.0 137.95 108.0 139.15 108.0 141.1 107.1 143.0 106.15 144.0 106.15 147.55 106.15 148.45 107.1 149.0 107.7 149.0 110.05 149.0 111.25 148.0 111.85 147.0 114.1 147.0 123.5 147.0 132.8 148.4 136.3 149.5 139.05 149.0 144.0 155.5 143.75 160.2 147.55 164.15 150.7 164.15 153.8 164.15 158.1 156.55 160.1 151.0 161.6 142.85 161.6 L133.45 161.05 133.0 157.0 Q132.1 157.3 131.0 158.0 133.7 165.3 140.05 169.7 L144.0 172.2 Q145.65 173.25 145.65 174.0 145.65 175.45 142.6 178.2 139.55 180.9 137.1 181.75 137.35 183.0 136.6 183.6 L135.55 183.95 132.8 183.5 130.0 183.0 Q126.95 183.0 124.85 184.95 124.0 183.15 118.55 180.55 113.55 178.2 110.65 177.75 L110.5 176.25 110.45 173.9 109.8 173.7 108.7 173.5 Q107.75 173.5 93.15 181.85 77.7 190.75 74.0 192.0 L74.0 187.0 Q73.7 187.35 72.7 187.35 72.2 187.35 71.0 186.0 73.6 182.7 75.35 181.0 L77.7 178.9 78.0 178.5 76.8 178.55 Q70.4 178.55 56.0 174.9 41.5 171.2 38.55 167.85 42.9 174.2 45.95 176.95 47.9 178.7 47.9 179.0 47.9 182.1 45.0 183.5 30.3 183.5 22.7 179.85 16.7 176.95 14.0 171.0 20.25 169.35 27.7 168.2 32.0 166.75 32.0 160.35 32.0 158.55 31.55 157.95 31.2 157.45 30.3 157.45 L25.65 158.75 Q20.6 160.0 18.0 160.0 17.1 160.0 15.1 159.0 13.15 158.0 12.5 158.0 11.15 158.0 9.45 158.65 L7.65 159.25 Q7.3 159.05 7.05 156.0 L3.8 155.45 Q1.75 154.7 1.0 153.0 2.9 152.65 2.9 151.05 2.9 150.55 2.55 150.15 2.15 149.7 1.0 149.0 5.65 147.25 8.2 145.9 13.0 143.45 13.0 141.0 13.0 140.35 12.0 139.45 11.0 138.55 11.0 138.0 11.0 135.95 13.65 129.9 16.25 123.85 16.25 122.95 16.25 119.65 15.65 119.0 14.65 117.95 14.0 115.0 L30.65 114.5 Q32.1 114.5 32.25 112.85 L32.0 105.15 Q35.0 100.3 35.0 99.3 35.0 94.35 33.55 92.7 L32.0 92.0 Q30.7 92.0 21.05 97.0 11.4 102.0 10.25 102.0 8.5 102.0 6.75 99.75 4.7 97.1 5.0 93.15 L8.0 93.0 11.6 94.0 Q15.6 95.0 18.0 95.0 21.7 95.0 25.65 90.35 31.15 83.8 34.8 81.45 38.05 79.35 40.0 78.6 40.95 78.2 41.15 77.8 L40.7 72.7 Q40.15 67.2 41.05 63.35 43.45 53.25 50.1 47.85 55.15 43.75 59.9 43.75 L64.0 46.0 Q66.95 46.0 69.35 41.5 71.8 37.0 72.15 37.0 L72.95 37.25 73.0 38.0 75.0 38.0 76.7 34.0 Q77.2 32.9 77.2 31.45 77.2 28.5 75.55 23.35 73.9 18.2 73.9 15.2 75.8 4.35 76.0 1.0 80.8 0.25 94.7 11.8 108.6 23.3 108.6 28.1 108.6 34.05 104.15 34.05 L101.5 33.55 Q100.1 33.0 98.5 33.0 L91.0 34.0 M134.1 122.55 L138.5 123.65 Q141.6 124.5 144.0 126.0 L144.0 119.0 Q141.6 113.6 141.0 112.8 139.5 110.95 136.15 110.95 L131.9 111.45 Q130.0 112.35 130.0 115.5 130.0 121.25 134.1 122.55" fill="#ff0000" fill-rule="evenodd" stroke="none"/>
    <path d="M7.0 184.5 Q7.0 184.1 8.35 183.85 L9.6 183.8 7.0 184.5 M54.0 181.05 Q54.0 179.8 55.45 178.9 56.9 178.0 58.95 178.0 61.0 178.0 62.45 178.9 63.9 179.8 63.9 181.05 63.9 182.3 62.45 183.2 61.0 184.1 58.95 184.1 56.9 184.1 55.45 183.2 54.0 182.3 54.0 181.05 M49.65 187.4 L49.0 187.0 51.75 188.3 50.6 187.85 49.65 187.4 M63.85 186.55 L63.0 186.0 64.3 186.35 Q65.3 186.65 65.85 187.2 L65.7 187.2 Q65.0 187.15 63.85 186.55" fill="#333333" fill-rule="evenodd" stroke="none"/>
  </g>
</svg>
