<?xml version="1.0" encoding="UTF-8" standalone="no"?>
<svg xmlns:xlink="http://www.w3.org/1999/xlink" height="209.5px" width="154.0px" xmlns="http://www.w3.org/2000/svg">
  <g transform="matrix(1.0, 0.0, 0.0, 1.0, 0.0, -2.0)">
    <path d="M121.5 44.55 L123.0 46.0 Q123.6 44.8 124.5 44.25 L125.35 43.95 Q126.0 43.95 126.45 44.6 127.0 45.4 127.0 47.0 127.0 47.8 131.35 52.05 135.7 57.7 135.7 65.35 L134.35 71.85 Q133.0 78.35 133.0 91.5 L133.1 107.45 134.0 108.0 Q135.7 108.7 136.4 109.65 137.35 110.95 137.35 113.7 L137.3 118.95 Q137.2 120.05 136.45 120.05 136.1 120.05 135.65 120.75 135.0 121.9 135.0 124.0 135.0 128.4 137.65 130.4 L139.45 131.65 Q140.3 132.3 140.3 133.25 140.3 135.6 141.65 137.3 143.0 139.0 143.0 146.0 143.0 151.55 141.9 153.15 140.8 154.75 140.8 156.15 140.8 158.4 141.5 159.2 L143.15 160.15 Q145.9 161.25 147.0 167.0 149.25 166.1 151.55 167.45 L154.0 169.0 153.05 172.7 Q152.7 173.75 151.85 173.75 151.3 173.75 150.15 172.6 L148.0 170.0 147.5 170.1 Q146.85 173.75 144.95 175.25 142.85 176.9 138.0 177.0 138.0 177.8 140.6 181.85 143.2 185.9 143.2 192.05 143.2 198.2 141.0 201.0 140.85 198.7 140.05 195.95 L139.85 196.25 Q139.55 196.75 138.9 199.35 138.15 202.25 138.05 203.9 L137.9 202.15 Q137.1 198.0 136.35 196.5 135.25 194.3 133.15 194.3 L131.9 194.55 Q130.5 195.0 129.45 195.95 126.2 198.9 128.0 205.5 127.25 204.0 126.6 200.2 126.05 196.95 126.0 195.0 L122.0 195.0 121.7 201.2 Q121.4 203.55 120.55 204.4 L118.95 197.75 Q117.7 193.5 115.4 193.5 113.9 193.5 112.9 198.9 111.8 204.8 110.9 205.5 110.35 204.35 110.0 200.0 109.75 200.0 109.45 197.8 109.1 195.65 109.0 193.0 L108.5 194.45 Q107.7 199.0 107.6 200.75 106.95 199.8 106.55 195.95 L106.2 192.2 Q106.2 191.05 107.65 187.55 108.9 184.5 110.0 182.5 104.3 184.3 94.1 186.1 L81.0 188.0 Q85.9 194.65 90.3 198.45 92.25 200.2 92.25 202.6 L92.15 203.25 91.9 203.2 90.1 201.6 88.0 199.0 88.0 199.5 Q87.25 201.4 82.9 204.2 78.8 206.85 77.0 207.0 76.75 210.45 76.05 211.5 L75.85 211.4 Q75.2 210.4 74.95 208.5 74.8 207.15 73.75 206.7 70.9 205.5 69.2 204.1 67.4 202.6 66.2 200.3 L64.05 202.45 Q62.9 203.45 62.0 203.45 59.85 203.45 60.0 197.0 65.25 197.75 66.6 194.65 L67.75 191.75 Q68.7 189.95 70.5 189.0 63.45 188.1 53.75 185.15 45.7 182.75 42.0 181.0 42.8 184.45 44.55 187.35 L46.0 190.05 Q46.0 198.2 44.0 199.0 L42.0 193.0 41.0 207.0 40.5 207.0 Q41.1 194.25 35.05 194.25 30.75 194.25 30.7 196.1 L30.75 199.0 Q30.7 201.3 29.85 203.7 L29.65 203.6 Q29.15 202.15 29.0 195.0 L24.0 195.0 23.6 199.35 22.85 203.8 22.75 203.6 22.25 198.1 22.0 193.45 18.45 193.25 Q14.1 193.25 13.45 198.95 13.1 201.8 13.25 205.55 L13.15 205.35 12.8 203.45 12.5 202.0 12.5 198.2 Q12.35 196.4 11.0 193.0 L10.65 197.05 Q10.35 199.05 9.6 199.75 L9.3 199.4 9.0 196.0 Q8.75 196.0 8.35 191.9 L8.0 187.0 Q8.0 186.55 10.5 184.1 13.0 181.65 13.0 179.0 6.85 172.25 6.3 171.25 L3.65 173.1 Q2.35 173.85 2.0 173.85 1.5 173.95 1.0 173.5 0.0 172.65 0.0 170.0 0.0 169.1 1.9 167.4 L6.15 163.85 Q12.3 158.45 12.3 153.75 L12.0 150.0 Q11.6 147.45 11.0 146.0 L11.0 146.5 Q10.35 148.65 9.55 149.9 L9.45 149.85 9.1 147.9 8.95 145.6 9.0 138.0 Q9.4 137.15 11.45 135.65 13.2 134.4 13.25 132.95 13.4 129.3 15.25 128.55 17.0 127.8 17.0 123.65 17.0 120.6 15.4 117.4 13.8 114.2 13.8 112.75 13.8 107.8 18.0 108.0 L18.3 87.6 Q18.3 81.9 17.15 75.1 16.2 69.65 14.0 61.0 18.25 58.75 18.95 57.85 19.5 57.05 20.0 53.0 22.9 51.25 24.0 49.4 25.5 46.95 24.0 44.0 L25.2 43.95 Q26.65 43.95 27.45 44.65 28.3 45.5 28.0 47.0 L30.0 47.0 30.0 43.0 30.95 43.15 Q32.75 43.6 36.35 45.6 41.15 48.3 43.0 51.0 L45.0 51.0 45.1 50.5 Q45.3 50.0 45.9 50.0 48.05 50.0 51.85 51.45 55.8 52.9 57.2 53.0 L57.7 52.9 57.45 50.0 Q55.8 49.9 55.7 47.7 L56.0 44.0 57.0 44.0 Q57.0 42.9 57.35 39.05 L57.65 34.8 Q57.65 26.75 53.5 21.55 50.6 17.95 46.0 16.0 L49.45 15.85 Q53.7 15.85 57.15 17.75 61.1 19.9 61.8 22.6 L62.65 27.0 Q64.0 27.0 68.35 25.25 72.5 23.55 73.0 23.0 75.35 20.4 75.85 13.35 L76.0 2.0 76.8 2.25 Q77.7 3.2 78.4 5.2 79.1 7.35 79.1 9.45 79.1 11.25 78.65 12.5 78.2 13.7 78.0 13.0 L78.0 24.15 Q85.75 24.75 87.35 25.55 L90.0 27.0 93.5 20.85 Q94.3 19.65 94.0 18.0 L99.05 16.3 Q100.5 15.75 103.15 15.75 L105.4 16.15 106.0 17.2 Q103.2 18.3 100.45 21.05 95.0 26.55 95.0 35.5 95.0 38.25 96.05 42.3 97.05 46.3 97.05 48.0 97.05 50.55 96.5 53.0 109.5 46.8 115.3 46.85 L116.95 46.65 118.0 43.65 120.05 43.35 121.5 44.55" fill="#ff0000" fill-opacity="0.8352941" fill-rule="evenodd" stroke="none"/>
  </g>
</svg>
