<?xml version="1.0" encoding="UTF-8" standalone="no"?>
<svg xmlns:xlink="http://www.w3.org/1999/xlink" height="40.0px" width="42.25px" xmlns="http://www.w3.org/2000/svg">
  <g transform="matrix(1.0, 0.0, 0.0, 1.0, 0.0, -1.0)">
    <path d="M42.0 29.0 L42.0 30.0 41.75 30.7 Q33.8 36.8 23.0 40.0 L22.8 40.6 Q22.0 41.0 21.0 41.0 L20.1 40.8 Q18.2 39.8 17.0 38.0 L16.0 38.0 15.05 37.85 Q7.5 35.0 1.0 31.0 L0.0 31.0 0.0 30.0 0.0 24.0 1.0 24.0 1.0 23.0 1.0 11.0 2.0 11.0 2.0 10.0 Q10.0 5.5 18.8 1.6 19.0 1.5 19.0 1.0 31.4 3.6 40.15 9.75 L41.0 10.0 Q42.7 10.3 42.1 13.0 L42.0 14.0 42.0 29.0" fill="#ff0000" fill-rule="evenodd" stroke="none"/>
  </g>
</svg>
