<?xml version="1.0" encoding="UTF-8" standalone="no"?>
<svg xmlns:xlink="http://www.w3.org/1999/xlink" height="61.0px" width="61.0px" xmlns="http://www.w3.org/2000/svg">
  <g transform="matrix(1.0, 0.0, 0.0, 1.0, 0.0, 0.0)">
    <path d="M44.0 10.0 Q50.25 9.1 48.95 13.95 L49.25 14.15 Q50.45 14.95 48.0 19.0 L47.8 19.9 Q45.8 24.3 45.0 30.0 L45.0 32.0 45.0 33.0 Q48.35 37.65 54.85 39.45 L55.0 40.0 Q57.0 40.5 58.8 41.4 L59.0 42.0 Q59.5 42.5 60.1 42.8 L61.0 43.0 61.0 45.0 61.0 46.0 60.1 46.2 Q46.2 53.2 32.0 60.0 L32.0 61.0 31.0 61.0 30.0 61.0 29.8 60.4 Q14.25 53.25 0.0 45.0 L0.0 44.0 0.0 42.0 1.0 42.0 2.0 42.0 2.0 41.0 Q8.25 38.25 14.1 35.2 L15.0 35.0 15.0 34.0 15.0 32.0 17.8 25.9 18.0 25.0 18.0 24.0 18.0 22.0 18.0 21.0 18.0 18.0 19.1 17.2 20.0 17.0 19.85 16.05 19.0 14.0 21.85 13.55 22.0 13.0 22.0 12.0 22.0 3.0 23.8 3.4 24.0 4.0 Q26.75 7.2 28.45 0.1 L29.0 0.0 Q32.7 3.3 34.8 8.1 L35.0 9.0 Q38.2 8.3 39.3 9.75 39.5 10.0 40.0 10.0 42.8 7.85 43.75 9.15 L44.0 10.0" fill="#ff0000" fill-opacity="0.99215686" fill-rule="evenodd" stroke="none"/>
  </g>
</svg>
