<?xml version="1.0" encoding="UTF-8" standalone="no"?>
<svg xmlns:xlink="http://www.w3.org/1999/xlink" height="102.0px" width="74.0px" xmlns="http://www.w3.org/2000/svg">
  <g transform="matrix(1.0, 0.0, 0.0, 1.0, -1.0, -1.0)">
    <path d="M70.75 72.75 L70.0 73.0 70.0 74.0 69.75 74.8 Q67.8 77.15 68.0 74.0 L69.0 74.0 69.0 73.0 69.0 72.0 70.0 72.0 70.0 71.0 70.0 68.0 Q71.7 68.3 71.1 71.0 L71.0 72.0 70.75 72.75 M75.0 10.0 L74.75 10.75 73.0 12.0 72.75 12.85 Q71.95 13.95 70.0 14.0 L70.0 15.0 69.75 15.75 66.0 19.0 65.75 19.75 64.0 21.0 63.75 21.7 57.0 28.0 57.0 29.0 57.0 44.0 57.0 45.0 Q59.15 45.65 59.5 44.1 L60.0 44.0 Q65.6 44.65 65.0 56.0 L65.0 57.0 64.9 58.0 Q64.55 60.55 61.0 60.0 L61.0 69.0 61.0 70.0 61.8 71.1 62.0 72.0 Q62.5 72.0 62.75 72.25 L63.0 73.0 Q64.2 74.8 65.75 76.25 L66.0 77.0 67.0 77.0 67.0 76.0 Q68.7 76.8 67.55 79.85 L67.0 80.0 66.0 80.0 66.0 81.0 66.25 81.75 67.0 82.0 Q69.0 80.1 70.3 81.75 L71.0 82.0 71.55 82.1 Q72.25 85.25 69.0 85.0 L68.75 85.7 Q67.0 87.0 65.0 88.0 L64.75 88.65 Q62.3 90.2 62.0 89.0 L61.0 89.05 Q56.75 89.7 55.0 88.0 L54.0 88.0 53.5 88.1 Q53.15 89.65 51.0 89.0 L50.75 89.75 50.0 90.0 49.1 89.8 Q45.75 88.25 43.0 86.0 L44.0 86.0 44.0 85.0 44.0 84.0 44.0 83.0 45.75 80.85 46.0 80.0 Q45.5 80.0 45.35 79.8 43.3 76.5 39.0 79.0 L38.5 79.0 Q38.65 81.15 37.0 81.0 L37.0 82.0 37.0 83.0 37.0 84.0 37.0 85.0 Q39.1 87.45 39.9 91.0 L40.0 92.0 40.8 93.1 41.0 94.0 Q41.5 94.0 41.75 94.25 L42.0 95.0 Q45.2 97.25 42.75 99.75 L42.0 100.0 41.85 100.55 Q38.75 101.75 35.0 102.0 L35.0 103.0 34.0 103.0 32.0 103.0 32.0 102.0 31.0 101.95 Q25.9 101.6 24.0 98.0 L24.8 96.9 25.0 96.0 25.0 95.0 25.0 94.0 25.8 92.9 26.0 92.0 25.8 91.4 24.0 91.0 23.85 91.55 Q20.3 92.7 19.0 91.0 L18.0 90.9 Q16.0 90.5 15.0 89.0 L14.0 89.0 13.25 88.75 12.0 87.0 11.05 86.85 9.0 86.0 8.0 85.9 Q2.5 85.0 1.0 80.0 3.8 78.8 4.85 75.95 L5.0 75.0 4.25 74.75 Q4.0 74.5 4.0 74.0 6.0 72.1 7.3 73.75 L8.0 74.0 9.1 74.8 10.0 75.0 Q13.1 74.1 14.75 71.8 L15.0 71.0 15.0 70.0 15.0 66.0 14.75 65.2 Q12.4 62.6 11.0 59.0 L12.0 59.0 12.0 58.0 12.0 56.0 13.0 56.0 13.0 55.0 14.0 55.0 14.0 54.0 14.0 48.0 Q14.0 47.5 13.8 47.35 9.0 44.5 10.0 36.0 L9.45 35.85 Q9.0 34.5 9.0 33.0 L9.0 32.0 9.0 31.0 9.0 30.0 10.0 30.0 9.9 29.0 Q9.25 25.25 6.0 24.0 L5.45 23.85 Q5.0 22.5 5.0 21.0 L6.0 21.0 6.0 20.0 10.0 19.1 11.0 19.0 11.0 18.0 14.9 18.45 15.0 19.0 Q17.7 18.8 19.15 19.75 L20.0 20.0 20.0 19.0 20.0 2.0 21.0 2.0 22.0 2.0 23.1 1.2 24.0 1.0 25.8 1.4 26.0 2.0 Q27.7 3.3 27.1 7.0 L27.0 8.0 30.9 8.45 31.0 9.0 36.0 9.0 37.0 9.0 37.0 8.0 37.0 7.0 38.0 7.0 38.0 6.0 40.75 8.25 41.0 9.0 Q48.9 11.6 58.0 12.95 L59.0 13.0 59.0 12.0 Q63.55 9.55 67.2 6.25 L68.0 6.0 68.0 5.0 Q72.65 3.8 74.8 9.05 L75.0 10.0" fill="#ff0000" fill-rule="evenodd" stroke="none"/>
  </g>
</svg>
