<?xml version="1.0" encoding="UTF-8" standalone="no"?>
<svg xmlns:xlink="http://www.w3.org/1999/xlink" height="64.0px" width="73.3px" xmlns="http://www.w3.org/2000/svg">
  <g transform="matrix(1.0, 0.0, 0.0, 1.0, -0.95, 0.0)">
    <path d="M61.0 12.0 Q63.45 13.55 63.05 18.0 L63.0 19.0 63.05 20.0 Q63.75 26.75 62.0 31.0 L62.0 32.0 62.0 33.0 64.85 33.45 65.0 34.0 67.85 34.45 68.0 35.0 69.8 35.4 Q70.0 35.5 70.0 36.0 L71.0 36.0 Q73.55 37.0 73.05 41.0 L73.0 42.0 73.0 43.0 Q74.65 42.9 74.1 45.05 L74.0 46.0 73.8 46.9 73.0 48.0 73.0 49.0 73.0 50.0 Q72.75 55.75 68.0 57.0 L67.8 57.6 Q67.0 58.0 66.0 58.0 L65.75 58.8 Q64.5 60.45 63.0 59.0 L62.0 59.0 61.0 59.0 60.0 59.0 59.0 59.0 57.0 59.0 56.85 59.55 54.0 60.0 53.0 60.0 52.85 60.55 50.0 61.0 49.0 61.0 48.0 61.0 47.9 61.55 44.0 62.0 Q43.5 62.0 43.15 62.25 41.7 63.2 39.0 63.0 L38.85 63.55 36.0 64.0 36.0 63.5 Q33.9 63.65 34.0 62.0 L33.0 62.0 29.0 62.0 28.25 61.75 Q28.0 61.5 28.0 61.0 L27.0 61.0 26.05 61.1 Q23.9 61.65 24.0 60.0 L23.1 60.2 Q19.75 61.9 20.0 59.0 L19.0 59.0 18.0 59.0 17.0 59.0 14.0 59.0 13.0 59.0 12.0 59.1 Q8.3 59.7 7.0 58.0 L6.1 57.8 Q4.5 57.0 3.0 56.0 L2.45 55.9 Q2.0 54.0 2.0 52.0 L1.75 51.15 Q0.8 49.7 1.0 47.0 L1.0 46.0 1.0 45.0 1.0 44.0 1.0 43.0 1.0 42.0 2.8 38.9 3.0 38.0 3.0 37.0 3.0 36.0 Q5.95 35.45 8.1 34.2 L9.0 34.0 Q9.5 33.5 10.1 33.2 L11.0 33.0 12.0 33.0 12.0 32.0 12.0 27.0 12.0 26.0 12.0 20.0 12.0 19.0 12.0 13.0 13.0 13.0 13.0 12.0 Q15.0 9.0 18.1 7.2 L19.0 7.0 19.0 6.0 Q21.0 5.5 22.25 4.25 22.5 4.0 23.0 4.0 L24.0 4.0 24.0 3.0 28.0 2.1 29.0 2.0 29.0 1.0 34.0 1.0 35.0 1.0 35.0 0.0 40.0 0.0 41.0 0.0 41.0 1.0 Q45.75 0.75 48.2 2.75 L49.0 3.0 Q51.95 3.55 53.75 5.25 L54.0 6.0 Q56.55 6.45 57.75 8.15 L58.0 9.0 60.75 11.25 61.0 12.0" fill="#ff0000" fill-rule="evenodd" stroke="none"/>
  </g>
</svg>
