<?xml version="1.0" encoding="UTF-8" standalone="no"?>
<svg xmlns:xlink="http://www.w3.org/1999/xlink" height="171.15px" width="68.5px" xmlns="http://www.w3.org/2000/svg">
  <g transform="matrix(1.0, 0.0, 0.0, 1.0, 0.0, -0.85)">
    <path d="M42.05 33.3 Q41.15 38.55 40.0 40.0 43.7 40.1 47.95 48.7 54.0 61.05 55.5 63.0 54.65 67.1 53.95 68.2 52.1 71.0 47.0 72.0 49.2 74.4 50.8 87.45 52.05 97.45 52.05 102.7 52.05 107.55 50.9 107.75 49.75 108.0 49.75 111.9 49.75 121.9 55.9 126.0 57.6 127.1 61.25 128.6 64.65 130.0 66.0 131.0 65.5 148.8 66.45 152.05 66.6 152.6 67.45 153.8 68.15 154.8 68.5 157.0 65.95 158.45 41.0 171.0 L40.25 171.6 39.0 172.0 38.2 171.9 38.1 171.8 0.0 153.0 0.0 151.0 Q1.75 150.1 2.0 146.45 L2.0 138.75 Q2.2 127.65 9.75 124.75 15.2 122.65 18.05 117.35 20.75 112.35 20.75 105.4 20.75 100.5 18.85 95.5 17.0 90.55 17.0 87.0 19.25 84.75 20.75 80.5 22.5 75.45 22.5 69.2 L21.6 64.45 20.7 59.7 Q20.7 58.7 21.35 57.75 22.0 56.8 22.0 52.6 21.2 40.45 20.0 37.0 L20.15 37.15 21.0 37.25 Q21.95 37.25 22.25 36.85 L23.0 36.0 Q16.35 27.0 15.75 25.75 13.75 21.55 10.0 6.0 L12.75 5.85 Q13.15 5.75 13.0 1.0 L13.95 0.85 15.0 0.95 Q15.0 2.5 16.7 5.95 18.35 9.4 18.35 10.6 L17.45 13.55 Q16.5 16.5 16.5 17.0 L22.0 23.2 Q27.55 30.05 28.0 34.0 29.0 32.15 29.0 28.8 29.0 25.35 28.65 25.0 27.5 23.8 27.05 22.75 L27.0 22.7 23.15 19.45 Q23.2 16.85 28.0 20.4 31.0 22.55 32.1 24.1 L35.0 24.5 Q39.2 24.5 40.85 27.45 42.05 29.55 42.05 33.3" fill="#ff0000" fill-rule="evenodd" stroke="none"/>
  </g>
</svg>
