<?xml version="1.0" encoding="UTF-8" standalone="no"?>
<svg xmlns:xlink="http://www.w3.org/1999/xlink" height="68.6px" width="62.55px" xmlns="http://www.w3.org/2000/svg">
  <g transform="matrix(1.0, 0.0, 0.0, 1.0, -60.35, 3.1)">
    <path d="M66.8 -0.45 L60.85 -0.45 Q61.15 -1.15 61.9 -1.65 63.1 -2.6 64.85 -2.6 L66.8 -0.45" fill="#cc0000" fill-opacity="0.7058824" fill-rule="evenodd" stroke="none"/>
    <path d="M122.4 61.35 Q122.4 63.1 121.15 64.3 L120.25 65.0 120.25 59.2 120.4 59.1 122.4 61.35" fill="#990000" fill-opacity="0.7058824" fill-rule="evenodd" stroke="none"/>
    <path d="M66.8 -0.45 L64.85 -2.6 86.85 -2.6 87.4 -2.5 88.1 -2.3 89.9 -0.35 120.5 34.1 121.95 35.7 Q122.35 36.7 122.4 38.05 L122.4 61.35 120.4 59.1 66.8 -0.45" fill="#ff0000" fill-rule="evenodd" stroke="none"/>
    <path d="M64.85 -2.6 Q63.1 -2.6 61.9 -1.65 61.15 -1.15 60.85 -0.45 L66.8 -0.45 64.85 -2.6 86.85 -2.6 87.4 -2.5 88.1 -2.3 89.9 -0.35 120.5 34.1 121.95 35.7 Q122.35 36.7 122.4 38.05 L122.4 61.35 Q122.4 63.1 121.15 64.3 L120.25 65.0 120.25 59.2 M120.4 59.1 L66.8 -0.45 M122.4 61.35 L120.4 59.1" fill="none" stroke="#990000" stroke-linecap="round" stroke-linejoin="round" stroke-width="1.0"/>
  </g>
</svg>
