<?xml version="1.0" encoding="UTF-8" standalone="no"?>
<svg xmlns:xlink="http://www.w3.org/1999/xlink" height="198.0px" width="332.0px" xmlns="http://www.w3.org/2000/svg">
  <g transform="matrix(1.0, 0.0, 0.0, 1.0, 1.0, 1.0)">
    <path d="M0.0 5.0 Q0.0 0.0 5.0 0.0 L15.95 0.0 316.05 0.0 325.0 0.0 Q330.0 0.0 330.0 5.0 L330.0 15.95 330.0 180.05 330.0 191.0 Q330.0 196.0 325.0 196.0 L316.05 196.0 15.95 196.0 5.0 196.0 Q0.0 196.0 0.0 191.0 L0.0 180.05 0.0 15.95 0.0 5.0" fill="url(#gradient0)" fill-rule="evenodd" stroke="none"/>
    <path d="M0.0 5.0 L0.0 15.95 0.0 180.05 0.0 191.0 Q0.0 196.0 5.0 196.0 L15.95 196.0 316.05 196.0 325.0 196.0 Q330.0 196.0 330.0 191.0 L330.0 180.05 330.0 15.95 330.0 5.0 Q330.0 0.0 325.0 0.0 L316.05 0.0 15.95 0.0 5.0 0.0 Q0.0 0.0 0.0 5.0 Z" fill="none" stroke="#000000" stroke-linecap="round" stroke-linejoin="round" stroke-opacity="0.49803922" stroke-width="2.0"/>
  </g>
  <defs>
    <radialGradient cx="0" cy="0" gradientTransform="matrix(0.4681, 0.0, 0.0, 0.4681, 0.0, 0.0)" gradientUnits="userSpaceOnUse" id="gradient0" r="819.2" spreadMethod="pad">
      <stop offset="0.0" stop-color="#66ccff"/>
      <stop offset="1.0" stop-color="#6699ff"/>
    </radialGradient>
  </defs>
</svg>
