<?xml version="1.0" encoding="UTF-8" standalone="no"?>
<svg xmlns:xlink="http://www.w3.org/1999/xlink" height="521.0px" width="761.0px" xmlns="http://www.w3.org/2000/svg">
  <g transform="matrix(1.0, 0.0, 0.0, 1.0, 0.5, 0.5)">
    <path d="M35.0 69.95 L35.0 460.05 35.0 484.95 64.95 484.95 695.05 484.95 725.0 484.95 725.0 460.05 725.0 69.95 725.0 39.95 695.05 39.95 64.95 39.95 35.0 39.95 35.0 69.95 35.0 39.95 64.95 39.95 695.05 39.95 725.0 39.95 725.0 69.95 725.0 460.05 725.0 484.95 695.05 484.95 64.95 484.95 35.0 484.95 35.0 460.05 35.0 69.95 M25.0 69.95 L25.0 460.05 25.0 495.0 64.95 495.0 695.05 495.0 735.0 495.0 735.0 460.05 735.0 69.95 735.0 30.0 695.05 30.0 64.95 30.0 25.0 30.0 25.0 69.95 25.0 30.0 64.95 30.0 695.05 30.0 735.0 30.0 735.0 69.95 735.0 460.05 735.0 495.0 695.05 495.0 64.95 495.0 25.0 495.0 25.0 460.05 25.0 69.95 M0.0 69.95 L0.0 0.0 64.95 0.0 695.05 0.0 760.0 0.0 760.0 69.95 760.0 460.05 760.0 520.0 695.05 520.0 64.95 520.0 0.0 520.0 0.0 460.05 0.0 69.95" fill="#edecc2" fill-rule="evenodd" stroke="none"/>
    <path d="M0.0 69.95 L0.0 0.0 64.95 0.0 695.05 0.0 760.0 0.0 760.0 69.95 760.0 460.05 760.0 520.0 695.05 520.0 64.95 520.0 0.0 520.0 0.0 460.05 0.0 69.95" fill="none" stroke="#333333" stroke-linecap="round" stroke-linejoin="round" stroke-width="1.0"/>
    <path d="M25.0 69.95 L25.0 30.0 64.95 30.0 695.05 30.0 735.0 30.0 735.0 69.95 735.0 460.05 735.0 495.0 695.05 495.0 64.95 495.0 25.0 495.0 25.0 460.05 25.0 69.95 M35.0 69.95 L35.0 39.95 64.95 39.95 695.05 39.95 725.0 39.95 725.0 69.95 725.0 460.05 725.0 484.95 695.05 484.95 64.95 484.95 35.0 484.95 35.0 460.05 35.0 69.95 Z" fill="none" stroke="#333333" stroke-linecap="round" stroke-linejoin="round" stroke-opacity="0.08627451" stroke-width="1.0"/>
  </g>
</svg>
