<?xml version="1.0" encoding="UTF-8" standalone="no"?>
<svg xmlns:xlink="http://www.w3.org/1999/xlink" height="345.65px" width="401.0px" xmlns="http://www.w3.org/2000/svg">
  <g transform="matrix(1.0, 0.0, 0.0, 1.0, 105.5, 155.45)">
    <path d="M75.0 -34.95 L-105.0 -34.95 -105.0 -154.95 75.0 -154.95 75.0 -34.95 Z" fill="none" stroke="#666666" stroke-linecap="round" stroke-linejoin="round" stroke-width="1.0"/>
    <path d="M295.0 -154.95 L295.0 25.0 85.0 25.0 85.0 -154.95 295.0 -154.95 M295.0 119.0 L85.0 119.0 85.0 32.0 295.0 32.0 295.0 119.0 M75.0 189.7 L-105.0 189.7 -105.0 -25.3 75.0 -25.3 75.0 189.7" fill="#ffffff" fill-opacity="0.49803922" fill-rule="evenodd" stroke="none"/>
    <path d="M295.0 -154.95 L295.0 25.0 85.0 25.0 85.0 -154.95 295.0 -154.95 M295.0 119.0 L85.0 119.0 85.0 32.0 295.0 32.0 295.0 119.0 M75.0 189.7 L-105.0 189.7 -105.0 -25.3 75.0 -25.3 75.0 189.7 Z" fill="none" stroke="#666666" stroke-linecap="round" stroke-linejoin="round" stroke-width="1.0"/>
  </g>
</svg>
