<?xml version="1.0" encoding="UTF-8" standalone="no"?>
<svg xmlns:xlink="http://www.w3.org/1999/xlink" height="71.2px" width="251.2px" xmlns="http://www.w3.org/2000/svg">
  <g transform="matrix(1.0, 0.0, 0.0, 1.0, 0.6, 0.6)">
    <path d="M250.0 5.2 L250.0 34.95 250.0 64.8 Q250.0 70.0 245.0 70.0 L5.05 70.0 Q0.0 70.0 0.0 64.8 L0.0 34.95 0.0 5.2 Q0.0 3.35 0.7 2.1 1.85 0.0 5.05 0.0 L245.0 0.0 Q248.15 0.0 249.35 2.1 250.0 3.3 250.0 5.2" fill="#f6eddf" fill-rule="evenodd" stroke="none"/>
    <path d="M250.0 5.2 Q250.0 3.3 249.35 2.1 248.15 0.0 245.0 0.0 L5.05 0.0 Q1.85 0.0 0.7 2.1 0.0 3.35 0.0 5.2 L0.0 34.95 0.0 64.8 Q0.0 70.0 5.05 70.0 L245.0 70.0 Q250.0 70.0 250.0 64.8 L250.0 34.95 250.0 5.2 Z" fill="none" stroke="#c2b778" stroke-linecap="round" stroke-linejoin="round" stroke-width="1.25"/>
  </g>
</svg>
