<?xml version="1.0" encoding="UTF-8" standalone="no"?>
<svg xmlns:xlink="http://www.w3.org/1999/xlink" height="7.55px" width="14.85px" xmlns="http://www.w3.org/2000/svg">
  <g transform="matrix(1.0, 0.0, 0.0, 1.0, 7.6, 4.05)">
    <path d="M5.75 -2.5 L5.9 -2.5 7.1 -1.9 Q7.4 -1.2 7.05 -0.55 L6.8 -0.25 6.6 0.25 Q6.4 0.4 5.95 0.85 L5.85 1.05 5.85 1.65 Q5.75 2.05 4.7 2.55 L3.9 2.9 2.9 3.0 2.1 2.95 2.05 2.9 1.85 2.9 1.3 2.9 0.65 3.2 -1.55 3.5 -4.25 2.85 -4.7 2.5 -6.05 1.5 -6.3 1.4 -7.2 0.75 -7.55 0.2 -7.4 -0.15 -7.45 -0.45 -7.1 -1.15 -7.15 -1.2 -6.35 -1.7 -5.55 -1.95 -4.9 -2.15 Q-4.5 -2.3 -4.45 -2.8 L-3.5 -3.65 -2.7 -3.95 -0.9 -3.6 -0.7 -3.6 0.95 -4.0 Q2.1 -4.25 4.0 -3.4 L5.75 -2.5" fill="url(#gradient0)" fill-rule="evenodd" stroke="none"/>
  </g>
  <defs>
    <radialGradient cx="0" cy="0" gradientTransform="matrix(0.0074, 0.0038, -0.0082, 0.0038, 0.45, -0.25)" gradientUnits="userSpaceOnUse" id="gradient0" r="819.2" spreadMethod="pad">
      <stop offset="0.0" stop-color="#d20202" stop-opacity="0.7058824"/>
      <stop offset="1.0" stop-color="#ba014b" stop-opacity="0.2509804"/>
    </radialGradient>
  </defs>
</svg>
