<?xml version="1.0" encoding="UTF-8" standalone="no"?>
<svg xmlns:xlink="http://www.w3.org/1999/xlink" height="401.0px" width="706.0px" xmlns="http://www.w3.org/2000/svg">
  <g transform="matrix(1.0, 0.0, 0.0, 1.0, 352.5, 180.5)">
    <path d="M47.35 -30.0 Q49.95 -30.0 49.95 -27.0 L49.95 37.0 Q49.95 40.0 47.35 40.0 L-37.5 40.0 Q-40.05 40.0 -40.05 37.0 L-40.05 -27.0 Q-40.05 -30.0 -37.5 -30.0 L47.35 -30.0 M58.0 -177.0 Q58.0 -180.0 61.1 -180.0 L349.9 -180.0 Q353.0 -180.0 353.0 -177.0 L353.0 217.0 Q353.0 220.0 349.9 220.0 L61.1 220.0 Q58.0 220.0 58.0 217.0 L58.0 -177.0 M-352.0 -177.0 Q-352.0 -180.0 -348.95 -180.0 L-50.05 -180.0 Q-47.0 -180.0 -47.0 -177.0 L-47.0 217.0 Q-47.0 220.0 -50.05 220.0 L-348.95 220.0 Q-352.0 220.0 -352.0 217.0 L-352.0 -177.0" fill="#ffffff" fill-rule="evenodd" stroke="none"/>
    <path d="M58.0 -177.0 L58.0 217.0 Q58.0 220.0 61.1 220.0 L349.9 220.0 Q353.0 220.0 353.0 217.0 L353.0 -177.0 Q353.0 -180.0 349.9 -180.0 L61.1 -180.0 Q58.0 -180.0 58.0 -177.0 M47.35 -30.0 L-37.5 -30.0 Q-40.05 -30.0 -40.05 -27.0 L-40.05 37.0 Q-40.05 40.0 -37.5 40.0 L47.35 40.0 Q49.95 40.0 49.95 37.0 L49.95 -27.0 Q49.95 -30.0 47.35 -30.0 M-352.0 -177.0 L-352.0 217.0 Q-352.0 220.0 -348.95 220.0 L-50.05 220.0 Q-47.0 220.0 -47.0 217.0 L-47.0 -177.0 Q-47.0 -180.0 -50.05 -180.0 L-348.95 -180.0 Q-352.0 -180.0 -352.0 -177.0 Z" fill="none" stroke="#666666" stroke-linecap="round" stroke-linejoin="round" stroke-width="1.0"/>
  </g>
</svg>
