<?xml version="1.0" encoding="UTF-8" standalone="no"?>
<svg xmlns:xlink="http://www.w3.org/1999/xlink" height="51.0px" width="277.55px" xmlns="http://www.w3.org/2000/svg">
  <g transform="matrix(1.0, 0.0, 0.0, 1.0, 0.5, 0.5)">
    <path d="M276.55 50.0 L0.0 50.0 0.0 0.0 276.55 0.0 276.55 50.0" fill="#e2e2e2" fill-rule="evenodd" stroke="none"/>
    <path d="M0.55 -0.5 L0.9 -0.35 1.05 0.0 0.9 0.35 0.55 0.5 0.2 0.35 0.05 0.0 0.2 -0.35 0.55 -0.5 M8.9 -0.35 L9.05 0.0 8.9 0.35 8.55 0.5 8.2 0.35 8.05 0.0 8.2 -0.35 8.55 -0.5 8.9 -0.35 M4.9 -0.35 L5.05 0.0 4.9 0.35 4.55 0.5 4.2 0.35 4.05 0.0 4.2 -0.35 4.55 -0.5 4.9 -0.35 M16.9 -0.35 L17.05 0.0 16.9 0.35 16.55 0.5 16.2 0.35 16.05 0.0 16.2 -0.35 16.55 -0.5 16.9 -0.35 M12.9 -0.35 L13.05 0.0 12.9 0.35 12.55 0.5 12.2 0.35 12.05 0.0 12.2 -0.35 12.55 -0.5 12.9 -0.35 M20.9 -0.35 L21.05 0.0 20.9 0.35 20.55 0.5 20.2 0.35 20.05 0.0 20.2 -0.35 20.55 -0.5 20.9 -0.35 M24.55 -0.5 L24.9 -0.35 25.05 0.0 24.9 0.35 24.55 0.5 24.2 0.35 24.05 0.0 24.2 -0.35 24.55 -0.5 M28.55 -0.5 L28.9 -0.35 29.05 0.0 28.9 0.35 28.55 0.5 28.2 0.35 28.05 0.0 28.2 -0.35 28.55 -0.5 M32.55 -0.5 L32.9 -0.35 33.05 0.0 32.9 0.35 32.55 0.5 32.2 0.35 32.05 0.0 32.2 -0.35 32.55 -0.5 M36.55 -0.5 L36.9 -0.35 37.05 0.0 36.9 0.35 36.55 0.5 36.2 0.35 36.05 0.0 36.2 -0.35 36.55 -0.5 M40.9 -0.35 L41.05 0.0 40.9 0.35 40.55 0.5 40.2 0.35 40.05 0.0 40.2 -0.35 40.55 -0.5 40.9 -0.35 M48.9 -0.35 L49.05 0.0 48.9 0.35 48.55 0.5 48.2 0.35 48.05 0.0 48.2 -0.35 48.55 -0.5 48.9 -0.35 M44.9 -0.35 L45.05 0.0 44.9 0.35 44.55 0.5 44.2 0.35 44.05 0.0 44.2 -0.35 44.55 -0.5 44.9 -0.35 M60.55 -0.5 L60.9 -0.35 61.05 0.0 60.9 0.35 60.55 0.5 60.2 0.35 60.05 0.0 60.2 -0.35 60.55 -0.5 M56.9 -0.35 L57.05 0.0 56.9 0.35 56.55 0.5 56.2 0.35 56.05 0.0 56.2 -0.35 56.55 -0.5 56.9 -0.35 M52.9 -0.35 L53.05 0.0 52.9 0.35 52.55 0.5 52.2 0.35 52.05 0.0 52.2 -0.35 52.55 -0.5 52.9 -0.35 M64.55 -0.5 L64.9 -0.35 65.05 0.0 64.9 0.35 64.55 0.5 64.2 0.35 64.05 0.0 64.2 -0.35 64.55 -0.5 M68.55 -0.5 L68.9 -0.35 69.05 0.0 68.9 0.35 68.55 0.5 Q68.35 0.5 68.2 0.35 L68.05 0.0 68.2 -0.35 Q68.35 -0.5 68.55 -0.5 M72.55 -0.5 L72.9 -0.35 73.05 0.0 72.9 0.35 72.55 0.5 72.2 0.35 72.05 0.0 72.2 -0.35 72.55 -0.5 M76.55 -0.5 L76.9 -0.35 77.05 0.0 76.9 0.35 76.55 0.5 76.2 0.35 76.05 0.0 76.2 -0.35 76.55 -0.5 M80.55 -0.5 L80.9 -0.35 81.05 0.0 80.9 0.35 80.55 0.5 80.2 0.35 80.05 0.0 80.2 -0.35 80.55 -0.5 M84.55 -0.5 L84.9 -0.35 85.05 0.0 84.9 0.35 84.55 0.5 84.2 0.35 84.05 0.0 84.2 -0.35 84.55 -0.5 M88.9 -0.35 L89.05 0.0 88.9 0.35 88.55 0.5 88.2 0.35 88.05 0.0 88.2 -0.35 88.55 -0.5 88.9 -0.35 M100.9 -0.35 L101.05 0.0 100.9 0.35 100.55 0.5 100.2 0.35 100.05 0.0 100.2 -0.35 100.55 -0.5 100.9 -0.35 M96.9 -0.35 L97.05 0.0 96.9 0.35 96.55 0.5 96.2 0.35 96.05 0.0 96.2 -0.35 96.55 -0.5 96.9 -0.35 M92.9 -0.35 L93.05 0.0 92.9 0.35 92.55 0.5 92.2 0.35 92.05 0.0 92.2 -0.35 92.55 -0.5 92.9 -0.35 M104.55 -0.5 L104.9 -0.35 105.05 0.0 104.9 0.35 104.55 0.5 104.2 0.35 104.05 0.0 104.2 -0.35 104.55 -0.5 M108.55 -0.5 L108.9 -0.35 109.05 0.0 108.9 0.35 108.55 0.5 108.2 0.35 108.05 0.0 108.2 -0.35 108.55 -0.5 M112.55 -0.5 L112.9 -0.35 113.05 0.0 112.9 0.35 112.55 0.5 112.2 0.35 112.05 0.0 112.2 -0.35 112.55 -0.5 M116.55 -0.5 L116.9 -0.35 117.05 0.0 116.9 0.35 116.55 0.5 116.2 0.35 116.05 0.0 116.2 -0.35 116.55 -0.5 M120.55 -0.5 L120.9 -0.35 121.05 0.0 120.9 0.35 120.55 0.5 120.2 0.35 120.05 0.0 120.2 -0.35 120.55 -0.5 M124.55 -0.5 L124.9 -0.35 125.05 0.0 124.9 0.35 124.55 0.5 124.2 0.35 124.05 0.0 124.2 -0.35 124.55 -0.5 M128.9 -0.35 L129.05 0.0 128.9 0.35 128.55 0.5 128.2 0.35 128.05 0.0 128.2 -0.35 128.55 -0.5 128.9 -0.35 M140.9 -0.35 L141.05 0.0 140.9 0.35 140.55 0.5 140.2 0.35 140.05 0.0 140.2 -0.35 140.55 -0.5 140.9 -0.35 M136.9 -0.35 L137.05 0.0 136.9 0.35 136.55 0.5 136.2 0.35 136.05 0.0 136.2 -0.35 136.55 -0.5 136.9 -0.35 M132.9 -0.35 L133.05 0.0 132.9 0.35 132.55 0.5 132.2 0.35 132.05 0.0 132.2 -0.35 132.55 -0.5 132.9 -0.35 M144.55 -0.5 L144.9 -0.35 145.05 0.0 144.9 0.35 144.55 0.5 144.2 0.35 144.05 0.0 144.2 -0.35 144.55 -0.5 M148.55 -0.5 L148.9 -0.35 149.05 0.0 148.9 0.35 148.55 0.5 148.2 0.35 148.05 0.0 148.2 -0.35 148.55 -0.5 M152.55 -0.5 L152.9 -0.35 153.05 0.0 152.9 0.35 152.55 0.5 Q152.35 0.5 152.2 0.35 L152.05 0.0 152.2 -0.35 Q152.35 -0.5 152.55 -0.5 M156.55 -0.5 L156.9 -0.35 157.05 0.0 156.9 0.35 156.55 0.5 156.2 0.35 156.05 0.0 156.2 -0.35 156.55 -0.5 M160.55 -0.5 L160.9 -0.35 161.05 0.0 160.9 0.35 160.55 0.5 160.2 0.35 160.05 0.0 160.2 -0.35 160.55 -0.5 M164.55 -0.5 L164.9 -0.35 165.05 0.0 164.9 0.35 164.55 0.5 164.2 0.35 164.05 0.0 164.2 -0.35 164.55 -0.5 M168.9 -0.35 L169.05 0.0 168.9 0.35 168.55 0.5 168.2 0.35 168.05 0.0 168.2 -0.35 168.55 -0.5 168.9 -0.35 M180.9 -0.35 L181.05 0.0 180.9 0.35 180.55 0.5 180.2 0.35 180.05 0.0 180.2 -0.35 180.55 -0.5 180.9 -0.35 M176.9 -0.35 L177.05 0.0 176.9 0.35 176.55 0.5 176.2 0.35 176.05 0.0 176.2 -0.35 176.55 -0.5 176.9 -0.35 M172.9 -0.35 L173.05 0.0 172.9 0.35 172.55 0.5 172.2 0.35 172.05 0.0 172.2 -0.35 172.55 -0.5 172.9 -0.35 M184.55 -0.5 L184.9 -0.35 185.05 0.0 184.9 0.35 184.55 0.5 184.2 0.35 184.05 0.0 184.2 -0.35 184.55 -0.5 M188.55 -0.5 L188.9 -0.35 189.05 0.0 188.9 0.35 188.55 0.5 188.2 0.35 188.05 0.0 188.2 -0.35 188.55 -0.5 M192.9 -0.35 L193.05 0.0 192.9 0.35 192.55 0.5 192.2 0.35 192.05 0.0 192.2 -0.35 192.55 -0.5 192.9 -0.35 M196.55 -0.5 L196.9 -0.35 197.05 0.0 196.9 0.35 196.55 0.5 196.2 0.35 196.05 0.0 196.2 -0.35 196.55 -0.5 M200.55 -0.5 L200.9 -0.35 201.05 0.0 200.9 0.35 200.55 0.5 200.2 0.35 200.05 0.0 200.2 -0.35 200.55 -0.5 M204.55 -0.5 L204.9 -0.35 205.05 0.0 204.9 0.35 204.55 0.5 204.2 0.35 204.05 0.0 204.2 -0.35 204.55 -0.5 M212.55 -0.5 L212.9 -0.35 213.05 0.0 212.9 0.35 212.55 0.5 212.2 0.35 212.05 0.0 212.2 -0.35 212.55 -0.5 M208.9 -0.35 L209.05 0.0 208.9 0.35 208.55 0.5 208.2 0.35 208.05 0.0 208.2 -0.35 208.55 -0.5 208.9 -0.35 M220.9 -0.35 L221.05 0.0 220.9 0.35 220.55 0.5 220.2 0.35 220.05 0.0 220.2 -0.35 220.55 -0.5 220.9 -0.35 M216.9 -0.35 L217.05 0.0 216.9 0.35 216.55 0.5 216.2 0.35 216.05 0.0 216.2 -0.35 216.55 -0.5 216.9 -0.35 M224.55 -0.5 L224.9 -0.35 225.05 0.0 224.9 0.35 224.55 0.5 224.2 0.35 224.05 0.0 224.2 -0.35 224.55 -0.5 M228.55 -0.5 L228.9 -0.35 229.05 0.0 228.9 0.35 228.55 0.5 228.2 0.35 228.05 0.0 228.2 -0.35 228.55 -0.5 M232.55 -0.5 L232.9 -0.35 233.05 0.0 232.9 0.35 232.55 0.5 232.2 0.35 232.05 0.0 232.2 -0.35 232.55 -0.5 M236.55 -0.5 L236.9 -0.35 237.05 0.0 236.9 0.35 236.55 0.5 Q236.35 0.5 236.2 0.35 L236.05 0.0 236.2 -0.35 Q236.35 -0.5 236.55 -0.5 M240.55 -0.5 L240.9 -0.35 241.05 0.0 240.9 0.35 240.55 0.5 240.2 0.35 240.05 0.0 240.2 -0.35 240.55 -0.5 M244.55 -0.5 L244.9 -0.35 245.05 0.0 244.9 0.35 244.55 0.5 244.2 0.35 244.05 0.0 244.2 -0.35 244.55 -0.5 M252.9 -0.35 L253.05 0.0 252.9 0.35 252.55 0.5 252.2 0.35 252.05 0.0 252.2 -0.35 252.55 -0.5 252.9 -0.35 M248.9 -0.35 L249.05 0.0 248.9 0.35 248.55 0.5 248.2 0.35 248.05 0.0 248.2 -0.35 248.55 -0.5 248.9 -0.35 M260.9 -0.35 L261.05 0.0 260.9 0.35 260.55 0.5 260.2 0.35 260.05 0.0 260.2 -0.35 260.55 -0.5 260.9 -0.35 M256.9 -0.35 L257.05 0.0 256.9 0.35 256.55 0.5 256.2 0.35 256.05 0.0 256.2 -0.35 256.55 -0.5 256.9 -0.35 M276.9 -0.35 L277.05 0.0 276.9 0.35 276.55 0.5 276.2 0.35 276.05 0.0 276.2 -0.35 276.55 -0.5 276.9 -0.35 M272.9 -0.35 L273.05 0.0 272.9 0.35 272.55 0.5 272.2 0.35 272.05 0.0 272.2 -0.35 272.55 -0.5 272.9 -0.35 M268.9 -0.35 L269.05 0.0 268.9 0.35 268.55 0.5 268.2 0.35 268.05 0.0 268.2 -0.35 268.55 -0.5 268.9 -0.35 M264.9 -0.35 L265.05 0.0 264.9 0.35 264.55 0.5 264.2 0.35 264.05 0.0 264.2 -0.35 264.55 -0.5 264.9 -0.35 M275.65 49.65 Q275.8 49.5 276.0 49.5 L276.35 49.65 276.5 50.0 276.35 50.35 276.0 50.5 275.65 50.35 275.5 50.0 275.65 49.65 M271.65 49.65 L272.0 49.5 Q272.2 49.5 272.35 49.65 L272.5 50.0 272.35 50.35 272.0 50.5 271.65 50.35 271.5 50.0 271.65 49.65 M268.35 50.35 L268.0 50.5 267.65 50.35 267.5 50.0 267.65 49.65 268.0 49.5 268.35 49.65 268.5 50.0 268.35 50.35 M264.35 49.65 L264.5 50.0 264.35 50.35 264.0 50.5 263.65 50.35 263.5 50.0 Q263.5 49.8 263.65 49.65 263.8 49.5 264.0 49.5 L264.35 49.65 M259.65 49.65 Q259.8 49.5 260.0 49.5 L260.35 49.65 260.5 50.0 260.35 50.35 260.0 50.5 259.65 50.35 259.5 50.0 259.65 49.65 M256.35 49.65 L256.5 50.0 256.35 50.35 256.0 50.5 255.65 50.35 255.5 50.0 255.65 49.65 256.0 49.5 256.35 49.65 M251.65 49.65 Q251.8 49.5 252.0 49.5 L252.35 49.65 252.5 50.0 252.35 50.35 252.0 50.5 251.65 50.35 251.5 50.0 Q251.5 49.8 251.65 49.65 M248.35 50.35 L248.0 50.5 247.65 50.35 247.5 50.0 247.65 49.65 Q247.8 49.5 248.0 49.5 L248.35 49.65 248.5 50.0 248.35 50.35 M243.65 49.65 L244.0 49.5 244.35 49.65 244.5 50.0 244.35 50.35 244.0 50.5 243.65 50.35 243.5 50.0 243.65 49.65 M199.65 49.65 Q199.8 49.5 200.0 49.5 200.2 49.5 200.35 49.65 L200.5 50.0 200.35 50.35 200.0 50.5 199.65 50.35 199.5 50.0 199.65 49.65 M196.35 49.65 L196.5 50.0 196.35 50.35 196.0 50.5 195.65 50.35 195.5 50.0 195.65 49.65 Q195.8 49.5 196.0 49.5 L196.35 49.65 M191.65 49.65 Q191.8 49.5 192.0 49.5 L192.35 49.65 192.5 50.0 192.35 50.35 192.0 50.5 191.65 50.35 191.5 50.0 191.65 49.65 M188.35 49.65 L188.5 50.0 188.35 50.35 188.0 50.5 187.65 50.35 187.5 50.0 187.65 49.65 188.0 49.5 Q188.2 49.5 188.35 49.65 M183.65 49.65 L184.0 49.5 184.35 49.65 184.5 50.0 184.35 50.35 184.0 50.5 183.65 50.35 183.5 50.0 183.65 49.65 M179.65 49.65 Q179.8 49.5 180.0 49.5 L180.35 49.65 180.5 50.0 180.35 50.35 180.0 50.5 179.65 50.35 179.5 50.0 Q179.5 49.8 179.65 49.65 M175.65 49.65 Q175.8 49.5 176.0 49.5 L176.35 49.65 176.5 50.0 176.35 50.35 176.0 50.5 175.65 50.35 175.5 50.0 175.65 49.65 M172.5 50.0 L172.35 50.35 172.0 50.5 171.65 50.35 171.5 50.0 171.65 49.65 172.0 49.5 172.35 49.65 172.5 50.0 M168.35 49.65 L168.5 50.0 168.35 50.35 168.0 50.5 167.65 50.35 167.5 50.0 Q167.5 49.8 167.65 49.65 167.8 49.5 168.0 49.5 L168.35 49.65 M164.35 49.65 L164.5 50.0 164.35 50.35 164.0 50.5 163.65 50.35 163.5 50.0 163.65 49.65 Q163.8 49.5 164.0 49.5 L164.35 49.65 M239.65 49.65 Q239.8 49.5 240.0 49.5 240.2 49.5 240.35 49.65 L240.5 50.0 240.35 50.35 240.0 50.5 239.65 50.35 239.5 50.0 Q239.5 49.8 239.65 49.65 M236.35 49.65 L236.5 50.0 236.35 50.35 236.0 50.5 235.65 50.35 235.5 50.0 Q235.5 49.8 235.65 49.65 235.8 49.5 236.0 49.5 236.2 49.5 236.35 49.65 M231.65 49.65 Q231.8 49.5 232.0 49.5 L232.35 49.65 232.5 50.0 232.35 50.35 232.0 50.5 231.65 50.35 231.5 50.0 231.65 49.65 M228.35 49.65 L228.5 50.0 228.35 50.35 228.0 50.5 227.65 50.35 227.5 50.0 Q227.5 49.8 227.65 49.65 227.8 49.5 228.0 49.5 228.2 49.5 228.35 49.65 M224.35 49.65 L224.5 50.0 224.35 50.35 224.0 50.5 223.65 50.35 223.5 50.0 Q223.5 49.8 223.65 49.65 223.8 49.5 224.0 49.5 224.2 49.5 224.35 49.65 M219.65 49.65 Q219.8 49.5 220.0 49.5 L220.35 49.65 220.5 50.0 220.35 50.35 220.0 50.5 219.65 50.35 219.5 50.0 219.65 49.65 M216.35 49.65 L216.5 50.0 216.35 50.35 216.0 50.5 215.65 50.35 215.5 50.0 Q215.5 49.8 215.65 49.65 215.8 49.5 216.0 49.5 216.2 49.5 216.35 49.65 M211.65 49.65 Q211.8 49.5 212.0 49.5 212.2 49.5 212.35 49.65 L212.5 50.0 212.35 50.35 212.0 50.5 211.65 50.35 211.5 50.0 Q211.5 49.8 211.65 49.65 M208.35 49.65 L208.5 50.0 208.35 50.35 208.0 50.5 207.65 50.35 207.5 50.0 207.65 49.65 Q207.8 49.5 208.0 49.5 L208.35 49.65 M204.35 49.65 L204.5 50.0 204.35 50.35 204.0 50.5 Q203.8 50.5 203.65 50.35 L203.5 50.0 203.65 49.65 Q203.8 49.5 204.0 49.5 L204.35 49.65 M119.65 49.65 Q119.8 49.5 120.0 49.5 L120.35 49.65 120.5 50.0 120.35 50.35 120.0 50.5 Q119.8 50.5 119.65 50.35 L119.5 50.0 119.65 49.65 M115.65 49.65 Q115.8 49.5 116.0 49.5 116.2 49.5 116.35 49.65 L116.5 50.0 116.35 50.35 116.0 50.5 115.65 50.35 115.5 50.0 115.65 49.65 M111.65 49.65 Q111.8 49.5 112.0 49.5 L112.35 49.65 112.5 50.0 112.35 50.35 112.0 50.5 111.65 50.35 111.5 50.0 111.65 49.65 M107.65 49.65 Q107.8 49.5 108.0 49.5 L108.35 49.65 108.5 50.0 108.35 50.35 108.0 50.5 107.65 50.35 107.5 50.0 107.65 49.65 M103.65 49.65 L104.0 49.5 Q104.2 49.5 104.35 49.65 L104.5 50.0 104.35 50.35 104.0 50.5 103.65 50.35 103.5 50.0 103.65 49.65 M99.65 49.65 L100.0 49.5 100.35 49.65 100.5 50.0 100.35 50.35 100.0 50.5 99.65 50.35 99.5 50.0 99.65 49.65 M96.35 50.35 L96.0 50.5 95.65 50.35 95.5 50.0 Q95.5 49.8 95.65 49.65 95.8 49.5 96.0 49.5 L96.35 49.65 96.5 50.0 96.35 50.35 M91.65 49.65 Q91.8 49.5 92.0 49.5 L92.35 49.65 92.5 50.0 92.35 50.35 92.0 50.5 91.65 50.35 91.5 50.0 91.65 49.65 M87.65 49.65 L88.0 49.5 88.35 49.65 88.5 50.0 88.35 50.35 88.0 50.5 87.65 50.35 87.5 50.0 87.65 49.65 M84.35 49.65 L84.5 50.0 84.35 50.35 84.0 50.5 83.65 50.35 83.5 50.0 Q83.5 49.8 83.65 49.65 83.8 49.5 84.0 49.5 L84.35 49.65 M159.65 49.65 L160.0 49.5 160.35 49.65 160.5 50.0 160.35 50.35 160.0 50.5 159.65 50.35 159.5 50.0 159.65 49.65 M155.65 49.65 Q155.8 49.5 156.0 49.5 156.2 49.5 156.35 49.65 L156.5 50.0 156.35 50.35 156.0 50.5 155.65 50.35 155.5 50.0 Q155.5 49.8 155.65 49.65 M152.5 50.0 L152.35 50.35 152.0 50.5 151.65 50.35 151.5 50.0 Q151.5 49.8 151.65 49.65 151.8 49.5 152.0 49.5 152.2 49.5 152.35 49.65 L152.5 50.0 M148.35 49.65 L148.5 50.0 148.35 50.35 148.0 50.5 147.65 50.35 147.5 50.0 147.65 49.65 Q147.8 49.5 148.0 49.5 L148.35 49.65 M143.65 49.65 Q143.8 49.5 144.0 49.5 144.2 49.5 144.35 49.65 L144.5 50.0 144.35 50.35 144.0 50.5 143.65 50.35 143.5 50.0 Q143.5 49.8 143.65 49.65 M139.65 49.65 Q139.8 49.5 140.0 49.5 140.2 49.5 140.35 49.65 L140.5 50.0 140.35 50.35 140.0 50.5 139.65 50.35 139.5 50.0 Q139.5 49.8 139.65 49.65 M135.65 49.65 Q135.8 49.5 136.0 49.5 L136.35 49.65 136.5 50.0 136.35 50.35 136.0 50.5 135.65 50.35 135.5 50.0 135.65 49.65 M132.5 50.0 L132.35 50.35 132.0 50.5 131.65 50.35 131.5 50.0 Q131.5 49.8 131.65 49.65 131.8 49.5 132.0 49.5 132.2 49.5 132.35 49.65 L132.5 50.0 M127.65 49.65 Q127.8 49.5 128.0 49.5 128.2 49.5 128.35 49.65 L128.5 50.0 128.35 50.35 128.0 50.5 127.65 50.35 127.5 50.0 Q127.5 49.8 127.65 49.65 M124.35 49.65 L124.5 50.0 124.35 50.35 124.0 50.5 123.65 50.35 123.5 50.0 123.65 49.65 Q123.8 49.5 124.0 49.5 L124.35 49.65 M39.65 49.65 Q39.8 49.5 40.0 49.5 L40.35 49.65 40.5 50.0 40.35 50.35 40.0 50.5 39.65 50.35 39.5 50.0 39.65 49.65 M36.35 49.65 L36.5 50.0 36.35 50.35 36.0 50.5 Q35.8 50.5 35.65 50.35 L35.5 50.0 35.65 49.65 Q35.8 49.5 36.0 49.5 L36.35 49.65 M32.35 49.65 L32.5 50.0 32.35 50.35 32.0 50.5 31.65 50.35 31.5 50.0 31.65 49.65 Q31.8 49.5 32.0 49.5 32.2 49.5 32.35 49.65 M27.65 49.65 Q27.8 49.5 28.0 49.5 L28.35 49.65 28.5 50.0 28.35 50.35 28.0 50.5 27.65 50.35 27.5 50.0 27.65 49.65 M23.65 49.65 Q23.8 49.5 24.0 49.5 L24.35 49.65 24.5 50.0 24.35 50.35 24.0 50.5 23.65 50.35 23.5 50.0 23.65 49.65 M20.35 50.35 L20.0 50.5 19.65 50.35 19.5 50.0 19.65 49.65 20.0 49.5 Q20.2 49.5 20.35 49.65 L20.5 50.0 20.35 50.35 M16.35 49.65 L16.5 50.0 16.35 50.35 16.0 50.5 15.65 50.35 15.5 50.0 15.65 49.65 16.0 49.5 16.35 49.65 M12.35 49.65 L12.5 50.0 12.35 50.35 12.0 50.5 11.65 50.35 11.5 50.0 Q11.5 49.8 11.65 49.65 11.8 49.5 12.0 49.5 L12.35 49.65 M7.65 49.65 Q7.8 49.5 8.0 49.5 L8.35 49.65 8.5 50.0 8.35 50.35 8.0 50.5 7.65 50.35 7.5 50.0 7.65 49.65 M3.65 49.65 L4.0 49.5 4.35 49.65 4.5 50.0 4.35 50.35 4.0 50.5 3.65 50.35 3.5 50.0 3.65 49.65 M0.5 50.0 L0.35 50.35 0.0 50.5 -0.35 50.35 -0.5 50.0 -0.35 49.65 0.0 49.5 0.35 49.65 0.5 50.0 M79.65 49.65 Q79.8 49.5 80.0 49.5 L80.35 49.65 80.5 50.0 80.35 50.35 80.0 50.5 79.65 50.35 79.5 50.0 79.65 49.65 M76.35 49.65 L76.5 50.0 76.35 50.35 76.0 50.5 75.65 50.35 75.5 50.0 75.65 49.65 76.0 49.5 76.35 49.65 M71.65 49.65 Q71.8 49.5 72.0 49.5 72.2 49.5 72.35 49.65 L72.5 50.0 72.35 50.35 72.0 50.5 71.65 50.35 71.5 50.0 Q71.5 49.8 71.65 49.65 M67.65 49.65 Q67.8 49.5 68.0 49.5 68.2 49.5 68.35 49.65 L68.5 50.0 68.35 50.35 68.0 50.5 67.65 50.35 67.5 50.0 Q67.5 49.8 67.65 49.65 M63.65 49.65 Q63.8 49.5 64.0 49.5 L64.35 49.65 64.5 50.0 64.35 50.35 64.0 50.5 63.65 50.35 63.5 50.0 63.65 49.65 M59.65 49.65 Q59.8 49.5 60.0 49.5 60.2 49.5 60.35 49.65 L60.5 50.0 60.35 50.35 60.0 50.5 59.65 50.35 59.5 50.0 Q59.5 49.8 59.65 49.65 M56.35 49.65 L56.5 50.0 56.35 50.35 56.0 50.5 55.65 50.35 55.5 50.0 Q55.5 49.8 55.65 49.65 55.8 49.5 56.0 49.5 56.2 49.5 56.35 49.65 M51.65 49.65 Q51.8 49.5 52.0 49.5 L52.35 49.65 52.5 50.0 52.35 50.35 52.0 50.5 51.65 50.35 51.5 50.0 51.65 49.65 M47.65 49.65 Q47.8 49.5 48.0 49.5 48.2 49.5 48.35 49.65 L48.5 50.0 48.35 50.35 48.0 50.5 47.65 50.35 47.5 50.0 Q47.5 49.8 47.65 49.65 M44.35 49.65 L44.5 50.0 44.35 50.35 44.0 50.5 43.65 50.35 43.5 50.0 Q43.5 49.8 43.65 49.65 43.8 49.5 44.0 49.5 44.2 49.5 44.35 49.65" fill="#999999" fill-rule="evenodd" stroke="none"/>
  </g>
</svg>
