<?xml version="1.0" encoding="UTF-8" standalone="no"?>
<svg xmlns:xlink="http://www.w3.org/1999/xlink" height="521.0px" width="761.0px" xmlns="http://www.w3.org/2000/svg">
  <g transform="matrix(1.0, 0.0, 0.0, 1.0, 0.5, 0.5)">
    <path d="M0.0 39.95 L0.0 0.0 64.95 0.0 695.05 0.0 760.0 0.0 760.0 39.95 760.0 485.05 760.0 520.0 695.05 520.0 64.95 520.0 0.0 520.0 0.0 485.05 0.0 39.95 M20.0 39.95 L20.0 485.05 20.0 505.0 64.95 505.0 695.05 505.0 740.0 505.0 740.0 485.05 740.0 39.95 740.0 20.0 695.05 20.0 64.95 20.0 20.0 20.0 20.0 39.95 20.0 20.0 64.95 20.0 695.05 20.0 740.0 20.0 740.0 39.95 740.0 485.05 740.0 505.0 695.05 505.0 64.95 505.0 20.0 505.0 20.0 485.05 20.0 39.95" fill="#a0774d" fill-rule="evenodd" stroke="none"/>
    <path d="M20.0 39.95 L20.0 20.0 64.95 20.0 695.05 20.0 740.0 20.0 740.0 39.95 740.0 485.05 740.0 505.0 695.05 505.0 64.95 505.0 20.0 505.0 20.0 485.05 20.0 39.95" fill="none" stroke="#cccccc" stroke-linecap="round" stroke-linejoin="round" stroke-opacity="0.42352942" stroke-width="1.0"/>
    <path d="M0.0 39.95 L0.0 0.0 64.95 0.0 695.05 0.0 760.0 0.0 760.0 39.95 760.0 485.05 760.0 520.0 695.05 520.0 64.95 520.0 0.0 520.0 0.0 485.05 0.0 39.95 Z" fill="none" stroke="#333333" stroke-linecap="round" stroke-linejoin="round" stroke-width="1.0"/>
  </g>
</svg>
