<?xml version="1.0" encoding="UTF-8" standalone="no"?>
<svg xmlns:xlink="http://www.w3.org/1999/xlink" height="406.0px" width="691.0px" xmlns="http://www.w3.org/2000/svg">
  <g transform="matrix(1.0, 0.0, 0.0, 1.0, 345.5, 200.5)">
    <path d="M205.0 -194.0 L205.0 -166.0 Q205.0 -160.0 199.0 -160.0 L-339.0 -160.0 Q-345.0 -160.0 -345.0 -166.0 L-345.0 -194.0 Q-345.0 -200.0 -339.0 -200.0 L199.0 -200.0 Q205.0 -200.0 205.0 -194.0 M210.0 -151.0 Q210.0 -155.0 214.0 -155.0 L341.0 -155.0 Q345.0 -155.0 345.0 -151.0 L345.0 201.0 Q345.0 205.0 341.0 205.0 L214.0 205.0 Q210.0 205.0 210.0 201.0 L210.0 -151.0" fill="#ffffff" fill-opacity="0.69411767" fill-rule="evenodd" stroke="none"/>
    <path d="M210.0 -151.0 L210.0 201.0 Q210.0 205.0 214.0 205.0 L341.0 205.0 Q345.0 205.0 345.0 201.0 L345.0 -151.0 Q345.0 -155.0 341.0 -155.0 L214.0 -155.0 Q210.0 -155.0 210.0 -151.0 M205.0 -194.0 Q205.0 -200.0 199.0 -200.0 L-339.0 -200.0 Q-345.0 -200.0 -345.0 -194.0 L-345.0 -166.0 Q-345.0 -160.0 -339.0 -160.0 L199.0 -160.0 Q205.0 -160.0 205.0 -166.0 L205.0 -194.0 Z" fill="none" stroke="#666666" stroke-linecap="round" stroke-linejoin="round" stroke-width="1.0"/>
  </g>
</svg>
