<?xml version="1.0" encoding="UTF-8" standalone="no"?>
<svg xmlns:xlink="http://www.w3.org/1999/xlink" height="130.5px" width="325.5px" xmlns="http://www.w3.org/2000/svg">
  <g transform="matrix(1.0, 0.0, 0.0, 1.0, 160.75, 123.25)">
    <path d="M17.3 -103.35 L26.55 -93.9 Q31.25 -88.3 31.25 -84.05 31.25 -80.5 29.15 -76.75 26.3 -72.3 24.75 -69.35 45.2 -70.2 53.3 -72.75 58.95 -74.5 59.85 -77.95 L60.4 -80.65 Q60.85 -82.15 62.05 -83.05 65.35 -85.55 77.5 -86.25 L82.5 -86.25 Q84.5 -81.6 86.3 -73.8 L89.25 -60.85 89.25 -60.6 Q90.75 -61.9 94.05 -63.9 L100.5 -67.75 111.5 -67.75 Q116.1 -64.5 118.25 -61.0 L122.25 -61.0 Q125.3 -68.1 126.3 -69.8 130.6 -77.25 135.25 -77.25 148.85 -77.25 155.0 -74.25 158.75 -72.4 158.75 -70.35 158.75 -69.4 156.0 -60.6 156.0 -59.95 156.65 -59.2 157.25 -58.4 157.25 -57.8 157.25 -56.5 156.5 -54.25 155.75 -51.95 155.75 -50.85 155.75 -46.8 160.25 -44.1 164.75 -41.4 164.75 -39.1 164.75 -34.35 163.7 -32.2 162.6 -29.9 159.35 -28.45 156.85 -27.3 149.75 -25.4 L133.0 -20.75 Q128.45 -19.35 121.65 -18.95 L111.15 -18.5 Q105.75 -18.1 103.35 -16.7 100.3 -14.9 100.25 -10.85 100.25 -7.1 95.05 -5.45 91.4 -4.3 75.75 -2.0 L33.4 2.6 Q8.05 5.55 0.5 7.25 L-25.5 7.25 Q-61.95 2.4 -80.3 -2.4 -101.15 -7.85 -101.85 -14.0 -123.3 -15.45 -130.55 -19.05 -134.7 -21.1 -137.75 -21.9 -143.65 -23.55 -155.5 -24.75 -156.8 -27.2 -159.4 -30.3 -160.75 -31.9 -160.75 -34.55 -160.75 -41.3 -158.5 -43.25 L-152.35 -43.1 Q-151.95 -43.1 -148.35 -50.4 -145.25 -56.75 -143.25 -61.25 L-143.25 -68.6 Q-148.0 -69.5 -149.7 -70.55 -151.25 -71.55 -151.25 -73.4 -151.25 -76.0 -147.8 -77.3 -143.15 -79.15 -130.25 -80.0 -127.5 -81.9 -125.6 -84.1 -123.0 -87.1 -122.75 -89.85 L-122.75 -91.8 Q-122.7 -93.5 -121.85 -94.8 -119.2 -98.75 -109.25 -98.75 -98.75 -98.75 -91.15 -97.3 -82.1 -95.6 -75.0 -95.25 -72.95 -94.45 -72.4 -91.65 -72.25 -90.7 -72.25 -87.5 L-72.55 -83.9 -73.35 -79.35 -56.5 -79.25 Q-54.15 -78.2 -53.4 -76.75 L-52.25 -73.75 Q-51.95 -73.15 -52.25 -72.0 -52.5 -71.0 -52.0 -70.7 L-38.0 -71.25 Q-35.75 -69.8 -33.1 -66.65 L-29.25 -62.0 -22.35 -62.0 -22.25 -64.6 Q-22.25 -66.3 -25.5 -72.25 -28.75 -78.2 -28.75 -84.5 -28.75 -87.3 -26.1 -90.7 L-20.25 -97.0 Q-11.75 -105.9 -11.75 -113.75 -11.75 -114.8 -13.0 -117.15 -14.25 -119.55 -14.25 -120.6 L-14.1 -122.3 Q-13.6 -123.15 -11.5 -123.25 L2.5 -123.25 Q10.0 -121.75 12.9 -119.4 15.1 -117.6 15.1 -114.65 14.65 -111.1 14.7 -109.2 14.8 -105.85 17.3 -103.35" fill="#000000" fill-opacity="0.003921569" fill-rule="evenodd" stroke="none"/>
  </g>
</svg>
