<?xml version="1.0" encoding="UTF-8" standalone="no"?>
<svg xmlns:xlink="http://www.w3.org/1999/xlink" height="18.0px" width="18.0px" xmlns="http://www.w3.org/2000/svg">
  <g transform="matrix(1.0, 0.0, 0.0, 1.0, 0.0, 0.0)">
    <path d="M7.0 10.0 Q8.7 10.0 9.85 11.2 11.0 12.35 11.0 14.0 11.0 15.65 9.85 16.85 8.7 18.0 7.0 18.0 5.35 18.0 4.2 16.85 3.0 15.65 3.0 14.0 3.0 12.35 4.2 11.2 5.35 10.0 7.0 10.0 M9.15 11.9 Q8.25 11.0 7.0 11.0 5.75 11.0 4.9 11.9 4.0 12.75 4.0 14.0 4.0 15.25 4.9 16.1 5.75 17.0 7.0 17.0 8.25 17.0 9.15 16.1 10.0 15.25 10.0 14.0 10.0 12.75 9.15 11.9" fill="#000000" fill-rule="evenodd" stroke="none"/>
    <path d="M8.0 14.0 L7.75 14.7 7.0 15.0 Q6.6 15.0 6.3 14.7 6.0 14.4 6.0 14.0 6.0 13.6 6.3 13.3 6.6 13.0 7.0 13.0 8.0 13.0 8.0 14.0" fill="#000000" fill-rule="evenodd" stroke="none"/>
    <path d="M3.0 0.0 L4.85 0.75 1.6 6.35 0.0 5.1 3.0 0.0" fill="#000000" fill-rule="evenodd" stroke="none"/>
    <path d="M5.75 1.15 Q10.4 3.1 13.9 5.1 15.35 5.95 15.75 7.55 16.2 9.15 15.35 10.55 L13.8 12.1 Q12.85 12.6 11.75 12.55 L15.2 16.0 18.0 16.0 18.0 18.0 14.35 18.0 10.95 14.6 11.0 14.0 Q11.0 12.35 9.85 11.2 8.7 10.0 7.0 10.0 L6.8 10.0 2.4 6.95 5.75 1.15" fill="#000000" fill-rule="evenodd" stroke="none"/>
  </g>
</svg>
