<?xml version="1.0" encoding="UTF-8" standalone="no"?>
<svg xmlns:xlink="http://www.w3.org/1999/xlink" height="18.3px" width="20.0px" xmlns="http://www.w3.org/2000/svg">
  <g transform="matrix(1.0, 0.0, 0.0, 1.0, 0.0, 0.0)">
    <path d="M5.05 1.4 L4.55 4.1 2.65 9.9 Q2.55 10.75 3.35 10.9 L3.45 10.9 Q4.1 10.9 5.15 8.8 6.25 6.65 6.8 6.65 L6.85 6.65 Q7.55 6.75 7.65 8.5 7.75 10.25 8.1 10.3 L8.15 10.3 Q8.55 10.3 9.05 9.65 L9.7 8.95 9.9 9.05 10.2 9.3 10.7 8.25 Q11.0 7.2 11.55 7.2 L11.65 7.2 Q12.25 7.3 13.0 11.3 13.75 15.25 14.7 15.3 15.75 15.3 14.8 12.05 13.85 8.75 14.4 8.75 14.8 8.75 15.4 10.0 L16.15 11.25 16.3 11.0 16.35 10.85 16.85 11.85 Q17.25 12.8 17.6 12.8 L17.9 12.4 16.55 7.75 15.9 5.2 Q15.85 4.9 15.3 4.9 L12.05 5.3 10.25 5.0 Q8.85 4.5 7.75 3.5 6.65 2.55 6.3 1.5 6.1 1.0 5.7 1.0 5.5 1.0 5.25 1.15 L5.05 1.4 M4.6 0.4 L5.7 0.0 Q6.85 0.0 7.25 1.15 7.55 1.95 8.4 2.75 9.35 3.65 10.6 4.05 L12.05 4.3 14.05 4.05 15.3 3.9 Q16.5 3.9 16.9 4.95 L17.05 5.65 Q18.2 10.3 18.85 12.05 L18.95 12.4 18.8 12.75 Q18.6 13.65 17.75 13.8 L17.6 13.8 Q16.55 13.8 15.95 12.2 L15.9 12.2 Q16.6 14.85 15.95 15.7 15.5 16.3 14.7 16.3 L14.65 16.3 Q13.5 16.25 12.85 14.7 12.45 13.7 11.95 11.0 L11.55 9.0 Q11.2 10.3 10.2 10.3 L9.85 10.25 Q9.05 11.3 8.15 11.3 L7.95 11.3 Q7.15 11.2 6.85 10.35 L6.65 8.8 6.6 8.25 6.1 9.2 5.0 11.05 Q4.3 11.9 3.45 11.9 L3.2 11.9 Q1.55 11.65 1.65 9.85 L1.65 9.7 1.7 9.55 Q2.95 6.45 3.6 3.75 L4.05 1.4 Q4.05 0.85 4.6 0.4" fill="#000000" fill-rule="evenodd" stroke="none"/>
    <path d="M14.4 8.75 Q14.85 8.75 15.6 10.3 16.15 11.55 16.3 11.0 L16.75 11.65 Q17.25 12.85 17.6 12.8 L17.9 12.45 Q18.9 15.35 20.0 17.15 L20.0 18.3 0.0 18.3 0.0 14.7 Q1.65 12.35 2.6 10.0 L2.65 9.9 Q2.55 10.75 3.35 10.9 4.05 11.0 5.15 8.8 6.3 6.6 6.85 6.65 7.55 6.75 7.65 8.5 7.75 10.25 8.1 10.3 8.55 10.35 9.15 9.5 9.65 8.8 9.9 9.05 10.35 9.6 10.65 8.5 11.0 7.1 11.65 7.2 12.25 7.3 13.0 11.3 13.75 15.25 14.7 15.3 15.8 15.35 14.8 12.05 13.85 8.75 14.4 8.75" fill="#000000" fill-rule="evenodd" stroke="none"/>
  </g>
</svg>
