<?xml version="1.0" encoding="UTF-8" standalone="no"?>
<svg xmlns:xlink="http://www.w3.org/1999/xlink" height="19.05px" width="19.05px" xmlns="http://www.w3.org/2000/svg">
  <g transform="matrix(1.0, 0.0, 0.0, 1.0, -3.85, -3.7)">
    <path d="M19.05 19.15 L7.55 19.15 7.55 7.65 19.05 7.65 19.05 19.15 M17.55 17.65 L17.55 9.15 9.05 9.15 9.05 17.65 17.55 17.65 M16.0 21.9 Q16.15 21.75 16.35 21.75 L18.35 21.75 Q18.55 21.75 18.7 21.9 L18.85 22.25 18.7 22.6 18.35 22.75 16.35 22.75 16.0 22.6 15.85 22.25 Q15.85 22.05 16.0 21.9 M11.85 22.25 Q11.85 22.05 12.0 21.9 12.15 21.75 12.35 21.75 L14.35 21.75 14.7 21.9 14.85 22.25 14.7 22.6 14.35 22.75 12.35 22.75 12.0 22.6 11.85 22.25 M8.0 22.6 L7.85 22.25 8.0 21.9 Q8.15 21.75 8.35 21.75 L10.35 21.75 10.7 21.9 10.85 22.25 10.7 22.6 10.35 22.75 8.35 22.75 8.0 22.6 M4.35 22.75 L4.0 22.6 3.85 22.25 3.85 20.2 Q3.85 20.0 4.0 19.85 4.15 19.7 4.35 19.7 4.55 19.7 4.7 19.85 L4.85 20.2 4.85 21.75 6.35 21.75 Q6.55 21.75 6.7 21.9 L6.85 22.25 6.7 22.6 6.35 22.75 4.35 22.75 M4.35 15.7 Q4.55 15.7 4.7 15.85 L4.85 16.2 4.85 18.2 4.7 18.55 4.35 18.7 4.0 18.55 3.85 18.2 3.85 16.2 Q3.85 16.0 4.0 15.85 4.15 15.7 4.35 15.7 M4.7 11.85 L4.85 12.2 4.85 14.2 4.7 14.55 4.35 14.7 4.0 14.55 3.85 14.2 3.85 12.2 Q3.85 12.0 4.0 11.85 4.15 11.7 4.35 11.7 4.55 11.7 4.7 11.85 M4.7 7.85 L4.85 8.2 4.85 10.2 4.7 10.55 4.35 10.7 4.0 10.55 3.85 10.2 3.85 8.2 Q3.85 8.0 4.0 7.85 4.15 7.7 4.35 7.7 4.55 7.7 4.7 7.85 M6.4 3.7 L6.75 3.85 6.9 4.2 6.75 4.55 6.4 4.7 4.85 4.7 4.85 6.2 4.7 6.55 4.35 6.7 4.0 6.55 3.85 6.2 3.85 4.2 Q3.85 4.0 4.0 3.85 4.15 3.7 4.35 3.7 L6.4 3.7 M10.4 3.7 Q10.6 3.7 10.75 3.85 L10.9 4.2 10.75 4.55 10.4 4.7 8.4 4.7 8.05 4.55 7.9 4.2 Q7.9 4.0 8.05 3.85 8.2 3.7 8.4 3.7 L10.4 3.7 M12.05 3.85 L12.4 3.7 14.4 3.7 Q14.6 3.7 14.75 3.85 L14.9 4.2 14.75 4.55 14.4 4.7 12.4 4.7 12.05 4.55 11.9 4.2 12.05 3.85 M16.4 4.7 L16.05 4.55 15.9 4.2 16.05 3.85 Q16.2 3.7 16.4 3.7 L18.4 3.7 18.75 3.85 18.9 4.2 18.75 4.55 18.4 4.7 16.4 4.7 M22.4 19.75 Q22.6 19.75 22.75 19.9 L22.9 20.25 22.9 22.25 22.75 22.6 22.4 22.75 20.35 22.75 20.0 22.6 19.85 22.25 20.0 21.9 20.35 21.75 21.9 21.75 21.9 20.25 Q21.9 20.05 22.05 19.9 22.2 19.75 22.4 19.75 M22.4 15.75 Q22.6 15.75 22.75 15.9 L22.9 16.25 22.9 18.25 22.75 18.6 22.4 18.75 22.05 18.6 21.9 18.25 21.9 16.25 Q21.9 16.05 22.05 15.9 22.2 15.75 22.4 15.75 M21.9 12.25 Q21.9 12.05 22.05 11.9 22.2 11.75 22.4 11.75 22.6 11.75 22.75 11.9 L22.9 12.25 22.9 14.25 22.75 14.6 22.4 14.75 22.05 14.6 21.9 14.25 21.9 12.25 M22.05 7.9 Q22.2 7.75 22.4 7.75 22.6 7.75 22.75 7.9 L22.9 8.25 22.9 10.25 22.75 10.6 22.4 10.75 22.05 10.6 21.9 10.25 21.9 8.25 Q21.9 8.05 22.05 7.9 M22.75 3.85 L22.9 4.2 22.9 6.25 22.75 6.6 22.4 6.75 22.05 6.6 21.9 6.25 21.9 4.7 20.4 4.7 20.05 4.55 19.9 4.2 Q19.9 4.0 20.05 3.85 20.2 3.7 20.4 3.7 L22.4 3.7 Q22.6 3.7 22.75 3.85" fill="#ffff00" fill-rule="evenodd" stroke="none"/>
  </g>
</svg>
