<?xml version="1.0" encoding="UTF-8" standalone="no"?>
<svg xmlns:xlink="http://www.w3.org/1999/xlink" height="97.0px" width="96.0px" xmlns="http://www.w3.org/2000/svg">
  <g transform="matrix(1.0, 0.0, 0.0, 1.0, 0.5, 0.5)">
    <path d="M91.0 0.0 Q95.0 0.0 95.0 4.0 L95.0 92.0 Q95.0 96.0 91.0 96.0 L4.0 96.0 Q0.0 96.0 0.0 92.0 L0.0 4.0 Q0.0 0.0 4.0 0.0 L91.0 0.0" fill="#ffffff" fill-rule="evenodd" stroke="none"/>
    <path d="M91.0 0.0 L4.0 0.0 Q0.0 0.0 0.0 4.0 L0.0 92.0 Q0.0 96.0 4.0 96.0 L91.0 96.0 Q95.0 96.0 95.0 92.0 L95.0 4.0 Q95.0 0.0 91.0 0.0 Z" fill="none" stroke="#666666" stroke-linecap="round" stroke-linejoin="round" stroke-width="1.0"/>
  </g>
</svg>
