<?xml version="1.0" encoding="UTF-8" standalone="no"?>
<svg xmlns:xlink="http://www.w3.org/1999/xlink" height="30.0px" width="175.0px" xmlns="http://www.w3.org/2000/svg">
  <g transform="matrix(1.0, 0.0, 0.0, 1.0, 0.0, 0.0)">
    <path d="M172.2 0.0 Q175.0 0.0 175.0 2.95 L175.0 27.05 Q175.0 30.0 172.2 30.0 L2.8 30.0 Q0.0 30.0 0.0 27.05 L0.0 2.95 Q0.0 0.0 2.8 0.0 L172.2 0.0 M173.0 27.05 L173.0 2.95 Q173.0 2.05 172.2 2.0 L2.8 2.0 Q2.0 2.05 2.0 2.95 L2.0 27.05 Q2.0 27.95 2.8 28.0 L172.2 28.0 Q173.0 27.95 173.0 27.05" fill="#ffff66" fill-rule="evenodd" stroke="none"/>
  </g>
</svg>
