<?xml version="1.0" encoding="UTF-8" standalone="no"?>
<svg xmlns:xlink="http://www.w3.org/1999/xlink" height="140.0px" width="480.0px" xmlns="http://www.w3.org/2000/svg">
  <g transform="matrix(1.0, 0.0, 0.0, 1.0, 225.0, 65.0)">
    <path d="M252.0 -65.0 Q255.0 -65.0 255.0 -62.0 L255.0 72.0 Q255.0 75.0 252.0 75.0 L-222.0 75.0 Q-225.0 75.0 -225.0 72.0 L-225.0 -62.0 Q-225.0 -65.0 -222.0 -65.0 L252.0 -65.0" fill="#ffffff" fill-opacity="0.9019608" fill-rule="evenodd" stroke="none"/>
    <path d="M252.0 -65.0 L-222.0 -65.0 Q-225.0 -65.0 -225.0 -62.0 L-225.0 72.0 Q-225.0 75.0 -222.0 75.0 L252.0 75.0 Q255.0 75.0 255.0 72.0 L255.0 -62.0 Q255.0 -65.0 252.0 -65.0 Z" fill="none" stroke="#000000" stroke-linecap="round" stroke-linejoin="round" stroke-opacity="0.49803922" stroke-width="0.05"/>
  </g>
</svg>
