<?xml version="1.0" encoding="UTF-8" standalone="no"?>
<svg xmlns:xlink="http://www.w3.org/1999/xlink" height="151.0px" width="221.0px" xmlns="http://www.w3.org/2000/svg">
  <g transform="matrix(1.0, 0.0, 0.0, 1.0, 0.5, 0.5)">
    <path d="M220.0 0.0 L220.0 150.0 0.0 150.0 0.0 107.2 0.0 0.0 220.0 0.0" fill="#ffffff" fill-rule="evenodd" stroke="none"/>
    <path d="M220.0 150.0 L220.0 0.0" fill="none" stroke="#595959" stroke-linecap="round" stroke-linejoin="round" stroke-width="1.0"/>
    <path d="M220.0 0.0 L0.0 0.0 0.0 107.2 0.0 150.0 220.0 150.0" fill="none" stroke="#8e8e8e" stroke-linecap="round" stroke-linejoin="round" stroke-width="1.0"/>
    <path d="M210.0 10.0 L210.0 110.0 140.0 110.0 140.0 81.5 140.0 10.0 210.0 10.0" fill="#ffffff" fill-rule="evenodd" stroke="none"/>
    <path d="M210.0 110.0 L210.0 10.0" fill="none" stroke="#595959" stroke-linecap="round" stroke-linejoin="round" stroke-width="1.0"/>
    <path d="M210.0 10.0 L140.0 10.0 140.0 81.5 140.0 110.0 210.0 110.0" fill="none" stroke="#8e8e8e" stroke-linecap="round" stroke-linejoin="round" stroke-width="1.0"/>
  </g>
</svg>
