<?xml version="1.0" encoding="UTF-8" standalone="no"?>
<svg xmlns:xlink="http://www.w3.org/1999/xlink" height="26.0px" width="47.0px" xmlns="http://www.w3.org/2000/svg">
  <g transform="matrix(1.0, 0.0, 0.0, 1.0, 1.0, 1.0)">
    <path d="M0.0 20.0 L0.0 18.55 0.0 5.45 0.0 4.0 Q0.0 0.0 4.0 0.0 L10.7 0.0 34.3 0.0 41.0 0.0 Q45.0 0.0 45.0 4.0 L45.0 5.45 45.0 18.55 45.0 20.0 Q45.0 24.0 41.0 24.0 L34.3 24.0 10.7 24.0 4.0 24.0 Q0.0 24.0 0.0 20.0" fill="url(#gradient0)" fill-rule="evenodd" stroke="none"/>
    <path d="M0.0 20.0 Q0.0 24.0 4.0 24.0 L10.7 24.0 34.3 24.0 41.0 24.0 Q45.0 24.0 45.0 20.0 L45.0 18.55 45.0 5.45 45.0 4.0 Q45.0 0.0 41.0 0.0 L34.3 0.0 10.7 0.0 4.0 0.0 Q0.0 0.0 0.0 4.0 L0.0 5.45 0.0 18.55 0.0 20.0 Z" fill="none" stroke="#000000" stroke-linecap="round" stroke-linejoin="round" stroke-width="2.0"/>
  </g>
  <defs>
    <linearGradient gradientTransform="matrix(0.0824, 0.0, 0.0, 0.0153, 67.5, 12.5)" gradientUnits="userSpaceOnUse" id="gradient0" spreadMethod="pad" x1="-819.2" x2="819.2">
      <stop offset="0.0" stop-color="#18b440"/>
      <stop offset="1.0" stop-color="#69e054"/>
    </linearGradient>
  </defs>
</svg>
