<?xml version="1.0" encoding="UTF-8" standalone="no"?>
<svg xmlns:xlink="http://www.w3.org/1999/xlink" height="16.0px" width="77.0px" xmlns="http://www.w3.org/2000/svg">
  <g transform="matrix(1.0, 0.0, 0.0, 1.0, 1.25, 0.5)">
    <path d="M75.25 11.0 Q75.25 15.0 71.25 15.0 L3.25 15.0 Q-0.75 15.0 -0.75 11.0 L-0.75 4.0 Q-0.75 0.0 3.25 0.0 L71.25 0.0 Q75.25 0.0 75.25 4.0 L75.25 11.0" fill="url(#gradient0)" fill-rule="evenodd" stroke="none"/>
    <path d="M75.25 11.0 L75.25 4.0 Q75.25 0.0 71.25 0.0 L3.25 0.0 Q-0.75 0.0 -0.75 4.0 L-0.75 11.0 Q-0.75 15.0 3.25 15.0 L71.25 15.0 Q75.25 15.0 75.25 11.0 Z" fill="none" stroke="#a9a9a9" stroke-linecap="round" stroke-linejoin="round" stroke-opacity="0.49803922" stroke-width="1.0"/>
  </g>
  <defs>
    <linearGradient gradientTransform="matrix(1.0E-4, 0.0092, -0.0092, 1.0E-4, 37.25, 7.5)" gradientUnits="userSpaceOnUse" id="gradient0" spreadMethod="pad" x1="-819.2" x2="819.2">
      <stop offset="0.0" stop-color="#fbf701"/>
      <stop offset="1.0" stop-color="#faee01"/>
    </linearGradient>
  </defs>
</svg>
