<?xml version="1.0" encoding="UTF-8" standalone="no"?>
<svg xmlns:xlink="http://www.w3.org/1999/xlink" height="57.0px" width="81.0px" xmlns="http://www.w3.org/2000/svg">
  <g transform="matrix(1.0, 0.0, 0.0, 1.0, -1.0, -1.0)">
    <path d="M82.0 45.0 Q81.5 45.0 81.4 45.2 79.5 48.45 77.0 46.0 L76.25 45.75 Q76.0 45.5 76.0 45.0 L78.15 43.25 Q78.5 43.0 79.0 43.0 L80.0 43.0 81.0 43.0 81.8 44.1 82.0 45.0 M62.0 9.0 L64.85 9.45 65.0 10.0 Q70.0 9.0 70.0 13.0 L70.0 14.0 70.75 14.25 71.0 15.0 71.0 17.0 71.0 18.0 Q72.75 22.75 71.5 29.9 L71.0 30.0 71.0 31.0 Q71.3 32.7 72.8 33.4 73.0 33.5 73.0 34.0 75.7 33.3 76.4 34.8 L77.0 35.0 79.75 37.25 80.0 38.0 Q81.7 38.3 80.6 40.8 80.5 41.0 80.0 41.0 L79.75 41.75 79.0 42.0 78.0 42.0 71.0 42.0 71.0 43.0 70.75 43.75 70.0 44.0 69.9 44.5 Q62.75 45.75 58.0 44.0 L58.0 43.0 58.0 42.5 Q57.0 42.5 56.0 43.0 L55.5 43.1 Q55.15 44.65 53.0 44.0 L52.8 44.6 Q52.0 45.0 51.0 45.0 L50.0 45.0 Q48.05 45.05 47.0 46.0 L47.0 47.0 Q48.95 47.05 49.75 48.15 L50.0 49.0 Q50.5 49.0 50.75 49.25 L51.0 50.0 Q53.15 50.65 53.5 49.1 L54.0 49.0 54.0 48.5 Q51.35 48.65 52.0 46.0 55.4 45.1 55.5 48.0 L56.0 48.0 57.1 47.2 58.0 47.0 Q60.7 46.3 61.4 47.8 L62.0 48.0 Q62.5 48.0 62.55 48.15 63.7 52.2 60.0 52.0 L59.05 52.1 Q56.9 52.65 57.0 51.0 L56.0 51.0 55.0 51.0 54.0 51.0 51.0 51.0 51.0 52.0 51.0 53.0 52.0 53.0 53.0 53.0 Q55.2 54.3 55.9 57.05 L56.0 58.0 55.0 58.0 54.0 58.0 53.85 57.05 Q52.7 54.3 48.0 55.0 L48.0 55.5 Q45.45 54.8 44.0 56.0 L43.8 56.6 Q43.0 57.0 42.0 57.0 42.0 56.5 42.15 56.05 42.9 53.7 38.0 53.0 L37.0 52.95 Q35.3 52.7 35.0 51.0 L34.5 51.0 Q34.65 53.15 33.0 53.0 32.5 53.0 32.35 53.25 31.0 55.35 30.0 53.0 L29.05 52.8 Q23.5 50.5 21.0 45.0 L20.0 45.0 19.0 45.0 18.0 45.0 18.0 46.0 18.8 47.1 19.0 48.0 18.8 48.9 18.0 50.0 17.85 50.55 Q13.75 51.7 12.0 50.0 11.5 50.0 11.4 49.8 11.0 49.0 11.0 48.0 11.5 47.5 12.1 47.2 L13.0 47.0 13.0 46.0 14.0 46.0 14.0 45.0 Q15.0 45.0 15.8 44.6 16.0 44.5 16.0 44.0 15.5 44.0 15.35 43.75 12.3 39.2 6.0 38.0 L5.05 38.1 Q2.9 38.65 3.0 37.0 L2.25 36.75 1.0 35.0 1.0 34.0 1.0 33.0 2.0 33.0 2.0 32.0 3.1 31.2 4.0 31.0 4.0 30.0 6.0 30.0 7.0 30.0 7.0 29.0 7.0 28.0 Q8.3 20.3 13.05 16.25 14.2 15.3 14.45 17.95 14.7 21.2 13.0 22.0 L13.0 23.0 13.1 23.95 Q13.65 26.15 12.0 26.0 L12.0 27.0 12.0 28.0 12.0 29.0 12.0 30.0 13.0 30.0 Q16.25 29.25 15.5 24.0 L16.0 24.0 16.0 23.0 16.0 22.0 Q18.2 21.7 18.5 19.05 L19.0 19.0 19.0 18.0 23.2 15.25 24.0 15.0 24.0 14.0 Q26.15 14.65 26.45 13.1 L27.0 13.0 Q28.0 12.5 29.05 12.15 L30.0 12.0 30.0 11.0 32.0 11.0 33.0 11.0 33.0 10.0 34.0 10.0 35.0 10.0 35.0 9.0 37.05 8.15 38.0 8.0 38.0 7.0 Q40.95 6.45 43.1 5.2 L44.0 5.0 Q46.7 4.3 47.4 5.8 47.5 6.0 48.0 6.0 51.15 4.15 53.3 1.25 53.5 1.0 54.0 1.0 L55.0 1.0 Q57.95 2.55 58.9 6.05 L59.0 7.0 Q60.7 7.3 61.4 8.8 L62.0 9.0 M60.0 39.0 L59.75 39.75 59.0 40.0 59.0 41.0 60.0 41.0 64.0 41.0 65.0 41.0 65.0 40.0 65.0 39.0 64.0 39.0 63.0 39.0 62.0 39.0 60.0 39.0" fill="#ff0000" fill-rule="evenodd" stroke="none"/>
  </g>
</svg>
