<?xml version="1.0" encoding="UTF-8" standalone="no"?>
<svg xmlns:xlink="http://www.w3.org/1999/xlink" height="39.0px" width="33.0px" xmlns="http://www.w3.org/2000/svg">
  <g transform="matrix(1.0, 0.0, 0.0, 1.0, -1.0, 0.0)">
    <path d="M32.0 8.0 Q33.65 7.9 33.1 10.05 L33.0 11.0 33.1 11.95 Q33.65 14.15 32.0 14.0 L31.8 14.9 Q30.8 16.8 29.0 18.0 L29.0 19.0 29.0 20.0 29.0 21.0 Q31.15 21.85 31.85 24.05 L32.0 25.0 32.8 26.1 33.0 27.0 34.0 27.0 34.0 31.0 34.0 32.0 33.0 32.0 32.0 32.0 31.8 32.6 Q31.0 33.0 30.0 33.0 L29.8 33.6 Q28.0 34.5 26.0 35.0 L25.8 35.6 Q23.0 37.0 20.0 38.0 L19.8 38.6 Q19.0 39.0 18.0 39.0 L17.0 39.0 16.0 39.0 15.25 38.75 15.0 38.0 14.1 37.8 Q13.5 37.5 13.0 37.0 L12.05 36.85 Q9.05 35.95 7.0 34.0 L6.1 33.8 Q5.5 33.5 5.0 33.0 L4.0 32.95 Q2.3 32.7 2.0 31.0 L3.85 26.95 4.0 26.0 4.0 25.0 4.0 23.0 4.0 22.0 4.0 18.0 4.0 17.0 3.15 16.75 1.0 15.0 1.0 14.0 1.0 11.0 1.0 10.0 1.0 9.0 3.15 7.25 Q3.5 7.0 4.0 7.0 L5.0 7.0 6.0 7.0 6.0 6.0 7.0 6.0 Q9.0 5.0 11.05 4.15 L12.0 4.0 12.0 3.0 13.0 3.0 14.0 3.0 14.0 2.0 Q16.0 1.5 17.8 0.6 L18.0 0.0 19.0 0.0 19.0 1.0 Q20.05 1.95 21.85 2.45 L22.0 3.0 Q26.05 3.95 29.15 5.8 L30.0 6.0 31.75 7.25 32.0 8.0" fill="#ff0000" fill-rule="evenodd" stroke="none"/>
  </g>
</svg>
