<?xml version="1.0" encoding="UTF-8" standalone="no"?>
<svg xmlns:xlink="http://www.w3.org/1999/xlink" height="55.5px" width="81.0px" xmlns="http://www.w3.org/2000/svg">
  <g transform="matrix(1.0, 0.0, 0.0, 1.0, -1.0, -1.0)">
    <path d="M82.0 35.0 Q81.5 35.0 81.35 35.2 76.8 43.15 65.0 37.0 L65.0 38.0 Q65.0 38.5 65.25 38.8 71.75 47.2 61.0 49.0 L60.75 49.8 Q59.35 51.35 57.0 52.0 56.5 52.0 56.3 52.25 54.45 54.45 50.0 54.0 L49.0 54.0 48.0 54.0 Q44.1 56.4 40.95 53.05 L39.95 52.05 Q43.75 57.95 35.0 56.0 28.95 51.2 24.85 52.6 17.25 55.2 15.0 48.0 L16.0 48.0 16.0 47.0 17.1 46.2 18.0 46.0 18.0 45.0 19.0 45.0 18.75 44.2 Q15.45 40.55 8.0 41.0 L7.0 41.0 5.0 41.0 4.05 41.1 Q1.9 41.65 2.0 40.0 L1.4 39.8 Q1.0 39.0 1.0 38.0 3.0 37.5 4.25 36.25 4.5 36.0 5.0 36.0 L5.0 35.0 12.2 29.25 13.0 29.0 13.0 28.0 13.0 27.0 Q16.25 24.75 17.45 20.1 L18.0 20.0 Q18.0 15.0 18.5 10.05 L19.0 10.0 19.0 9.0 19.0 8.0 19.0 5.0 Q20.2 2.2 23.05 1.15 L24.0 1.0 28.9 1.5 29.0 2.0 Q42.05 4.5 35.25 14.15 35.0 14.5 35.0 15.0 L34.75 15.75 34.0 16.0 34.05 17.0 Q34.45 21.45 32.0 23.0 L32.0 24.0 36.0 24.1 37.0 24.0 Q38.45 22.45 40.85 21.55 L41.0 21.0 40.85 20.45 Q38.45 19.55 39.0 16.0 L39.0 15.0 39.0 12.0 Q41.0 9.0 44.1 7.2 L45.0 7.0 45.0 6.0 46.0 6.0 47.0 6.0 47.0 5.0 47.0 1.0 Q48.05 4.45 51.85 5.45 L52.0 6.0 53.0 6.0 56.75 9.25 57.0 10.0 58.8 13.1 59.0 14.0 Q63.15 15.85 62.05 23.0 L62.0 24.0 64.85 24.45 65.0 25.0 66.0 25.0 67.0 25.0 66.75 24.25 65.0 23.0 64.2 22.75 Q62.8 21.7 63.0 19.0 64.65 19.15 64.5 17.0 L65.0 17.0 Q76.55 14.95 76.5 24.0 L76.0 24.0 76.05 25.0 Q76.15 26.65 74.0 26.0 L74.0 27.0 75.1 27.8 76.0 28.0 Q77.95 28.05 79.15 28.75 L80.0 29.0 Q81.65 28.9 81.5 31.0 L82.0 31.0 82.0 34.0 82.0 35.0" fill="#ff0000" fill-opacity="0.9607843" fill-rule="evenodd" stroke="none"/>
  </g>
</svg>
