<?xml version="1.0" encoding="UTF-8" standalone="no"?>
<svg xmlns:xlink="http://www.w3.org/1999/xlink" height="181.8px" width="117.15px" xmlns="http://www.w3.org/2000/svg">
  <g transform="matrix(1.0, 0.0, 0.0, 1.0, 0.15, -2.2)">
    <path d="M62.2 10.5 Q65.1 17.8 65.1 20.75 65.1 24.8 66.7 33.9 L69.0 47.0 Q71.35 62.25 75.55 63.75 L78.1 64.05 Q79.1 64.4 79.1 66.95 79.1 67.85 78.3 68.65 77.45 69.55 76.0 70.0 80.8 94.4 87.4 102.6 89.6 105.35 93.75 108.3 98.9 112.0 101.05 114.05 L98.0 116.0 Q98.6 117.75 101.0 118.65 101.0 121.2 99.5 121.95 L98.0 122.5 Q98.0 123.1 103.75 130.25 L116.3 145.75 Q116.5 146.0 117.0 146.0 L117.0 151.5 Q117.0 154.85 112.8 158.8 108.15 163.15 102.9 163.15 100.7 163.15 98.55 161.45 95.55 159.15 91.1 158.05 88.0 157.3 88.0 156.0 88.6 149.5 88.55 145.8 88.5 139.0 85.5 139.0 79.95 139.0 75.75 143.7 71.0 149.05 71.0 158.0 71.0 166.25 72.05 168.45 73.1 170.6 73.1 173.3 L73.15 174.95 Q72.95 177.0 71.75 178.65 68.05 184.0 56.0 184.0 52.5 184.0 48.55 180.45 44.0 176.35 44.0 171.0 44.0 166.9 45.2 163.55 46.35 160.2 46.35 158.15 46.35 149.8 41.15 143.75 36.2 138.0 30.0 138.0 29.7 138.0 28.45 140.0 27.0 142.3 27.0 144.0 27.0 144.55 28.15 146.55 29.25 148.55 29.25 150.1 29.25 154.7 27.25 157.75 23.8 163.0 15.0 163.0 0.0 157.7 0.0 150.5 L-0.15 147.7 0.0 145.0 Q0.25 144.3 3.65 140.95 L8.0 136.7 Q10.9 133.55 13.35 127.15 15.3 122.1 15.3 120.7 13.9 113.25 13.0 112.0 24.95 112.2 32.65 96.15 39.0 82.85 39.0 69.0 L38.5 67.4 38.0 66.0 38.0 64.0 Q44.45 62.05 49.05 39.6 52.6 22.35 53.0 8.0 55.3 8.0 55.55 7.5 56.85 4.45 58.5 2.2 60.2 5.5 62.2 10.5" fill="#ff0000" fill-rule="evenodd" stroke="none"/>
  </g>
</svg>
