<?xml version="1.0" encoding="UTF-8" standalone="no"?>
<svg xmlns:xlink="http://www.w3.org/1999/xlink" height="56.0px" width="68.0px" xmlns="http://www.w3.org/2000/svg">
  <g transform="matrix(1.0, 0.0, 0.0, 1.0, -1.0, 0.0)">
    <path d="M63.0 14.0 Q64.7 14.8 64.1 18.0 L64.0 19.0 Q66.35 19.65 67.75 21.2 L68.0 22.0 Q69.65 27.15 68.55 29.85 L68.0 30.0 68.1 31.0 Q70.6 43.95 58.0 51.0 L57.85 51.55 55.0 52.0 54.75 52.8 Q53.0 55.0 49.0 55.0 L49.0 56.0 48.0 56.0 44.0 56.0 43.0 56.0 25.0 56.0 25.0 55.0 24.1 53.9 23.5 53.0 Q15.45 57.7 13.0 51.0 18.25 49.0 14.25 43.8 14.0 43.5 14.0 43.0 L13.4 42.8 Q13.0 42.0 13.0 41.0 L12.45 40.85 Q12.0 39.5 12.0 38.0 11.5 38.0 11.25 38.25 9.0 40.45 7.0 38.0 L6.25 37.75 5.0 36.0 Q4.5 36.0 4.3 35.75 2.35 33.15 1.0 30.0 L1.0 29.0 1.0 27.0 Q2.7 26.7 3.4 25.2 3.5 25.0 4.0 25.0 6.25 23.25 9.05 22.15 L10.0 22.0 10.0 21.0 Q11.95 20.95 12.75 19.85 L13.0 19.0 12.25 18.75 12.0 18.0 11.25 17.75 9.0 15.0 8.1 14.8 Q4.35 13.15 3.0 9.0 5.0 8.5 6.25 7.25 6.5 7.0 7.0 7.0 15.5 4.55 15.95 8.0 L16.0 9.0 Q16.0 10.0 16.4 10.8 L17.0 11.0 17.75 10.75 18.0 10.0 18.0 9.0 19.1 8.2 20.0 8.0 20.0 7.0 20.0 6.0 21.0 6.0 21.0 5.0 Q23.75 2.8 25.75 5.2 L26.0 6.0 26.0 7.0 27.0 7.0 28.0 7.0 30.0 7.0 31.0 7.0 31.0 6.0 Q33.2 4.7 33.05 1.0 L33.0 0.0 34.0 0.0 35.0 0.0 35.0 1.0 39.75 4.35 40.0 5.0 Q45.3 9.2 52.85 11.45 L53.0 12.0 54.8 12.4 Q55.0 12.5 55.0 13.0 57.85 14.15 62.0 14.0 L63.0 14.0" fill="#ff0000" fill-rule="evenodd" stroke="none"/>
  </g>
</svg>
