<?xml version="1.0" encoding="UTF-8" standalone="no"?>
<svg xmlns:xlink="http://www.w3.org/1999/xlink" height="66.0px" width="46.0px" xmlns="http://www.w3.org/2000/svg">
  <g transform="matrix(1.0, 0.0, 0.0, 1.0, -1.0, 0.0)">
    <path d="M41.75 8.2 Q47.0 15.05 47.0 24.5 47.0 32.45 40.75 38.85 37.5 42.15 33.0 45.0 34.75 48.75 37.85 53.25 40.05 56.55 40.05 57.55 40.05 59.2 38.45 61.5 36.0 65.05 31.35 65.05 30.75 65.05 30.3 65.55 L30.0 66.0 18.0 66.0 18.0 64.95 Q12.7 65.2 9.55 61.75 7.0 59.0 7.0 56.0 7.0 55.4 10.65 50.75 L14.3 46.25 15.0 46.0 Q13.8 43.75 11.1 41.25 L6.45 36.9 Q1.0 30.95 1.0 20.5 1.0 14.25 6.7 8.65 11.7 3.65 19.0 1.0 19.0 0.0 24.0 0.0 35.45 0.0 41.75 8.2" fill="#ff0000" fill-rule="evenodd" stroke="none"/>
  </g>
</svg>
