<?xml version="1.0" encoding="UTF-8" standalone="no"?>
<svg xmlns:xlink="http://www.w3.org/1999/xlink" height="84.55px" width="79.0px" xmlns="http://www.w3.org/2000/svg">
  <g transform="matrix(1.0, 0.0, 0.0, 1.0, 0.0, 0.0)">
    <path d="M61.0 17.0 Q60.9 28.6 63.45 37.85 L64.0 38.0 64.0 37.0 Q66.2 34.85 65.5 37.9 L65.0 38.0 65.0 40.0 65.0 41.0 Q67.7 40.8 67.95 43.0 L68.0 44.0 Q68.7 52.15 68.05 57.0 L68.0 58.0 Q69.65 57.9 69.1 60.05 L69.0 61.0 69.25 61.75 70.0 62.0 70.0 61.0 70.0 60.0 73.3 56.25 Q73.5 56.0 74.0 56.0 L74.0 55.0 76.0 55.0 77.0 55.0 Q77.5 55.0 77.75 55.25 L78.0 56.0 79.0 56.0 79.0 58.0 79.0 59.0 78.0 59.0 77.85 59.95 Q76.25 64.25 73.0 67.0 L73.0 68.0 Q74.9 70.0 73.25 71.3 73.0 71.5 73.0 72.0 L72.75 72.8 Q70.85 75.35 68.0 77.0 L67.85 77.95 Q64.45 86.45 55.0 84.0 L54.45 83.85 Q54.0 82.5 54.0 81.0 53.5 81.0 53.4 80.8 53.0 80.0 53.0 79.0 L62.9 76.55 63.0 76.0 63.0 75.0 62.3 73.9 62.0 73.0 Q53.05 73.45 49.0 70.0 L50.0 70.0 52.0 70.0 53.0 70.0 56.0 70.0 57.0 70.0 60.0 70.0 61.0 70.0 61.0 69.0 Q63.7 68.7 64.45 66.15 64.5 66.0 65.0 66.0 L65.0 65.0 66.0 65.0 65.9 64.45 Q62.8 63.7 64.0 59.0 65.0 58.5 66.05 58.15 L67.0 58.0 Q67.0 57.5 66.8 57.4 L65.0 57.0 64.0 57.05 Q61.3 57.2 60.0 56.0 L60.1 57.0 Q61.95 65.95 57.0 68.0 L56.0 68.0 55.0 68.0 54.0 68.0 52.0 68.0 51.5 68.0 Q53.3 49.1 44.0 59.0 L43.85 59.55 Q40.3 60.7 39.0 59.0 L38.45 58.9 Q38.15 57.4 36.0 58.0 L36.0 59.0 36.0 60.0 Q37.7 61.3 37.1 65.0 L37.0 66.0 37.1 66.95 Q38.1 71.1 35.0 71.0 L34.85 71.55 Q31.3 72.7 30.0 71.0 29.5 71.0 29.4 70.8 29.0 70.0 29.0 69.0 L29.0 68.0 29.0 64.0 28.5 63.9 Q28.0 61.5 28.0 59.0 L28.0 58.0 28.0 57.0 28.0 56.0 28.0 54.0 27.0 54.1 Q23.3 54.7 22.0 53.0 L21.3 52.75 Q20.0 51.1 18.0 53.0 L17.75 53.75 16.0 55.0 16.0 56.0 16.0 57.0 17.0 57.0 18.0 57.0 20.0 57.0 21.0 57.0 Q22.65 56.9 22.1 59.05 L22.0 60.0 22.1 61.0 Q22.7 64.2 21.0 65.0 L21.0 65.5 14.0 65.0 13.0 65.0 7.0 65.0 6.9 65.55 Q4.3 66.2 4.0 64.0 L3.0 64.0 0.0 64.0 0.0 63.0 0.0 62.0 1.0 62.0 1.0 61.0 2.0 61.0 2.0 60.0 Q5.45 60.9 5.1 63.0 L5.0 64.0 Q5.5 64.5 6.1 64.8 L7.0 65.0 7.0 64.0 7.0 62.0 7.0 61.0 7.0 60.0 7.0 59.0 7.0 57.0 8.0 57.0 8.0 56.0 11.0 56.0 12.0 56.0 12.75 55.75 13.0 55.0 12.45 54.85 Q12.0 53.5 12.0 52.0 L13.0 52.0 13.0 51.0 13.0 48.0 14.0 48.0 14.0 47.0 14.75 46.75 15.0 46.0 15.0 45.5 Q12.35 45.65 13.0 43.0 L13.0 42.0 13.0 40.0 14.0 40.0 14.0 39.0 15.0 39.0 16.0 39.0 16.0 38.0 16.0 32.0 15.8 31.1 13.0 25.0 Q13.0 24.5 12.8 24.4 11.3 23.7 12.0 21.0 L13.0 21.0 13.0 20.0 16.0 20.0 17.0 20.0 Q20.95 19.95 21.85 16.95 L22.0 16.0 22.0 15.0 22.0 13.0 23.0 13.0 23.0 12.0 Q24.7 10.2 25.45 7.1 L26.0 7.0 26.0 6.0 27.0 6.0 28.0 6.0 28.0 5.0 29.1 4.2 30.0 4.0 30.0 3.0 30.0 2.0 Q31.0 1.5 32.05 1.15 L33.0 1.0 33.0 0.0 36.0 0.0 37.0 0.0 37.0 1.0 38.0 1.0 Q40.75 2.25 42.75 4.25 L43.0 5.0 48.0 5.0 49.0 5.0 Q53.65 6.35 57.8 8.4 58.0 8.5 58.0 9.0 L59.0 9.0 Q61.9 9.85 60.25 12.15 60.0 12.5 60.0 13.0 60.95 14.05 61.0 16.0 L61.0 17.0 M65.25 32.7 Q65.0 32.5 65.0 32.0 71.35 37.85 65.25 32.7 M45.25 81.75 L45.0 81.0 45.0 80.0 Q52.7 76.5 47.85 81.95 L46.0 82.0 45.25 81.75 M38.0 10.0 L37.45 9.85 Q37.0 8.5 37.0 7.0 L36.0 7.05 Q31.4 7.4 30.0 11.0 L30.0 12.0 31.1 12.8 32.0 13.0 34.0 13.0 35.0 13.0 Q37.7 13.2 37.95 11.0 L38.0 10.0" fill="#ff0000" fill-rule="evenodd" stroke="none"/>
  </g>
</svg>
