<?xml version="1.0" encoding="UTF-8" standalone="no"?>
<svg xmlns:xlink="http://www.w3.org/1999/xlink" height="119.0px" width="106.0px" xmlns="http://www.w3.org/2000/svg">
  <g transform="matrix(1.0, 0.0, 0.0, 1.0, -1.0, -1.0)">
    <path d="M92.0 11.0 Q95.1 11.9 96.75 14.2 L97.0 15.0 97.5 15.0 Q96.95 17.95 95.0 20.0 L94.75 20.75 94.0 21.0 94.0 22.0 93.75 22.85 92.0 25.0 Q91.4 27.15 92.9 27.5 L93.0 28.0 95.85 38.05 96.0 39.0 Q97.75 41.25 96.55 45.9 L96.0 46.0 96.0 47.0 96.1 48.0 Q96.7 51.7 95.0 53.0 L95.0 54.0 Q94.9 56.9 93.0 58.0 L93.0 59.0 92.8 59.9 Q91.8 61.8 90.0 63.0 L90.0 64.0 90.0 68.0 90.0 69.0 89.75 69.75 89.0 70.0 89.0 72.0 89.0 73.0 89.0 74.0 88.95 75.0 Q88.7 77.7 86.0 78.0 L86.05 79.0 Q86.15 80.65 84.0 80.0 L84.0 83.0 84.0 84.0 84.0 86.0 84.0 87.0 84.8 88.1 85.0 89.0 86.0 89.0 92.0 89.0 93.0 89.0 95.05 88.15 96.0 88.0 Q96.0 87.5 96.15 87.05 97.1 84.4 95.0 80.0 L96.0 80.0 96.0 79.0 99.9 79.45 100.0 80.0 Q101.7 80.3 100.6 82.8 L100.0 83.0 99.75 83.75 99.0 84.0 99.0 87.0 99.0 88.0 Q104.7 90.15 99.8 93.75 L99.0 94.0 99.0 95.0 99.1 95.95 Q99.95 99.4 97.0 99.0 L96.5 99.0 Q96.35 95.65 95.0 94.0 L94.1 93.8 Q93.5 93.5 93.0 93.0 L92.0 93.0 85.0 93.0 85.0 94.0 84.8 94.9 84.0 96.0 84.0 97.0 84.0 98.0 Q84.8 99.7 88.0 99.5 L88.0 100.0 90.0 100.0 91.0 100.0 Q94.7 99.3 96.25 100.75 L97.0 101.0 101.0 101.0 102.0 101.0 106.0 101.0 107.0 101.0 107.0 103.0 107.0 104.0 106.0 104.0 105.85 104.95 Q104.45 108.95 102.0 112.0 L101.8 112.9 101.0 114.0 101.0 115.0 100.95 115.5 93.0 116.0 92.0 116.1 Q88.3 116.7 87.0 115.0 L86.0 115.0 85.0 115.0 84.0 115.1 Q80.3 115.7 79.0 114.0 L78.0 114.0 77.45 113.85 Q77.0 112.5 77.0 111.0 79.75 109.75 80.5 106.1 L81.0 106.0 81.0 105.0 81.0 104.0 80.75 103.25 Q80.5 103.0 80.0 103.0 79.5 103.0 79.25 103.25 77.3 105.3 74.0 106.0 73.5 106.0 73.3 106.25 71.9 107.9 69.0 108.0 68.5 108.0 68.3 108.25 67.2 109.7 64.0 109.0 L63.9 109.55 60.0 110.0 60.0 111.0 60.0 112.0 60.8 113.1 61.0 114.0 Q62.35 115.65 61.55 118.9 L61.0 119.0 60.85 119.55 58.0 120.0 57.0 120.0 55.0 120.0 54.25 119.75 54.0 119.0 53.45 118.9 Q53.0 117.0 53.0 115.0 55.2 114.7 55.5 112.05 L56.0 112.0 56.0 111.0 56.0 110.0 55.0 110.1 Q51.3 110.7 50.0 109.0 L49.1 108.8 48.0 108.0 47.0 108.0 Q42.25 107.75 40.0 105.0 L39.05 104.85 37.0 104.0 Q36.5 104.0 36.4 103.8 35.7 102.3 34.0 102.0 L33.0 102.0 33.0 103.0 33.0 104.0 33.0 105.0 33.0 106.0 33.5 106.0 Q32.45 114.0 27.0 109.0 L26.9 108.45 Q25.4 108.15 26.0 106.0 L25.4 105.8 Q24.5 104.0 24.0 102.0 23.5 102.0 23.35 101.8 22.2 99.8 22.0 97.0 L23.0 97.0 23.0 96.0 Q23.5 95.5 24.1 95.2 L25.0 95.0 24.9 94.45 21.0 94.0 20.1 94.2 Q19.5 94.5 19.0 95.0 L19.1 96.0 Q19.7 98.7 18.0 99.0 L17.05 98.85 Q15.3 98.2 16.0 95.0 L15.15 94.75 13.0 93.0 13.0 92.0 13.0 89.0 14.0 89.0 14.0 88.0 Q16.5 88.0 15.5 83.0 L16.0 83.0 16.0 82.0 Q18.7 81.8 19.75 83.2 L20.0 84.0 20.1 84.95 Q20.65 87.15 19.0 87.0 L20.25 88.75 21.0 89.0 Q27.35 90.35 29.35 87.25 29.5 87.0 30.0 87.0 L30.0 86.0 30.75 85.75 31.0 85.0 31.0 84.0 34.3 80.25 Q34.5 80.0 35.0 80.0 L35.0 79.0 35.0 75.0 35.0 74.5 Q32.9 74.65 33.0 73.0 L32.25 72.75 30.0 70.0 30.0 69.0 29.45 68.9 Q29.15 67.4 27.0 68.0 L26.0 67.95 Q22.25 67.75 21.0 65.0 20.5 65.0 20.45 64.85 19.95 63.05 19.0 62.0 L18.0 61.95 Q15.8 61.7 16.0 59.0 L16.0 58.0 16.0 55.0 17.0 55.0 17.0 54.0 17.0 53.0 16.4 52.8 Q16.0 52.0 16.0 51.0 L15.0 51.0 14.0 51.0 13.0 51.0 13.0 52.0 13.0 53.0 12.8 53.9 11.0 57.0 10.8 57.9 10.0 59.0 10.0 60.0 9.9 61.0 Q9.05 66.55 6.0 65.0 L5.25 64.75 Q5.0 64.5 5.0 64.0 L4.1 63.8 Q3.5 63.5 3.0 63.0 L2.5 62.95 Q2.0 59.5 2.0 56.0 L2.0 55.0 1.25 54.75 Q1.0 54.5 1.0 54.0 L1.0 53.0 1.0 50.0 1.75 49.75 2.0 49.0 2.0 48.0 Q3.65 48.15 3.5 46.0 L4.0 46.0 4.0 45.0 Q9.6 46.1 9.5 41.0 L10.0 41.0 10.0 40.0 10.0 36.0 9.5 35.9 Q9.0 33.0 9.0 30.0 L10.0 30.0 10.0 29.0 Q12.7 29.2 13.75 27.8 L14.0 27.0 14.0 26.0 15.0 26.0 15.0 25.0 15.75 24.75 16.0 24.0 16.0 23.0 16.0 22.0 17.0 22.0 17.0 21.0 17.0 20.0 17.0 19.0 Q22.1 19.4 26.05 20.85 L27.0 21.0 27.0 20.0 Q27.5 19.5 28.1 19.2 L29.0 19.0 29.0 18.0 Q30.7 17.7 31.4 16.2 L32.0 16.0 32.0 15.0 36.15 12.2 37.0 12.0 37.0 11.0 38.0 11.0 38.0 10.0 39.0 10.0 40.0 10.0 40.0 9.0 48.0 7.1 49.0 7.0 49.0 6.0 52.0 6.0 53.0 6.0 53.0 5.0 63.95 5.5 64.0 6.0 65.0 6.0 Q67.7 5.8 69.15 6.75 L70.0 7.0 75.0 7.0 76.0 7.0 76.0 6.0 76.0 4.0 77.0 4.0 77.0 3.0 78.75 1.75 79.0 1.0 80.8 1.4 81.0 2.0 Q84.1 2.9 85.75 5.2 L86.0 6.0 Q89.6 7.4 91.75 10.2 L92.0 11.0" fill="#ff0000" fill-rule="evenodd" stroke="none"/>
  </g>
</svg>
