<?xml version="1.0" encoding="UTF-8" standalone="no"?>
<svg xmlns:xlink="http://www.w3.org/1999/xlink" height="162.95px" width="112.0px" xmlns="http://www.w3.org/2000/svg">
  <g transform="matrix(1.0, 0.0, 0.0, 1.0, 0.0, 5.45)">
    <path d="M107.0 14.0 L107.0 26.0 107.0 27.0 107.5 27.0 Q103.0 35.05 96.0 46.0 L96.15 46.95 Q103.35 71.2 90.0 88.0 L90.05 89.0 Q91.45 97.95 88.0 102.0 L87.1 102.2 86.0 103.0 Q95.05 107.65 101.4 95.2 101.5 95.0 102.0 95.0 111.25 101.05 111.5 112.0 L112.0 112.0 112.0 113.0 112.0 128.0 112.0 129.0 111.0 129.0 110.75 129.7 Q101.3 137.2 94.0 129.0 94.0 128.5 94.25 128.15 103.95 114.9 91.0 113.0 L91.0 114.0 90.8 114.9 Q82.85 130.85 70.0 142.0 L69.0 142.1 Q61.3 143.75 56.0 144.0 L56.05 144.5 Q62.7 145.3 61.0 154.0 L60.75 154.65 Q52.65 160.2 44.0 155.0 L44.1 154.0 Q45.8 144.85 49.0 142.0 L48.05 141.85 Q38.75 138.25 35.0 129.0 L34.0 128.9 Q22.4 126.6 22.0 113.0 21.5 113.0 21.3 113.25 17.0 118.15 13.0 116.0 13.0 116.5 13.25 116.85 24.3 132.75 8.0 136.0 L7.1 135.8 Q3.95 134.05 0.0 133.0 L0.0 132.0 0.0 127.0 0.0 126.0 0.0 111.0 1.0 111.0 1.0 110.0 1.0 108.0 Q2.95 107.95 3.75 106.85 L4.0 106.0 4.0 105.0 4.0 100.0 Q7.85 96.75 13.8 99.4 L14.0 100.0 Q20.35 110.6 26.5 100.0 L26.0 100.0 25.05 99.85 Q17.45 97.55 10.0 90.0 L9.9 89.05 Q8.75 84.25 9.0 78.0 L10.0 78.0 10.0 77.0 10.0 69.0 11.2 68.85 Q8.05 66.65 6.95 61.75 L6.35 56.85 Q6.15 52.6 7.0 47.0 13.0 43.5 18.2 39.25 18.5 39.0 19.0 39.0 L19.0 38.0 Q25.65 34.65 25.95 30.0 L26.0 29.0 25.4 28.8 Q25.0 28.0 25.0 27.0 L24.5 26.9 Q23.9 23.75 22.0 27.0 L22.0 27.5 Q11.2 23.8 10.0 10.0 16.35 11.3 22.4 0.2 L23.0 0.0 23.0 -1.0 Q30.4 -13.25 36.85 8.05 L37.0 9.0 33.15 22.05 Q33.0 22.5 33.0 23.0 L33.8 24.1 34.0 25.0 Q40.4 22.9 48.0 22.05 L49.0 22.0 49.0 21.0 Q51.3 6.2 65.0 8.9 L66.0 9.0 Q70.8 14.2 77.1 17.8 L78.0 18.0 79.0 18.0 80.0 18.0 80.0 17.0 Q80.35 10.15 77.0 7.0 L78.0 7.0 Q86.35 1.4 91.85 3.45 L92.0 4.0 Q84.45 6.75 91.75 14.25 L92.0 15.0 92.0 15.95 Q92.0 15.5 92.25 15.35 104.8 7.45 92.0 3.0 L92.0 2.0 92.0 0.0 101.0 0.0 102.0 0.0 Q107.5 3.85 108.6 7.4 109.55 10.4 107.25 13.2 107.0 13.5 107.0 14.0 M92.0 44.15 L92.0 68.45 Q95.05 59.75 92.1 45.0 L92.0 44.15 M12.35 69.55 L12.45 69.9 13.0 70.0 13.5 70.0 12.35 69.55" fill="#ff0000" fill-rule="evenodd" stroke="none"/>
  </g>
</svg>
