<?xml version="1.0" encoding="UTF-8" standalone="no"?>
<svg xmlns:xlink="http://www.w3.org/1999/xlink" height="87.45px" width="74.35px" xmlns="http://www.w3.org/2000/svg">
  <g transform="matrix(1.0, 0.0, 0.0, 1.0, 0.0, 21.45)">
    <path d="M19.95 -14.45 L19.95 -15.45 Q25.25 -20.65 34.95 -21.4 L35.95 -21.45 Q46.25 -20.25 50.7 -13.3 L50.95 -12.45 50.9 -11.45 Q50.55 -6.35 48.95 -2.45 L48.95 -1.45 51.55 -1.05 51.55 -0.45 52.0 -0.45 53.0 -0.45 Q55.0 1.05 57.15 2.35 L58.0 2.55 59.0 2.55 Q62.95 2.1 64.75 3.8 L65.0 4.55 Q66.7 5.85 66.1 9.55 L66.0 10.55 66.05 11.55 Q67.1 19.45 65.4 24.55 L65.95 24.55 66.35 24.55 66.35 49.95 74.35 49.95 74.35 52.65 74.1 52.75 71.55 53.75 71.0 54.0 Q72.7 55.15 72.5 58.55 L73.0 58.55 73.0 59.55 73.05 60.55 Q74.05 67.6 66.0 65.55 L65.0 65.55 57.0 65.55 56.85 65.0 Q52.3 63.25 51.0 58.55 L58.0 58.55 59.0 58.55 59.9 58.55 69.0 58.55 70.0 58.55 70.0 57.55 70.0 54.4 69.85 54.45 69.85 55.45 69.85 56.45 69.85 57.45 69.85 58.45 68.85 58.45 66.85 58.45 65.85 58.45 64.85 58.45 63.85 58.45 50.85 58.45 50.85 57.45 50.85 55.45 Q53.3 52.9 56.05 50.7 L56.3 50.55 55.1 50.55 Q49.95 52.3 44.85 54.45 L44.85 53.45 44.85 53.1 Q43.1 55.5 40.0 56.55 L39.8 57.2 Q37.8 58.35 35.0 58.55 L34.95 59.55 Q34.7 61.25 33.0 61.55 L32.05 61.4 Q22.7 57.75 12.4 50.55 L9.95 50.55 9.0 50.65 Q2.2 52.3 2.95 46.55 L2.95 45.55 2.95 44.55 2.95 28.55 2.95 27.55 2.95 24.55 4.0 24.55 Q0.9 24.15 0.0 21.55 L0.0 20.55 0.0 14.55 0.0 13.55 Q1.0 13.05 2.05 12.7 L3.0 12.55 3.0 11.55 3.0 10.55 4.0 10.55 4.0 9.55 4.0 8.55 8.15 5.75 9.0 5.55 9.0 4.55 9.0 3.55 10.0 3.55 10.0 2.55 10.0 1.55 13.0 1.55 14.0 1.55 Q17.4 -0.55 17.95 2.0 L17.95 -0.45 Q20.1 0.15 20.4 -1.35 L20.95 -1.45 20.7 -2.3 Q19.6 -4.1 19.95 -7.45 L19.95 -8.45 19.95 -14.45" fill="#fe0303" fill-opacity="0.99215686" fill-rule="evenodd" stroke="none"/>
  </g>
</svg>
