<?xml version="1.0" encoding="UTF-8" standalone="no"?>
<svg xmlns:xlink="http://www.w3.org/1999/xlink" height="114.0px" width="102.0px" xmlns="http://www.w3.org/2000/svg">
  <g transform="matrix(1.0, 0.0, 0.0, 1.0, 0.0, 0.0)">
    <path d="M82.0 36.0 L82.95 52.0 83.0 53.0 82.85 53.95 Q81.2 59.7 79.0 65.0 L79.0 66.0 79.0 67.0 Q82.9 71.1 87.75 74.35 L88.0 75.0 Q91.45 75.55 91.95 79.0 L92.0 80.0 Q93.7 81.65 94.4 80.2 L95.0 80.0 Q97.65 77.65 101.1 76.2 L102.0 76.0 102.0 77.0 Q101.5 77.0 101.45 77.15 99.85 81.85 95.0 83.0 95.1 85.9 96.75 87.3 L97.0 88.0 Q97.5 90.0 98.65 91.5 99.9 93.1 98.75 95.35 93.15 106.4 82.0 98.0 81.5 98.0 81.35 98.2 78.9 102.4 73.0 103.0 L72.75 103.75 64.0 113.0 64.0 114.0 63.0 114.0 60.0 114.0 59.85 113.45 Q52.45 111.05 46.0 108.0 L45.0 107.95 35.0 107.0 Q34.5 107.0 34.35 107.25 30.45 112.95 24.0 111.0 23.0 111.0 22.45 110.5 18.65 106.85 16.15 101.4 14.45 97.65 6.0 101.0 L6.0 101.5 Q2.65 101.35 0.0 100.0 L0.0 99.0 0.0 94.0 Q3.85 90.05 1.5 84.0 L2.0 84.0 2.0 83.0 Q3.9 81.9 4.0 79.0 L4.0 78.0 4.0 77.0 4.0 68.0 5.8 68.4 6.0 69.0 Q5.65 72.35 6.75 74.15 L7.0 75.0 Q11.0 64.5 17.3 56.25 17.5 56.0 18.0 56.0 L18.0 55.0 18.0 45.0 19.0 45.0 18.8 44.1 Q16.25 38.25 13.0 33.0 19.4 29.9 24.05 37.05 L25.9 36.6 Q26.5 36.5 27.0 36.0 29.9 26.4 34.4 17.75 35.15 16.4 35.0 18.0 38.15 16.9 36.45 6.9 35.5 1.4 44.0 0.0 L46.0 0.0 47.0 0.0 47.95 8.0 48.0 9.0 48.75 9.25 49.0 10.0 Q54.7 10.75 53.2 14.1 L53.0 15.0 Q54.2 16.45 53.5 19.0 L54.0 19.0 57.1 17.2 58.0 17.0 58.0 16.0 58.0 15.0 58.0 11.0 Q63.15 1.6 65.2 10.2 66.15 14.15 65.0 17.0 L65.0 18.0 Q78.8 21.2 81.5 35.9 L82.0 36.0" fill="#ff0000" fill-opacity="0.99215686" fill-rule="evenodd" stroke="none"/>
  </g>
</svg>
