<?xml version="1.0" encoding="UTF-8" standalone="no"?>
<svg xmlns:xlink="http://www.w3.org/1999/xlink" height="138.95px" width="136.5px" xmlns="http://www.w3.org/2000/svg">
  <g transform="matrix(1.0, 0.0, 0.0, 1.0, -1.0, -1.0)">
    <path d="M90.8 15.3 Q99.7 26.2 101.0 35.0 108.55 48.2 117.25 50.6 L122.1 51.55 Q123.85 52.0 123.85 54.0 123.85 54.8 123.55 54.85 L122.95 55.0 Q122.0 55.8 122.0 63.0 122.0 70.4 122.6 72.4 L123.2 74.4 Q123.2 76.5 121.55 77.8 L119.0 80.0 Q123.95 85.35 126.85 88.1 L129.0 90.0 Q133.3 90.0 133.3 97.35 133.3 98.3 134.2 103.5 135.1 108.75 135.1 110.95 135.1 114.3 133.3 116.0 132.1 117.15 128.0 119.0 128.55 121.05 132.45 126.75 136.3 132.3 137.5 133.0 136.6 136.15 135.3 137.55 133.8 139.2 131.1 139.2 128.7 139.2 123.3 136.4 117.9 133.55 111.85 133.55 106.6 133.55 104.2 135.9 101.75 138.25 96.3 138.25 95.05 138.25 92.15 135.15 89.2 132.0 87.0 132.0 83.85 133.65 82.0 133.65 78.15 133.65 69.9 130.4 L61.45 127.1 Q60.05 127.1 55.2 133.55 50.3 139.95 46.6 139.95 44.3 139.95 42.15 138.15 40.2 136.55 39.0 134.0 40.0 133.5 41.0 132.5 38.35 133.5 34.1 133.95 L28.2 134.3 Q22.0 134.3 18.0 136.85 13.95 139.4 10.2 139.4 7.1 139.4 6.7 138.45 5.95 136.75 1.0 135.0 L4.1 132.7 Q6.8 130.4 7.0 129.0 9.7 128.95 11.0 127.55 12.0 126.5 12.0 125.05 12.0 123.85 10.85 123.0 10.95 122.65 12.0 121.5 13.0 120.45 13.0 120.0 13.0 117.95 11.75 117.65 L9.25 117.45 Q6.05 116.3 8.0 103.0 L9.0 103.0 Q9.05 101.85 7.65 97.35 L6.0 92.0 Q9.5 91.35 11.45 90.0 13.45 88.7 13.45 87.05 13.45 86.15 11.4 83.6 9.2 80.9 9.0 80.0 11.05 77.65 14.5 75.95 17.9 74.25 21.0 74.0 L21.0 72.0 23.0 52.0 22.15 51.1 Q21.25 50.0 21.0 48.6 L21.0 46.8 Q25.5 46.9 31.25 45.4 L39.0 43.0 Q38.8 40.4 40.35 38.25 42.0 36.45 42.0 36.0 43.15 36.15 44.45 35.35 46.0 34.45 46.0 33.0 L45.5 32.0 Q45.0 31.5 45.0 31.0 45.0 28.1 46.8 26.35 48.05 25.1 51.25 23.75 59.55 20.15 62.6 16.05 L65.4 10.65 Q66.95 7.25 68.75 6.0 69.85 5.25 70.35 3.6 L71.0 1.0 73.6 1.0 Q82.0 4.55 90.8 15.3" fill="#ff0000" fill-opacity="0.8156863" fill-rule="evenodd" stroke="none"/>
  </g>
</svg>
