<?xml version="1.0" encoding="UTF-8" standalone="no"?>
<svg xmlns:xlink="http://www.w3.org/1999/xlink" height="72.0px" width="63.0px" xmlns="http://www.w3.org/2000/svg">
  <g transform="matrix(1.0, 0.0, 0.0, 1.0, -1.0, 0.0)">
    <path d="M42.0 17.0 Q42.65 25.85 44.85 33.05 L45.0 34.0 Q51.4 35.6 52.9 42.05 L53.0 43.0 Q53.5 43.0 53.55 43.15 54.75 47.25 52.0 48.0 L52.0 49.0 52.0 50.0 51.75 50.75 Q45.95 57.1 40.0 51.0 L39.2 51.25 Q37.05 53.05 36.0 56.0 36.0 57.5 36.75 58.3 37.7 59.3 36.0 61.05 29.2 68.0 27.0 59.0 28.65 59.15 28.1 56.95 L28.0 56.0 Q28.0 55.5 27.8 55.4 L26.0 55.0 25.4 55.2 Q24.7 56.7 23.0 57.0 L23.0 58.0 22.85 58.95 Q22.0 61.35 21.0 59.0 L20.75 58.3 Q19.3 57.2 20.0 54.0 L19.0 54.0 18.0 54.0 17.65 55.85 Q16.9 57.55 14.3 57.9 0.9 59.9 2.0 50.0 L1.45 49.9 Q1.0 48.0 1.0 46.0 L2.0 46.0 3.0 46.0 4.0 46.0 5.0 46.0 6.0 46.0 6.0 45.0 6.0 43.0 7.0 43.0 7.0 42.0 Q9.2 41.7 9.5 39.05 L10.0 39.0 9.75 38.25 Q7.75 36.25 8.0 32.0 L8.75 31.75 9.0 31.0 9.05 30.0 Q9.15 28.4 7.0 29.0 L6.45 28.85 Q6.0 27.5 6.0 26.0 L7.0 26.0 7.0 25.0 7.0 20.0 6.15 20.25 Q4.95 20.95 3.0 21.0 L2.75 21.8 Q0.8 24.15 1.0 21.0 L2.0 21.0 1.95 20.0 Q1.0 13.5 1.0 6.0 3.45 1.25 5.8 5.15 L6.0 6.0 Q7.7 6.3 8.4 7.8 8.5 8.0 9.0 8.0 11.15 8.65 11.45 7.1 L12.0 7.0 12.0 6.0 Q14.15 6.65 14.45 5.1 L15.0 5.0 15.0 4.0 16.0 4.0 Q18.75 1.75 22.85 0.55 L23.0 0.0 24.0 0.0 25.0 0.0 Q28.95 2.05 34.0 2.9 L35.0 3.0 Q40.55 5.45 41.9 12.0 L42.0 13.0 Q43.7 13.8 42.55 16.85 L42.0 17.0 M21.0 65.0 L21.0 66.0 24.9 66.45 25.0 67.0 Q30.6 66.9 31.5 71.0 L31.0 71.0 31.0 72.0 30.0 72.0 24.0 72.0 24.0 71.0 23.0 71.05 Q18.8 71.7 19.0 68.0 L19.0 67.0 19.0 65.0 18.0 65.0 17.8 65.6 Q15.35 66.65 16.0 64.0 L17.0 64.0 Q19.35 61.9 20.75 64.15 L21.0 65.0 M8.0 61.0 Q11.25 63.7 8.25 61.65 8.0 61.5 8.0 61.0 M63.0 59.0 L64.0 59.0 64.0 61.0 64.0 62.0 64.0 63.0 64.0 64.0 63.0 64.0 62.0 64.0 61.85 64.55 59.0 65.0 58.75 65.7 Q50.9 72.2 41.0 68.0 L40.5 68.0 Q40.7 62.95 40.0 60.0 41.0 59.5 42.05 59.15 L43.0 59.0 43.0 58.0 45.0 58.0 46.0 58.0 Q49.2 59.3 54.0 59.05 L55.0 59.0 55.0 58.0 57.0 58.0 58.0 58.0 Q61.2 57.3 62.3 58.75 L63.0 59.0" fill="#ff0000" fill-rule="evenodd" stroke="none"/>
  </g>
</svg>
