<?xml version="1.0" encoding="UTF-8" standalone="no"?>
<svg xmlns:xlink="http://www.w3.org/1999/xlink" height="90.0px" width="57.0px" xmlns="http://www.w3.org/2000/svg">
  <g transform="matrix(1.0, 0.0, 0.0, 1.0, 0.0, 0.0)">
    <path d="M53.0 3.0 Q54.7 3.8 54.1 7.0 L54.0 8.0 Q55.65 9.7 54.2 10.4 L54.0 11.0 54.0 18.0 54.0 19.0 54.1 20.0 Q54.7 23.2 53.0 24.0 L53.0 25.0 53.0 30.0 53.0 31.0 53.0 32.0 54.8 35.1 55.0 36.0 55.0 38.0 55.0 39.0 55.0 41.0 55.0 42.0 55.1 42.95 Q55.65 45.15 54.0 45.0 L54.0 56.0 54.0 57.0 Q55.65 56.9 55.1 59.05 L55.0 60.0 Q57.05 62.95 57.0 68.0 L57.0 69.0 57.0 72.0 57.0 73.0 57.0 77.0 57.0 78.0 57.0 80.0 57.0 81.0 56.8 81.9 Q51.7 90.85 48.0 81.0 L48.0 80.0 48.0 79.0 48.0 75.0 48.0 74.0 48.0 73.0 48.0 70.0 47.8 69.1 47.0 68.0 46.05 68.1 Q40.4 69.4 38.0 74.0 L38.0 79.0 38.0 80.0 Q39.7 80.8 38.55 83.85 L38.0 84.0 38.0 84.5 Q36.7 83.8 34.0 84.0 L33.45 83.9 Q33.0 82.0 33.0 80.0 L34.0 80.0 34.0 79.0 34.0 75.0 Q34.0 74.5 33.8 74.4 32.3 73.7 33.0 71.0 L32.0 71.0 28.0 71.0 28.1 71.95 Q28.65 74.15 27.0 74.0 L27.0 75.0 Q26.25 80.25 27.8 83.1 L28.0 84.0 28.05 85.0 Q28.55 88.55 26.0 89.0 L26.0 90.0 25.0 90.0 20.0 90.0 20.0 89.0 19.25 88.75 Q17.55 86.95 18.0 83.0 19.65 83.15 19.1 80.95 L19.0 80.0 18.0 80.0 17.75 80.75 17.0 81.0 Q16.5 81.0 16.35 81.25 15.0 83.35 14.0 81.0 L13.0 81.0 12.45 80.9 Q12.0 79.0 12.0 77.0 L13.0 77.0 13.0 76.0 13.0 75.0 13.0 71.0 12.0 71.0 11.0 71.1 Q7.8 71.7 7.0 70.0 L6.45 69.9 Q6.0 68.0 6.0 66.0 L7.0 66.0 7.0 65.0 7.0 61.0 6.9 60.45 Q5.4 60.15 6.0 58.0 L6.0 57.0 6.0 56.0 6.0 53.0 5.1 52.8 4.0 52.0 3.25 51.75 Q1.25 49.75 0.0 47.0 L0.0 46.0 0.0 45.0 1.0 45.0 1.0 44.0 1.0 39.0 1.0 38.0 1.0 35.0 2.0 35.0 2.0 34.0 2.0 33.0 2.0 31.0 3.0 31.0 3.0 30.0 3.0 27.0 Q4.4 22.9 7.25 20.25 7.5 20.0 8.0 20.0 L8.0 19.0 12.0 19.0 13.0 19.0 13.0 18.0 13.0 15.0 14.0 15.0 14.0 14.0 Q15.95 14.05 17.15 14.75 L18.0 15.0 21.0 15.0 22.0 15.0 Q24.15 15.65 24.45 14.1 L25.0 14.0 25.0 13.0 25.75 12.75 26.0 12.0 Q25.5 12.0 25.3 11.75 23.0 9.0 21.0 6.0 L20.25 5.75 Q20.0 5.5 20.0 5.0 22.35 2.3 26.05 1.15 L27.0 1.0 27.0 0.0 29.0 0.0 30.0 0.0 32.0 0.0 33.0 0.0 33.0 1.0 36.9 1.45 37.0 2.0 Q38.95 2.05 39.75 3.15 L40.0 4.0 40.8 5.1 41.0 6.0 Q42.0 5.5 43.05 5.15 L44.0 5.0 44.0 4.0 Q45.65 2.65 49.0 2.95 L50.0 3.0 50.0 2.0 52.85 2.45 53.0 3.0 M48.0 8.0 L47.0 8.0 Q45.05 8.05 44.0 9.0 L44.0 16.0 44.0 17.0 44.8 18.1 45.0 19.0 46.0 19.0 47.0 19.0 Q49.9 19.4 49.5 16.0 L50.0 16.0 50.0 15.0 50.0 14.0 49.95 13.0 Q49.7 9.8 48.0 8.0" fill="#ff0000" fill-rule="evenodd" stroke="none"/>
  </g>
</svg>
