<?xml version="1.0" encoding="UTF-8" standalone="no"?>
<svg xmlns:xlink="http://www.w3.org/1999/xlink" height="48.2px" width="75.0px" xmlns="http://www.w3.org/2000/svg">
  <g transform="matrix(1.0, 0.0, 0.0, 1.0, -1.0, -1.0)">
    <path d="M62.0 14.95 L61.1 12.95 61.0 12.0 Q65.9 13.3 71.45 21.7 74.2 25.95 76.0 30.0 76.0 32.6 72.1 33.05 L67.0 33.0 Q64.2 33.0 60.0 36.95 55.9 40.8 52.0 40.55 45.95 42.0 43.55 45.9 L41.8 48.25 Q40.6 49.2 38.25 49.2 33.5 49.2 31.9 46.75 29.25 42.65 26.6 40.95 23.95 39.25 16.75 36.0 L9.85 33.0 8.95 33.5 Q8.5 34.0 8.0 34.0 L4.45 32.9 Q1.0 31.5 1.0 30.0 1.0 28.05 6.25 21.55 9.5 17.5 12.2 15.45 13.1 14.75 13.95 14.3 15.0 13.7 16.0 13.5 15.65 14.9 16.5 15.65 17.15 16.25 18.0 16.25 19.45 16.25 19.45 15.8 19.2 15.05 19.25 14.45 19.5 11.9 28.4 9.3 30.6 8.65 34.1 4.7 37.4 1.0 38.0 1.0 44.95 1.0 46.05 4.2 L46.4 6.85 Q46.45 8.4 47.0 9.0 49.5 9.05 54.45 12.45 L59.0 15.85 Q59.4 15.85 60.0 16.4 60.7 16.95 61.45 17.05 62.35 16.05 62.0 14.95" fill="#ff0000" fill-opacity="0.9019608" fill-rule="evenodd" stroke="none"/>
  </g>
</svg>
