<?xml version="1.0" encoding="UTF-8" standalone="no"?>
<svg xmlns:xlink="http://www.w3.org/1999/xlink" height="130.0px" width="74.95px" xmlns="http://www.w3.org/2000/svg">
  <g transform="matrix(1.0, 0.0, 0.0, 1.0, 0.0, 0.0)">
    <path d="M43.0 19.0 Q44.5 18.0 46.1 17.2 L47.0 17.0 47.0 16.0 Q53.9 15.6 54.0 22.0 L54.0 23.0 55.0 23.0 Q65.2 21.55 64.05 35.0 L64.0 36.0 64.0 41.0 64.0 42.0 64.0 48.0 64.0 49.0 64.0 55.0 64.0 56.0 64.0 61.0 64.0 62.0 64.0 74.0 64.0 75.0 64.05 76.0 Q64.75 82.25 63.0 86.0 L63.0 97.0 63.0 98.0 Q66.65 95.8 66.95 99.0 L67.0 100.0 68.1 101.65 Q69.15 103.6 69.0 105.65 68.8 107.85 67.25 110.15 67.0 110.5 67.0 111.0 L73.15 114.75 74.0 115.0 Q75.7 115.3 74.3 117.55 67.85 127.85 53.0 130.0 51.0 128.5 48.95 128.4 29.65 127.35 16.0 122.0 L15.0 121.95 Q13.3 121.7 13.0 120.0 L12.15 119.8 Q8.75 117.75 8.0 113.0 L8.0 112.0 8.0 108.0 8.0 107.0 7.15 106.75 Q3.95 104.55 0.0 103.0 L0.0 102.0 0.0 97.0 Q3.0 95.5 6.1 94.2 L7.0 94.0 7.0 93.0 8.0 93.0 8.0 92.0 8.8 90.9 9.0 90.0 8.0 89.95 Q4.25 89.75 4.0 81.0 L5.0 81.0 5.0 80.0 5.0 79.0 5.0 78.0 Q8.45 76.45 8.95 72.0 L9.0 71.0 8.5 70.95 Q8.0 66.5 8.0 62.0 L8.0 61.0 8.0 56.0 7.5 55.95 Q7.0 50.5 7.0 45.0 L7.0 44.0 7.0 38.0 6.5 37.95 Q6.0 33.0 6.0 28.0 L6.0 27.0 6.0 12.0 5.8 11.1 Q4.2 8.3 4.0 4.0 L5.0 4.0 5.0 3.0 7.05 2.15 8.0 2.0 Q10.7 2.7 11.4 1.2 11.5 1.0 12.0 1.0 L12.75 0.75 13.0 0.0 14.0 0.0 Q18.0 0.5 18.9 4.05 L19.0 5.0 Q21.2 4.2 24.0 4.05 L25.0 4.0 Q29.6 5.9 29.95 12.0 L30.0 13.0 31.0 13.0 32.0 13.0 32.0 12.0 Q39.15 10.35 39.0 16.0 L39.0 17.0 Q40.0 18.5 42.0 18.9 L43.0 19.0 M15.0 21.5 L15.0 14.0 14.0 14.1 10.0 15.0 10.0 33.0 10.0 34.0 14.75 29.75 15.0 29.05 15.0 29.0 15.0 28.0 15.0 21.5" fill="#fe0404" fill-opacity="0.98039216" fill-rule="evenodd" stroke="none"/>
  </g>
</svg>
