<?xml version="1.0" encoding="UTF-8" standalone="no"?>
<svg xmlns:xlink="http://www.w3.org/1999/xlink" height="38.0px" width="49.0px" xmlns="http://www.w3.org/2000/svg">
  <g transform="matrix(1.0, 0.0, 0.0, 1.0, -1.0, 0.0)">
    <path d="M48.1 20.0 L47.0 21.0 Q47.9 21.95 49.0 25.35 50.0 28.45 50.0 29.5 48.7 30.05 44.85 29.1 L41.0 28.0 Q40.85 29.7 37.4 33.9 34.0 38.0 33.0 38.0 31.5 38.0 30.0 37.05 28.3 35.9 28.05 35.85 23.55 34.7 12.35 27.9 L1.5 21.0 1.0 15.0 1.0 6.0 2.0 6.0 Q1.2 4.4 2.65 2.15 4.1 0.0 5.5 0.0 7.65 0.0 10.6 0.8 14.8 2.0 15.0 4.0 L20.0 3.0 Q20.7 3.0 23.35 5.6 26.9 9.05 33.65 12.0 39.25 14.55 46.05 17.05 48.7 18.0 48.7 18.95 L48.1 20.0" fill="#ff0404" fill-opacity="0.99607843" fill-rule="evenodd" stroke="none"/>
  </g>
</svg>
