<?xml version="1.0" encoding="UTF-8" standalone="no"?>
<svg xmlns:xlink="http://www.w3.org/1999/xlink" height="136.45px" width="100.0px" xmlns="http://www.w3.org/2000/svg">
  <g transform="matrix(1.0, 0.0, 0.0, 1.0, -1.0, -1.55)">
    <path d="M89.0 40.0 Q84.75 51.9 88.85 63.05 L89.0 64.0 87.1 71.05 87.0 72.0 87.0 89.0 87.0 90.0 86.8 90.9 Q84.35 95.85 78.0 97.0 84.4 106.05 93.0 107.9 L94.0 108.0 Q98.35 96.1 100.85 104.05 L101.0 105.0 Q93.6 107.55 100.75 112.35 L101.0 113.0 100.95 113.5 Q94.45 114.5 89.0 119.0 L88.85 119.95 Q85.45 129.45 83.0 123.0 83.0 122.5 83.2 122.35 90.65 117.9 83.0 113.0 L83.2 112.1 Q85.35 107.7 76.0 101.0 L75.5 101.1 Q74.6 106.1 73.0 110.0 L72.2 110.25 Q66.85 114.85 58.0 116.0 L57.0 116.0 54.0 116.0 Q52.65 125.85 56.3 130.75 L57.0 131.0 57.0 130.5 Q69.5 137.85 50.0 136.0 L49.0 136.05 Q44.65 136.65 41.0 138.0 L40.4 137.8 Q38.45 133.15 40.0 129.0 L40.0 128.5 Q50.9 135.2 49.0 120.0 L48.75 119.2 Q44.35 114.15 35.0 114.0 L34.85 113.45 Q29.05 111.45 28.0 105.0 L27.75 104.25 Q25.05 101.7 20.0 107.0 L20.0 108.0 Q20.15 112.6 16.25 116.75 21.2 122.35 16.0 126.0 L15.8 125.1 Q11.15 114.85 2.0 113.0 L1.5 113.0 Q9.55 108.8 1.0 101.0 7.7 103.8 13.15 107.75 L14.0 108.0 Q17.95 102.45 23.75 98.65 L24.0 98.0 Q23.35 90.35 23.5 77.0 L23.0 77.0 22.15 76.75 Q17.5 73.5 14.0 69.0 L14.0 68.0 Q13.15 38.8 9.0 16.0 L8.05 15.9 Q4.55 14.95 3.0 12.0 L2.8 11.4 Q1.3 10.7 2.0 8.0 8.6 0.1 20.0 1.9 L21.0 2.0 Q26.8 1.2 29.25 3.75 L30.0 4.0 Q37.55 5.65 34.55 12.8 34.5 13.0 34.0 13.0 34.0 13.5 33.8 13.6 27.8 16.8 26.0 24.0 34.25 27.6 40.35 19.25 40.5 19.0 41.0 19.0 L41.0 18.0 Q54.3 14.9 63.8 20.35 L64.0 21.0 Q65.55 22.95 67.75 24.35 L68.0 25.0 Q75.45 26.05 80.2 29.75 L81.0 30.0 Q86.7 32.8 88.45 39.9 L89.0 40.0" fill="#ff0000" fill-rule="evenodd" stroke="none"/>
  </g>
</svg>
