<?xml version="1.0" encoding="UTF-8" standalone="no"?>
<svg xmlns:xlink="http://www.w3.org/1999/xlink" height="200.55px" width="116.25px" xmlns="http://www.w3.org/2000/svg">
  <g transform="matrix(1.0, 0.0, 0.0, 1.0, -0.75, 0.0)">
    <path d="M117.0 22.0 Q116.5 22.0 116.35 22.2 110.5 31.7 97.0 18.0 L96.75 18.8 Q87.75 29.25 81.0 42.0 L81.1 43.0 Q83.65 57.05 79.0 67.0 L79.0 68.0 79.0 69.0 Q86.35 72.15 89.8 79.1 L90.0 80.0 Q90.65 101.7 92.95 125.0 L93.0 126.0 93.05 127.0 Q95.1 143.55 84.0 137.0 L83.5 136.95 Q81.75 124.75 78.0 138.0 81.15 145.25 91.0 142.5 L91.0 143.0 91.2 143.9 Q94.65 150.4 87.0 155.0 L87.1 156.0 Q87.9 159.6 97.0 160.0 L96.75 160.75 Q84.55 171.85 75.0 165.0 84.8 163.9 78.7 156.25 78.5 156.0 78.0 156.0 L77.75 156.75 77.0 157.0 76.75 157.75 Q69.7 164.2 58.0 166.0 L57.0 166.0 Q41.35 165.65 31.0 160.0 L30.1 159.8 Q21.2 155.35 17.0 167.0 L17.0 169.0 17.0 170.0 Q17.5 170.0 17.65 170.25 23.1 178.4 36.0 179.0 L36.8 178.75 Q45.05 171.25 44.0 181.0 L43.0 181.1 Q35.9 182.25 45.0 189.0 L44.05 188.85 Q38.0 187.05 29.0 186.0 L28.2 186.25 Q19.85 193.4 23.0 184.0 L23.95 183.85 Q25.75 183.1 16.0 170.0 L15.15 169.75 Q9.2 165.8 4.0 164.0 L3.5 164.0 Q11.55 159.8 3.0 152.0 9.95 151.15 12.45 159.85 L13.0 160.0 Q17.3 155.65 20.85 154.35 L26.25 149.25 Q26.5 149.0 27.0 149.0 22.05 136.95 22.0 126.0 L22.0 125.0 21.3 124.75 Q17.0 120.0 15.0 113.0 L15.05 112.0 15.15 111.2 15.2 110.7 15.25 109.9 Q16.85 91.55 9.0 80.0 L8.1 79.8 Q-0.6 76.1 1.0 62.0 8.25 47.0 26.05 51.85 L27.0 52.0 Q33.25 58.05 30.55 68.9 L30.0 69.0 Q30.55 74.25 34.25 70.25 34.5 70.0 35.0 70.0 51.45 68.95 55.85 55.95 L56.0 55.0 55.9 54.05 Q54.95 50.05 55.0 45.0 62.15 43.35 59.25 40.7 59.0 40.5 59.0 40.0 L58.05 40.2 Q41.2 47.1 27.0 47.0 L26.5 47.0 Q26.15 39.9 33.0 40.0 L33.95 40.15 Q43.95 43.25 56.0 34.0 L55.75 33.15 Q48.4 22.1 38.0 14.0 L37.95 15.0 Q36.6 26.6 30.0 33.0 L29.05 32.9 Q22.8 31.2 24.0 22.0 25.8 9.3 31.75 0.85 L32.0 0.0 34.0 0.0 35.0 0.0 Q36.0 1.5 37.8 2.4 L38.0 3.0 Q50.6 21.35 63.15 29.75 L64.0 30.0 64.0 29.0 64.0 28.0 Q76.1 22.35 79.45 34.85 L80.0 35.0 Q88.75 10.1 101.0 12.9 L102.0 13.0 Q113.45 11.55 115.85 19.05 L116.0 20.0 117.0 20.0 117.0 21.0 117.0 22.0 M56.0 183.0 L56.0 182.0 Q77.2 179.7 95.0 179.5 L95.0 180.0 Q83.8 184.3 75.1 186.45 L75.0 187.0 74.8 187.9 Q60.9 214.15 50.0 186.0 51.9 183.9 55.05 183.1 L56.0 183.0" fill="#ff0000" fill-rule="evenodd" stroke="none"/>
  </g>
</svg>
