<?xml version="1.0" encoding="UTF-8" standalone="no"?>
<svg xmlns:xlink="http://www.w3.org/1999/xlink" height="112.15px" width="91.05px" xmlns="http://www.w3.org/2000/svg">
  <g transform="matrix(1.0, 0.0, 0.0, 1.0, -0.95, -2.0)">
    <path d="M85.0 38.0 Q85.5 37.0 86.15 36.9 L88.15 36.65 Q87.6 40.1 84.0 47.0 L83.9 48.0 Q82.7 53.5 81.0 57.0 81.05 82.3 91.4 101.8 L92.0 102.0 92.0 105.0 92.0 106.0 92.0 109.0 Q92.0 111.0 91.6 111.1 73.25 114.75 52.0 114.0 L51.0 114.0 49.0 114.0 48.0 114.0 47.0 114.0 47.0 113.5 Q44.9 113.65 45.0 112.0 L44.0 111.95 29.2 111.05 28.0 111.0 27.0 110.95 Q22.6 110.45 21.0 107.0 20.5 107.0 20.4 106.8 20.0 106.0 20.0 105.0 L19.5 104.9 Q18.5 100.0 15.0 98.0 L14.1 98.2 Q9.85 100.35 6.0 98.0 L5.05 97.85 Q0.6 96.4 1.0 90.0 L1.0 89.0 1.0 88.0 Q4.0 83.0 3.5 74.0 L4.0 74.0 4.0 73.0 4.0 72.0 4.0 71.0 Q5.7 69.2 6.45 66.1 L7.0 66.0 7.0 65.0 7.0 57.0 Q8.75 51.25 8.5 43.0 L9.0 43.0 9.0 42.0 9.0 38.0 8.25 37.75 7.0 36.0 7.0 35.0 7.8 33.9 8.0 33.0 7.9 32.05 Q6.05 24.95 5.0 17.0 L10.8 27.1 11.0 28.0 Q14.45 37.05 22.2 31.25 22.5 31.0 23.0 31.0 33.65 29.65 32.05 16.0 L32.0 15.0 31.5 14.95 Q31.0 10.5 31.0 6.0 31.0 5.5 30.8 5.4 29.3 4.7 30.0 2.0 34.05 5.95 34.95 13.0 L35.0 14.0 37.8 20.1 38.0 21.0 38.0 22.0 Q38.25 27.75 44.0 28.0 L45.0 28.0 46.0 28.0 47.0 28.0 Q49.15 28.65 49.5 27.1 L50.0 27.0 50.0 26.0 50.0 25.0 Q53.8 24.3 56.2 22.25 L57.0 22.0 Q60.4 22.9 60.5 20.0 L61.0 20.0 61.0 19.0 61.0 18.0 Q62.5 17.0 63.4 15.2 63.5 15.0 64.0 15.0 70.15 12.35 71.5 19.1 73.1 27.1 69.2 29.9 65.8 32.35 60.0 33.0 61.75 42.75 69.8 46.4 70.0 46.5 70.0 47.0 76.25 52.3 78.45 46.15 78.5 46.0 79.0 46.0 L79.0 45.0 Q81.45 41.45 84.75 38.7 L85.0 38.0" fill="#fe0505" fill-opacity="0.99215686" fill-rule="evenodd" stroke="none"/>
  </g>
</svg>
