<?xml version="1.0" encoding="UTF-8" standalone="no"?>
<svg xmlns:xlink="http://www.w3.org/1999/xlink" height="79.0px" width="121.0px" xmlns="http://www.w3.org/2000/svg">
  <g transform="matrix(1.0, 0.0, 0.0, 1.0, -1.0, -1.0)">
    <path d="M65.0 61.0 L64.0 61.0 Q64.0 61.5 63.8 61.6 L62.0 62.0 61.95 62.5 Q58.45 62.95 56.0 64.0 L55.0 64.0 Q55.8 65.7 59.0 65.5 L59.0 66.0 61.85 66.45 62.0 67.0 65.0 67.0 66.0 67.0 68.0 67.0 69.0 67.0 69.0 66.0 74.0 66.0 75.0 66.0 74.75 65.25 Q74.5 65.0 74.0 65.0 L73.1 64.8 72.0 64.0 71.1 63.8 70.0 63.0 69.0 63.0 68.15 62.75 66.0 61.0 65.0 61.0 M113.0 51.0 L112.25 50.75 Q112.0 50.5 112.0 50.0 L111.15 49.8 Q106.35 47.05 104.0 50.0 L103.0 50.0 103.0 51.0 105.85 51.45 106.0 52.0 112.95 51.5 113.0 51.0 M111.0 11.0 L111.0 10.0 Q117.85 8.65 119.8 12.1 L120.0 13.0 120.8 14.1 121.0 15.0 120.95 16.0 Q120.65 19.2 117.0 17.0 L116.5 17.1 Q116.15 18.65 114.0 18.0 L113.5 18.1 Q113.15 19.65 111.0 19.0 L110.85 19.55 Q107.3 20.8 105.0 23.0 L105.05 24.0 Q105.75 28.75 104.0 31.0 L103.75 31.75 103.0 32.0 103.0 33.0 103.0 34.0 104.0 34.0 Q105.7 35.3 105.1 39.0 L105.0 40.0 106.0 40.0 Q108.2 39.2 111.0 39.05 L112.0 39.0 112.75 39.25 113.0 40.0 Q117.7 38.8 116.55 42.85 L116.0 43.0 115.8 43.9 115.0 45.0 115.0 46.0 115.0 47.0 115.8 48.1 116.0 49.0 117.1 49.8 118.0 50.0 Q121.2 50.25 121.9 53.05 L122.0 54.0 121.4 53.8 Q120.7 52.3 118.0 53.0 L117.0 53.0 116.0 53.0 116.0 53.5 106.0 53.0 105.0 53.0 105.9 57.0 106.0 58.0 105.9 58.55 Q104.05 58.95 103.0 58.0 L102.0 58.0 99.0 58.0 Q98.5 58.0 98.25 58.25 96.8 59.8 95.0 61.0 L95.0 61.5 90.0 57.0 89.1 57.2 88.0 58.0 87.0 58.0 Q86.9 59.65 89.0 59.5 L89.0 60.0 Q90.75 62.75 89.55 67.9 L89.0 68.0 88.0 67.95 Q83.3 67.3 82.0 70.0 L82.0 71.0 81.9 71.5 76.0 72.0 75.75 72.65 Q73.45 74.35 72.0 72.0 L71.0 72.05 Q68.8 72.3 68.0 74.0 L67.4 74.2 Q65.5 77.45 63.0 75.0 L62.05 74.9 Q58.5 74.0 59.0 69.0 L58.0 69.0 56.0 69.0 55.0 69.0 51.0 69.0 50.0 69.0 50.0 70.0 50.0 71.0 50.0 72.0 Q49.9 74.9 48.0 76.0 L48.0 77.0 47.95 78.0 Q47.7 80.2 45.0 80.0 L45.0 79.0 45.8 77.9 46.0 77.0 46.0 76.0 46.0 68.0 47.0 68.0 47.0 67.0 46.0 67.1 Q43.3 67.7 43.0 66.0 L42.0 66.0 41.0 66.0 41.8 67.1 42.0 68.0 42.0 69.0 41.9 69.5 Q36.55 70.55 36.0 71.0 L35.0 71.0 34.0 71.05 Q27.25 71.75 23.0 70.0 L22.0 70.0 20.0 70.0 19.0 70.1 Q15.3 70.7 14.0 69.0 L13.25 68.75 Q13.0 68.5 13.0 68.0 L12.05 68.1 Q8.6 68.9 9.0 66.0 L13.0 66.0 14.0 66.0 20.0 66.0 21.0 66.0 21.0 65.0 20.1 64.8 Q19.5 64.5 19.0 64.0 L18.1 63.8 Q17.5 63.5 17.0 63.0 L16.0 63.0 Q10.2 63.2 8.0 62.0 L9.75 60.75 10.0 60.0 9.75 59.25 9.0 59.0 8.45 58.9 Q8.0 57.0 8.0 55.0 7.5 55.0 7.35 55.25 5.0 58.8 3.0 55.0 L3.0 54.0 Q5.15 53.15 6.35 51.2 6.5 51.0 7.0 51.0 L7.0 50.0 8.75 48.75 9.0 48.0 9.0 47.0 9.0 42.0 8.25 41.75 Q5.45 39.05 1.0 38.0 L1.0 37.0 1.0 36.0 Q5.15 37.35 8.2 39.75 L9.0 40.0 9.0 39.0 9.0 31.0 10.0 31.0 10.0 30.0 10.75 29.75 11.0 29.0 10.1 28.8 Q8.2 27.8 7.0 26.0 L6.05 25.85 Q2.25 24.75 1.0 21.0 L1.0 20.0 Q5.6 21.9 9.2 24.75 L10.0 25.0 11.0 25.0 12.0 25.0 12.0 24.0 12.0 22.0 14.0 22.0 15.0 22.0 15.0 21.0 15.0 19.0 14.15 18.75 Q13.05 17.95 13.0 16.0 L12.45 15.85 Q11.95 14.05 11.0 13.0 14.45 13.05 15.8 15.15 L16.0 16.0 Q17.65 15.9 17.5 18.0 L18.0 18.0 22.9 18.5 23.0 19.0 Q23.5 19.0 23.75 19.25 L24.0 20.0 25.0 20.0 26.0 20.0 27.0 20.0 28.0 20.0 27.75 19.15 Q27.05 17.95 27.0 16.0 L26.85 15.05 Q25.65 11.85 25.0 8.0 L24.75 7.2 Q23.25 5.2 24.0 1.0 L25.8 1.4 26.0 2.0 Q27.7 2.3 27.1 5.0 L27.0 6.0 Q29.0 8.0 29.0 12.0 L29.0 13.0 Q30.7 13.3 30.5 16.0 L31.0 16.0 Q39.0 15.5 43.25 11.25 43.5 11.0 44.0 11.0 L44.0 10.0 49.9 10.5 50.0 11.0 54.9 12.45 55.0 13.0 Q57.7 12.8 58.45 14.85 L59.0 15.0 61.05 15.85 62.0 16.0 62.0 15.0 Q65.15 13.65 69.0 13.05 L70.0 13.0 Q73.35 12.65 75.15 13.75 L76.0 14.0 76.75 14.25 77.0 15.0 79.0 15.0 80.0 15.0 80.0 14.0 85.0 14.0 86.0 14.0 86.0 13.0 87.0 13.0 87.0 12.0 87.0 11.0 Q88.7 10.7 88.5 8.0 L89.0 8.0 89.0 7.0 89.0 6.0 Q93.7 4.8 92.55 8.85 L92.0 9.0 91.9 10.0 Q91.5 12.0 90.0 13.0 L90.0 14.0 91.0 14.0 92.0 14.0 92.0 13.0 97.0 13.0 98.0 13.0 99.0 13.0 100.0 13.0 Q102.2 12.2 105.0 12.05 L106.0 12.0 109.0 12.0 110.0 12.0 110.0 11.0 111.0 11.0" fill="#ff0000" fill-rule="evenodd" stroke="none"/>
  </g>
</svg>
