<?xml version="1.0" encoding="UTF-8" standalone="no"?>
<svg xmlns:xlink="http://www.w3.org/1999/xlink" height="88.0px" width="139.0px" xmlns="http://www.w3.org/2000/svg">
  <g transform="matrix(1.0, 0.0, 0.0, 1.0, 0.0, -1.0)">
    <path d="M96.25 3.25 Q98.3 5.8 98.3 10.35 L97.8 16.9 Q97.8 20.45 100.35 23.35 106.9 30.85 139.0 43.0 139.0 48.55 135.25 52.15 131.95 55.3 122.65 59.7 109.05 65.75 99.25 70.35 81.05 78.95 63.0 89.0 L60.0 89.0 Q59.4 89.0 59.55 88.7 L59.8 88.4 19.2 67.55 Q0.6 58.0 0.0 58.0 L0.0 51.0 Q21.1 39.2 37.55 30.65 69.05 14.3 80.0 14.3 83.05 14.3 83.7 13.1 84.25 12.15 85.0 6.0 85.55 6.15 87.35 3.65 89.3 1.0 92.0 1.0 94.5 1.0 96.25 3.25" fill="#ff0000" fill-rule="evenodd" stroke="none"/>
  </g>
</svg>
