<?xml version="1.0" encoding="UTF-8" standalone="no"?>
<svg xmlns:xlink="http://www.w3.org/1999/xlink" height="165.05px" width="128.0px" xmlns="http://www.w3.org/2000/svg">
  <g transform="matrix(1.0, 0.0, 0.0, 1.0, 0.0, 0.0)">
    <path d="M114.85 87.05 Q123.25 91.9 123.25 96.15 L122.65 98.65 Q122.0 101.5 122.0 104.0 L122.95 106.0 Q123.85 107.9 123.85 109.25 L122.35 113.2 Q120.85 116.55 120.85 118.25 120.85 122.25 124.45 127.55 L128.0 133.0 Q128.0 134.1 124.05 136.0 120.35 137.75 118.85 137.75 112.25 137.75 109.0 132.0 L109.75 131.35 Q110.15 130.65 110.0 128.9 114.8 128.55 115.85 127.9 117.3 127.0 117.3 123.5 117.3 120.75 116.85 119.25 116.5 118.0 116.0 118.0 114.9 118.0 112.65 118.8 109.1 120.1 104.0 123.0 L106.2 125.35 Q108.05 127.5 108.05 128.9 108.05 129.7 106.35 131.45 104.6 133.2 104.6 136.5 104.6 144.6 108.1 147.0 L110.5 148.55 Q111.6 149.5 111.6 151.45 111.6 152.85 108.35 154.8 105.0 156.85 102.2 156.85 100.2 156.85 98.15 155.75 94.9 154.0 93.0 150.0 96.9 150.85 98.45 146.85 99.45 144.25 101.0 133.0 L100.85 131.7 Q100.65 131.0 100.0 131.0 99.15 131.0 94.1 133.55 88.3 136.45 81.1 137.7 71.75 139.35 70.15 140.0 66.0 141.75 66.0 146.5 66.0 153.1 69.3 155.85 L71.55 157.55 Q72.55 158.45 72.55 159.75 72.55 160.65 70.2 162.55 67.1 165.05 62.9 165.05 58.85 165.05 56.75 162.75 55.0 160.85 55.0 158.0 54.95 156.65 55.8 155.55 57.45 153.35 62.0 154.15 L62.0 139.0 Q45.6 138.5 37.95 133.7 L33.9 130.45 Q32.25 129.0 31.0 129.0 29.3 129.0 28.7 130.5 28.0 132.4 28.0 138.5 28.0 145.5 31.2 147.9 L33.4 149.2 Q34.4 149.85 34.4 150.8 34.4 153.0 32.5 154.8 30.1 157.05 26.05 157.05 21.7 157.05 20.05 155.05 18.15 151.7 16.0 149.0 L19.25 148.0 23.0 147.1 23.0 132.0 Q21.8 131.1 20.8 129.05 L20.0 127.0 Q20.0 126.35 20.9 125.7 21.75 125.15 22.25 125.15 22.8 125.15 24.05 123.95 L26.0 122.0 Q22.1 122.05 20.65 121.1 19.85 120.55 19.4 118.95 19.0 117.4 17.95 116.8 16.3 115.9 12.0 116.0 9.15 122.95 9.6 125.7 9.95 127.7 12.45 128.05 L16.85 128.65 Q19.15 129.6 19.15 133.2 19.15 134.0 17.05 135.5 14.15 137.55 9.8 137.55 5.2 137.55 2.6 135.7 0.0 133.85 0.0 130.55 0.0 130.05 3.5 125.3 7.0 120.5 7.0 120.0 7.0 111.65 6.0 109.2 L4.95 106.65 5.0 105.0 Q7.5 104.55 9.1 100.95 L11.85 93.45 Q16.15 83.0 28.0 83.0 L26.15 78.55 23.0 73.0 Q24.4 73.7 25.55 73.7 28.55 73.7 29.5 69.65 L31.0 57.6 Q31.95 49.9 41.7 40.15 L47.6 33.8 Q49.9 30.55 49.0 28.0 L51.35 28.15 54.65 27.75 Q55.9 27.3 55.9 26.15 55.9 24.6 53.55 23.0 L48.45 20.0 Q41.0 15.55 41.0 9.5 41.0 6.65 44.1 4.55 47.7 2.05 55.0 1.05 L55.0 0.0 63.0 0.0 Q63.2 1.5 63.75 2.45 L64.55 3.7 Q65.35 3.7 66.85 2.7 68.35 1.65 68.75 1.65 74.75 1.65 80.95 6.25 87.3 10.95 87.3 15.9 87.3 19.95 78.65 24.2 74.0 26.45 72.7 27.3 70.0 29.1 70.0 31.0 L88.3 43.9 Q106.6 57.2 106.6 59.7 106.6 61.6 105.55 62.3 L103.3 63.35 Q100.0 65.1 100.0 73.0 100.0 76.25 100.4 79.55 L101.1 79.4 Q104.7 81.9 114.85 87.05" fill="#ff0000" fill-rule="evenodd" stroke="none"/>
  </g>
</svg>
