<?xml version="1.0" encoding="UTF-8" standalone="no"?>
<svg xmlns:xlink="http://www.w3.org/1999/xlink" height="114.2px" width="150.0px" xmlns="http://www.w3.org/2000/svg">
  <g transform="matrix(1.0, 0.0, 0.0, 1.0, 0.0, 0.0)">
    <path d="M57.5 109.6 Q58.45 109.6 59.15 110.3 59.8 110.95 59.8 111.9 59.8 112.85 59.15 113.55 58.45 114.2 57.5 114.2 56.55 114.2 55.9 113.55 55.2 112.85 55.2 111.9 55.2 110.95 55.9 110.3 56.55 109.6 57.5 109.6 M56.15 102.45 Q56.8 103.1 56.8 104.05 56.8 105.0 56.15 105.7 55.45 106.35 54.5 106.35 53.55 106.35 52.9 105.7 52.2 105.0 52.2 104.05 52.2 103.1 52.9 102.45 53.55 101.75 54.5 101.75 55.45 101.75 56.15 102.45 M106.9 15.2 Q109.3 18.5 109.3 20.45 109.3 24.65 108.05 25.65 107.1 26.45 101.0 28.0 101.2 29.3 102.45 31.25 L103.65 32.95 Q103.65 34.4 102.65 34.7 L96.8 36.0 Q95.6 38.85 97.75 40.65 98.45 41.2 103.5 43.7 112.95 48.45 113.0 58.0 121.85 56.65 126.15 55.3 L134.05 56.0 Q137.15 56.2 137.75 55.05 138.4 53.85 138.7 53.85 140.65 53.85 141.8 55.15 143.05 56.55 143.05 59.15 L142.25 65.25 Q139.9 65.5 138.45 68.8 137.25 72.3 136.7 72.85 135.8 72.75 134.6 71.7 L133.5 70.65 130.05 72.95 Q126.25 75.25 124.25 75.25 L121.75 74.65 120.0 74.0 120.3 74.4 Q122.55 76.3 129.2 80.6 134.5 84.0 134.5 84.65 L134.25 86.1 133.65 87.0 Q131.75 85.65 128.85 84.25 126.2 83.0 125.5 83.0 L123.7 84.1 122.2 85.2 Q121.3 85.2 120.65 84.4 120.0 83.55 120.0 82.0 120.0 81.35 120.3 80.9 L121.0 80.0 Q119.15 78.05 116.85 78.05 L115.15 79.8 Q113.3 81.65 112.0 82.0 117.05 87.05 117.05 88.55 L116.55 89.65 Q116.0 90.75 116.0 91.5 116.0 92.5 116.25 92.25 L117.1 92.3 Q130.8 92.3 133.0 92.1 142.6 91.2 145.0 87.0 L150.0 87.0 150.0 90.1 127.3 94.45 107.7 98.3 102.6 98.0 Q100.8 97.5 100.95 95.75 L101.6 95.25 106.1 95.0 106.05 92.95 Q99.95 91.35 98.4 90.0 96.75 88.5 94.0 82.0 L84.0 88.75 Q81.0 90.8 81.0 91.5 81.0 92.0 81.5 93.1 L82.0 94.7 Q82.0 95.75 81.0 97.0 L82.0 98.0 Q84.9 97.0 89.15 94.05 92.65 91.6 94.35 91.6 95.85 91.6 97.0 92.55 98.0 93.35 98.0 94.0 98.0 99.65 86.0 104.9 82.2 106.55 77.7 107.95 L73.85 109.05 Q70.1 109.05 66.15 104.95 61.35 99.25 58.0 96.0 57.65 97.55 55.4 99.15 52.55 101.2 47.0 103.0 48.0 104.1 48.0 105.25 L47.75 106.3 Q47.25 107.05 45.7 107.05 43.0 107.05 43.0 103.5 43.0 103.05 43.45 102.4 L44.0 101.0 40.8 100.3 40.15 100.4 Q40.05 101.85 39.15 103.05 38.05 104.55 36.0 105.0 42.3 108.05 42.75 108.95 41.7 110.3 38.3 110.3 34.15 110.3 25.8 104.45 15.0 96.4 8.0 92.0 10.75 91.0 11.5 91.0 16.9 91.0 24.7 97.0 L29.8 101.15 Q32.15 103.0 32.8 103.0 34.95 103.0 36.0 100.0 36.0 98.75 34.3 96.2 L32.0 93.0 Q29.8 94.15 29.25 94.15 27.25 94.15 25.8 93.05 L23.35 90.6 Q19.6 87.0 12.0 87.0 L9.95 87.55 8.25 88.1 Q0.0 84.0 0.0 78.5 0.0 76.2 2.85 74.8 6.9 73.15 9.4 71.55 10.5 70.85 11.3 68.65 11.9 66.95 13.6 66.95 16.2 66.95 16.2 71.4 L16.0 72.95 32.0 73.0 Q30.1 64.75 26.25 58.1 L22.85 52.0 23.0 50.0 Q27.3 51.0 30.3 46.0 33.0 41.5 33.0 35.4 33.0 29.7 30.0 21.5 27.0 13.3 27.0 11.0 44.95 13.1 47.95 7.35 L49.9 3.1 Q51.5 1.0 56.0 1.0 L60.25 1.5 64.5 2.0 68.4 1.0 76.5 0.0 Q89.3 0.0 100.1 8.4 104.25 11.65 106.9 15.2" fill="#ff0000" fill-rule="evenodd" stroke="none"/>
  </g>
</svg>
