<?xml version="1.0" encoding="UTF-8" standalone="no"?>
<svg xmlns:xlink="http://www.w3.org/1999/xlink" height="120.15px" width="183.8px" xmlns="http://www.w3.org/2000/svg">
  <g transform="matrix(1.0, 0.0, 0.0, 1.0, 0.0, -0.85)">
    <path d="M183.05 73.9 L183.8 74.45 Q181.5 75.8 173.75 78.45 166.45 80.9 165.0 82.0 164.85 83.25 166.75 85.4 168.35 87.2 171.0 89.2 L168.85 91.15 Q167.5 91.95 166.1 91.95 164.6 91.95 161.2 88.0 157.75 84.0 155.5 84.0 L153.65 84.45 152.0 85.0 152.0 87.0 Q153.0 88.9 153.0 90.0 L152.0 92.4 151.0 95.0 151.7 97.7 152.35 100.1 Q152.15 101.4 151.45 102.65 150.15 105.05 148.0 105.0 L148.0 110.7 134.85 111.3 Q128.0 111.3 125.0 109.95 120.0 107.7 120.0 101.0 L120.45 100.3 Q121.15 99.4 122.45 98.75 126.45 96.55 134.5 97.0 134.3 96.8 134.0 94.0 L134.75 94.05 Q136.2 94.05 136.25 92.95 L136.0 91.2 Q137.1 90.95 143.55 86.85 150.2 82.55 152.0 82.0 151.4 80.4 145.55 73.05 L139.0 65.0 143.95 63.85 Q144.75 63.85 152.45 71.45 160.1 79.0 162.2 79.0 163.8 79.0 172.1 76.35 180.4 73.7 181.95 73.7 L182.7 73.75 183.05 73.9 M44.75 95.3 L42.1 94.45 43.4 94.7 44.75 95.3 M1.0 88.0 L18.65 97.7 Q30.15 104.0 31.9 104.0 33.5 104.0 44.95 100.3 L68.15 92.9 68.2 93.1 68.0 96.1 Q72.4 96.15 74.75 97.5 76.95 98.8 76.95 101.1 76.95 102.25 76.15 102.5 L74.1 102.9 Q70.5 103.75 67.9 109.3 L66.2 113.5 Q65.2 115.95 64.25 117.25 61.55 121.0 55.5 121.0 51.8 121.0 49.55 118.45 47.0 115.55 47.0 110.0 47.0 107.5 49.0 105.45 51.0 103.85 51.0 103.45 L50.65 102.0 50.0 101.0 Q46.9 104.35 42.3 106.15 36.8 108.25 28.7 108.25 L26.2 108.15 26.0 107.95 25.9 107.2 27.0 105.0 Q2.1 91.3 0.0 89.0 L0.6 88.6 1.0 88.0 M144.15 78.35 L147.25 77.95 144.0 78.5 144.15 78.35 M131.35 34.4 L138.15 33.8 Q142.2 33.8 145.55 35.4 148.65 36.9 148.65 38.25 148.65 44.4 140.85 55.75 132.7 67.5 132.1 73.35 131.6 80.35 121.25 87.8 117.9 90.25 114.1 92.3 L110.65 93.95 Q110.2 93.95 108.6 93.0 107.0 92.0 106.0 92.0 104.65 92.0 102.45 93.35 L100.25 94.7 Q96.65 94.7 94.85 94.0 93.6 93.2 93.0 93.0 L94.55 96.2 Q95.05 97.35 95.0 99.0 L96.45 98.5 Q96.95 97.85 97.0 97.0 L98.05 97.7 99.2 97.95 100.8 97.5 102.35 97.0 Q104.65 97.0 106.55 100.3 108.1 102.95 108.1 104.45 108.1 108.65 105.75 111.65 103.2 114.9 99.15 114.9 95.65 114.9 93.05 112.55 90.3 110.1 91.0 107.0 L91.1 106.45 91.8 106.4 92.0 106.0 Q83.0 108.7 83.0 97.0 L84.7 95.25 87.0 93.0 Q61.35 94.4 52.2 77.55 49.55 72.65 47.95 65.15 46.55 58.55 46.0 58.0 43.65 60.3 42.3 66.45 41.15 71.7 40.05 71.7 39.25 71.7 38.55 71.2 L36.0 69.0 Q35.55 70.35 30.0 77.0 35.05 76.9 35.05 80.55 L34.0 83.0 Q34.0 83.6 34.2 83.7 L34.35 83.8 34.85 83.9 36.05 84.0 38.25 83.2 40.75 82.4 Q41.85 82.4 42.7 83.0 43.7 83.75 43.7 84.95 43.7 86.55 37.75 91.0 30.95 96.1 25.45 96.1 21.65 96.1 18.1 94.05 13.7 91.5 13.7 87.35 L13.8 85.0 Q15.5 86.2 20.85 83.65 25.85 81.3 27.0 79.5 24.85 80.35 23.75 79.1 23.0 78.2 23.0 77.0 24.15 76.3 25.5 75.05 28.15 72.5 29.0 69.45 L25.55 69.15 23.0 69.3 Q23.0 73.25 22.7 73.95 22.15 75.15 19.55 75.15 16.85 75.15 15.2 69.05 14.0 64.55 14.0 61.0 14.0 59.9 15.45 57.85 L17.0 56.0 Q20.0 56.0 21.25 57.3 21.9 57.95 22.7 60.2 24.2 64.35 30.3 64.35 38.15 64.35 38.15 60.3 38.15 59.55 34.55 56.65 30.95 53.75 30.95 51.9 30.95 50.35 33.4 47.75 36.0 45.0 38.0 45.0 L46.0 46.0 Q41.05 37.15 35.9 32.7 L24.0 24.0 25.15 23.3 Q28.6 23.25 33.55 26.3 37.35 28.7 45.0 35.0 45.5 32.95 44.7 31.45 43.8 30.2 43.8 29.7 43.8 29.1 44.15 29.2 L44.5 29.4 Q45.75 29.5 47.15 31.05 48.8 32.85 50.0 36.0 L49.95 34.7 Q49.0 27.0 49.0 26.0 49.0 22.8 55.4 21.55 62.4 20.2 63.55 17.05 65.65 11.25 72.9 5.65 78.95 1.0 81.0 1.0 L96.85 2.0 102.05 1.45 104.95 0.85 Q105.95 0.85 106.1 1.15 105.75 3.45 100.15 11.4 94.35 19.6 94.0 21.05 L94.6 21.2 98.6 22.1 105.0 24.0 Q109.15 15.05 112.3 9.25 L115.0 3.85 Q118.45 4.95 120.0 6.4 L120.85 7.7 Q120.85 11.1 119.35 13.05 L112.0 23.0 112.0 27.05 124.85 27.7 Q128.5 28.5 128.5 30.8 128.5 31.8 126.95 32.45 L121.0 34.0 121.45 34.45 123.1 34.8 125.15 35.0 131.35 34.4" fill="#ff0000" fill-rule="evenodd" stroke="none"/>
  </g>
</svg>
