<?xml version="1.0" encoding="UTF-8" standalone="no"?>
<svg xmlns:xlink="http://www.w3.org/1999/xlink" height="177.85px" width="161.0px" xmlns="http://www.w3.org/2000/svg">
  <g transform="matrix(1.0, 0.0, 0.0, 1.0, 0.0, 0.85)">
    <path d="M51.75 160.3 L51.35 160.2 49.0 159.0 51.75 160.3 M106.55 35.2 Q110.2 39.75 112.4 45.25 114.05 49.45 114.05 51.35 114.05 53.65 111.55 57.15 109.0 60.65 109.0 62.0 109.0 62.75 110.75 63.65 L114.65 65.45 Q120.3 68.3 120.3 72.45 L119.1 76.6 Q117.85 80.45 117.85 81.65 117.85 82.65 118.0 83.0 120.9 84.2 130.8 85.85 139.3 87.95 139.3 92.55 139.3 100.35 137.65 103.5 136.85 105.05 136.0 105.5 136.0 106.0 137.55 112.0 L139.05 118.5 Q139.05 121.4 136.95 122.9 135.0 124.3 132.05 124.0 134.1 127.2 139.05 130.0 143.1 132.3 143.1 133.8 143.1 137.9 139.4 140.5 135.45 143.3 128.5 143.3 L125.0 142.15 Q121.75 141.0 120.0 141.0 L119.3 141.05 119.35 141.05 Q119.95 140.8 118.65 142.85 L117.0 145.0 Q121.9 144.9 124.4 148.65 126.05 151.2 126.05 153.65 126.05 157.45 123.3 159.95 119.65 163.3 111.65 163.3 98.8 163.3 98.8 155.5 98.8 149.3 99.5 148.65 101.15 148.25 103.0 146.0 101.2 143.85 99.8 141.3 99.0 139.9 98.3 139.9 L92.0 140.0 91.95 140.9 78.0 141.0 80.25 143.6 Q80.9 144.65 80.9 145.95 80.9 149.3 79.5 150.25 L74.0 153.0 81.25 158.25 Q85.05 161.0 85.05 163.15 85.05 167.95 81.25 170.0 78.1 171.7 71.75 171.7 57.0 171.7 57.0 159.0 57.0 158.0 57.2 157.75 57.35 157.6 58.45 157.35 62.3 156.35 68.0 153.0 65.05 154.25 63.5 152.25 62.0 150.25 62.0 145.5 L62.4 143.8 63.0 142.5 Q59.25 140.6 53.85 139.65 L47.5 139.0 Q46.15 139.0 44.65 140.65 42.0 143.45 38.0 146.0 40.3 148.7 41.7 151.05 43.0 153.2 43.0 154.1 43.0 158.65 40.55 160.15 38.7 161.3 33.6 161.3 29.15 160.65 24.75 158.65 16.0 154.7 16.0 148.0 16.0 146.7 17.3 145.3 L19.0 143.45 Q15.1 141.1 5.7 139.7 2.75 139.25 1.55 138.3 0.0 137.0 0.0 134.0 0.0 129.1 3.65 127.5 L7.15 126.2 Q9.45 125.3 11.0 124.0 L9.4 123.9 Q6.55 123.8 5.1 121.3 4.0 119.35 4.0 116.5 4.0 114.8 5.6 113.45 7.5 111.9 10.7 111.9 L13.0 112.0 Q12.05 109.9 10.95 105.05 10.3 102.4 8.55 101.75 L4.9 102.5 Q3.4 102.5 2.8 99.6 2.2 96.7 2.0 89.0 10.15 86.85 19.0 84.0 L18.7 83.8 10.15 80.9 Q2.15 78.15 0.85 77.0 1.65 76.7 1.65 76.6 L7.0 76.0 Q9.95 76.0 15.1 77.2 L23.0 78.5 Q21.8 77.5 21.8 77.15 L22.0 72.0 Q21.5 72.0 21.0 65.65 L32.9 64.8 33.0 63.35 Q33.0 61.6 31.95 60.6 30.85 59.65 30.85 55.7 30.85 49.45 40.45 37.35 45.2 31.3 50.0 26.0 50.0 25.0 48.15 23.1 L44.0 19.2 Q38.0 13.25 38.0 8.0 38.0 5.65 40.95 4.5 44.05 3.25 51.0 3.05 50.7 1.55 51.3 0.35 51.9 -0.85 52.8 -0.85 53.55 -0.85 55.2 0.1 56.9 1.0 58.2 1.0 L65.0 0.0 Q70.95 -0.6 76.55 1.5 82.85 3.9 82.85 8.1 82.85 9.8 77.0 23.0 95.65 21.75 106.55 35.2 M156.0 146.3 Q161.0 150.0 161.0 151.5 161.0 154.4 156.15 156.0 152.9 157.1 150.4 157.1 141.4 157.1 136.5 154.75 132.3 152.7 132.2 149.55 132.15 146.6 135.65 144.35 139.35 142.0 145.0 142.0 150.25 142.0 156.0 146.3 M104.05 167.6 Q106.3 169.2 106.3 171.5 106.3 173.8 104.05 175.4 101.8 177.0 98.65 177.0 95.5 177.0 93.25 175.4 91.0 173.8 91.0 171.5 91.0 169.2 93.25 167.6 95.5 166.0 98.65 166.0 101.8 166.0 104.05 167.6" fill="#ff0000" fill-rule="evenodd" stroke="none"/>
  </g>
</svg>
