<?xml version="1.0" encoding="UTF-8" standalone="no"?>
<svg xmlns:xlink="http://www.w3.org/1999/xlink" height="191.85px" width="163.0px" xmlns="http://www.w3.org/2000/svg">
  <g transform="matrix(1.0, 0.0, 0.0, 1.0, -1.0, -1.15)">
    <path d="M164.0 148.0 L164.0 156.0 Q162.9 156.0 155.65 159.0 148.45 162.0 144.0 162.0 L137.8 160.95 Q131.6 159.4 130.0 157.0 L130.0 163.15 Q135.85 163.95 141.3 168.05 145.65 171.3 145.65 172.15 145.65 172.8 144.95 173.35 144.2 173.95 142.85 174.0 143.0 177.0 143.5 177.0 142.7 178.05 139.4 179.15 136.55 180.05 135.5 180.05 135.8 181.55 135.15 182.4 134.75 183.0 134.2 183.0 L132.95 182.5 128.5 182.0 Q125.2 182.0 124.3 183.0 L123.05 183.95 Q122.65 183.95 121.85 182.95 120.95 181.85 121.0 181.0 L115.55 181.35 Q112.2 181.15 112.0 179.0 111.55 177.35 109.3 176.0 L106.0 174.0 Q106.9 172.05 111.95 167.5 L117.0 163.0 116.55 163.1 Q113.15 164.8 104.3 166.45 94.1 168.4 87.0 168.0 89.1 172.9 95.4 176.9 100.9 180.35 100.9 182.2 L99.4 184.85 Q97.85 187.05 97.85 189.0 L97.25 189.2 96.5 189.25 91.95 189.0 Q87.8 189.45 89.0 193.0 L75.0 193.0 Q75.3 191.0 74.7 189.9 74.15 188.85 73.0 188.85 L67.75 189.4 Q65.0 189.45 65.0 187.0 65.0 186.5 65.5 186.65 66.0 186.8 66.0 186.3 L65.9 185.5 Q64.1 185.4 62.95 183.7 62.0 182.3 62.0 181.0 62.0 180.05 69.9 175.4 77.55 170.85 77.0 168.0 L70.55 166.75 53.0 164.0 49.0 164.0 49.0 165.0 54.25 167.9 Q56.3 169.3 56.3 171.5 56.3 173.6 54.4 175.7 L52.5 177.9 52.7 179.65 52.85 180.8 Q48.7 181.05 44.55 182.45 L40.75 183.75 Q39.9 183.75 39.5 182.9 39.05 182.0 35.0 182.0 30.7 182.0 30.8 182.5 30.85 182.95 29.3 182.95 L28.4 182.8 28.05 182.6 27.8 179.1 Q23.45 179.45 21.95 179.15 20.0 178.75 20.0 177.0 20.0 175.75 21.1 175.25 22.1 174.8 22.0 173.5 19.9 174.0 18.75 172.95 17.75 172.1 18.0 171.0 21.85 168.05 25.0 166.05 30.95 162.25 34.05 163.0 L34.3 159.6 33.9 158.1 33.0 156.0 32.95 157.0 Q32.7 160.25 31.3 160.25 30.8 159.9 29.95 159.6 28.35 158.9 26.2 158.9 22.05 158.9 21.4 160.4 L21.1 161.4 Q20.85 161.85 20.1 161.85 19.5 161.85 18.7 160.7 L18.0 159.5 8.0 159.0 8.15 156.15 2.9 155.8 Q1.0 155.55 1.0 154.0 1.0 153.0 2.45 151.85 3.95 150.65 4.0 150.0 2.65 150.2 1.75 149.25 L1.0 148.0 Q2.05 147.15 5.75 145.25 9.5 143.35 11.55 141.7 18.45 136.15 18.45 124.9 18.45 120.2 16.8 113.65 L15.0 107.0 Q20.45 105.5 25.5 105.25 28.2 105.15 31.55 105.2 33.7 105.1 34.35 103.9 35.0 102.6 35.0 98.3 35.0 92.6 33.5 91.85 32.0 91.1 32.0 88.0 32.0 85.75 34.05 84.45 L37.75 82.75 Q41.25 81.05 40.35 71.95 38.8 61.9 39.0 59.0 L40.0 59.0 40.0 54.0 41.0 54.0 Q41.6 51.8 46.1 47.05 51.3 41.4 54.9 41.4 55.5 41.4 61.0 44.0 66.6 44.0 71.0 39.9 76.0 35.3 76.0 28.0 76.0 26.1 73.5 24.15 70.0 21.9 68.0 20.5 60.0 15.05 60.0 7.0 60.0 5.5 65.6 3.4 71.7 1.15 77.6 1.15 L85.0 1.5 85.0 2.2 Q94.25 3.2 99.5 6.65 104.25 9.75 104.25 13.65 104.25 18.15 99.5 21.55 91.65 27.15 90.0 29.0 91.0 31.5 91.9 32.2 92.3 32.5 92.3 34.25 92.3 37.75 95.25 40.75 98.5 44.0 103.0 44.0 103.65 44.0 104.4 42.9 105.2 41.75 108.35 41.75 118.0 41.75 121.85 50.0 125.3 57.3 125.3 73.95 125.3 83.25 129.25 84.55 L131.95 85.25 Q133.2 85.85 133.2 87.95 133.2 89.3 132.85 89.8 132.4 90.15 132.1 90.45 131.0 91.65 131.0 98.0 131.0 103.9 133.75 105.5 134.85 106.15 138.6 106.15 140.6 106.15 141.45 105.1 L142.0 104.0 Q146.3 104.0 147.75 105.25 148.75 106.15 148.75 108.35 148.75 109.8 148.3 109.95 147.7 110.0 147.4 110.35 146.0 111.65 146.0 122.5 146.0 133.7 147.55 136.15 L148.7 137.45 Q149.35 138.2 149.5 140.0 150.3 140.35 156.55 144.75 161.25 148.0 164.0 148.0" fill="#ff0000" fill-rule="evenodd" stroke="none"/>
  </g>
</svg>
