<?xml version="1.0" encoding="UTF-8" standalone="no"?>
<svg xmlns:xlink="http://www.w3.org/1999/xlink" height="189.1px" width="163.45px" xmlns="http://www.w3.org/2000/svg">
  <g transform="matrix(1.0, 0.0, 0.0, 1.0, 0.0, 0.0)">
    <path d="M162.8 149.1 L163.45 150.55 Q163.45 151.4 162.15 152.05 160.25 152.95 156.0 153.0 156.35 155.3 156.0 156.75 L155.65 156.95 155.0 157.0 152.15 156.55 149.3 156.05 143.15 156.25 131.8 157.0 131.15 156.9 131.0 153.0 129.0 153.0 129.0 159.0 Q137.65 161.35 140.95 163.85 143.35 165.7 143.35 168.15 L142.0 171.0 Q142.0 171.5 142.5 173.1 L143.0 175.2 Q143.0 176.2 142.85 175.85 L140.95 176.05 Q140.25 176.05 139.55 175.55 L139.0 175.0 137.0 175.5 135.0 176.0 Q135.0 178.85 134.8 179.55 L134.1 180.2 132.55 178.9 Q131.5 178.0 130.5 178.0 L125.9 179.0 122.0 180.0 120.4 178.5 Q118.6 176.95 115.15 176.95 114.4 176.95 113.7 177.5 L110.8 178.0 110.25 177.95 110.45 177.85 Q110.0 175.9 110.0 175.05 L110.5 175.0 Q111.0 174.5 111.0 175.0 L110.85 173.75 110.7 173.1 110.25 172.9 109.5 172.85 105.15 173.15 105.0 171.0 Q105.0 169.7 106.5 168.25 L108.0 167.0 107.5 166.0 Q107.0 165.5 107.0 165.0 107.0 164.2 110.8 162.9 114.7 161.5 115.0 160.0 L114.05 160.15 103.85 162.55 Q101.85 163.05 94.5 162.45 89.5 162.05 86.8 165.5 87.15 167.55 89.45 168.95 L94.3 171.2 Q101.05 174.15 101.05 179.2 101.05 179.9 100.75 180.05 L99.7 180.1 Q99.05 180.1 98.2 180.6 96.85 181.4 96.85 183.0 L97.45 184.15 98.0 185.0 97.85 185.85 95.95 186.05 Q95.25 186.05 94.55 185.55 L94.0 185.0 91.65 185.4 88.0 186.0 Q87.9 188.1 87.45 188.8 L86.75 189.1 84.2 187.7 Q82.6 186.9 80.25 186.9 79.25 186.9 74.8 188.95 L74.0 188.75 74.0 186.0 70.3 185.35 65.15 184.85 Q65.2 182.75 64.7 181.25 64.3 180.0 64.0 180.0 L62.5 180.1 Q61.9 180.05 60.9 179.2 60.9 177.45 63.0 176.6 65.05 175.8 65.0 172.0 68.05 172.95 72.45 169.3 76.2 166.2 77.0 164.0 66.35 164.0 58.55 161.9 L50.5 159.8 48.0 160.0 48.0 161.0 53.6 163.9 Q55.5 164.8 55.5 165.45 L55.25 166.15 54.0 167.0 Q57.05 169.0 57.05 170.65 L54.5 173.35 Q51.9 176.1 51.9 176.9 44.3 177.1 43.2 178.55 L42.7 179.55 Q42.35 180.0 41.0 180.0 39.85 180.0 38.75 179.0 37.65 178.0 34.5 178.0 31.1 178.0 30.4 178.55 L28.95 179.05 Q28.25 179.05 28.1 178.2 L28.0 176.0 Q21.75 176.1 19.0 173.0 21.0 172.0 21.0 171.3 L20.9 170.5 18.9 169.35 Q17.3 168.35 17.0 168.0 24.75 160.8 28.35 160.1 L30.7 160.0 Q31.9 160.05 33.0 159.4 L33.0 153.0 32.0 153.0 Q32.35 155.55 31.7 156.45 31.25 157.05 30.25 157.05 29.85 157.05 29.4 156.55 28.95 156.0 26.5 156.0 24.1 156.0 21.85 157.0 L20.0 158.0 Q19.1 158.0 18.0 156.95 16.85 155.85 16.0 155.85 L10.2 156.45 Q9.15 157.05 8.25 157.05 L7.4 156.9 7.15 156.7 Q7.9 154.05 6.25 152.8 4.9 151.8 2.45 151.8 L0.0 152.0 0.0 144.0 Q5.1 144.0 9.45 140.8 14.0 137.45 14.0 133.0 L17.0 133.0 17.0 123.0 Q17.0 120.95 15.95 120.4 14.9 119.85 15.0 115.8 L20.9 115.7 27.0 116.0 30.0 110.15 32.0 106.0 Q31.0 103.35 31.0 102.0 31.0 101.6 31.45 101.5 L32.5 101.05 Q34.0 99.85 34.0 94.25 34.0 88.9 32.5 87.65 31.0 86.45 31.0 83.0 31.0 81.75 32.3 81.4 L35.0 80.7 Q38.75 79.0 38.0 70.0 L39.0 70.0 39.0 49.0 40.0 49.0 Q40.0 47.3 44.0 40.35 48.2 33.0 50.0 33.0 L56.35 34.15 60.4 35.4 63.0 36.0 Q68.1 36.0 71.75 32.15 75.0 28.75 75.0 25.0 75.0 23.55 68.5 18.55 62.0 13.6 62.0 10.0 62.0 6.75 67.2 3.65 72.2 0.6 76.0 1.0 76.0 0.0 82.0 0.0 88.9 0.0 95.55 3.45 102.05 6.8 102.05 9.95 102.05 11.45 95.55 16.45 89.0 21.5 89.0 24.0 L91.1 29.05 Q93.7 34.0 96.0 34.0 97.15 34.0 99.75 35.15 102.4 36.25 103.2 36.25 103.75 36.25 104.25 35.1 104.7 33.95 107.55 33.95 115.4 33.95 120.3 40.3 124.3 45.55 124.3 51.25 124.3 69.25 128.7 78.15 129.85 80.55 131.7 82.75 133.05 84.4 133.05 84.95 133.05 86.55 132.55 86.85 L131.55 87.0 Q130.0 87.35 130.0 94.0 130.0 99.85 131.5 101.1 L132.55 101.9 Q133.0 102.45 133.0 103.85 L132.55 105.15 Q131.95 106.3 131.0 107.0 L134.95 112.4 Q137.7 116.0 138.3 116.0 L140.65 115.5 143.0 115.0 Q145.85 115.0 147.0 116.0 147.95 116.8 147.95 118.4 L146.75 123.45 Q145.6 128.9 146.0 133.0 148.75 131.5 148.75 134.45 L148.4 136.25 148.0 138.0 Q151.4 136.95 156.75 140.1 162.1 143.25 162.1 146.25 162.1 147.65 162.8 149.1" fill="#ff0000" fill-rule="evenodd" stroke="none"/>
  </g>
</svg>
