<?xml version="1.0" encoding="UTF-8" standalone="no"?>
<svg xmlns:xlink="http://www.w3.org/1999/xlink" height="189.1px" width="168.6px" xmlns="http://www.w3.org/2000/svg">
  <g transform="matrix(1.0, 0.0, 0.0, 1.0, 0.0, -1.0)">
    <path d="M168.0 149.0 Q170.3 153.5 164.1 157.85 158.4 161.85 152.5 161.85 149.15 161.85 147.8 160.95 146.5 160.0 144.0 160.0 L141.45 160.4 139.55 160.8 138.15 160.65 137.75 159.0 138.0 157.0 136.0 157.0 136.0 159.0 Q137.3 160.6 137.3 161.25 L137.0 164.0 Q142.65 166.45 146.9 169.45 150.8 172.15 150.8 173.2 150.8 174.15 149.95 174.65 149.2 175.1 148.0 175.0 L149.05 176.9 149.5 178.0 138.45 182.8 136.75 182.4 135.0 182.0 130.25 184.25 128.4 182.65 Q126.25 181.0 123.65 181.0 123.25 181.0 122.25 181.45 L119.8 182.0 119.5 181.95 Q119.4 179.2 117.3 177.05 115.55 175.2 114.0 175.0 116.05 173.5 116.05 172.05 116.3 170.0 115.0 170.0 112.3 170.0 108.7 173.15 L101.8 180.05 Q91.85 190.1 83.25 190.1 80.2 190.1 77.65 188.3 L75.0 186.0 78.05 182.8 Q80.45 180.2 82.0 179.4 81.95 177.75 80.7 176.75 79.25 175.65 76.65 175.65 65.8 175.65 57.45 173.35 49.9 170.7 47.0 170.0 L45.0 170.0 45.0 172.0 Q46.9 171.95 47.45 172.6 48.1 173.35 52.0 173.45 L51.5 174.75 Q51.0 175.5 51.0 176.0 51.0 176.75 52.15 177.8 L53.75 179.45 53.65 179.75 Q52.8 180.15 51.55 180.15 L50.0 180.0 Q50.3 181.9 49.7 183.15 L49.0 184.2 Q48.75 183.9 35.5 179.95 21.7 175.85 20.0 175.0 21.0 175.0 21.0 173.5 L19.55 173.3 Q18.9 172.9 18.9 172.2 18.75 170.85 19.45 169.85 20.85 167.8 25.0 169.0 27.4 168.2 34.45 166.55 35.5 166.3 36.0 164.0 34.35 164.55 31.6 161.35 L28.5 158.0 Q27.8 158.0 25.4 159.0 L23.0 160.0 21.8 159.0 Q20.6 158.0 18.0 158.0 14.65 158.0 14.0 158.5 L13.05 158.95 Q12.35 158.95 11.95 158.3 11.45 157.45 11.0 155.0 7.9 155.7 6.75 155.0 6.0 154.5 6.0 153.0 6.0 151.55 6.6 151.15 L8.0 150.0 Q5.85 150.6 5.85 148.95 8.6 147.8 11.45 146.15 17.25 142.85 18.0 140.0 16.85 139.15 16.5 138.4 16.0 137.4 16.0 135.0 16.0 132.75 18.15 130.2 20.3 127.7 20.3 126.75 L21.0 121.0 19.0 116.0 20.0 114.0 Q21.25 112.0 22.5 112.0 L27.8 112.5 Q28.35 112.8 29.0 114.0 L31.0 114.0 Q31.0 112.25 33.2 111.9 L36.95 111.55 37.0 110.7 36.5 108.35 36.0 106.0 Q36.0 105.4 36.65 105.2 L37.95 104.9 39.15 104.95 Q39.0 103.25 39.0 98.5 L38.6 92.95 Q38.5 92.9 38.55 92.4 38.6 92.0 38.0 92.0 L35.0 92.0 Q32.65 92.35 20.7 99.75 9.1 107.0 7.0 107.0 0.0 103.5 0.0 100.0 0.0 97.0 1.0 97.0 3.55 97.0 6.7 98.0 L10.5 99.0 Q13.1 99.0 27.85 89.85 43.4 80.2 44.0 80.0 L44.0 73.0 45.0 73.0 Q45.1 63.4 45.7 63.25 L46.1 63.65 Q46.3 63.8 46.3 62.5 46.0 57.0 46.0 53.0 L47.0 53.0 Q48.15 45.85 50.55 42.35 53.15 38.45 57.55 38.45 60.65 38.45 63.65 39.75 L66.5 41.0 Q72.55 41.0 77.05 36.05 81.0 31.75 81.0 27.5 81.0 26.15 79.3 22.0 77.7 18.15 78.0 16.0 L78.0 6.0 79.0 6.0 Q78.1 3.45 80.4 1.95 81.55 1.25 83.0 1.0 84.7 1.0 93.9 7.8 102.35 14.05 106.3 17.7 109.9 21.05 114.05 29.25 114.05 30.05 112.75 31.75 111.0 34.05 108.55 34.05 L106.85 33.55 Q105.55 33.0 102.5 33.0 L98.5 33.4 Q97.85 33.9 96.0 34.0 L96.25 34.75 102.55 38.7 Q106.8 41.25 108.2 41.25 109.25 41.25 109.4 40.8 L109.5 39.75 Q109.85 38.25 115.2 38.25 120.5 38.25 123.1 41.15 L125.65 44.25 Q127.5 46.4 129.75 48.05 139.85 55.45 143.7 65.75 L145.65 71.7 Q146.45 73.95 147.75 73.95 L150.0 72.0 Q153.95 72.0 155.45 73.1 156.75 74.05 156.75 76.3 156.75 77.4 154.35 78.7 152.25 79.85 151.3 79.85 147.5 79.85 138.5 67.95 129.55 56.0 129.0 56.0 127.3 56.0 125.65 57.7 124.0 59.35 124.0 61.0 124.0 62.1 124.85 62.7 L126.75 63.6 Q129.5 65.1 129.5 69.9 L129.0 83.05 Q132.5 82.4 134.6 84.7 135.7 85.9 136.05 87.25 L134.15 91.25 133.4 91.2 133.0 91.0 133.0 96.0 134.3 97.6 Q134.3 103.3 136.0 105.0 138.25 107.25 146.2 107.25 146.85 107.25 147.3 106.15 147.75 105.0 148.0 105.0 151.35 105.0 152.8 106.25 153.95 107.3 153.95 109.4 153.95 115.95 151.0 117.0 152.55 119.05 152.5 122.7 152.5 124.35 151.75 125.4 151.0 126.5 151.0 127.5 151.0 128.8 151.65 129.25 152.3 129.7 152.3 131.25 152.3 133.2 155.05 140.25 155.05 140.9 154.65 141.4 L154.0 142.0 154.25 142.75 Q155.5 143.15 161.65 146.2 167.25 149.0 168.0 149.0 M59.0 180.5 Q59.0 179.45 60.4 178.75 61.75 178.0 63.7 178.0 65.65 178.0 67.05 178.75 68.4 179.45 68.4 180.5 68.4 181.55 67.05 182.3 65.65 183.0 63.7 183.0 61.75 183.0 60.4 182.3 59.0 181.55 59.0 180.5" fill="#ff0000" fill-rule="evenodd" stroke="none"/>
  </g>
</svg>
