<?xml version="1.0" encoding="UTF-8" standalone="no"?>
<svg xmlns:xlink="http://www.w3.org/1999/xlink" height="39.0px" width="40.25px" xmlns="http://www.w3.org/2000/svg">
  <g transform="matrix(1.0, 0.0, 0.0, 1.0, 0.0, -1.0)">
    <path d="M39.0 10.0 Q40.75 16.25 40.05 25.0 L40.0 26.0 40.05 27.0 Q40.7 32.2 36.0 32.0 L35.85 32.55 Q34.05 33.05 33.0 34.0 L32.15 34.25 Q27.85 37.35 22.0 39.0 L22.0 40.0 21.0 40.0 19.0 40.0 19.0 39.5 Q16.9 39.65 17.0 38.0 L16.1 37.8 Q11.0 35.5 6.0 33.0 L5.15 32.75 Q4.0 32.0 3.0 31.0 L2.0 31.0 1.0 31.0 0.0 31.0 0.0 30.0 0.0 11.0 1.0 11.0 1.0 10.0 3.05 9.15 4.0 9.0 4.0 8.0 Q12.0 5.0 19.1 1.2 L20.0 1.0 Q26.9 3.1 32.8 6.4 L33.0 7.0 Q36.0 8.0 38.8 9.4 L39.0 10.0" fill="#ff0000" fill-rule="evenodd" stroke="none"/>
  </g>
</svg>
