<?xml version="1.0" encoding="UTF-8" standalone="no"?>
<svg xmlns:xlink="http://www.w3.org/1999/xlink" height="39.0px" width="41.0px" xmlns="http://www.w3.org/2000/svg">
  <g transform="matrix(1.0, 0.0, 0.0, 1.0, 0.0, -1.0)">
    <path d="M41.0 11.0 L41.0 12.0 41.0 32.0 40.15 32.25 Q29.85 38.85 19.0 40.0 L18.05 39.85 16.0 39.0 15.15 38.75 13.0 37.0 12.05 36.85 10.0 36.0 9.1 35.8 1.0 31.0 0.0 31.0 0.0 30.0 0.0 10.0 1.0 10.0 Q6.85 8.35 11.15 5.25 11.5 5.0 12.0 5.0 L13.0 5.0 13.0 4.0 Q16.85 3.35 19.2 1.25 L20.0 1.0 Q26.9 3.1 32.8 6.4 L33.0 7.0 34.8 7.4 35.0 8.0 36.0 8.0 Q38.05 9.45 40.85 10.45 L41.0 11.0" fill="#ff0000" fill-rule="evenodd" stroke="none"/>
  </g>
</svg>
