<?xml version="1.0" encoding="UTF-8" standalone="no"?>
<svg xmlns:xlink="http://www.w3.org/1999/xlink" height="22.0px" width="40.5px" xmlns="http://www.w3.org/2000/svg">
  <g transform="matrix(1.0, 0.0, 0.0, 1.0, 0.0, -1.0)">
    <path d="M40.0 11.0 L40.5 11.0 Q35.2 18.2 25.0 21.0 L24.85 21.55 Q23.05 22.05 22.0 23.0 L21.05 22.85 Q14.9 21.1 10.0 18.0 L9.15 17.75 7.0 16.0 6.1 15.8 Q5.5 15.5 5.0 15.0 L4.0 14.9 Q2.0 14.5 1.0 13.0 L0.0 13.0 0.0 12.0 0.0 10.0 1.0 10.0 1.0 9.0 2.0 9.0 3.0 9.0 Q12.35 5.85 20.15 1.2 L21.0 1.0 39.8 10.4 Q40.0 10.5 40.0 11.0" fill="#ff0000" fill-rule="evenodd" stroke="none"/>
  </g>
</svg>
