<?xml version="1.0" encoding="UTF-8" standalone="no"?>
<svg xmlns:xlink="http://www.w3.org/1999/xlink" height="45.1px" width="70.45px" xmlns="http://www.w3.org/2000/svg">
  <g transform="matrix(1.0, 0.0, 0.0, 1.0, -5.0, -4.0)">
    <path d="M56.0 18.0 Q63.3 24.7 71.75 30.35 L72.0 31.0 72.85 31.2 Q78.45 34.5 72.0 37.0 L72.2 37.9 Q75.0 44.0 66.0 49.0 L65.85 48.05 Q63.45 41.9 57.0 44.0 L56.75 44.7 Q46.7 52.3 46.0 39.0 L46.0 40.0 45.75 40.65 Q41.65 43.65 39.0 48.0 L38.05 48.1 Q32.45 49.4 30.0 49.0 29.5 49.0 29.4 48.8 24.8 39.7 15.0 36.0 L14.85 35.05 Q12.25 28.45 7.0 26.0 L6.25 25.75 5.0 24.0 Q4.85 10.0 17.1 15.8 L18.0 16.0 18.0 15.0 18.0 14.0 Q19.1 8.55 29.0 11.5 L29.0 11.0 28.05 10.85 Q25.55 9.95 25.0 7.0 25.5 6.5 26.1 6.2 L27.0 6.0 27.0 5.0 Q32.9 2.3 36.3 6.75 L37.0 7.0 Q46.85 7.05 52.75 15.15 L53.0 16.0 Q54.7 16.3 55.4 17.8 L56.0 18.0" fill="#ff0000" fill-rule="evenodd" stroke="none"/>
  </g>
</svg>
