<?xml version="1.0" encoding="UTF-8" standalone="no"?>
<svg xmlns:xlink="http://www.w3.org/1999/xlink" height="156.8px" width="61.0px" xmlns="http://www.w3.org/2000/svg">
  <g transform="matrix(1.0, 0.0, 0.0, 1.0, 0.0, -2.2)">
    <path d="M45.25 5.9 L45.0 6.0 46.0 9.05 Q47.0 12.4 47.0 14.55 47.0 20.35 44.4 25.9 41.55 32.1 35.0 39.0 36.35 41.1 40.45 42.7 45.15 44.55 49.0 43.5 45.05 46.45 43.9 48.15 42.0 50.9 42.0 55.5 L42.6 61.05 43.2 65.85 43.5 67.05 Q43.6 67.5 43.0 67.5 42.15 67.5 41.2 70.95 40.4 73.9 40.4 74.85 L42.0 84.0 Q42.0 85.45 40.7 89.55 39.15 94.3 37.2 97.8 35.35 101.1 33.9 101.15 L33.2 101.15 Q33.0 101.2 33.0 102.0 33.0 106.2 36.05 106.95 L42.0 107.0 Q43.45 107.0 45.5 108.0 L47.5 109.0 48.75 109.05 48.7 110.35 48.5 112.0 Q48.5 112.5 49.25 112.95 L50.0 113.75 45.0 129.5 Q45.0 133.75 50.25 136.3 L61.0 141.0 61.0 144.0 Q55.8 144.95 45.1 151.0 40.35 153.7 32.0 159.0 L30.0 159.0 29.8 158.4 0.0 144.0 0.0 140.0 2.0 140.0 Q3.9 138.3 9.6 135.35 14.25 132.95 15.05 131.3 L17.4 126.15 Q17.8 124.9 17.8 122.35 17.8 119.85 19.9 114.75 22.0 109.6 22.0 108.0 22.0 107.4 18.95 102.65 15.45 97.3 14.35 93.9 14.05 92.85 12.25 91.7 10.35 90.55 9.3 90.95 L8.0 91.0 Q8.7 90.3 14.4 86.6 L19.95 83.1 Q20.4 82.6 21.6 77.35 22.65 72.8 25.0 72.0 24.0 71.35 23.0 70.0 L19.65 72.15 Q19.0 72.85 19.0 75.5 17.7 75.3 17.15 74.3 16.65 73.4 16.65 71.6 16.65 71.1 17.35 70.3 L18.0 69.0 Q18.0 67.55 17.2 64.35 16.0 62.0 16.0 61.0 L17.75 57.7 19.85 52.75 21.0 49.0 18.35 45.85 Q15.6 42.25 15.0 37.0 19.3 34.9 20.9 28.9 22.0 21.95 23.0 19.0 25.7 18.65 29.35 15.45 33.65 11.65 34.45 7.15 L35.0 7.0 Q36.7 7.8 37.65 7.8 38.9 7.8 41.0 5.0 43.1 2.2 44.0 2.2 44.65 2.2 45.2 2.65 L46.7 4.0 Q45.75 5.65 45.25 5.9" fill="#ff0000" fill-opacity="0.7058824" fill-rule="evenodd" stroke="none"/>
  </g>
</svg>
