<?xml version="1.0" encoding="UTF-8" standalone="no"?>
<svg xmlns:xlink="http://www.w3.org/1999/xlink" height="116.25px" width="71.05px" xmlns="http://www.w3.org/2000/svg">
  <g transform="matrix(1.0, 0.0, 0.0, 1.0, -1.0, -2.0)">
    <path d="M65.75 15.25 L66.0 16.0 67.85 20.05 68.0 21.0 Q69.75 24.25 68.5 29.9 L68.0 30.0 67.0 30.0 67.0 47.0 67.0 48.0 67.0 49.0 67.0 50.0 67.0 59.0 67.0 60.0 67.0 67.0 67.0 68.0 67.0 77.0 67.0 78.0 67.0 79.0 67.0 80.0 67.0 81.0 67.0 82.0 67.75 82.25 68.0 83.0 Q68.5 83.0 68.75 83.25 L69.0 84.0 Q70.75 86.25 69.55 90.9 L69.0 91.0 69.0 92.0 Q69.5 92.5 70.1 92.8 L71.0 93.0 Q72.75 95.75 71.55 100.9 L71.0 101.0 70.75 101.75 70.0 102.0 70.0 103.0 69.85 103.55 67.0 104.0 66.9 104.55 Q62.25 105.75 60.0 104.0 L59.15 103.75 57.0 102.0 56.45 101.9 Q56.0 100.0 56.0 98.0 L55.1 98.2 Q52.95 99.45 50.0 100.0 L49.8 100.6 Q49.0 101.0 48.0 101.0 L47.75 101.75 47.0 102.0 Q46.5 102.0 46.25 102.25 45.0 103.5 43.0 104.0 L42.0 104.0 42.0 105.0 43.75 107.15 44.0 108.0 Q45.75 110.75 44.55 115.9 L44.0 116.0 43.05 116.15 Q42.0 116.5 41.0 117.0 L40.1 117.2 Q39.5 117.5 39.0 118.0 L38.0 118.0 37.0 118.0 36.0 118.1 Q32.3 118.7 31.0 117.0 L31.0 116.0 Q30.5 116.0 30.4 115.8 30.0 115.0 30.0 114.0 L29.25 113.75 Q29.0 113.5 29.0 113.0 L28.5 112.9 Q28.0 110.0 28.0 107.0 L29.0 107.0 29.0 106.0 Q30.0 106.0 30.8 105.6 31.0 105.5 31.0 105.0 L30.85 104.45 Q27.15 103.35 25.0 101.0 L24.0 100.9 Q22.0 100.5 21.0 99.0 L20.0 99.0 19.0 99.0 Q18.5 99.0 18.4 99.2 17.5 101.0 16.0 102.0 L15.75 102.8 Q14.7 104.2 12.0 104.0 L11.0 104.0 9.0 104.0 8.0 104.0 7.05 104.1 Q4.9 104.65 5.0 103.0 L4.05 102.85 Q3.0 102.5 2.0 102.0 L1.5 101.95 Q1.0 98.5 1.0 95.0 L2.0 95.0 2.0 94.0 3.75 91.85 4.0 91.0 3.25 90.75 3.0 90.0 2.5 89.9 Q2.0 87.0 2.0 84.0 L3.0 84.0 3.0 83.0 Q5.1 83.65 5.45 82.1 L6.0 82.0 6.0 81.0 6.0 53.0 6.0 52.0 6.0 40.0 6.0 39.0 6.0 38.0 6.0 30.0 5.1 29.8 4.0 29.0 3.5 28.95 Q3.0 25.0 3.0 21.0 L4.0 21.0 4.0 20.0 5.0 20.0 6.0 20.0 6.0 19.0 6.0 18.0 Q7.7 17.7 7.5 15.0 L8.0 15.0 10.0 15.0 11.0 15.0 Q11.5 15.0 11.75 15.25 L12.0 16.0 Q13.7 16.3 13.1 19.0 L13.0 20.0 14.0 20.0 Q17.2 19.7 18.4 17.2 18.5 17.0 19.0 17.0 L19.0 16.0 Q20.95 15.95 22.15 15.25 L23.0 15.0 23.0 14.0 24.0 14.0 24.0 13.0 24.0 12.0 24.0 11.0 Q25.65 11.15 25.5 9.0 L26.0 9.0 26.0 8.0 27.0 8.0 27.0 7.0 27.0 6.0 28.0 6.0 29.0 6.0 29.0 5.0 30.0 5.0 Q32.0 4.5 33.25 3.25 33.5 3.0 34.0 3.0 L34.0 2.0 37.0 2.0 38.0 2.0 Q38.5 2.0 38.75 2.25 L39.0 3.0 Q39.65 5.35 41.8 6.4 L42.0 7.0 Q46.45 7.6 47.85 11.05 L48.0 12.0 50.0 12.0 51.0 12.0 51.75 12.25 52.0 13.0 53.8 16.1 54.0 17.0 56.75 19.25 57.0 20.0 58.0 20.0 60.0 20.0 61.0 20.0 61.0 19.0 61.0 16.0 62.0 16.0 62.0 15.0 64.0 15.0 65.0 15.0 Q65.5 15.0 65.75 15.25 M14.0 30.0 L13.0 30.0 13.0 45.0 13.0 46.0 13.0 52.0 13.0 53.0 13.0 76.0 13.0 77.0 13.0 78.0 Q18.85 76.35 23.15 73.25 L24.0 73.0 23.75 72.15 Q23.05 70.95 23.0 69.0 L22.45 68.85 Q22.0 67.5 22.0 66.0 L21.5 65.95 Q21.0 62.0 21.0 58.0 L22.0 58.0 22.0 57.0 22.0 56.0 22.0 55.0 22.0 50.0 23.0 50.0 23.0 49.0 23.0 48.0 23.0 47.0 23.0 42.0 24.0 42.0 24.0 41.0 24.0 40.0 Q25.65 40.15 25.1 37.95 L25.0 37.0 25.0 36.0 24.05 36.1 Q21.9 36.65 22.0 35.0 L21.0 34.9 Q19.0 34.5 18.0 33.0 L17.25 32.75 Q17.0 32.5 17.0 32.0 L16.25 31.75 15.0 30.0 14.0 30.0 M60.0 30.0 L59.0 30.0 58.0 30.0 Q58.0 30.5 57.8 30.6 57.0 31.0 56.0 31.0 L55.75 31.75 55.0 32.0 54.75 32.85 Q53.55 34.55 51.0 35.0 L50.8 35.6 Q50.0 36.0 49.0 36.0 L49.0 39.0 49.0 40.0 49.0 41.0 49.0 42.0 Q50.7 43.3 50.1 47.0 L50.0 48.0 50.0 49.0 50.0 50.0 Q51.35 51.65 51.05 55.0 L51.0 56.0 51.0 57.0 51.0 58.0 Q52.75 61.25 51.5 66.9 L51.0 67.0 51.0 68.0 50.9 69.0 Q50.5 71.0 49.0 72.0 L49.8 73.1 50.0 74.0 Q54.0 75.5 57.8 77.4 58.0 77.5 58.0 78.0 L59.0 78.0 Q60.75 66.75 60.05 53.0 L60.0 52.0 60.0 51.0 60.0 30.0" fill="#ff0000" fill-rule="evenodd" stroke="none"/>
  </g>
</svg>
