<?xml version="1.0" encoding="UTF-8" standalone="no"?>
<svg xmlns:xlink="http://www.w3.org/1999/xlink" height="56.65px" width="60.5px" xmlns="http://www.w3.org/2000/svg">
  <g transform="matrix(1.0, 0.0, 0.0, 1.0, 0.0, -1.35)">
    <path d="M44.75 11.65 Q47.0 12.2 47.0 16.05 47.0 17.75 45.95 18.75 44.65 19.65 44.1 20.05 42.05 21.55 44.8 26.1 L47.5 29.25 Q49.3 31.2 49.3 32.25 49.3 35.85 54.6 38.75 58.7 41.0 60.5 41.0 56.5 46.8 46.55 52.3 36.3 58.0 29.0 58.0 26.7 58.0 23.1 56.95 19.5 55.85 17.15 54.45 L15.35 53.5 Q14.05 52.5 14.0 51.0 L6.7 47.4 Q0.0 43.95 0.0 42.5 0.0 41.4 5.8 38.6 11.9 35.65 12.55 33.95 L15.1 29.8 Q17.0 26.75 17.0 25.0 L18.0 24.85 19.4 25.25 20.0 26.0 20.5 24.75 20.85 23.35 Q21.3 21.05 21.2 20.15 L18.0 10.0 Q19.35 8.9 22.6 7.15 25.65 5.5 26.0 5.5 28.85 5.5 29.5 3.45 30.15 1.35 34.3 1.35 36.7 1.35 39.3 2.75 42.5 4.5 42.5 7.0 42.5 11.05 44.75 11.65" fill="#ff0000" fill-opacity="0.98039216" fill-rule="evenodd" stroke="none"/>
  </g>
</svg>
