<?xml version="1.0" encoding="UTF-8" standalone="no"?>
<svg xmlns:xlink="http://www.w3.org/1999/xlink" height="152.0px" width="158.25px" xmlns="http://www.w3.org/2000/svg">
  <g transform="matrix(1.0, 0.0, 0.0, 1.0, 0.0, 0.0)">
    <path d="M132.25 7.0 Q134.4 9.85 136.05 13.1 L136.25 14.0 Q137.75 15.0 138.15 17.0 L138.25 18.0 139.0 18.25 139.25 19.0 Q140.75 20.0 141.15 22.0 L141.25 23.0 Q142.75 24.0 143.15 26.0 L143.25 27.0 Q146.15 31.1 148.1 36.05 L148.25 37.0 148.75 37.0 Q147.4 44.65 143.25 50.0 L143.25 51.0 143.25 54.0 143.25 55.0 143.25 56.0 143.25 57.0 143.25 58.0 Q144.6 59.65 144.3 63.0 L144.25 64.0 Q145.45 65.3 145.3 68.0 L145.25 69.0 145.25 71.0 145.25 72.0 Q146.95 73.75 146.3 78.0 L146.25 79.0 146.25 85.0 146.25 86.0 Q147.95 87.3 147.35 91.0 L147.25 92.0 147.25 93.0 147.25 94.0 Q150.15 94.1 151.55 95.75 151.75 96.0 152.25 96.0 L153.0 96.25 153.25 97.0 Q155.2 97.05 156.0 98.15 L156.25 99.0 157.05 100.1 157.25 101.0 158.25 101.0 158.25 106.0 158.25 107.0 157.25 107.0 157.25 108.0 157.15 109.0 Q156.55 111.8 154.25 113.0 L154.0 113.75 152.25 115.0 152.0 115.85 Q150.8 117.55 148.25 118.0 L147.25 118.0 145.25 118.0 144.35 117.8 143.25 117.0 142.35 116.8 Q139.4 115.35 137.25 113.0 L136.75 113.0 Q136.9 110.9 135.25 111.0 135.25 111.5 135.05 111.6 133.25 112.5 131.25 113.0 L130.25 113.0 Q127.35 112.9 126.25 111.0 L125.35 110.8 124.25 110.0 123.3 109.85 Q121.55 109.2 122.25 106.0 L123.25 106.0 123.25 105.0 Q125.15 103.9 125.75 101.1 L126.25 101.0 126.25 100.0 126.25 99.0 Q125.95 84.3 120.25 70.0 L120.25 71.0 120.35 72.0 Q120.95 75.7 119.25 77.0 L119.25 84.0 119.25 85.0 Q120.95 86.75 119.8 90.85 L119.25 91.0 119.05 91.6 117.25 92.0 117.0 92.85 Q116.2 93.95 114.25 94.0 L114.0 94.7 Q111.55 96.8 108.25 98.0 L108.0 98.75 107.25 99.0 Q106.75 99.0 106.5 99.25 104.25 101.45 102.25 99.0 L101.25 98.9 Q99.25 98.5 98.25 97.0 L97.25 96.9 Q94.7 96.55 95.25 93.0 L94.5 92.75 Q94.25 92.5 94.25 92.0 L93.35 91.8 92.25 91.0 91.35 90.8 Q89.35 89.9 89.25 87.0 L89.25 86.0 89.25 84.0 Q88.75 84.0 88.55 84.25 86.4 87.15 83.25 89.0 L83.25 92.0 83.25 93.0 83.25 99.0 83.25 100.0 83.3 101.0 Q84.0 106.25 82.25 109.0 L82.25 113.0 82.25 114.0 82.25 122.0 82.25 123.0 82.25 128.0 82.25 129.0 83.25 129.0 Q90.05 130.7 89.3 140.0 L89.25 141.0 89.1 141.95 Q87.75 145.5 85.25 148.0 L85.0 148.85 Q83.8 150.55 81.25 151.0 L81.25 152.0 80.25 152.0 76.25 152.0 76.25 151.0 75.35 150.8 69.25 147.0 68.75 147.1 Q68.4 148.65 66.25 148.0 L65.25 147.9 Q63.25 147.5 62.25 146.0 L61.3 145.85 59.25 145.0 58.25 144.95 Q54.25 144.5 54.25 140.0 L54.25 139.0 54.25 138.0 Q55.9 138.15 55.75 136.0 L56.25 136.0 56.25 135.0 57.0 134.75 57.25 134.0 57.25 133.0 58.0 132.75 58.25 132.0 58.25 131.0 59.0 130.75 59.25 130.0 59.15 129.05 Q58.2 125.05 58.25 120.0 L57.75 119.9 Q57.25 117.0 57.25 114.0 L57.25 113.0 56.75 112.9 Q56.25 110.0 56.25 107.0 L56.25 106.0 Q55.75 106.0 55.7 106.15 54.1 110.85 51.25 114.0 L51.25 115.0 51.3 116.0 Q52.0 121.75 50.25 125.0 L50.0 125.8 Q48.2 127.95 45.25 129.0 44.75 129.0 44.7 129.15 43.95 131.2 41.25 131.0 L41.05 131.6 Q40.25 132.0 39.25 132.0 38.75 132.0 38.65 132.2 37.95 133.7 35.25 133.0 L34.25 132.9 Q32.25 132.5 31.25 131.0 L30.3 130.85 Q25.7 129.55 24.25 125.0 L23.5 124.75 21.25 122.0 21.25 121.0 20.75 120.9 Q20.25 118.0 20.25 115.0 L21.25 115.0 21.25 114.0 22.25 114.0 22.25 113.0 22.25 112.0 23.25 112.0 23.25 111.0 23.25 110.0 24.25 110.0 24.25 109.0 24.25 108.0 24.25 107.0 Q25.75 106.0 27.35 105.2 L28.25 105.0 29.25 105.0 30.25 105.0 31.25 105.0 31.25 104.0 Q35.9 103.15 35.3 97.0 L35.25 96.0 35.25 95.0 35.25 94.0 Q36.95 93.7 36.35 91.0 L36.25 90.0 36.25 89.0 37.05 87.9 37.25 87.0 37.25 86.0 37.25 85.0 37.25 84.0 37.25 83.0 37.25 80.0 37.05 79.1 36.25 78.0 35.55 77.75 Q33.75 75.7 32.65 73.0 L32.25 73.0 32.05 72.1 32.0 72.0 31.5 71.75 Q31.25 71.5 31.25 71.0 L30.75 70.9 Q30.25 68.0 30.25 65.0 L31.25 65.0 31.25 64.0 31.25 61.0 31.25 60.95 31.0 60.25 30.25 60.0 30.0 60.75 26.25 64.0 25.25 64.0 25.0 64.75 20.25 69.0 19.25 68.95 Q15.4 68.35 13.25 66.0 L12.35 65.8 11.25 65.0 10.35 64.8 9.25 64.0 8.25 63.9 Q6.25 63.5 5.25 62.0 4.75 62.0 4.65 61.8 1.85 56.9 1.25 50.0 L1.0 49.25 Q-0.45 47.7 0.25 44.0 L0.25 43.0 0.25 42.0 0.25 40.0 Q1.95 39.7 1.35 37.0 L1.25 36.0 1.25 35.0 1.25 33.0 2.25 33.0 2.25 32.0 2.25 30.0 2.25 29.0 2.25 26.0 2.25 25.0 2.25 21.0 3.0 20.75 3.25 20.0 3.25 19.0 3.25 14.0 3.25 13.0 3.25 11.0 2.75 10.95 Q2.25 6.0 2.25 1.0 L3.25 1.0 4.0 1.25 4.25 2.0 11.05 5.4 11.25 6.0 Q12.3 6.95 14.1 7.45 L14.25 8.0 Q16.25 8.5 18.05 9.4 18.25 9.5 18.25 10.0 L19.25 10.0 20.25 10.0 22.3 10.85 23.25 11.0 24.35 11.8 25.25 12.0 Q26.25 12.0 27.05 12.4 27.25 12.5 27.25 13.0 40.15 18.1 52.05 24.4 L52.25 25.0 53.25 25.0 Q56.55 23.8 59.35 22.2 L60.25 22.0 60.25 21.0 61.25 21.0 62.25 21.0 62.25 20.0 Q64.2 19.95 65.4 19.25 65.75 19.0 66.25 19.0 L66.25 18.0 67.25 18.0 68.25 18.0 68.25 17.0 Q70.2 16.95 71.4 16.25 71.75 16.0 72.25 16.0 L72.25 15.0 Q76.3 14.05 79.4 12.2 L80.25 12.0 80.25 11.0 Q83.45 10.7 85.45 9.25 L86.25 9.0 86.25 8.0 Q89.15 7.9 90.55 6.25 90.75 6.0 91.25 6.0 L91.25 5.0 Q93.4 5.6 93.75 4.1 L94.25 4.0 94.25 3.0 Q97.2 2.45 99.0 0.75 L99.25 0.0 105.25 0.0 106.25 0.0 108.25 0.0 109.25 0.0 114.25 0.0 115.25 0.0 115.25 1.0 116.25 1.0 117.25 1.0 119.25 1.0 120.25 1.0 126.15 1.5 126.25 2.0 127.25 2.0 128.25 2.0 Q130.4 1.4 130.3 3.0 L130.25 4.0 132.0 6.15 132.25 7.0" fill="#ff0000" fill-rule="evenodd" stroke="none"/>
  </g>
</svg>
