<?xml version="1.0" encoding="UTF-8" standalone="no"?>
<svg xmlns:xlink="http://www.w3.org/1999/xlink" height="91.0px" width="71.0px" xmlns="http://www.w3.org/2000/svg">
  <g transform="matrix(1.0, 0.0, 0.0, 1.0, 0.0, -2.0)">
    <path d="M55.0 24.0 Q57.15 23.4 57.45 24.9 L58.0 25.0 Q67.2 25.5 61.45 30.35 62.5 30.55 62.05 34.0 L62.0 35.0 Q62.0 36.0 62.4 36.8 62.5 37.0 63.0 37.0 L63.0 36.0 63.0 34.0 Q64.7 33.7 64.5 31.0 L65.0 31.0 65.0 30.0 Q69.25 29.25 70.4 31.8 L71.0 32.0 71.0 33.0 70.0 33.0 69.9 34.0 Q67.85 43.35 64.0 51.0 L64.0 52.0 63.8 52.9 Q61.0 59.5 59.0 67.0 L59.0 68.0 59.0 69.0 59.0 71.0 59.0 72.0 Q57.3 74.65 57.65 78.15 58.65 89.1 55.0 75.0 L54.85 75.95 Q54.15 78.15 52.0 79.0 51.5 79.0 51.4 79.2 50.7 80.7 49.0 81.0 51.35 82.65 51.15 84.8 50.35 92.7 44.0 85.0 L43.75 84.15 42.0 82.0 41.0 81.9 Q36.45 81.05 36.0 76.0 L35.25 75.75 Q35.0 75.5 35.0 75.0 L34.0 75.0 Q34.8 80.3 31.2 79.7 L14.0 79.0 13.0 79.0 Q13.05 80.95 14.15 81.75 L15.0 82.0 Q20.0 84.5 25.1 86.8 L26.0 87.0 26.0 86.0 26.0 85.0 Q29.95 84.55 31.75 86.25 L32.0 87.0 33.1 87.8 34.0 88.0 33.85 88.55 Q23.4 91.5 14.0 83.0 L13.1 83.2 Q5.7 86.6 3.0 76.0 L3.75 75.75 4.0 75.0 3.9 74.0 2.0 64.0 Q8.55 63.05 10.45 57.15 L11.0 57.0 11.0 56.0 12.0 56.0 13.0 56.0 13.0 55.0 13.0 53.0 13.0 52.0 13.0 45.0 14.0 45.0 14.0 44.0 13.5 43.9 Q11.8 33.2 4.0 29.0 L3.0 29.0 0.0 29.0 0.0 28.0 Q2.2 27.7 2.5 25.05 L3.0 25.0 3.0 24.0 Q8.4 14.45 11.85 25.05 L12.0 26.0 13.1 26.8 14.0 27.0 Q15.65 26.9 15.5 29.0 L16.0 29.0 Q18.0 27.0 18.0 23.0 L18.0 22.0 18.0 21.0 18.0 20.0 Q25.05 21.95 30.15 18.25 L31.0 18.0 31.0 17.0 31.0 16.0 Q35.8 10.85 34.05 6.95 L36.0 7.0 Q39.35 -2.95 38.05 7.0 L38.0 8.0 38.0 9.0 Q44.85 4.15 40.25 9.25 40.0 9.5 40.0 10.0 45.4 18.6 54.8 23.4 55.0 23.5 55.0 24.0 M60.0 33.0 L60.0 32.0 60.0 31.5 Q58.3 32.7 60.0 33.0 M38.0 89.0 Q40.95 91.0 38.8 92.75 L38.0 93.0 37.4 92.8 Q36.5 91.0 36.0 89.0 L35.25 88.75 Q35.0 88.5 35.0 88.0 L34.9 87.45 Q33.4 87.15 34.0 85.0 37.75 84.75 37.95 88.0 L38.0 89.0" fill="#ff0000" fill-rule="evenodd" stroke="none"/>
  </g>
</svg>
