<?xml version="1.0" encoding="UTF-8" standalone="no"?>
<svg xmlns:xlink="http://www.w3.org/1999/xlink" height="61.0px" width="313.0px" xmlns="http://www.w3.org/2000/svg">
  <g transform="matrix(1.0, 0.0, 0.0, 1.0, 0.5, 0.5)">
    <path d="M287.4 1.65 L287.75 1.5 Q287.95 1.5 288.1 1.65 L288.25 2.0 288.1 2.35 287.75 2.5 287.4 2.35 287.25 2.0 287.4 1.65 M288.1 5.65 L288.25 6.0 288.1 6.35 287.75 6.5 287.4 6.35 287.25 6.0 287.4 5.65 287.75 5.5 Q287.95 5.5 288.1 5.65 M287.4 9.65 L287.75 9.5 Q287.95 9.5 288.1 9.65 L288.25 10.0 288.1 10.35 287.75 10.5 287.4 10.35 287.25 10.0 287.4 9.65 M287.4 13.65 L287.75 13.5 Q287.95 13.5 288.1 13.65 L288.25 14.0 288.1 14.35 287.75 14.5 287.4 14.35 287.25 14.0 287.4 13.65 M288.1 17.65 L288.25 18.0 288.1 18.35 287.75 18.5 287.4 18.35 287.25 18.0 287.4 17.65 287.75 17.5 Q287.95 17.5 288.1 17.65 M287.4 21.65 L287.75 21.5 Q287.95 21.5 288.1 21.65 L288.25 22.0 288.1 22.35 287.75 22.5 287.4 22.35 287.25 22.0 287.4 21.65 M287.4 25.65 L287.75 25.5 Q287.95 25.5 288.1 25.65 L288.25 26.0 288.1 26.35 287.75 26.5 287.4 26.35 287.25 26.0 287.4 25.65 M288.1 29.65 L288.25 30.0 288.1 30.35 287.75 30.5 287.4 30.35 287.25 30.0 287.4 29.65 287.75 29.5 Q287.95 29.5 288.1 29.65 M288.1 33.65 L288.25 34.0 288.1 34.35 287.75 34.5 287.4 34.35 287.25 34.0 287.4 33.65 287.75 33.5 Q287.95 33.5 288.1 33.65 M287.4 37.65 L287.75 37.5 Q287.95 37.5 288.1 37.65 L288.25 38.0 288.1 38.35 287.75 38.5 287.4 38.35 287.25 38.0 287.4 37.65 M288.1 41.65 L288.25 42.0 288.1 42.35 287.75 42.5 287.4 42.35 287.25 42.0 287.4 41.65 287.75 41.5 Q287.95 41.5 288.1 41.65 M288.1 45.65 L288.25 46.0 288.1 46.35 287.75 46.5 287.4 46.35 287.25 46.0 287.4 45.65 287.75 45.5 Q287.95 45.5 288.1 45.65 M287.4 49.65 L287.75 49.5 Q287.95 49.5 288.1 49.65 L288.25 50.0 288.1 50.35 287.75 50.5 287.4 50.35 287.25 50.0 287.4 49.65" fill="#999999" fill-rule="evenodd" stroke="none"/>
    <path d="M312.0 60.0 L0.0 60.0 0.0 0.0 312.0 0.0 312.0 60.0" fill="#ffffff" fill-rule="evenodd" stroke="none"/>
    <path d="M312.0 60.0 L0.0 60.0 0.0 0.0 312.0 0.0 312.0 60.0 Z" fill="none" stroke="#876b01" stroke-linecap="round" stroke-linejoin="round" stroke-opacity="0.49803922" stroke-width="1.0"/>
  </g>
</svg>
