<?xml version="1.0" encoding="UTF-8" standalone="no"?>
<svg xmlns:xlink="http://www.w3.org/1999/xlink" height="46.0px" width="382.0px" xmlns="http://www.w3.org/2000/svg">
  <g transform="matrix(1.0, 0.0, 0.0, 1.0, 0.5, 0.5)">
    <path d="M375.15 5.85 Q381.0 11.7 381.0 20.0 L381.0 25.0 Q381.0 33.3 375.15 39.15 369.3 45.0 361.0 45.0 L20.0 45.0 Q11.7 45.0 5.85 39.15 0.0 33.3 0.0 25.0 L0.0 20.0 Q0.0 11.7 5.85 5.85 11.7 0.0 20.0 0.0 L361.0 0.0 Q369.3 0.0 375.15 5.85" fill="#000000" fill-opacity="0.7058824" fill-rule="evenodd" stroke="none"/>
    <path d="M375.15 5.85 Q369.3 0.0 361.0 0.0 L20.0 0.0 Q11.7 0.0 5.85 5.85 0.0 11.7 0.0 20.0 L0.0 25.0 Q0.0 33.3 5.85 39.15 11.7 45.0 20.0 45.0 L361.0 45.0 Q369.3 45.0 375.15 39.15 381.0 33.3 381.0 25.0 L381.0 20.0 Q381.0 11.7 375.15 5.85 Z" fill="none" stroke="#000000" stroke-linecap="round" stroke-linejoin="round" stroke-width="1.0"/>
  </g>
</svg>
