<?xml version="1.0" encoding="UTF-8" standalone="no"?>
<svg xmlns:xlink="http://www.w3.org/1999/xlink" height="16.0px" width="135.1px" xmlns="http://www.w3.org/2000/svg">
  <g transform="matrix(1.0, 0.0, 0.0, 1.0, 0.3, 0.45)">
    <path d="M134.3 12.05 Q134.3 15.05 130.05 15.05 L4.45 15.05 Q0.2 15.05 0.2 12.05 L0.2 3.05 Q0.2 0.05 4.45 0.05 L130.05 0.05 Q134.3 0.05 134.3 3.05 L134.3 12.05" fill="url(#gradient0)" fill-rule="evenodd" stroke="none"/>
    <path d="M134.3 12.05 L134.3 3.05 Q134.3 0.05 130.05 0.05 L4.45 0.05 Q0.2 0.05 0.2 3.05 L0.2 12.05 Q0.2 15.05 4.45 15.05 L130.05 15.05 Q134.3 15.05 134.3 12.05 Z" fill="none" stroke="url(#gradient1)" stroke-linecap="round" stroke-linejoin="round" stroke-width="1.0"/>
  </g>
  <defs>
    <linearGradient gradientTransform="matrix(-2.0E-4, -0.0092, 0.0138, -1.0E-4, 67.25, 7.55)" gradientUnits="userSpaceOnUse" id="gradient0" spreadMethod="pad" x1="-819.2" x2="819.2">
      <stop offset="0.0" stop-color="#d9d9d9"/>
      <stop offset="1.0" stop-color="#f7f7f7"/>
    </linearGradient>
    <linearGradient gradientTransform="matrix(0.081, 0.0, 0.0, 0.0098, 66.55, 8.05)" gradientUnits="userSpaceOnUse" id="gradient1" spreadMethod="pad" x1="-819.2" x2="819.2">
      <stop offset="0.0" stop-color="#666666"/>
      <stop offset="1.0" stop-color="#aaaaaa"/>
    </linearGradient>
  </defs>
</svg>
