<?xml version="1.0" encoding="UTF-8" standalone="no"?>
<svg xmlns:xlink="http://www.w3.org/1999/xlink" height="177.0px" width="301.3px" xmlns="http://www.w3.org/2000/svg">
  <g transform="matrix(1.0, 0.0, 0.0, 1.0, 0.5, 0.5)">
    <path d="M8.65 -0.35 L8.8 0.0 8.65 0.35 8.3 0.5 7.95 0.35 7.8 0.0 7.95 -0.35 8.3 -0.5 8.65 -0.35 M4.65 -0.35 L4.8 0.0 4.65 0.35 4.3 0.5 3.95 0.35 3.8 0.0 3.95 -0.35 4.3 -0.5 4.65 -0.35 M0.65 -0.35 L0.8 0.0 0.65 0.35 0.3 0.5 Q0.1 0.5 -0.05 0.35 L-0.2 0.0 -0.05 -0.35 Q0.1 -0.5 0.3 -0.5 L0.65 -0.35 M16.65 -0.35 L16.8 0.0 16.65 0.35 16.3 0.5 15.95 0.35 15.8 0.0 15.95 -0.35 16.3 -0.5 16.65 -0.35 M12.65 -0.35 L12.8 0.0 12.65 0.35 12.3 0.5 11.95 0.35 11.8 0.0 11.95 -0.35 12.3 -0.5 12.65 -0.35 M20.65 -0.35 L20.8 0.0 20.65 0.35 20.3 0.5 19.95 0.35 19.8 0.0 19.95 -0.35 20.3 -0.5 20.65 -0.35 M24.3 -0.5 L24.65 -0.35 24.8 0.0 24.65 0.35 24.3 0.5 23.95 0.35 23.8 0.0 23.95 -0.35 24.3 -0.5 M28.3 -0.5 L28.65 -0.35 28.8 0.0 28.65 0.35 28.3 0.5 27.95 0.35 27.8 0.0 27.95 -0.35 28.3 -0.5 M32.3 -0.5 L32.65 -0.35 32.8 0.0 32.65 0.35 32.3 0.5 31.95 0.35 31.8 0.0 31.95 -0.35 32.3 -0.5 M36.3 -0.5 L36.65 -0.35 36.8 0.0 36.65 0.35 36.3 0.5 35.95 0.35 35.8 0.0 35.95 -0.35 36.3 -0.5 M40.3 -0.5 L40.65 -0.35 40.8 0.0 40.65 0.35 40.3 0.5 39.95 0.35 39.8 0.0 39.95 -0.35 40.3 -0.5 M44.3 -0.5 L44.65 -0.35 44.8 0.0 44.65 0.35 44.3 0.5 43.95 0.35 43.8 0.0 43.95 -0.35 44.3 -0.5 M48.65 -0.35 L48.8 0.0 48.65 0.35 48.3 0.5 47.95 0.35 47.8 0.0 47.95 -0.35 48.3 -0.5 48.65 -0.35 M60.65 -0.35 L60.8 0.0 60.65 0.35 60.3 0.5 59.95 0.35 59.8 0.0 59.95 -0.35 60.3 -0.5 60.65 -0.35 M56.65 -0.35 L56.8 0.0 56.65 0.35 56.3 0.5 55.95 0.35 55.8 0.0 55.95 -0.35 56.3 -0.5 56.65 -0.35 M52.65 -0.35 L52.8 0.0 52.65 0.35 52.3 0.5 51.95 0.35 51.8 0.0 51.95 -0.35 52.3 -0.5 52.65 -0.35 M64.3 -0.5 L64.65 -0.35 64.8 0.0 64.65 0.35 64.3 0.5 63.95 0.35 63.8 0.0 63.95 -0.35 64.3 -0.5 M68.3 -0.5 L68.65 -0.35 68.8 0.0 68.65 0.35 68.3 0.5 67.95 0.35 67.8 0.0 67.95 -0.35 68.3 -0.5 M72.3 -0.5 L72.65 -0.35 72.8 0.0 72.65 0.35 72.3 0.5 71.95 0.35 71.8 0.0 71.95 -0.35 72.3 -0.5 M76.3 -0.5 L76.65 -0.35 76.8 0.0 76.65 0.35 76.3 0.5 75.95 0.35 75.8 0.0 75.95 -0.35 76.3 -0.5 M80.3 -0.5 L80.65 -0.35 80.8 0.0 80.65 0.35 80.3 0.5 79.95 0.35 79.8 0.0 79.95 -0.35 80.3 -0.5 M84.3 -0.5 L84.65 -0.35 84.8 0.0 84.65 0.35 84.3 0.5 Q84.1 0.5 83.95 0.35 L83.8 0.0 83.95 -0.35 Q84.1 -0.5 84.3 -0.5 M88.65 -0.35 L88.8 0.0 88.65 0.35 88.3 0.5 87.95 0.35 87.8 0.0 87.95 -0.35 88.3 -0.5 88.65 -0.35 M100.65 -0.35 L100.8 0.0 100.65 0.35 100.3 0.5 99.95 0.35 99.8 0.0 99.95 -0.35 100.3 -0.5 100.65 -0.35 M96.65 -0.35 L96.8 0.0 96.65 0.35 96.3 0.5 95.95 0.35 95.8 0.0 95.95 -0.35 96.3 -0.5 96.65 -0.35 M92.65 -0.35 L92.8 0.0 92.65 0.35 92.3 0.5 91.95 0.35 91.8 0.0 91.95 -0.35 92.3 -0.5 92.65 -0.35 M104.3 -0.5 L104.65 -0.35 104.8 0.0 104.65 0.35 104.3 0.5 103.95 0.35 103.8 0.0 103.95 -0.35 104.3 -0.5 M108.3 -0.5 L108.65 -0.35 108.8 0.0 108.65 0.35 108.3 0.5 107.95 0.35 107.8 0.0 107.95 -0.35 108.3 -0.5 M112.3 -0.5 L112.65 -0.35 112.8 0.0 112.65 0.35 112.3 0.5 111.95 0.35 111.8 0.0 111.95 -0.35 112.3 -0.5 M116.3 -0.5 L116.65 -0.35 116.8 0.0 116.65 0.35 116.3 0.5 115.95 0.35 115.8 0.0 115.95 -0.35 116.3 -0.5 M120.3 -0.5 L120.65 -0.35 120.8 0.0 120.65 0.35 120.3 0.5 119.95 0.35 119.8 0.0 119.95 -0.35 120.3 -0.5 M124.3 -0.5 L124.65 -0.35 124.8 0.0 124.65 0.35 124.3 0.5 123.95 0.35 123.8 0.0 123.95 -0.35 124.3 -0.5 M128.65 -0.35 L128.8 0.0 128.65 0.35 128.3 0.5 127.95 0.35 127.8 0.0 127.95 -0.35 128.3 -0.5 128.65 -0.35 M140.65 -0.35 L140.8 0.0 140.65 0.35 140.3 0.5 139.95 0.35 139.8 0.0 139.95 -0.35 140.3 -0.5 140.65 -0.35 M136.65 -0.35 L136.8 0.0 136.65 0.35 136.3 0.5 135.95 0.35 135.8 0.0 135.95 -0.35 136.3 -0.5 136.65 -0.35 M132.65 -0.35 L132.8 0.0 132.65 0.35 132.3 0.5 131.95 0.35 131.8 0.0 131.95 -0.35 132.3 -0.5 132.65 -0.35 M144.3 -0.5 L144.65 -0.35 144.8 0.0 144.65 0.35 144.3 0.5 143.95 0.35 143.8 0.0 143.95 -0.35 144.3 -0.5 M148.3 -0.5 L148.65 -0.35 148.8 0.0 148.65 0.35 148.3 0.5 147.95 0.35 147.8 0.0 147.95 -0.35 148.3 -0.5 M152.3 -0.5 L152.65 -0.35 152.8 0.0 152.65 0.35 152.3 0.5 151.95 0.35 151.8 0.0 151.95 -0.35 152.3 -0.5 M156.3 -0.5 L156.65 -0.35 156.8 0.0 156.65 0.35 156.3 0.5 155.95 0.35 155.8 0.0 155.95 -0.35 156.3 -0.5 M160.3 -0.5 L160.65 -0.35 160.8 0.0 160.65 0.35 160.3 0.5 159.95 0.35 159.8 0.0 159.95 -0.35 160.3 -0.5 M164.3 -0.5 L164.65 -0.35 164.8 0.0 164.65 0.35 164.3 0.5 163.95 0.35 163.8 0.0 163.95 -0.35 164.3 -0.5 M168.65 -0.35 L168.8 0.0 168.65 0.35 168.3 0.5 Q168.1 0.5 167.95 0.35 L167.8 0.0 167.95 -0.35 Q168.1 -0.5 168.3 -0.5 L168.65 -0.35 M180.65 -0.35 L180.8 0.0 180.65 0.35 180.3 0.5 179.95 0.35 179.8 0.0 179.95 -0.35 180.3 -0.5 180.65 -0.35 M176.65 -0.35 L176.8 0.0 176.65 0.35 176.3 0.5 175.95 0.35 175.8 0.0 175.95 -0.35 176.3 -0.5 176.65 -0.35 M172.65 -0.35 L172.8 0.0 172.65 0.35 172.3 0.5 171.95 0.35 171.8 0.0 171.95 -0.35 172.3 -0.5 172.65 -0.35 M184.3 -0.5 L184.65 -0.35 184.8 0.0 184.65 0.35 184.3 0.5 183.95 0.35 183.8 0.0 183.95 -0.35 184.3 -0.5 M188.3 -0.5 L188.65 -0.35 188.8 0.0 188.65 0.35 188.3 0.5 187.95 0.35 187.8 0.0 187.95 -0.35 188.3 -0.5 M192.3 -0.5 L192.65 -0.35 192.8 0.0 192.65 0.35 192.3 0.5 191.95 0.35 191.8 0.0 191.95 -0.35 192.3 -0.5 M196.3 -0.5 L196.65 -0.35 196.8 0.0 196.65 0.35 196.3 0.5 195.95 0.35 195.8 0.0 195.95 -0.35 196.3 -0.5 M200.3 -0.5 L200.65 -0.35 200.8 0.0 200.65 0.35 200.3 0.5 199.95 0.35 199.8 0.0 199.95 -0.35 200.3 -0.5 M204.3 -0.5 L204.65 -0.35 204.8 0.0 204.65 0.35 204.3 0.5 203.95 0.35 203.8 0.0 203.95 -0.35 204.3 -0.5 M212.3 -0.5 L212.65 -0.35 212.8 0.0 212.65 0.35 212.3 0.5 211.95 0.35 211.8 0.0 211.95 -0.35 212.3 -0.5 M208.65 -0.35 L208.8 0.0 208.65 0.35 208.3 0.5 207.95 0.35 207.8 0.0 207.95 -0.35 208.3 -0.5 208.65 -0.35 M220.65 -0.35 L220.8 0.0 220.65 0.35 220.3 0.5 219.95 0.35 219.8 0.0 219.95 -0.35 220.3 -0.5 220.65 -0.35 M216.65 -0.35 L216.8 0.0 216.65 0.35 216.3 0.5 215.95 0.35 215.8 0.0 215.95 -0.35 216.3 -0.5 216.65 -0.35 M224.3 -0.5 L224.65 -0.35 224.8 0.0 224.65 0.35 224.3 0.5 223.95 0.35 223.8 0.0 223.95 -0.35 224.3 -0.5 M228.3 -0.5 L228.65 -0.35 228.8 0.0 228.65 0.35 228.3 0.5 227.95 0.35 227.8 0.0 227.95 -0.35 228.3 -0.5 M232.3 -0.5 L232.65 -0.35 232.8 0.0 232.65 0.35 232.3 0.5 231.95 0.35 231.8 0.0 231.95 -0.35 232.3 -0.5 M236.3 -0.5 L236.65 -0.35 236.8 0.0 236.65 0.35 236.3 0.5 235.95 0.35 235.8 0.0 235.95 -0.35 236.3 -0.5 M240.3 -0.5 L240.65 -0.35 240.8 0.0 240.65 0.35 240.3 0.5 239.95 0.35 239.8 0.0 239.95 -0.35 240.3 -0.5 M244.3 -0.5 L244.65 -0.35 244.8 0.0 244.65 0.35 244.3 0.5 243.95 0.35 243.8 0.0 243.95 -0.35 244.3 -0.5 M252.65 -0.35 L252.8 0.0 252.65 0.35 252.3 0.5 Q252.1 0.5 251.95 0.35 L251.8 0.0 251.95 -0.35 Q252.1 -0.5 252.3 -0.5 L252.65 -0.35 M248.65 -0.35 L248.8 0.0 248.65 0.35 248.3 0.5 247.95 0.35 247.8 0.0 247.95 -0.35 248.3 -0.5 248.65 -0.35 M260.65 -0.35 L260.8 0.0 260.65 0.35 260.3 0.5 259.95 0.35 259.8 0.0 259.95 -0.35 260.3 -0.5 260.65 -0.35 M256.65 -0.35 L256.8 0.0 256.65 0.35 256.3 0.5 255.95 0.35 255.8 0.0 255.95 -0.35 256.3 -0.5 256.65 -0.35 M264.3 -0.5 L264.65 -0.35 264.8 0.0 264.65 0.35 264.3 0.5 263.95 0.35 263.8 0.0 263.95 -0.35 264.3 -0.5 M268.3 -0.5 L268.65 -0.35 268.8 0.0 268.65 0.35 268.3 0.5 267.95 0.35 267.8 0.0 267.95 -0.35 268.3 -0.5 M272.3 -0.5 L272.65 -0.35 272.8 0.0 272.65 0.35 272.3 0.5 271.95 0.35 271.8 0.0 271.95 -0.35 272.3 -0.5 M276.3 -0.5 L276.65 -0.35 276.8 0.0 276.65 0.35 276.3 0.5 275.95 0.35 275.8 0.0 275.95 -0.35 276.3 -0.5 M280.3 -0.5 L280.65 -0.35 280.8 0.0 280.65 0.35 280.3 0.5 279.95 0.35 279.8 0.0 279.95 -0.35 280.3 -0.5 M284.3 -0.5 L284.65 -0.35 284.8 0.0 284.65 0.35 284.3 0.5 283.95 0.35 283.8 0.0 283.95 -0.35 284.3 -0.5 M288.3 -0.5 L288.65 -0.35 288.8 0.0 288.65 0.35 288.3 0.5 287.95 0.35 287.8 0.0 287.95 -0.35 288.3 -0.5 M292.3 -0.5 L292.65 -0.35 292.8 0.0 292.65 0.35 292.3 0.5 291.95 0.35 291.8 0.0 291.95 -0.35 292.3 -0.5 M296.3 -0.5 L296.65 -0.35 296.8 0.0 296.65 0.35 296.3 0.5 295.95 0.35 295.8 0.0 295.95 -0.35 296.3 -0.5 M300.3 -0.5 L300.65 -0.35 300.8 0.0 300.7 0.3 300.8 0.6 300.65 0.95 300.3 1.1 299.95 0.95 299.8 0.6 299.9 0.3 299.8 0.0 299.95 -0.35 300.3 -0.5 M299.95 4.25 Q300.1 4.1 300.3 4.1 L300.65 4.25 300.8 4.6 300.65 4.95 300.3 5.1 299.95 4.95 299.8 4.6 Q299.8 4.4 299.95 4.25 M299.95 8.25 Q300.1 8.1 300.3 8.1 L300.65 8.25 300.8 8.6 300.65 8.95 300.3 9.1 299.95 8.95 299.8 8.6 Q299.8 8.4 299.95 8.25 M300.65 12.25 L300.8 12.6 300.65 12.95 300.3 13.1 299.95 12.95 299.8 12.6 Q299.8 12.4 299.95 12.25 300.1 12.1 300.3 12.1 L300.65 12.25 M300.65 16.25 L300.8 16.6 300.65 16.95 300.3 17.1 299.95 16.95 299.8 16.6 Q299.8 16.4 299.95 16.25 300.1 16.1 300.3 16.1 L300.65 16.25 M299.95 20.25 Q300.1 20.1 300.3 20.1 L300.65 20.25 300.8 20.6 300.65 20.95 300.3 21.1 299.95 20.95 299.8 20.6 Q299.8 20.4 299.95 20.25 M299.95 24.25 Q300.1 24.1 300.3 24.1 L300.65 24.25 300.8 24.6 300.65 24.95 300.3 25.1 299.95 24.95 299.8 24.6 Q299.8 24.4 299.95 24.25 M300.65 28.25 L300.8 28.6 300.65 28.95 300.3 29.1 299.95 28.95 299.8 28.6 Q299.8 28.4 299.95 28.25 300.1 28.1 300.3 28.1 L300.65 28.25 M299.95 32.25 Q300.1 32.1 300.3 32.1 L300.65 32.25 300.8 32.6 300.65 32.95 300.3 33.1 299.95 32.95 299.8 32.6 Q299.8 32.4 299.95 32.25 M299.95 36.25 Q300.1 36.1 300.3 36.1 L300.65 36.25 300.8 36.6 300.65 36.95 300.3 37.1 299.95 36.95 299.8 36.6 Q299.8 36.4 299.95 36.25 M299.95 40.25 Q300.1 40.1 300.3 40.1 L300.65 40.25 300.8 40.6 300.65 40.95 300.3 41.1 299.95 40.95 299.8 40.6 Q299.8 40.4 299.95 40.25 M299.95 44.25 Q300.1 44.1 300.3 44.1 L300.65 44.25 300.8 44.6 300.65 44.95 300.3 45.1 299.95 44.95 299.8 44.6 Q299.8 44.4 299.95 44.25 M300.65 48.25 L300.8 48.6 300.65 48.95 300.3 49.1 299.95 48.95 299.8 48.6 Q299.8 48.4 299.95 48.25 300.1 48.1 300.3 48.1 L300.65 48.25 M299.95 52.25 Q300.1 52.1 300.3 52.1 L300.65 52.25 300.8 52.6 300.65 52.95 300.3 53.1 299.95 52.95 299.8 52.6 Q299.8 52.4 299.95 52.25 M299.95 56.25 Q300.1 56.1 300.3 56.1 L300.65 56.25 300.8 56.6 300.65 56.95 300.3 57.1 299.95 56.95 299.8 56.6 Q299.8 56.4 299.95 56.25 M299.95 60.25 Q300.1 60.1 300.3 60.1 L300.65 60.25 300.8 60.6 300.65 60.95 300.3 61.1 299.95 60.95 299.8 60.6 Q299.8 60.4 299.95 60.25 M299.95 64.25 Q300.1 64.1 300.3 64.1 L300.65 64.25 300.8 64.6 300.65 64.95 300.3 65.1 299.95 64.95 299.8 64.6 Q299.8 64.4 299.95 64.25 M299.95 68.25 Q300.1 68.1 300.3 68.1 L300.65 68.25 300.8 68.6 300.65 68.95 300.3 69.1 299.95 68.95 299.8 68.6 Q299.8 68.4 299.95 68.25 M300.65 72.25 L300.8 72.6 300.65 72.95 300.3 73.1 299.95 72.95 299.8 72.6 Q299.8 72.4 299.95 72.25 300.1 72.1 300.3 72.1 L300.65 72.25 M299.95 76.25 Q300.1 76.1 300.3 76.1 L300.65 76.25 300.8 76.6 300.65 76.95 300.3 77.1 299.95 76.95 299.8 76.6 Q299.8 76.4 299.95 76.25 M300.65 80.25 L300.8 80.6 300.65 80.95 300.3 81.1 299.95 80.95 299.8 80.6 Q299.8 80.4 299.95 80.25 300.1 80.1 300.3 80.1 L300.65 80.25 M299.95 84.25 Q300.1 84.1 300.3 84.1 L300.65 84.25 300.8 84.6 300.65 84.95 300.3 85.1 299.95 84.95 299.8 84.6 Q299.8 84.4 299.95 84.25 M299.95 88.25 Q300.1 88.1 300.3 88.1 L300.65 88.25 300.8 88.6 300.65 88.95 300.3 89.1 299.95 88.95 299.8 88.6 Q299.8 88.4 299.95 88.25 M300.65 92.25 L300.8 92.6 300.65 92.95 300.3 93.1 299.95 92.95 299.8 92.6 Q299.8 92.4 299.95 92.25 300.1 92.1 300.3 92.1 L300.65 92.25 M299.95 96.25 Q300.1 96.1 300.3 96.1 L300.65 96.25 300.8 96.6 300.65 96.95 300.3 97.1 299.95 96.95 299.8 96.6 Q299.8 96.4 299.95 96.25 M179.35 175.65 Q179.5 175.5 179.7 175.5 179.9 175.5 180.05 175.65 L180.2 176.0 180.05 176.35 179.7 176.5 179.35 176.35 179.2 176.0 Q179.2 175.8 179.35 175.65 M176.05 175.65 L176.2 176.0 176.05 176.35 175.7 176.5 175.35 176.35 175.2 176.0 Q175.2 175.8 175.35 175.65 175.5 175.5 175.7 175.5 175.9 175.5 176.05 175.65 M171.35 175.65 Q171.5 175.5 171.7 175.5 L172.05 175.65 172.2 176.0 172.05 176.35 171.7 176.5 171.35 176.35 171.2 176.0 171.35 175.65 M168.05 175.65 L168.2 176.0 168.05 176.35 167.7 176.5 167.35 176.35 167.2 176.0 Q167.2 175.8 167.35 175.65 167.5 175.5 167.7 175.5 167.9 175.5 168.05 175.65 M164.05 175.65 L164.2 176.0 164.05 176.35 163.7 176.5 163.35 176.35 163.2 176.0 Q163.2 175.8 163.35 175.65 163.5 175.5 163.7 175.5 163.9 175.5 164.05 175.65 M199.35 175.65 Q199.5 175.5 199.7 175.5 L200.05 175.65 200.2 176.0 200.05 176.35 199.7 176.5 199.35 176.35 199.2 176.0 199.35 175.65 M196.05 175.65 L196.2 176.0 196.05 176.35 195.7 176.5 195.35 176.35 195.2 176.0 195.35 175.65 195.7 175.5 196.05 175.65 M191.35 175.65 Q191.5 175.5 191.7 175.5 191.9 175.5 192.05 175.65 L192.2 176.0 192.05 176.35 191.7 176.5 191.35 176.35 191.2 176.0 Q191.2 175.8 191.35 175.65 M188.05 175.65 L188.2 176.0 188.05 176.35 187.7 176.5 187.35 176.35 187.2 176.0 Q187.2 175.8 187.35 175.65 187.5 175.5 187.7 175.5 187.9 175.5 188.05 175.65 M183.35 175.65 Q183.5 175.5 183.7 175.5 L184.05 175.65 184.2 176.0 184.05 176.35 183.7 176.5 183.35 176.35 183.2 176.0 183.35 175.65 M219.35 175.65 L219.7 175.5 220.05 175.65 220.2 176.0 220.05 176.35 219.7 176.5 219.35 176.35 219.2 176.0 219.35 175.65 M216.05 175.65 L216.2 176.0 216.05 176.35 215.7 176.5 215.35 176.35 215.2 176.0 Q215.2 175.8 215.35 175.65 215.5 175.5 215.7 175.5 L216.05 175.65 M211.35 175.65 Q211.5 175.5 211.7 175.5 L212.05 175.65 212.2 176.0 212.05 176.35 211.7 176.5 211.35 176.35 211.2 176.0 211.35 175.65 M208.05 175.65 L208.2 176.0 208.05 176.35 207.7 176.5 207.35 176.35 207.2 176.0 207.35 175.65 207.7 175.5 208.05 175.65 M203.35 175.65 Q203.5 175.5 203.7 175.5 L204.05 175.65 204.2 176.0 204.05 176.35 203.7 176.5 203.35 176.35 203.2 176.0 Q203.2 175.8 203.35 175.65 M239.35 175.65 Q239.5 175.5 239.7 175.5 L240.05 175.65 240.2 176.0 240.05 176.35 239.7 176.5 Q239.5 176.5 239.35 176.35 L239.2 176.0 239.35 175.65 M236.05 175.65 L236.2 176.0 236.05 176.35 235.7 176.5 235.35 176.35 235.2 176.0 235.35 175.65 Q235.5 175.5 235.7 175.5 235.9 175.5 236.05 175.65 M231.35 175.65 Q231.5 175.5 231.7 175.5 L232.05 175.65 232.2 176.0 232.05 176.35 231.7 176.5 231.35 176.35 231.2 176.0 231.35 175.65 M228.2 176.0 L228.05 176.35 227.7 176.5 227.35 176.35 227.2 176.0 227.35 175.65 Q227.5 175.5 227.7 175.5 L228.05 175.65 228.2 176.0 M224.05 175.65 L224.2 176.0 224.05 176.35 223.7 176.5 223.35 176.35 223.2 176.0 223.35 175.65 223.7 175.5 Q223.9 175.5 224.05 175.65 M299.95 100.25 Q300.1 100.1 300.3 100.1 L300.65 100.25 300.8 100.6 300.65 100.95 300.3 101.1 299.95 100.95 299.8 100.6 Q299.8 100.4 299.95 100.25 M300.65 104.25 L300.8 104.6 300.65 104.95 300.3 105.1 299.95 104.95 299.8 104.6 Q299.8 104.4 299.95 104.25 300.1 104.1 300.3 104.1 L300.65 104.25 M300.65 108.25 L300.8 108.6 300.65 108.95 300.3 109.1 299.95 108.95 299.8 108.6 Q299.8 108.4 299.95 108.25 300.1 108.1 300.3 108.1 L300.65 108.25 M299.95 112.25 Q300.1 112.1 300.3 112.1 L300.65 112.25 300.8 112.6 300.65 112.95 300.3 113.1 299.95 112.95 299.8 112.6 Q299.8 112.4 299.95 112.25 M300.65 116.25 L300.8 116.6 300.65 116.95 300.3 117.1 299.95 116.95 299.8 116.6 Q299.8 116.4 299.95 116.25 300.1 116.1 300.3 116.1 L300.65 116.25 M299.95 120.25 Q300.1 120.1 300.3 120.1 L300.65 120.25 300.8 120.6 300.65 120.95 300.3 121.1 299.95 120.95 299.8 120.6 Q299.8 120.4 299.95 120.25 M299.95 124.25 Q300.1 124.1 300.3 124.1 L300.65 124.25 300.8 124.6 300.65 124.95 300.3 125.1 299.95 124.95 299.8 124.6 Q299.8 124.4 299.95 124.25 M300.65 128.25 L300.8 128.6 300.65 128.95 300.3 129.1 299.95 128.95 299.8 128.6 Q299.8 128.4 299.95 128.25 300.1 128.1 300.3 128.1 L300.65 128.25 M300.65 132.25 L300.8 132.6 300.65 132.95 300.3 133.1 299.95 132.95 299.8 132.6 Q299.8 132.4 299.95 132.25 300.1 132.1 300.3 132.1 L300.65 132.25 M299.95 136.25 Q300.1 136.1 300.3 136.1 L300.65 136.25 300.8 136.6 300.65 136.95 300.3 137.1 299.95 136.95 299.8 136.6 Q299.8 136.4 299.95 136.25 M300.65 140.25 L300.8 140.6 300.65 140.95 300.3 141.1 299.95 140.95 299.8 140.6 Q299.8 140.4 299.95 140.25 300.1 140.1 300.3 140.1 L300.65 140.25 M299.95 144.25 Q300.1 144.1 300.3 144.1 L300.65 144.25 300.8 144.6 300.65 144.95 300.3 145.1 299.95 144.95 299.8 144.6 Q299.8 144.4 299.95 144.25 M300.3 148.1 L300.65 148.25 300.8 148.6 300.65 148.95 300.3 149.1 299.95 148.95 299.8 148.6 Q299.8 148.4 299.95 148.25 300.1 148.1 300.3 148.1 M259.35 175.65 Q259.5 175.5 259.7 175.5 259.9 175.5 260.05 175.65 L260.2 176.0 260.05 176.35 259.7 176.5 259.35 176.35 259.2 176.0 Q259.2 175.8 259.35 175.65 M256.05 175.65 L256.2 176.0 256.05 176.35 255.7 176.5 255.35 176.35 255.2 176.0 255.35 175.65 Q255.5 175.5 255.7 175.5 L256.05 175.65 M251.35 175.65 Q251.5 175.5 251.7 175.5 251.9 175.5 252.05 175.65 L252.2 176.0 252.05 176.35 251.7 176.5 251.35 176.35 251.2 176.0 Q251.2 175.8 251.35 175.65 M247.35 175.65 Q247.5 175.5 247.7 175.5 247.9 175.5 248.05 175.65 L248.2 176.0 248.05 176.35 247.7 176.5 247.35 176.35 247.2 176.0 Q247.2 175.8 247.35 175.65 M243.35 175.65 Q243.5 175.5 243.7 175.5 L244.05 175.65 244.2 176.0 244.05 176.35 243.7 176.5 243.35 176.35 243.2 176.0 243.35 175.65 M283.35 175.65 Q283.5 175.5 283.7 175.5 L284.05 175.65 284.2 176.0 284.05 176.35 283.7 176.5 283.35 176.35 283.2 176.0 283.35 175.65 M280.05 175.65 L280.2 176.0 280.05 176.35 279.7 176.5 279.35 176.35 279.2 176.0 279.35 175.65 279.7 175.5 280.05 175.65 M276.05 175.65 L276.2 176.0 276.05 176.35 275.7 176.5 275.35 176.35 275.2 176.0 Q275.2 175.8 275.35 175.65 275.5 175.5 275.7 175.5 275.9 175.5 276.05 175.65 M271.35 175.65 Q271.5 175.5 271.7 175.5 271.9 175.5 272.05 175.65 L272.2 176.0 272.05 176.35 271.7 176.5 271.35 176.35 271.2 176.0 Q271.2 175.8 271.35 175.65 M267.35 175.65 Q267.5 175.5 267.7 175.5 L268.05 175.65 268.2 176.0 268.05 176.35 267.7 176.5 267.35 176.35 267.2 176.0 267.35 175.65 M264.05 175.65 L264.2 176.0 264.05 176.35 263.7 176.5 263.35 176.35 263.2 176.0 Q263.2 175.8 263.35 175.65 263.5 175.5 263.7 175.5 263.9 175.5 264.05 175.65 M300.65 152.25 L300.8 152.6 300.65 152.95 300.3 153.1 299.95 152.95 299.8 152.6 Q299.8 152.4 299.95 152.25 300.1 152.1 300.3 152.1 L300.65 152.25 M299.95 156.25 Q300.1 156.1 300.3 156.1 L300.65 156.25 300.8 156.6 300.65 156.95 300.3 157.1 299.95 156.95 299.8 156.6 Q299.8 156.4 299.95 156.25 M299.95 160.25 Q300.1 160.1 300.3 160.1 L300.65 160.25 300.8 160.6 300.65 160.95 300.3 161.1 299.95 160.95 299.8 160.6 Q299.8 160.4 299.95 160.25 M300.65 164.25 L300.8 164.6 300.65 164.95 300.3 165.1 299.95 164.95 299.8 164.6 Q299.8 164.4 299.95 164.25 300.1 164.1 300.3 164.1 L300.65 164.25 M299.95 168.25 Q300.1 168.1 300.3 168.1 L300.65 168.25 300.8 168.6 300.65 168.95 300.3 169.1 299.95 168.95 299.8 168.6 Q299.8 168.4 299.95 168.25 M300.65 172.25 L300.8 172.6 300.65 172.95 300.3 173.1 299.95 172.95 299.8 172.6 Q299.8 172.4 299.95 172.25 300.1 172.1 300.3 172.1 L300.65 172.25 M299.35 175.65 Q299.5 175.5 299.7 175.5 L300.05 175.65 300.2 176.0 300.05 176.35 299.7 176.5 299.35 176.35 299.2 176.0 Q299.2 175.8 299.35 175.65 M296.05 175.65 L296.2 176.0 296.05 176.35 295.7 176.5 295.35 176.35 295.2 176.0 295.35 175.65 Q295.5 175.5 295.7 175.5 L296.05 175.65 M291.35 175.65 L291.7 175.5 292.05 175.65 292.2 176.0 292.05 176.35 291.7 176.5 291.35 176.35 291.2 176.0 291.35 175.65 M287.35 175.65 Q287.5 175.5 287.7 175.5 L288.05 175.65 288.2 176.0 288.05 176.35 287.7 176.5 287.35 176.35 287.2 176.0 Q287.2 175.8 287.35 175.65 M0.5 3.7 L0.35 4.05 0.0 4.2 -0.35 4.05 -0.5 3.7 -0.35 3.35 0.0 3.2 0.35 3.35 0.5 3.7 M0.5 11.7 L0.35 12.05 0.0 12.2 -0.35 12.05 -0.5 11.7 -0.35 11.35 0.0 11.2 0.35 11.35 0.5 11.7 M0.5 7.7 L0.35 8.05 0.0 8.2 -0.35 8.05 -0.5 7.7 -0.35 7.35 0.0 7.2 0.35 7.35 0.5 7.7 M0.35 15.35 L0.5 15.7 0.35 16.05 0.0 16.2 -0.35 16.05 -0.5 15.7 -0.35 15.35 0.0 15.2 0.35 15.35 M0.5 23.7 L0.35 24.05 0.0 24.2 -0.35 24.05 -0.5 23.7 -0.35 23.35 0.0 23.2 0.35 23.35 0.5 23.7 M0.35 19.35 L0.5 19.7 0.35 20.05 0.0 20.2 -0.35 20.05 -0.5 19.7 -0.35 19.35 0.0 19.2 0.35 19.35 M0.5 27.7 L0.35 28.05 0.0 28.2 -0.35 28.05 -0.5 27.7 -0.35 27.35 0.0 27.2 0.35 27.35 0.5 27.7 M0.5 35.7 L0.35 36.05 0.0 36.2 -0.35 36.05 -0.5 35.7 -0.35 35.35 0.0 35.2 0.35 35.35 0.5 35.7 M0.5 31.7 L0.35 32.05 0.0 32.2 -0.35 32.05 -0.5 31.7 -0.35 31.35 0.0 31.2 0.35 31.35 0.5 31.7 M0.35 39.35 L0.5 39.7 0.35 40.05 0.0 40.2 -0.35 40.05 -0.5 39.7 -0.35 39.35 0.0 39.2 0.35 39.35 M0.5 47.7 L0.35 48.05 0.0 48.2 -0.35 48.05 -0.5 47.7 -0.35 47.35 0.0 47.2 0.35 47.35 0.5 47.7 M0.0 44.2 L-0.35 44.05 -0.5 43.7 -0.35 43.35 0.0 43.2 0.35 43.35 0.5 43.7 0.35 44.05 0.0 44.2 M0.35 51.35 L0.5 51.7 0.35 52.05 0.0 52.2 -0.35 52.05 -0.5 51.7 -0.35 51.35 0.0 51.2 0.35 51.35 M0.35 55.35 L0.5 55.7 0.35 56.05 0.0 56.2 -0.35 56.05 -0.5 55.7 -0.35 55.35 0.0 55.2 0.35 55.35 M0.5 59.7 L0.35 60.05 0.0 60.2 -0.35 60.05 -0.5 59.7 -0.35 59.35 0.0 59.2 0.35 59.35 0.5 59.7 M0.35 63.35 L0.5 63.7 0.35 64.05 0.0 64.2 -0.35 64.05 -0.5 63.7 -0.35 63.35 0.0 63.2 0.35 63.35 M0.35 67.35 L0.5 67.7 0.35 68.05 0.0 68.2 -0.35 68.05 -0.5 67.7 -0.35 67.35 0.0 67.2 0.35 67.35 M0.5 71.7 L0.35 72.05 0.0 72.2 -0.35 72.05 -0.5 71.7 -0.35 71.35 0.0 71.2 0.35 71.35 0.5 71.7 M0.5 79.7 L0.35 80.05 0.0 80.2 -0.35 80.05 -0.5 79.7 -0.35 79.35 0.0 79.2 0.35 79.35 0.5 79.7 M0.5 75.7 L0.35 76.05 0.0 76.2 -0.35 76.05 -0.5 75.7 -0.35 75.35 0.0 75.2 0.35 75.35 0.5 75.7 M0.5 83.7 L0.35 84.05 0.0 84.2 -0.35 84.05 -0.5 83.7 -0.35 83.35 0.0 83.2 0.35 83.35 0.5 83.7 M0.35 87.35 L0.5 87.7 0.35 88.05 0.0 88.2 -0.35 88.05 -0.5 87.7 -0.35 87.35 0.0 87.2 0.35 87.35 M0.35 91.35 L0.5 91.7 0.35 92.05 0.0 92.2 -0.35 92.05 -0.5 91.7 -0.35 91.35 0.0 91.2 0.35 91.35 M0.5 95.7 L0.35 96.05 0.0 96.2 -0.35 96.05 -0.5 95.7 -0.35 95.35 0.0 95.2 0.35 95.35 0.5 95.7 M0.35 99.35 L0.5 99.7 0.35 100.05 0.0 100.2 -0.35 100.05 -0.5 99.7 -0.35 99.35 0.0 99.2 0.35 99.35 M0.35 103.35 L0.5 103.7 0.35 104.05 0.0 104.2 -0.35 104.05 -0.5 103.7 -0.35 103.35 0.0 103.2 0.35 103.35 M0.35 111.35 L0.5 111.7 0.35 112.05 0.0 112.2 -0.35 112.05 -0.5 111.7 -0.35 111.35 0.0 111.2 0.35 111.35 M0.5 107.7 L0.35 108.05 0.0 108.2 -0.35 108.05 -0.5 107.7 -0.35 107.35 0.0 107.2 0.35 107.35 0.5 107.7 M0.35 115.35 L0.5 115.7 0.35 116.05 0.0 116.2 -0.35 116.05 -0.5 115.7 -0.35 115.35 0.0 115.2 0.35 115.35 M0.5 123.7 L0.35 124.05 0.0 124.2 -0.35 124.05 -0.5 123.7 -0.35 123.35 0.0 123.2 0.35 123.35 0.5 123.7 M0.5 119.7 L0.35 120.05 0.0 120.2 -0.35 120.05 -0.5 119.7 -0.35 119.35 0.0 119.2 0.35 119.35 0.5 119.7 M0.5 127.7 L0.35 128.05 0.0 128.2 -0.35 128.05 -0.5 127.7 -0.35 127.35 0.0 127.2 0.35 127.35 0.5 127.7 M0.5 135.7 L0.35 136.05 0.0 136.2 -0.35 136.05 -0.5 135.7 -0.35 135.35 0.0 135.2 0.35 135.35 0.5 135.7 M0.5 131.7 L0.35 132.05 0.0 132.2 -0.35 132.05 -0.5 131.7 -0.35 131.35 0.0 131.2 0.35 131.35 0.5 131.7 M0.35 139.35 L0.5 139.7 0.35 140.05 0.0 140.2 -0.35 140.05 -0.5 139.7 -0.35 139.35 0.0 139.2 0.35 139.35 M0.5 147.7 L0.35 148.05 0.0 148.2 -0.35 148.05 -0.5 147.7 -0.35 147.35 0.0 147.2 0.35 147.35 0.5 147.7 M0.35 143.35 L0.5 143.7 0.35 144.05 0.0 144.2 -0.35 144.05 -0.5 143.7 -0.35 143.35 0.0 143.2 0.35 143.35 M0.35 151.35 L0.5 151.7 0.35 152.05 0.0 152.2 -0.35 152.05 -0.5 151.7 -0.35 151.35 0.0 151.2 0.35 151.35 M0.5 159.7 L0.35 160.05 0.0 160.2 -0.35 160.05 -0.5 159.7 -0.35 159.35 0.0 159.2 0.35 159.35 0.5 159.7 M0.35 155.35 L0.5 155.7 0.35 156.05 0.0 156.2 -0.35 156.05 -0.5 155.7 -0.35 155.35 0.0 155.2 0.35 155.35 M0.35 163.35 L0.5 163.7 0.35 164.05 0.0 164.2 -0.35 164.05 -0.5 163.7 -0.35 163.35 0.0 163.2 0.35 163.35 M0.5 171.7 L0.35 172.05 0.0 172.2 -0.35 172.05 -0.5 171.7 -0.35 171.35 0.0 171.2 0.35 171.35 0.5 171.7 M0.35 167.35 L0.5 167.7 0.35 168.05 0.0 168.2 -0.35 168.05 -0.5 167.7 -0.35 167.35 0.0 167.2 0.35 167.35 M19.35 175.65 Q19.5 175.5 19.7 175.5 19.9 175.5 20.05 175.65 L20.2 176.0 20.05 176.35 19.7 176.5 19.35 176.35 19.2 176.0 Q19.2 175.8 19.35 175.65 M16.05 175.65 L16.2 176.0 16.05 176.35 15.7 176.5 15.35 176.35 15.2 176.0 15.35 175.65 Q15.5 175.5 15.7 175.5 L16.05 175.65 M12.05 175.65 L12.2 176.0 12.05 176.35 11.7 176.5 11.35 176.35 11.2 176.0 Q11.2 175.8 11.35 175.65 11.5 175.5 11.7 175.5 11.9 175.5 12.05 175.65 M7.35 175.65 Q7.5 175.5 7.7 175.5 7.9 175.5 8.05 175.65 L8.2 176.0 8.05 176.35 7.7 176.5 7.35 176.35 7.2 176.0 Q7.2 175.8 7.35 175.65 M3.35 175.65 Q3.5 175.5 3.7 175.5 L4.05 175.65 4.2 176.0 4.05 176.35 3.7 176.5 3.35 176.35 3.2 176.0 3.35 175.65 M0.35 175.35 L0.5 175.7 0.35 176.05 0.0 176.2 -0.35 176.05 -0.5 175.7 -0.35 175.35 0.0 175.2 0.35 175.35 M39.35 175.65 L39.7 175.5 40.05 175.65 40.2 176.0 40.05 176.35 39.7 176.5 39.35 176.35 39.2 176.0 39.35 175.65 M36.05 175.65 L36.2 176.0 36.05 176.35 35.7 176.5 35.35 176.35 35.2 176.0 Q35.2 175.8 35.35 175.65 35.5 175.5 35.7 175.5 L36.05 175.65 M31.35 175.65 Q31.5 175.5 31.7 175.5 L32.05 175.65 32.2 176.0 32.05 176.35 31.7 176.5 31.35 176.35 31.2 176.0 31.35 175.65 M27.35 175.65 L27.7 175.5 28.05 175.65 28.2 176.0 28.05 176.35 27.7 176.5 27.35 176.35 27.2 176.0 27.35 175.65 M23.35 175.65 Q23.5 175.5 23.7 175.5 23.9 175.5 24.05 175.65 L24.2 176.0 24.05 176.35 23.7 176.5 23.35 176.35 23.2 176.0 Q23.2 175.8 23.35 175.65 M59.35 175.65 Q59.5 175.5 59.7 175.5 L60.05 175.65 60.2 176.0 60.05 176.35 59.7 176.5 59.35 176.35 59.2 176.0 59.35 175.65 M56.05 175.65 L56.2 176.0 56.05 176.35 55.7 176.5 55.35 176.35 55.2 176.0 55.35 175.65 55.7 175.5 Q55.9 175.5 56.05 175.65 M51.35 175.65 L51.7 175.5 52.05 175.65 52.2 176.0 52.05 176.35 51.7 176.5 51.35 176.35 51.2 176.0 51.35 175.65 M47.35 175.65 Q47.5 175.5 47.7 175.5 L48.05 175.65 48.2 176.0 48.05 176.35 47.7 176.5 47.35 176.35 47.2 176.0 Q47.2 175.8 47.35 175.65 M44.05 175.65 L44.2 176.0 44.05 176.35 43.7 176.5 43.35 176.35 43.2 176.0 43.35 175.65 Q43.5 175.5 43.7 175.5 L44.05 175.65 M79.35 175.65 Q79.5 175.5 79.7 175.5 79.9 175.5 80.05 175.65 L80.2 176.0 80.05 176.35 79.7 176.5 79.35 176.35 79.2 176.0 Q79.2 175.8 79.35 175.65 M76.2 176.0 L76.05 176.35 75.7 176.5 75.35 176.35 75.2 176.0 75.35 175.65 Q75.5 175.5 75.7 175.5 L76.05 175.65 76.2 176.0 M71.35 175.65 Q71.5 175.5 71.7 175.5 L72.05 175.65 72.2 176.0 72.05 176.35 71.7 176.5 Q71.5 176.5 71.35 176.35 L71.2 176.0 71.35 175.65 M67.35 175.65 Q67.5 175.5 67.7 175.5 67.9 175.5 68.05 175.65 L68.2 176.0 68.05 176.35 67.7 176.5 67.35 176.35 67.2 176.0 67.35 175.65 M63.35 175.65 Q63.5 175.5 63.7 175.5 L64.05 175.65 64.2 176.0 64.05 176.35 63.7 176.5 63.35 176.35 63.2 176.0 63.35 175.65 M99.35 175.65 Q99.5 175.5 99.7 175.5 L100.05 175.65 100.2 176.0 100.05 176.35 99.7 176.5 99.35 176.35 99.2 176.0 99.35 175.65 M95.35 175.65 Q95.5 175.5 95.7 175.5 95.9 175.5 96.05 175.65 L96.2 176.0 96.05 176.35 95.7 176.5 95.35 176.35 95.2 176.0 Q95.2 175.8 95.35 175.65 M91.35 175.65 Q91.5 175.5 91.7 175.5 91.9 175.5 92.05 175.65 L92.2 176.0 92.05 176.35 91.7 176.5 91.35 176.35 91.2 176.0 Q91.2 175.8 91.35 175.65 M87.35 175.65 Q87.5 175.5 87.7 175.5 L88.05 175.65 88.2 176.0 88.05 176.35 87.7 176.5 87.35 176.35 87.2 176.0 87.35 175.65 M84.05 175.65 L84.2 176.0 84.05 176.35 83.7 176.5 83.35 176.35 83.2 176.0 Q83.2 175.8 83.35 175.65 83.5 175.5 83.7 175.5 83.9 175.5 84.05 175.65 M119.35 175.65 Q119.5 175.5 119.7 175.5 L120.05 175.65 120.2 176.0 120.05 176.35 119.7 176.5 119.35 176.35 119.2 176.0 Q119.2 175.8 119.35 175.65 M115.35 175.65 Q115.5 175.5 115.7 175.5 L116.05 175.65 116.2 176.0 116.05 176.35 115.7 176.5 115.35 176.35 115.2 176.0 115.35 175.65 M112.2 176.0 L112.05 176.35 111.7 176.5 111.35 176.35 111.2 176.0 111.35 175.65 111.7 175.5 112.05 175.65 112.2 176.0 M108.05 175.65 L108.2 176.0 108.05 176.35 107.7 176.5 107.35 176.35 107.2 176.0 Q107.2 175.8 107.35 175.65 107.5 175.5 107.7 175.5 107.9 175.5 108.05 175.65 M103.35 175.65 Q103.5 175.5 103.7 175.5 103.9 175.5 104.05 175.65 L104.2 176.0 104.05 176.35 103.7 176.5 103.35 176.35 103.2 176.0 Q103.2 175.8 103.35 175.65 M139.35 175.65 L139.7 175.5 Q139.9 175.5 140.05 175.65 L140.2 176.0 140.05 176.35 139.7 176.5 139.35 176.35 139.2 176.0 139.35 175.65 M135.35 175.65 L135.7 175.5 136.05 175.65 136.2 176.0 136.05 176.35 135.7 176.5 135.35 176.35 135.2 176.0 135.35 175.65 M132.2 176.0 L132.05 176.35 131.7 176.5 131.35 176.35 131.2 176.0 Q131.2 175.8 131.35 175.65 131.5 175.5 131.7 175.5 L132.05 175.65 132.2 176.0 M128.05 175.65 L128.2 176.0 128.05 176.35 127.7 176.5 127.35 176.35 127.2 176.0 127.35 175.65 Q127.5 175.5 127.7 175.5 L128.05 175.65 M124.05 175.65 L124.2 176.0 124.05 176.35 123.7 176.5 123.35 176.35 123.2 176.0 123.35 175.65 123.7 175.5 124.05 175.65 M159.35 175.65 Q159.5 175.5 159.7 175.5 L160.05 175.65 160.2 176.0 160.05 176.35 159.7 176.5 159.35 176.35 159.2 176.0 159.35 175.65 M155.35 175.65 Q155.5 175.5 155.7 175.5 L156.05 175.65 156.2 176.0 156.05 176.35 155.7 176.5 Q155.5 176.5 155.35 176.35 L155.2 176.0 155.35 175.65 M152.2 176.0 L152.05 176.35 151.7 176.5 151.35 176.35 151.2 176.0 151.35 175.65 Q151.5 175.5 151.7 175.5 151.9 175.5 152.05 175.65 L152.2 176.0 M148.05 175.65 L148.2 176.0 148.05 176.35 147.7 176.5 147.35 176.35 147.2 176.0 147.35 175.65 Q147.5 175.5 147.7 175.5 L148.05 175.65 M143.35 175.65 Q143.5 175.5 143.7 175.5 L144.05 175.65 144.2 176.0 144.05 176.35 143.7 176.5 143.35 176.35 143.2 176.0 143.35 175.65" fill="#666666" fill-rule="evenodd" stroke="none"/>
  </g>
</svg>
