<?xml version="1.0" encoding="UTF-8" standalone="no"?>
<svg xmlns:xlink="http://www.w3.org/1999/xlink" height="61.0px" width="231.0px" xmlns="http://www.w3.org/2000/svg">
  <g transform="matrix(1.0, 0.0, 0.0, 1.0, 110.5, 0.5)">
    <path d="M0.0 60.0 L-107.0 60.0 Q-110.0 60.0 -110.0 57.0 L-110.0 50.05 -110.0 9.95 -110.0 3.0 Q-110.0 0.0 -107.0 0.0 L0.0 0.0 9.95 0.0 110.05 0.0 116.0 0.0 Q120.0 0.0 120.0 4.0 L120.0 9.95 120.0 50.05 120.0 56.0 Q120.0 60.0 116.0 60.0 L110.05 60.0 9.95 60.0 0.0 60.0 0.0 50.05 0.0 9.95 0.0 0.0 0.0 9.95 0.0 50.05 0.0 60.0" fill="#ffffff" fill-rule="evenodd" stroke="none"/>
    <path d="M0.0 0.0 L9.95 0.0 110.05 0.0 116.0 0.0 Q120.0 0.0 120.0 4.0 L120.0 9.95 120.0 50.05 120.0 56.0 Q120.0 60.0 116.0 60.0 L110.05 60.0 9.95 60.0 0.0 60.0" fill="none" stroke="#333333" stroke-linecap="round" stroke-linejoin="round" stroke-width="1.0"/>
    <path d="M0.0 60.0 L0.0 50.05 0.0 9.95 0.0 0.0" fill="none" stroke="#666666" stroke-linecap="round" stroke-linejoin="round" stroke-width="1.0"/>
    <path d="M0.0 60.0 L-107.0 60.0 Q-110.0 60.0 -110.0 57.0 L-110.0 50.05 -110.0 9.95 -110.0 3.0 Q-110.0 0.0 -107.0 0.0 L0.0 0.0" fill="none" stroke="#000000" stroke-linecap="round" stroke-linejoin="round" stroke-width="1.0"/>
  </g>
</svg>
