<?xml version="1.0" encoding="UTF-8" standalone="no"?>
<svg xmlns:xlink="http://www.w3.org/1999/xlink" height="31.0px" width="271.0px" xmlns="http://www.w3.org/2000/svg">
  <g transform="matrix(1.0, 0.0, 0.0, 1.0, 0.5, 0.5)">
    <path d="M254.0 0.0 L270.0 15.0 255.0 30.0 185.0 30.0 2.0 30.0 Q0.0 30.0 0.0 28.0 L0.0 2.0 Q0.0 0.0 2.0 0.0 L185.0 0.0 254.0 0.0" fill="url(#gradient0)" fill-rule="evenodd" stroke="none"/>
    <path d="M255.0 30.0 L270.0 15.0 254.0 0.0" fill="none" stroke="#191919" stroke-linecap="round" stroke-linejoin="round" stroke-opacity="0.8" stroke-width="1.0"/>
    <path d="M254.0 0.0 L270.0 15.0 255.0 30.0 185.0 30.0 2.0 30.0 Q0.0 30.0 0.0 28.0 L0.0 2.0 Q0.0 0.0 2.0 0.0 L185.0 0.0 254.0 0.0" fill="url(#gradient1)" fill-rule="evenodd" stroke="none"/>
    <path d="M255.0 30.0 L270.0 15.0 254.0 0.0" fill="none" stroke="#191919" stroke-linecap="round" stroke-linejoin="round" stroke-opacity="0.8" stroke-width="1.0"/>
    <path d="M254.0 0.0 L185.0 0.0 2.0 0.0 Q0.0 0.0 0.0 2.0 L0.0 28.0 Q0.0 30.0 2.0 30.0 L185.0 30.0 255.0 30.0" fill="none" stroke="#191919" stroke-linecap="round" stroke-linejoin="round" stroke-opacity="0.8" stroke-width="1.0"/>
  </g>
  <defs>
    <linearGradient gradientTransform="matrix(0.1234, 0.0, 0.0, 0.0183, 108.0, 11.0)" gradientUnits="userSpaceOnUse" id="gradient0" spreadMethod="pad" x1="-819.2" x2="819.2">
      <stop offset="0.0" stop-color="#ff9631"/>
      <stop offset="0.10588235294117647" stop-color="#f7b000"/>
      <stop offset="0.9607843137254902" stop-color="#ffff00"/>
    </linearGradient>
    <linearGradient gradientTransform="matrix(-0.1416, -0.0026, 3.0E-4, -0.0183, 109.95, 17.35)" gradientUnits="userSpaceOnUse" id="gradient1" spreadMethod="pad" x1="-819.2" x2="819.2">
      <stop offset="0.0" stop-color="#ffff00" stop-opacity="0.49803922"/>
      <stop offset="0.8549019607843137" stop-color="#ffcc00" stop-opacity="0.49803922"/>
      <stop offset="1.0" stop-color="#ff7e00" stop-opacity="0.49803922"/>
    </linearGradient>
  </defs>
</svg>
