<?xml version="1.0" encoding="UTF-8" standalone="no"?>
<svg xmlns:xlink="http://www.w3.org/1999/xlink" height="115.75px" width="166.0px" xmlns="http://www.w3.org/2000/svg">
  <g transform="matrix(1.0, 0.0, 0.0, 1.0, 23.0, 115.25)">
    <path d="M3.0 -39.75 L-17.5 -39.75 Q-22.5 -39.75 -22.5 -44.75 L-22.5 -109.75 Q-22.5 -114.75 -17.5 -114.75 L137.5 -114.75 Q142.5 -114.75 142.5 -109.75 L142.5 -44.75 Q142.5 -39.75 137.5 -39.75 L19.9 -39.75 20.0 -40.0 19.9 -39.75 0.0 0.0 3.0 -39.75 3.0 -40.0 3.0 -39.75" fill="#ffff99" fill-opacity="0.8" fill-rule="evenodd" stroke="none"/>
    <path d="M3.0 -39.75 L3.0 -40.0 M19.9 -39.75 L20.0 -40.0 M3.0 -39.75 L0.0 0.0 19.9 -39.75" fill="none" stroke="#000000" stroke-linecap="round" stroke-linejoin="round" stroke-width="1.0"/>
    <path d="M19.9 -39.75 L137.5 -39.75 Q142.5 -39.75 142.5 -44.75 L142.5 -109.75 Q142.5 -114.75 137.5 -114.75 L-17.5 -114.75 Q-22.5 -114.75 -22.5 -109.75 L-22.5 -44.75 Q-22.5 -39.75 -17.5 -39.75 L3.0 -39.75" fill="none" stroke="#000000" stroke-linecap="round" stroke-linejoin="bevel" stroke-width="1.0"/>
  </g>
</svg>
