<?xml version="1.0" encoding="UTF-8" standalone="no"?>
<svg xmlns:xlink="http://www.w3.org/1999/xlink" height="11.0px" width="11.0px" xmlns="http://www.w3.org/2000/svg">
  <g transform="matrix(1.0, 0.0, 0.0, 1.0, 5.45, 5.45)">
    <path d="M3.65 -3.5 Q5.05 -2.0 5.05 0.05 5.05 2.15 3.65 3.6 2.15 5.05 0.1 5.05 -2.0 5.05 -3.45 3.6 -4.95 2.15 -4.95 0.05 -4.95 -2.0 -3.45 -3.5 -2.0 -4.95 0.1 -4.95 2.15 -4.95 3.65 -3.5" fill="url(#gradient0)" fill-rule="evenodd" stroke="none"/>
    <path d="M3.65 -3.5 Q5.05 -2.0 5.05 0.05 5.05 2.15 3.65 3.6 2.15 5.05 0.1 5.05 -2.0 5.05 -3.45 3.6 -4.95 2.15 -4.95 0.05 -4.95 -2.0 -3.45 -3.5 -2.0 -4.95 0.1 -4.95 2.15 -4.95 3.65 -3.5 Z" fill="none" stroke="#000000" stroke-linecap="round" stroke-linejoin="round" stroke-width="1.0"/>
  </g>
  <defs>
    <radialGradient cx="0" cy="0" gradientTransform="matrix(0.0105, 0.0, 0.0, 0.0105, -1.9, -2.55)" gradientUnits="userSpaceOnUse" id="gradient0" r="819.2" spreadMethod="pad">
      <stop offset="0.0" stop-color="#fced0d"/>
      <stop offset="0.13725490196078433" stop-color="#fc9e0d"/>
      <stop offset="0.32941176470588235" stop-color="#b44638"/>
      <stop offset="0.5372549019607843" stop-color="#3c0600"/>
      <stop offset="0.7529411764705882" stop-color="#650800"/>
      <stop offset="1.0" stop-color="#830700"/>
    </radialGradient>
  </defs>
</svg>
