<?xml version="1.0" encoding="UTF-8" standalone="no"?>
<svg xmlns:xlink="http://www.w3.org/1999/xlink" height="126.3px" width="140.2px" xmlns="http://www.w3.org/2000/svg">
  <g transform="matrix(1.0, 0.0, 0.0, 1.0, -3.95, -3.4)">
    <path d="M102.35 3.45 L102.55 3.9 90.7 20.55 Q79.0 37.0 79.0 37.5 79.0 38.5 79.15 38.7 L79.3 38.85 80.05 38.95 Q80.6 38.95 81.1 38.55 L82.0 38.0 Q82.65 40.85 83.85 41.7 L85.0 42.0 87.05 41.6 89.1 41.15 Q92.3 41.15 94.25 44.85 95.1 46.45 96.0 50.0 97.05 49.3 99.3 45.0 L103.9 36.2 Q110.55 24.2 115.6 24.2 117.3 24.2 117.3 27.7 117.3 33.3 114.15 38.25 L106.95 47.45 Q104.9 50.05 100.95 52.7 99.0 53.95 99.0 57.5 99.0 61.9 105.95 63.4 L114.3 64.7 Q114.85 65.0 117.0 68.45 119.7 72.05 122.9 73.3 124.3 73.85 127.75 76.15 130.9 78.3 133.25 79.0 135.35 79.65 137.85 84.1 140.15 88.3 140.15 90.4 L139.0 96.0 Q139.95 96.0 142.0 96.75 143.85 97.4 144.15 97.7 L137.5 98.0 Q137.4 98.65 137.6 99.7 137.8 100.55 137.45 100.9 136.6 101.85 129.0 103.0 L129.8 103.9 130.5 104.8 Q129.35 109.5 122.5 111.25 L118.0 112.35 Q116.05 112.95 116.05 114.0 L117.15 116.35 Q118.25 118.8 118.25 119.55 117.85 120.35 116.6 120.35 L113.7 119.95 110.0 119.0 110.05 121.9 Q110.05 123.95 108.35 125.35 106.9 126.5 105.4 126.5 102.75 126.5 99.05 123.75 95.35 121.0 93.0 121.0 91.6 121.0 89.25 122.25 87.0 123.45 87.0 124.0 87.0 124.75 88.55 126.3 L83.55 127.05 80.15 126.45 79.0 126.0 80.0 128.7 80.15 129.45 79.95 129.7 Q76.4 127.8 64.1 124.65 52.6 121.75 49.0 121.5 47.9 117.75 47.35 117.0 46.5 116.0 44.0 116.0 L41.3 116.55 38.6 117.1 Q34.95 117.1 26.15 110.8 L18.0 104.5 Q16.05 104.5 14.3 102.9 12.1 100.8 9.5 99.95 9.2 93.45 6.5 91.95 L4.75 90.8 Q3.95 89.8 3.95 87.4 3.95 85.85 5.0 84.9 L6.0 83.8 Q5.15 82.7 4.85 82.0 8.75 81.6 13.55 80.25 L18.0 79.0 Q17.8 77.6 18.3 74.9 18.75 72.3 18.55 71.15 17.8 67.3 8.0 66.0 L8.0 62.0 Q12.15 61.25 12.8 59.0 L13.1 57.6 Q13.3 57.0 14.0 57.0 L19.0 57.35 24.0 57.85 Q25.4 58.05 27.95 59.55 L30.3 61.0 Q32.35 61.0 33.35 59.65 34.0 58.8 34.0 58.0 L32.0 55.4 Q29.95 52.95 29.55 52.95 28.45 52.95 27.35 53.95 26.2 54.95 25.8 54.95 24.55 54.25 22.15 47.15 19.8 40.3 19.8 38.15 19.8 35.8 20.75 35.4 L29.0 35.0 29.0 34.0 Q32.35 33.7 34.0 32.95 L36.05 32.35 Q37.45 32.35 41.15 36.7 44.85 41.05 45.45 41.05 46.85 41.05 47.55 39.6 L48.0 38.0 47.45 35.15 Q46.85 33.0 46.45 33.0 L46.0 29.0 52.0 22.0 Q51.8 17.7 52.35 17.2 L55.55 17.15 Q62.15 17.15 64.9 14.5 L66.5 12.7 Q67.35 11.85 68.5 11.85 L70.35 13.35 Q72.45 15.3 73.9 17.9 78.5 26.1 75.0 37.0 79.05 33.85 80.8 30.5 82.1 28.05 82.45 28.05 83.85 28.05 91.6 15.75 99.35 3.4 101.6 3.4 L102.35 3.45" fill="#ff0000" fill-rule="evenodd" stroke="none"/>
  </g>
</svg>
