<?xml version="1.0" encoding="UTF-8" standalone="no"?>
<svg xmlns:xlink="http://www.w3.org/1999/xlink" height="114.95px" width="72.3px" xmlns="http://www.w3.org/2000/svg">
  <g transform="matrix(1.0, 0.0, 0.0, 1.0, -0.8, 25.95)">
    <path d="M12.95 -4.8 L12.95 -5.8 12.95 -8.8 Q14.8 -12.85 20.75 -10.35 L20.95 -9.8 22.75 -9.4 22.95 -8.8 28.0 -7.95 28.55 -7.8 Q29.55 -8.05 29.45 -9.8 L29.95 -9.8 29.95 -10.8 30.7 -11.05 30.95 -11.8 30.7 -12.65 Q30.0 -13.85 29.95 -15.8 L29.45 -15.85 Q28.9 -19.3 28.95 -22.8 L30.05 -23.6 30.95 -23.8 30.95 -24.8 Q36.65 -27.05 42.0 -24.95 L42.95 -24.8 Q48.05 -21.25 44.55 -14.0 L43.95 -13.8 43.95 -12.8 43.95 -11.8 44.95 -9.75 46.1 -9.15 Q46.3 -9.05 46.3 -8.55 47.6 -7.25 48.05 -5.25 L55.75 -5.25 56.75 -5.25 59.5 -3.0 59.75 -2.25 Q61.5 0.5 60.3 5.65 L59.75 5.75 59.7 6.75 Q59.45 8.45 57.75 8.75 L57.75 9.75 57.55 10.4 Q55.25 11.75 51.75 11.75 L50.85 11.55 Q48.6 10.25 46.9 8.5 L46.7 8.9 Q50.75 14.2 45.25 18.3 45.0 18.5 45.0 19.0 L45.0 21.0 45.0 22.0 Q48.45 22.05 49.8 24.15 L50.0 25.0 Q55.15 29.35 52.15 37.05 52.0 37.5 52.0 38.0 L53.0 38.0 59.95 38.5 60.0 39.0 Q61.95 39.05 62.75 40.15 L63.0 41.0 Q64.7 41.8 64.1 45.0 L64.0 46.0 Q62.9 52.1 65.75 54.3 L66.0 55.0 66.0 56.0 Q75.1 58.25 72.5 69.9 L72.0 70.0 71.9 71.0 Q69.65 80.65 60.0 83.0 L59.8 83.6 Q56.5 85.0 53.0 86.0 L52.0 86.0 51.0 86.0 50.9 86.5 46.0 87.0 45.9 87.5 40.0 88.0 40.0 89.0 39.0 89.0 37.0 89.0 37.0 88.0 36.0 88.05 Q31.25 88.75 29.0 87.0 L28.0 87.1 Q24.8 87.7 24.0 86.0 L23.0 86.0 22.0 85.95 Q18.8 85.7 17.0 84.0 L16.1 83.8 Q10.9 81.6 7.0 78.0 6.5 78.0 6.35 77.75 4.15 74.35 3.0 70.0 L2.5 69.9 Q2.0 67.5 2.0 65.0 L1.9 64.5 Q0.35 64.15 1.0 62.0 2.65 62.15 2.5 60.0 L3.0 60.0 3.0 59.0 Q6.2 59.7 7.3 58.25 7.5 58.0 8.0 58.0 L8.0 57.0 8.75 56.75 9.0 56.0 9.0 55.0 9.0 54.0 Q15.8 50.8 20.3 45.25 20.5 45.0 21.0 45.0 L21.0 44.0 22.1 43.2 23.0 43.0 23.0 42.0 23.0 41.0 22.5 40.95 Q22.0 36.5 22.0 32.0 L22.75 31.75 23.0 31.0 23.0 30.0 22.25 29.75 Q19.95 27.55 20.0 23.0 L21.0 23.0 21.0 22.0 Q24.45 19.95 29.0 19.1 L30.0 19.0 29.8 18.4 Q26.5 17.0 27.0 12.0 28.9 10.9 29.5 8.1 L30.0 8.0 30.0 7.0 30.0 6.0 30.0 4.05 Q28.2 2.95 26.2 3.8 17.0 7.7 12.95 3.2 L12.95 2.2 12.95 -4.8" fill="#ff0000" fill-opacity="0.043137256" fill-rule="evenodd" stroke="none"/>
  </g>
</svg>
