<?xml version="1.0" encoding="UTF-8" standalone="no"?>
<svg xmlns:xlink="http://www.w3.org/1999/xlink" height="258.55px" width="661.05px" xmlns="http://www.w3.org/2000/svg">
  <g transform="matrix(1.0, 0.0, 0.0, 1.0, 327.5, 198.05)">
    <path d="M269.0 -197.85 L-278.0 -197.85 -278.0 -198.05 269.0 -198.05 269.0 -197.85" fill="#990000" fill-opacity="0.0" fill-rule="evenodd" stroke="none"/>
    <path d="M318.0 -175.0 L333.05 -175.0 333.05 -65.0 333.05 -63.0 333.05 60.0 -326.95 60.0 -326.95 -64.0 -325.9 -64.0 -325.9 -65.0 -325.9 -175.0 318.0 -175.0 M-325.9 -63.0 L333.05 -63.0 -325.9 -63.0" fill="#ffffff" fill-opacity="0.49803922" fill-rule="evenodd" stroke="none"/>
    <path d="M333.05 -175.0 L333.05 -65.0 333.05 -63.0 333.05 60.0 -326.95 60.0 -326.95 -64.0" fill="none" stroke="#666666" stroke-linecap="round" stroke-linejoin="round" stroke-width="1.0"/>
    <path d="M-326.95 -64.0 L-325.9 -64.0" fill="none" stroke="#999999" stroke-linecap="round" stroke-linejoin="round" stroke-width="1.0"/>
    <path d="M-326.95 -64.0 L-327.0 -65.0 -327.0 -190.0 318.0 -190.0 318.0 -175.0" fill="none" stroke="#333333" stroke-linecap="round" stroke-linejoin="round" stroke-width="1.0"/>
    <path d="M-325.9 -65.0 L-327.0 -65.0" fill="none" stroke="#3c3c3c" stroke-linecap="round" stroke-linejoin="round" stroke-width="1.0"/>
    <path d="M333.05 -63.0 L-325.9 -63.0" fill="none" stroke="#cccccc" stroke-linecap="round" stroke-linejoin="round" stroke-width="1.0"/>
  </g>
</svg>
