<?xml version="1.0" encoding="UTF-8" standalone="no"?>
<svg xmlns:xlink="http://www.w3.org/1999/xlink" height="25.0px" width="116.95px" xmlns="http://www.w3.org/2000/svg">
  <g transform="matrix(1.0, 0.0, 0.0, 1.0, 224.95, 129.5)">
    <path d="M-224.6 -114.45 L-223.55 -115.1 -223.55 -113.8 -224.6 -114.45" fill="url(#gradient0)" fill-rule="evenodd" stroke="none"/>
    <path d="M-224.95 -117.65 L-206.0 -129.5 -206.0 -124.5 -198.0 -124.5 -198.0 -109.5 -206.0 -109.5 -206.0 -104.5 -224.95 -116.35 -224.95 -117.65" fill="url(#gradient1)" fill-rule="evenodd" stroke="none"/>
    <path d="M-108.0 -109.5 L-120.0 -109.5 -120.0 -124.5 -108.0 -124.5 -108.0 -109.5" fill="url(#gradient2)" fill-rule="evenodd" stroke="none"/>
    <path d="M-224.95 -116.35 L-206.0 -104.5 -206.0 -109.5 -198.0 -109.5 -198.0 -124.5 -206.0 -124.5 -206.0 -129.5 -224.95 -117.65 M-108.0 -109.5 L-120.0 -109.5 -120.0 -124.5 -108.0 -124.5 -108.0 -109.5 Z" fill="none" stroke="#333333" stroke-linecap="round" stroke-linejoin="round" stroke-width="0.05"/>
  </g>
  <defs>
    <linearGradient gradientTransform="matrix(-0.0274, 7.0E-4, -0.001, -0.0152, -198.1, -114.45)" gradientUnits="userSpaceOnUse" id="gradient0" spreadMethod="pad" x1="-819.2" x2="819.2">
      <stop offset="0.00784313725490196" stop-color="#ffffff"/>
      <stop offset="1.0" stop-color="#ffffff" stop-opacity="0.8117647"/>
    </linearGradient>
    <linearGradient gradientTransform="matrix(-0.0274, 7.0E-4, -0.001, -0.0152, -199.5, -117.0)" gradientUnits="userSpaceOnUse" id="gradient1" spreadMethod="pad" x1="-819.2" x2="819.2">
      <stop offset="0.00784313725490196" stop-color="#ffffff"/>
      <stop offset="1.0" stop-color="#ffffff" stop-opacity="0.8117647"/>
    </linearGradient>
    <linearGradient gradientTransform="matrix(-0.0274, 7.0E-4, -0.001, -0.0152, -186.5, -117.0)" gradientUnits="userSpaceOnUse" id="gradient2" spreadMethod="pad" x1="-819.2" x2="819.2">
      <stop offset="0.00784313725490196" stop-color="#ffffff"/>
      <stop offset="1.0" stop-color="#ffffff" stop-opacity="0.8117647"/>
    </linearGradient>
  </defs>
</svg>
