<?xml version="1.0" encoding="UTF-8" standalone="no"?>
<svg xmlns:xlink="http://www.w3.org/1999/xlink" height="16.0px" width="58.0px" xmlns="http://www.w3.org/2000/svg">
  <g transform="matrix(1.0, 0.0, 0.0, 1.0, 0.5, 0.5)">
    <path d="M57.0 12.95 Q57.0 15.0 54.9 15.0 L2.1 15.0 Q0.0 15.0 0.0 12.95 L0.0 2.05 Q0.0 0.0 2.1 0.0 L54.9 0.0 Q57.0 0.0 57.0 2.05 L57.0 12.95" fill="#ffffff" fill-rule="evenodd" stroke="none"/>
    <path d="M57.0 12.95 L57.0 2.05 Q57.0 0.0 54.9 0.0 L2.1 0.0 Q0.0 0.0 0.0 2.05 L0.0 12.95 Q0.0 15.0 2.1 15.0 L54.9 15.0 Q57.0 15.0 57.0 12.95 Z" fill="none" stroke="#666666" stroke-linecap="round" stroke-linejoin="round" stroke-width="1.0"/>
  </g>
</svg>
