<?xml version="1.0" encoding="UTF-8" standalone="no"?>
<svg xmlns:xlink="http://www.w3.org/1999/xlink" height="20.5px" width="41.0px" xmlns="http://www.w3.org/2000/svg">
  <g transform="matrix(1.0, 0.0, 0.0, 1.0, 0.5, 0.25)">
    <path d="M2.5 0.25 L37.55 0.25 Q40.0 0.25 40.0 2.85 L40.0 17.15 Q40.0 19.75 37.55 19.75 L2.5 19.75 Q0.0 19.75 0.0 17.15 L0.0 2.85 Q0.0 0.25 2.5 0.25" fill="url(#gradient0)" fill-rule="evenodd" stroke="none"/>
    <path d="M2.5 0.25 Q0.0 0.25 0.0 2.85 L0.0 17.15 Q0.0 19.75 2.5 19.75 L37.55 19.75 Q40.0 19.75 40.0 17.15 L40.0 2.85 Q40.0 0.25 37.55 0.25 L2.5 0.25 Z" fill="none" stroke="url(#gradient1)" stroke-linecap="round" stroke-linejoin="round" stroke-width="1.0"/>
    <path d="M24.05 10.8 L22.5 11.25 18.25 11.25 Q17.25 11.25 16.75 10.8 16.2 10.35 16.2 9.65 16.2 8.85 16.7 8.4 17.25 8.0 18.25 8.0 L22.5 8.0 Q23.5 8.0 24.05 8.4 24.5 8.85 24.5 9.65 L24.05 10.8" fill="#000000" fill-opacity="0.9882353" fill-rule="evenodd" stroke="none"/>
  </g>
  <defs>
    <linearGradient gradientTransform="matrix(0.0, -0.0119, 0.0113, 0.0, 20.0, 10.0)" gradientUnits="userSpaceOnUse" id="gradient0" spreadMethod="pad" x1="-819.2" x2="819.2">
      <stop offset="0.0" stop-color="#d9d9d9"/>
      <stop offset="1.0" stop-color="#f7f7f7"/>
    </linearGradient>
    <linearGradient gradientTransform="matrix(0.0, -0.0119, 0.0116, 1.0E-4, 20.0, 10.0)" gradientUnits="userSpaceOnUse" id="gradient1" spreadMethod="pad" x1="-819.2" x2="819.2">
      <stop offset="0.0" stop-color="#666666"/>
      <stop offset="1.0" stop-color="#aaaaaa"/>
    </linearGradient>
  </defs>
</svg>
