<?xml version="1.0" encoding="UTF-8" standalone="no"?>
<svg xmlns:xlink="http://www.w3.org/1999/xlink" height="402.0px" width="453.0px" xmlns="http://www.w3.org/2000/svg">
  <g transform="matrix(1.0, 0.0, 0.0, 1.0, 0.5, 0.5)">
    <path d="M442.0 0.0 Q452.0 0.0 452.0 10.0 L452.0 391.0 Q452.0 401.0 442.0 401.0 L10.0 401.0 Q0.0 401.0 0.0 391.0 L0.0 10.0 Q0.0 0.0 10.0 0.0 L442.0 0.0" fill="#ffffff" fill-rule="evenodd" stroke="none"/>
    <path d="M442.0 0.0 L10.0 0.0 Q0.0 0.0 0.0 10.0 L0.0 391.0 Q0.0 401.0 10.0 401.0 L442.0 401.0 Q452.0 401.0 452.0 391.0 L452.0 10.0 Q452.0 0.0 442.0 0.0 Z" fill="none" stroke="#595959" stroke-linecap="round" stroke-linejoin="round" stroke-width="1.0"/>
  </g>
</svg>
