<?xml version="1.0" encoding="UTF-8" standalone="no"?>
<svg xmlns:xlink="http://www.w3.org/1999/xlink" height="111.0px" width="286.0px" xmlns="http://www.w3.org/2000/svg">
  <g transform="matrix(1.0, 0.0, 0.0, 1.0, 139.95, 49.95)">
    <path d="M141.55 -49.45 Q145.55 -49.45 145.55 -45.45 L145.55 56.55 Q145.55 60.55 141.55 60.55 L-135.45 60.55 Q-139.45 60.55 -139.45 56.55 L-139.45 -45.45 Q-139.45 -49.45 -135.45 -49.45 L141.55 -49.45" fill="#ffffff" fill-rule="evenodd" stroke="none"/>
    <path d="M141.55 -49.45 L-135.45 -49.45 Q-139.45 -49.45 -139.45 -45.45 L-139.45 56.55 Q-139.45 60.55 -135.45 60.55 L141.55 60.55 Q145.55 60.55 145.55 56.55 L145.55 -45.45 Q145.55 -49.45 141.55 -49.45 Z" fill="none" stroke="#333333" stroke-linecap="round" stroke-linejoin="round" stroke-width="1.0"/>
    <path d="M60.55 50.55 L-129.45 50.55 -129.45 20.55 60.55 20.55 60.55 50.55" fill="#ffffff" fill-rule="evenodd" stroke="none"/>
    <path d="M60.55 50.55 L-129.45 50.55 -129.45 20.55 60.55 20.55 60.55 50.55 Z" fill="none" stroke="#333333" stroke-linecap="round" stroke-linejoin="round" stroke-width="1.0"/>
  </g>
</svg>
