<?xml version="1.0" encoding="UTF-8" standalone="no"?>
<svg xmlns:xlink="http://www.w3.org/1999/xlink" height="61.0px" width="131.0px" xmlns="http://www.w3.org/2000/svg">
  <g transform="matrix(1.0, 0.0, 0.0, 1.0, 0.0, 30.25)">
    <path d="M130.5 12.95 L130.5 22.3 130.5 26.25 Q130.5 30.25 126.5 30.25 L120.8 30.25 19.7 30.25 14.5 30.25 Q10.5 30.25 10.5 26.25 L10.5 22.3 10.5 12.95 10.5 10.25 0.5 0.25 10.5 -9.75 10.5 -25.75 Q10.5 -29.75 14.5 -29.75 L19.7 -29.75 120.8 -29.75 126.5 -29.75 Q130.5 -29.75 130.5 -25.75 L130.5 12.95" fill="#fbfbfb" fill-rule="evenodd" stroke="none"/>
    <path d="M130.5 12.95 L130.5 -25.75 Q130.5 -29.75 126.5 -29.75 L120.8 -29.75 19.7 -29.75 14.5 -29.75 Q10.5 -29.75 10.5 -25.75 L10.5 -9.75 0.5 0.25 10.5 10.25 10.5 12.95 10.5 22.3 10.5 26.25 Q10.5 30.25 14.5 30.25 L19.7 30.25 120.8 30.25 126.5 30.25 Q130.5 30.25 130.5 26.25 L130.5 22.3 130.5 12.95 Z" fill="none" stroke="#333333" stroke-linecap="round" stroke-linejoin="round" stroke-width="1.0"/>
  </g>
</svg>
