<?xml version="1.0" encoding="UTF-8" standalone="no"?>
<svg xmlns:xlink="http://www.w3.org/1999/xlink" height="161.0px" width="600.95px" xmlns="http://www.w3.org/2000/svg">
  <g transform="matrix(1.0, 0.0, 0.0, 1.0, 300.5, 160.5)">
    <path d="M295.95 -160.0 Q299.95 -160.0 299.95 -155.8 L299.95 -4.2 Q299.95 0.0 295.95 0.0 L-296.0 0.0 Q-300.0 0.0 -300.0 -4.2 L-300.0 -155.8 Q-300.0 -160.0 -296.0 -160.0 L295.95 -160.0" fill="#ede5c2" fill-opacity="0.8" fill-rule="evenodd" stroke="none"/>
    <path d="M295.95 -160.0 L-296.0 -160.0 Q-300.0 -160.0 -300.0 -155.8 L-300.0 -4.2 Q-300.0 0.0 -296.0 0.0 L295.95 0.0 Q299.95 0.0 299.95 -4.2 L299.95 -155.8 Q299.95 -160.0 295.95 -160.0 Z" fill="none" stroke="#999999" stroke-linecap="round" stroke-linejoin="round" stroke-width="1.0"/>
  </g>
</svg>
