<?xml version="1.0" encoding="UTF-8" standalone="no"?>
<svg xmlns:xlink="http://www.w3.org/1999/xlink" height="83.0px" width="276.0px" xmlns="http://www.w3.org/2000/svg">
  <g transform="matrix(1.0, 0.0, 0.0, 1.0, 81.0, 57.0)">
    <path d="M191.0 -57.0 Q195.0 -57.0 195.0 -53.0 L195.0 21.0 Q195.0 25.0 191.0 25.0 L-65.0 26.0 Q-69.0 26.0 -69.0 22.0 L-69.0 -7.0 -81.0 -8.0 -69.0 -23.0 -69.0 -52.0 Q-69.0 -56.0 -65.0 -56.0 L191.0 -57.0" fill="#ffffff" fill-opacity="0.9019608" fill-rule="evenodd" stroke="none"/>
    <path d="M191.0 -57.0 L-65.0 -56.0 Q-69.0 -56.0 -69.0 -52.0 L-69.0 -23.0 -81.0 -8.0 -69.0 -7.0 -69.0 22.0 Q-69.0 26.0 -65.0 26.0 L191.0 25.0 Q195.0 25.0 195.0 21.0 L195.0 -53.0 Q195.0 -57.0 191.0 -57.0 Z" fill="none" stroke="#000000" stroke-linecap="round" stroke-linejoin="round" stroke-opacity="0.49803922" stroke-width="0.05"/>
  </g>
</svg>
