<?xml version="1.0" encoding="UTF-8" standalone="no"?>
<svg xmlns:xlink="http://www.w3.org/1999/xlink" height="14.6px" width="22.6px" xmlns="http://www.w3.org/2000/svg">
  <g transform="matrix(1.0, 0.0, 0.0, 1.0, 0.3, 0.3)">
    <path d="M-0.05 9.05 L-0.05 8.9 -0.05 5.25 -0.05 4.95 Q-0.05 2.9 1.4 1.4 2.9 -0.05 4.95 -0.05 L6.05 -0.05 16.15 -0.05 17.05 -0.05 Q19.1 -0.05 20.55 1.4 22.05 2.9 22.05 4.95 L22.05 5.25 22.05 8.9 22.05 9.05 Q22.05 11.1 20.55 12.55 19.1 14.05 17.05 14.05 L16.15 14.05 6.05 14.05 4.95 14.05 Q2.9 14.05 1.4 12.55 -0.05 11.1 -0.05 9.05" fill="#f40000" fill-rule="evenodd" stroke="none"/>
    <path d="M-0.05 9.05 Q-0.05 11.1 1.4 12.55 2.9 14.05 4.95 14.05 L6.05 14.05 16.15 14.05 17.05 14.05 Q19.1 14.05 20.55 12.55 22.05 11.1 22.05 9.05 L22.05 8.9 22.05 5.25 22.05 4.95 Q22.05 2.9 20.55 1.4 19.1 -0.05 17.05 -0.05 L16.15 -0.05 6.05 -0.05 4.95 -0.05 Q2.9 -0.05 1.4 1.4 -0.05 2.9 -0.05 4.95 L-0.05 5.25 -0.05 8.9 -0.05 9.05 Z" fill="none" stroke="#333333" stroke-linecap="round" stroke-linejoin="round" stroke-width="0.5"/>
  </g>
</svg>
