<?xml version="1.0" encoding="UTF-8" standalone="no"?>
<svg xmlns:xlink="http://www.w3.org/1999/xlink" height="15.5px" width="15.5px" xmlns="http://www.w3.org/2000/svg">
  <g transform="matrix(1.0, 0.0, 0.0, 1.0, 0.25, 0.25)">
    <path d="M12.7 0.0 Q15.0 0.0 15.0 2.6 L15.0 12.45 Q15.0 15.0 12.7 15.0 L2.3 15.0 Q0.0 15.0 0.0 12.45 L0.0 2.6 Q0.0 0.0 2.3 0.0 L12.7 0.0" fill="#006699" fill-opacity="0.0" fill-rule="evenodd" stroke="none"/>
    <path d="M11.05 11.0 Q12.5 9.6 12.5 7.5 12.5 5.45 11.05 3.95 9.6 2.5 7.5 2.5 5.45 2.5 3.95 3.95 2.5 5.45 2.5 7.5 2.5 9.6 3.95 11.0 5.45 12.5 7.5 12.5 9.6 12.5 11.05 11.0 M15.0 7.5 Q15.0 10.6 12.8 12.8 10.6 15.0 7.5 15.0 4.4 15.0 2.2 12.8 0.0 10.6 0.0 7.5 0.0 4.45 2.2 2.25 4.4 0.0 7.5 0.0 10.6 0.0 12.8 2.25 15.0 4.45 15.0 7.5" fill="url(#gradient0)" fill-rule="evenodd" stroke="none"/>
    <path d="M15.0 7.5 Q15.0 10.6 12.8 12.8 10.6 15.0 7.5 15.0 4.4 15.0 2.2 12.8 0.0 10.6 0.0 7.5 0.0 4.45 2.2 2.25 4.4 0.0 7.5 0.0 10.6 0.0 12.8 2.25 15.0 4.45 15.0 7.5 Z" fill="none" stroke="url(#gradient1)" stroke-linecap="round" stroke-linejoin="round" stroke-width="0.5"/>
    <path d="M11.85 3.3 L12.25 4.2 11.8 5.05 5.05 11.8 4.2 12.15 Q3.7 12.15 3.3 11.75 L2.95 10.9 Q2.95 10.4 3.3 10.05 L10.1 3.25 Q10.45 2.9 10.9 2.95 11.4 2.95 11.85 3.3" fill="url(#gradient2)" fill-rule="evenodd" stroke="none"/>
  </g>
  <defs>
    <radialGradient cx="0" cy="0" gradientTransform="matrix(0.0195, 0.0, 0.0, 0.0116, 7.4, 8.75)" gradientUnits="userSpaceOnUse" id="gradient0" r="819.2" spreadMethod="pad">
      <stop offset="0.30196078431372547" stop-color="#880000"/>
      <stop offset="0.6823529411764706" stop-color="#ff6666"/>
      <stop offset="0.7372549019607844" stop-color="#ff6666"/>
    </radialGradient>
    <linearGradient gradientTransform="matrix(0.0095, 0.0, 0.0, 0.0095, 7.5, 7.5)" gradientUnits="userSpaceOnUse" id="gradient1" spreadMethod="pad" x1="-819.2" x2="819.2">
      <stop offset="0.30196078431372547" stop-color="#880000"/>
      <stop offset="0.6823529411764706" stop-color="#ff6666"/>
      <stop offset="0.7372549019607844" stop-color="#ff6666"/>
    </linearGradient>
    <radialGradient cx="0" cy="0" gradientTransform="matrix(0.0195, 0.0, 0.0, 0.0116, 7.4, 8.75)" gradientUnits="userSpaceOnUse" id="gradient2" r="819.2" spreadMethod="pad">
      <stop offset="0.30196078431372547" stop-color="#880000"/>
      <stop offset="0.6823529411764706" stop-color="#ff6666"/>
      <stop offset="0.7372549019607844" stop-color="#ff6666"/>
    </radialGradient>
  </defs>
</svg>
