<?xml version="1.0" encoding="UTF-8" standalone="no"?>
<svg xmlns:xlink="http://www.w3.org/1999/xlink" height="121.0px" width="450.0px" xmlns="http://www.w3.org/2000/svg">
  <g transform="matrix(1.0, 0.0, 0.0, 1.0, 230.0, 61.0)">
    <path d="M215.4 -61.0 Q220.0 -61.0 220.0 -56.4 L220.0 54.25 Q220.0 58.85 215.4 58.85 L-225.4 60.0 Q-230.0 60.0 -230.0 55.4 L-230.0 -55.25 Q-230.0 -59.85 -225.4 -59.85 L215.4 -61.0" fill="#ffffff" fill-opacity="0.9019608" fill-rule="evenodd" stroke="none"/>
    <path d="M215.4 -61.0 L-225.4 -59.85 Q-230.0 -59.85 -230.0 -55.25 L-230.0 55.4 Q-230.0 60.0 -225.4 60.0 L215.4 58.85 Q220.0 58.85 220.0 54.25 L220.0 -56.4 Q220.0 -61.0 215.4 -61.0 Z" fill="none" stroke="#000000" stroke-linecap="round" stroke-linejoin="round" stroke-opacity="0.49803922" stroke-width="0.05"/>
  </g>
</svg>
