<?xml version="1.0" encoding="UTF-8" standalone="no"?>
<svg xmlns:xlink="http://www.w3.org/1999/xlink" height="89.3px" width="126.55px" xmlns="http://www.w3.org/2000/svg">
  <g transform="matrix(1.0, 0.0, 0.0, 1.0, 67.15, 40.4)">
    <path d="M5.5 -40.4 L8.1 -37.8 Q10.1 -35.5 10.1 -34.75 10.1 -31.7 6.05 -27.65 L11.6 -22.2 Q15.3 -18.45 17.75 -16.85 20.85 -14.85 22.9 -11.5 L25.85 -5.85 Q26.4 -5.8 27.2 -6.7 L28.25 -7.85 32.0 -7.85 Q39.35 -5.0 46.1 -3.3 47.9 -2.5 48.55 -0.9 49.15 0.65 49.15 4.4 49.15 9.75 44.35 10.5 43.9 11.2 43.9 12.55 43.9 27.55 56.8 26.35 58.95 29.5 59.25 30.5 L59.4 34.0 Q59.4 39.0 50.45 42.1 L28.0 47.9 21.05 48.05 19.75 48.4 6.8 48.55 5.2 48.75 3.35 48.9 -3.0 48.55 -5.35 48.05 -20.25 47.9 -22.75 47.55 -23.5 47.25 -30.75 47.15 -42.3 45.7 -53.4 44.25 Q-55.4 43.9 -57.4 42.85 -59.05 42.0 -64.55 41.4 -65.5 39.7 -65.85 36.1 -66.25 32.5 -67.15 30.9 L-65.1 29.2 Q-64.0 28.4 -61.8 28.1 -57.8 27.55 -56.85 26.65 L-56.0 24.55 -52.65 17.05 Q-51.65 14.3 -50.9 9.7 -50.15 5.25 -48.9 2.0 L-48.85 1.9 Q-49.9 1.55 -52.75 -1.25 -55.65 -4.1 -55.65 -4.75 -55.65 -6.4 -53.55 -8.3 -50.2 -11.25 -43.75 -10.35 L-36.0 -10.35 -30.9 -9.25 Q-25.75 -9.25 -18.35 -16.4 -11.6 -23.0 -11.6 -25.6 -11.6 -28.9 -13.95 -31.55 -16.35 -34.2 -16.35 -36.35 -16.35 -39.0 -15.25 -39.65 L-12.25 -40.15 -0.3 -40.25 0.0 -40.4 5.5 -40.4" fill="#000000" fill-opacity="0.003921569" fill-rule="evenodd" stroke="none"/>
  </g>
</svg>
