<?xml version="1.0" encoding="UTF-8" standalone="no"?>
<svg xmlns:xlink="http://www.w3.org/1999/xlink" height="92.65px" width="149.9px" xmlns="http://www.w3.org/2000/svg">
  <g transform="matrix(1.0, 0.0, 0.0, 1.0, 72.55, 83.55)">
    <path d="M23.15 -50.15 Q24.0 -49.7 32.1 -48.4 40.1 -46.8 41.25 -44.65 43.1 -41.25 48.1 -40.25 54.3 -39.05 54.9 -38.65 L59.7 -35.25 Q61.6 -33.55 62.1 -31.75 63.0 -28.4 64.5 -24.2 66.05 -19.9 67.4 -17.15 L75.5 -16.8 76.8 -12.25 Q77.35 -10.65 77.35 -8.45 77.35 -6.5 77.0 -5.7 L74.75 -2.05 Q59.65 -0.9 56.65 0.65 L53.85 1.95 49.75 3.35 36.45 5.65 16.75 8.85 -18.25 9.1 -38.2 5.7 -55.05 2.5 Q-61.75 0.9 -68.8 0.6 -70.9 0.25 -71.7 -1.05 -72.55 -2.4 -72.55 -5.8 L-72.55 -9.3 Q-72.4 -11.15 -71.8 -12.8 -71.45 -13.4 -71.55 -14.5 -71.6 -15.6 -71.3 -16.05 -70.2 -17.7 -62.05 -18.5 -61.85 -19.35 -59.15 -23.6 -56.95 -27.0 -57.8 -28.75 -57.6 -30.4 -57.95 -34.0 -57.85 -37.15 -55.5 -39.0 L-55.5 -39.05 Q-59.7 -41.45 -60.25 -42.25 -60.55 -42.65 -60.55 -45.15 -60.55 -50.35 -58.3 -52.5 -56.45 -54.3 -52.35 -54.3 L-43.85 -53.4 -39.4 -52.5 -35.8 -52.5 Q-32.85 -53.85 -30.45 -56.35 L-26.3 -61.5 Q-23.9 -64.5 -20.5 -67.15 -19.3 -68.05 -19.3 -71.35 -19.3 -74.05 -19.9 -75.6 -20.55 -77.15 -20.55 -79.5 -20.55 -81.05 -18.8 -81.9 -16.5 -83.0 -10.25 -83.5 L-10.25 -83.55 -2.25 -83.55 Q2.1 -82.7 3.0 -81.7 3.35 -81.3 3.35 -79.35 3.35 -76.75 1.85 -73.95 0.35 -71.15 0.35 -69.3 0.35 -66.6 7.8 -61.2 L15.75 -56.0 19.45 -52.85 Q21.5 -51.05 23.15 -50.15" fill="#000000" fill-opacity="0.003921569" fill-rule="evenodd" stroke="none"/>
  </g>
</svg>
