<?xml version="1.0" encoding="UTF-8" standalone="no"?>
<svg xmlns:xlink="http://www.w3.org/1999/xlink" height="100.0px" width="100.0px" xmlns="http://www.w3.org/2000/svg">
  <g transform="matrix(1.0, 0.0, 0.0, 1.0, 50.0, 50.0)">
    <path d="M35.35 -35.35 Q50.0 -20.7 50.0 0.0 50.0 20.7 35.35 35.35 20.7 50.0 0.0 50.0 -20.7 50.0 -35.35 35.35 -50.0 20.7 -50.0 0.0 -50.0 -20.7 -35.35 -35.35 -20.7 -50.0 0.0 -50.0 20.7 -50.0 35.35 -35.35" fill="url(#gradient0)" fill-rule="evenodd" stroke="none"/>
    <path d="M35.35 -35.35 Q50.0 -20.7 50.0 0.0 50.0 20.7 35.35 35.35 20.7 50.0 0.0 50.0 -20.7 50.0 -35.35 35.35 -50.0 20.7 -50.0 0.0 -50.0 -20.7 -35.35 -35.35 -20.7 -50.0 0.0 -50.0 20.7 -50.0 35.35 -35.35 Z" fill="none" stroke="#ff0000" stroke-linecap="round" stroke-linejoin="round" stroke-width="0.05"/>
  </g>
  <defs>
    <radialGradient cx="0" cy="0" gradientTransform="matrix(0.0619, 0.0, 0.0, 0.0619, 0.0, 0.0)" gradientUnits="userSpaceOnUse" id="gradient0" r="819.2" spreadMethod="pad">
      <stop offset="0.0" stop-color="#ff0000" stop-opacity="0.047058824"/>
      <stop offset="1.0" stop-color="#ff0000" stop-opacity="0.2509804"/>
    </radialGradient>
  </defs>
</svg>
