<?xml version="1.0" encoding="UTF-8" standalone="no"?>
<svg xmlns:xlink="http://www.w3.org/1999/xlink" height="17.9px" width="17.55px" xmlns="http://www.w3.org/2000/svg">
  <g transform="matrix(1.0, 0.0, 0.0, 1.0, 9.0, 9.0)">
    <path d="M2.6 -8.4 L2.6 -7.45 Q1.15 -7.0 0.3 -6.2 L-0.2 -5.55 7.95 -3.55 Q8.5 -2.75 7.9 -1.95 L7.25 -1.3 -0.95 -3.15 -3.05 -3.1 -3.85 -3.65 -4.05 -3.85 -4.6 -3.85 Q-5.55 -3.85 -6.2 -3.2 L-6.45 -2.8 -8.3 -2.65 Q-9.1 -3.25 -8.8 -4.3 L-8.35 -5.25 -2.9 -5.8 Q-2.25 -7.25 -0.5 -8.2 L1.15 -8.85 Q2.35 -9.25 2.6 -8.4" fill="#000000" fill-rule="evenodd" stroke="none"/>
    <path d="M8.35 1.5 Q8.9 2.65 7.85 3.5 L7.75 3.45 7.5 3.25 5.15 3.2 3.3 2.75 Q1.8 2.1 1.25 2.0 L0.95 1.95 0.4 2.1 -3.85 1.35 -8.15 2.05 -8.8 1.65 Q-9.35 1.05 -8.55 0.2 L-4.4 -0.55 -5.7 -1.5 -5.6 -2.25 Q-5.35 -2.95 -4.4 -2.85 L-1.45 -0.65 8.35 1.5" fill="#000000" fill-rule="evenodd" stroke="none"/>
    <path d="M7.3 6.15 L-3.2 6.6 -3.8 7.3 -4.45 8.55 Q-4.4 9.3 -5.55 8.45 -6.55 7.65 -5.85 6.45 L-7.9 7.05 -8.6 6.45 Q-9.15 5.65 -8.2 4.85 L0.55 4.25 0.5 3.55 Q0.55 2.9 1.05 3.0 1.85 3.15 4.0 4.15 L7.15 4.25 7.7 4.85 Q8.1 5.6 7.3 6.15" fill="#000000" fill-rule="evenodd" stroke="none"/>
  </g>
</svg>
