<?xml version="1.0" encoding="UTF-8" standalone="no"?>
<svg xmlns:xlink="http://www.w3.org/1999/xlink" height="15.85px" width="16.65px" xmlns="http://www.w3.org/2000/svg">
  <g transform="matrix(1.0, 0.0, 0.0, 1.0, 8.0, 8.0)">
    <path d="M-4.35 6.35 Q-3.25 6.25 -3.8 4.8 -4.25 5.7 -5.5 5.15 L-5.35 5.75 Q-5.05 6.4 -4.35 6.35 M-4.15 0.65 Q-3.1 0.5 -2.25 1.05 L-0.35 2.75 Q0.6 3.65 0.25 4.65 L-0.55 6.2 Q-0.8 6.95 -1.9 7.4 L-3.95 7.85 Q-4.8 7.85 -5.75 6.95 -6.6 6.1 -6.5 5.6 -6.45 5.2 -6.85 4.65 L-7.2 4.2 Q-7.4 3.3 -6.4 2.1 -5.35 0.9 -4.15 0.65 M-3.45 1.7 Q-3.85 1.45 -4.65 2.1 L-5.4 2.75 Q-4.1 2.75 -3.8 4.05 -3.25 3.5 -3.7 2.85 -3.95 2.5 -3.7 2.05 L-3.45 1.7" fill="#000000" fill-rule="evenodd" stroke="none"/>
    <path d="M1.3 -0.9 L1.6 -2.45 Q1.6 -3.0 2.3 -3.6 3.0 -4.25 3.6 -3.85 4.45 -3.3 5.95 -3.85 6.7 -3.9 7.5 -2.95 L8.6 -0.8 Q8.9 0.2 7.75 1.2 7.35 1.55 6.0 2.3 L4.3 2.4 3.1 2.2 1.25 0.3 Q1.1 0.2 1.3 -0.9 M4.85 -1.2 L4.35 -2.25 3.8 -2.65 3.4 -2.65 Q2.95 -2.5 2.75 -1.85 L2.3 -0.05 2.65 -0.8 Q3.15 -1.5 3.75 -1.2 4.7 -0.75 4.5 0.05 L6.15 -0.25 Q4.85 -0.4 4.85 -1.2" fill="#000000" fill-rule="evenodd" stroke="none"/>
    <path d="M-1.55 -7.5 Q-1.65 -7.1 -1.25 -6.4 L-0.4 -4.95 Q-0.1 -4.2 -0.4 -3.45 -0.65 -2.85 -1.25 -2.55 L-3.2 -1.75 -5.4 -1.35 Q-6.7 -1.55 -7.85 -4.7 -8.3 -5.85 -7.3 -7.0 L-6.25 -7.95 Q-1.35 -8.2 -1.55 -7.5 M-4.35 -4.8 Q-3.3 -4.25 -4.65 -6.15 -4.85 -6.45 -3.7 -6.6 L-2.5 -6.7 -5.55 -6.9 -5.95 -6.75 -6.75 -5.85 Q-7.05 -5.25 -6.55 -4.25 L-6.05 -3.35 Q-6.25 -4.65 -5.7 -5.0 L-4.35 -4.8" fill="#000000" fill-rule="evenodd" stroke="none"/>
  </g>
</svg>
