<?xml version="1.0" encoding="UTF-8" standalone="no"?>
<svg xmlns:xlink="http://www.w3.org/1999/xlink" height="23.65px" width="23.05px" xmlns="http://www.w3.org/2000/svg">
  <g transform="matrix(1.0, 0.0, 0.0, 1.0, 0.0, 0.5)">
    <path d="M23.0 7.55 Q23.2 9.2 22.05 10.4 21.0 11.5 19.25 11.1 L17.65 10.5 Q16.85 10.05 17.5 9.15 18.15 8.25 18.6 8.5 20.1 9.35 20.7 8.7 21.4 7.75 20.5 6.7 19.95 6.1 20.5 5.35 L21.85 5.25 Q22.85 6.05 23.0 7.55" fill="#000000" fill-rule="evenodd" stroke="none"/>
    <path d="M3.15 7.35 Q4.1 5.7 6.85 5.3 11.15 4.7 16.85 8.85" fill="none" stroke="#000000" stroke-linecap="butt" stroke-linejoin="miter-clip" stroke-miterlimit="10.0" stroke-width="1.0"/>
    <path d="M14.25 1.15 Q15.3 -0.35 17.35 0.1 19.8 0.55 20.8 4.1" fill="none" stroke="#000000" stroke-linecap="butt" stroke-linejoin="miter-clip" stroke-miterlimit="10.0" stroke-width="1.0"/>
    <path d="M14.5 3.4 L14.5 3.55 10.9 3.4 10.9 3.15 11.2 2.4 11.8 1.85 Q12.4 1.45 13.15 1.6 13.8 1.75 14.2 2.35 L14.5 3.4" fill="#000000" fill-rule="evenodd" stroke="none"/>
    <path d="M2.5 12.25 L4.25 8.9 10.7 12.3 10.85 4.4 14.5 4.55 14.1 14.25 17.35 19.7 Q17.95 20.75 17.8 21.6 17.65 22.35 16.85 22.85 L15.3 23.1 Q14.55 22.9 13.85 21.75 L10.65 16.3 2.5 12.25" fill="#000000" fill-rule="evenodd" stroke="none"/>
    <path d="M2.3 8.0 L3.35 8.45 1.6 11.8 1.0 11.4 0.25 10.65 Q-0.15 10.1 0.1 9.35 0.35 8.6 1.0 8.25 1.65 7.85 2.3 8.0" fill="#000000" fill-rule="evenodd" stroke="none"/>
  </g>
</svg>
