<?xml version="1.0" encoding="UTF-8" standalone="no"?>
<svg xmlns:xlink="http://www.w3.org/1999/xlink" height="21.0px" width="16.25px" xmlns="http://www.w3.org/2000/svg">
  <g transform="matrix(1.0, 0.0, 0.0, 1.0, 0.0, 0.0)">
    <path d="M1.7 16.15 L1.0 15.65 1.0 17.0 Q1.0 18.1 3.0 19.05 5.15 20.0 8.15 20.0 11.15 20.0 13.3 19.05 15.25 18.1 15.25 17.0 L15.25 15.65 14.6 16.15 Q12.2 17.7 8.15 17.7 4.05 17.7 1.7 16.15 M3.15 15.35 L2.25 14.95 1.45 14.45 1.25 14.3 1.2 14.3 1.35 14.55 1.7 14.9 1.9 15.05 1.95 15.15 2.25 15.3 Q4.5 16.7 8.15 16.7 11.85 16.7 14.05 15.3 L14.3 15.1 14.4 15.05 14.6 14.9 14.95 14.55 15.1 14.3 15.1 14.25 15.05 14.3 14.05 14.95 12.15 15.7 11.05 15.95 8.15 16.2 6.9 16.15 5.25 15.95 3.15 15.35 M1.7 11.35 L1.0 10.8 1.0 12.15 1.15 12.7 Q1.55 13.55 3.0 14.2 4.6 14.95 6.8 15.15 L8.15 15.2 Q10.85 15.2 12.85 14.4 14.7 13.7 15.15 12.7 L15.25 12.15 15.25 10.8 14.6 11.35 Q12.15 12.85 8.15 12.85 4.05 12.85 1.7 11.35 M1.25 9.5 L1.2 9.45 1.2 9.5 1.35 9.75 1.4 9.8 1.65 10.0 1.7 10.1 1.9 10.25 1.95 10.3 2.25 10.5 Q4.4 11.85 8.15 11.85 11.9 11.85 14.05 10.5 L14.3 10.3 14.4 10.25 14.6 10.1 14.65 10.0 14.9 9.8 14.95 9.7 15.1 9.5 15.1 9.45 15.05 9.5 14.85 9.65 14.05 10.15 13.15 10.55 12.15 10.85 9.8 11.3 6.5 11.3 5.25 11.1 3.15 10.55 2.25 10.15 1.45 9.65 1.25 9.5 M0.0 4.05 Q0.0 2.35 2.35 1.15 4.75 0.0 8.15 0.0 11.55 0.0 13.9 1.15 16.25 2.35 16.25 4.05 L16.25 7.35 16.1 8.1 16.25 8.85 16.25 12.15 16.1 12.9 16.25 13.65 16.25 17.0 Q16.25 18.7 13.9 19.85 11.55 21.0 8.15 21.0 4.75 21.0 2.35 19.85 0.0 18.7 0.0 17.0 L0.0 13.65 0.15 12.9 0.0 12.15 0.0 8.85 0.15 8.1 0.0 7.35 0.0 4.05 M1.7 6.5 L1.0 6.0 1.0 7.35 1.15 7.9 Q1.5 8.6 2.45 9.1 4.2 10.1 6.8 10.3 L8.15 10.35 Q10.85 10.35 12.85 9.6 14.7 8.85 15.15 7.9 L15.25 7.35 15.25 6.0 14.6 6.5 Q12.2 8.05 8.15 8.05 4.05 8.05 1.7 6.5 M1.0 4.05 Q1.0 4.85 2.25 5.65 4.35 7.05 8.15 7.05 11.95 7.05 14.05 5.65 15.25 4.9 15.25 4.05 15.25 2.9 13.3 2.0 11.15 1.0 8.15 1.0 5.15 1.0 3.0 2.0 1.0 2.9 1.0 4.05" fill="#000000" fill-rule="evenodd" stroke="none"/>
  </g>
</svg>
