<?xml version="1.0" encoding="UTF-8" standalone="no"?>
<svg xmlns:xlink="http://www.w3.org/1999/xlink" height="27.0px" width="27.0px" xmlns="http://www.w3.org/2000/svg">
  <g transform="matrix(1.0, 0.0, 0.0, 1.0, 0.0, 0.0)">
    <path d="M0.0 0.0 L27.0 0.0 27.0 27.0 0.0 27.0 0.0 0.0 M5.5 3.0 L5.5 4.0 21.5 4.0 21.5 3.0 5.5 3.0 M5.5 6.0 L5.5 7.0 21.5 7.0 21.5 6.0 5.5 6.0 M5.5 9.0 L5.5 10.0 21.5 10.0 21.5 9.0 5.5 9.0 M17.3 15.3 Q16.0 16.65 16.0 18.5 16.0 20.4 17.3 21.7 18.65 23.0 20.5 23.0 22.35 23.0 23.65 21.7 25.0 20.35 25.0 18.5 25.0 16.65 23.65 15.3 22.35 14.0 20.5 14.0 18.65 14.0 17.3 15.3" fill="#000000" fill-rule="evenodd" stroke="none"/>
    <path d="M18.75 16.75 Q19.45 16.0 20.5 16.0 21.5 16.0 22.25 16.75 23.0 17.5 23.0 18.5 23.0 19.55 22.25 20.3 21.5 21.0 20.5 21.0 19.45 21.0 18.75 20.3 18.0 19.55 18.0 18.5 18.0 17.5 18.75 16.75 Z" fill="none" stroke="#000000" stroke-linecap="butt" stroke-linejoin="miter-clip" stroke-miterlimit="10.0" stroke-width="1.0"/>
  </g>
</svg>
