<?xml version="1.0" encoding="UTF-8" standalone="no"?>
<svg xmlns:xlink="http://www.w3.org/1999/xlink" height="18.0px" width="10.95px" xmlns="http://www.w3.org/2000/svg">
  <g transform="matrix(1.0, 0.0, 0.0, 1.0, 0.0, 0.0)">
    <path d="M4.6 0.1 L7.9 0.0 7.5 1.6 9.0 1.8 Q9.8 1.95 10.45 2.25 L9.4 6.25 8.15 5.8 6.8 5.45 5.45 5.5 4.85 5.75 Q4.55 5.9 4.55 6.25 L4.7 6.45 5.0 6.6 6.75 6.95 7.7 7.25 8.8 7.8 Q9.4 8.1 9.85 8.55 L10.6 9.65 10.95 11.15 10.7 13.0 9.85 14.4 8.45 15.45 6.7 16.1 6.7 17.85 3.35 18.0 3.85 16.35 1.8 15.95 0.0 15.25 1.3 11.5 2.7 12.1 3.55 12.35 4.45 12.45 5.55 12.2 Q6.0 11.95 5.95 11.55 L5.65 11.1 5.0 10.8 3.4 10.25 2.4 9.75 1.5 9.05 0.8 8.05 0.55 6.8 Q0.5 5.9 0.8 5.0 L1.65 3.55 Q2.15 2.9 2.95 2.5 3.75 2.0 4.6 1.8 L4.6 0.1" fill="#000000" fill-rule="evenodd" stroke="none"/>
  </g>
</svg>
