<?xml version="1.0" encoding="UTF-8" standalone="no"?>
<svg xmlns:xlink="http://www.w3.org/1999/xlink" height="130.0px" width="350.0px" xmlns="http://www.w3.org/2000/svg">
  <g transform="matrix(1.0, 0.0, 0.0, 1.0, 180.0, 60.0)">
    <path d="M167.0 -60.0 Q170.0 -60.0 170.0 -57.0 L170.0 67.0 Q170.0 70.0 167.0 70.0 L-177.0 70.0 Q-180.0 70.0 -180.0 67.0 L-180.0 -57.0 Q-180.0 -60.0 -177.0 -60.0 L167.0 -60.0" fill="#ffffff" fill-opacity="0.9019608" fill-rule="evenodd" stroke="none"/>
    <path d="M167.0 -60.0 L-177.0 -60.0 Q-180.0 -60.0 -180.0 -57.0 L-180.0 67.0 Q-180.0 70.0 -177.0 70.0 L167.0 70.0 Q170.0 70.0 170.0 67.0 L170.0 -57.0 Q170.0 -60.0 167.0 -60.0 Z" fill="none" stroke="#000000" stroke-linecap="round" stroke-linejoin="round" stroke-opacity="0.49803922" stroke-width="0.05"/>
  </g>
</svg>
