<?xml version="1.0" encoding="UTF-8" standalone="no"?>
<svg xmlns:xlink="http://www.w3.org/1999/xlink" height="31.25px" width="34.0px" xmlns="http://www.w3.org/2000/svg">
  <g transform="matrix(1.0, 0.0, 0.0, 1.0, 0.0, 0.0)">
    <path d="M34.0 31.25 L0.0 31.25 0.0 29.25 34.0 29.25 34.0 31.25" fill="#000000" fill-rule="evenodd" stroke="none"/>
    <path d="M2.0 6.25 L32.0 6.25 32.0 8.25 2.0 8.25 2.0 6.25" fill="#000000" fill-rule="evenodd" stroke="none"/>
    <path d="M30.0 9.25 L30.0 25.25 27.0 25.25 27.0 9.25 30.0 9.25" fill="#000000" fill-rule="evenodd" stroke="none"/>
    <path d="M7.0 9.25 L7.0 25.25 4.0 25.25 4.0 9.25 7.0 9.25" fill="#000000" fill-rule="evenodd" stroke="none"/>
    <path d="M12.75 9.25 L12.75 25.25 9.75 25.25 9.75 9.25 12.75 9.25" fill="#000000" fill-rule="evenodd" stroke="none"/>
    <path d="M18.5 9.25 L18.5 25.25 15.5 25.25 15.5 9.25 18.5 9.25" fill="#000000" fill-rule="evenodd" stroke="none"/>
    <path d="M24.25 9.25 L24.25 25.25 21.25 25.25 21.25 9.25 24.25 9.25" fill="#000000" fill-rule="evenodd" stroke="none"/>
    <path d="M17.0 0.0 L30.0 5.25 4.0 5.25 17.0 0.0" fill="#000000" fill-rule="evenodd" stroke="none"/>
    <path d="M32.0 28.25 L2.0 28.25 2.0 26.25 32.0 26.25 32.0 28.25" fill="#000000" fill-rule="evenodd" stroke="none"/>
  </g>
</svg>
