<?xml version="1.0" encoding="UTF-8" standalone="no"?>
<svg xmlns:xlink="http://www.w3.org/1999/xlink" height="30.65px" width="33.65px" xmlns="http://www.w3.org/2000/svg">
  <g transform="matrix(1.0, 0.0, 0.0, 1.0, 0.0, 0.0)">
    <path d="M10.8 21.65 L8.3 21.65 8.3 24.15 10.8 24.15 10.8 21.65 M8.3 18.15 L8.3 20.65 10.8 20.65 10.8 18.15 8.3 18.15 M7.3 21.65 L4.8 21.65 4.8 24.15 7.3 24.15 7.3 21.65 M4.8 20.65 L7.3 20.65 7.3 18.15 4.8 18.15 4.8 20.65 M20.3 18.65 L13.3 18.65 13.3 30.65 2.3 30.65 2.3 14.5 16.8 2.65 31.3 14.5 31.3 30.65 20.3 30.65 20.3 18.65 M28.8 21.65 L26.3 21.65 26.3 24.15 28.8 24.15 28.8 21.65 M26.3 18.15 L26.3 20.65 28.8 20.65 28.8 18.15 26.3 18.15 M22.8 18.15 L22.8 20.65 25.3 20.65 25.3 18.15 22.8 18.15 M25.3 21.65 L22.8 21.65 22.8 24.15 25.3 24.15 25.3 21.65" fill="#000000" fill-rule="evenodd" stroke="none"/>
    <path d="M16.8 0.0 L24.3 6.1 24.3 3.65 28.3 3.65 28.3 9.4 33.65 13.75 33.0 14.5 16.8 1.25 0.65 14.5 0.0 13.75 16.8 0.0" fill="#000000" fill-rule="evenodd" stroke="none"/>
  </g>
</svg>
