<?xml version="1.0" encoding="UTF-8" standalone="no"?>
<svg xmlns:xlink="http://www.w3.org/1999/xlink" height="21.5px" width="16.65px" xmlns="http://www.w3.org/2000/svg">
  <g transform="matrix(1.0, 0.0, 0.0, 1.0, 0.0, 0.0)">
    <path d="M2.6 10.05 L4.45 12.25 3.5 12.25 Q3.5 13.7 4.35 14.95 5.15 16.1 6.45 16.7 L6.3 17.1 6.0 17.5 Q4.45 16.8 3.55 15.4 2.6 14.0 2.6 12.25 L2.6 10.05" fill="#000000" fill-rule="evenodd" stroke="none"/>
    <path d="M11.45 17.0 L10.95 16.25 12.0 15.2 12.7 15.85 11.45 17.0" fill="#000000" fill-rule="evenodd" stroke="none"/>
    <path d="M13.55 2.75 Q14.45 2.75 14.45 1.8 L14.2 1.15 Q13.95 0.9 13.55 0.9 13.15 0.9 12.9 1.15 12.6 1.45 12.6 1.8 12.6 2.2 12.9 2.5 L13.55 2.75 M13.55 0.0 Q14.3 0.0 14.85 0.55 15.35 1.05 15.35 1.8 L15.0 2.95 Q14.6 3.45 14.0 3.6 L14.0 7.4 13.1 7.15 13.1 3.6 Q12.5 3.45 12.1 2.95 11.7 2.45 11.7 1.8 11.7 1.05 12.25 0.55 12.8 0.0 13.55 0.0" fill="#000000" fill-rule="evenodd" stroke="none"/>
    <path d="M6.45 17.75 Q5.35 19.4 4.1 19.15 2.85 18.75 2.5 18.15 2.2 17.45 2.55 16.5 L2.55 16.15 2.1 16.0 Q1.55 16.0 1.35 16.45 0.85 17.75 1.05 18.6 1.3 19.4 2.4 20.0 L4.4 20.5 Q6.6 20.5 8.0 18.05 L7.8 18.0 6.45 17.75 M15.4 11.7 Q14.75 12.45 13.9 12.45 14.3 13.25 15.35 14.05 16.6 14.95 16.65 16.7 16.75 18.4 15.15 19.9 14.0 21.05 12.35 21.05 11.3 21.05 10.35 20.55 9.45 20.05 9.1 19.3 L8.8 18.65 Q7.15 21.5 4.4 21.5 3.05 21.5 1.95 20.85 -0.85 19.4 0.4 16.1 0.85 15.0 2.1 15.0 2.95 15.0 3.4 15.6 3.75 16.15 3.5 16.85 3.3 17.4 3.4 17.7 3.55 18.0 4.35 18.15 5.15 18.15 5.85 16.85 6.5 15.3 7.55 14.75 L8.8 14.45 Q10.7 14.45 11.6 16.3 11.95 16.95 12.25 16.95 L12.55 16.75 Q12.65 16.45 12.35 16.25 10.8 14.85 10.3 13.8 9.85 12.9 9.95 11.6 10.0 10.8 10.5 10.4 8.95 10.05 7.95 9.25 6.8 8.25 6.75 6.85 L6.7 5.8 Q6.6 3.9 6.8 3.15 7.15 1.95 8.5 1.8 9.65 1.75 10.25 2.35 10.85 3.0 10.75 4.7 L10.75 5.1 Q10.75 5.9 10.9 6.1 11.05 6.4 11.8 6.45 16.1 6.75 16.1 9.55 16.1 10.85 15.4 11.7 M12.75 11.35 L12.75 11.05 12.0 10.6 Q11.0 10.95 10.95 11.65 10.9 12.7 11.2 13.3 11.6 14.25 13.05 15.5 13.8 16.25 13.5 17.1 13.15 17.95 12.25 17.95 11.25 17.95 10.7 16.75 10.0 15.45 8.8 15.45 L8.0 15.6 Q7.5 15.9 6.95 16.8 L7.9 17.0 8.7 16.9 8.95 17.15 9.3 17.6 10.05 18.9 10.9 19.7 Q11.55 20.05 12.35 20.05 13.6 20.05 14.5 19.2 15.7 18.0 15.65 16.75 15.65 15.55 14.75 14.85 12.4 13.05 12.65 11.5 L12.75 11.35 M14.25 11.35 Q15.1 10.9 15.1 9.55 15.1 7.7 11.7 7.45 10.4 7.35 10.0 6.55 9.75 6.1 9.75 5.15 L9.75 4.65 9.5 3.05 Q9.25 2.8 8.8 2.8 L8.6 2.8 Q7.9 2.85 7.75 3.5 7.6 4.05 7.7 5.7 L7.75 6.8 Q7.75 8.05 9.15 8.85 10.35 9.5 11.75 9.5 13.8 9.5 14.25 11.35" fill="#000000" fill-rule="evenodd" stroke="none"/>
    <path d="M8.5 4.35 L8.05 4.8 Q7.6 4.8 7.6 4.35 7.6 3.9 8.05 3.9 8.5 3.9 8.5 4.35" fill="#000000" fill-rule="evenodd" stroke="none"/>
    <path d="M9.75 4.35 L9.3 4.8 Q8.85 4.8 8.85 4.35 8.85 3.9 9.3 3.9 9.75 3.9 9.75 4.35" fill="#000000" fill-rule="evenodd" stroke="none"/>
  </g>
</svg>
