<?xml version="1.0" encoding="UTF-8" standalone="no"?>
<svg xmlns:xlink="http://www.w3.org/1999/xlink" height="26.0px" width="176.0px" xmlns="http://www.w3.org/2000/svg">
  <g transform="matrix(1.0, 0.0, 0.0, 1.0, 0.5, 0.5)">
    <path d="M172.55 0.0 Q175.0 0.0 175.0 1.3 L175.0 23.7 Q175.0 25.0 172.55 25.0 L2.5 25.0 Q0.0 25.0 0.0 23.7 L0.0 1.3 Q0.0 0.0 2.5 0.0 L172.55 0.0" fill="#82511c" fill-rule="evenodd" stroke="none"/>
    <path d="M172.55 0.0 L2.5 0.0 Q0.0 0.0 0.0 1.3 L0.0 23.7 Q0.0 25.0 2.5 25.0 L172.55 25.0 Q175.0 25.0 175.0 23.7 L175.0 1.3 Q175.0 0.0 172.55 0.0 Z" fill="none" stroke="#666666" stroke-linecap="round" stroke-linejoin="round" stroke-width="1.0"/>
  </g>
</svg>
