<?xml version="1.0" encoding="UTF-8" standalone="no"?>
<svg xmlns:xlink="http://www.w3.org/1999/xlink" height="16.1px" width="16.1px" xmlns="http://www.w3.org/2000/svg">
  <g transform="matrix(1.0, 0.0, 0.0, 1.0, 0.05, 0.05)">
    <path d="M16.0 8.0 Q16.0 11.3 13.65 13.65 11.3 16.0 8.0 16.0 4.65 16.0 2.35 13.65 0.0 11.3 0.0 8.0 0.0 4.7 2.35 2.35 4.65 0.0 8.0 0.0 11.3 0.0 13.65 2.35 16.0 4.7 16.0 8.0" fill="#333333" fill-rule="evenodd" stroke="none"/>
    <path d="M16.0 8.0 Q16.0 11.3 13.65 13.65 11.3 16.0 8.0 16.0 4.65 16.0 2.35 13.65 0.0 11.3 0.0 8.0 0.0 4.7 2.35 2.35 4.65 0.0 8.0 0.0 11.3 0.0 13.65 2.35 16.0 4.7 16.0 8.0 Z" fill="none" stroke="#000000" stroke-linecap="round" stroke-linejoin="round" stroke-width="0.1"/>
  </g>
</svg>
