<?xml version="1.0" encoding="UTF-8" standalone="no"?>
<svg xmlns:xlink="http://www.w3.org/1999/xlink" height="51.7px" width="51.7px" xmlns="http://www.w3.org/2000/svg">
  <g transform="matrix(1.0, 0.0, 0.0, 1.0, 0.85, 0.85)">
    <path d="M50.0 25.0 Q50.0 35.35 42.6 42.65 35.35 50.0 25.0 50.0 14.65 50.0 7.25 42.65 0.0 35.35 0.0 25.0 0.0 14.65 7.25 7.3 14.65 0.0 25.0 0.0 35.35 0.0 42.6 7.3 50.0 14.65 50.0 25.0" fill="#ab986d" fill-rule="evenodd" stroke="none"/>
    <path d="M50.0 25.0 Q50.0 35.35 42.6 42.65 35.35 50.0 25.0 50.0 14.65 50.0 7.25 42.65 0.0 35.35 0.0 25.0 0.0 14.65 7.25 7.3 14.65 0.0 25.0 0.0 35.35 0.0 42.6 7.3 50.0 14.65 50.0 25.0 Z" fill="none" stroke="#3b2719" stroke-linecap="round" stroke-linejoin="round" stroke-width="1.75"/>
    <path d="M10.15 39.75 Q4.1 33.65 4.1 25.0 4.1 16.35 10.15 10.2 16.35 4.1 25.0 4.1 33.65 4.1 39.7 10.2 45.9 16.35 45.9 25.0 45.9 33.65 39.7 39.75 33.65 45.9 25.0 45.9 16.35 45.9 10.15 39.75" fill="#4f3b0f" fill-rule="evenodd" stroke="none"/>
    <path d="M10.35 39.55 Q4.35 33.55 4.35 25.0 4.35 16.45 10.35 10.4 16.45 4.35 25.0 4.35 33.55 4.35 39.55 10.4 45.65 16.45 45.65 25.0 45.65 33.55 39.55 39.55 33.55 45.65 25.0 45.65 16.45 45.65 10.35 39.55 Z" fill="none" stroke="#3b2718" stroke-linecap="round" stroke-linejoin="round" stroke-width="1.5"/>
  </g>
</svg>
