<?xml version="1.0" encoding="UTF-8" standalone="no"?>
<svg xmlns:xlink="http://www.w3.org/1999/xlink" height="31.0px" width="66.0px" xmlns="http://www.w3.org/2000/svg">
  <g transform="matrix(1.0, 0.0, 0.0, 1.0, 0.5, 0.5)">
    <path d="M0.0 26.0 L0.0 24.3 0.0 5.95 0.0 4.0 Q0.0 0.0 4.0 0.0 L5.7 0.0 59.3 0.0 61.0 0.0 Q65.0 0.0 65.0 4.0 L65.0 5.95 65.0 24.3 65.0 26.0 Q65.0 30.0 61.0 30.0 L59.3 30.0 5.7 30.0 4.0 30.0 Q0.0 30.0 0.0 26.0" fill="#ebdabe" fill-rule="evenodd" stroke="none"/>
    <path d="M0.0 26.0 Q0.0 30.0 4.0 30.0 L5.7 30.0 59.3 30.0 61.0 30.0 Q65.0 30.0 65.0 26.0 L65.0 24.3 65.0 5.95 65.0 4.0 Q65.0 0.0 61.0 0.0 L59.3 0.0 5.7 0.0 4.0 0.0 Q0.0 0.0 0.0 4.0 L0.0 5.95 0.0 24.3 0.0 26.0 Z" fill="none" stroke="#666666" stroke-linecap="round" stroke-linejoin="round" stroke-width="1.0"/>
  </g>
</svg>
