<?xml version="1.0" encoding="UTF-8" standalone="no"?>
<svg xmlns:xlink="http://www.w3.org/1999/xlink" height="26.0px" width="26.0px" xmlns="http://www.w3.org/2000/svg">
  <g transform="matrix(1.0, 0.0, 0.0, 1.0, 0.5, 0.5)">
    <path d="M21.35 21.35 Q17.7 25.0 12.5 25.0 7.3 25.0 3.65 21.35 0.0 17.7 0.0 12.5 0.0 7.3 3.65 3.65 7.3 0.0 12.5 0.0 17.7 0.0 21.35 3.65 25.0 7.3 25.0 12.5 25.0 17.7 21.35 21.35" fill="#fdcf1c" fill-rule="evenodd" stroke="none"/>
    <path d="M21.35 21.35 Q17.7 25.0 12.5 25.0 7.3 25.0 3.65 21.35 0.0 17.7 0.0 12.5 0.0 7.3 3.65 3.65 7.3 0.0 12.5 0.0 17.7 0.0 21.35 3.65 25.0 7.3 25.0 12.5 25.0 17.7 21.35 21.35 Z" fill="none" stroke="#544b01" stroke-linecap="round" stroke-linejoin="round" stroke-width="1.0"/>
  </g>
</svg>
