<?xml version="1.0" encoding="UTF-8" standalone="no"?>
<svg xmlns:xlink="http://www.w3.org/1999/xlink" height="70.1px" width="108.7px" xmlns="http://www.w3.org/2000/svg">
  <g transform="matrix(1.0, 0.0, 0.0, 1.0, -4.0, -1.0)">
    <path d="M99.2 35.75 L100.0 36.0 Q102.7 36.2 104.15 35.25 104.5 35.0 105.0 35.0 L105.55 35.15 Q107.25 40.25 104.0 41.0 L104.0 43.0 104.0 44.0 103.75 44.75 103.0 45.0 102.75 45.75 101.0 47.0 100.8 47.6 Q100.0 48.0 99.0 48.0 L98.75 48.75 98.0 49.0 Q98.3 50.7 101.0 50.1 L102.0 50.0 102.75 50.25 103.0 51.0 103.5 51.1 Q104.25 54.75 101.0 55.0 L100.1 55.2 Q99.5 55.5 99.0 56.0 L98.85 56.55 Q94.75 57.7 93.0 56.0 L93.0 55.0 93.0 54.0 Q95.2 53.7 95.5 51.05 L96.0 51.0 97.0 51.0 96.9 50.5 91.0 50.0 90.0 50.0 87.0 50.0 86.0 50.0 85.9 50.55 Q81.25 51.75 79.0 50.0 L79.75 49.75 80.0 49.0 79.85 48.45 77.0 48.0 76.0 48.0 74.0 48.0 74.0 49.0 Q75.65 48.9 74.6 50.8 74.5 51.0 74.0 51.0 L74.0 52.0 74.0 53.0 73.95 54.0 Q73.7 56.7 71.0 57.0 L70.0 56.95 Q67.3 56.8 66.0 58.0 L66.0 59.0 66.0 60.0 66.0 61.0 Q70.15 61.15 73.05 60.15 L74.0 60.0 Q74.5 60.0 74.65 60.25 77.35 63.95 73.0 62.0 L72.0 62.0 71.0 62.0 70.9 62.5 65.0 63.0 64.9 63.5 60.0 64.0 60.0 65.0 60.0 66.0 61.0 66.0 62.0 66.0 62.0 65.0 68.95 65.5 69.0 66.0 Q72.4 65.1 71.55 67.85 L71.0 68.0 70.9 69.0 Q70.55 71.55 67.0 71.0 L66.0 70.9 Q60.35 69.65 55.0 68.0 L54.05 68.1 Q49.3 69.2 50.0 65.0 L49.0 65.0 Q46.1 64.9 45.0 63.0 L44.1 62.8 Q42.5 62.0 41.0 61.0 L40.25 60.75 39.0 59.0 38.25 58.75 Q38.0 58.5 38.0 58.0 L37.15 57.8 Q33.75 55.75 31.0 53.0 L30.1 52.8 Q29.5 52.5 29.0 52.0 L28.45 51.85 Q27.7 49.8 25.0 50.0 L25.0 51.0 Q25.5 51.0 25.55 51.15 26.75 55.25 24.0 56.0 23.5 56.0 23.4 56.2 22.7 57.7 20.0 57.0 L19.0 57.1 Q16.3 57.7 16.0 56.0 L15.0 55.95 Q11.35 55.65 12.0 51.0 L13.0 51.0 13.0 50.0 Q14.0 49.5 15.05 49.15 L16.0 49.0 Q18.15 49.65 18.45 48.1 L19.0 48.0 19.0 47.0 20.0 47.0 21.0 47.0 21.0 46.0 20.0 46.0 19.0 45.9 Q17.0 45.5 16.0 44.0 16.0 43.5 15.8 43.4 13.25 42.2 13.0 39.0 L13.75 38.75 14.0 38.0 13.0 38.1 Q9.8 38.7 9.0 37.0 L8.25 36.75 Q8.0 36.5 8.0 36.0 L7.25 35.75 Q7.0 35.5 7.0 35.0 L6.2 34.75 Q4.65 33.35 4.0 31.0 L5.1 30.2 6.0 30.0 Q8.0 29.0 10.05 28.15 L11.0 28.0 11.0 27.0 12.0 27.0 12.0 26.0 12.0 24.0 13.0 24.0 13.0 23.0 Q14.7 22.7 15.4 21.2 15.5 21.0 16.0 21.0 L16.0 20.0 21.05 19.15 22.0 19.0 22.0 18.0 26.0 17.1 27.0 17.0 32.9 17.5 33.0 18.0 34.0 18.0 35.1 18.8 36.0 19.0 38.0 19.0 39.0 19.0 39.0 18.0 39.0 15.0 39.0 14.0 39.0 9.0 39.0 8.0 39.0 7.0 39.0 6.0 39.0 5.0 40.0 5.0 41.0 5.0 41.0 4.0 46.9 4.5 47.0 5.0 47.0 6.0 Q48.7 7.3 48.1 11.0 L48.0 12.0 49.0 12.0 49.0 11.0 49.0 9.0 50.0 9.0 50.0 8.0 55.05 7.15 56.0 7.0 56.0 6.0 56.0 5.0 56.0 1.0 59.0 1.0 60.0 1.0 61.0 1.0 Q64.45 1.05 65.8 3.15 L66.0 4.0 75.75 13.25 76.0 14.0 76.75 14.25 77.0 15.0 Q79.2 15.3 79.05 18.0 L79.0 19.0 Q82.1 17.2 80.15 22.05 80.0 22.5 80.0 23.0 L80.0 24.0 80.0 25.0 Q80.5 25.0 80.75 25.25 L81.0 26.0 Q83.7 25.3 84.4 26.8 84.5 27.0 85.0 27.0 L86.0 27.0 87.0 27.0 89.85 27.45 90.0 28.0 92.85 28.45 93.0 29.0 95.0 29.0 96.0 29.0 Q96.4 33.6 99.2 35.75 M110.0 38.0 Q115.35 40.15 110.15 38.55 110.0 38.5 110.0 38.0 M86.0 58.0 Q92.65 60.4 86.15 58.55 86.0 58.5 86.0 58.0 M37.0 66.0 Q43.65 68.4 37.15 66.55 37.0 66.5 37.0 66.0" fill="#ff0000" fill-rule="evenodd" stroke="none"/>
  </g>
</svg>
