<?xml version="1.0" encoding="UTF-8" standalone="no"?>
<svg xmlns:xlink="http://www.w3.org/1999/xlink" height="79.0px" width="74.0px" xmlns="http://www.w3.org/2000/svg">
  <g transform="matrix(1.0, 0.0, 0.0, 1.0, 0.0, 0.0)">
    <path d="M63.0 16.0 Q64.7 16.3 64.1 19.0 L64.0 20.0 Q67.3 22.7 67.0 29.0 L67.0 30.0 Q68.75 34.25 68.05 41.0 L68.0 42.0 Q70.95 42.55 72.75 44.25 L73.0 45.0 74.0 45.0 74.0 48.0 74.0 49.0 74.0 59.0 74.0 60.0 74.0 62.0 74.0 63.0 73.0 63.0 72.75 63.75 71.0 65.0 70.8 65.6 Q70.0 66.0 69.0 66.0 L68.95 66.5 62.0 67.0 61.75 67.75 61.0 68.0 61.0 69.0 Q61.3 70.7 64.0 70.1 L65.0 70.0 70.9 70.5 71.0 71.0 Q72.7 71.3 71.6 73.8 71.5 74.0 71.0 74.0 L70.0 74.0 69.9 74.5 Q63.25 75.75 59.0 74.0 L58.4 73.8 Q58.0 73.0 58.0 72.0 L58.0 71.5 49.0 75.0 48.75 75.75 Q46.95 77.45 44.0 78.0 L44.0 79.0 43.0 79.0 38.0 79.0 38.0 78.0 37.1 77.8 36.0 77.0 35.45 76.85 Q34.3 72.7 30.0 72.0 L29.0 72.0 Q26.1 71.9 25.0 70.0 L24.05 69.8 Q20.25 68.25 19.0 64.0 L18.0 64.0 18.0 65.0 18.0 66.0 18.0 67.0 17.8 67.9 Q15.7 72.0 13.0 67.0 L12.0 66.9 Q2.8 65.2 1.0 56.0 L0.75 55.25 0.0 55.0 0.0 54.0 0.0 50.0 1.0 50.0 1.0 49.0 1.0 48.0 2.0 48.0 2.0 47.0 Q3.05 46.05 4.85 45.55 L5.0 45.0 5.0 44.0 10.9 44.5 11.0 45.0 12.0 45.0 Q14.65 46.35 15.8 49.1 L16.0 50.0 Q17.7 48.2 17.5 44.0 L18.0 44.0 18.0 43.0 18.0 42.0 19.0 42.0 19.0 41.0 19.0 40.0 20.0 40.0 20.0 39.0 Q22.2 37.7 22.05 34.0 L22.0 33.0 22.0 32.0 22.0 31.0 22.0 26.0 22.0 25.5 Q19.9 25.65 20.0 24.0 L19.0 24.0 18.0 24.1 Q15.3 24.7 15.0 23.0 L15.0 22.0 15.0 20.0 Q16.65 20.15 16.5 18.0 L17.0 18.0 17.0 17.0 Q18.7 16.7 19.4 15.2 L20.0 15.0 20.0 14.0 Q22.75 12.75 25.15 11.25 25.5 11.0 26.0 11.0 L26.0 10.0 27.0 10.0 Q28.95 9.95 30.15 9.25 L31.0 9.0 31.0 8.0 31.0 7.0 Q33.55 5.05 35.35 2.25 35.5 2.0 36.0 2.0 L36.0 1.0 37.0 1.0 38.0 1.0 38.0 0.0 44.0 0.0 45.0 0.0 45.0 1.0 47.85 1.45 48.0 2.0 51.9 2.45 52.0 3.0 Q56.65 2.75 54.25 6.15 54.0 6.5 54.0 7.0 L54.0 10.0 54.0 11.0 55.0 11.0 Q59.5 12.5 62.75 15.3 L63.0 16.0 M30.0 18.0 L30.0 17.0 31.0 17.0 31.0 16.0 31.0 14.0 30.1 13.8 Q28.3 12.85 25.0 15.0 L24.75 15.75 20.0 20.0 20.0 21.0 20.0 22.0 21.0 22.0 Q23.0 21.0 25.05 20.15 L26.0 20.0 26.0 19.0 Q27.95 18.95 29.15 18.25 L30.0 18.0 M57.0 18.0 L56.0 18.0 56.0 19.0 56.0 20.0 56.5 20.05 Q56.7 21.7 55.0 22.0 L55.0 26.0 55.0 27.0 55.0 28.0 Q56.7 28.3 57.4 29.8 57.5 30.0 58.0 30.0 59.65 30.15 59.5 28.0 L60.0 28.0 60.0 27.0 60.0 22.0 Q60.0 21.5 59.8 21.35 57.85 20.15 57.0 18.0" fill="#ff0000" fill-rule="evenodd" stroke="none"/>
  </g>
</svg>
