<?xml version="1.0" encoding="UTF-8" standalone="no"?>
<svg xmlns:xlink="http://www.w3.org/1999/xlink" height="110.0px" width="88.0px" xmlns="http://www.w3.org/2000/svg">
  <g transform="matrix(1.0, 0.0, 0.0, 1.0, -1.0, -1.0)">
    <path d="M89.0 92.0 L88.0 92.0 87.75 91.3 84.0 88.0 83.0 88.0 77.0 88.0 76.75 88.75 76.0 89.0 75.1 89.2 74.0 90.0 Q73.4 92.15 74.9 92.5 L75.0 93.0 Q81.0 95.1 87.0 93.5 L87.0 94.0 Q86.5 94.0 86.4 94.2 85.7 95.7 83.0 95.0 L82.85 95.55 Q78.75 96.7 77.0 95.0 L76.15 94.75 74.0 93.0 73.0 93.0 73.0 92.0 73.0 89.0 Q73.5 88.5 74.1 88.2 L75.0 88.0 75.0 87.5 Q72.9 87.65 73.0 86.0 L72.1 85.8 Q71.5 85.5 71.0 85.0 L70.15 84.75 Q69.05 83.95 69.0 82.0 L72.1 80.2 73.0 80.0 73.0 79.0 Q76.9 79.9 76.1 76.0 L76.0 75.0 75.05 75.15 73.0 76.0 72.8 76.65 Q70.8 77.8 68.0 78.0 L67.85 78.55 Q65.05 79.55 63.0 81.0 62.5 81.0 62.25 81.25 61.0 82.5 59.0 83.0 L58.0 83.0 57.85 83.55 Q55.05 84.55 53.0 86.0 53.0 86.5 53.25 86.75 L54.0 87.0 Q57.2 89.45 55.2 93.1 L55.0 94.0 54.85 94.55 Q50.75 95.75 50.0 93.0 L49.0 93.0 Q48.5 93.0 48.4 92.8 47.7 91.3 45.0 92.0 L44.8 92.6 Q44.0 93.0 43.0 93.0 L43.0 94.0 42.75 94.75 42.0 95.0 42.0 96.0 42.25 96.75 43.0 97.0 Q46.7 96.75 47.8 99.1 L48.0 100.0 48.0 101.0 48.55 101.15 Q49.15 102.65 47.0 102.0 L47.0 103.0 47.0 104.0 48.0 104.0 48.0 103.0 49.0 103.0 50.0 103.0 50.0 102.0 Q52.0 101.5 53.25 100.25 53.5 100.0 54.0 100.0 L55.0 100.0 55.0 99.0 Q57.95 97.95 60.2 96.25 L61.0 96.0 61.0 95.0 Q64.3 94.3 66.25 92.25 66.5 92.0 67.0 92.0 L69.0 92.0 70.0 92.0 71.75 93.25 72.0 94.0 71.85 94.55 Q69.45 95.45 68.0 97.0 L67.2 97.25 Q64.5 99.5 61.0 101.0 60.5 101.0 60.45 101.15 59.7 103.2 57.0 103.0 L56.75 103.7 53.0 106.0 52.0 106.0 51.75 106.75 Q48.95 109.45 43.0 109.0 L43.0 110.0 43.0 111.0 42.0 111.0 41.0 111.0 41.0 110.0 40.15 109.75 35.0 106.0 34.15 105.75 32.0 104.0 31.1 103.8 30.0 103.0 29.1 102.8 Q25.85 101.15 23.0 99.0 L22.15 98.75 20.0 97.0 19.1 96.8 18.0 96.0 17.15 95.8 13.0 93.0 12.25 92.75 12.0 92.0 11.0 91.9 Q9.0 91.5 8.0 90.0 L7.15 89.75 5.0 88.0 4.1 87.8 Q3.5 87.5 3.0 87.0 L2.15 86.75 Q1.05 85.95 1.0 84.0 L1.0 83.0 1.0 82.0 Q1.5 81.5 2.1 81.2 L3.0 81.0 3.0 80.0 3.0 79.0 Q3.5 78.5 4.1 78.2 L5.0 78.0 6.0 78.0 6.0 77.0 Q8.7 76.3 9.4 77.8 9.5 78.0 10.0 78.0 L10.0 77.0 11.0 77.0 11.0 76.0 11.8 74.9 12.0 74.0 11.1 73.8 10.0 73.0 9.25 72.75 Q6.7 70.3 7.0 65.0 L7.0 64.0 7.0 63.0 6.45 62.85 Q6.0 61.5 6.0 60.0 L5.75 59.25 Q4.3 57.7 5.0 54.0 L5.0 53.0 5.0 52.0 4.5 51.9 Q4.0 49.0 4.0 46.0 L4.0 45.0 4.0 43.0 4.0 42.0 4.0 41.0 4.75 40.75 5.0 40.0 5.0 39.0 5.0 38.0 5.0 37.0 5.0 35.0 Q5.5 34.5 6.1 34.2 L7.0 34.0 7.0 33.0 8.0 33.0 9.0 33.0 8.75 32.15 Q7.8 30.7 8.0 28.0 L9.0 28.0 9.0 27.0 13.0 27.9 14.0 28.0 14.0 27.0 Q16.05 25.5 19.1 26.8 L20.0 27.0 Q22.15 27.65 22.45 26.1 L23.0 26.0 23.0 25.5 Q20.9 25.65 21.0 24.0 20.5 24.0 20.4 23.8 20.0 23.0 20.0 22.0 L20.0 21.0 20.0 20.0 27.0 20.0 28.0 20.0 33.0 20.0 34.0 20.0 35.0 20.0 36.0 20.0 36.0 19.0 Q38.95 18.45 41.1 17.2 L42.0 17.0 42.0 16.0 42.8 14.9 43.0 14.0 42.1 13.8 Q35.5 10.0 30.0 5.0 31.05 4.05 32.9 4.45 L33.0 5.0 34.0 5.0 35.0 5.0 36.0 5.0 36.0 4.0 36.0 2.0 36.75 1.75 37.0 1.0 Q38.95 1.05 39.75 2.15 L40.0 3.0 41.0 3.0 Q42.65 4.35 46.0 4.5 L46.0 5.0 47.1 5.8 48.0 6.0 Q49.5 7.0 50.75 8.25 L51.0 9.0 Q52.7 9.3 53.4 10.8 53.5 11.0 54.0 11.0 55.35 12.65 55.9 15.0 L56.0 16.0 Q56.8 17.7 58.85 18.45 L59.0 19.0 Q62.0 20.5 65.1 21.8 L66.0 22.0 Q69.75 21.75 70.45 24.9 L71.0 25.0 Q71.5 25.5 72.1 25.8 L73.0 26.0 Q77.7 24.8 77.05 29.0 L77.0 30.0 77.0 31.0 77.0 32.0 Q77.5 32.0 77.75 32.25 L78.0 33.0 79.75 34.25 80.0 35.0 Q81.75 51.75 80.5 70.95 L80.0 71.0 79.75 71.75 79.0 72.0 78.75 72.75 77.0 74.0 Q78.45 80.05 81.6 84.1 83.25 86.25 80.0 86.0 L80.0 87.0 83.0 87.0 84.0 87.0 Q87.2 87.25 88.4 89.8 L89.0 90.0 89.0 91.0 89.0 92.0" fill="#ff0000" fill-rule="evenodd" stroke="none"/>
  </g>
</svg>
