<?xml version="1.0" encoding="UTF-8" standalone="no"?>
<svg xmlns:xlink="http://www.w3.org/1999/xlink" height="39.0px" width="33.0px" xmlns="http://www.w3.org/2000/svg">
  <g transform="matrix(1.0, 0.0, 0.0, 1.0, 0.0, -1.0)">
    <path d="M31.0 9.0 L31.75 9.25 32.0 10.0 33.0 10.0 33.0 21.0 33.0 22.0 33.0 32.0 33.0 33.0 32.0 33.0 Q31.5 33.0 31.3 33.25 29.9 34.9 27.0 35.0 L26.85 35.55 Q25.05 36.05 24.0 37.0 23.5 37.0 23.3 37.25 21.9 38.9 19.0 39.0 L19.0 40.0 18.0 40.0 14.0 40.0 14.0 39.0 13.25 38.75 Q13.0 38.5 13.0 38.0 L12.1 37.8 Q6.9 35.1 1.0 33.0 L0.0 33.0 0.0 32.0 0.0 10.0 1.0 10.0 1.0 9.0 2.0 9.0 2.0 8.0 3.0 8.0 4.0 8.0 4.0 7.0 Q9.75 4.75 14.8 1.65 L15.0 1.0 17.0 1.0 18.0 1.0 Q19.0 3.5 23.0 3.5 L23.0 4.0 Q23.5 4.0 23.75 4.25 L24.0 5.0 24.75 5.25 25.0 6.0 28.9 6.45 29.0 7.0 30.75 8.25 31.0 9.0" fill="#ff0000" fill-rule="evenodd" stroke="none"/>
  </g>
</svg>
