<?xml version="1.0" encoding="UTF-8" standalone="no"?>
<svg xmlns:xlink="http://www.w3.org/1999/xlink" height="44.0px" width="37.5px" xmlns="http://www.w3.org/2000/svg">
  <g transform="matrix(1.0, 0.0, 0.0, 1.0, 0.0, 0.0)">
    <path d="M22.65 0.65 Q23.55 1.4 24.0 5.0 27.95 11.95 29.9 14.25 L30.05 16.55 Q30.05 17.6 29.5 18.5 28.95 19.4 28.95 21.0 28.95 25.35 33.25 26.9 L36.15 28.05 Q37.5 28.85 37.5 30.35 37.5 31.95 34.7 32.2 31.9 32.5 31.9 33.75 L32.0 35.6 Q32.0 36.7 31.8 36.8 L25.6 35.7 22.25 36.1 Q19.0 36.75 19.0 38.0 L21.5 43.0 Q21.5 44.0 20.95 43.7 20.9 44.0 19.9 44.0 18.75 44.0 16.25 41.2 13.7 38.35 13.2 38.35 12.8 38.35 9.55 40.3 6.35 42.25 2.75 42.25 L1.8 42.1 Q0.9 41.7 0.9 40.3 0.9 39.3 1.95 38.75 3.0 38.2 3.0 37.0 3.0 36.4 0.0 33.0 3.5 33.45 5.3 32.1 6.95 30.8 7.0 28.0 5.1 27.9 4.6 27.4 4.0 26.8 4.0 24.5 4.0 23.0 6.55 20.4 9.25 17.65 9.85 13.15 10.55 7.8 13.8 3.6 16.55 0.0 18.5 0.0 21.9 0.0 22.65 0.65" fill="#ff0000" fill-opacity="0.99607843" fill-rule="evenodd" stroke="none"/>
  </g>
</svg>
