<?xml version="1.0" encoding="UTF-8" standalone="no"?>
<svg xmlns:xlink="http://www.w3.org/1999/xlink" height="65.55px" width="31.1px" xmlns="http://www.w3.org/2000/svg">
  <g transform="matrix(1.0, 0.0, 0.0, 1.0, -1.0, -1.45)">
    <path d="M21.8 2.35 Q22.85 1.45 24.65 1.45 26.1 1.45 27.45 4.7 29.75 10.1 32.1 13.5 L31.8 13.85 30.0 14.0 Q30.0 15.0 29.0 15.0 L29.0 25.0 Q28.85 25.75 26.6 26.7 L18.0 30.0 18.0 67.0 14.0 67.0 14.0 33.0 Q13.0 32.9 8.25 30.9 4.8 29.45 2.55 29.9 L3.2 29.15 3.5 28.45 3.25 26.0 Q3.0 22.75 3.0 16.0 2.1 15.9 1.0 15.0 5.1 11.6 8.15 9.3 14.0 4.95 17.2 4.25 L18.8 4.1 20.2 3.8 21.8 2.35" fill="#ff0101" fill-opacity="0.99607843" fill-rule="evenodd" stroke="none"/>
  </g>
</svg>
