<?xml version="1.0" encoding="UTF-8" standalone="no"?>
<svg xmlns:xlink="http://www.w3.org/1999/xlink" height="134.0px" width="109.0px" xmlns="http://www.w3.org/2000/svg">
  <g transform="matrix(1.0, 0.0, 0.0, 1.0, -1.0, -1.0)">
    <path d="M86.5 46.35 L84.0 46.0 84.0 60.0 95.0 63.0 Q95.3 61.6 96.3 60.75 96.95 60.15 97.3 60.15 98.35 60.15 98.8 60.5 99.65 61.15 99.65 63.05 99.65 69.9 99.0 73.9 99.2 74.8 100.85 75.35 L106.5 77.0 Q106.9 79.65 103.9 81.1 100.05 83.0 99.9 83.2 101.3 84.7 104.85 86.0 107.7 87.7 107.7 92.2 L106.85 97.9 Q106.8 98.1 110.0 99.0 L110.0 119.0 Q106.75 120.0 104.9 121.05 L102.0 122.4 Q101.3 122.65 100.3 123.25 99.2 124.0 97.85 124.55 94.3 126.0 87.25 130.2 81.75 133.5 80.0 133.5 75.85 133.5 71.65 130.9 67.2 128.1 66.0 128.0 66.8 131.05 65.45 131.05 L61.95 133.05 Q58.15 135.0 56.0 135.0 54.45 134.35 53.0 133.15 50.05 130.75 50.0 128.0 L41.3 124.05 Q37.1 122.05 34.0 121.0 L34.0 125.0 Q35.05 125.75 35.05 128.15 35.05 129.5 34.7 130.2 L34.0 131.0 Q33.1 130.45 32.7 128.25 L32.05 123.85 Q30.85 117.9 26.0 117.0 26.1 119.4 25.45 121.7 24.85 123.9 25.0 125.5 23.7 125.3 23.15 124.3 22.65 123.4 22.65 121.6 22.65 120.65 22.95 119.95 23.35 119.0 24.0 119.0 L24.0 115.0 22.0 115.0 21.05 116.3 Q20.3 117.0 19.0 117.0 15.25 117.0 13.25 114.75 10.0 111.05 10.0 101.0 10.0 100.3 10.65 99.5 11.7 98.3 14.0 98.0 L14.0 87.0 Q11.3 86.4 7.5 83.5 2.65 79.85 1.0 79.0 L1.0 77.0 5.0 75.4 5.0 65.0 4.45 65.0 4.0 61.0 Q4.0 59.95 6.0 59.95 L8.75 59.95 9.0 58.5 8.55 56.3 Q8.05 54.35 8.0 53.0 7.75 53.0 7.35 50.4 7.0 47.9 7.0 47.0 7.0 45.95 9.2 44.95 11.45 43.9 13.85 43.9 16.9 43.9 18.0 46.05 18.7 47.45 22.0 59.0 26.3 58.45 30.9 56.05 34.3 54.3 34.8 53.6 L34.7 52.65 Q34.6 52.0 34.0 52.0 L32.7 51.95 31.85 50.95 36.2 44.9 Q38.7 41.05 39.0 39.5 33.3 39.05 31.9 36.55 31.3 35.55 30.0 28.0 L31.0 28.0 31.0 25.0 33.85 22.45 Q36.35 20.0 36.8 20.0 38.75 20.0 48.5 24.0 L49.85 23.5 52.0 23.0 52.0 16.0 48.95 16.0 48.85 14.95 53.0 10.5 Q56.0 7.1 56.0 6.0 57.6 5.6 67.5 1.0 L69.15 1.1 Q69.3 0.9 69.3 1.9 69.3 4.65 72.0 10.5 74.7 16.3 74.7 17.15 74.7 19.05 72.8 19.05 72.15 19.05 72.05 22.4 L72.0 26.5 Q72.0 31.75 72.25 33.2 72.6 35.25 74.05 36.4 74.95 37.1 78.95 39.0 84.05 41.45 88.5 44.05 L88.0 46.15 86.5 46.35" fill="#ff0000" fill-rule="evenodd" stroke="none"/>
  </g>
</svg>
