<?xml version="1.0" encoding="UTF-8" standalone="no"?>
<svg xmlns:xlink="http://www.w3.org/1999/xlink" height="62.0px" width="74.0px" xmlns="http://www.w3.org/2000/svg">
  <g transform="matrix(1.0, 0.0, 0.0, 1.0, 0.0, -1.0)">
    <path d="M53.0 11.0 Q53.5 11.0 53.55 11.15 55.2 15.7 52.0 16.0 L51.0 16.0 51.0 19.0 51.0 20.0 51.0 21.0 51.0 22.0 Q53.15 22.85 53.85 25.05 L54.0 26.0 54.0 27.0 54.0 29.0 54.0 30.0 54.75 30.25 55.0 31.0 Q56.7 31.8 56.1 35.0 L56.0 36.0 56.0 40.0 56.0 41.0 55.85 41.55 53.0 42.0 52.0 42.0 52.0 43.0 52.0 44.0 52.1 44.95 Q52.9 48.4 50.0 48.0 L49.85 48.55 Q44.4 50.1 45.0 45.0 L45.0 44.0 44.0 44.0 42.0 44.0 41.85 44.55 Q38.05 46.05 37.0 50.0 L36.85 50.55 Q34.8 51.3 34.0 53.0 34.0 53.5 33.8 53.6 33.0 54.0 32.0 54.0 L32.0 55.0 35.9 55.45 36.0 56.0 36.0 58.0 36.0 59.0 36.0 60.0 36.5 60.0 Q35.5 63.0 31.0 63.0 L30.0 63.0 29.0 63.0 28.25 62.75 Q28.0 62.5 28.0 62.0 L27.0 62.0 Q24.1 61.9 23.0 60.0 L22.4 59.8 Q22.0 59.0 22.0 58.0 L23.1 57.2 24.0 57.0 Q26.7 57.7 27.4 56.2 27.5 56.0 28.0 56.0 L28.0 55.0 28.0 54.0 27.25 53.75 27.0 53.0 26.45 52.85 Q26.0 51.5 26.0 50.0 L25.4 49.8 Q25.0 49.0 25.0 48.0 L26.0 48.0 27.0 48.0 27.0 47.0 27.75 46.75 28.0 46.0 27.0 46.0 23.0 46.0 22.0 46.0 21.0 46.0 Q23.25 48.15 22.25 49.25 22.0 49.5 22.0 50.0 L22.05 51.0 Q22.2 53.7 20.0 54.0 L19.45 54.1 Q19.15 55.65 17.0 55.0 L16.0 55.0 Q9.35 54.65 9.0 48.0 L10.0 48.0 Q11.5 47.0 13.1 46.2 L14.0 46.0 14.0 45.0 15.0 45.0 14.8 44.1 14.0 43.0 13.05 43.1 Q8.9 44.1 9.0 41.0 L9.75 40.75 10.0 40.0 Q12.55 39.55 14.2 38.25 14.5 38.0 15.0 38.0 L16.0 38.0 15.75 37.15 Q15.05 35.95 15.0 34.0 L14.5 33.95 Q14.0 30.0 14.0 26.0 L13.85 25.05 13.0 23.0 13.0 22.0 12.25 21.75 12.0 21.0 11.85 20.05 11.0 18.0 10.05 17.85 Q7.85 17.15 7.0 15.0 L7.0 14.5 Q4.9 14.65 5.0 13.0 L4.0 13.0 3.0 13.0 2.0 13.0 1.0 13.0 0.0 13.0 0.0 12.0 0.0 10.0 1.1 9.2 2.0 9.0 2.0 8.0 3.1 7.2 4.0 7.0 4.0 6.0 Q6.45 4.95 9.95 5.5 L10.0 6.0 Q11.7 6.3 11.1 9.0 L11.0 10.0 Q12.9 12.6 14.4 15.8 14.5 16.0 15.0 16.0 L15.0 15.0 15.0 14.0 15.0 11.0 16.0 11.0 16.0 10.0 16.0 9.0 21.0 9.0 22.0 9.0 23.0 9.0 23.0 8.0 25.75 5.75 26.0 5.0 26.0 4.0 27.75 1.85 28.0 1.0 Q30.45 2.05 31.75 4.15 L32.0 5.0 Q37.05 2.85 38.8 6.1 L39.0 7.0 Q44.2 7.8 48.1 9.8 L49.0 10.0 Q50.05 10.95 52.0 11.0 L53.0 11.0 M63.0 39.0 L63.0 38.0 64.0 38.0 Q70.8 35.45 73.75 40.15 L74.0 41.0 74.0 42.0 73.75 42.8 Q71.0 46.0 64.0 45.0 L63.0 45.0 62.5 44.9 Q62.0 42.0 62.0 39.0 L63.0 39.0 M1.0 34.0 L1.0 33.0 6.05 32.15 7.0 32.0 7.8 33.1 8.0 34.0 Q9.7 35.3 9.1 39.0 L9.0 40.0 8.0 40.0 7.0 40.0 Q7.0 40.5 6.8 40.6 4.3 41.7 4.0 40.0 L3.25 39.75 1.0 37.0 1.0 36.0 1.0 34.0" fill="#ff0000" fill-rule="evenodd" stroke="none"/>
  </g>
</svg>
