<?xml version="1.0" encoding="UTF-8" standalone="no"?>
<svg xmlns:xlink="http://www.w3.org/1999/xlink" height="82.2px" width="71.0px" xmlns="http://www.w3.org/2000/svg">
  <g transform="matrix(1.0, 0.0, 0.0, 1.0, -0.9, -1.75)">
    <path d="M7.0 53.0 L7.5 53.1 Q9.45 62.95 4.0 61.0 L3.15 60.75 Q0.5 59.0 1.0 54.0 L6.05 53.15 7.0 53.0 M60.0 20.0 L60.05 21.0 Q60.4 23.9 57.0 23.0 L57.0 24.75 57.0 25.0 57.0 26.0 56.2 30.9 55.95 33.0 57.0 33.0 58.0 33.0 Q59.35 34.65 59.5 38.0 L60.0 38.0 Q61.75 40.75 60.55 45.9 L60.0 46.0 60.05 47.0 Q60.2 49.65 58.65 50.55 L58.0 50.55 58.0 50.85 57.25 51.0 Q57.95 53.5 58.0 55.6 L58.0 56.3 Q57.95 58.8 56.8 60.55 L56.0 62.0 56.0 63.0 55.0 63.0 54.0 63.0 51.0 64.0 51.1 65.0 Q51.7 68.5 50.6 70.3 49.2 72.55 45.0 72.0 L44.3 71.75 43.45 70.3 Q42.45 67.9 43.0 64.0 L42.0 63.95 Q37.0 63.5 35.0 66.0 L35.0 67.0 35.05 68.0 35.25 70.3 Q35.2 72.75 34.0 74.0 L33.9 74.55 Q28.75 75.75 26.0 74.0 L25.5 73.9 24.7 70.3 Q23.45 65.95 21.0 63.0 L20.95 64.0 Q20.1 70.6 15.0 68.0 L14.0 67.95 Q12.3 67.7 12.0 66.0 L11.5 65.95 11.35 63.0 11.0 63.0 11.0 62.0 11.0 54.0 11.0 53.0 11.0 52.0 10.1 51.8 Q8.2 50.8 7.0 49.0 L7.0 48.0 7.0 47.0 6.5 46.95 Q6.0 43.0 6.0 39.0 L7.0 39.0 7.0 38.0 7.0 37.0 7.0 35.0 7.9 34.5 8.0 34.0 8.7 33.8 8.75 33.75 9.0 33.0 9.65 33.0 Q10.35 32.0 10.05 30.0 L10.0 29.0 9.5 29.0 9.2 24.75 Q8.8 20.05 8.0 16.0 L8.0 15.0 8.0 14.0 8.0 13.0 8.0 11.0 7.8 10.4 Q5.2 9.3 4.0 7.0 L4.0 6.0 4.0 4.0 Q16.3 -0.75 18.85 7.05 L19.0 8.0 18.75 8.75 18.0 9.0 18.0 10.0 Q27.6 10.1 31.75 4.8 L32.0 4.0 32.0 3.0 32.0 2.0 Q36.75 0.75 38.85 6.05 L39.0 7.0 Q48.25 14.25 59.8 19.4 L60.0 20.0 M35.05 83.15 Q25.8 86.0 22.0 79.0 L23.1 78.2 24.0 78.0 29.05 77.15 30.0 77.0 30.0 76.0 32.0 76.0 33.0 76.0 Q37.95 76.55 36.5 82.9 L36.0 83.0 35.05 83.15 M68.05 66.35 Q60.3 67.7 62.0 60.0 75.7 55.05 70.45 65.2 70.0 66.0 68.05 66.35" fill="#ff0000" fill-rule="evenodd" stroke="none"/>
  </g>
</svg>
