<?xml version="1.0" encoding="UTF-8" standalone="no"?>
<svg xmlns:xlink="http://www.w3.org/1999/xlink" height="94.25px" width="72.0px" xmlns="http://www.w3.org/2000/svg">
  <g transform="matrix(1.0, 0.0, 0.0, 1.0, 0.0, 5.0)">
    <path d="M34.8 -3.9 L35.0 -3.0 Q37.9 -2.9 39.3 -1.25 39.5 -1.0 40.0 -1.0 41.65 -1.15 41.1 1.05 L41.0 2.0 Q41.5 3.0 41.5 4.0 L41.0 4.0 41.0 5.0 41.5 5.45 41.9 5.5 42.0 5.75 42.1 5.8 43.0 6.0 Q47.85 9.5 52.25 5.25 52.3 5.2 54.3 3.9 56.7 2.4 57.0 6.0 58.3 7.2 61.0 7.05 L62.0 7.0 Q63.65 6.9 62.6 8.8 62.5 9.0 62.0 9.0 L62.9 13.0 63.0 14.0 Q65.65 13.35 64.6 15.8 L64.0 16.0 63.0 16.0 62.75 16.75 62.0 17.0 62.0 18.0 Q62.95 19.05 62.55 20.9 L62.0 21.0 61.95 21.5 Q58.8 21.8 58.0 24.0 L57.9 25.05 Q58.1 26.7 57.9 28.45 58.2 31.95 59.75 34.15 L60.0 35.0 Q61.75 37.25 60.55 41.9 L60.0 42.0 Q61.55 44.95 61.05 50.0 L61.0 51.0 61.1 51.95 Q61.9 55.4 59.0 55.0 L58.95 56.0 Q58.7 57.55 57.25 57.95 57.8 62.0 57.05 64.75 L57.1 64.95 Q57.65 67.1 56.05 67.0 L56.0 67.1 56.0 68.0 55.25 68.0 54.0 69.0 53.0 69.0 51.0 69.0 51.0 71.0 51.0 72.0 Q52.7 72.3 51.6 74.8 L51.0 75.0 50.8 75.65 Q48.15 77.15 44.0 77.0 L43.45 76.85 Q43.0 75.5 43.0 74.0 L42.5 73.9 Q42.0 71.5 42.0 69.0 L41.0 68.95 Q36.75 68.75 35.0 71.0 L35.0 72.0 35.0 74.0 35.0 75.0 35.1 76.0 Q35.7 78.7 34.0 79.0 L33.9 79.55 30.0 80.0 29.0 80.0 28.05 80.1 Q25.9 80.65 26.0 79.0 L25.5 78.9 Q24.4 72.1 21.0 68.0 L21.05 69.0 Q21.7 73.2 18.0 73.0 L17.8 73.6 Q15.3 74.7 15.0 73.0 L14.0 72.95 Q12.3 72.7 12.0 71.0 L11.5 70.95 11.2 68.0 11.0 68.0 11.0 67.0 11.0 64.0 11.0 63.0 11.0 62.0 11.0 59.0 11.0 57.5 Q8.9 57.65 9.0 56.0 L8.25 55.75 Q8.0 55.5 8.0 55.0 L8.0 54.0 7.5 53.95 Q7.0 49.0 7.0 44.0 L6.5 43.95 Q6.0 40.0 6.0 36.0 L7.0 36.0 7.0 35.0 7.0 34.0 7.0 33.0 7.95 32.3 8.1 32.2 8.95 32.0 9.0 32.0 9.0 31.0 9.8 29.9 10.0 29.4 10.0 29.0 9.85 28.05 9.5 27.1 9.0 26.0 9.0 25.0 9.0 24.0 8.5 23.9 Q8.0 21.0 8.0 18.0 L8.0 17.0 8.0 16.0 7.45 15.9 Q7.0 14.0 7.0 12.0 L8.0 12.0 8.0 11.0 8.0 9.0 7.4 8.8 Q7.0 8.0 7.0 7.0 L6.95 7.0 6.0 7.0 5.0 7.0 5.0 6.0 4.45 5.9 Q4.0 4.0 4.0 2.0 4.45 1.65 5.0 1.4 L5.0 1.0 6.7 0.8 9.0 0.5 9.0 0.0 13.0 0.0 13.75 0.0 14.25 0.0 16.0 0.0 17.0 0.0 17.0 0.95 17.0 1.0 Q18.7 1.45 19.3 2.85 L19.85 4.05 20.0 5.0 19.75 5.85 Q19.15 6.65 17.95 6.9 L17.0 7.0 17.0 8.0 17.0 9.0 19.0 9.0 20.0 9.0 21.1 8.2 22.0 8.0 23.0 8.0 23.9 8.0 24.0 7.95 24.0 7.0 25.0 6.55 25.0 6.0 Q26.0 6.0 26.8 5.6 L27.0 5.0 26.25 4.75 Q26.0 4.5 26.0 4.0 L26.0 3.0 26.75 2.75 27.0 2.0 Q26.5 2.0 26.4 1.8 26.0 1.0 26.0 0.0 L27.0 0.0 28.0 0.0 28.0 -1.0 Q30.0 -2.0 32.05 -2.85 L33.0 -3.0 33.0 -4.0 33.0 -5.0 34.0 -5.0 34.8 -3.9 M5.0 58.0 L7.4 58.05 Q8.25 58.5 8.05 60.0 L8.0 60.85 8.0 61.0 Q9.7 62.3 8.55 65.85 L8.0 66.0 7.0 66.0 5.0 66.0 Q5.05 66.6 5.25 67.05 4.2 67.05 4.0 66.0 L3.25 65.75 2.0 64.0 1.0 64.0 0.0 64.0 0.0 63.0 0.0 60.0 1.0 60.0 1.0 59.0 3.0 59.0 4.0 59.0 4.0 58.0 5.0 58.0 M32.0 82.0 Q34.7 81.3 35.4 82.8 35.5 83.0 36.0 83.0 L36.75 83.25 37.0 84.0 Q38.7 84.8 37.55 87.85 L37.0 88.0 36.0 88.0 35.85 88.55 33.0 89.0 32.0 89.1 Q28.3 89.7 27.0 88.0 L26.05 87.85 24.0 87.0 Q23.5 87.0 23.4 86.8 23.0 86.0 23.0 85.0 L23.0 84.0 23.0 83.0 24.0 83.0 25.0 83.0 Q27.15 83.65 27.5 82.1 L28.0 82.0 28.0 81.0 31.9 81.45 32.0 82.0 M72.0 61.0 L72.0 63.0 72.0 64.0 71.0 64.0 70.5 64.1 Q70.15 65.65 68.0 65.0 L67.85 65.55 67.0 65.8 67.0 66.0 66.0 66.0 65.25 66.0 65.0 66.0 64.0 66.0 61.75 66.0 61.0 66.05 Q59.4 66.15 60.0 64.0 L59.45 63.9 Q59.0 62.0 59.0 60.0 L60.0 60.0 60.0 59.0 Q61.95 58.95 63.15 58.25 L64.0 58.0 65.0 58.0 65.0 57.0 68.9 57.45 69.0 58.0 Q69.3 59.7 70.8 60.4 L71.0 61.0 72.0 61.0 M58.0 86.0 L58.0 85.0 60.85 85.45 61.0 86.0 61.5 86.0 Q60.95 89.9 58.0 87.0 L58.0 86.0 M59.0 79.0 L59.0 78.0 63.9 78.5 64.0 79.0 64.1 80.0 Q64.65 82.65 62.0 82.0 L61.8 82.6 Q59.3 83.7 59.0 82.0 L58.0 82.0 57.0 82.0 56.8 82.6 Q50.3 86.2 49.0 80.0 51.45 78.95 55.0 79.0 L56.0 79.0 57.0 79.0 58.0 79.0 59.0 79.0" fill="#ff0000" fill-rule="evenodd" stroke="none"/>
  </g>
</svg>
