<?xml version="1.0" encoding="UTF-8" standalone="no"?>
<svg xmlns:xlink="http://www.w3.org/1999/xlink" height="103.6px" width="64.15px" xmlns="http://www.w3.org/2000/svg">
  <g transform="matrix(1.0, 0.0, 0.0, 1.0, 9.35, 22.7)">
    <path d="M15.4 -16.65 L15.55 -15.7 Q19.0 -15.15 21.65 -13.9 L22.55 -13.7 22.55 -14.7 22.55 -15.7 22.55 -16.7 Q24.55 -19.2 29.45 -18.2 L29.55 -17.7 29.55 -9.7 29.55 -8.7 Q31.5 -8.65 32.3 -7.55 L32.55 -6.7 Q32.8 -4.5 34.05 -3.7 L33.55 -3.7 Q35.6 2.15 37.9 10.55 39.3 8.45 40.5 8.5 L40.5 9.0 Q41.65 9.3 42.55 9.85 L42.6 9.3 42.95 2.25 Q42.55 -0.15 42.5 -3.0 L42.7 -3.15 42.3 -6.2 45.55 -6.2 45.55 -5.1 46.35 -5.45 46.5 -6.0 50.5 -6.0 51.5 -6.0 51.95 -6.1 51.9 -6.2 52.5 -6.2 54.05 -6.2 54.8 -6.2 54.8 13.3 51.55 13.3 50.65 13.3 Q49.25 14.85 47.5 16.0 L48.9 21.05 50.05 21.05 50.05 45.9 49.65 46.55 49.65 55.2 50.05 56.2 50.05 59.6 49.65 59.95 49.65 70.9 49.65 71.9 49.7 72.9 Q50.4 77.65 48.65 79.9 L48.65 80.9 47.65 80.9 39.65 80.9 Q39.65 80.4 39.45 80.25 35.6 77.95 34.65 72.9 L35.5 72.85 30.5 72.0 30.5 74.0 30.5 75.0 30.5 76.0 29.9 76.0 Q29.75 78.45 28.65 79.9 L28.65 80.9 27.65 80.9 19.65 80.9 Q19.65 80.4 19.45 80.25 16.9 78.75 15.65 76.0 L9.9 76.0 Q9.75 78.45 8.65 79.9 L8.65 80.9 7.65 80.9 -0.35 80.9 Q-0.35 80.4 -0.55 80.25 -4.4 77.95 -5.35 72.9 -4.35 72.9 -3.55 72.5 -3.35 72.4 -3.35 71.9 L-3.85 71.9 Q-3.05 59.3 -9.35 49.9 L-9.35 48.9 -9.35 44.9 Q-5.3 39.45 -0.15 35.15 0.15 34.9 0.65 34.9 L0.65 33.9 0.65 31.9 0.65 31.0 0.5 31.0 0.5 30.0 0.5 26.0 1.5 26.0 1.5 25.0 1.5 20.0 2.5 20.0 2.5 19.0 Q4.9 16.5 6.8 13.3 L6.55 13.3 6.55 12.3 Q8.25 12.0 8.95 10.5 9.05 10.3 9.55 10.3 L9.55 9.3 9.05 9.25 7.55 -11.7 6.55 -11.7 4.55 -11.7 4.55 -12.7 4.55 -17.7 6.55 -17.7 7.55 -17.7 7.55 -18.7 8.35 -19.8 8.55 -20.7 8.55 -21.7 8.55 -22.7 10.55 -22.7 11.55 -22.7 11.55 -20.7 11.55 -19.7 11.55 -18.7 11.55 -17.7 Q14.75 -18.4 15.4 -16.65 M18.55 -3.7 L18.3 -4.45 Q16.75 -5.9 15.55 -7.7 L14.55 -7.7 13.6 -7.55 Q11.0 -6.6 10.55 1.3 10.75 4.1 11.4 6.35 L11.55 7.3 Q12.6 6.35 14.55 6.3 L15.55 6.3 15.55 5.3 15.55 4.3 Q20.35 3.15 18.7 -2.75 18.55 -3.2 18.55 -3.7 M23.5 21.0 L22.5 21.0 21.5 21.0 20.5 21.0 14.5 21.0 13.5 21.0 13.5 21.05 21.5 21.05 22.5 21.05 37.5 21.05 38.5 21.05 39.5 21.05 39.5 21.0 38.5 21.0 28.5 21.0 27.5 21.0 23.5 21.0 M14.65 36.4 Q13.8 35.0 13.5 33.1 L13.5 35.0 13.5 36.0 14.65 36.4" fill="#fd0808" fill-opacity="0.98039216" fill-rule="evenodd" stroke="none"/>
  </g>
</svg>
