<?xml version="1.0" encoding="UTF-8" standalone="no"?>
<svg xmlns:xlink="http://www.w3.org/1999/xlink" height="48.05px" width="66.0px" xmlns="http://www.w3.org/2000/svg">
  <g transform="matrix(1.0, 0.0, 0.0, 1.0, 0.0, -1.95)">
    <path d="M57.0 10.0 Q60.65 21.35 64.85 32.05 L65.0 33.0 65.8 34.1 66.0 35.0 65.8 35.9 Q62.25 43.75 59.0 38.0 58.5 38.0 58.3 38.25 55.5 41.6 54.0 45.0 L53.9 45.55 Q47.5 47.0 46.0 43.0 L46.0 42.5 40.0 44.0 40.0 45.0 Q42.5 47.95 40.75 49.75 L40.0 50.0 39.75 49.3 Q37.7 47.8 37.0 45.0 L36.0 45.0 35.75 45.8 Q31.9 50.35 28.0 46.0 27.5 46.0 27.15 46.25 23.95 48.45 18.0 48.0 L17.05 48.1 Q14.9 48.65 15.0 47.0 L14.35 46.75 Q12.45 44.05 9.0 43.0 L8.5 43.0 Q9.05 31.4 0.0 34.0 L0.0 33.0 Q1.0 32.5 2.05 32.15 L3.0 32.0 3.0 31.0 3.75 30.75 4.0 30.0 3.1 29.8 2.0 29.0 2.0 28.0 2.0 17.0 Q3.2 14.45 4.75 16.2 L5.0 17.0 Q9.9 19.8 18.0 18.1 L19.0 18.0 19.0 17.0 26.0 17.0 27.0 17.0 Q28.65 15.65 32.0 15.95 L33.0 16.0 33.0 15.0 33.0 13.0 33.75 12.75 34.0 12.0 34.0 11.0 34.0 9.0 35.0 9.0 36.0 9.0 35.9 8.0 35.0 4.0 Q37.65 3.35 37.5 6.0 L38.0 6.0 Q45.85 -2.65 41.2 7.1 L41.0 8.0 Q43.85 10.65 46.3 13.75 46.5 14.0 47.0 14.0 54.1 16.75 54.5 8.05 L55.7 8.6 Q56.5 9.0 57.0 10.0" fill="#ff0000" fill-rule="evenodd" stroke="none"/>
  </g>
</svg>
