<?xml version="1.0" encoding="UTF-8" standalone="no"?>
<svg xmlns:xlink="http://www.w3.org/1999/xlink" height="78.0px" width="146.0px" xmlns="http://www.w3.org/2000/svg">
  <g transform="matrix(1.0, 0.0, 0.0, 1.0, 0.0, 0.0)">
    <path d="M124.0 30.0 Q125.2 32.8 128.05 33.85 L129.0 34.0 Q132.05 37.45 133.85 42.05 L134.0 43.0 136.85 43.45 137.0 44.0 Q141.15 44.35 144.1 45.8 L145.0 46.0 145.8 47.1 146.0 48.0 145.75 48.75 Q143.25 51.2 141.0 49.0 L140.0 48.95 Q136.8 48.7 135.0 47.0 L134.0 47.0 133.0 47.0 132.0 47.0 130.0 47.0 129.75 47.75 128.0 49.0 Q128.0 50.0 128.4 50.8 128.5 51.0 129.0 51.0 L129.75 51.25 130.0 52.0 Q131.7 52.3 131.1 55.0 L131.0 56.0 Q132.65 55.9 132.1 58.05 L132.0 59.0 132.8 60.1 133.0 61.0 Q133.0 61.5 132.8 61.6 128.2 64.15 124.0 62.0 L123.45 61.85 Q123.0 60.5 123.0 59.0 L122.25 58.75 Q122.0 58.5 122.0 58.0 L121.5 58.0 Q121.7 62.2 120.0 64.0 L119.0 64.0 118.5 63.9 Q118.0 61.0 118.0 58.0 118.0 57.5 117.8 57.4 L116.0 57.0 116.0 58.0 116.1 59.0 Q116.7 62.7 115.0 64.0 L115.1 64.95 Q115.65 67.15 114.0 67.0 L113.5 67.1 Q113.15 68.65 111.0 68.0 L110.75 68.75 Q108.25 71.2 106.0 69.0 L105.25 68.75 102.0 65.0 101.0 65.0 101.1 66.0 Q101.7 69.2 100.0 70.0 L100.0 71.0 99.9 71.55 Q95.25 72.75 93.0 71.0 L92.0 71.0 91.0 71.0 90.5 70.95 Q90.0 67.5 90.0 64.0 L89.0 64.0 89.0 65.0 89.0 66.0 89.0 67.0 88.85 67.55 Q87.05 68.05 86.0 69.0 L85.0 69.0 83.0 69.0 82.05 68.85 Q79.5 68.0 80.0 64.0 L79.0 64.0 78.0 64.0 77.05 64.1 Q74.9 64.65 75.0 63.0 L74.0 63.0 73.5 62.9 Q73.15 61.4 71.0 62.0 L70.85 62.55 68.0 63.0 68.0 64.0 Q74.15 63.35 75.8 67.1 L76.0 68.0 Q77.7 68.8 76.55 71.85 L76.0 72.0 75.75 72.75 74.0 74.0 73.75 74.75 73.0 75.0 Q73.0 75.5 72.8 75.6 71.0 76.5 69.0 77.0 L68.0 77.0 68.0 78.0 67.0 78.0 62.0 78.0 62.0 77.0 61.9 76.45 Q58.85 75.65 59.0 72.0 L59.0 71.0 58.2 70.75 Q55.15 68.35 50.0 68.0 L49.4 68.2 Q47.9 70.9 43.0 70.0 L42.0 69.9 Q40.0 69.5 39.0 68.0 L38.05 67.85 Q35.55 66.95 35.0 64.0 L34.35 63.8 Q33.2 61.8 33.0 59.0 32.5 59.0 32.35 58.8 31.2 56.8 31.0 54.0 L30.5 53.95 Q30.2 50.8 28.0 50.0 L27.0 50.0 26.0 50.0 25.45 50.1 Q24.65 53.2 21.0 51.0 L20.75 51.75 17.0 55.0 16.8 55.6 Q16.0 56.0 15.0 56.0 L14.85 56.55 Q10.75 57.7 9.0 56.0 L8.05 55.9 Q4.55 54.95 3.0 52.0 L2.85 51.45 Q0.8 50.7 1.0 48.0 L0.0 48.0 0.0 47.0 0.0 42.0 1.0 42.0 2.0 42.0 2.0 41.0 2.0 40.0 2.75 39.75 3.0 39.0 3.0 38.0 Q3.5 37.5 4.1 37.2 L5.0 37.0 Q7.05 35.55 10.0 35.1 L11.0 35.0 13.0 35.0 14.0 35.0 Q16.15 34.4 16.45 35.9 L17.0 36.0 19.75 38.25 20.0 39.0 Q20.5 39.0 20.75 39.25 L21.0 40.0 Q22.65 39.9 22.1 42.05 L22.0 43.0 23.0 43.0 23.0 42.0 24.0 42.0 24.0 41.0 Q27.35 40.65 28.75 42.2 L29.0 43.0 Q30.9 44.1 31.0 47.0 L31.0 48.0 Q32.05 48.95 34.0 49.0 L35.0 49.0 35.0 48.0 35.8 46.9 36.0 46.0 36.0 45.0 36.0 40.0 37.0 40.0 37.0 39.0 37.0 38.0 36.9 37.45 Q35.4 37.15 36.0 35.0 L35.5 34.95 Q35.0 31.5 35.0 28.0 L36.0 28.0 36.0 27.0 37.0 27.0 Q38.0 26.5 39.05 26.15 L40.0 26.0 42.0 26.0 43.0 26.0 44.0 26.0 45.0 26.0 Q45.5 25.5 46.1 25.2 L47.0 25.0 47.0 24.0 48.0 24.0 48.0 23.0 48.0 18.0 48.0 17.0 48.0 11.0 49.0 11.0 50.0 11.0 50.0 10.0 Q52.0 9.5 53.25 8.25 53.5 8.0 54.0 8.0 L54.0 7.0 Q58.0 7.0 57.1 12.0 L57.0 13.0 Q58.75 16.75 58.05 23.0 L58.0 24.0 58.0 25.0 58.0 26.0 Q60.9 25.9 62.3 24.25 62.5 24.0 63.0 24.0 L63.0 23.0 Q64.7 21.2 64.05 17.0 L64.0 16.0 64.0 15.0 63.25 14.75 63.0 14.0 Q62.5 14.0 62.4 13.8 62.0 13.0 62.0 12.0 L61.5 11.9 Q61.0 9.0 61.0 6.0 L62.0 6.0 62.0 5.0 Q63.55 2.55 66.1 1.2 L67.0 1.0 67.0 0.0 71.0 0.0 72.0 0.0 74.15 1.75 75.0 2.0 76.75 3.25 77.0 4.0 77.8 5.1 78.0 6.0 Q79.75 8.25 79.05 13.0 L79.0 14.0 80.0 14.0 81.0 14.0 Q81.5 13.5 82.1 13.2 L83.0 13.0 83.0 12.0 Q85.15 11.15 86.35 9.2 L87.0 9.0 87.0 8.0 Q90.15 6.15 92.3 3.25 92.5 3.0 93.0 3.0 L93.0 2.0 Q94.3 0.8 96.9 1.45 L97.0 2.0 97.75 2.25 98.0 3.0 100.75 5.25 101.0 6.0 102.75 7.25 103.0 8.0 103.75 8.25 104.0 9.0 Q105.7 9.3 105.95 11.0 L106.0 12.0 107.75 13.25 108.0 14.0 Q109.95 14.05 110.75 15.15 L111.0 16.0 112.75 17.25 113.0 18.0 Q113.8 19.7 115.85 20.45 L116.0 21.0 117.75 22.25 118.0 23.0 118.75 23.25 119.0 24.0 120.75 25.25 121.0 26.0 121.75 26.25 122.0 27.0 Q123.7 27.3 123.95 29.0 L124.0 30.0 M25.0 58.0 L26.0 58.0 27.1 58.8 28.0 59.0 Q28.5 59.0 28.7 59.25 31.5 62.45 27.0 63.0 L26.75 63.65 Q23.8 65.75 22.0 64.0 L21.0 63.95 Q16.6 63.4 16.0 59.0 L17.0 59.0 18.0 59.0 18.0 58.0 19.0 58.0 20.0 58.0 20.0 57.0 Q22.05 55.5 24.75 57.35 L25.0 58.0" fill="#ff0000" fill-rule="evenodd" stroke="none"/>
  </g>
</svg>
