<?xml version="1.0" encoding="UTF-8" standalone="no"?>
<svg xmlns:xlink="http://www.w3.org/1999/xlink" height="167.05px" width="139.7px" xmlns="http://www.w3.org/2000/svg">
  <g transform="matrix(1.0, 0.0, 0.0, 1.0, 0.0, 0.0)">
    <path d="M99.9 18.0 Q99.9 19.25 98.45 20.75 97.0 22.2 97.0 23.0 L101.3 30.95 Q101.3 38.35 102.95 40.05 104.55 41.6 113.6 47.6 118.65 51.55 125.95 61.75 L133.0 72.0 137.25 75.75 Q139.7 78.5 139.7 83.2 139.7 86.65 138.65 87.25 136.45 87.8 134.0 89.0 128.0 92.0 128.0 102.5 128.0 103.75 130.75 106.1 L133.45 108.25 Q133.45 109.3 129.65 110.5 125.85 111.65 125.85 114.75 125.85 119.55 127.95 122.5 129.95 125.35 133.5 125.85 134.0 126.35 134.0 127.15 L134.0 131.0 136.3 132.75 138.5 136.45 Q139.0 137.4 139.0 138.5 139.0 141.25 135.55 143.9 133.8 145.25 131.95 146.05 131.25 146.05 130.55 145.55 L130.0 145.0 Q126.0 147.3 124.55 147.3 118.2 147.3 113.15 150.05 104.45 154.75 101.0 156.0 101.5 158.55 101.2 159.45 101.05 160.05 100.45 160.05 100.05 160.05 98.3 161.95 L96.0 164.4 93.9 165.1 Q92.3 165.4 91.75 165.75 91.0 166.25 91.1 166.65 L91.4 167.0 86.0 167.0 84.85 166.4 Q83.8 165.8 82.5 165.8 81.2 165.8 80.55 166.45 79.9 167.05 79.25 167.05 78.25 167.05 78.1 166.5 77.7 165.35 76.0 164.0 75.2 165.05 73.95 165.05 L70.25 163.05 Q66.25 161.0 62.0 161.0 L57.3 160.95 56.15 160.75 49.95 159.15 41.15 158.35 28.0 158.65 28.0 159.5 Q21.5 158.05 19.25 156.9 14.95 154.8 15.0 151.0 L15.0 139.0 Q15.5 139.0 16.0 138.5 16.5 138.0 17.0 138.0 L12.9 134.8 Q8.7 131.55 7.1 129.5 5.7 127.7 4.9 127.7 L1.65 128.0 1.35 127.2 1.15 126.5 0.5 124.8 Q0.0 123.95 0.0 123.5 0.0 122.0 0.4 121.8 2.3 120.65 6.25 115.25 8.25 114.4 10.0 112.0 L10.0 99.0 Q7.75 98.95 6.55 98.0 5.35 97.05 5.0 95.0 L10.0 94.0 10.0 75.0 7.15 73.9 Q6.75 73.65 5.0 71.0 7.2 71.75 8.3 70.95 9.1 70.3 10.0 68.0 6.75 68.8 6.75 65.8 6.75 64.0 7.7 62.55 L9.25 60.1 Q9.75 58.4 10.0 58.0 11.2 56.2 12.35 55.8 L14.7 54.7 Q15.5 54.05 16.0 50.85 16.65 46.45 17.2 44.7 19.8 36.5 30.0 36.5 31.0 36.5 33.05 37.75 L35.5 39.0 39.0 37.0 Q39.55 37.0 40.25 37.9 L41.0 39.0 Q44.5 38.85 46.4 35.6 L49.6 30.05 52.35 27.25 Q52.4 26.45 53.0 24.0 L57.55 24.6 61.5 25.0 Q66.35 25.0 68.0 24.05 69.9 22.95 69.9 19.65 69.9 17.05 68.8 15.5 L66.45 13.1 Q63.0 10.05 63.0 4.0 63.0 2.35 65.25 1.65 L69.0 1.0 69.0 0.0 75.0 0.0 Q77.8 1.65 86.35 4.9 92.45 7.15 93.95 9.6 L97.15 12.7 Q99.9 15.65 99.9 18.0 M92.55 26.05 Q91.0 27.1 91.0 27.8 91.0 30.95 93.45 33.1 L98.0 37.0 98.65 35.45 99.0 33.5 97.8 29.2 Q96.35 25.0 95.0 25.0 94.1 25.0 92.55 26.05 M109.0 52.0 Q109.0 53.4 112.15 56.6 115.8 60.4 116.65 62.1 L118.95 66.8 Q120.3 70.4 120.3 74.75 120.3 77.75 117.75 84.5 114.8 92.35 114.45 94.05 114.0 94.0 114.0 97.0 114.0 100.0 116.0 101.0 L118.0 101.2 119.0 102.0 Q119.0 101.5 121.55 93.8 124.05 86.1 124.0 83.0 122.75 82.65 122.3 81.7 122.0 81.1 122.0 80.0 128.0 68.4 128.0 68.0 128.0 65.65 122.1 58.3 115.45 50.0 110.5 50.0 L109.75 50.8 Q109.0 51.65 109.0 52.0 M33.0 44.0 Q33.0 43.5 33.5 44.0 34.0 44.5 34.0 44.0 34.0 42.35 30.95 40.7 28.3 39.3 26.85 39.3 21.65 39.3 19.95 45.35 19.1 48.4 19.3 51.5 19.3 52.05 18.0 53.0 L18.0 55.0 Q18.75 55.05 21.6 56.55 L24.45 58.05 Q25.3 58.05 25.45 57.75 L25.65 56.7 Q26.15 54.6 30.55 52.1 33.1 50.7 35.4 49.6 36.5 49.0 36.5 47.8 36.5 47.6 34.75 46.55 33.0 45.5 33.0 44.0" fill="#ff0000" fill-rule="evenodd" stroke="none"/>
  </g>
</svg>
