<?xml version="1.0" encoding="UTF-8" standalone="no"?>
<svg xmlns:xlink="http://www.w3.org/1999/xlink" height="99.45px" width="181.0px" xmlns="http://www.w3.org/2000/svg">
  <g transform="matrix(1.0, 0.0, 0.0, 1.0, -1.0, -0.85)">
    <path d="M167.0 38.0 Q167.5 38.0 167.0 37.5 166.5 37.0 167.0 37.0 169.6 37.0 181.05 45.25 181.05 46.45 180.85 46.7 L179.8 46.95 Q177.1 47.45 173.0 51.5 L168.35 51.05 164.0 50.0 Q165.7 52.3 168.65 55.2 170.3 56.85 170.3 58.25 L170.05 64.4 Q169.9 67.25 170.55 68.75 172.05 72.3 182.0 75.0 L182.0 83.0 178.9 84.3 Q176.0 85.55 173.95 85.55 171.75 85.55 168.65 83.9 163.95 81.35 160.0 80.0 154.2 80.35 150.7 82.9 146.5 85.95 142.55 86.8 141.5 87.0 138.55 88.5 135.4 90.1 133.2 91.7 128.5 95.1 128.7 96.5 L128.9 97.1 127.5 97.7 123.1 99.6 117.95 100.3 117.35 99.65 Q116.95 99.0 115.5 99.0 114.2 99.0 113.55 99.55 112.9 100.05 112.25 100.05 L111.4 99.9 111.15 99.7 111.0 98.0 Q106.7 98.5 105.4 97.5 102.0 94.9 99.3 93.75 94.55 91.75 94.05 91.65 L83.0 91.0 59.0 92.0 Q58.35 94.6 56.75 96.0 55.5 97.05 54.25 97.05 52.25 97.05 47.05 94.1 42.0 91.25 42.0 90.35 42.0 89.5 43.1 88.35 44.55 86.85 45.0 86.0 45.85 84.5 46.55 83.95 46.95 83.65 47.0 83.0 L47.0 73.0 48.4 72.9 Q49.0 72.65 49.0 72.0 L48.9 71.05 48.8 70.85 48.5 70.75 Q45.1 70.0 43.35 73.1 42.4 74.75 41.35 77.4 L40.4 76.35 40.0 76.0 Q35.35 76.0 24.6 82.95 13.85 89.85 12.1 89.85 7.1 89.85 4.65 85.95 2.5 81.05 1.0 79.0 16.0 72.35 26.05 67.35 34.8 63.0 35.0 63.0 L35.0 61.0 34.4 60.35 34.0 59.0 Q35.0 59.0 35.0 58.0 L33.4 57.75 Q32.85 57.4 32.85 56.5 32.85 55.8 35.95 52.5 39.0 49.2 39.0 46.0 L38.55 44.2 38.0 42.0 38.0 38.0 41.5 37.5 45.0 37.0 Q45.0 32.3 51.5 25.85 58.0 19.4 58.0 16.0 L65.6 13.35 Q70.25 11.75 71.05 10.85 L74.1 6.6 Q76.75 3.0 78.0 3.0 79.7 3.0 85.9 5.5 L92.65 8.0 Q93.7 8.0 95.4 7.0 L97.0 6.0 Q98.8 6.0 100.9 6.9 103.05 7.85 106.6 8.0 L115.0 8.0 Q114.85 3.85 117.0 2.0 118.35 0.85 119.95 0.85 L121.0 0.95 Q119.9 7.7 127.3 10.85 129.25 11.7 134.25 13.15 138.95 14.55 141.1 15.6 146.65 18.25 153.95 20.5 158.3 21.85 158.3 22.95 L161.6 30.55 Q165.25 38.0 167.0 38.0" fill="#ff0000" fill-rule="evenodd" stroke="none"/>
  </g>
</svg>
