<?xml version="1.0" encoding="UTF-8" standalone="no"?>
<svg xmlns:xlink="http://www.w3.org/1999/xlink" height="20.7px" width="30.0px" xmlns="http://www.w3.org/2000/svg">
  <g transform="matrix(1.0, 0.0, 0.0, 1.0, -1.0, -7.4)">
    <path d="M26.15 11.65 Q27.55 13.6 28.0 16.0 L30.05 15.15 31.0 15.0 25.95 23.75 Q22.5 28.1 16.7 28.1 L12.6 27.7 8.95 27.3 Q6.75 27.3 4.55 23.2 2.25 18.05 1.0 16.0 5.2 15.25 5.9 14.75 6.55 14.25 7.0 11.5 L8.0 13.0 Q11.15 10.9 14.3 9.1 L17.45 7.4 Q17.9 7.75 18.5 10.45 19.8 13.0 24.0 13.0 L24.95 12.35 Q25.8 11.7 26.15 11.65" fill="#ff0000" fill-opacity="0.9019608" fill-rule="evenodd" stroke="none"/>
  </g>
</svg>
