<?xml version="1.0" encoding="UTF-8" standalone="no"?>
<svg xmlns:xlink="http://www.w3.org/1999/xlink" height="14.6px" width="29.0px" xmlns="http://www.w3.org/2000/svg">
  <g transform="matrix(1.0, 0.0, 0.0, 1.0, 0.0, -1.0)">
    <path d="M28.55 8.65 L29.0 10.0 Q23.65 10.0 24.2 12.65 L24.55 14.45 Q24.45 15.3 22.8 15.3 L21.35 14.65 Q19.9 14.0 18.5 14.0 17.3 14.0 16.5 14.8 15.75 15.6 14.8 15.6 13.95 15.6 13.4 14.8 12.85 14.0 10.5 14.0 L5.1 13.6 Q5.4 12.15 0.0 10.0 L0.0 9.0 Q2.95 8.85 5.55 4.85 8.15 1.0 12.0 1.0 19.8 1.0 22.7 4.5 L24.3 6.9 Q25.0 8.0 26.0 8.0 28.25 8.0 28.55 8.65" fill="#ff0000" fill-rule="evenodd" stroke="none"/>
  </g>
</svg>
