<?xml version="1.0" encoding="UTF-8" standalone="no"?>
<svg xmlns:xlink="http://www.w3.org/1999/xlink" height="44.0px" width="64.0px" xmlns="http://www.w3.org/2000/svg">
  <g transform="matrix(1.0, 0.0, 0.0, 1.0, 0.0, 0.0)">
    <path d="M64.0 24.0 Q63.5 24.0 63.4 24.2 61.8 27.25 60.0 25.0 L59.5 25.0 Q59.65 27.15 58.0 27.0 L58.05 28.0 Q58.15 29.65 56.0 29.0 L56.0 30.0 56.0 40.0 56.0 41.0 55.8 41.9 55.0 43.0 55.0 44.0 54.0 44.0 51.0 44.0 51.0 43.0 50.25 42.75 Q50.0 42.5 50.0 42.0 L50.0 41.0 49.5 40.95 Q49.0 35.0 49.0 29.0 L49.0 28.0 48.25 27.75 48.0 27.0 47.45 26.85 Q47.0 25.5 47.0 24.0 L46.75 23.25 46.0 23.0 45.0 23.0 45.0 28.0 45.0 29.0 44.9 30.0 Q43.5 39.0 34.0 40.0 L33.85 40.55 31.0 41.0 30.0 41.05 Q21.2 41.8 16.0 39.0 L15.15 38.8 Q13.0 37.5 11.0 36.0 L10.0 36.0 6.0 36.0 5.2 35.75 Q3.25 34.25 2.0 32.0 L1.0 32.0 0.0 32.0 0.0 31.0 0.0 25.0 1.0 25.0 1.0 24.0 2.0 24.0 2.0 23.0 4.0 23.0 5.0 23.0 Q5.5 23.5 6.1 23.8 L7.0 24.0 Q8.7 23.2 8.1 20.0 L8.0 19.0 7.75 18.2 Q5.5 15.5 5.0 11.0 L5.0 10.0 Q8.4 4.9 15.05 3.1 L15.7 3.0 16.1 2.75 17.0 2.4 17.0 2.0 19.0 2.0 20.0 2.0 20.0 1.0 23.0 1.0 24.0 1.0 25.0 1.0 25.0 0.0 28.0 0.0 29.0 0.0 29.0 1.0 30.0 1.0 31.4 1.1 34.75 1.35 35.3 2.3 39.65 4.3 Q42.55 5.8 44.0 7.4 L44.0 7.0 44.8 8.1 45.0 9.0 Q46.7 9.3 46.1 12.0 L46.0 13.0 46.1 14.0 Q46.7 17.2 45.0 18.0 L45.0 19.0 45.0 20.0 45.0 21.0 Q47.15 20.4 47.45 21.9 L48.0 22.0 48.75 21.75 49.0 21.0 49.0 20.0 49.0 19.0 49.0 18.0 Q52.65 15.7 56.15 17.8 L57.0 18.0 Q57.5 18.5 58.1 18.8 L59.0 19.0 59.0 18.0 Q63.7 17.85 63.5 23.0 L64.0 23.0 64.0 24.0" fill="#ff0000" fill-rule="evenodd" stroke="none"/>
  </g>
</svg>
