<?xml version="1.0" encoding="UTF-8" standalone="no"?>
<svg xmlns:xlink="http://www.w3.org/1999/xlink" height="53.0px" width="66.2px" xmlns="http://www.w3.org/2000/svg">
  <g transform="matrix(1.0, 0.0, 0.0, 1.0, -0.8, 0.0)">
    <path d="M41.0 4.0 L42.0 4.0 43.0 4.0 Q45.05 5.45 47.85 6.45 L48.0 7.0 48.75 7.25 49.0 8.0 Q50.75 10.75 49.55 15.9 L49.0 16.0 48.8 16.9 48.0 18.0 48.0 19.0 48.0 20.0 48.25 20.75 49.0 21.0 Q50.8 22.2 52.25 23.75 L53.0 24.0 Q56.95 23.55 58.75 25.25 L59.0 26.0 60.0 26.0 60.0 25.0 Q64.1 17.95 66.85 25.05 L67.0 26.0 Q67.0 26.5 66.8 26.6 66.0 27.0 65.0 27.0 L64.9 27.55 61.0 28.0 61.1 29.0 Q61.7 31.7 60.0 32.0 L59.75 32.75 59.0 33.0 59.0 34.0 58.75 34.75 57.0 36.0 56.75 36.7 49.0 43.0 48.95 44.0 Q48.7 45.7 47.0 46.0 L47.0 47.0 Q46.8 51.3 42.0 51.0 L41.85 51.55 Q38.8 52.7 38.0 51.0 L37.0 51.0 36.0 51.0 35.8 51.6 Q35.0 52.0 34.0 52.0 L34.0 53.0 33.0 53.0 31.0 53.0 31.0 52.0 30.45 51.85 Q29.55 49.45 26.0 50.0 L25.05 50.1 Q22.9 50.65 23.0 49.0 L22.0 48.95 Q20.3 48.7 21.0 46.0 L22.0 46.0 23.0 46.0 23.0 45.0 25.0 45.0 26.0 45.0 28.0 45.0 29.0 45.0 29.0 44.0 31.05 43.15 32.0 43.0 Q35.2 42.3 36.3 43.75 L37.0 44.0 40.0 44.0 41.0 44.0 41.0 43.0 41.0 40.0 40.15 40.25 Q38.95 40.95 37.0 41.0 L36.9 41.5 32.0 42.0 31.0 42.05 Q25.25 42.75 22.0 41.0 L21.0 41.1 Q18.3 41.7 18.0 40.0 L17.0 39.95 Q15.3 39.7 15.0 38.0 14.5 38.0 14.4 37.8 13.5 36.0 13.0 34.0 L12.45 33.85 Q11.7 31.8 10.0 31.0 L10.75 30.75 11.0 30.0 11.0 29.0 11.0 22.0 11.0 21.0 11.0 18.0 10.75 17.3 Q8.25 15.25 8.0 11.0 9.7 10.7 10.4 9.2 L11.0 9.0 11.0 8.0 11.0 7.0 12.75 5.75 13.0 5.0 13.0 4.0 Q18.65 3.15 23.1 1.2 L24.0 1.0 24.0 0.0 32.0 0.0 33.0 0.0 33.0 1.0 Q36.45 2.55 40.9 3.5 L41.0 4.0 M49.0 23.0 L48.0 23.0 48.0 25.0 48.0 26.0 48.0 27.0 Q48.05 34.05 44.0 37.0 L44.0 38.0 Q48.25 36.75 49.8 32.95 L50.0 32.0 50.0 31.0 49.45 30.9 Q49.0 29.0 49.0 27.0 L50.0 27.0 50.0 26.0 49.85 25.05 49.0 23.0 M9.0 40.0 L12.9 40.45 13.0 41.0 Q13.5 41.0 13.65 41.25 16.6 45.25 12.0 45.0 L11.75 45.75 11.0 46.0 10.8 46.6 Q8.3 47.7 8.0 46.0 L7.0 46.0 5.0 46.0 4.05 46.1 Q1.9 46.65 2.0 45.0 L1.8 44.4 Q0.3 43.7 1.0 41.0 L2.0 41.0 3.0 41.0 Q4.65 39.65 8.0 39.95 L9.0 40.0" fill="#ff0000" fill-rule="evenodd" stroke="none"/>
  </g>
</svg>
