<?xml version="1.0" encoding="UTF-8" standalone="no"?>
<svg xmlns:xlink="http://www.w3.org/1999/xlink" height="94.3px" width="67.35px" xmlns="http://www.w3.org/2000/svg">
  <g transform="matrix(1.0, 0.0, 0.0, 1.0, 0.0, 0.0)">
    <path d="M52.0 33.0 L53.0 33.0 54.0 33.0 53.8 32.4 Q52.3 31.7 53.0 29.0 L54.0 29.0 Q59.7 26.0 61.5 31.0 L61.0 31.0 61.0 32.0 61.0 33.0 Q64.2 27.75 66.1 31.45 69.65 38.45 63.0 36.0 L63.05 37.0 Q63.2 39.7 61.0 40.0 L61.05 41.0 Q61.75 52.75 60.0 62.0 L59.75 62.8 Q58.7 64.2 56.0 64.0 L56.0 65.0 56.1 66.0 Q57.9 75.9 53.0 79.0 L52.0 79.0 49.0 79.0 49.1 80.0 Q51.95 92.45 42.0 89.0 L41.5 89.0 Q41.75 81.25 40.0 76.0 L39.05 76.15 Q33.85 77.85 27.0 78.0 L27.05 79.0 Q27.75 87.25 26.0 93.0 25.5 93.0 25.15 93.25 22.0 95.45 19.0 93.0 18.5 93.0 18.4 92.8 18.0 92.0 18.0 91.0 L18.0 90.0 18.0 81.0 18.0 80.0 18.0 79.0 18.75 78.75 19.0 78.0 18.95 77.5 Q11.95 76.55 9.0 72.0 L9.0 73.0 9.05 74.0 Q9.75 80.25 8.0 84.0 L7.85 84.55 5.0 85.0 4.0 85.05 Q1.3 85.2 0.0 84.0 L0.0 83.0 0.0 81.0 0.0 80.0 0.0 72.0 0.0 71.0 1.1 70.2 2.0 70.0 2.0 69.0 2.75 68.75 3.0 68.0 3.05 67.0 Q3.4 64.1 0.0 65.0 L0.0 64.0 0.0 63.0 Q6.0 60.5 4.15 65.05 4.0 65.5 4.0 66.0 7.85 57.0 5.1 45.0 L5.0 44.0 5.0 43.0 5.0 41.0 9.0 41.0 10.0 41.0 11.75 38.85 12.0 38.0 12.0 37.0 Q12.0 34.5 7.0 36.0 L6.3 35.75 Q4.45 33.55 5.0 29.0 L6.75 27.75 7.0 27.0 7.0 26.0 Q12.65 21.3 13.9 29.0 L14.0 30.0 15.1 29.2 16.0 29.0 16.0 28.0 16.0 27.0 Q18.65 24.65 22.1 23.2 L23.0 23.0 23.0 22.0 23.75 21.75 24.0 21.0 Q23.5 21.0 23.35 20.8 21.95 18.5 22.0 15.0 L23.1 14.2 24.0 14.0 24.0 13.0 Q27.1 8.6 27.5 1.05 L28.0 1.0 28.0 0.0 29.0 0.0 30.0 0.0 Q31.5 2.0 32.8 4.15 L33.0 5.0 Q34.7 6.8 34.05 11.0 L34.0 12.0 Q36.55 12.45 36.05 16.0 L36.0 17.0 Q40.55 18.95 40.05 26.0 L40.0 27.0 40.75 27.25 41.0 28.0 Q47.5 29.0 51.25 32.75 L52.0 33.0 M53.0 40.0 L52.0 40.0 52.0 42.0 52.0 43.0 52.05 44.0 Q52.75 48.75 51.0 51.0 49.55 56.45 53.9 55.5 L54.0 55.0 54.0 54.0 54.0 41.0 53.75 40.25 Q53.5 40.0 53.0 40.0 M19.0 35.0 Q20.8 36.75 24.1 35.2 L25.0 35.0 26.0 35.0 26.75 34.75 27.0 34.0 26.8 33.1 Q23.35 26.05 19.0 34.0 L19.0 35.0" fill="#ff0000" fill-rule="evenodd" stroke="none"/>
  </g>
</svg>
