<?xml version="1.0" encoding="UTF-8" standalone="no"?>
<svg xmlns:xlink="http://www.w3.org/1999/xlink" height="96.15px" width="74.0px" xmlns="http://www.w3.org/2000/svg">
  <g transform="matrix(1.0, 0.0, 0.0, 1.0, 0.0, -1.0)">
    <path d="M51.0 33.0 Q53.4 38.4 51.15 44.05 51.0 44.5 51.0 45.0 52.95 45.05 54.15 45.75 L55.0 46.0 55.0 45.0 Q61.5 34.5 72.3 29.7 L74.0 30.0 74.0 31.0 74.0 32.0 Q73.5 32.0 73.35 32.25 66.5 42.5 58.0 51.0 L58.0 52.0 58.25 52.85 Q59.9 55.45 56.0 57.0 L56.0 59.0 56.0 60.0 56.1 61.0 Q57.9 71.4 53.0 75.0 L52.0 75.0 51.0 75.0 51.1 75.95 Q52.65 82.15 50.0 84.0 46.55 84.55 48.5 88.2 48.95 89.05 48.8 89.75 47.75 94.45 35.0 94.0 L34.75 94.65 Q26.25 100.4 23.0 93.0 L23.0 92.0 23.0 91.0 24.0 91.0 24.0 90.0 24.0 89.0 23.0 89.0 22.0 89.0 21.1 89.2 Q15.25 92.25 9.0 90.0 L8.05 90.1 Q5.9 90.65 6.0 89.0 L5.15 88.75 Q3.45 87.55 3.0 85.0 5.05 83.55 7.85 82.55 L8.0 82.0 8.0 81.0 7.0 81.0 6.0 81.0 5.0 81.0 4.0 81.05 Q1.3 81.2 0.0 80.0 L0.0 79.0 0.0 77.0 0.0 76.0 0.0 68.0 0.0 67.0 1.1 66.2 2.0 66.0 2.0 65.0 2.0 63.0 Q3.7 62.7 4.4 61.2 L5.0 61.0 5.0 60.0 5.0 49.0 4.85 48.05 Q4.2 45.8 4.0 43.0 L4.0 42.0 4.0 39.0 5.0 39.0 6.0 39.0 6.0 38.0 Q16.3 33.9 10.25 25.8 10.0 25.5 10.0 25.0 L9.0 25.0 8.8 25.6 Q3.65 28.45 3.0 24.0 5.55 23.55 7.2 22.25 L8.0 22.0 9.1 21.2 10.0 21.0 10.0 20.0 Q18.35 19.25 13.8 22.75 L13.0 23.0 Q13.0 23.5 12.8 23.6 12.0 24.0 11.0 24.0 13.5 30.7 16.4 24.2 L17.0 24.0 17.0 23.0 Q17.5 22.5 18.1 22.2 L19.0 22.0 19.0 21.0 Q21.15 21.65 21.45 20.1 L22.0 20.0 Q24.8 19.3 26.3 17.25 26.5 17.0 27.0 17.0 L31.35 11.25 Q31.5 11.0 32.0 11.0 32.0 10.5 32.25 10.3 33.9 9.0 32.0 7.0 31.5 7.0 31.35 6.8 28.45 1.95 25.0 6.0 L25.0 8.0 25.0 9.0 Q26.7 9.8 26.1 13.0 L26.0 14.0 25.8 14.9 25.0 16.0 24.75 16.8 Q23.7 18.2 21.0 18.0 L21.0 19.0 20.1 18.8 Q19.5 18.5 19.0 18.0 L18.1 17.8 Q17.5 17.5 17.0 17.0 L16.25 16.75 15.0 15.0 14.85 14.05 14.0 12.0 Q15.0 6.5 22.0 6.5 L22.0 6.0 22.0 5.0 25.3 1.25 Q25.5 1.0 26.0 1.0 32.4 1.6 34.8 6.1 L35.0 7.0 Q37.45 9.0 35.25 11.25 35.0 11.5 35.0 12.0 L39.8 22.1 40.0 23.0 Q42.8 23.2 44.8 24.35 45.0 24.5 45.0 25.0 46.95 25.05 47.75 26.15 L48.0 27.0 Q50.4 28.6 50.9 32.0 L51.0 33.0 M10.0 71.0 L10.0 70.0 9.0 70.0 Q9.0 74.5 9.5 78.95 L10.0 79.0 Q10.0 78.5 10.25 78.3 13.3 75.95 10.0 71.0 M39.0 83.0 Q44.5 84.0 43.1 77.95 L43.0 77.0 Q42.5 77.0 42.25 77.25 39.65 80.05 33.0 80.0 L33.0 81.0 Q34.75 82.7 39.0 82.5 L39.0 83.0" fill="#ff0000" fill-rule="evenodd" stroke="none"/>
  </g>
</svg>
