<?xml version="1.0" encoding="UTF-8" standalone="no"?>
<svg xmlns:xlink="http://www.w3.org/1999/xlink" height="87.0px" width="55.35px" xmlns="http://www.w3.org/2000/svg">
  <g transform="matrix(1.0, 0.0, 0.0, 1.0, -1.0, -2.0)">
    <path d="M45.0 2.0 Q59.25 6.95 54.6 16.8 L54.0 17.0 54.15 17.95 Q62.2 45.25 41.0 57.0 L40.5 57.0 Q41.2 62.55 40.0 69.0 L40.95 69.15 Q47.55 71.45 49.0 79.0 L48.8 79.9 Q45.35 87.35 35.0 88.0 L35.0 89.0 34.0 89.0 24.0 89.0 24.0 88.5 Q9.2 88.8 9.0 75.0 L10.0 75.0 10.0 74.0 Q12.15 71.65 15.1 70.2 L16.0 70.0 Q16.0 69.5 16.25 69.15 18.7 65.2 17.0 57.0 L16.8 56.4 Q4.2 50.8 1.0 36.0 L1.0 35.0 1.0 23.0 Q3.25 21.7 3.5 18.05 L4.0 18.0 4.0 17.0 Q7.85 10.85 14.15 7.2 L15.0 7.0 15.0 6.0 Q18.15 4.65 21.85 3.55 L22.0 3.0 Q37.3 5.2 44.1 2.2 L45.0 2.0" fill="#ff0000" fill-rule="evenodd" stroke="none"/>
  </g>
</svg>
