<?xml version="1.0" encoding="UTF-8" standalone="no"?>
<svg xmlns:xlink="http://www.w3.org/1999/xlink" height="120.0px" width="105.8px" xmlns="http://www.w3.org/2000/svg">
  <g transform="matrix(1.0, 0.0, 0.0, 1.0, 0.0, -1.0)">
    <path d="M84.0 37.0 L86.05 37.85 87.0 38.0 Q89.15 37.4 89.5 38.9 L90.0 39.0 97.2 43.75 98.0 44.0 Q107.3 51.1 105.5 58.9 L105.0 59.0 104.05 58.85 Q101.85 58.15 101.0 56.0 L100.3 55.75 Q98.9 54.1 96.0 54.0 L95.0 54.0 94.0 54.1 Q91.05 54.55 89.0 56.0 L88.0 56.0 Q88.05 59.45 89.75 61.25 L90.0 62.0 91.75 63.25 92.0 64.0 Q94.0 68.5 94.9 74.0 L95.0 75.0 Q96.7 76.3 96.1 80.0 L96.0 81.0 Q97.7 81.3 97.1 84.0 L97.0 85.0 Q98.75 88.75 97.5 94.9 L97.0 95.0 96.8 95.9 Q94.65 99.65 91.0 102.0 L90.85 102.55 Q88.05 103.55 86.0 105.0 L85.2 105.25 Q82.95 106.95 80.0 108.0 L79.75 108.75 78.0 110.0 77.75 110.8 Q74.7 114.8 73.0 111.0 L74.75 109.75 75.0 109.0 74.0 109.1 Q70.8 109.7 70.0 108.0 L69.25 107.75 69.0 107.0 68.0 107.0 67.0 107.0 62.0 107.0 61.0 107.0 60.8 107.65 Q58.8 108.8 56.0 109.0 L55.0 109.1 Q51.3 109.7 50.0 108.0 L49.0 108.0 48.0 108.0 46.0 108.0 45.0 108.0 44.75 108.75 44.0 109.0 Q47.7 114.6 50.5 120.0 L50.0 120.0 50.0 121.0 49.0 121.0 44.0 121.0 44.0 120.0 43.15 119.8 Q39.8 117.7 35.0 117.0 L34.0 117.0 29.0 117.0 28.0 117.05 Q21.05 117.45 18.0 114.0 L17.45 113.85 Q17.0 112.5 17.0 111.0 L17.0 110.0 17.0 109.0 29.95 109.5 30.0 110.0 36.0 110.0 37.0 110.0 37.0 109.0 36.15 108.75 34.0 107.0 33.0 106.9 Q31.0 106.5 30.0 105.0 L29.0 104.9 Q27.0 104.5 26.0 103.0 L25.15 102.75 23.0 101.0 22.05 100.85 20.0 100.0 19.0 100.0 Q12.6 100.1 9.0 98.0 L8.05 97.85 Q5.5 97.0 6.0 93.0 8.7 92.3 9.4 93.8 9.5 94.0 10.0 94.0 11.05 94.95 12.9 94.55 L13.0 94.0 13.0 93.0 13.0 90.0 14.0 90.0 14.0 89.0 16.0 89.0 17.0 89.0 17.0 88.0 18.0 88.0 18.1 87.05 Q18.9 83.6 16.0 84.0 L15.05 84.1 Q12.9 84.65 13.0 83.0 L13.0 82.0 13.0 80.0 14.0 80.0 15.0 80.0 15.0 79.0 Q16.95 79.05 17.75 80.15 L18.0 81.0 19.0 81.0 19.0 80.0 19.0 79.0 Q20.55 76.55 20.95 73.0 L21.0 72.0 21.0 71.5 Q17.1 71.9 18.0 68.0 L17.1 67.8 16.0 67.0 15.0 67.0 14.0 67.0 13.0 67.0 12.75 67.75 Q11.2 69.2 10.0 71.0 L9.0 71.0 8.0 71.0 7.0 71.0 0.0 71.0 0.0 70.0 0.0 69.0 0.0 68.0 2.85 67.55 3.0 67.0 2.8 66.4 Q1.3 65.7 2.0 63.0 3.55 60.1 5.25 61.75 L6.0 62.0 6.8 60.9 7.0 60.0 7.0 59.0 7.0 58.0 11.0 57.1 12.0 57.0 Q14.05 55.55 17.9 56.45 L18.0 57.0 19.0 57.0 Q19.8 59.2 22.95 59.5 L23.0 60.0 Q23.5 60.0 23.75 60.25 L24.0 61.0 Q26.15 60.4 26.45 61.9 L27.0 62.0 27.0 61.0 Q28.7 60.7 29.4 59.2 29.5 59.0 30.0 59.0 L30.0 58.0 30.75 57.75 31.0 57.0 31.0 56.0 34.1 54.2 35.0 54.0 36.0 54.0 36.0 53.0 37.1 52.2 38.0 52.0 38.0 51.0 38.75 50.75 39.0 50.0 39.0 49.0 38.2 48.75 Q36.65 47.35 37.0 44.0 L38.0 44.0 38.0 43.0 39.0 43.0 40.0 43.0 40.0 42.0 40.0 39.0 41.0 39.0 41.0 38.0 Q43.65 33.65 45.8 28.9 L46.0 28.0 46.0 27.0 45.85 26.05 45.0 24.0 45.0 23.0 44.5 22.95 Q44.0 19.0 44.0 15.0 L45.0 15.0 45.0 14.0 45.0 13.0 Q46.7 12.7 46.5 10.0 L47.0 10.0 47.0 9.0 47.0 8.0 51.3 3.25 Q51.5 3.0 52.0 3.0 L52.0 2.0 Q53.0 2.0 53.8 1.6 L54.0 1.0 58.0 1.0 59.0 1.0 Q62.95 3.05 63.0 9.0 L63.0 10.0 Q64.45 12.05 64.05 16.0 L64.0 17.0 64.1 18.0 Q64.7 21.7 63.0 23.0 L63.1 24.0 Q63.7 27.2 62.0 28.0 L61.8 28.9 61.0 30.0 60.95 31.0 Q60.7 32.7 59.0 33.0 L58.95 33.5 Q51.7 34.3 48.0 31.0 L47.8 31.9 47.0 33.0 47.1 33.95 Q47.65 36.15 46.0 36.0 L46.0 37.0 46.0 38.0 46.1 39.0 Q46.7 41.7 45.0 42.0 L45.0 43.0 45.0 44.0 45.0 45.0 46.0 45.0 47.0 45.0 Q48.0 44.5 49.05 44.15 L50.0 44.0 50.0 43.0 55.0 43.0 56.0 43.0 57.0 43.0 60.9 43.45 61.0 44.0 64.9 44.45 65.0 45.0 67.85 45.45 68.0 46.0 Q71.5 45.95 74.05 46.85 L75.0 47.0 75.0 46.0 76.0 46.0 76.0 45.0 Q78.7 45.2 80.15 44.25 L81.0 44.0 82.0 44.0 82.0 43.0 82.0 41.0 81.25 40.75 80.0 39.0 80.0 38.0 80.0 37.0 Q82.0 35.1 83.3 36.75 L84.0 37.0 M55.0 4.0 Q54.5 4.0 54.35 4.25 52.65 6.65 50.0 8.0 L50.1 8.95 Q50.65 11.15 49.0 11.0 L49.0 13.0 49.0 14.0 49.0 19.0 49.0 20.0 Q48.8 22.7 50.85 23.45 L51.0 24.0 Q52.7 24.3 52.1 27.0 L52.0 28.0 Q53.55 30.45 56.1 31.8 L57.0 32.0 57.0 31.0 Q58.7 30.7 58.95 29.0 L59.0 28.0 59.0 27.0 59.0 26.0 59.0 25.0 59.0 15.0 59.0 14.0 59.0 10.0 58.5 10.0 Q59.2 4.3 55.0 4.0" fill="#ff0000" fill-rule="evenodd" stroke="none"/>
  </g>
</svg>
