<?xml version="1.0" encoding="UTF-8" standalone="no"?>
<svg xmlns:xlink="http://www.w3.org/1999/xlink" height="143.0px" width="96.05px" xmlns="http://www.w3.org/2000/svg">
  <g transform="matrix(1.0, 0.0, 0.0, 1.0, 0.0, 0.0)">
    <path d="M88.75 7.15 L89.0 8.0 90.8 11.1 91.0 12.0 91.0 13.0 92.75 14.25 93.0 15.0 93.0 16.0 93.0 17.0 92.9 18.0 Q92.35 20.35 91.0 22.0 L91.0 23.0 90.95 23.5 Q88.3 23.8 87.0 25.0 L86.8 25.9 86.0 27.0 Q85.4 29.15 86.9 29.5 L87.0 30.0 Q86.4 32.15 87.9 32.45 L88.0 33.0 Q87.4 35.15 88.9 35.5 L89.0 36.0 89.9 40.0 90.0 41.0 Q91.75 45.25 90.5 51.9 L90.0 52.0 90.0 53.0 89.9 54.0 Q89.15 58.65 87.0 62.0 L86.9 63.0 Q86.5 65.0 85.0 66.0 L85.0 67.0 85.05 68.0 Q85.75 74.25 84.0 78.0 L83.0 78.0 81.0 78.0 80.0 78.0 79.85 78.55 77.0 79.0 76.8 79.6 Q76.0 80.0 75.0 80.0 L75.0 81.0 75.0 91.0 75.0 92.0 Q78.75 93.25 79.5 97.9 L80.0 98.0 86.0 98.0 87.0 98.0 Q89.15 98.65 89.5 97.1 L90.0 97.0 89.75 96.15 Q88.8 94.7 89.0 92.0 89.5 91.5 90.1 91.2 L91.0 91.0 Q95.7 90.3 94.55 94.9 L94.0 95.0 94.0 96.0 94.0 97.0 Q96.2 97.3 96.05 100.0 L96.0 101.0 95.75 101.75 95.0 102.0 94.95 103.0 93.0 117.0 93.0 118.0 93.0 119.0 92.9 120.0 Q91.6 126.1 91.0 119.0 L91.0 118.0 91.0 116.0 90.5 115.95 Q90.0 109.5 90.0 103.0 L89.8 102.4 88.0 102.0 87.0 101.95 Q81.95 101.45 79.0 103.0 L78.95 104.0 Q78.7 105.7 77.0 106.0 L76.75 106.75 74.0 109.0 73.85 109.55 Q72.05 110.05 71.0 111.0 L70.0 111.0 Q70.0 111.5 69.8 111.6 69.0 112.0 68.0 112.0 L67.5 112.1 Q67.15 113.65 65.0 113.0 L64.4 113.2 Q63.7 114.7 61.0 114.0 L60.0 114.0 55.0 114.0 54.75 114.75 54.0 115.0 54.0 116.0 54.0 117.0 Q59.5 119.35 54.85 122.75 L54.0 123.0 54.05 124.0 Q54.75 132.25 53.0 138.0 L53.0 139.0 53.1 140.0 Q53.7 142.7 52.0 143.0 L51.9 142.0 51.0 138.0 51.0 137.0 50.5 136.95 Q50.0 130.0 50.0 123.0 L49.15 122.75 Q48.05 121.95 48.0 120.0 L48.0 119.0 48.0 118.0 Q49.0 117.5 50.05 117.15 L51.0 117.0 50.8 116.1 50.0 115.0 49.0 115.0 48.0 115.1 Q44.3 115.7 43.0 114.0 L42.05 114.1 Q39.9 114.65 40.0 113.0 L39.0 113.1 Q36.3 113.7 36.0 112.0 L35.05 111.85 Q32.05 110.95 30.0 109.0 L29.25 108.75 Q29.0 108.5 29.0 108.0 L28.0 108.0 27.15 107.75 Q25.45 106.55 25.0 104.0 24.5 104.0 24.4 103.8 24.0 103.0 24.0 102.0 L23.0 101.95 Q17.1 101.6 13.0 103.0 L13.0 110.0 13.0 111.0 13.05 112.0 Q13.75 117.25 12.0 120.0 L11.85 120.95 Q11.2 123.05 10.0 116.0 L10.0 115.0 10.0 103.0 9.1 102.8 8.0 102.0 7.45 101.85 Q7.0 100.5 7.0 99.0 L8.0 99.0 8.0 98.0 9.0 98.0 10.0 98.0 9.85 97.05 9.0 95.0 9.0 94.0 9.0 92.0 10.0 92.0 10.0 91.0 Q15.1 90.4 13.55 95.85 L13.0 96.0 14.25 97.75 15.0 98.0 23.0 98.0 24.0 98.0 24.0 97.0 25.0 97.0 25.0 96.0 25.0 95.0 25.75 94.75 26.0 94.0 26.0 93.0 Q28.0 92.5 29.25 91.25 29.5 91.0 30.0 91.0 L30.0 90.0 30.0 87.0 30.0 86.0 30.0 78.0 29.25 77.75 28.0 76.0 27.25 75.75 26.0 74.0 25.05 73.85 Q22.05 72.95 20.0 71.0 L19.05 70.85 Q15.5 69.5 13.0 67.0 L12.0 66.9 Q9.2 66.3 8.0 64.0 L7.0 64.0 6.5 63.95 Q6.0 60.5 6.0 57.0 L7.0 57.0 7.0 56.0 6.0 56.0 5.25 55.75 Q5.0 55.5 5.0 55.0 L4.0 55.0 Q3.5 55.0 3.35 54.8 2.2 52.8 2.0 50.0 L2.05 49.0 Q2.55 44.45 1.0 42.0 L1.0 41.0 0.0 41.0 0.0 40.0 0.0 35.0 1.0 35.0 1.0 34.0 Q1.5 33.5 2.1 33.2 L3.0 33.0 3.0 32.0 8.75 26.75 9.0 26.0 9.0 25.0 Q12.3 21.2 13.85 25.05 L14.0 26.0 Q20.15 27.15 21.45 23.15 21.5 23.0 22.0 23.0 L22.0 22.0 22.75 21.75 23.0 21.0 23.0 20.0 23.0 19.0 Q24.5 18.0 26.1 17.2 L27.0 17.0 28.0 17.0 28.0 16.0 29.0 16.0 29.0 15.0 35.1 12.2 36.0 12.0 36.0 11.0 40.0 10.1 41.0 10.0 41.0 9.0 42.0 9.0 Q45.35 9.35 47.15 8.25 L48.0 8.0 48.0 7.0 55.95 7.5 56.0 8.0 58.85 8.45 59.0 9.0 60.0 9.0 61.0 9.0 Q63.7 8.3 64.4 9.8 L65.0 10.0 65.0 9.0 Q67.7 8.8 69.15 9.75 L70.0 10.0 70.0 9.0 70.0 8.0 Q71.45 5.45 73.3 3.25 73.5 3.0 74.0 3.0 L74.0 2.0 75.0 2.0 75.0 1.0 75.0 0.0 76.0 0.0 Q76.3 1.7 77.8 2.4 L78.0 3.0 79.0 3.0 80.75 4.25 81.0 5.0 82.0 5.0 Q87.0 4.5 88.75 7.15" fill="#ff0000" fill-rule="evenodd" stroke="none"/>
  </g>
</svg>
