<?xml version="1.0" encoding="UTF-8" standalone="no"?>
<svg xmlns:xlink="http://www.w3.org/1999/xlink" height="133.85px" width="154.1px" xmlns="http://www.w3.org/2000/svg">
  <g transform="matrix(1.0, 0.0, 0.0, 1.0, -0.9, -1.15)">
    <path d="M91.55 3.05 Q93.6 1.15 95.6 1.15 98.65 1.15 100.95 3.6 102.9 5.65 102.9 7.3 102.9 10.2 100.65 12.2 96.65 15.8 94.0 20.0 L94.0 22.0 Q110.9 40.0 117.35 46.45 L118.8 49.2 Q120.15 51.55 122.0 52.0 L122.0 70.0 Q126.15 73.05 130.25 75.6 132.3 77.65 132.3 84.45 L132.0 90.15 Q139.05 92.35 150.2 92.9 153.0 93.05 153.9 93.9 155.0 94.9 155.0 98.0 155.0 100.85 153.25 103.0 151.6 105.0 149.7 105.0 146.55 105.0 143.8 102.5 141.05 100.0 138.45 100.0 L137.5 100.05 Q137.5 102.1 136.55 103.15 L133.0 106.55 129.15 111.8 Q125.8 115.7 123.0 115.0 123.55 116.55 122.5 118.15 121.6 119.5 120.85 119.5 118.8 118.0 118.0 118.0 L114.3 120.65 Q110.8 123.25 109.2 123.25 108.8 123.25 107.3 124.1 105.85 124.95 104.95 124.95 101.85 124.95 99.8 123.5 L97.5 122.0 Q96.75 122.0 87.5 126.55 78.25 131.1 72.3 131.1 71.1 131.1 69.5 130.05 L68.0 129.0 Q67.65 129.0 62.3 132.15 57.1 135.25 57.0 135.0 L53.0 135.0 53.0 134.0 Q49.95 133.7 49.05 132.35 48.25 131.1 44.85 130.95 L44.3 120.8 44.0 118.0 Q45.25 118.2 45.7 117.65 L46.0 117.0 Q42.1 116.6 38.15 113.2 34.45 110.0 32.0 110.0 L29.1 112.85 Q25.65 115.65 21.7 115.65 L14.8 115.1 Q14.15 114.75 14.0 113.0 8.3 113.3 4.7 110.15 0.9 106.8 0.9 100.7 L1.0 96.0 Q5.3 93.9 10.1 92.4 13.45 91.4 14.15 90.6 15.05 89.55 15.1 85.75 L15.0 73.0 15.0 58.0 14.45 57.85 12.95 54.55 7.25 42.6 Q4.0 35.55 4.0 35.0 4.0 33.3 7.55 32.05 10.75 30.95 14.15 30.95 17.2 30.95 17.2 33.95 17.2 35.7 16.6 36.5 16.0 37.35 16.0 38.0 16.0 41.4 17.6 44.2 19.2 47.0 21.0 47.0 26.5 47.0 31.75 42.65 35.55 39.5 37.8 35.65 39.25 33.15 40.1 32.3 41.7 30.75 46.5 28.0 53.6 23.9 58.05 22.5 L59.3 21.85 60.0 20.0 Q70.45 15.8 76.4 12.6 79.5 10.95 80.8 10.95 82.4 10.95 84.2 12.4 L87.0 15.0 90.3 10.75 Q91.0 9.75 91.0 9.0 L90.4 7.85 Q89.8 6.8 89.8 5.5 89.8 4.7 91.55 3.05" fill="#ff0000" fill-opacity="0.9764706" fill-rule="evenodd" stroke="none"/>
  </g>
</svg>
