<?xml version="1.0" encoding="UTF-8" standalone="no"?>
<svg xmlns:xlink="http://www.w3.org/1999/xlink" height="22.0px" width="23.0px" xmlns="http://www.w3.org/2000/svg">
  <g transform="matrix(1.0, 0.0, 0.0, 1.0, -1.0, -1.0)">
    <path d="M15.5 1.1 L12.0 1.1 12.0 1.0 14.0 1.0 15.0 1.0 15.5 1.1" fill="#cb8859" fill-opacity="0.9882353" fill-rule="evenodd" stroke="none"/>
    <path d="M15.5 1.1 Q16.6 1.6 17.85 2.85 L19.0 4.0 20.35 3.9 Q21.1 3.95 21.1 4.65 21.1 5.85 21.9 6.45 L23.3 7.6 23.0 10.0 Q23.65 10.0 23.9 10.65 L24.0 12.0 Q24.0 16.3 21.1 18.7 17.1 21.15 15.0 23.0 L8.0 23.0 8.0 22.0 Q3.4 20.5 2.2 19.2 1.0 17.85 1.0 14.0 1.0 11.75 4.3 7.4 8.15 2.3 12.0 2.0 L12.0 1.1 15.5 1.1" fill="#ff0000" fill-rule="evenodd" stroke="none"/>
  </g>
</svg>
