<?xml version="1.0" encoding="UTF-8" standalone="no"?>
<svg xmlns:xlink="http://www.w3.org/1999/xlink" height="66.0px" width="98.25px" xmlns="http://www.w3.org/2000/svg">
  <g transform="matrix(1.0, 0.0, 0.0, 1.0, -1.0, 0.0)">
    <path d="M85.0 12.0 Q87.45 13.55 88.8 16.1 L89.0 17.0 Q90.5 18.0 90.9 20.0 L91.0 21.0 Q92.7 22.3 92.1 26.0 L92.0 27.0 92.1 28.0 Q92.7 31.2 91.0 32.0 L91.0 33.0 91.0 34.0 90.8 34.9 90.0 36.0 Q89.3 38.7 90.8 39.4 91.0 39.5 91.0 40.0 L92.8 40.4 93.0 41.0 Q95.4 42.5 93.25 44.3 93.0 44.5 93.0 45.0 L93.25 45.75 94.0 46.0 Q96.7 45.8 97.75 47.2 L98.0 48.0 98.0 50.0 98.0 51.0 Q99.7 51.3 99.1 54.0 L99.0 55.0 98.05 55.15 93.0 56.0 92.95 56.5 Q88.6 57.1 85.0 58.0 L84.0 58.0 Q80.45 57.95 78.0 59.0 L77.0 59.1 73.0 60.0 72.9 60.5 Q66.5 61.5 65.0 57.0 L64.4 56.8 Q64.0 56.0 64.0 55.0 L64.75 54.75 65.0 54.0 64.0 54.0 59.0 54.0 58.95 54.5 52.0 55.0 51.0 55.0 48.0 55.0 47.85 55.55 45.0 56.0 45.0 57.0 46.8 57.4 47.0 58.0 Q47.5 58.0 47.75 58.25 L48.0 59.0 49.0 59.0 Q51.15 58.4 51.45 59.9 L52.0 60.0 52.8 60.25 Q57.4 64.35 51.0 65.0 L51.0 66.0 50.0 66.0 48.0 66.0 48.0 65.0 47.25 64.75 Q47.0 64.5 47.0 64.0 L46.0 64.0 45.0 64.0 44.0 64.0 37.0 64.0 36.0 64.0 Q34.05 63.95 33.0 63.0 L32.0 62.9 Q29.25 62.25 27.0 61.0 L26.05 61.1 Q23.9 61.65 24.0 60.0 L23.0 60.0 22.0 60.1 Q19.3 60.7 19.0 59.0 L18.1 58.8 Q17.5 58.5 17.0 58.0 L16.0 57.9 Q10.5 57.0 6.0 55.0 L5.25 54.75 Q5.0 54.5 5.0 54.0 L4.0 54.05 Q1.3 54.2 1.0 52.0 2.8 47.3 8.0 46.1 L9.0 46.0 9.0 45.0 Q13.7 45.15 10.25 41.75 10.0 41.5 10.0 41.0 L10.0 40.0 10.0 37.0 11.0 37.0 12.0 37.0 Q13.65 37.15 13.1 34.95 L13.0 34.0 12.5 33.9 Q12.0 31.5 12.0 29.0 L12.0 28.0 12.0 27.0 12.0 26.0 12.0 24.0 12.75 23.75 13.0 23.0 13.0 22.0 13.0 21.0 Q14.7 19.2 14.5 15.0 L15.0 15.0 15.0 14.0 16.0 14.0 16.0 13.0 16.0 12.0 16.75 11.75 17.0 11.0 17.0 10.0 17.0 9.0 Q19.0 7.5 21.15 6.2 L22.0 6.0 24.05 5.15 25.0 5.0 25.0 4.0 26.0 4.0 27.0 4.0 27.0 3.0 29.0 3.0 30.0 3.0 31.0 3.0 32.0 3.0 32.0 2.0 35.0 2.0 36.0 2.0 37.0 2.0 37.0 1.0 37.0 0.0 42.0 0.0 43.0 0.0 43.0 1.0 44.0 1.0 48.0 1.0 49.0 1.0 61.0 1.0 62.0 1.0 63.0 1.0 64.0 1.0 65.0 1.0 70.9 1.5 71.0 2.0 75.9 3.45 76.0 4.0 Q77.95 4.05 78.75 5.15 L79.0 6.0 80.0 6.0 82.75 8.25 83.0 9.0 84.75 11.15 85.0 12.0" fill="#ff0000" fill-rule="evenodd" stroke="none"/>
  </g>
</svg>
