<?xml version="1.0" encoding="UTF-8" standalone="no"?>
<svg xmlns:xlink="http://www.w3.org/1999/xlink" height="77.0px" width="87.2px" xmlns="http://www.w3.org/2000/svg">
  <g transform="matrix(1.0, 0.0, 0.0, 1.0, -0.8, -1.0)">
    <path d="M82.0 11.0 Q84.9 17.1 86.85 24.05 L87.0 25.0 88.0 25.0 88.0 48.0 88.0 49.0 88.0 50.0 88.0 51.0 87.05 51.15 Q86.0 51.5 85.0 52.0 L84.85 52.95 Q78.1 73.1 55.0 77.0 L55.0 78.0 54.0 78.0 37.0 78.0 37.0 77.5 Q15.8 76.7 9.0 62.0 L8.75 61.35 Q4.8 58.7 4.0 53.0 L4.0 52.0 3.45 51.9 Q3.1 50.4 1.0 51.0 L1.0 50.0 1.0 46.0 Q5.15 38.15 4.05 30.0 L4.0 29.0 Q3.5 29.0 3.4 28.8 3.0 28.0 3.0 27.0 L2.0 26.95 Q0.3 26.7 1.0 24.0 3.7 16.7 6.8 9.9 L7.0 9.0 Q16.95 3.45 26.0 2.5 L26.0 3.0 Q30.3 6.55 51.0 3.5 L51.0 4.0 Q57.65 6.1 59.3 4.25 59.5 4.0 60.0 4.0 L60.0 3.0 Q62.65 3.65 62.5 1.0 L63.0 1.0 Q73.15 4.85 81.75 10.35 L82.0 11.0" fill="#ff0000" fill-rule="evenodd" stroke="none"/>
  </g>
</svg>
