<?xml version="1.0" encoding="UTF-8" standalone="no"?>
<svg xmlns:xlink="http://www.w3.org/1999/xlink" height="93.85px" width="104.0px" xmlns="http://www.w3.org/2000/svg">
  <g transform="matrix(1.0, 0.0, 0.0, 1.0, -1.0, -1.15)">
    <path d="M105.0 52.0 Q100.6 53.1 100.95 59.0 L101.0 60.0 Q103.1 66.7 102.05 77.0 L102.0 78.0 102.15 78.95 Q105.8 92.1 86.0 95.0 L85.05 94.9 Q73.2 91.85 78.0 86.0 L78.0 85.5 Q56.25 88.9 28.0 82.0 27.45 85.55 29.85 86.45 L30.0 87.0 30.5 87.0 Q25.7 94.2 18.0 94.0 L17.05 93.85 Q6.55 90.95 1.0 83.0 2.95 82.95 3.75 81.85 L4.0 81.0 4.05 80.0 Q6.65 61.3 1.0 53.0 L1.0 52.0 1.0 50.0 Q4.85 37.85 5.0 22.0 L5.0 21.0 Q16.25 6.8 35.0 5.05 L36.0 5.0 Q45.45 -0.05 60.95 1.5 L61.0 2.0 76.0 4.9 77.0 5.0 Q105.3 13.7 105.0 51.0 L105.0 52.0" fill="#ff0000" fill-rule="evenodd" stroke="none"/>
  </g>
</svg>
