<?xml version="1.0" encoding="UTF-8" standalone="no"?>
<svg xmlns:xlink="http://www.w3.org/1999/xlink" height="97.15px" width="108.0px" xmlns="http://www.w3.org/2000/svg">
  <g transform="matrix(1.0, 0.0, 0.0, 1.0, -1.0, -0.8)">
    <path d="M103.0 34.0 Q97.35 43.7 105.5 53.0 L105.0 53.0 Q101.6 60.1 101.05 68.0 L101.0 69.0 Q101.55 75.45 108.2 80.75 L109.0 81.0 Q91.65 91.5 82.1 89.5 L82.0 89.0 Q82.0 88.5 81.8 88.35 70.65 81.9 41.0 87.0 L41.0 88.0 41.0 89.0 41.05 90.0 Q42.15 100.7 24.0 97.0 L23.9 96.45 Q17.15 94.75 14.0 92.0 L14.0 91.9 13.75 91.35 Q8.2 87.8 2.0 85.0 L2.05 84.0 Q2.45 75.95 1.0 66.0 8.2 60.7 14.2 65.75 L15.0 66.0 14.8 65.1 Q13.1 61.9 12.0 58.0 L11.05 57.85 Q4.55 55.95 2.0 50.0 11.25 43.1 5.25 34.85 5.0 34.5 5.0 34.0 5.65 20.6 12.75 13.75 L13.0 13.0 Q24.5 11.0 31.25 4.25 31.5 4.0 32.0 4.0 42.4 3.95 52.05 1.15 L53.0 1.0 Q62.0 0.0 66.2 3.75 L67.0 4.0 69.0 4.0 70.0 4.0 Q85.3 7.7 97.15 14.8 L98.0 15.0 Q102.65 21.85 103.0 33.0 L103.0 34.0" fill="#ff0000" fill-rule="evenodd" stroke="none"/>
  </g>
</svg>
