<?xml version="1.0" encoding="UTF-8" standalone="no"?>
<svg xmlns:xlink="http://www.w3.org/1999/xlink" height="31.0px" width="40.0px" xmlns="http://www.w3.org/2000/svg">
  <g transform="matrix(1.0, 0.0, 0.0, 1.0, 0.0, 0.0)">
    <path d="M35.0 5.0 Q36.65 4.9 36.1 7.05 L36.0 8.0 Q37.05 8.95 38.85 9.45 L39.0 10.0 40.0 10.0 40.0 20.0 40.0 21.0 39.2 21.25 33.0 26.0 32.05 26.15 21.0 30.0 21.0 31.0 20.0 31.0 19.0 31.0 Q19.0 30.5 18.8 30.45 14.4 28.6 10.0 27.0 L9.25 26.75 Q8.0 25.5 6.0 25.0 5.5 25.0 5.4 24.8 5.0 24.0 5.0 23.0 4.5 23.0 4.3 22.75 2.9 21.1 0.0 21.0 L0.0 20.0 0.0 19.0 0.0 10.0 1.0 10.0 Q3.0 9.5 4.25 8.25 4.5 8.0 5.0 8.0 L5.0 7.0 5.0 5.0 6.0 5.0 6.0 4.0 Q11.05 2.6 13.0 2.9 L14.0 3.0 Q16.5 2.0 18.8 0.65 L19.0 0.0 20.0 0.0 21.0 0.0 Q22.6 2.4 26.0 2.9 L27.0 3.0 Q29.55 2.7 34.85 4.45 L35.0 5.0" fill="#fe0404" fill-opacity="0.98039216" fill-rule="evenodd" stroke="none"/>
  </g>
</svg>
