<?xml version="1.0" encoding="UTF-8" standalone="no"?>
<svg xmlns:xlink="http://www.w3.org/1999/xlink" height="45.05px" width="70.45px" xmlns="http://www.w3.org/2000/svg">
  <g transform="matrix(1.0, 0.0, 0.0, 1.0, -5.0, -4.05)">
    <path d="M54.1 15.95 L56.0 18.0 Q66.8 27.15 73.45 30.4 75.15 31.2 75.3 31.6 L75.45 34.3 Q75.45 34.9 74.8 35.6 73.9 36.6 72.0 37.0 L72.55 38.75 72.9 40.55 72.15 44.65 Q70.5 48.7 66.0 49.0 66.6 46.3 63.95 44.7 61.95 43.5 60.0 43.5 58.8 43.5 55.15 45.5 51.45 47.5 50.6 47.5 48.7 47.5 47.65 45.6 46.55 43.65 46.0 39.0 L46.0 40.0 38.55 47.45 Q36.25 49.1 31.85 49.1 29.55 49.1 27.8 47.8 L15.0 36.0 Q13.45 31.0 9.0 27.45 L5.0 24.0 Q5.0 14.15 11.25 14.15 L18.0 16.0 Q16.95 13.55 18.9 11.95 20.55 10.55 22.85 10.55 25.05 10.55 29.0 11.5 L26.7 10.15 Q25.45 9.1 25.0 7.0 L27.5 5.0 Q29.1 4.05 31.15 4.05 32.7 4.05 38.5 6.0 44.5 7.95 45.9 9.1 L54.1 15.95" fill="#ff0000" fill-rule="evenodd" stroke="none"/>
  </g>
</svg>
