<?xml version="1.0" encoding="UTF-8" standalone="no"?>
<svg xmlns:xlink="http://www.w3.org/1999/xlink" height="202.05px" width="275.0px" xmlns="http://www.w3.org/2000/svg">
  <g transform="matrix(1.0, 0.0, 0.0, 1.0, -3.0, -1.0)">
    <path d="M265.15 87.25 Q265.5 87.0 266.0 87.0 L266.5 87.0 Q259.3 111.8 248.0 133.0 L248.0 134.0 248.0 135.0 Q253.1 139.05 248.5 141.0 L249.0 141.0 250.0 141.0 251.0 141.0 251.0 140.0 Q257.6 135.15 263.5 136.0 L262.0 136.0 Q255.7 140.15 262.85 142.45 L263.0 143.0 Q264.65 144.35 268.0 144.5 L268.0 145.0 Q270.45 146.0 273.8 146.85 L274.5 147.0 Q270.9 146.9 272.15 149.4 274.9 154.8 268.0 152.0 L267.85 151.05 Q266.6 146.9 256.0 147.0 L255.0 146.95 Q250.05 146.5 248.0 149.0 L248.0 150.0 Q249.65 154.35 257.0 153.5 L257.0 154.0 257.05 155.0 Q257.15 156.65 255.0 156.0 L254.75 156.8 Q252.5 159.45 250.0 157.0 L250.8 155.9 251.0 155.0 250.05 155.1 Q244.65 156.55 238.0 155.0 L237.05 155.15 Q235.0 156.0 233.0 157.0 L233.0 158.0 Q235.25 159.75 240.0 159.5 L240.0 160.0 241.1 160.8 242.0 161.0 250.0 161.0 251.0 161.0 251.0 160.0 259.0 159.05 260.0 159.0 261.0 159.05 Q269.4 160.1 278.0 162.0 L277.95 162.5 Q270.35 163.65 261.0 161.0 L260.9 161.55 249.0 164.0 248.0 164.05 Q242.95 164.6 240.0 163.0 236.65 165.15 241.2 166.2 248.95 168.0 257.0 172.0 L257.0 172.5 Q251.35 170.15 242.0 171.0 239.0 169.0 237.25 166.2 234.65 162.1 229.0 162.0 L228.0 162.0 227.8 162.6 Q227.0 163.0 226.0 163.0 L225.75 163.75 225.0 164.0 224.75 164.8 Q223.7 166.2 221.0 166.0 L220.95 166.5 Q213.45 167.45 210.0 172.0 L209.0 172.05 Q197.9 172.85 192.0 175.0 L192.0 176.0 192.0 177.0 Q190.4 183.1 195.0 183.0 L196.0 183.0 Q197.3 184.2 200.0 184.05 L201.0 184.0 209.0 184.0 210.0 184.0 230.7 185.7 227.95 185.55 Q227.0 185.5 226.0 186.0 223.05 187.1 225.5 190.0 L224.0 190.15 Q215.95 191.05 213.0 187.0 L212.95 186.5 206.0 186.0 205.75 186.75 205.0 187.0 Q206.65 188.7 205.2 189.4 205.0 189.5 205.0 190.0 206.55 191.45 207.75 193.15 L208.0 194.0 Q209.1 195.55 212.0 195.45 218.35 195.3 214.8 195.95 207.25 197.25 205.0 194.0 L204.15 193.75 Q200.4 191.1 197.0 188.0 L198.0 188.0 199.0 188.0 198.95 187.0 Q198.7 184.8 196.0 185.0 L195.2 185.25 Q191.8 187.8 189.0 191.0 L189.0 192.0 Q189.0 195.85 185.0 193.0 L184.15 192.75 Q182.7 191.8 180.0 192.0 179.5 192.0 179.4 191.8 178.5 190.0 178.0 188.0 L177.0 187.95 Q170.25 187.25 166.0 184.0 L165.15 183.8 161.0 181.0 160.2 180.75 Q150.35 172.15 144.0 180.0 L144.0 181.0 143.95 181.5 Q138.95 181.95 135.0 183.0 L135.0 184.0 Q133.0 189.5 135.6 193.6 L136.4 195.2 Q136.0 196.0 134.9 195.0 130.05 190.55 130.0 185.0 131.7 184.7 132.4 183.2 132.5 183.0 133.0 183.0 133.0 182.5 133.2 182.4 134.65 181.7 133.0 180.0 L133.75 179.75 134.0 179.0 133.8 178.4 132.0 178.0 131.05 178.15 Q130.0 178.5 129.0 179.0 L128.0 179.0 121.0 179.0 120.0 179.0 118.0 179.0 117.05 179.15 Q114.15 180.15 110.0 180.0 L110.05 181.0 Q110.45 185.45 105.0 184.0 L104.05 184.15 Q102.0 185.0 100.0 186.0 100.0 186.5 99.8 186.6 91.35 190.35 84.0 190.0 93.5 188.25 94.65 185.75 95.0 185.0 96.15 184.0 96.9 183.4 99.0 184.0 101.15 184.65 101.05 183.0 L101.0 182.0 100.0 181.95 Q98.3 181.7 99.0 179.0 100.05 178.05 102.0 178.0 L103.0 178.0 103.0 177.0 107.9 177.5 108.0 178.0 109.0 178.0 110.0 178.0 111.0 178.0 112.0 178.0 111.75 177.25 Q109.55 175.05 107.0 174.0 L106.05 173.85 94.0 170.0 Q94.0 169.5 93.8 169.4 88.75 167.2 87.0 162.0 88.0 162.0 88.8 161.6 L89.0 161.0 88.4 160.8 Q87.0 157.5 86.0 154.0 L85.8 153.4 84.0 153.0 83.0 153.0 77.0 153.0 77.1 154.0 Q77.7 156.7 76.0 157.0 L75.9 157.55 Q73.2 158.2 71.0 159.0 70.5 159.0 70.15 159.25 68.7 160.2 66.0 160.0 L66.0 160.5 64.6 160.2 63.25 159.9 54.0 158.0 53.0 158.0 Q48.85 157.85 46.0 159.0 L45.85 159.55 43.0 160.0 Q43.0 160.5 42.8 160.6 36.6 164.1 31.0 163.0 36.45 162.45 39.75 159.7 L40.0 159.0 39.0 159.0 38.0 159.0 37.0 159.1 Q32.75 160.05 31.0 156.0 L30.1 156.2 Q29.5 156.5 29.0 157.0 L28.95 158.0 Q28.5 163.1 26.0 157.0 L27.0 157.0 28.0 157.0 Q28.0 156.5 27.8 156.4 25.65 155.35 25.0 153.0 L29.0 153.0 30.0 153.0 Q33.7 152.3 35.25 153.75 L36.0 154.0 Q36.0 152.5 36.75 151.7 37.7 150.7 36.0 149.65 31.05 146.6 24.0 144.0 L23.05 144.1 Q13.4 146.4 6.0 146.0 14.65 145.65 18.0 141.0 L17.2 140.6 Q17.0 140.5 17.0 140.0 L16.25 139.75 Q14.7 138.3 11.0 139.0 L10.8 139.6 Q5.3 142.5 3.0 139.0 9.05 138.3 8.5 137.0 L10.0 137.0 Q15.8 136.2 18.25 138.75 L19.0 139.0 Q20.3 140.2 22.95 140.5 L23.0 141.0 23.5 141.0 Q23.05 136.45 21.0 128.0 32.25 131.25 38.3 140.1 38.7 140.7 38.55 137.95 38.5 137.5 39.0 137.0 43.95 135.65 46.85 146.05 L47.0 147.0 Q49.15 147.65 49.5 146.1 L50.0 146.0 50.0 145.0 55.9 144.5 56.0 144.0 55.25 143.75 Q55.0 143.5 55.0 143.0 56.0 142.5 57.05 142.15 L58.0 142.0 58.0 141.0 60.85 140.55 61.0 140.0 60.05 139.8 Q56.95 138.55 55.0 136.0 L54.15 135.75 Q41.75 127.75 31.0 118.0 L30.3 117.75 Q29.0 116.0 28.0 114.0 L27.75 113.3 Q26.3 112.2 27.0 109.0 L28.0 109.0 29.0 109.0 Q31.0 109.5 32.8 110.4 L33.0 111.0 Q40.1 114.4 47.85 117.45 L48.0 118.0 Q51.4 118.6 53.3 120.75 53.5 121.0 54.0 121.0 L62.8 126.35 Q63.0 126.5 63.0 127.0 65.55 127.45 66.75 129.15 L67.0 130.0 Q69.15 129.4 69.45 130.9 L70.0 131.0 69.8 130.1 Q63.2 117.8 57.0 105.0 L56.3 104.75 Q54.55 102.45 54.0 99.0 L55.0 99.0 55.0 98.0 55.0 96.0 59.15 93.2 60.0 93.0 Q63.35 94.65 65.75 97.25 L66.0 98.0 66.25 98.75 Q71.75 103.75 76.0 110.0 L76.5 110.0 Q70.85 94.25 74.0 79.0 80.4 80.1 82.2 86.7 84.1 93.75 86.0 92.0 87.0 89.5 86.65 87.2 84.4 71.1 73.0 63.0 L72.85 62.05 Q68.85 52.15 64.0 43.0 L65.1 42.2 66.0 42.0 Q69.5 41.95 71.8 43.35 72.0 43.5 72.0 44.0 L81.8 49.4 Q82.0 49.5 82.0 50.0 88.75 51.25 93.2 54.75 L94.0 55.0 Q99.75 58.75 103.35 64.8 103.5 65.0 104.0 65.0 L104.0 64.0 104.0 60.0 105.0 60.0 105.0 59.0 105.0 58.0 Q106.65 58.15 106.1 55.95 L106.0 55.0 106.0 54.0 Q110.35 44.85 114.4 35.2 114.5 35.0 115.0 35.0 L115.0 34.0 Q119.25 33.75 119.05 38.0 L119.0 39.0 Q120.35 46.15 122.45 52.85 L123.0 53.0 Q124.05 43.0 125.9 32.0 L126.0 31.0 Q131.75 29.75 135.25 26.25 135.5 26.0 136.0 26.0 L136.0 25.0 136.0 24.0 Q138.25 18.75 143.1 16.2 L144.0 16.0 144.0 15.0 Q147.35 15.65 149.75 17.35 L150.0 18.0 150.85 20.05 151.0 21.0 Q152.75 23.75 152.5 29.0 L153.0 29.0 153.0 28.0 153.0 22.0 154.0 22.0 154.0 21.0 155.85 16.95 156.0 16.0 156.0 15.0 156.0 14.0 156.8 12.9 157.0 12.0 157.0 11.0 160.8 2.9 161.0 2.0 161.0 1.0 Q165.6 6.4 164.05 18.0 L164.0 19.0 Q164.0 24.0 164.5 28.95 L165.0 29.0 165.0 28.0 166.0 28.0 166.0 27.0 166.0 25.0 Q167.7 24.7 168.4 23.2 168.5 23.0 169.0 23.0 L169.0 22.0 169.0 21.0 Q172.5 20.5 172.5 16.0 L173.0 16.0 173.0 15.0 Q174.45 12.95 177.05 12.15 L178.0 12.0 Q180.95 15.05 182.8 19.1 L183.0 20.0 Q184.75 22.75 183.55 27.9 L183.0 28.0 183.05 29.0 Q183.75 35.25 182.0 39.0 L182.0 42.0 182.0 43.0 Q183.65 43.65 184.5 38.05 L185.0 38.0 185.0 37.0 185.0 36.0 Q189.0 29.85 189.0 38.0 L189.0 39.0 Q190.75 43.75 189.5 50.9 L189.0 51.0 189.0 61.0 189.0 62.0 190.0 62.0 Q192.7 62.7 193.4 61.2 L194.0 61.0 194.0 60.0 194.0 59.0 Q199.6 47.1 204.8 34.9 L205.0 34.0 205.0 33.0 205.0 32.0 Q207.2 30.7 207.5 27.05 L208.0 27.0 Q211.3 21.3 217.0 18.5 L217.0 19.0 217.5 19.05 Q218.75 27.25 216.0 32.0 L216.1 33.0 Q216.7 36.2 215.0 37.0 L214.95 38.0 Q214.7 41.2 213.0 43.0 L213.0 44.0 Q213.05 49.05 211.0 52.0 L211.0 53.0 211.0 54.0 Q211.0 58.0 209.0 60.0 211.05 71.45 214.85 81.05 L215.0 82.0 215.0 84.0 215.0 85.0 215.0 87.0 215.0 88.0 Q217.05 89.45 219.85 90.45 L220.0 91.0 222.0 91.0 223.0 91.0 235.95 91.5 236.0 92.0 237.0 92.0 238.8 92.4 239.0 93.0 239.5 93.05 Q240.4 100.4 238.0 105.0 238.0 107.0 238.45 108.9 L239.0 109.0 Q246.0 103.0 251.35 95.25 251.5 95.0 252.0 95.0 256.05 92.05 260.15 89.25 L261.0 89.0 261.0 88.0 Q263.75 88.2 265.15 87.25 M186.0 196.0 Q194.15 199.35 199.95 203.05 L198.0 203.0 Q190.65 201.35 186.25 196.75 L186.0 196.0 M215.15 176.75 Q217.1 179.0 209.95 177.15 208.3 176.7 208.0 175.0 217.3 169.0 214.5 176.0 L215.15 176.75 M212.0 180.0 Q224.6 178.25 212.0 180.5 L212.0 180.0 M243.35 184.8 Q239.2 186.75 237.0 183.0 L245.25 183.35 Q245.0 184.0 243.35 184.8 M24.0 167.1 Q25.65 167.3 24.15 167.15 16.0 166.45 7.0 160.0 L16.0 160.0 17.0 160.0 Q24.6 159.7 19.2 162.4 19.0 162.5 19.0 163.0 17.85 166.4 24.0 167.1 M60.05 161.1 L61.0 161.0 Q55.95 164.45 48.0 164.5 L48.0 164.0 60.05 161.1 M93.0 176.0 Q94.75 173.95 97.05 177.6 98.7 180.2 94.3 177.5 93.5 177.0 93.0 176.0 M135.0 188.0 Q142.4 184.6 140.5 188.75 136.9 196.8 135.0 188.0" fill="#fd0808" fill-opacity="0.98039216" fill-rule="evenodd" stroke="none"/>
  </g>
</svg>
