<?xml version="1.0" encoding="UTF-8" standalone="no"?>
<svg xmlns:xlink="http://www.w3.org/1999/xlink" height="254.5px" width="337.0px" xmlns="http://www.w3.org/2000/svg">
  <g transform="matrix(1.0, 0.0, 0.0, 1.0, -3.0, -2.5)">
    <path d="M340.0 209.0 L330.0 210.95 329.0 211.0 328.0 211.05 Q322.65 211.35 319.0 210.0 L318.75 210.75 318.0 211.0 318.0 212.0 318.0 213.0 Q326.4 213.45 325.5 216.0 L327.0 216.0 329.0 216.0 Q340.65 220.5 331.95 218.15 L331.0 218.0 330.0 218.05 Q319.0 219.0 315.0 213.0 L314.5 213.0 Q314.8 208.7 311.0 209.0 L310.0 209.05 290.0 210.0 289.0 210.1 Q280.0 211.55 277.0 207.0 L276.0 207.0 273.0 207.0 Q277.6 213.9 287.9 215.5 L288.0 216.0 289.0 216.05 Q301.8 217.7 310.0 224.0 L309.05 223.85 Q297.95 220.05 286.0 217.0 L285.05 216.9 Q274.0 214.0 267.0 207.0 L267.0 206.5 Q258.45 209.35 260.0 213.0 L259.9 214.0 Q252.65 214.8 241.95 213.5 229.5 212.05 223.0 210.0 L222.9 210.95 Q220.2 221.7 212.0 227.0 L212.0 228.0 Q219.65 228.85 218.2 236.65 218.0 237.5 218.2 237.7 222.1 241.4 227.0 239.0 L226.45 238.9 Q226.0 237.0 226.0 235.0 L226.0 234.0 226.0 231.0 Q228.1 225.6 233.0 223.5 L233.0 224.0 233.8 225.1 234.0 226.0 235.9 237.0 236.0 238.0 237.0 238.0 Q238.05 238.95 240.0 239.0 L241.0 239.0 260.0 239.95 261.0 240.0 Q277.55 237.8 262.0 240.9 L261.0 241.0 Q261.3 242.7 264.0 242.5 L264.0 243.0 265.0 243.0 266.0 243.0 266.5 243.0 Q263.15 247.15 257.0 244.0 L256.05 244.1 Q253.9 244.65 254.0 243.0 L253.75 242.3 Q251.25 240.25 246.0 241.0 246.5 244.0 247.45 246.85 L248.0 247.0 Q248.75 250.6 252.1 250.4 258.7 250.0 254.75 250.7 246.1 252.25 245.0 248.0 L244.1 247.8 Q242.5 247.0 242.0 245.0 L241.05 245.1 Q237.6 245.95 238.0 243.0 239.0 243.0 239.8 242.6 L240.0 242.0 239.95 241.0 Q239.7 239.3 237.0 240.0 L236.0 240.0 235.8 240.65 Q233.8 241.8 231.0 242.0 L230.8 242.6 Q229.0 243.5 227.0 244.0 L227.0 245.0 Q232.75 249.85 227.1 248.55 L227.0 248.0 Q221.85 248.65 220.25 245.85 217.3 240.65 207.0 238.0 L207.0 239.0 207.05 240.0 Q207.2 242.7 205.0 243.0 L204.8 243.9 Q203.1 247.6 203.0 253.0 201.15 255.15 202.5 248.1 203.05 245.4 200.0 245.0 201.7 244.7 202.4 243.2 L203.0 243.0 203.0 242.0 204.0 242.0 Q204.0 240.0 203.65 239.95 L185.0 239.0 184.0 239.0 183.85 239.55 181.0 240.0 181.0 241.0 180.75 241.65 Q175.9 244.9 169.0 246.0 169.0 246.5 168.8 246.6 162.25 249.75 157.0 249.0 163.25 247.25 168.15 244.2 L169.0 244.0 169.0 243.0 171.85 242.55 172.0 242.0 171.2 241.75 Q169.8 240.75 170.0 238.0 171.95 237.95 173.15 237.25 173.5 237.0 174.0 237.0 L174.0 236.0 178.9 235.5 179.0 235.0 178.5 234.9 Q178.15 233.4 176.0 234.0 L175.2 234.25 Q173.5 235.5 172.0 232.0 173.65 232.15 173.1 229.95 L173.0 229.0 172.8 228.4 Q166.05 224.95 159.0 222.0 L158.0 222.0 148.0 222.0 Q147.5 222.0 147.15 222.25 143.45 224.95 137.0 225.0 L137.0 226.0 Q137.0 226.5 137.2 226.6 148.75 231.6 130.0 232.0 L129.1 232.2 Q124.45 234.45 118.0 235.0 L118.0 236.0 Q117.4 238.15 119.0 238.05 L120.0 238.0 Q122.15 238.65 122.5 237.1 L123.0 237.0 Q133.3 234.05 145.0 234.95 L146.0 235.0 Q155.1 235.0 149.2 237.45 149.0 237.5 149.0 238.0 L148.75 238.75 148.0 239.0 149.25 240.75 150.0 241.0 Q157.0 245.2 150.15 242.55 150.0 242.5 150.0 242.0 141.55 239.45 133.75 236.65 L132.05 236.05 Q138.05 239.4 129.0 239.0 L129.0 240.0 Q136.5 245.0 141.5 251.0 L140.1 250.6 Q138.0 250.0 136.0 249.0 L135.5 249.0 Q136.55 255.1 127.0 250.0 130.85 248.85 133.75 246.7 L134.0 246.0 133.25 245.75 130.0 242.0 129.05 241.85 127.0 241.0 Q121.75 240.25 120.5 242.0 117.45 244.9 110.0 241.0 L109.0 241.0 107.0 241.0 106.0 241.1 Q100.3 242.25 96.6 245.5 100.4 241.35 90.0 242.0 L89.8 242.6 Q89.0 243.0 88.0 243.0 L87.85 243.55 Q80.15 246.15 74.0 245.0 80.3 244.3 83.0 242.0 L82.9 241.55 Q82.2 238.7 88.0 240.0 89.05 239.05 91.0 239.0 L92.0 239.0 92.0 238.0 94.85 237.55 95.0 237.0 94.75 236.35 Q91.45 234.1 86.0 234.0 L85.0 233.9 Q83.0 233.5 82.0 232.0 L81.1 231.8 80.0 231.0 79.1 231.2 78.0 232.0 77.85 232.55 62.0 237.0 61.8 237.6 Q57.3 239.8 54.0 238.0 L60.0 237.05 61.0 237.0 Q61.0 236.5 61.2 236.4 L62.0 236.0 Q57.45 230.7 47.0 234.0 L47.0 234.5 Q45.3 234.2 46.0 231.0 L50.0 231.0 51.0 231.0 Q56.45 229.95 59.05 230.85 L60.0 231.0 Q64.55 230.45 66.75 232.3 L67.0 233.0 Q74.45 233.0 74.05 231.2 L73.95 230.8 Q73.1 227.05 65.5 227.0 L69.9 226.5 70.0 226.0 69.1 225.8 68.0 225.0 67.05 224.9 Q61.95 223.55 58.0 221.0 L57.05 221.15 Q50.5 223.5 44.0 221.0 L56.9 219.5 57.0 219.0 57.0 218.0 56.0 218.05 Q53.3 218.2 52.0 217.0 L51.1 216.8 50.0 216.0 49.0 216.0 34.05 217.85 Q21.45 218.95 28.0 216.0 L28.5 216.0 Q22.85 210.75 12.0 214.0 L11.9 214.5 Q6.25 215.75 3.0 214.0 6.95 214.45 9.1 213.2 L10.0 213.0 25.05 209.15 26.0 209.0 Q27.05 209.95 29.0 210.0 L30.0 210.0 Q33.2 211.7 33.75 210.85 L34.0 210.0 Q33.5 210.0 33.4 209.8 33.0 209.0 33.0 208.0 32.5 208.0 32.4 207.8 26.5 195.0 26.0 177.0 34.75 174.45 38.85 186.05 L39.0 187.0 Q43.45 192.05 48.25 196.75 L49.0 197.0 49.0 196.0 49.0 194.0 50.85 188.95 51.0 188.0 51.0 187.0 51.0 183.0 50.75 182.25 Q48.2 179.8 49.0 174.0 50.45 171.95 53.05 171.15 L54.0 171.0 56.0 171.0 57.0 171.0 Q59.7 171.2 60.45 169.15 60.5 169.0 61.0 169.0 L61.0 168.0 62.0 168.0 Q63.0 167.5 64.05 167.15 L65.0 167.0 Q66.75 165.25 68.9 163.8 70.95 162.45 69.7 159.55 63.8 146.2 59.0 131.0 L58.85 130.05 Q53.85 116.65 50.0 102.0 L50.0 101.0 50.0 91.0 51.0 91.0 51.0 90.0 51.0 88.0 Q55.2 87.3 54.1 92.05 L54.0 93.0 Q56.8 106.7 63.75 116.15 L64.0 117.0 Q65.65 116.9 65.5 119.0 L66.0 119.0 Q73.2 107.2 83.2 98.25 L84.0 98.0 Q84.0 97.5 84.25 97.3 91.6 91.6 79.0 88.0 L78.75 87.25 Q75.1 83.4 73.0 78.0 L72.45 77.9 Q72.0 76.0 72.0 74.0 74.45 72.45 78.9 73.5 L79.0 74.0 81.75 76.25 82.0 77.0 Q85.2 78.3 88.85 79.45 L89.0 80.0 Q95.9 87.65 92.6 73.85 90.8 66.3 95.0 64.0 98.6 69.4 100.45 76.9 L101.0 77.0 101.0 76.0 101.0 72.0 Q106.0 69.5 109.3 65.25 109.5 65.0 110.0 65.0 L110.0 64.0 110.0 58.0 Q112.3 52.3 113.5 45.1 L114.0 45.0 Q117.95 53.55 120.45 63.9 L121.0 64.0 Q119.9 50.25 121.5 34.05 L122.0 34.0 122.0 33.0 122.0 32.0 122.0 30.0 123.1 29.2 124.0 29.0 124.0 28.0 124.0 27.0 Q125.7 26.7 126.4 25.2 126.5 25.0 127.0 25.0 135.4 40.1 137.95 61.0 L138.0 62.0 139.25 63.75 140.0 64.0 142.0 64.0 143.0 64.0 Q145.25 60.75 145.0 55.0 L145.0 54.0 145.0 53.0 Q145.6 31.35 145.0 12.0 146.65 12.15 146.1 9.95 L146.0 9.0 146.0 8.0 146.0 7.0 Q146.65 2.15 151.95 2.5 L152.0 3.0 Q163.35 17.65 164.0 43.0 L164.0 44.0 Q167.15 43.65 167.5 40.05 L168.0 40.0 168.0 39.0 168.0 38.0 168.0 37.0 168.0 32.0 Q169.7 30.7 169.5 27.0 L170.0 27.0 170.0 26.0 170.0 25.0 Q171.7 24.7 171.5 22.0 L172.0 22.0 172.0 21.0 172.0 19.0 173.1 18.2 174.0 18.0 174.0 17.0 Q181.6 21.4 179.7 36.1 179.0 41.65 183.0 39.0 L183.0 38.0 183.0 37.0 183.8 35.9 184.0 35.0 184.0 34.0 Q184.05 25.9 181.0 16.0 L181.0 15.0 181.0 13.0 Q184.7 12.3 186.25 13.75 L187.0 14.0 Q188.45 15.55 190.85 16.45 L191.0 17.0 193.75 21.2 194.0 22.0 Q199.8 28.7 203.45 37.85 L204.0 38.0 204.0 37.0 Q216.7 36.8 219.85 46.05 L220.0 47.0 Q222.6 51.9 225.75 56.2 L226.0 57.0 230.0 57.9 231.0 58.0 Q235.7 51.75 242.9 53.45 L243.0 54.0 Q244.7 54.3 244.1 57.0 L244.0 58.0 245.0 58.0 246.0 58.0 Q247.3 56.8 250.0 56.95 L251.0 57.0 Q252.75 59.75 251.55 64.9 L251.0 65.0 251.1 66.0 Q251.7 68.7 250.0 69.0 L250.0 73.0 250.0 74.0 Q251.75 77.25 250.5 82.9 L250.0 83.0 250.0 85.0 250.0 86.0 249.8 86.9 Q247.7 91.2 242.0 92.0 247.7 100.75 252.8 110.1 L253.0 111.0 254.8 111.4 255.0 112.0 Q259.8 113.2 263.8 115.4 L264.0 116.0 Q268.55 115.45 270.75 117.3 L271.0 118.0 271.0 119.0 271.75 119.25 272.0 120.0 Q272.5 120.0 272.55 120.2 276.7 130.2 274.0 143.0 273.5 143.0 273.25 143.25 270.5 146.0 268.0 149.0 L268.0 150.0 Q267.8 158.3 264.0 163.0 267.2 165.05 275.3 163.45 276.25 163.3 275.65 165.9 L275.0 167.0 Q270.8 171.3 266.75 175.75 L266.0 176.0 265.8 176.9 Q262.65 183.15 260.0 190.0 L260.0 192.0 260.0 193.0 Q266.35 191.85 270.1 195.85 273.9 199.85 266.0 196.0 L265.75 196.75 264.0 198.0 Q264.8 199.7 268.0 199.5 L268.0 200.0 Q269.55 201.95 272.9 202.5 L273.0 203.0 274.0 203.0 Q276.95 203.45 276.1 199.95 L276.0 199.0 276.0 198.0 276.0 195.0 276.0 194.0 276.0 192.0 276.1 191.0 Q277.5 184.65 269.8 184.95 275.0 184.6 278.15 182.25 L279.0 182.0 279.0 181.0 Q280.9 179.9 281.5 177.1 L282.0 177.0 282.0 176.0 282.75 175.75 283.0 175.0 283.0 174.0 283.0 173.0 Q284.5 172.0 285.4 170.2 285.5 170.0 286.0 170.0 L286.0 169.0 292.3 160.25 Q292.5 160.0 293.0 160.0 L293.0 159.0 Q293.95 159.3 294.7 159.7 295.25 159.65 295.15 159.95 299.4 162.65 296.2 170.1 L296.0 171.0 296.0 174.0 296.0 175.0 Q300.3 171.3 303.5 173.0 L302.35 173.65 Q296.4 176.9 303.0 180.0 304.65 181.35 308.0 181.5 L308.0 182.0 309.0 182.05 Q317.8 183.3 310.0 188.0 311.0 188.0 311.15 188.35 313.6 194.35 309.3 187.2 306.85 183.15 299.0 185.0 L298.15 184.75 Q296.35 183.65 293.0 184.0 L293.0 190.0 293.0 191.0 Q300.3 190.8 295.9 192.8 L295.0 193.0 294.75 193.75 293.0 195.0 293.0 196.0 293.0 197.0 293.95 197.15 Q302.75 200.5 292.0 200.0 L292.0 201.0 292.0 202.0 293.85 207.05 294.0 208.0 Q299.35 208.85 301.3 206.25 301.5 206.0 302.0 206.0 L302.0 205.0 316.95 205.5 317.0 206.0 Q319.65 205.35 319.5 208.0 L320.0 208.0 Q323.95 207.55 326.1 208.8 L327.0 209.0 328.0 209.0 328.0 208.0 339.95 208.5 340.0 209.0 M161.0 231.0 Q158.3 230.8 158.1 233.0 L158.0 234.0 Q157.4 230.45 154.0 229.0 159.6 226.6 164.8 229.4 L165.0 230.0 Q168.75 238.05 167.35 237.3 162.15 234.55 161.0 231.0 M302.0 197.0 L303.0 196.95 Q310.9 196.5 317.0 199.0 L316.85 199.55 Q312.1 201.25 301.0 198.0 L300.95 198.5 Q298.3 198.7 298.0 196.0 L301.9 196.45 302.0 197.0 M43.0 222.0 Q37.7 225.2 26.0 226.5 L26.0 226.0 42.05 222.1 43.0 222.0 M35.0 238.0 Q49.3 234.85 35.0 238.5 L35.0 238.0 M66.0 247.0 Q75.8 246.95 66.0 247.5 L66.0 247.0 M303.15 227.25 Q299.3 229.8 296.0 228.0 299.35 225.85 304.0 225.5 L304.0 226.0 Q311.7 233.15 304.25 227.7 304.0 227.5 304.0 227.0 L303.15 227.25 M286.0 227.0 Q290.65 222.0 286.0 228.25 285.4 229.15 286.0 227.0 M309.0 231.0 Q322.2 234.7 309.1 231.55 L309.0 231.0 M262.0 215.0 Q271.35 214.4 262.0 215.5 L262.0 215.0 M253.0 234.0 Q263.7 234.85 253.0 234.5 L253.0 234.0 M277.0 238.0 Q291.4 238.05 281.35 240.4 279.0 240.95 277.0 238.0 M240.0 257.0 L239.0 257.0 234.0 257.0 233.85 256.45 Q229.5 255.0 228.0 251.0 232.4 255.1 239.9 256.5 L240.0 257.0" fill="#fc0c0c" fill-opacity="0.98039216" fill-rule="evenodd" stroke="none"/>
  </g>
</svg>
