<?xml version="1.0" encoding="UTF-8" standalone="no"?>
<svg xmlns:xlink="http://www.w3.org/1999/xlink" height="325.05px" width="354.6px" xmlns="http://www.w3.org/2000/svg">
  <g transform="matrix(1.0, 0.0, 0.0, 1.0, -1.0, -1.95)">
    <path d="M329.0 223.0 L329.5 223.05 Q330.25 229.75 327.0 233.0 L327.0 234.0 327.0 235.0 327.0 235.5 Q340.35 235.2 326.0 238.0 L325.4 238.2 Q324.5 240.0 323.0 241.0 L323.0 242.0 Q331.95 241.5 338.4 239.05 L339.0 240.0 Q345.35 240.15 350.05 241.85 L351.0 242.0 Q358.35 244.35 354.0 244.95 L353.0 245.0 Q351.2 248.2 354.05 248.65 355.65 248.9 354.4 249.3 352.5 250.0 351.6 248.2 349.55 244.15 341.0 243.0 L340.0 242.95 Q336.65 242.65 335.0 244.0 L334.85 244.55 332.0 245.0 331.0 245.0 330.0 245.0 Q328.05 245.05 327.0 246.0 327.3 247.7 328.8 248.4 L329.0 249.0 Q332.8 249.2 335.15 250.75 L336.0 251.0 Q340.1 249.9 339.5 252.9 L339.0 253.0 Q338.55 255.55 336.05 253.65 335.25 253.0 330.0 251.0 L329.0 251.1 Q325.3 251.7 324.0 250.0 L323.95 249.5 Q318.2 248.9 316.0 247.0 L315.0 246.95 306.0 246.0 Q306.4 253.6 307.9 260.05 L308.0 261.0 Q316.45 259.4 326.5 261.0 L325.0 261.0 323.0 261.0 Q322.7 265.1 318.45 263.85 312.6 262.1 308.0 264.0 308.85 270.0 315.6 270.95 L318.0 271.1 321.35 271.2 333.0 272.0 Q338.2 270.7 345.0 271.0 L346.0 271.0 Q341.6 273.6 335.0 273.95 L334.0 274.0 333.9 274.55 Q327.9 276.1 326.0 273.0 L325.0 273.0 Q325.0 273.5 324.8 273.6 L323.0 274.0 Q323.3 276.25 325.05 276.85 L326.0 277.0 Q330.5 278.5 336.9 279.5 L337.0 280.0 338.0 280.0 338.8 280.25 Q344.25 284.4 337.0 281.0 L336.0 281.0 330.0 281.0 329.0 280.95 Q325.8 280.7 324.0 279.0 L323.15 278.8 Q320.05 277.0 319.0 273.0 L319.75 272.75 320.0 272.0 319.0 272.0 315.0 272.0 314.0 272.0 313.0 272.0 312.0 272.05 Q309.2 272.2 307.0 273.0 L306.0 273.05 Q300.25 273.75 297.0 272.0 L296.15 271.75 Q293.75 270.25 294.0 266.0 L294.0 265.0 294.0 263.0 Q296.65 261.15 296.05 256.0 L296.0 255.0 296.0 254.5 Q292.3 254.7 291.0 253.0 294.7 253.7 296.25 252.25 296.5 252.0 297.0 252.0 298.7 251.7 299.6 250.4 L300.5 249.0 Q295.8 245.7 295.0 238.0 L294.0 237.9 Q289.35 237.15 286.0 235.0 L286.0 234.0 Q287.2 230.45 289.75 233.25 L290.0 234.0 Q291.05 234.95 292.85 235.45 L293.0 236.0 Q297.9 234.4 296.5 226.0 L297.0 226.0 297.0 225.0 297.0 224.0 297.0 217.0 Q300.05 201.15 309.3 212.75 L310.0 213.0 Q310.5 223.0 314.0 229.0 L314.45 228.75 Q316.55 227.55 318.0 226.0 L318.0 225.0 319.1 224.2 320.0 224.0 320.0 223.0 328.0 223.0 329.0 223.0 M345.35 233.5 Q340.9 236.9 337.0 236.0 343.65 231.3 346.0 233.0 L345.35 233.5 M353.0 261.0 Q346.05 259.45 340.2 256.6 340.0 256.5 340.0 256.0 347.15 257.35 352.8 260.4 L353.0 261.0 M329.9 259.9 Q329.0 260.0 328.0 259.0 337.5 259.05 329.9 259.9 M325.0 292.0 L325.85 292.25 Q332.35 296.85 324.0 293.0 L323.05 292.85 Q315.9 290.1 308.0 288.0 L307.0 288.1 Q304.3 288.7 304.0 287.0 L303.0 286.95 Q298.75 286.75 297.0 284.0 293.45 284.0 292.45 282.2 291.55 280.5 287.0 276.0 L286.15 275.75 Q278.65 270.85 268.0 269.0 L267.0 269.0 266.0 269.0 265.75 269.65 Q261.9 272.45 261.0 269.0 L260.25 268.75 Q260.0 268.5 260.0 268.0 L259.0 268.0 258.95 269.0 Q258.7 270.7 256.0 270.0 L255.2 270.25 Q249.65 275.15 242.0 278.0 L241.0 278.0 242.85 284.05 243.0 285.0 Q244.75 287.75 243.55 292.9 L243.0 293.0 243.0 295.0 243.0 296.0 Q247.45 293.85 250.25 296.75 L251.0 297.0 251.8 298.1 252.0 299.0 251.95 300.0 Q251.35 303.85 249.0 306.0 254.15 307.85 261.0 308.0 L262.0 308.0 Q278.7 305.7 262.95 309.9 L262.0 310.0 Q260.2 311.35 265.0 311.1 L266.5 311.0 Q263.75 315.1 257.0 312.0 L256.05 311.85 Q253.2 310.8 251.0 309.0 L250.05 309.15 Q244.1 311.35 249.0 315.0 L248.9 315.5 Q244.45 316.5 237.0 310.0 L236.0 310.0 235.0 310.0 Q225.25 310.3 229.0 316.0 228.0 318.35 226.2 317.25 L225.0 316.55 Q222.65 312.85 218.0 309.0 226.4 310.4 229.75 306.75 L230.0 306.0 229.1 305.8 228.0 305.0 Q227.5 305.0 227.35 304.75 225.35 301.95 218.0 301.0 L218.0 302.0 218.1 303.0 Q218.65 305.65 216.0 305.0 L216.0 306.0 Q213.55 310.5 213.8 315.1 213.15 310.15 212.0 307.0 L213.1 306.2 214.0 306.0 214.0 305.0 Q215.65 305.15 215.5 303.0 L216.0 303.0 216.1 302.0 Q216.6 299.75 212.0 300.0 L211.1 300.2 210.0 301.0 Q206.25 303.25 201.9 304.75 L199.3 305.7 Q192.85 308.2 190.0 306.0 L189.05 306.2 Q177.15 311.15 166.0 312.0 177.0 309.05 180.5 304.0 L180.65 302.05 Q180.8 300.3 183.0 300.0 L182.9 299.5 Q181.4 299.15 182.0 297.0 184.45 295.95 187.95 295.5 L188.0 295.0 187.75 294.3 Q186.3 293.2 187.0 290.0 L186.2 289.75 Q181.6 286.3 176.0 288.0 L175.0 288.0 Q173.45 287.9 170.0 285.0 L172.0 285.0 173.0 285.0 172.85 284.05 172.0 282.0 Q167.7 284.7 161.95 285.3 154.05 286.2 157.0 290.0 L156.05 289.85 Q147.35 286.5 137.0 289.0 L136.75 289.75 135.0 291.0 135.25 291.75 136.0 292.0 Q145.6 297.4 136.15 293.55 136.0 293.5 136.0 293.0 L135.25 292.75 Q133.05 290.45 129.0 290.0 L128.0 290.0 127.0 290.0 126.85 290.55 124.0 291.0 Q128.6 296.85 124.05 297.5 L124.0 298.0 Q124.0 298.5 124.25 298.65 134.0 304.9 122.0 300.0 120.5 300.0 120.35 300.45 120.0 301.5 120.65 302.7 123.15 307.6 114.0 302.0 116.85 299.65 120.5 297.0 L120.0 297.0 119.0 297.05 Q111.1 297.9 107.0 295.0 L106.05 294.85 Q99.6 293.05 92.0 293.0 L91.1 293.2 Q88.35 294.35 85.0 295.0 L84.8 295.85 Q82.75 299.2 80.0 297.0 83.65 297.15 83.95 294.0 L84.0 293.0 83.0 293.0 Q78.85 292.85 76.0 294.0 L75.85 294.55 Q68.35 297.35 62.0 296.0 72.25 295.4 70.7 293.25 70.5 293.0 70.0 293.0 63.0 291.95 74.0 292.0 L75.0 292.0 75.0 291.0 Q83.3 292.3 86.75 288.75 L87.0 288.0 87.0 287.5 Q80.5 288.0 79.0 284.0 86.55 283.05 93.9 281.5 L94.0 281.0 93.0 281.1 Q85.3 282.6 83.0 280.0 84.95 279.95 85.75 278.85 L86.0 278.0 85.05 277.85 Q81.7 276.8 80.0 274.0 L79.1 273.8 78.0 273.0 77.0 273.0 72.0 273.0 71.8 273.6 Q71.0 274.0 70.0 274.0 L70.0 277.0 70.0 278.0 69.75 278.7 66.0 281.0 65.85 281.95 Q65.4 283.05 57.0 283.0 L56.8 283.6 Q47.55 288.2 35.0 289.0 47.35 287.9 49.0 282.0 L48.05 281.8 40.0 280.0 39.1 280.2 Q36.95 281.45 33.0 281.0 L32.8 281.6 Q25.55 285.55 17.0 288.0 L16.8 288.6 Q13.0 290.45 11.0 289.0 13.95 288.45 16.1 287.2 L17.0 287.0 Q23.4 284.9 28.8 281.65 L29.0 281.0 28.4 280.8 Q28.0 280.0 28.0 279.0 30.85 275.9 37.05 277.85 L38.0 278.0 39.0 278.0 40.0 278.0 40.0 277.0 Q49.35 277.15 55.8 280.4 L56.0 281.0 Q59.5 281.0 62.05 280.15 L63.0 280.0 Q63.5 279.5 63.95 279.55 66.7 279.7 66.05 278.55 63.85 274.7 59.0 273.0 L58.0 273.1 Q48.8 275.15 42.0 270.0 L42.0 269.5 Q36.25 270.2 31.0 267.0 L43.0 266.05 44.0 266.0 Q45.0 265.5 46.05 265.15 L47.0 265.0 Q48.05 265.95 49.9 265.55 L50.0 265.0 49.85 264.45 Q36.95 260.8 24.0 265.0 L24.0 265.5 Q18.9 265.6 15.0 264.0 19.65 262.85 23.0 263.0 L24.0 263.0 Q26.15 263.65 26.5 262.1 L27.0 262.0 27.0 261.5 Q24.3 261.7 24.0 260.0 L23.95 259.5 12.0 260.0 11.9 260.5 Q4.95 261.95 1.0 261.0 L10.05 259.15 11.0 259.0 Q14.5 258.0 17.8 256.6 L18.0 256.0 Q28.35 255.65 35.1 258.8 L36.0 259.0 35.75 258.15 34.0 256.0 43.0 256.5 43.0 256.0 43.0 255.0 43.0 252.0 44.0 252.0 44.0 251.0 Q48.6 251.2 46.25 248.75 46.0 248.5 46.0 248.0 45.5 248.0 45.4 247.8 44.7 246.3 43.0 246.0 L42.0 246.05 Q38.25 246.25 35.0 247.0 L34.75 247.65 Q31.05 250.0 28.0 248.0 32.45 248.45 34.3 246.25 34.5 246.0 35.0 246.0 38.0 245.0 40.8 243.6 L41.0 243.0 40.25 242.75 Q40.0 242.5 40.0 242.0 L39.0 241.9 32.0 241.0 31.8 241.6 Q26.15 244.0 24.0 241.0 30.5 241.1 30.5 239.0 L31.0 239.0 Q35.6 238.05 41.0 240.5 L41.0 240.0 40.8 239.4 Q39.3 238.7 40.0 236.0 39.5 236.0 39.4 235.8 34.0 223.0 30.0 209.0 L30.0 208.0 30.0 207.0 30.0 206.0 30.0 204.0 Q47.8 218.7 58.8 240.1 L59.0 241.0 Q62.95 235.95 63.95 228.0 L64.0 227.0 63.1 226.8 Q57.05 223.95 52.0 220.0 63.75 216.9 63.5 225.0 L64.0 225.0 Q65.5 224.0 65.9 222.0 L66.0 221.0 66.0 220.0 66.0 212.0 65.8 211.05 Q61.6 200.9 57.0 191.0 L56.75 190.25 Q55.05 188.45 55.0 185.0 L54.85 184.05 Q52.4 175.1 49.0 167.0 L48.1 166.8 Q45.55 165.45 44.0 163.0 L44.0 162.0 44.0 160.0 46.85 159.55 47.0 159.0 Q48.0 158.0 49.2 157.4 L50.0 156.95 Q50.4 146.55 40.0 141.0 39.5 141.0 39.4 140.8 37.35 137.15 38.0 131.0 42.55 124.05 49.2 129.75 L50.0 130.0 66.8 138.4 Q67.0 138.5 67.0 139.0 69.15 138.15 70.35 136.2 70.5 136.0 71.0 136.0 L71.0 135.0 Q76.75 133.75 80.75 130.7 L81.0 130.0 81.0 129.0 Q82.65 129.15 82.1 126.95 L82.0 126.0 81.45 125.85 77.0 113.0 77.0 112.0 76.5 111.95 Q76.0 107.5 76.0 103.0 L77.0 103.0 77.0 102.0 77.0 99.0 78.0 99.0 78.0 98.0 Q79.95 95.45 84.0 95.05 L85.0 95.0 Q93.5 100.2 96.45 91.15 96.5 91.0 97.0 91.0 98.55 89.05 101.95 89.5 L102.0 90.0 Q107.15 92.45 107.0 85.0 L107.0 84.0 106.5 83.9 Q106.0 81.5 106.0 79.0 111.0 78.5 111.5 73.05 L112.0 73.0 112.0 72.0 112.0 71.0 Q113.65 71.15 113.5 69.0 L114.0 69.0 114.0 68.0 Q116.3 66.3 117.45 63.15 117.5 63.0 118.0 63.0 L118.0 62.0 Q121.6 58.6 125.75 55.65 L126.0 55.0 Q126.75 33.25 131.45 15.1 L132.0 15.0 Q137.4 18.1 138.35 24.25 139.4 31.1 144.15 32.5 145.95 33.05 147.0 34.0 150.05 36.45 150.0 42.0 L150.0 43.0 Q155.45 46.1 156.5 35.05 L157.0 35.0 157.0 34.0 157.0 30.0 Q159.25 27.75 159.5 23.05 L160.0 23.0 160.0 22.0 160.0 19.0 Q163.7 15.85 166.8 22.1 L167.0 23.0 168.75 25.15 169.0 26.0 171.05 26.85 172.0 27.0 172.0 26.0 172.0 23.0 Q173.9 21.9 174.5 19.1 L175.0 19.0 175.0 18.0 176.75 16.75 177.0 16.0 177.0 15.0 Q185.65 10.25 187.9 21.0 L188.0 22.0 Q191.8 29.2 194.3 31.3 L196.0 31.0 196.0 30.0 Q197.7 28.2 198.45 25.1 L199.0 25.0 199.0 24.0 199.0 22.0 Q201.75 19.25 202.5 14.05 L203.0 14.0 203.0 13.0 203.0 11.0 Q206.45 6.95 209.35 2.2 L210.0 2.0 Q215.9 1.1 214.75 13.05 212.9 31.85 208.0 51.0 209.2 63.35 214.85 52.9 219.25 44.75 224.0 37.0 227.3 44.2 227.0 55.0 L227.0 56.0 238.95 57.5 239.0 58.0 239.5 58.05 Q240.6 68.1 235.0 72.0 237.4 80.1 248.0 80.25 251.75 80.25 253.0 83.0 265.75 84.25 271.75 92.2 L272.0 93.0 272.8 94.1 273.0 95.0 Q274.75 100.25 273.5 107.9 L273.0 108.0 273.0 109.0 Q274.75 112.75 273.5 118.9 L273.0 119.0 272.9 120.0 Q272.0 125.5 267.0 127.0 L267.0 134.0 267.0 135.0 267.05 136.0 Q267.75 141.25 266.0 144.0 L266.0 145.0 Q267.75 147.25 267.05 152.0 L267.0 153.0 Q270.25 154.25 271.45 157.85 L272.0 158.0 Q284.75 159.25 291.75 166.25 L292.0 167.0 Q292.65 178.15 291.05 192.0 L291.0 193.0 281.2 197.4 Q281.0 197.5 281.0 198.0 279.95 202.45 277.25 205.25 277.0 205.5 277.0 206.0 L277.0 233.0 277.0 234.0 Q283.45 244.05 285.9 258.0 L286.0 259.0 Q292.4 261.95 287.0 262.0 L286.0 262.0 285.95 262.5 Q280.55 263.05 278.0 266.0 L278.0 267.0 282.95 267.4 Q281.65 269.75 287.0 272.0 289.2 272.8 291.9 273.45 L292.0 274.0 Q296.9 275.1 301.05 276.8 L302.0 277.0 Q309.35 275.05 310.75 277.15 L311.0 278.0 Q313.75 277.8 315.1 277.95 L318.2 278.3 Q306.65 281.35 295.0 277.0 L294.0 277.0 290.0 277.0 Q292.45 281.0 297.9 282.45 L298.0 283.0 Q301.5 284.0 304.8 285.4 L305.0 286.0 310.05 286.85 311.0 287.0 Q318.45 288.55 324.1 291.8 L325.0 292.0 M329.1 302.5 L329.0 302.0 Q341.45 304.85 329.1 302.5 M28.0 285.0 Q41.25 285.5 28.0 285.5 L28.0 285.0 M52.0 292.5 L52.0 292.0 Q65.4 289.5 52.0 292.5 M256.15 275.55 Q256.0 275.5 256.0 275.0 264.35 278.85 256.15 275.55 M319.0 296.0 Q329.15 299.15 320.0 297.5 L320.0 298.0 319.75 298.75 Q317.65 301.1 316.0 299.0 318.2 298.7 318.5 296.05 L319.0 296.0 M238.25 315.7 Q238.0 315.5 238.0 315.0 247.75 323.7 238.25 315.7 M242.75 326.35 L243.0 327.0 Q237.9 325.1 232.15 323.55 232.0 323.5 232.0 323.0 238.65 323.35 242.75 326.35 M177.0 313.0 Q188.05 305.35 181.55 311.5 178.7 314.15 177.0 313.0 M305.0 298.0 Q309.65 293.0 305.0 299.3 304.4 300.15 305.0 298.0 M278.0 307.0 Q294.1 305.65 278.0 307.5 L278.0 307.0 M254.0 303.5 L254.0 303.0 Q265.1 301.35 254.0 303.5 M251.0 317.0 Q262.75 320.55 251.1 317.55 L251.0 317.0" fill="#ff0000" fill-opacity="0.98039216" fill-rule="evenodd" stroke="none"/>
  </g>
</svg>
