<?xml version="1.0" encoding="UTF-8" standalone="no"?>
<svg xmlns:xlink="http://www.w3.org/1999/xlink" height="167.5px" width="120.0px" xmlns="http://www.w3.org/2000/svg">
  <g transform="matrix(1.0, 0.0, 0.0, 1.0, 0.0, -2.5)">
    <path d="M89.0 48.0 Q91.75 49.25 93.75 51.25 L94.0 52.0 Q106.6 53.9 102.6 62.8 L102.0 63.0 101.75 63.75 101.0 64.0 Q111.7 71.8 118.4 83.8 L119.0 84.0 119.0 92.0 119.0 93.0 Q116.75 94.25 116.5 97.95 L116.0 98.0 Q114.85 107.75 115.0 114.0 L115.0 115.0 115.05 116.0 Q116.5 131.35 107.0 124.0 L106.0 124.0 105.0 124.0 Q106.6 130.9 110.75 135.25 L111.0 136.0 Q112.7 137.3 112.1 141.0 L112.0 142.0 112.7 141.75 Q118.7 134.55 120.0 145.0 L119.05 145.1 107.65 147.85 102.0 149.0 102.0 148.0 101.1 148.2 Q90.95 153.7 77.45 155.95 L77.0 156.0 76.05 155.85 Q69.4 153.6 61.0 153.0 L60.85 152.45 Q53.3 149.7 53.0 140.0 54.65 140.15 54.1 137.95 L54.0 137.0 53.2 136.75 Q46.1 131.4 41.0 124.0 L40.85 123.05 Q36.6 107.3 44.0 94.0 L43.2 94.25 Q36.4 99.7 30.0 98.0 L29.15 98.2 Q21.7 102.55 24.0 112.0 L24.0 112.5 Q13.15 107.35 7.0 97.0 6.5 97.0 6.4 96.8 4.0 92.5 0.0 90.0 L0.0 89.0 Q5.6 89.6 9.05 88.2 L10.0 88.0 27.05 84.1 28.0 84.0 28.0 83.0 Q37.0 80.5 45.05 77.2 L46.0 77.0 46.95 68.0 47.0 67.0 Q57.55 56.15 66.85 53.55 L67.0 53.0 Q59.3 50.65 63.75 43.85 L64.0 43.0 Q69.75 41.75 76.1 44.8 L77.0 45.0 77.5 45.0 Q64.0 37.0 56.0 23.0 L58.0 23.0 59.0 23.0 60.0 23.0 Q65.35 5.4 80.0 2.5 L80.0 3.0 80.5 3.0 Q79.65 17.65 67.0 26.0 67.65 32.35 72.85 34.45 L73.0 35.0 Q81.85 40.15 88.3 47.75 88.5 48.0 89.0 48.0 M25.0 132.0 Q39.05 124.5 39.95 138.0 L40.0 139.0 Q27.3 143.65 25.1 133.0 L25.0 132.0 M93.0 170.0 L92.0 170.0 86.0 170.0 85.9 169.5 Q81.3 168.7 81.0 164.0 99.15 155.3 93.2 169.1 L93.0 170.0" fill="#ff0000" fill-rule="evenodd" stroke="none"/>
  </g>
</svg>
