<?xml version="1.0" encoding="UTF-8" standalone="no"?>
<svg xmlns:xlink="http://www.w3.org/1999/xlink" height="83.0px" width="127.25px" xmlns="http://www.w3.org/2000/svg">
  <g transform="matrix(1.0, 0.0, 0.0, 1.0, -1.0, -1.0)">
    <path d="M126.25 47.75 L127.0 48.0 Q128.65 47.9 128.1 50.05 L128.0 51.0 127.8 51.6 Q127.0 52.0 126.0 52.0 L125.8 52.9 Q123.25 57.75 119.0 61.0 L118.0 61.0 117.85 61.55 Q113.75 62.7 112.0 61.0 L111.0 61.0 110.0 61.0 109.5 61.05 Q109.15 65.65 107.0 68.0 L106.05 68.15 Q105.0 68.5 104.0 69.0 L103.75 69.7 Q100.55 72.05 96.0 73.0 95.5 73.0 95.4 73.2 94.7 74.7 92.0 74.0 L91.95 74.5 Q88.0 75.0 86.0 73.0 L85.0 73.0 84.45 72.85 Q84.0 71.5 84.0 70.0 L83.1 69.8 82.0 69.0 82.05 70.0 Q82.75 74.75 81.0 77.0 L80.75 77.7 Q78.3 79.8 75.0 81.0 L74.0 81.0 73.0 81.0 72.9 81.5 Q67.25 82.75 64.0 81.0 L63.0 81.0 62.05 81.1 Q59.9 81.65 60.0 80.0 L59.0 80.0 58.15 79.75 Q56.45 78.55 56.0 76.0 L55.0 76.05 Q49.9 76.6 51.0 71.0 53.0 70.0 55.05 69.15 L56.0 69.0 56.0 68.0 57.1 67.2 58.0 67.0 58.0 66.0 Q58.0 65.5 57.8 65.4 L56.0 65.0 55.0 65.0 54.0 65.0 53.75 65.75 53.0 66.0 52.85 66.55 50.0 67.0 49.0 67.0 42.0 67.0 41.9 67.55 38.0 68.0 38.0 69.0 38.0 70.0 Q37.3 73.2 38.75 74.3 L39.0 75.0 40.0 75.0 Q43.7 74.8 42.55 78.85 L42.0 79.0 41.85 79.55 Q37.3 81.2 37.0 78.0 L37.0 77.0 37.0 75.0 Q36.5 75.0 36.4 74.8 36.0 74.0 36.0 73.0 L35.1 72.8 Q33.5 72.0 32.0 71.0 L31.0 71.0 27.0 71.0 26.85 71.95 Q26.2 73.7 24.0 74.0 L23.0 74.05 Q19.75 74.25 20.0 71.0 L21.0 71.0 21.0 70.0 21.0 69.0 26.0 69.0 27.0 69.0 27.75 68.75 28.0 68.0 28.1 67.0 Q28.65 64.35 26.0 65.0 L25.0 65.0 24.85 65.95 Q23.8 69.25 22.0 67.0 L21.0 66.95 Q19.3 66.7 19.0 65.0 L18.25 64.75 15.0 61.0 14.9 60.45 Q11.8 59.7 10.0 58.0 L9.5 57.95 Q8.9 54.1 5.0 54.0 L4.0 54.1 Q1.3 54.7 1.0 53.0 L1.0 52.0 1.0 50.0 2.0 50.0 2.0 49.0 3.75 47.75 4.0 47.0 4.0 46.0 5.75 44.75 6.0 44.0 6.0 43.0 Q7.5 42.0 8.4 40.2 8.5 40.0 9.0 40.0 L8.85 39.05 Q8.2 36.8 8.0 34.0 L7.75 33.15 Q7.05 31.95 7.0 30.0 L6.0 30.0 4.0 30.0 Q3.5 30.0 3.3 29.75 0.75 26.75 1.0 21.0 L1.0 20.0 1.0 19.0 2.0 19.0 2.0 18.0 Q6.85 14.8 12.0 15.9 L13.0 16.0 13.0 15.0 Q13.5 14.5 14.1 14.2 L15.0 14.0 15.0 13.0 Q18.9 12.1 18.5 16.0 L19.0 16.0 20.0 16.0 20.0 15.0 22.85 15.45 23.0 16.0 Q23.5 16.0 23.6 16.2 27.5 23.4 22.0 26.0 21.85 30.15 22.85 33.05 L23.0 34.0 23.0 35.0 23.0 36.0 24.0 36.0 25.0 36.0 25.0 35.0 25.0 34.0 Q26.7 33.7 26.5 31.0 L27.0 31.0 27.0 30.0 27.0 29.0 27.0 28.0 Q28.65 28.15 28.5 26.0 L29.0 26.0 29.0 25.0 Q30.7 24.7 31.4 23.2 L32.0 23.0 32.0 22.0 Q33.5 21.0 34.4 19.2 L35.0 19.0 36.0 19.0 36.0 18.0 36.0 17.0 36.0 16.0 Q37.7 15.7 37.5 13.0 L38.0 13.0 38.0 12.0 Q43.3 11.3 45.4 7.2 45.5 7.0 46.0 7.0 L46.0 6.0 Q47.05 5.05 49.0 5.0 L50.0 5.0 50.0 4.0 Q54.0 2.9 58.05 3.9 L59.0 4.0 Q59.5 3.5 60.1 3.2 L61.0 3.0 Q61.5 2.5 62.1 2.2 L63.0 2.0 63.0 1.0 64.0 1.0 66.0 1.0 67.0 1.0 Q68.7 1.3 69.4 2.8 69.5 3.0 70.0 3.0 L73.9 3.45 74.0 4.0 75.0 4.0 76.0 4.0 Q77.95 4.05 78.75 5.15 L79.0 6.0 Q83.75 9.25 87.75 13.25 L88.0 14.0 88.0 15.0 88.0 16.0 Q89.65 15.9 89.1 18.05 L89.0 19.0 90.0 19.0 Q93.7 19.7 95.25 18.25 95.5 18.0 96.0 18.0 L97.0 18.0 97.0 17.0 98.0 17.0 98.0 16.0 98.0 15.0 99.0 15.0 99.0 14.0 99.0 13.0 99.75 12.75 100.0 12.0 100.0 11.0 100.0 10.0 Q101.7 9.7 102.4 8.2 102.5 8.0 103.0 8.0 L103.0 7.0 106.9 7.45 107.0 8.0 Q109.15 7.4 109.5 8.9 L110.0 9.0 111.0 9.0 112.0 9.0 Q115.6 11.05 112.7 14.75 L112.0 15.0 111.75 15.75 108.0 19.0 107.1 19.2 106.0 20.0 105.85 20.55 Q103.05 21.55 101.0 23.0 L100.75 23.75 100.0 24.0 Q99.4 26.15 100.9 26.45 L101.0 27.0 103.75 29.25 104.0 30.0 105.0 30.0 Q111.65 32.35 116.75 36.3 L117.0 37.0 120.75 39.3 121.0 40.0 Q124.2 42.3 125.8 46.1 L126.0 47.0 126.25 47.75 M19.0 30.0 L18.05 30.1 Q15.9 30.65 16.0 29.0 L15.0 29.0 13.0 29.0 12.75 29.75 11.0 31.0 11.0 32.0 Q11.95 33.05 12.0 35.0 L12.0 36.0 19.0 36.9 20.0 37.0 19.75 36.15 Q18.8 34.7 19.0 32.0 L19.0 31.0 19.0 30.0 M82.0 24.0 L81.1 23.8 80.0 23.0 79.0 23.0 78.0 23.0 77.0 23.0 70.0 23.0 69.0 23.0 68.85 23.55 Q57.8 27.3 52.0 36.0 L51.75 36.8 48.0 41.0 48.0 42.0 48.0 43.0 48.0 44.0 48.0 45.0 Q51.0 46.0 53.8 47.4 L54.0 48.0 Q55.95 48.05 57.15 48.75 L58.0 49.0 58.0 48.0 Q59.7 47.7 59.5 45.0 L60.0 45.0 60.0 44.0 61.1 43.2 62.0 43.0 Q64.5 41.05 67.15 42.75 L68.0 43.0 69.0 43.0 70.0 43.0 69.75 42.3 Q68.3 41.2 69.0 38.0 L70.0 38.0 70.0 37.0 Q71.45 35.45 74.0 35.05 L75.0 35.0 75.0 34.0 Q77.15 34.65 77.5 33.1 L78.0 33.0 79.0 33.0 80.0 33.0 80.0 32.0 85.0 32.0 86.0 32.0 87.0 32.0 86.9 31.0 86.0 27.0 85.25 26.75 Q85.0 26.5 85.0 26.0 L84.15 25.75 Q83.0 25.0 82.0 24.0 M51.0 83.0 L51.0 84.0 50.0 84.0 47.0 84.0 47.0 83.0 47.0 81.0 48.0 81.0 Q50.7 80.3 50.95 82.0 L51.0 83.0" fill="#ff0000" fill-rule="evenodd" stroke="none"/>
  </g>
</svg>
