<?xml version="1.0" encoding="UTF-8" standalone="no"?>
<svg xmlns:xlink="http://www.w3.org/1999/xlink" height="100.15px" width="105.0px" xmlns="http://www.w3.org/2000/svg">
  <g transform="matrix(1.0, 0.0, 0.0, 1.0, 0.0, -1.0)">
    <path d="M102.0 17.0 Q104.65 16.35 104.1 19.0 L104.0 20.0 103.0 20.0 102.0 20.0 101.75 20.75 98.0 24.0 97.8 24.9 91.0 37.0 91.0 38.0 91.0 39.0 92.0 39.0 92.0 38.0 Q94.5 40.5 97.8 42.4 L98.0 43.0 Q100.7 42.3 101.4 43.8 101.5 44.0 102.0 44.0 L102.0 43.0 104.0 43.0 105.0 43.0 105.0 53.0 105.0 54.0 105.0 55.0 105.0 56.0 104.0 56.0 103.85 56.55 Q101.05 57.55 99.0 59.0 L98.0 59.0 98.0 74.0 98.0 75.0 98.05 76.0 Q98.75 81.75 97.0 85.0 96.5 85.0 96.15 85.25 92.95 87.45 89.0 89.0 L88.1 89.2 87.0 90.0 86.0 90.0 85.8 90.6 Q83.0 92.0 80.0 93.0 L79.85 93.55 Q77.05 94.55 75.0 96.0 L74.0 96.0 73.85 96.55 Q71.05 97.55 69.0 99.0 L68.0 99.0 67.9 99.5 Q64.25 100.2 63.0 98.0 L62.0 98.0 61.25 97.75 Q60.0 96.5 58.0 96.0 L57.5 96.1 Q57.15 97.65 55.0 97.0 L54.95 97.5 Q51.45 97.95 49.0 99.0 L48.0 99.0 47.0 99.0 46.9 99.5 41.0 100.0 40.0 100.0 38.0 100.0 37.9 100.55 Q33.25 101.75 31.0 100.0 L30.0 100.0 29.0 100.05 Q26.3 100.2 25.0 99.0 L24.0 99.0 22.0 99.0 Q21.5 99.0 21.4 99.2 20.25 101.75 16.0 101.0 L15.25 100.75 15.0 100.0 14.0 100.0 Q11.1 99.9 10.0 98.0 L9.05 97.85 7.0 97.0 6.15 96.75 4.0 95.0 3.05 94.85 Q0.5 94.0 1.0 90.0 L2.0 90.0 3.0 90.0 4.0 90.0 3.85 89.05 3.0 87.0 3.0 86.0 2.5 85.95 Q2.0 80.5 2.0 75.0 L2.0 74.0 2.0 64.0 2.0 63.0 2.0 62.0 2.0 61.0 1.25 60.75 Q1.0 60.5 1.0 60.0 L0.0 60.0 0.0 59.0 0.0 54.0 1.0 54.0 1.0 53.0 Q2.7 52.7 2.1 50.0 L2.0 49.0 2.0 48.0 Q3.65 48.15 3.1 45.95 L3.0 45.0 3.0 44.0 3.0 41.0 4.0 41.0 5.0 41.0 5.0 40.0 Q7.15 40.65 7.45 39.1 L8.0 39.0 8.0 38.0 9.1 37.2 10.0 37.0 10.0 36.0 10.0 35.0 10.0 34.0 10.0 33.0 11.0 33.0 11.0 32.0 Q13.0 31.5 14.25 30.25 14.5 30.0 15.0 30.0 L15.0 29.0 31.15 19.25 32.0 19.0 32.0 18.0 32.0 17.0 Q33.7 15.2 33.95 12.0 L34.0 11.0 34.0 10.0 36.4 5.2 Q36.5 5.0 37.0 5.0 L37.0 4.0 42.0 4.0 43.0 4.0 43.0 3.0 44.75 1.75 45.0 1.0 Q46.65 0.85 46.1 3.05 L46.0 4.0 Q47.45 6.55 50.85 7.45 L51.0 8.0 Q52.65 7.9 52.5 10.0 L53.0 10.0 53.0 9.0 56.75 5.75 57.0 5.0 57.0 4.0 Q58.75 1.75 62.9 2.5 L63.0 3.0 64.0 3.0 Q65.3 4.2 67.95 4.5 L68.0 5.0 70.85 5.45 71.0 6.0 Q72.95 6.05 74.15 6.75 L75.0 7.0 Q76.3 8.2 78.95 8.5 L79.0 9.0 80.0 9.0 Q82.0 9.5 83.8 10.4 L84.0 11.0 Q86.7 10.3 87.4 11.8 87.5 12.0 88.0 12.0 90.95 12.55 93.1 13.8 L94.0 14.0 97.9 14.45 98.0 15.0 Q100.0 15.5 101.8 16.4 L102.0 17.0 M88.0 27.0 L87.05 26.85 Q83.2 25.8 80.0 24.0 L79.05 23.9 Q76.65 23.35 75.0 22.0 L74.0 21.95 Q70.8 21.7 69.0 20.0 L68.1 19.8 Q65.35 18.65 62.0 18.0 L61.0 18.1 Q58.3 18.7 58.0 17.0 L57.1 16.8 Q54.95 15.55 51.0 16.0 50.3 18.7 51.8 19.4 52.0 19.5 52.0 20.0 L51.0 20.0 50.0 20.0 50.0 21.0 58.1 24.8 59.0 25.0 59.0 24.0 59.0 23.0 60.0 23.0 61.0 23.0 61.8 24.1 62.0 25.0 Q65.8 25.2 67.75 27.25 L68.0 28.0 67.1 27.8 Q64.95 26.55 62.0 26.0 63.4 29.1 67.95 28.5 L68.0 28.0 70.0 28.0 71.0 28.0 72.0 28.0 Q73.45 30.0 75.8 31.35 76.0 31.5 76.0 32.0 78.7 31.8 80.15 32.75 L81.0 33.0 82.0 33.0 82.8 34.1 83.0 35.0 84.0 35.0 85.0 35.0 85.0 34.0 85.0 33.0 86.75 30.85 87.0 30.0 87.0 29.0 88.0 29.0 88.0 28.0 88.0 27.0 M86.0 21.0 L85.0 21.0 81.0 21.0 Q84.3 22.7 88.05 23.85 L89.0 24.0 Q91.15 24.65 91.5 23.1 L92.0 23.0 92.0 22.0 93.0 22.0 92.95 21.5 86.0 21.0 M88.0 15.0 L87.05 14.9 Q84.65 14.35 83.0 13.0 L82.05 12.9 Q79.65 12.35 78.0 11.0 L77.0 10.95 Q72.6 10.4 70.0 8.0 L69.0 8.1 Q65.8 8.7 65.0 7.0 L64.0 7.0 63.0 7.0 62.5 7.05 Q62.2 9.7 60.0 10.0 L59.75 10.75 58.0 12.0 58.8 13.1 59.0 14.0 60.0 14.0 Q63.2 14.3 65.2 15.75 L66.0 16.0 Q67.3 17.2 69.95 17.5 L70.0 18.0 71.0 18.0 72.0 18.0 81.0 18.0 82.0 18.0 83.0 18.0 84.0 18.0 89.0 18.0 90.0 18.0 91.0 18.0 93.0 18.0 94.0 18.0 94.0 17.0 93.0 17.0 92.5 16.9 Q92.15 15.4 90.0 16.0 L89.25 15.75 Q89.0 15.5 89.0 15.0 L88.0 15.0 M97.15 42.75 Q95.7 41.8 93.0 42.0 L93.0 43.0 Q96.0 44.0 98.8 45.4 L99.0 46.0 100.0 46.0 101.0 46.0 100.8 45.4 Q99.0 44.5 98.0 43.0 L97.15 42.75 M95.0 47.0 L95.95 46.85 Q98.75 45.95 93.0 44.0 92.35 46.65 95.0 46.5 L95.0 47.0 M50.0 24.0 Q52.95 25.05 55.2 26.75 L56.0 27.0 Q56.5 27.0 56.75 27.25 L57.0 28.0 58.0 28.0 57.75 27.25 Q54.85 24.15 50.0 23.0 L50.0 24.0 M79.0 37.0 L78.2 36.75 Q75.85 34.65 72.0 34.0 74.25 37.25 79.0 37.5 L79.0 37.0 M58.0 23.0 L57.05 22.85 Q54.05 21.95 52.0 20.0 55.8 20.2 57.75 22.25 L58.0 23.0 M61.0 29.0 Q62.0 30.0 63.15 30.75 L64.0 31.0 64.75 31.25 65.0 32.0 Q66.95 32.05 68.15 32.75 L69.0 33.0 69.0 32.0 68.15 31.75 Q64.95 29.55 61.0 28.0 L61.0 29.0" fill="#ff0000" fill-rule="evenodd" stroke="none"/>
  </g>
</svg>
