<?xml version="1.0" encoding="UTF-8" standalone="no"?>
<svg xmlns:xlink="http://www.w3.org/1999/xlink" height="124.0px" width="232.0px" xmlns="http://www.w3.org/2000/svg">
  <g transform="matrix(1.0, 0.0, 0.0, 1.0, 8.0, 0.0)">
    <path d="M224.0 67.0 L104.0 124.0 -8.0 65.0 110.0 6.0 224.0 67.0" fill="#ff0000" fill-opacity="0.0" fill-rule="evenodd" stroke="none"/>
    <path d="M205.0 7.0 L208.0 7.0 209.0 7.0 Q210.75 9.75 210.05 15.0 L210.0 16.0 Q213.1 15.9 212.1 20.05 L212.0 21.0 212.0 22.0 212.0 23.0 Q212.5 23.0 212.75 23.25 L213.0 24.0 214.0 24.0 215.75 25.25 216.0 26.0 216.05 27.0 Q216.75 35.25 215.0 41.0 L215.1 42.0 Q217.3 53.8 211.0 57.0 L211.0 58.0 211.0 59.0 Q213.15 58.4 213.5 59.9 L214.0 60.0 216.75 62.25 217.0 63.0 216.8 63.9 Q216.0 65.5 214.0 66.0 L213.2 66.25 Q209.45 69.45 204.0 71.0 L204.1 72.0 Q205.85 82.9 201.0 74.0 194.7 75.2 194.05 81.1 193.7 84.2 193.45 83.85 190.1 79.6 188.0 79.0 L187.05 79.15 Q183.4 80.4 182.0 84.0 L181.0 84.0 Q176.45 83.95 174.0 86.0 L173.1 86.2 172.0 87.0 171.1 87.2 170.0 88.0 170.05 89.0 Q170.6 95.55 169.0 95.0 L168.0 95.0 167.45 94.9 Q167.0 93.0 167.0 91.0 L166.1 91.2 Q163.95 92.45 161.0 93.0 L160.85 93.55 Q159.05 94.05 158.0 95.0 L157.95 96.0 Q156.7 105.35 156.0 95.0 L155.0 95.0 154.0 95.0 153.85 95.55 Q152.05 96.05 151.0 97.0 150.5 97.0 150.3 97.25 148.9 98.9 146.0 99.0 L145.8 99.6 Q140.0 102.5 134.0 105.0 L133.75 105.75 133.0 106.0 133.0 107.0 Q134.7 108.75 133.55 112.85 L133.0 113.0 133.0 113.5 Q130.25 113.25 131.0 109.0 L130.05 109.15 Q126.0 110.5 122.0 112.0 L122.0 113.0 122.0 115.0 122.0 116.0 122.1 116.95 Q122.65 119.15 121.0 119.0 L120.0 119.0 119.5 118.9 Q119.0 116.0 119.0 113.0 118.5 113.0 118.25 113.25 117.0 114.5 115.0 115.0 L114.5 115.1 Q114.15 116.65 112.0 116.0 112.0 116.5 111.8 116.6 111.0 117.0 110.0 117.0 L109.0 116.95 Q102.3 116.2 98.0 113.0 L97.0 113.0 97.1 114.0 Q97.7 117.7 96.0 119.0 L96.0 120.0 95.0 120.0 94.0 120.0 94.0 119.0 94.0 113.0 94.0 112.5 Q91.9 112.65 92.0 111.0 L91.0 111.0 Q88.1 110.9 87.0 109.0 L86.0 109.0 86.1 110.0 Q86.7 112.7 85.0 113.0 L84.05 113.1 Q82.45 113.55 83.0 107.0 L83.75 106.75 84.0 106.0 83.25 105.75 Q83.0 105.5 83.0 105.0 L82.0 104.9 Q80.0 104.5 79.0 103.0 L78.1 102.8 Q73.9 100.6 69.0 99.0 L68.5 99.05 Q67.35 109.35 67.0 98.0 L68.0 98.0 68.0 97.0 Q74.9 99.1 80.8 102.4 L81.0 103.0 Q83.15 102.4 83.5 103.9 L84.0 104.0 84.75 104.25 85.0 105.0 Q87.15 104.4 87.5 105.9 L88.0 106.0 88.75 106.25 89.0 107.0 Q91.15 106.4 91.5 107.9 L92.0 108.0 Q92.5 108.0 92.75 108.25 L93.0 109.0 94.8 109.4 95.0 110.0 Q100.9 112.1 106.1 114.8 L107.0 115.0 111.0 115.0 112.0 115.0 112.0 114.0 113.0 114.0 114.0 114.0 114.0 113.0 Q116.9 112.9 118.3 111.25 118.5 111.0 119.0 111.0 126.0 107.5 133.1 104.2 L134.0 104.0 134.0 103.0 Q138.9 101.4 143.1 99.2 L144.0 99.0 144.0 98.0 Q147.8 97.8 150.15 96.25 L151.0 96.0 151.0 95.0 152.0 95.0 153.0 95.0 153.0 94.0 Q160.9 90.9 168.1 87.2 L169.0 87.0 169.0 86.0 170.0 86.0 171.0 86.0 171.0 85.0 172.0 85.0 173.0 85.0 173.0 84.0 Q176.85 83.35 179.2 81.25 L180.0 81.0 180.0 80.0 180.0 79.0 180.0 78.0 Q179.95 76.05 179.0 75.0 L179.0 74.0 179.0 69.0 178.0 69.0 174.0 69.0 173.95 70.0 Q173.35 78.75 173.0 69.0 L172.0 69.0 170.0 69.0 169.0 69.0 162.0 69.0 161.0 69.0 160.0 69.0 160.05 70.0 Q160.45 75.4 159.0 74.0 L158.5 73.9 Q158.0 71.5 158.0 69.0 L159.0 69.0 159.0 68.0 159.0 67.0 159.0 66.0 159.0 63.0 159.0 62.0 159.0 61.0 160.0 61.0 163.0 61.0 164.0 61.0 165.0 61.0 165.0 60.0 165.0 57.0 Q165.0 56.5 164.8 56.35 158.45 52.55 161.0 40.0 L161.0 39.0 161.0 38.0 161.0 35.0 160.0 35.0 160.1 36.0 Q161.2 40.7 158.0 41.0 L157.5 40.95 Q157.0 37.5 157.0 34.0 L156.1 33.8 Q155.5 33.5 155.0 33.0 L154.05 32.85 152.0 32.0 151.25 31.75 Q151.0 31.5 151.0 31.0 L150.5 30.9 Q150.15 29.4 148.0 30.0 L147.9 31.0 Q146.15 38.8 146.0 28.0 L145.85 27.45 Q137.1 23.9 129.0 20.0 L128.9 21.0 Q127.2 30.2 127.0 19.0 L126.05 18.85 124.0 18.0 123.25 17.75 123.0 17.0 122.05 16.85 120.0 16.0 119.1 15.8 118.0 15.0 118.1 16.0 Q118.7 18.7 117.0 19.0 L117.0 19.5 Q113.65 18.35 115.0 12.0 L114.1 11.8 Q111.75 10.75 109.0 10.0 108.5 10.0 108.4 10.2 107.7 11.7 105.0 11.0 L104.8 11.6 Q99.0 14.5 93.0 17.0 L92.75 17.75 92.0 18.0 92.0 19.0 92.0 20.0 Q91.55 30.05 90.0 21.0 L89.15 21.25 Q86.8 22.8 83.0 23.0 L82.8 23.6 Q82.0 24.0 81.0 24.0 L81.0 25.0 81.1 26.0 Q81.7 29.7 80.0 31.0 L79.0 31.0 78.5 30.9 Q78.0 28.0 78.0 25.0 77.5 25.0 77.25 25.25 76.0 26.5 74.0 27.0 L73.1 27.2 72.0 28.0 71.5 28.1 Q71.15 29.65 69.0 29.0 L68.75 29.75 68.0 30.0 67.5 30.1 Q67.15 31.65 65.0 31.0 L64.75 31.75 64.0 32.0 63.5 32.1 Q63.15 33.65 61.0 33.0 L61.0 34.0 Q62.75 36.25 61.55 40.9 L61.0 41.0 60.5 40.9 Q59.75 37.25 57.0 36.0 L56.8 36.6 Q56.0 37.0 55.0 37.0 55.0 37.5 54.8 37.6 53.0 38.5 51.0 39.0 L50.75 39.75 50.0 40.0 50.0 43.0 50.0 44.0 50.0 45.0 Q49.95 48.3 49.0 46.0 L48.0 46.0 47.5 45.9 Q47.0 43.0 47.0 40.0 46.5 40.0 46.2 40.25 42.85 42.85 38.0 44.0 L37.8 44.6 Q32.0 47.5 26.0 50.0 L25.75 50.75 25.0 51.0 25.0 52.0 25.05 53.0 Q25.85 59.8 23.0 58.0 L22.45 57.9 Q22.0 56.0 22.0 54.0 L21.0 54.0 20.75 54.75 20.0 55.0 19.4 55.2 Q18.7 56.7 16.0 56.0 16.0 56.5 15.8 56.6 15.0 57.0 14.0 57.0 L14.0 60.0 14.0 61.0 14.0 62.0 Q14.2 66.6 12.0 64.0 L11.5 63.9 Q11.0 61.0 11.0 58.0 L10.0 58.0 9.85 58.55 Q8.05 59.05 7.0 60.0 6.5 60.0 6.3 60.25 4.9 61.9 2.0 62.0 L2.8 63.1 3.0 64.0 Q5.1 63.4 5.45 64.9 L6.0 65.0 6.75 65.25 7.0 66.0 Q10.85 66.65 13.2 68.75 L14.0 69.0 Q14.5 69.0 14.75 69.25 L15.0 70.0 Q17.15 69.4 17.45 70.9 L18.0 71.0 18.75 71.25 19.0 72.0 Q21.15 71.4 21.45 72.9 L22.0 73.0 22.75 73.25 23.0 74.0 Q25.15 73.4 25.45 74.9 L26.0 75.0 Q30.0 77.0 33.8 79.35 34.0 79.5 34.0 80.0 L35.0 80.0 Q36.65 79.9 36.1 82.05 L36.0 83.0 36.5 83.0 Q36.0 93.7 35.0 83.0 L35.0 82.0 34.25 81.75 33.0 80.0 32.1 79.8 Q28.95 78.05 25.0 77.0 L25.0 80.0 25.0 81.0 24.8 81.65 Q20.7 84.05 22.0 76.0 L21.1 75.8 20.0 75.0 19.0 75.0 18.15 74.75 16.0 73.0 15.0 73.0 14.25 72.75 Q14.0 72.5 14.0 72.0 L13.0 72.0 13.0 75.0 13.0 76.0 12.95 76.5 Q8.4 77.1 10.0 71.0 L11.0 71.0 11.0 70.0 10.9 69.5 Q8.1 68.9 7.0 67.0 L6.1 66.8 Q5.5 66.5 5.0 66.0 L4.05 65.85 Q3.0 65.5 2.0 65.0 L1.5 65.0 Q1.65 62.9 0.0 63.0 L0.0 62.0 Q2.25 60.25 5.05 59.15 L6.0 59.0 6.0 58.0 Q8.15 58.65 8.45 57.1 L9.0 57.0 10.0 57.0 10.0 56.0 Q17.9 52.9 25.1 49.2 L26.0 49.0 26.0 48.0 Q30.9 46.4 35.1 44.2 L36.0 44.0 36.0 43.0 Q42.8 41.3 48.15 38.2 L49.0 38.0 49.0 37.0 Q54.9 34.9 60.1 32.2 L61.0 32.0 61.0 31.0 62.0 31.0 63.0 31.0 63.0 30.0 64.0 30.0 65.0 30.0 65.0 29.0 66.0 29.0 67.0 29.0 67.0 28.0 68.0 28.0 69.0 28.0 69.0 27.0 70.0 27.0 71.0 27.0 71.0 26.0 72.0 26.0 73.0 26.0 73.0 25.0 Q74.95 24.95 76.15 24.25 76.5 24.0 77.0 24.0 L77.0 23.0 Q83.9 20.4 90.1 17.2 L91.0 17.0 91.0 16.0 Q97.9 13.4 104.1 10.2 L105.0 10.0 Q106.05 9.05 108.0 9.0 L109.0 9.0 Q113.7 9.35 116.75 11.35 L117.0 12.0 118.8 12.4 119.0 13.0 120.8 13.4 Q121.0 13.5 121.0 14.0 123.0 14.5 124.8 15.4 L125.0 16.0 126.8 16.4 Q127.0 16.5 127.0 17.0 129.15 16.4 129.5 17.9 L130.0 18.0 Q138.9 22.1 147.1 26.8 L148.0 27.0 148.75 27.25 149.0 28.0 Q151.15 27.4 151.5 28.9 L152.0 29.0 Q152.5 29.0 152.75 29.25 L153.0 30.0 Q155.15 29.4 155.5 30.9 L156.0 31.0 156.75 31.25 157.0 32.0 Q159.15 31.4 159.5 32.9 L160.0 33.0 Q161.7 31.2 161.05 27.0 L161.0 26.0 161.0 25.0 Q161.5 24.5 162.1 24.2 L163.0 24.0 Q163.5 23.5 164.1 23.2 L165.0 23.0 165.0 22.0 165.0 16.0 166.0 16.0 167.0 16.0 167.0 15.0 167.0 14.0 167.0 13.0 167.0 7.0 178.0 7.0 179.0 7.0 180.0 7.0 180.0 6.0 180.0 1.0 180.0 0.0 184.0 0.0 185.0 0.0 186.0 0.0 187.0 0.0 188.0 0.0 189.0 0.0 196.0 0.0 197.0 0.0 197.0 1.0 197.0 6.0 197.0 7.0 204.0 7.0 205.0 7.0 M165.0 67.0 L165.0 66.0 165.0 63.0 164.0 63.0 160.0 63.0 160.0 66.0 160.0 67.0 164.0 67.0 165.0 67.0 M202.0 69.0 L201.0 69.0 198.0 69.0 Q198.0 73.65 202.2 70.25 202.5 70.0 203.0 70.0 L202.75 69.25 202.0 69.0" fill="#ff0000" fill-rule="evenodd" stroke="none"/>
  </g>
</svg>
