<?xml version="1.0" encoding="UTF-8" standalone="no"?>
<svg xmlns:xlink="http://www.w3.org/1999/xlink" height="118.0px" width="232.0px" xmlns="http://www.w3.org/2000/svg">
  <g transform="matrix(1.0, 0.0, 0.0, 1.0, 8.0, 0.0)">
    <path d="M224.0 61.0 L104.0 118.0 -8.0 59.0 110.0 0.0 224.0 61.0" fill="#ff0000" fill-opacity="0.0" fill-rule="evenodd" stroke="none"/>
    <path d="M212.0 36.0 Q213.75 43.25 213.05 53.0 L213.0 54.0 214.0 54.0 214.0 53.0 Q220.8 50.2 214.8 54.75 L214.0 55.0 213.75 55.75 213.0 56.0 213.1 57.0 Q213.7 59.7 212.0 60.0 L211.9 60.55 208.0 61.0 207.0 61.0 202.0 61.0 201.0 61.0 199.0 61.0 199.0 62.0 Q199.0 63.0 199.4 63.8 L200.0 64.0 Q201.65 62.65 204.9 63.45 L205.0 64.0 Q206.7 65.3 206.1 69.0 L206.0 70.0 205.95 70.5 Q202.0 71.0 203.0 66.0 L202.0 66.0 201.0 66.0 200.8 66.6 Q198.0 68.0 195.0 69.0 L194.75 69.75 194.0 70.0 194.0 71.0 194.05 72.0 Q194.9 77.95 192.0 76.0 L191.5 75.95 Q191.0 72.5 191.0 69.0 L192.0 69.0 191.95 68.5 183.0 68.0 183.0 69.0 Q184.75 71.25 183.55 75.9 L183.0 76.0 182.2 75.75 Q180.25 74.2 181.0 70.0 L181.0 69.0 181.0 68.0 Q180.5 68.0 180.4 68.2 179.7 69.7 177.0 69.0 L176.85 69.55 174.0 70.0 173.75 70.75 173.0 71.0 172.2 71.25 Q169.3 73.45 169.0 70.0 L171.0 70.0 172.0 70.0 172.0 69.0 173.0 69.0 174.0 69.0 Q175.0 68.5 176.05 68.15 L177.0 68.0 Q178.05 67.05 179.85 66.55 L180.0 66.0 180.0 65.0 180.0 64.0 180.0 63.0 180.0 61.0 179.0 61.0 175.0 61.0 174.95 62.0 Q174.35 70.75 174.0 61.0 L173.0 61.0 170.0 61.0 Q162.15 59.15 160.95 64.0 159.75 68.95 160.0 59.0 L160.0 58.0 160.0 54.0 160.0 53.0 160.0 52.0 165.0 52.0 166.0 52.0 166.0 51.0 166.0 45.0 166.0 44.0 166.0 43.0 166.0 41.0 166.0 40.0 166.0 37.0 166.0 36.0 172.0 36.0 173.0 36.0 173.0 35.0 173.0 34.0 Q173.5 33.5 174.1 33.2 L175.0 33.0 Q177.7 32.3 178.4 33.8 L179.0 34.0 179.75 33.75 180.0 33.0 180.0 32.0 180.0 29.0 181.0 29.0 183.0 29.0 184.0 29.0 185.0 29.0 186.0 29.0 187.0 29.0 188.0 29.0 192.0 29.0 193.0 29.0 Q197.2 28.25 198.75 30.2 L199.0 31.0 199.0 35.0 199.0 36.0 211.0 36.0 212.0 36.0 M151.0 23.0 L150.5 23.0 Q150.7 26.2 149.0 27.0 L148.0 27.0 147.0 27.0 146.5 26.95 Q146.0 23.5 146.0 20.0 L147.0 20.0 Q152.9 19.2 158.2 23.75 L159.0 24.0 160.75 25.25 161.0 26.0 161.0 31.0 161.0 32.0 160.8 32.6 Q158.3 33.7 158.0 32.0 L158.0 31.0 158.0 27.0 158.0 26.0 157.1 25.8 151.0 23.0 M171.0 81.0 L171.0 82.0 Q170.5 92.2 167.0 83.0 L166.85 83.55 Q163.05 85.05 160.0 87.0 L160.0 89.0 160.0 90.0 160.1 90.95 Q160.65 93.15 159.0 93.0 L158.1 92.8 Q157.5 92.5 157.0 92.0 L156.45 91.85 Q156.0 90.5 156.0 89.0 L157.0 89.0 157.0 88.0 157.0 87.0 157.0 86.0 157.0 85.0 158.0 85.0 159.0 85.0 159.0 84.0 Q164.25 81.25 171.0 80.5 L171.0 81.0 M166.0 58.0 L166.0 55.0 165.0 55.0 161.0 55.0 161.0 58.0 161.0 59.0 162.0 59.0 163.0 59.0 165.0 59.0 166.0 59.0 166.0 58.0 M129.75 9.25 L130.0 10.0 Q131.75 12.75 130.55 17.9 L130.0 18.0 129.0 17.9 Q127.0 17.5 126.0 16.0 L125.05 15.85 123.0 15.0 122.25 14.75 Q122.0 14.5 122.0 14.0 L121.05 13.85 117.0 12.0 116.2 11.75 112.0 8.0 111.25 7.75 111.0 7.0 Q110.5 7.0 110.35 6.8 109.0 4.5 108.0 2.0 L107.0 2.0 102.0 2.0 101.0 2.0 92.0 2.0 91.15 2.25 Q89.95 2.95 88.0 3.0 88.0 3.5 87.8 3.6 87.0 4.0 86.0 4.0 L85.8 4.6 Q83.0 6.0 80.0 7.0 79.5 7.0 79.35 7.25 78.0 9.35 77.0 7.0 78.0 6.5 79.05 6.15 L80.0 6.0 80.0 5.0 Q81.95 4.95 83.15 4.25 L84.0 4.0 84.0 3.0 Q85.95 2.95 87.15 2.25 87.5 2.0 88.0 2.0 L88.0 1.0 Q89.0 1.0 89.8 0.6 L90.0 0.0 91.0 0.0 92.0 0.0 97.0 0.0 98.0 0.0 101.0 0.0 102.0 0.0 107.0 0.0 108.0 0.0 108.0 1.0 Q109.8 2.2 110.8 4.1 L111.0 5.0 112.75 7.15 113.0 8.0 Q116.65 10.7 116.5 5.0 L117.0 5.0 117.0 4.0 Q123.75 5.25 128.2 8.75 L129.0 9.0 129.75 9.25 M136.0 46.0 L141.9 46.5 142.0 47.0 145.0 47.0 146.0 47.0 Q147.7 47.8 147.1 51.0 L147.0 52.0 Q152.1 52.9 151.05 60.0 L151.0 61.0 151.1 61.95 Q151.65 64.15 150.0 64.0 L150.0 65.0 149.75 65.75 149.0 66.0 149.0 67.0 148.75 67.75 148.0 68.0 147.85 68.95 Q145.0 78.55 137.0 75.0 L137.0 81.0 137.0 82.0 137.0 83.0 137.0 84.0 137.1 84.95 Q137.65 87.15 136.0 87.0 L135.95 87.5 129.0 88.0 128.0 88.1 Q124.3 88.7 123.0 87.0 L122.05 87.1 Q118.6 87.9 119.0 85.0 L119.0 84.0 119.0 83.0 118.5 82.9 Q118.0 80.0 118.0 77.0 L117.8 76.1 Q116.55 73.45 113.0 73.0 L112.0 73.0 102.0 73.0 101.0 73.1 Q97.8 73.7 97.0 72.0 L96.5 71.9 Q96.0 69.0 96.0 66.0 L97.0 66.0 97.0 65.0 97.0 61.0 97.0 60.0 97.0 58.0 98.0 58.0 98.0 57.0 98.0 54.0 98.75 53.75 99.0 53.0 98.9 52.0 Q97.35 43.15 98.0 32.0 L99.0 32.0 101.0 32.0 102.0 32.0 102.0 31.0 105.0 31.0 106.0 31.0 108.0 31.0 109.0 31.0 110.0 31.0 111.0 31.0 Q116.8 31.2 117.0 37.0 L117.0 38.0 117.0 44.0 117.0 45.0 117.0 46.0 130.0 46.0 131.0 46.0 135.0 46.0 136.0 46.0 M93.0 11.0 Q94.75 13.25 93.55 17.9 L93.0 18.0 92.1 17.8 Q91.5 17.5 91.0 17.0 L90.45 16.9 Q90.0 15.0 90.0 13.0 L89.1 13.2 88.0 14.0 Q87.5 14.0 87.4 14.2 86.7 15.7 84.0 15.0 L83.8 15.6 Q83.0 16.0 82.0 16.0 L81.9 17.0 Q79.85 28.6 79.0 15.0 L80.0 15.0 81.0 15.0 81.0 14.0 Q86.25 11.25 93.0 10.5 L93.0 11.0 M86.0 98.0 Q91.85 99.65 96.15 102.75 L97.0 103.0 98.75 104.25 99.0 105.0 100.75 106.25 101.0 107.0 Q104.2 107.25 105.4 109.8 105.5 110.0 106.0 110.0 108.0 111.5 110.25 112.25 L111.0 112.5 Q111.85 115.75 105.0 111.0 L104.2 110.75 100.0 107.0 99.1 106.8 98.0 106.0 98.0 107.0 98.0 108.0 98.1 108.95 Q98.65 111.15 97.0 111.0 L97.0 111.5 Q93.7 110.8 95.0 105.0 L94.25 104.75 Q94.0 104.5 94.0 104.0 L93.0 104.0 92.0 104.0 91.0 104.0 90.0 104.05 Q88.4 104.15 89.0 102.0 L88.75 101.25 88.0 101.0 87.0 101.0 87.1 102.0 Q87.7 104.7 86.0 105.0 L85.05 105.1 Q83.45 105.55 84.0 99.0 L85.1 98.2 86.0 98.0 M60.0 28.0 L59.1 28.2 Q55.0 30.0 51.0 32.0 L51.0 35.0 51.0 36.0 51.0 37.0 Q50.95 40.3 50.0 38.0 L49.0 38.0 48.5 37.95 Q48.0 34.5 48.0 31.0 L49.0 31.0 49.0 30.0 50.0 30.0 50.0 29.0 Q55.25 26.25 62.0 25.5 L62.0 26.0 Q63.75 28.25 62.55 32.9 L62.0 33.0 61.2 32.75 Q59.65 31.35 60.0 28.0 M12.0 49.0 L12.0 48.0 Q14.15 48.65 14.45 47.1 L15.0 47.0 16.0 47.0 16.0 46.0 Q20.95 44.1 24.75 47.3 L25.0 48.0 26.0 48.0 Q28.0 47.0 30.05 46.15 L31.0 46.0 31.0 45.0 Q31.5 44.5 32.1 44.2 L33.0 44.0 Q36.15 43.8 33.8 45.75 L33.0 46.0 32.75 46.75 32.0 47.0 Q31.5 47.0 31.3 47.25 29.9 48.9 27.0 49.0 L26.75 49.75 26.0 50.0 25.85 50.55 Q24.05 51.05 23.0 52.0 L22.15 52.2 Q18.75 54.25 14.0 55.0 L13.9 55.55 Q12.05 55.95 11.0 55.0 10.5 55.0 10.15 55.25 8.95 55.95 7.0 56.0 L7.0 57.0 7.8 58.1 8.0 59.0 9.75 61.15 10.0 62.0 11.0 62.0 12.0 62.0 Q14.0 60.1 15.3 61.75 L16.0 62.0 Q19.95 63.55 23.15 65.75 L24.0 66.0 Q26.75 66.75 26.1 71.0 L26.0 72.0 Q29.1 74.45 33.9 75.5 L34.0 76.0 Q35.5 76.0 36.85 76.45 L37.0 77.0 37.8 78.1 38.0 79.0 37.75 79.85 Q35.8 82.6 36.0 78.0 L35.45 77.9 Q35.15 76.4 33.0 77.0 L32.2 76.75 Q28.1 73.6 24.0 75.0 L23.5 75.0 Q23.65 72.9 22.0 73.0 L21.1 72.8 18.0 71.0 17.15 70.75 15.0 69.0 14.0 69.0 13.0 69.0 12.0 68.95 Q10.3 68.7 11.0 66.0 L11.0 65.0 10.4 64.8 Q10.0 64.0 10.0 63.0 L9.25 62.75 7.0 60.0 6.8 59.1 6.0 58.0 Q5.5 58.0 5.4 57.8 5.0 57.0 5.0 56.0 L4.0 55.95 Q1.45 55.55 0.0 54.0 L0.0 53.0 0.0 52.0 0.0 51.0 2.85 51.45 3.0 52.0 Q4.55 53.95 7.95 53.5 L8.0 53.0 8.0 52.0 8.0 51.0 8.0 50.0 9.0 50.0 10.0 50.0 10.0 49.0 11.0 49.0 12.0 49.0 M133.8 104.85 Q132.45 107.0 132.0 103.0 L132.0 102.0 131.05 102.1 Q127.05 103.05 124.0 105.0 L123.75 105.75 123.0 106.0 123.0 107.0 Q123.0 113.5 120.0 109.0 L120.0 108.0 120.0 106.0 121.0 106.0 121.0 105.0 121.0 104.0 121.0 103.0 122.0 103.0 123.0 103.0 123.0 102.0 Q128.1 99.6 134.0 98.5 L134.0 99.0 Q135.7 100.3 134.55 103.85 L134.0 104.0 133.8 104.85" fill="#ff0000" fill-rule="evenodd" stroke="none"/>
  </g>
</svg>
