<?xml version="1.0" encoding="UTF-8" standalone="no"?>
<svg xmlns:xlink="http://www.w3.org/1999/xlink" height="114.8px" width="112.15px" xmlns="http://www.w3.org/2000/svg">
  <g transform="matrix(1.0, 0.0, 0.0, 1.0, 0.0, 41.0)">
    <path d="M17.9 -2.2 L17.9 -3.2 17.9 -4.2 17.9 -6.2 18.9 -6.2 18.9 -7.2 18.9 -8.2 26.1 -13.95 26.9 -14.2 26.9 -15.2 28.0 -16.0 28.9 -16.2 34.95 -18.05 35.9 -18.2 35.9 -19.2 Q38.6 -19.0 40.05 -19.95 L40.9 -20.2 41.9 -20.2 41.9 -21.2 Q44.55 -25.8 45.4 -30.1 L45.9 -30.2 45.9 -31.2 45.9 -32.2 45.9 -33.2 45.9 -34.2 47.9 -34.2 48.9 -34.2 48.75 -35.15 47.9 -37.2 Q48.95 -38.15 50.8 -37.75 L50.9 -37.2 Q53.85 -41.35 56.25 -37.4 L56.9 -37.2 56.9 -38.2 58.7 -37.8 Q58.9 -37.7 58.9 -37.2 59.7 -35.5 61.9 -35.25 L62.9 -35.2 62.9 -36.2 Q63.4 -36.7 64.0 -37.0 L64.9 -37.2 64.9 -38.2 64.9 -39.2 Q70.9 -44.5 67.05 -34.15 L66.9 -33.2 Q65.45 -27.75 69.9 -27.7 L69.9 -27.2 69.9 -21.2 69.9 -20.2 78.9 -19.95 78.9 -20.2 79.65 -20.2 Q80.3 -20.4 80.9 -20.7 L80.9 -20.2 80.9 -18.2 80.9 -17.2 Q85.75 -15.05 89.65 -11.9 L89.9 -11.2 Q92.55 -9.85 93.7 -7.1 L93.9 -6.2 Q94.85 -5.15 94.9 -3.2 L94.9 -2.2 Q99.1 3.45 102.55 -0.95 L102.55 4.45 Q106.35 7.6 106.95 13.85 L107.0 14.85 Q107.5 14.85 107.75 15.1 L108.0 15.85 Q114.75 31.4 110.55 47.75 L110.0 47.85 109.75 48.7 Q106.15 54.0 101.0 57.85 L100.2 58.1 Q96.85 60.7 92.0 61.85 91.0 64.2 89.3 62.55 L88.3 61.55 85.5 72.0 84.95 73.8 Q81.4 69.45 76.0 66.85 L75.05 67.0 69.0 68.85 68.95 69.35 59.0 69.85 58.0 69.9 Q50.25 70.6 45.0 68.85 L44.05 68.7 Q39.15 66.7 33.0 65.85 31.35 79.9 27.85 68.3 25.75 61.3 23.0 60.85 L22.8 61.45 Q22.0 61.85 21.0 61.85 L20.0 61.75 Q18.0 61.35 17.0 59.85 L16.1 59.65 Q8.55 56.3 4.0 49.85 3.5 49.85 3.4 49.65 2.0 46.85 1.0 43.85 L0.0 43.85 0.0 42.85 0.0 35.85 1.0 35.85 1.0 34.85 1.0 31.85 Q2.15 28.5 2.9 24.85 L3.0 23.85 3.0 22.85 3.0 21.85 Q4.7 20.55 4.5 16.85 L5.0 16.85 5.0 15.85 5.0 14.85 Q5.5 14.35 6.1 14.05 L7.0 13.85 7.0 12.85 7.0 8.85 Q11.75 1.0 13.35 5.1 L13.9 7.35 13.9 6.8 13.9 2.8 13.9 1.8 13.9 0.8 Q16.05 -0.05 17.25 -2.0 L17.9 -2.2 M14.0 36.85 L14.45 36.85 14.0 35.95 14.0 36.85" fill="#ff0000" fill-opacity="0.99215686" fill-rule="evenodd" stroke="none"/>
  </g>
</svg>
