<?xml version="1.0" encoding="UTF-8" standalone="no"?>
<svg xmlns:xlink="http://www.w3.org/1999/xlink" height="113.1px" width="112.7px" xmlns="http://www.w3.org/2000/svg">
  <g transform="matrix(1.0, 0.0, 0.0, 1.0, 0.0, -3.9)">
    <path d="M82.0 8.0 L82.0 7.0 Q87.55 0.0 83.6 8.8 83.5 9.0 83.0 9.0 L83.0 10.0 Q83.15 14.15 80.0 15.0 L80.0 16.0 80.0 17.0 Q89.1 23.4 97.75 30.3 L98.0 31.0 Q102.1 33.4 103.85 38.05 L104.0 39.0 Q105.25 41.75 106.8 44.15 L107.0 45.0 Q108.75 46.8 107.2 50.1 L107.0 51.0 Q110.2 51.3 109.1 56.0 L109.0 57.0 Q114.15 68.3 111.5 81.9 L111.0 82.0 110.75 82.85 Q107.15 88.15 102.0 92.0 L101.75 92.75 99.0 95.0 98.0 95.0 97.8 95.6 Q97.0 96.0 96.0 96.0 L95.8 96.6 Q94.0 97.5 92.0 98.0 L91.8 98.6 Q89.9 99.65 90.0 98.0 L89.1 97.8 88.0 97.0 87.0 97.0 84.0 97.0 83.1 97.2 82.0 98.0 82.05 99.0 Q82.7 103.2 78.0 102.0 L77.85 102.55 Q69.55 105.05 59.0 105.0 L58.0 105.05 Q46.7 106.3 40.0 103.0 L39.05 102.85 Q36.8 102.2 34.0 102.0 31.15 116.1 28.5 103.7 26.9 96.3 23.0 97.0 L22.75 97.75 22.0 98.0 21.1 97.8 Q17.6 95.9 15.0 93.0 L14.05 92.85 Q4.0 90.0 1.0 80.0 L0.0 80.0 0.0 79.0 0.0 72.0 1.0 72.0 1.0 71.0 1.0 68.0 Q2.15 63.15 3.85 58.95 L4.0 58.0 4.0 57.0 4.0 51.0 4.0 50.0 Q7.4 50.9 7.05 48.0 L7.0 47.0 Q6.5 47.0 6.4 46.8 6.0 46.0 6.0 45.0 L7.0 45.0 7.0 44.0 Q9.0 41.0 12.1 39.2 L13.0 39.0 13.0 38.0 Q14.05 37.05 16.0 37.0 L17.0 37.0 17.0 36.0 Q20.75 31.75 25.2 28.25 L26.0 28.0 31.9 28.5 32.0 29.0 Q35.55 26.05 38.35 22.25 38.5 22.0 39.0 22.0 L39.0 21.0 Q40.7 20.7 41.4 19.2 41.5 19.0 42.0 19.0 L42.0 18.0 Q46.1 16.1 51.0 15.1 L52.0 15.0 52.0 14.0 Q54.2 13.2 57.0 13.05 L58.0 13.0 74.0 14.95 75.0 15.0 75.0 14.0 Q78.65 11.65 81.3 8.25 81.5 8.0 82.0 8.0 M111.75 96.7 Q111.0 97.5 111.0 99.0 112.7 100.75 111.55 104.85 L111.0 105.0 110.75 105.75 Q102.7 114.2 87.0 115.0 L86.95 115.5 75.0 116.0 75.0 117.0 74.0 117.0 67.0 117.0 67.0 116.5 Q52.1 117.9 46.0 111.0 49.95 111.45 52.1 110.2 L53.0 110.0 53.0 109.0 71.0 109.0 72.0 109.0 74.0 109.0 75.0 109.0 Q77.7 109.2 79.15 108.25 79.5 108.0 80.0 108.0 83.2 107.7 85.2 106.25 L86.0 106.0 Q88.2 105.2 91.0 105.05 L92.0 105.0 92.0 104.0 Q97.65 104.15 102.05 103.1 L103.0 103.0 104.0 103.0 103.95 102.5 Q101.2 102.25 100.0 100.0 106.55 94.55 112.7 95.7 L111.75 96.7" fill="#ff0000" fill-opacity="0.89411765" fill-rule="evenodd" stroke="none"/>
  </g>
</svg>
