<?xml version="1.0" encoding="UTF-8" standalone="no"?>
<svg xmlns:xlink="http://www.w3.org/1999/xlink" height="58.7px" width="115.0px" xmlns="http://www.w3.org/2000/svg">
  <g transform="matrix(1.0, 0.0, 0.0, 1.0, 0.0, -1.3)">
    <path d="M86.0 6.0 Q89.25 0.5 89.95 7.0 L90.0 8.0 90.1 9.0 Q92.1 18.1 86.0 24.0 85.9 25.65 88.0 25.5 L88.0 26.0 Q90.55 26.45 91.75 28.15 L92.0 29.0 93.0 29.0 105.0 28.5 105.0 29.0 Q107.15 28.4 107.5 29.9 L108.0 30.0 108.0 29.0 114.95 29.5 115.0 30.0 115.0 32.0 115.0 33.0 114.95 34.0 Q114.75 38.55 106.0 39.0 L105.75 39.8 Q100.6 45.7 91.0 43.0 L91.0 44.0 91.1 45.0 Q91.7 48.7 90.0 50.0 L89.9 50.5 84.0 51.0 83.95 51.5 67.0 52.0 Q64.15 57.55 60.8 52.45 56.7 46.15 55.0 50.0 L55.05 51.0 Q55.25 54.25 52.0 54.0 L51.85 54.55 Q50.05 55.05 49.0 56.0 L48.1 56.2 Q47.5 56.5 47.0 57.0 L46.05 57.15 Q39.9 59.6 39.0 52.0 38.5 52.0 38.3 52.25 L34.0 57.0 34.0 57.5 Q31.05 57.45 29.0 56.0 L28.75 56.8 Q26.5 59.45 24.0 57.0 L23.25 56.75 22.0 55.0 21.15 54.75 Q20.05 53.95 20.0 52.0 L19.5 51.9 Q19.0 49.9 16.0 54.0 21.05 58.25 18.85 59.75 L18.0 60.0 17.45 59.85 Q16.25 56.25 13.0 55.0 L12.0 55.05 Q9.3 55.2 9.0 53.0 10.7 51.2 10.1 47.0 L10.0 46.0 9.05 45.85 Q2.8 44.2 2.0 37.0 L1.0 37.0 0.0 37.0 0.0 36.0 Q2.0 34.0 2.5 30.05 L3.0 30.0 3.0 29.0 3.0 28.0 Q6.3 24.3 8.45 19.2 L9.0 19.0 9.0 18.0 Q13.05 15.55 16.25 12.25 16.5 12.0 17.0 12.0 27.6 10.1 37.05 7.15 L38.0 7.0 38.0 6.0 Q41.7 -1.05 50.85 2.45 L51.0 3.0 55.0 3.0 56.0 3.0 63.0 3.0 64.0 3.0 Q71.3 2.7 74.3 6.75 74.5 7.0 75.0 7.0 76.65 7.15 76.5 5.0 L77.0 5.0 Q81.55 1.0 85.3 5.75 L86.0 6.0" fill="#ff0000" fill-opacity="0.96862745" fill-rule="evenodd" stroke="none"/>
  </g>
</svg>
