<?xml version="1.0" encoding="UTF-8" standalone="no"?>
<svg xmlns:xlink="http://www.w3.org/1999/xlink" height="140.65px" width="93.05px" xmlns="http://www.w3.org/2000/svg">
  <g transform="matrix(1.0, 0.0, 0.0, 1.0, 0.0, -0.1)">
    <path d="M91.75 88.5 Q90.5 88.75 90.55 89.35 90.75 91.25 89.45 93.55 88.0 96.1 88.0 99.85 88.0 105.65 90.0 107.2 L91.4 108.1 Q92.0 108.7 92.0 109.9 92.0 113.5 89.7 114.7 88.15 115.5 84.6 115.5 L79.45 115.8 Q77.15 116.5 77.15 119.25 L78.6 122.7 Q80.0 126.95 80.0 131.35 80.0 132.15 77.35 133.5 74.8 134.8 73.55 134.8 70.35 134.8 68.4 133.0 67.0 131.7 67.0 130.7 67.0 128.8 69.05 125.6 L71.1 122.75 71.05 122.15 70.9 122.15 69.2 122.8 67.0 123.35 Q66.5 123.35 64.95 122.2 63.4 121.0 62.9 121.0 42.55 124.35 36.85 124.35 36.9 126.6 39.0 131.0 L41.05 135.05 Q41.05 138.7 38.65 140.0 37.3 140.75 34.65 140.75 30.65 140.75 29.25 139.2 28.0 137.9 28.0 134.35 28.0 132.7 30.25 131.05 32.5 129.4 32.5 127.95 32.5 125.95 30.7 124.1 L26.75 120.8 Q21.0 116.1 21.0 110.35 L22.7 108.15 23.0 107.35 10.0 106.35 Q10.0 117.35 11.0 117.3 12.65 116.9 13.45 118.4 14.05 119.6 14.05 121.75 14.05 125.0 12.45 126.15 11.05 127.15 7.5 127.15 3.7 127.15 2.25 125.35 1.0 123.8 1.0 120.35 1.0 119.65 3.0 117.65 5.0 115.7 5.0 111.05 5.0 106.6 4.35 105.6 3.9 104.9 0.0 102.35 L0.0 98.35 3.0 98.35 4.4 95.15 Q5.9 91.95 6.5 91.95 7.65 91.95 9.2 92.7 11.2 93.65 12.65 95.35 L17.0 95.35 17.0 87.35 Q15.15 86.2 14.2 84.7 12.45 81.9 12.7 75.35 L13.1 75.5 14.15 75.6 Q15.5 75.6 17.2 73.05 L20.45 67.55 20.5 67.35 12.5 66.65 5.0 61.35 Q11.35 57.55 13.4 55.8 16.0 53.55 16.0 51.35 16.0 46.45 13.5 43.3 11.0 40.1 11.0 38.35 11.0 37.55 12.55 37.05 L16.45 36.6 Q17.65 36.6 19.2 37.95 21.35 39.9 22.0 43.35 26.0 27.5 26.0 25.7 L25.45 22.1 24.0 15.35 Q24.75 15.95 26.7 16.65 L29.05 17.35 32.1 15.8 30.3 11.95 Q29.0 8.3 29.0 4.35 L32.5 2.2 Q37.6 0.1 45.65 0.1 53.85 0.1 59.0 3.65 64.0 7.1 64.0 12.35 63.9 13.95 62.0 14.35 68.8 23.6 68.95 24.45 67.75 25.25 66.9 26.15 66.0 27.0 66.0 27.35 66.0 41.55 70.45 47.85 75.4 54.85 89.45 58.2 L90.7 58.65 87.2 58.7 83.05 58.15 69.0 55.35 Q69.4 57.05 70.0 87.35 79.45 86.45 80.4 84.75 80.7 84.15 80.35 82.7 79.95 80.9 80.0 79.85 L84.3 79.6 89.05 81.1 Q93.55 83.55 93.0 88.35 L91.75 88.5" fill="#ff0000" fill-rule="evenodd" stroke="none"/>
  </g>
</svg>
