<?xml version="1.0" encoding="UTF-8" standalone="no"?>
<svg xmlns:xlink="http://www.w3.org/1999/xlink" height="75.2px" width="125.0px" xmlns="http://www.w3.org/2000/svg">
  <g transform="matrix(1.0, 0.0, 0.0, 1.0, -1.0, -0.8)">
    <path d="M109.1 11.55 Q114.35 11.55 117.35 14.2 121.5 17.85 126.0 29.0 122.6 28.05 118.6 25.35 115.1 23.0 114.0 23.0 L112.85 23.8 Q111.85 24.65 111.85 25.0 111.85 26.0 114.8 30.55 117.75 35.05 117.75 38.95 117.75 42.2 116.3 46.2 114.4 51.5 111.45 51.5 108.65 51.5 104.35 49.8 100.05 48.1 99.05 48.1 97.65 48.1 96.55 49.05 L94.95 49.95 93.15 48.1 87.0 41.0 Q86.25 44.0 81.15 48.75 74.7 54.65 69.0 53.0 L71.75 57.1 72.95 59.2 Q72.95 60.2 72.65 60.15 L71.8 60.25 70.0 60.0 Q71.95 63.1 73.6 66.8 74.2 68.15 75.3 68.15 76.2 68.15 83.3 62.55 91.5 56.0 94.0 54.5 95.45 55.45 96.0 57.5 96.0 61.0 88.65 65.2 82.0 69.0 79.0 69.0 79.8 72.2 78.35 74.05 76.8 76.0 73.05 76.0 70.85 76.0 69.0 72.0 67.2 68.0 64.5 68.0 62.6 68.0 60.85 69.9 L57.75 73.65 Q55.35 71.1 46.15 65.3 37.95 60.15 37.95 59.4 37.95 57.85 38.2 57.5 38.65 56.8 40.5 56.8 41.0 56.8 47.1 59.4 53.2 62.0 53.7 62.0 55.6 62.0 56.0 58.0 L56.0 55.95 Q51.6 55.45 48.3 53.0 45.6 51.0 37.0 51.0 35.95 51.0 34.0 52.45 32.0 53.95 32.0 55.0 32.0 55.5 32.55 57.25 L33.05 59.45 Q33.05 61.75 26.95 63.7 19.65 66.05 8.05 66.05 L2.9 65.5 Q1.0 64.35 1.0 59.8 1.0 53.0 8.0 49.3 L12.8 46.65 Q15.0 45.05 15.0 42.8 15.0 39.25 13.2 35.1 L11.4 31.6 Q11.4 20.05 15.05 13.9 17.75 9.35 22.2 8.1 L25.0 10.0 34.0 10.0 34.0 7.65 Q40.85 7.9 52.75 4.4 L64.5 0.8 Q70.8 0.8 83.35 6.9 95.95 13.0 100.2 13.0 L107.5 12.3 Q108.85 11.55 109.1 11.55" fill="#ff0000" fill-rule="evenodd" stroke="none"/>
  </g>
</svg>
