<?xml version="1.0" encoding="UTF-8" standalone="no"?>
<svg xmlns:xlink="http://www.w3.org/1999/xlink" height="148.0px" width="96.1px" xmlns="http://www.w3.org/2000/svg">
  <g transform="matrix(1.0, 0.0, 0.0, 1.0, 0.1, 0.0)">
    <path d="M93.6 76.2 Q96.0 79.3 96.0 83.75 96.0 89.05 93.7 89.05 92.8 89.05 90.45 87.55 L88.0 86.0 Q87.0 86.0 85.0 87.0 L85.0 103.0 Q86.1 103.0 89.25 105.7 91.95 108.1 96.0 106.95 L96.0 117.0 91.3 119.0 Q89.45 119.8 85.0 122.0 L85.0 137.0 Q92.0 137.65 92.0 144.0 92.0 144.95 89.0 146.3 85.25 148.0 80.0 148.0 74.95 148.0 73.1 145.4 72.0 143.85 72.0 141.0 72.0 139.95 73.9 138.7 76.15 137.15 79.0 137.5 L79.3 132.95 Q79.3 130.7 77.45 128.05 75.75 125.65 76.0 124.0 73.85 125.85 65.25 129.3 55.45 133.25 50.55 133.25 37.1 133.25 20.0 124.0 19.75 124.75 18.3 125.55 17.0 127.0 17.0 131.5 17.0 136.6 20.0 138.65 L22.0 139.85 Q22.95 140.5 22.95 141.3 22.95 143.35 20.3 145.45 17.2 147.9 12.65 147.9 10.25 147.9 7.8 146.4 4.35 144.25 4.0 140.0 L7.25 139.0 11.0 138.1 11.0 122.0 Q7.05 119.8 3.9 118.7 L0.7 117.7 Q-0.05 117.4 -0.1 116.35 L0.0 112.0 Q0.0 108.75 1.05 107.9 1.7 107.35 3.7 107.5 8.3 107.8 10.25 102.85 11.0 100.95 11.0 91.95 L10.85 86.15 9.0 86.0 Q5.35 87.55 2.0 88.0 L0.0 88.0 0.0 78.0 9.0 73.8 Q6.05 72.5 4.55 71.6 1.95 70.0 2.0 68.0 11.95 63.3 18.95 52.3 25.0 42.75 25.0 36.0 25.0 32.3 23.6 29.05 21.6 24.45 20.85 21.0 L21.5 20.6 Q22.25 20.15 22.85 20.15 L27.0 22.0 Q29.4 22.0 30.55 20.8 31.25 20.05 31.25 19.45 31.25 18.85 29.15 16.25 27.0 13.6 27.0 10.0 27.0 6.15 36.7 2.7 44.45 0.0 47.5 0.0 57.0 0.0 62.55 3.2 68.5 6.65 68.5 13.0 68.5 16.85 61.75 21.05 55.0 25.25 55.0 28.0 55.0 30.2 61.6 35.35 63.75 35.35 65.05 34.65 L66.0 33.8 64.9 28.9 65.0 27.0 Q71.6 27.15 71.6 30.2 L70.25 32.85 Q68.9 35.55 68.9 36.2 68.9 37.2 69.95 38.85 L71.0 41.0 70.1 44.4 Q69.15 47.7 69.15 48.15 69.15 48.65 75.45 55.25 83.35 63.5 91.5 70.0 91.0 71.6 89.0 72.85 L88.05 73.05 Q91.25 73.2 93.6 76.2" fill="#ff0000" fill-rule="evenodd" stroke="none"/>
  </g>
</svg>
