<?xml version="1.0" encoding="UTF-8" standalone="no"?>
<svg xmlns:xlink="http://www.w3.org/1999/xlink" height="86.0px" width="125.0px" xmlns="http://www.w3.org/2000/svg">
  <g transform="matrix(1.0, 0.0, 0.0, 1.0, -1.0, -1.0)">
    <path d="M68.9 79.4 L69.45 79.3 70.75 79.2 72.5 79.6 Q73.5 80.0 73.5 80.15 73.9 81.75 72.15 82.25 70.2 82.75 68.0 80.0 L68.9 79.4 M112.75 39.05 Q109.45 42.85 105.0 44.0 L108.6 48.65 Q109.7 50.0 110.1 50.0 L111.8 49.5 Q113.0 49.0 113.5 49.0 118.45 49.0 122.55 54.8 126.0 59.65 126.0 63.0 126.0 65.2 122.05 67.95 117.6 71.05 112.5 71.05 108.05 71.05 105.2 68.3 101.95 65.2 99.0 57.0 96.8 58.15 96.25 58.15 L93.0 57.0 93.15 57.35 Q97.1 64.25 97.1 66.55 L96.15 70.7 Q94.65 74.8 92.0 75.0 92.1 75.8 92.3 75.95 L92.25 76.0 92.9 76.0 94.55 75.65 96.2 75.25 Q100.75 75.25 103.45 77.05 106.05 78.75 106.05 81.45 105.55 82.85 104.5 84.2 102.45 86.8 99.7 86.8 L98.35 86.4 97.0 86.0 95.05 86.5 93.1 87.0 Q91.8 87.0 88.75 84.2 85.85 81.55 85.85 81.0 85.85 79.7 86.6 79.35 L88.0 79.0 Q81.25 72.0 70.0 72.0 66.25 72.0 56.25 77.05 46.3 82.05 41.75 82.05 39.6 82.05 38.4 80.7 37.0 79.15 37.0 76.0 37.0 75.5 37.9 75.45 39.25 75.45 41.0 72.5 L39.75 72.35 Q39.0 72.15 39.0 71.0 39.0 70.5 39.45 69.45 L39.85 67.9 Q39.85 66.4 38.55 64.95 36.4 62.6 31.6 62.6 L28.5 62.75 Q27.65 68.05 26.45 69.85 24.9 72.2 21.05 72.2 19.3 72.2 16.95 67.45 14.15 61.9 10.45 60.0 8.0 58.75 5.7 58.15 L3.05 57.45 Q1.6 56.85 1.0 52.0 10.05 52.35 18.2 50.05 25.0 48.15 25.0 47.0 25.0 44.45 17.65 40.05 5.15 32.6 3.0 31.0 17.15 23.1 31.0 16.7 46.65 9.4 50.85 9.4 51.4 9.4 54.85 10.7 58.35 12.0 59.45 12.0 62.75 12.0 65.6 10.3 66.95 9.45 70.3 6.5 76.55 1.0 83.5 1.0 88.95 1.0 95.55 5.55 102.4 10.3 107.65 18.15 L114.45 28.15 Q116.05 30.45 116.05 31.05 116.05 35.2 112.75 39.05" fill="#ff0000" fill-rule="evenodd" stroke="none"/>
  </g>
</svg>
