<?xml version="1.0" encoding="UTF-8" standalone="no"?>
<svg xmlns:xlink="http://www.w3.org/1999/xlink" height="177.2px" width="133.0px" xmlns="http://www.w3.org/2000/svg">
  <g transform="matrix(1.0, 0.0, 0.0, 1.0, 0.0, -1.1)">
    <path d="M106.75 66.85 Q105.4 70.3 105.4 74.4 105.4 77.75 106.75 78.6 L109.7 78.95 Q111.75 79.0 112.65 80.2 114.0 82.0 114.0 87.05 114.0 89.45 112.75 91.25 111.3 93.4 111.0 95.0 L118.85 97.9 132.0 102.0 132.0 114.5 Q128.35 115.55 128.0 115.85 127.0 116.65 127.0 120.0 127.0 122.5 128.35 124.4 L129.65 126.3 Q129.65 126.8 126.65 128.85 123.65 130.95 123.65 134.55 123.65 135.85 125.1 136.65 L128.35 137.9 Q133.0 139.65 133.0 143.5 133.0 147.8 127.65 149.05 L108.0 151.0 Q109.1 153.05 113.65 158.55 117.0 162.55 117.0 165.0 117.0 167.3 111.95 168.95 107.9 170.3 105.0 170.3 99.5 170.3 96.2 167.85 92.95 165.5 92.95 161.65 92.95 159.7 97.55 158.25 102.1 156.8 102.1 154.5 102.1 154.2 99.75 152.0 97.4 149.75 97.4 147.7 L99.4 140.2 Q99.4 137.15 97.2 137.15 96.85 137.15 92.95 139.3 L86.55 142.75 76.65 143.3 Q68.0 143.8 68.0 146.0 68.0 148.75 69.25 150.95 70.95 153.95 74.5 155.1 L71.05 157.85 Q69.35 159.15 69.35 160.5 69.35 164.6 73.75 165.85 76.15 166.55 76.8 166.95 78.15 167.8 78.15 169.6 78.15 178.3 65.65 178.3 59.95 178.3 57.15 175.15 55.0 172.7 55.0 168.95 55.0 165.65 59.3 164.15 63.6 162.65 63.6 160.55 63.6 159.55 61.2 156.45 L58.45 153.15 63.0 149.9 Q65.0 148.05 65.0 145.5 L35.0 137.0 Q33.6 137.0 32.75 137.8 32.15 138.35 32.15 139.0 32.15 142.25 35.9 143.9 L35.35 145.05 Q34.6 146.5 31.0 155.5 36.25 156.15 38.15 158.3 39.45 159.7 39.45 162.5 39.45 166.0 35.7 167.95 32.4 169.7 27.4 169.7 23.05 169.7 19.5 167.65 15.8 165.5 15.8 162.5 15.8 159.7 19.6 157.35 24.05 155.05 25.25 153.8 25.05 152.95 22.9 151.2 L20.0 149.0 Q19.6 150.2 18.0 150.45 L15.65 150.55 Q8.1 150.55 4.3 149.05 0.0 147.35 0.0 143.5 0.0 140.45 4.0 138.15 8.7 135.45 10.0 132.0 8.25 133.05 6.0 131.15 3.85 129.35 3.85 127.45 3.85 124.85 5.2 123.0 6.5 121.2 6.5 120.05 6.5 117.4 5.7 116.25 4.45 114.4 1.15 114.95 L1.0 103.0 Q1.0 102.05 8.65 99.85 18.15 97.1 23.0 94.0 21.75 92.5 20.7 89.4 L19.85 86.5 Q19.85 80.2 21.75 79.25 L24.25 78.9 28.0 79.0 Q27.2 69.65 25.9 65.9 24.95 63.05 24.95 59.6 34.8 27.85 48.7 27.85 L52.0 29.0 Q54.3 29.0 57.65 27.65 L61.0 26.0 Q59.1 22.2 52.0 18.4 46.0 15.1 46.0 11.5 46.0 8.1 50.65 5.05 56.75 1.1 67.85 1.1 L70.9 1.15 Q74.5 1.35 77.5 2.2 87.0 4.85 87.0 12.75 87.0 16.2 80.0 19.7 73.0 23.25 73.0 25.0 73.0 25.6 78.5 27.4 85.8 29.85 90.55 32.4 108.05 41.95 108.05 60.5 108.05 63.45 106.75 66.85" fill="#ff0000" fill-rule="evenodd" stroke="none"/>
  </g>
</svg>
