<?xml version="1.0" encoding="UTF-8" standalone="no"?>
<svg xmlns:xlink="http://www.w3.org/1999/xlink" height="175.5px" width="138.0px" xmlns="http://www.w3.org/2000/svg">
  <g transform="matrix(1.0, 0.0, 0.0, 1.0, -1.0, 0.0)">
    <path d="M93.7 29.45 Q110.05 37.3 110.05 56.15 110.05 57.5 109.05 60.35 108.0 63.15 108.0 65.5 108.0 68.0 109.2 71.6 110.0 74.0 109.0 76.0 L111.75 74.8 Q112.8 74.35 113.5 74.35 116.25 74.35 117.75 77.4 119.3 80.45 119.3 86.1 119.3 87.75 118.45 88.35 L114.0 91.0 Q117.7 92.9 128.2 96.55 137.95 99.95 139.0 100.0 L139.0 112.0 136.35 111.95 Q132.15 111.95 130.55 113.9 129.8 114.9 129.8 116.15 129.8 118.55 133.05 122.1 L136.3 125.6 Q136.3 128.2 133.65 129.85 131.0 131.5 131.0 132.5 131.0 133.9 132.7 135.6 134.35 137.35 134.35 138.1 134.35 143.75 130.15 145.9 127.8 147.1 124.2 147.1 122.7 147.1 119.5 146.05 L116.0 145.0 110.8 149.5 Q113.8 152.85 118.0 155.25 120.0 156.45 120.0 159.5 120.0 163.7 116.65 165.6 114.05 167.1 109.7 167.1 104.6 167.1 100.5 165.35 97.3 163.6 96.8 163.6 L87.0 175.5 Q84.7 175.5 84.7 172.35 84.7 169.5 89.35 166.2 94.0 162.9 94.0 160.7 94.0 158.05 91.1 153.7 L87.0 148.0 Q88.05 147.4 88.45 146.05 L89.0 144.0 Q90.9 144.4 93.9 148.85 97.1 153.6 96.0 156.0 99.7 155.0 100.0 154.65 L99.8 153.75 Q99.8 151.5 105.05 151.9 105.35 151.5 105.35 150.5 105.35 148.85 102.7 147.15 100.0 145.45 100.0 141.5 100.0 140.25 101.0 139.1 100.25 138.6 99.75 137.95 98.8 136.75 99.0 135.0 95.8 136.3 90.4 137.7 81.4 140.0 72.5 140.65 L72.6 141.5 Q72.6 143.45 71.0 143.05 L71.0 146.0 Q75.2 146.4 76.3 147.0 78.05 148.0 78.05 151.1 78.05 153.7 76.0 155.45 73.9 157.25 71.85 156.0 L71.75 157.85 Q71.75 158.45 72.35 159.3 73.2 160.5 74.75 161.0 L74.7 160.15 75.0 160.0 Q77.3 161.25 79.75 163.75 82.05 166.15 82.05 167.0 82.05 170.5 78.4 172.85 74.65 175.3 68.75 175.3 L64.75 173.65 Q60.85 172.0 58.5 172.0 L57.6 172.55 Q56.45 173.1 54.8 173.1 51.85 173.1 50.8 171.75 50.0 170.7 50.0 168.0 50.0 167.45 52.0 164.8 L54.0 162.0 Q54.0 159.25 49.95 152.8 44.95 144.8 39.0 143.0 38.65 144.65 37.05 146.6 35.0 149.1 33.0 148.0 33.0 153.65 38.05 155.35 L41.5 156.55 Q43.05 157.4 43.05 159.15 43.05 163.55 39.75 165.55 37.2 167.1 32.85 167.1 25.7 167.1 22.15 161.9 18.4 154.4 14.75 149.8 12.85 147.4 6.9 144.75 2.95 143.0 2.95 138.05 2.95 135.85 3.5 135.7 4.0 135.55 4.0 134.8 L2.85 133.0 Q2.85 132.85 4.0 131.85 5.2 130.85 5.7 130.85 7.25 130.85 8.2 131.4 9.55 132.2 9.0 134.0 L9.3 133.45 Q9.4 133.0 10.0 133.0 L11.2 133.4 11.95 134.0 Q12.1 135.85 13.0 130.5 13.0 128.45 9.95 127.25 6.85 126.05 6.85 125.5 6.85 122.7 7.45 121.3 L8.0 119.5 Q4.25 119.35 2.65 116.15 1.0 113.0 1.0 106.0 1.0 105.6 11.0 101.4 21.0 97.25 21.0 95.0 L20.0 85.0 Q20.0 83.6 24.35 83.05 28.2 82.55 31.0 83.0 L31.05 69.25 Q31.05 67.8 30.25 66.75 L28.55 64.9 Q26.0 61.95 26.0 55.0 26.0 48.3 35.95 37.3 45.25 26.95 49.0 26.95 49.8 26.95 50.45 27.5 L51.0 28.0 53.4 27.2 Q55.75 26.3 56.65 25.5 L57.0 25.0 55.5 25.2 Q46.9 22.45 44.3 19.15 42.0 16.25 42.0 9.5 42.0 3.1 50.4 1.0 54.4 0.0 62.0 0.0 67.0 0.0 70.45 2.6 72.2 3.9 72.95 5.3 L70.95 9.25 Q70.95 11.65 74.9 14.35 L78.85 17.05 Q78.85 19.55 77.05 20.5 L73.0 22.0 73.0 24.0 81.25 25.45 Q88.45 26.9 93.7 29.45" fill="#ff0000" fill-rule="evenodd" stroke="none"/>
  </g>
</svg>
