<?xml version="1.0" encoding="UTF-8" standalone="no"?>
<svg xmlns:xlink="http://www.w3.org/1999/xlink" height="123.15px" width="164.85px" xmlns="http://www.w3.org/2000/svg">
  <g transform="matrix(1.0, 0.0, 0.0, 1.0, -1.0, -1.0)">
    <path d="M165.0 95.7 L162.35 97.55 Q158.25 99.9 158.15 104.05 153.1 103.9 151.2 105.4 150.0 106.3 150.0 108.0 150.0 108.6 150.35 109.25 L150.75 110.1 Q149.05 111.05 132.8 116.55 116.0 122.2 113.95 122.2 L113.0 121.65 111.0 120.0 111.4 119.95 Q115.2 118.85 129.95 113.2 148.1 106.25 150.0 104.0 L149.75 103.8 Q147.05 102.1 140.05 99.3 133.7 96.85 130.5 96.0 130.85 98.6 130.0 99.4 129.35 100.0 127.4 100.0 126.85 100.0 126.0 99.45 125.2 98.85 124.0 98.85 115.4 98.85 111.8 108.6 L109.45 115.3 Q108.05 118.35 105.9 118.35 104.0 118.35 104.0 113.0 104.0 111.25 108.5 108.85 113.0 106.45 113.0 104.6 L112.9 103.2 112.0 103.0 Q110.3 103.25 105.95 105.0 L101.9 106.7 95.0 105.0 99.4 108.0 Q101.05 109.15 101.05 110.8 101.05 114.6 98.0 116.8 94.55 119.3 87.75 119.3 83.35 119.3 80.1 116.55 77.85 114.6 75.0 110.0 L75.2 110.65 Q76.5 113.25 71.65 118.05 69.0 118.05 69.0 115.5 69.0 111.0 70.5 107.3 L72.0 104.0 Q72.0 99.25 63.8 94.75 L55.45 91.15 Q55.05 91.15 53.65 92.0 52.0 93.05 52.0 94.0 52.0 94.75 54.15 98.1 56.3 101.5 56.3 103.4 56.3 105.45 54.9 106.95 53.45 108.6 50.0 110.0 L51.1 110.5 Q55.2 111.9 62.15 112.95 67.0 114.3 67.0 118.7 67.0 121.95 65.95 123.0 64.8 124.15 61.0 124.15 56.35 124.15 54.25 123.3 51.0 122.0 51.0 118.15 51.0 117.65 51.5 117.1 L52.0 116.0 Q52.0 114.8 46.2 113.9 L33.0 112.0 29.95 112.0 29.95 115.1 27.35 115.15 Q24.4 114.6 20.3 111.95 12.15 106.6 6.0 96.0 9.6 97.8 16.35 103.85 23.8 109.0 34.65 109.0 L36.55 108.8 Q37.0 108.5 37.0 107.0 37.0 105.5 35.25 103.65 L31.05 99.55 Q24.1 92.55 21.0 82.0 18.7 83.0 16.85 84.6 L14.1 87.05 Q10.95 89.65 4.35 89.65 L1.0 89.4 Q3.25 87.2 5.6 86.05 13.7 82.1 30.0 72.65 24.15 70.75 21.65 65.4 20.0 61.9 20.0 57.5 20.0 55.25 31.0 52.65 42.0 50.1 42.0 47.35 42.0 44.35 40.55 40.95 39.05 37.45 39.0 35.0 L39.15 34.7 40.0 34.75 Q40.0 34.35 38.2 30.7 36.05 26.4 35.0 22.65 L37.05 22.35 Q40.1 25.1 42.5 29.75 45.1 33.0 52.25 33.0 L56.65 32.5 61.0 32.0 Q61.6 32.0 62.0 32.55 62.45 33.1 62.55 34.0 63.5 34.55 69.1 31.85 L81.0 26.0 81.0 24.0 Q79.15 23.05 74.15 22.65 L65.1 21.85 Q53.8 20.25 53.8 12.9 L56.1 11.0 Q59.0 8.75 62.35 6.9 72.8 1.0 82.5 1.0 83.1 1.0 84.9 1.95 L88.0 3.5 85.0 10.0 Q85.0 19.4 88.3 22.15 90.5 24.0 97.3 24.0 L101.65 23.5 106.0 23.0 Q116.95 23.0 125.1 24.55 139.3 27.25 139.3 33.95 139.3 39.8 134.0 43.0 L134.0 45.0 152.8 49.75 Q157.55 51.6 157.55 56.6 157.55 59.15 156.75 59.95 155.75 61.0 150.0 64.0 L158.15 74.2 Q162.0 79.3 162.0 81.0 162.0 82.15 161.45 82.6 161.0 83.0 159.95 83.0 159.35 83.0 155.0 75.0 L150.0 75.0 150.0 77.0 Q151.6 77.4 153.7 83.4 153.7 86.45 151.7 88.35 148.85 91.1 142.0 91.1 140.2 91.1 137.8 89.85 L135.0 88.0 Q133.1 92.45 132.0 93.0 L141.9 96.9 Q149.55 100.0 152.9 100.0 153.9 100.0 154.35 99.55 L155.6 98.15 Q158.3 95.45 165.8 92.4 166.1 94.45 165.0 95.7 M128.65 104.0 Q128.0 106.8 125.55 108.3 123.1 109.75 119.3 109.75 116.65 109.75 117.0 106.65 L116.9 105.55 117.45 106.7 Q117.85 107.4 118.45 107.4 L123.0 105.5 Q126.95 103.65 128.15 103.75 L128.65 104.0" fill="#ff0000" fill-rule="evenodd" stroke="none"/>
  </g>
</svg>
