<?xml version="1.0" encoding="UTF-8" standalone="no"?>
<svg xmlns:xlink="http://www.w3.org/1999/xlink" height="116.05px" width="167.4px" xmlns="http://www.w3.org/2000/svg">
  <g transform="matrix(1.0, 0.0, 0.0, 1.0, 0.0, -0.95)">
    <path d="M167.4 82.35 Q167.4 85.6 165.85 87.1 164.8 88.1 163.5 88.1 L158.85 84.2 Q154.1 80.3 150.1 80.3 148.95 80.3 144.95 81.7 141.0 83.1 139.8 83.1 L138.2 82.7 136.0 82.0 133.0 82.0 Q128.8 90.3 122.05 93.55 116.95 96.0 109.0 96.0 L104.2 97.55 Q98.7 99.05 94.95 99.05 L87.55 99.0 78.0 98.0 76.45 98.2 Q74.9 98.55 74.85 99.5 85.15 104.0 96.0 104.0 100.5 104.0 103.7 101.5 106.9 99.0 107.9 99.0 111.1 99.0 112.75 100.2 115.0 101.85 115.0 106.0 115.0 111.5 97.85 111.5 95.65 111.5 88.2 108.75 80.75 106.0 77.0 106.0 75.1 106.0 74.25 108.7 73.35 111.65 74.0 117.0 L72.0 117.0 71.0 109.0 72.3 106.5 Q72.3 105.3 70.6 103.95 69.15 102.8 68.5 102.8 L64.1 104.9 Q59.5 106.95 58.3 106.95 57.2 106.95 55.85 105.7 54.0 103.95 54.0 101.0 L54.45 99.4 55.0 97.15 67.0 97.0 67.0 99.0 70.5 99.25 71.55 99.0 72.1 98.3 72.15 97.0 Q70.5 97.0 65.9 95.5 61.3 94.0 59.0 94.0 45.15 94.0 40.1 99.75 L36.95 103.65 Q35.25 105.45 32.4 105.45 29.95 105.45 27.9 103.15 25.9 100.95 25.9 98.6 25.9 98.05 26.4 95.25 L27.05 91.9 27.35 91.05 27.5 90.05 Q27.5 88.25 26.25 87.2 24.85 86.0 22.0 86.0 21.4 86.0 19.75 87.25 L18.15 88.5 9.9 87.55 0.0 86.25 0.0 80.0 Q2.9 79.3 10.1 75.65 16.15 72.65 19.55 72.65 25.35 72.65 30.45 73.75 36.0 74.95 36.0 76.55 L35.0 80.05 Q34.0 83.3 34.0 84.0 L36.0 85.65 Q38.2 87.7 39.0 90.0 L45.1 88.05 51.0 86.8 51.0 86.2 Q48.05 81.25 45.25 70.3 43.0 61.4 43.0 59.5 43.0 57.95 44.65 53.6 L46.3 49.5 45.65 46.45 Q45.0 43.85 45.0 42.0 45.0 34.0 50.4 27.9 55.5 22.2 61.25 22.2 64.7 22.2 74.65 24.6 84.6 27.0 86.0 27.0 L92.05 26.55 Q92.95 26.15 92.95 23.65 92.95 21.1 91.55 19.45 L88.5 16.65 Q84.0 12.5 84.0 3.2 84.0 2.15 85.1 1.55 86.25 0.95 88.25 0.95 100.0 0.95 112.85 12.25 117.15 16.05 120.65 20.3 123.55 23.85 123.55 24.5 123.55 27.25 116.0 31.0 124.1 35.65 125.9 36.5 129.6 38.25 132.35 38.25 137.55 38.25 138.3 37.2 138.9 36.4 141.0 27.0 L142.0 27.0 142.0 19.0 147.7 19.7 Q150.05 20.3 150.05 23.15 L149.55 26.1 Q149.0 27.9 149.0 31.0 149.0 34.85 150.0 36.7 150.45 37.6 152.2 39.1 152.1 40.1 149.0 43.0 L149.0 55.0 Q156.65 56.6 159.4 58.85 161.6 60.6 161.6 63.8 L161.05 65.55 Q160.5 67.05 160.5 68.0 160.5 70.5 163.95 75.7 167.4 80.9 167.4 82.35 M136.4 93.8 Q139.0 95.55 139.0 98.05 139.0 100.55 136.4 102.35 133.75 104.1 130.0 104.1 126.25 104.1 123.65 102.35 121.0 100.55 121.0 98.05 121.0 95.55 123.65 93.8 126.25 92.0 130.0 92.0 133.75 92.0 136.4 93.8" fill="#ff0000" fill-rule="evenodd" stroke="none"/>
  </g>
</svg>
