<?xml version="1.0" encoding="UTF-8" standalone="no"?>
<svg xmlns:xlink="http://www.w3.org/1999/xlink" height="201.0px" width="156.0px" xmlns="http://www.w3.org/2000/svg">
  <g transform="matrix(1.0, 0.0, 0.0, 1.0, 0.0, 0.0)">
    <path d="M78.0 0.0 L79.0 0.0 78.8 1.55 Q78.45 2.35 78.4 3.05 L78.0 0.0 M126.3 46.9 Q126.8 47.4 126.85 48.35 L127.0 51.0 128.45 55.2 Q129.3 57.65 129.3 65.8 129.3 79.35 127.45 82.05 L127.0 82.15 Q127.0 88.8 128.5 89.15 L129.95 88.9 131.65 89.05 Q131.45 90.45 130.0 93.0 L131.15 97.6 Q132.3 101.95 132.3 103.6 132.3 113.6 138.7 117.35 L143.1 119.9 Q145.1 121.55 145.1 124.45 145.1 127.6 143.65 129.1 142.5 130.3 141.0 130.0 142.1 136.15 143.35 137.0 144.2 137.6 144.2 139.2 144.2 141.55 145.0 142.3 146.05 143.35 149.75 143.6 152.3 143.75 154.75 147.15 L155.0 148.0 Q156.0 148.0 156.0 154.5 156.0 160.9 155.15 163.5 154.45 165.8 152.6 166.35 146.8 166.2 142.0 169.0 L142.15 184.05 Q142.05 185.3 141.4 185.35 140.05 184.8 140.0 183.5 L132.6 187.85 Q126.95 191.0 125.0 191.0 123.85 191.0 119.8 188.1 115.75 185.15 113.2 185.15 112.7 185.15 111.8 185.65 L110.4 186.1 Q107.95 186.1 107.95 180.4 L108.0 178.0 Q107.75 178.0 107.45 175.5 107.1 173.0 107.0 170.0 105.85 170.1 100.75 171.75 L95.55 173.3 92.5 173.6 89.0 174.0 Q95.2 181.1 97.0 184.95 97.75 186.55 97.75 188.45 L95.65 186.0 Q94.3 184.55 93.0 184.0 L93.05 185.0 Q93.65 189.65 92.1 193.0 L88.0 201.0 68.0 201.0 Q67.75 199.3 66.1 196.5 L64.5 194.0 64.5 189.85 Q64.3 187.95 63.0 184.0 62.9 185.25 61.75 187.4 60.75 189.4 59.85 190.3 59.45 189.5 59.2 187.3 L58.95 184.4 Q58.95 181.9 63.35 178.1 L67.7 174.65 Q67.35 173.0 66.0 173.0 L57.15 171.9 49.0 170.0 49.0 172.0 Q49.7 174.55 49.5 177.35 L48.95 180.3 Q48.0 178.9 48.0 178.0 48.0 177.45 48.35 176.05 48.45 175.65 47.55 174.25 48.65 179.05 41.75 183.8 35.8 187.95 32.05 187.95 L23.0 186.0 21.4 186.45 19.75 186.85 Q16.55 186.85 17.0 181.0 16.75 181.0 16.45 177.55 16.1 174.15 16.0 170.0 13.5 172.85 13.4 175.2 L13.5 177.65 7.4 169.0 Q3.15 162.9 2.0 162.0 L1.85 163.0 1.6 165.7 1.5 165.7 1.2 164.55 Q1.15 164.05 0.0 163.0 L0.0 148.0 Q1.9 145.95 4.95 144.35 L9.95 142.05 Q15.35 139.25 15.35 133.15 15.35 128.6 13.6 126.8 11.85 125.0 11.85 123.75 11.85 119.7 12.5 119.35 18.35 115.95 19.8 114.8 20.55 114.2 21.35 114.35 L22.15 114.35 Q22.5 113.9 22.0 105.0 23.9 104.1 24.0 103.0 24.7 96.55 25.45 94.1 L26.0 92.25 Q26.0 91.1 25.6 89.95 24.8 87.7 23.0 87.0 L23.8 87.2 Q26.4 87.6 27.35 86.1 28.5 83.7 30.0 82.0 29.75 82.0 29.45 81.05 L29.0 79.0 Q28.5 79.0 28.0 57.0 28.0 56.2 28.8 55.05 29.55 53.85 29.55 52.8 29.55 50.05 31.2 47.5 33.1 44.6 36.15 43.7 41.15 42.15 46.5 39.6 49.55 38.15 52.6 38.15 L57.0 40.0 Q57.05 38.65 58.85 37.05 L61.25 35.25 Q61.8 34.85 64.25 34.05 67.05 33.2 69.0 33.0 68.9 32.3 66.65 28.05 64.35 23.75 63.7 23.15 62.3 21.85 59.8 18.3 L56.0 13.0 57.05 13.05 Q58.8 12.8 60.4 14.25 L62.0 16.0 Q62.0 14.3 63.5 12.55 L65.0 11.0 Q64.45 7.6 62.0 5.0 L62.95 5.25 Q64.7 5.35 65.6 7.7 66.3 9.7 66.0 11.0 74.0 9.3 75.9 8.3 78.1 7.1 78.4 4.5 78.75 6.3 80.8 7.8 83.85 10.0 88.0 10.0 89.6 10.0 90.65 8.0 91.8 5.75 93.85 5.35 L94.05 5.85 Q93.95 7.3 92.0 12.0 92.0 12.2 93.1 12.45 94.35 13.2 95.0 16.0 96.75 14.15 98.65 13.35 L100.6 12.9 Q101.65 12.9 101.85 13.85 97.5 19.4 93.2 22.1 91.1 23.45 88.0 31.0 99.45 37.85 105.75 39.85 L117.0 42.65 Q125.6 46.25 126.3 46.9" fill="#ff0000" fill-opacity="0.9843137" fill-rule="evenodd" stroke="none"/>
  </g>
</svg>
