<?xml version="1.0" encoding="UTF-8" standalone="no"?>
<svg xmlns:xlink="http://www.w3.org/1999/xlink" height="151.45px" width="158.55px" xmlns="http://www.w3.org/2000/svg">
  <g transform="matrix(1.0, 0.0, 0.0, 1.0, -0.75, -3.8)">
    <path d="M95.55 9.65 Q96.9 13.2 100.1 17.05 102.95 20.5 103.0 21.0 108.25 29.45 112.5 34.35 L116.0 38.0 Q117.45 40.1 118.85 45.2 120.35 50.6 121.75 52.95 L125.6 59.15 125.7 60.7 125.2 67.5 Q124.8 70.85 125.0 72.0 125.55 75.25 133.2 75.25 L142.0 74.0 Q143.3 74.0 144.7 75.25 146.3 76.7 146.3 78.75 146.3 80.2 145.35 80.95 L143.0 82.0 143.0 92.0 Q146.0 95.15 149.5 97.45 L154.7 100.5 Q159.3 103.3 159.3 108.75 L158.65 110.05 158.0 111.0 159.05 114.7 158.55 116.5 158.0 118.0 157.85 122.25 156.75 121.55 156.0 121.0 Q154.4 122.5 148.35 123.95 144.0 124.95 144.0 128.5 144.0 130.9 144.55 133.35 L145.1 136.45 Q145.1 139.2 144.15 141.0 143.6 142.0 143.1 142.25 L142.4 141.5 142.0 138.0 141.6 138.1 135.4 143.4 Q129.6 148.0 125.0 148.0 121.95 148.0 116.7 144.25 L109.0 138.0 109.0 139.0 Q109.9 145.6 109.15 149.45 108.45 152.9 106.75 152.9 106.15 152.9 105.2 152.3 104.2 151.65 104.0 151.0 L106.15 149.5 Q107.2 148.25 107.2 146.0 L107.0 142.5 Q99.95 145.2 95.8 147.15 L91.65 149.15 Q89.7 150.0 74.0 153.0 L73.95 153.85 68.2 154.1 61.0 153.3 54.0 153.05 Q50.05 153.55 46.95 152.0 44.2 150.65 44.0 149.0 L44.0 147.0 63.4 143.4 66.0 143.0 65.95 142.6 Q62.05 141.4 55.4 140.65 L46.0 140.0 43.25 143.8 Q39.8 147.65 36.0 148.0 L37.1 148.6 Q39.85 149.95 40.9 152.0 L39.3 153.05 32.75 153.55 Q27.25 153.55 23.4 154.4 L16.75 155.25 12.25 154.75 Q11.0 154.1 11.0 151.65 L13.0 150.05 15.0 148.5 14.7 146.4 13.0 141.0 Q9.2 141.85 7.55 141.1 5.85 140.35 5.85 137.6 5.85 136.25 7.45 135.25 9.0 134.25 9.0 133.25 L8.25 130.0 Q7.45 127.3 6.9 126.55 L6.5 126.85 6.15 127.15 6.0 131.5 5.35 130.45 Q3.75 127.65 2.3 122.9 1.05 119.05 1.0 118.0 5.15 116.75 7.6 112.65 10.0 108.6 10.0 103.0 10.0 96.2 5.4 93.95 2.9 92.75 2.2 91.95 0.75 90.35 0.75 87.1 0.75 83.25 2.7 82.35 L7.0 82.0 Q7.0 81.4 10.9 78.0 L14.75 74.7 Q16.1 70.9 19.25 66.75 23.85 60.7 28.55 60.7 L31.6 61.85 Q34.5 63.7 34.5 67.0 34.5 70.65 31.8 73.45 30.0 75.3 25.75 77.7 20.9 80.45 19.45 81.65 16.45 84.05 16.0 87.0 22.85 85.45 24.0 92.3 L24.75 97.65 Q25.3 100.4 27.0 101.0 28.15 98.35 30.65 96.3 33.95 93.5 38.0 93.5 41.2 93.5 41.7 92.7 42.9 90.85 47.8 88.6 L47.95 88.5 48.0 87.8 44.3 86.25 Q39.85 84.3 37.0 81.0 39.1 79.4 42.0 78.25 44.95 77.1 47.0 77.0 49.05 72.45 43.9 68.7 37.9 65.55 36.95 64.6 L36.85 63.95 Q37.6 62.65 40.9 61.25 44.0 59.9 45.8 59.9 48.9 59.9 50.5 62.0 51.5 63.25 52.5 66.55 53.55 69.9 54.45 71.1 56.0 73.2 59.0 73.2 60.65 73.2 61.75 72.25 62.95 71.2 65.0 71.0 63.55 67.95 65.7 67.1 L69.8 65.7 Q71.3 64.55 72.15 62.45 73.0 60.4 73.0 58.0 73.0 53.6 71.5 52.15 69.95 50.7 69.95 46.85 69.95 44.75 72.25 42.8 74.6 40.85 77.2 40.85 80.0 40.85 82.0 43.0 84.05 45.2 84.05 48.45 84.05 49.7 82.55 51.9 L81.0 54.0 Q81.0 60.15 82.5 63.05 84.4 66.65 91.05 71.3 L92.5 72.8 Q92.9 73.4 94.3 74.0 96.55 74.95 97.0 76.0 98.15 78.75 98.7 82.65 99.05 85.25 99.75 85.25 102.3 84.45 104.3 82.25 108.3 77.9 106.0 71.0 105.7 71.05 104.05 71.85 102.45 72.65 102.0 72.65 100.55 72.65 99.9 72.05 99.0 71.25 99.0 69.0 101.15 63.85 101.15 62.85 L100.6 59.05 100.0 56.0 Q102.05 47.4 102.05 44.8 102.05 42.8 101.05 40.0 L100.3 38.2 100.5 38.0 Q101.0 37.5 101.0 38.0 101.0 35.8 98.3 31.6 95.7 27.55 93.6 25.95 92.6 25.2 90.35 24.9 L88.25 24.75 87.6 23.95 87.0 23.0 Q84.6 19.95 82.9 18.85 81.55 18.0 80.0 18.0 71.55 21.2 69.25 21.2 66.25 21.2 64.0 18.75 61.0 15.5 61.0 9.0 61.0 6.5 74.6 3.8 78.15 3.8 84.75 5.0 94.45 6.7 95.55 9.65" fill="#ff0000" fill-opacity="0.9019608" fill-rule="evenodd" stroke="none"/>
  </g>
</svg>
