<?xml version="1.0" encoding="UTF-8" standalone="no"?>
<svg xmlns:xlink="http://www.w3.org/1999/xlink" height="216.0px" width="152.05px" xmlns="http://www.w3.org/2000/svg">
  <g transform="matrix(1.0, 0.0, 0.0, 1.0, -2.0, -3.0)">
    <path d="M122.35 44.65 Q123.3 46.0 123.5 46.95 123.5 46.6 124.6 45.55 L126.25 44.05 Q126.95 44.7 127.55 45.85 L128.0 47.0 Q128.0 48.15 130.65 51.15 133.3 54.15 133.3 55.25 133.3 57.0 135.35 59.5 137.35 62.05 137.35 64.0 137.35 64.8 134.6 67.95 131.85 71.1 131.85 72.0 L133.1 75.65 Q134.3 80.45 134.3 86.6 L134.0 94.0 Q138.7 94.6 139.35 95.9 139.9 97.0 141.0 97.0 L142.3 96.5 Q143.1 96.0 143.35 95.95 144.55 97.15 144.55 97.9 L146.05 100.6 Q147.5 103.35 147.5 104.0 L146.75 104.65 Q146.0 105.15 146.0 106.0 L145.7 115.15 Q145.7 117.2 147.4 118.75 149.05 120.25 149.05 122.0 149.05 124.4 147.8 125.8 L145.05 127.75 Q141.0 130.0 141.0 134.5 141.0 135.75 142.6 137.85 144.15 139.95 144.15 140.85 144.15 147.55 143.05 153.3 L141.9 158.2 148.0 164.15 Q154.05 170.15 154.05 170.95 154.05 172.5 152.8 173.85 150.75 173.55 149.95 171.7 L149.0 170.0 148.4 170.05 148.5 170.05 Q147.65 173.7 146.95 174.65 145.1 176.95 140.0 177.0 140.0 182.15 142.65 196.4 L142.45 198.45 Q142.2 199.8 141.95 199.9 141.15 199.1 140.0 195.2 L140.15 203.35 Q140.05 205.55 139.1 206.5 135.8 203.2 135.75 197.9 135.75 195.55 135.55 195.05 135.2 193.95 133.7 193.95 130.3 193.95 129.7 198.3 L129.3 202.4 Q129.1 205.05 128.55 206.7 L128.45 206.7 Q128.05 205.4 128.25 198.85 128.4 194.7 125.6 194.7 L123.0 194.8 Q122.95 202.55 121.75 205.35 L121.3 202.3 121.0 199.0 Q121.0 194.95 120.65 194.45 119.85 193.35 115.35 193.35 113.75 193.35 113.45 197.15 112.95 203.0 112.15 205.3 L111.95 205.2 110.75 199.9 Q109.6 194.9 109.0 194.0 L109.0 196.0 Q109.05 199.25 107.85 200.45 107.15 201.1 105.85 201.1 108.8 203.0 106.3 205.55 103.0 208.95 103.0 209.5 L103.3 211.8 Q103.55 213.45 103.3 213.75 102.2 213.5 101.8 212.7 101.5 212.0 101.0 212.0 90.6 215.45 89.1 215.45 83.45 215.45 78.0 217.25 72.55 219.0 71.5 219.0 70.8 219.0 66.2 215.1 60.85 210.5 60.0 207.1 57.05 206.9 53.75 204.75 51.0 202.95 44.0 197.0 42.5 201.2 42.0 204.5 L39.5 195.4 Q38.8 193.0 38.0 193.0 34.25 193.0 33.05 193.65 32.15 194.2 32.3 195.75 L32.7 199.5 Q32.7 202.3 31.3 205.05 L31.15 205.0 Q30.5 204.35 30.05 200.7 29.55 197.0 30.0 194.95 25.65 193.95 25.1 197.0 24.75 198.8 25.0 203.5 24.25 202.65 23.65 200.1 22.95 197.25 23.0 194.5 21.4 194.5 20.55 193.75 L20.0 193.0 Q15.25 193.0 14.6 198.55 14.3 201.45 14.6 205.55 L14.5 205.5 Q13.5 202.75 13.5 202.0 L13.5 198.2 Q13.3 196.4 12.0 193.0 L11.85 194.0 11.1 198.7 10.7 199.75 Q10.4 199.25 10.0 197.0 9.75 197.0 9.35 192.4 L9.0 187.0 Q9.0 186.15 11.5 184.85 14.0 183.55 14.0 180.5 14.0 175.95 11.85 175.15 8.7 174.05 7.4 171.1 L5.5 173.35 Q4.5 174.35 3.7 174.35 2.95 174.35 2.5 173.45 1.95 172.4 2.0 170.45 L2.0 167.0 8.0 166.0 12.1 156.55 Q13.3 152.95 13.3 149.6 L12.9 148.1 12.0 146.0 12.0 147.0 Q12.2 147.9 11.55 149.5 L10.55 151.5 10.15 149.55 9.95 147.15 Q9.95 144.45 11.0 139.9 12.0 135.3 12.0 129.0 L13.0 129.0 13.0 125.0 14.0 125.0 Q15.9 120.0 18.0 118.05 L21.0 115.65 19.0 113.4 Q17.85 111.85 17.85 110.1 17.85 109.5 18.75 107.75 19.0 107.25 19.0 74.0 L20.0 74.0 Q19.3 67.6 15.0 61.0 19.5 60.15 21.2 54.45 L22.45 51.0 Q23.3 49.6 25.0 50.0 L25.0 43.0 Q27.25 43.7 27.7 44.0 28.85 44.8 29.0 47.0 L31.0 47.0 31.0 43.0 31.95 43.15 Q33.3 43.7 36.15 47.45 39.75 51.0 45.5 51.0 L46.25 50.5 Q46.45 50.0 46.95 50.0 49.25 50.0 53.35 51.4 57.8 52.9 59.0 53.0 L58.85 52.05 Q53.65 37.65 51.75 35.4 50.7 34.15 44.85 30.7 38.2 26.8 36.0 25.0 L40.0 24.9 Q41.0 24.7 41.0 24.0 49.5 23.35 56.25 32.55 59.6 37.2 61.25 42.05 61.25 42.75 60.15 43.35 59.0 43.95 59.0 46.5 59.0 47.95 59.45 49.1 L60.0 50.0 Q62.4 50.0 63.9 48.7 65.0 47.75 65.0 47.0 L64.0 45.3 Q63.0 43.4 63.0 42.0 63.0 41.0 64.15 40.9 65.3 40.8 65.3 40.15 65.3 38.75 63.85 37.15 62.05 35.1 61.0 31.0 L63.0 31.0 Q64.5 32.1 65.75 32.1 71.55 32.1 74.4 22.2 76.8 13.75 76.0 4.0 L77.0 4.0 77.0 3.0 Q78.65 3.5 79.4 5.75 80.1 7.95 80.1 12.2 L79.85 17.95 79.0 18.0 79.0 24.0 Q84.6 25.95 91.05 27.6 94.7 29.15 94.7 34.15 94.7 36.45 93.5 37.9 92.15 39.55 90.0 39.0 91.0 43.5 91.0 44.55 L90.65 46.8 90.0 49.0 92.6 49.1 94.0 50.0 Q96.05 50.0 100.85 46.6 L106.0 43.0 Q103.8 46.35 100.85 49.65 L97.5 53.0 Q97.95 53.0 100.55 51.85 103.15 50.7 105.65 50.7 L109.0 51.0 Q112.9 46.9 116.95 46.75 118.35 46.65 118.65 46.35 119.15 45.8 119.0 43.65 L121.05 43.35 Q121.4 43.35 122.35 44.65" fill="#ff0000" fill-opacity="0.9607843" fill-rule="evenodd" stroke="none"/>
  </g>
</svg>
