<?xml version="1.0" encoding="UTF-8" standalone="no"?>
<svg xmlns:xlink="http://www.w3.org/1999/xlink" height="37.45px" width="41.0px" xmlns="http://www.w3.org/2000/svg">
  <g transform="matrix(1.0, 0.0, 0.0, 1.0, -1.0, -1.0)">
    <path d="M42.0 24.0 L42.0 26.0 42.0 27.0 41.0 27.0 40.75 27.8 Q31.2 40.6 16.0 38.0 L15.05 37.85 11.0 36.0 10.2 35.75 Q6.5 33.0 2.0 31.0 L1.45 30.85 Q1.0 29.5 1.0 28.0 L1.0 27.0 1.0 19.0 1.0 18.0 1.0 10.0 2.0 10.0 3.0 10.0 4.0 10.0 4.0 9.0 5.1 8.2 6.0 8.0 Q8.0 7.0 10.05 6.15 L11.0 6.0 11.0 5.0 Q16.45 3.95 20.15 1.25 20.5 1.0 21.0 1.0 L22.0 1.0 23.1 1.8 24.0 2.0 Q27.05 3.95 30.85 5.45 L31.0 6.0 Q33.0 6.5 34.8 7.4 L35.0 8.0 Q37.35 8.65 39.15 9.8 L40.0 10.0 Q41.7 11.3 41.1 15.0 L41.0 16.0 41.0 21.0 41.0 22.0 41.0 23.0 41.0 24.0 42.0 24.0" fill="#ff0000" fill-rule="evenodd" stroke="none"/>
  </g>
</svg>
