<?xml version="1.0" encoding="UTF-8" standalone="no"?>
<svg xmlns:xlink="http://www.w3.org/1999/xlink" height="18.0px" width="39.0px" xmlns="http://www.w3.org/2000/svg">
  <g transform="matrix(1.0, 0.0, 0.0, 1.0, 0.0, 0.0)">
    <path d="M33.0 12.0 L32.2 12.25 Q27.85 15.8 24.0 13.0 L23.75 13.75 23.0 14.0 22.8 14.6 Q22.0 15.0 21.0 15.0 L21.0 16.0 21.95 16.15 Q25.9 17.8 19.0 18.0 L18.0 17.9 Q15.2 17.3 14.0 15.0 L15.0 15.0 16.0 15.0 16.0 14.0 16.0 13.0 Q15.5 13.0 15.4 12.8 15.0 12.0 15.0 11.0 L16.0 11.0 Q16.0 10.5 15.8 10.4 L14.0 10.0 13.0 10.0 11.0 10.0 10.0 10.0 9.0 10.0 8.8 10.6 Q3.95 13.0 2.0 8.0 L1.0 8.0 0.0 8.0 0.0 7.0 1.1 6.2 2.0 6.0 Q3.05 5.05 5.0 5.0 L6.0 5.0 8.85 5.45 9.0 6.0 Q10.95 6.05 12.15 6.75 L13.0 7.0 14.0 7.0 15.0 7.0 15.0 6.0 14.25 5.75 Q14.0 5.5 14.0 5.0 L13.45 4.85 Q13.0 3.5 13.0 2.0 16.2 1.3 16.85 3.05 L17.0 4.0 18.0 4.0 18.0 3.0 18.0 2.0 Q19.05 1.05 20.85 0.55 L21.0 0.0 23.0 0.0 24.0 0.0 25.0 0.0 Q25.3 1.7 26.8 2.4 L27.0 3.0 Q32.9 5.1 38.1 7.8 L39.0 8.0 39.0 9.0 38.0 9.0 37.85 9.55 35.0 10.0 34.5 10.0 Q34.65 12.15 33.0 12.0" fill="#ff0000" fill-rule="evenodd" stroke="none"/>
  </g>
</svg>
