<?xml version="1.0" encoding="UTF-8" standalone="no"?>
<svg xmlns:xlink="http://www.w3.org/1999/xlink" height="42.0px" width="40.0px" xmlns="http://www.w3.org/2000/svg">
  <g transform="matrix(1.0, 0.0, 0.0, 1.0, 0.0, -1.0)">
    <path d="M39.0 12.0 L40.0 12.0 40.0 32.0 40.0 33.0 39.0 33.0 38.8 33.6 Q33.1 36.1 28.0 39.0 L27.2 39.25 Q24.85 41.35 21.0 42.0 L21.0 43.0 20.0 43.0 19.0 43.0 19.0 42.5 Q16.9 42.65 17.0 41.0 L16.1 40.8 Q8.1 37.4 1.0 33.0 L0.0 33.0 0.0 32.0 0.0 13.0 1.0 13.0 1.0 12.0 Q10.3 7.0 19.15 1.25 19.5 1.0 20.0 1.0 L22.75 3.25 23.0 4.0 Q32.1 5.75 38.25 11.75 L39.0 12.0" fill="#ff0000" fill-rule="evenodd" stroke="none"/>
  </g>
</svg>
