<?xml version="1.0" encoding="UTF-8" standalone="no"?>
<svg xmlns:xlink="http://www.w3.org/1999/xlink" height="42.0px" width="40.25px" xmlns="http://www.w3.org/2000/svg">
  <g transform="matrix(1.0, 0.0, 0.0, 1.0, 0.0, -1.0)">
    <path d="M30.0 8.0 Q36.8 7.8 39.8 14.1 L40.0 15.0 40.0 18.0 40.0 19.0 40.0 26.0 40.0 27.0 40.05 28.0 Q40.7 32.2 39.0 34.0 L38.9 34.55 35.0 35.0 34.8 35.65 Q28.35 39.35 21.0 42.0 L21.0 43.0 20.0 43.0 18.0 43.0 18.0 42.0 17.1 41.8 5.0 35.0 4.25 34.75 Q3.0 33.5 1.0 33.0 L0.0 33.0 0.0 32.0 0.0 29.0 0.0 28.0 0.0 12.0 1.0 12.0 Q4.0 8.25 7.0 8.9 L8.0 9.0 9.0 9.0 9.0 8.0 19.15 1.25 Q19.5 1.0 20.0 1.0 24.3 4.7 29.8 7.4 L30.0 8.0" fill="#ff0000" fill-rule="evenodd" stroke="none"/>
  </g>
</svg>
