<?xml version="1.0" encoding="UTF-8" standalone="no"?>
<svg xmlns:xlink="http://www.w3.org/1999/xlink" height="51.0px" width="78.0px" xmlns="http://www.w3.org/2000/svg">
  <g transform="matrix(1.0, 0.0, 0.0, 1.0, 0.0, -1.0)">
    <path d="M71.0 19.0 Q73.05 24.95 77.2 28.75 L78.0 29.0 78.0 31.0 78.0 32.0 77.05 32.15 Q68.0 35.7 68.0 40.0 L67.9 40.5 Q59.95 41.8 56.0 46.0 L56.0 46.5 Q46.8 45.65 40.0 51.0 L40.0 52.0 39.0 52.0 38.0 52.0 37.8 51.4 Q25.1 45.05 15.0 41.0 L14.25 40.75 Q8.5 35.0 0.0 32.0 L0.0 31.0 0.0 29.0 Q3.15 27.15 5.3 24.25 5.5 24.0 6.0 24.0 L6.0 23.0 6.0 21.0 Q9.45 16.95 8.5 8.0 L9.0 8.0 9.0 7.0 Q19.1 -1.25 25.3 6.75 25.5 7.0 26.0 7.0 31.9 4.4 37.15 1.2 L38.0 1.0 Q50.75 5.25 61.15 11.75 L62.0 12.0 70.2 18.75 71.0 19.0" fill="#ff0000" fill-rule="evenodd" stroke="none"/>
  </g>
</svg>
