<?xml version="1.0" encoding="UTF-8" standalone="no"?>
<svg xmlns:xlink="http://www.w3.org/1999/xlink" height="52.0px" width="77.0px" xmlns="http://www.w3.org/2000/svg">
  <g transform="matrix(1.0, 0.0, 0.0, 1.0, -1.0, -5.0)">
    <path d="M70.0 21.0 Q73.4 25.6 77.25 29.75 L78.0 30.0 78.0 31.0 78.0 32.0 77.2 32.25 68.0 39.0 67.5 39.0 Q73.85 45.55 64.0 45.0 L63.75 45.75 Q54.65 55.35 52.0 47.0 51.5 47.0 51.3 47.25 45.5 54.5 35.0 57.0 L34.2 56.75 18.0 44.0 17.1 43.8 Q7.1 38.4 1.0 29.0 L1.0 28.0 Q6.25 27.25 7.85 22.95 L8.0 22.0 Q8.0 21.5 8.25 21.15 11.45 16.65 8.0 10.0 10.65 6.45 14.75 9.35 L15.0 10.0 Q20.45 11.45 20.5 7.0 L21.0 7.0 21.0 6.0 Q30.7 11.7 38.75 5.7 L39.0 5.0 Q48.2 8.8 55.2 14.75 L56.0 15.0 Q63.1 17.4 69.1 20.8 L70.0 21.0" fill="#ff0000" fill-rule="evenodd" stroke="none"/>
  </g>
</svg>
