<?xml version="1.0" encoding="UTF-8" standalone="no"?>
<svg xmlns:xlink="http://www.w3.org/1999/xlink" height="96.0px" width="61.0px" xmlns="http://www.w3.org/2000/svg">
  <g transform="matrix(1.0, 0.0, 0.0, 1.0, 0.0, -1.0)">
    <path d="M47.95 48.65 Q47.85 49.0 47.0 49.0 47.65 49.5 49.0 49.5 L46.7 57.55 Q45.0 63.6 45.0 67.5 45.0 71.75 52.15 75.4 55.9 77.3 61.0 79.0 L61.0 82.0 Q60.35 82.05 46.15 89.15 L39.1 92.7 Q32.0 96.4 32.0 97.0 L30.0 97.0 Q29.7 95.9 14.8 88.35 0.0 80.95 0.0 79.5 L7.3 74.45 Q15.0 68.8 16.65 65.15 17.4 63.5 17.45 59.7 17.5 55.95 18.45 53.95 L19.45 52.4 19.95 51.75 19.75 50.8 19.0 50.0 Q20.7 50.15 21.6 49.25 22.5 48.35 22.5 46.65 22.5 43.4 20.5 41.95 16.85 39.25 14.65 36.0 14.25 35.4 13.55 33.0 12.9 30.8 12.35 30.25 10.3 28.3 6.65 28.0 L8.0 28.0 Q14.95 24.2 19.05 22.2 19.8 21.7 21.25 18.1 21.6 17.1 21.5 15.0 22.0 15.0 22.0 14.0 L23.3 12.55 Q25.8 10.6 32.05 8.15 33.35 7.65 34.5 6.0 L36.15 3.65 Q38.9 1.15 41.0 1.0 41.8 1.0 42.85 2.2 43.85 3.35 43.85 4.1 43.85 4.95 41.95 6.85 40.0 8.8 40.0 12.0 40.0 14.6 41.2 16.45 42.3 18.1 42.15 19.95 41.95 21.8 39.9 24.2 38.0 26.45 38.0 30.0 L39.0 37.05 38.85 37.3 Q37.4 36.6 37.0 36.0 L33.9 39.2 Q33.0 40.0 33.0 40.5 33.0 45.75 39.6 46.2 L44.6 46.55 Q47.2 47.0 47.95 48.65" fill="#ff0000" fill-opacity="0.99215686" fill-rule="evenodd" stroke="none"/>
  </g>
</svg>
