<?xml version="1.0" encoding="UTF-8" standalone="no"?>
<svg xmlns:xlink="http://www.w3.org/1999/xlink" height="122.0px" width="61.0px" xmlns="http://www.w3.org/2000/svg">
  <g transform="matrix(1.0, 0.0, 0.0, 1.0, 0.0, -1.0)">
    <path d="M44.85 5.5 Q45.2 5.0 45.7 5.0 49.0 5.0 49.0 6.3 49.0 7.65 48.0 8.5 45.55 10.65 44.45 11.95 41.9 14.9 41.85 19.8 41.8 22.25 42.3 24.15 42.3 24.8 41.95 24.95 L41.0 25.0 Q40.85 26.5 42.45 27.65 44.05 28.85 44.05 29.75 44.05 30.4 42.4 32.7 L40.7 34.95 Q40.7 37.35 41.65 39.85 42.6 42.35 42.6 43.5 42.6 44.8 40.3 48.55 38.0 52.35 38.0 56.0 38.0 58.55 38.45 60.45 L39.1 62.55 39.0 63.1 39.1 63.25 38.6 63.35 37.45 62.85 36.0 62.0 Q35.1 65.75 33.0 66.0 32.0 69.7 37.0 70.6 L48.45 71.5 48.65 71.45 Q48.85 71.45 48.85 72.05 48.85 73.3 47.0 75.0 47.65 75.5 49.0 75.5 L46.75 83.25 Q45.0 89.0 45.0 93.0 45.0 97.85 52.1 101.5 55.8 103.35 61.0 105.0 L61.0 108.0 Q60.35 108.05 46.15 115.15 L39.1 118.7 Q32.0 122.4 32.0 123.0 L30.0 123.0 29.8 122.4 0.0 108.0 0.0 104.0 2.0 104.0 Q11.3 99.4 13.4 97.3 16.85 93.75 17.95 85.0 18.55 80.3 19.35 79.0 L19.95 77.75 19.75 76.8 19.0 76.0 Q21.15 75.35 21.9 74.55 22.5 73.85 22.5 72.55 22.5 69.25 19.7 67.35 16.15 65.0 14.8 61.4 14.7 58.75 13.95 57.35 12.6 54.75 7.0 54.0 7.5 53.6 12.6 51.7 17.6 49.85 19.55 48.05 21.05 46.7 21.35 44.4 L21.5 41.95 Q22.2 39.8 23.2 38.2 L24.0 37.0 Q24.0 36.15 23.3 35.4 22.55 34.6 21.6 34.6 20.75 34.6 19.6 36.1 18.25 37.85 19.0 39.5 17.7 39.3 17.15 38.3 16.65 37.4 16.65 35.6 16.65 33.35 17.45 31.1 18.15 29.15 18.75 28.75 19.0 29.0 19.0 28.0 L17.5 27.1 Q16.0 25.9 16.0 24.0 L18.5 19.8 Q21.0 15.05 21.0 12.0 L18.0 7.3 Q15.05 2.4 15.0 1.0 15.95 1.05 17.7 2.05 19.55 3.05 25.45 3.65 L44.0 5.95 Q44.5 6.0 44.85 5.5" fill="#ff0000" fill-opacity="0.9843137" fill-rule="evenodd" stroke="none"/>
  </g>
</svg>
