<?xml version="1.0" encoding="UTF-8" standalone="no"?>
<svg xmlns:xlink="http://www.w3.org/1999/xlink" height="156.45px" width="61.0px" xmlns="http://www.w3.org/2000/svg">
  <g transform="matrix(1.0, 0.0, 0.0, 1.0, 0.0, -2.55)">
    <path d="M44.3 4.95 L44.8 3.9 45.0 3.0 Q46.85 6.2 46.85 13.6 46.85 21.0 44.1 26.9 41.35 32.9 35.0 39.0 34.8 41.8 37.9 41.9 L44.2 41.45 Q48.3 41.45 48.3 43.3 48.3 44.9 44.65 47.75 41.0 52.25 41.0 62.0 L42.4 62.85 Q43.9 64.1 44.5 66.4 L44.4 66.9 44.0 68.0 43.5 67.5 42.65 67.3 Q41.85 67.3 41.4 68.3 41.05 69.15 41.05 70.3 41.05 73.25 41.65 74.5 42.2 75.8 42.2 77.8 L40.1 84.3 Q38.0 90.55 38.0 92.0 L39.0 99.05 38.85 99.3 36.5 98.0 Q36.0 100.95 34.4 100.75 33.0 100.6 33.0 102.0 33.0 104.7 34.1 105.7 34.85 106.35 36.85 106.5 41.95 106.9 44.0 110.0 44.75 109.5 46.3 108.85 47.7 108.3 48.1 108.3 L48.55 108.35 Q48.85 108.5 48.85 109.15 L48.45 110.6 Q48.05 111.55 48.05 112.05 48.05 112.55 48.8 113.05 49.5 113.5 49.5 114.0 49.5 114.7 48.6 116.85 47.45 119.65 46.0 120.0 L45.55 126.8 45.0 132.0 Q45.0 134.45 50.55 136.55 59.1 139.8 61.0 141.0 L61.0 144.0 Q55.8 144.95 45.1 151.0 40.35 153.7 32.0 159.0 L30.0 159.0 Q23.0 153.65 10.0 148.05 0.0 143.7 0.0 142.0 0.0 141.25 0.65 140.65 1.25 140.0 2.0 140.0 2.0 137.6 7.1 135.9 9.7 135.0 13.1 134.2 L13.75 133.85 16.05 128.55 Q16.8 126.95 17.25 121.55 17.65 117.05 18.45 117.05 L19.45 116.35 Q20.0 115.65 20.0 115.0 L19.85 112.0 22.0 112.0 Q21.85 110.15 17.3 101.4 11.9 91.05 8.25 90.15 L7.0 90.0 Q8.15 89.05 13.95 86.95 19.35 85.0 20.0 84.0 20.55 83.15 21.3 77.85 21.85 73.9 25.0 73.0 L24.4 71.9 23.0 70.0 19.65 72.15 Q19.0 72.85 19.0 75.5 17.7 75.3 17.15 74.3 16.65 73.4 16.65 71.6 16.5 68.15 18.95 64.45 L19.0 64.0 Q17.25 64.05 16.6 63.4 16.0 62.75 16.0 61.0 16.0 58.7 18.1 54.45 L20.15 50.0 Q20.15 47.0 18.25 43.8 15.75 39.65 15.0 37.0 15.9 37.6 17.05 37.7 L18.0 36.45 18.65 34.95 18.2 33.7 17.0 32.0 Q22.55 26.0 23.15 24.05 L23.0 19.5 Q23.0 18.5 24.8 17.55 L28.75 15.75 Q34.4 12.85 34.0 7.0 36.15 8.3 37.05 8.3 37.45 8.3 38.3 7.2 39.75 5.2 43.05 2.55 43.0 3.45 44.3 4.95" fill="#ff0000" fill-opacity="0.9764706" fill-rule="evenodd" stroke="none"/>
  </g>
</svg>
