<?xml version="1.0" encoding="UTF-8" standalone="no"?>
<svg xmlns:xlink="http://www.w3.org/1999/xlink" height="163.0px" width="61.0px" xmlns="http://www.w3.org/2000/svg">
  <g transform="matrix(1.0, 0.0, 0.0, 1.0, 0.0, -1.0)">
    <path d="M48.25 12.9 Q48.25 16.65 47.15 21.65 L46.0 26.0 Q46.0 28.35 43.65 33.35 40.35 40.25 35.0 44.0 36.95 46.85 41.95 48.3 46.25 49.5 49.0 49.0 46.55 50.55 43.8 56.35 40.85 62.5 40.85 67.0 40.85 68.05 42.25 68.8 43.6 69.5 43.6 71.8 43.6 72.35 42.2 74.1 40.8 75.85 40.8 76.9 40.8 78.0 41.75 81.75 L42.7 85.75 Q42.7 88.2 40.7 91.5 38.45 95.1 38.0 99.0 37.45 103.75 35.15 105.85 33.0 107.8 33.0 108.0 33.0 110.2 35.35 110.95 L40.55 111.6 Q48.45 112.05 49.1 116.0 L50.05 117.2 50.75 117.45 49.0 119.35 Q48.4 119.75 48.1 120.4 L47.9 120.95 45.35 130.75 Q45.0 132.25 45.0 133.0 45.0 137.8 53.0 142.65 L58.5 145.7 Q61.0 147.05 61.0 147.5 61.0 148.85 60.1 149.2 46.1 156.05 40.8 158.8 32.0 163.35 32.0 164.0 L30.0 164.0 Q29.55 162.05 23.4 159.35 L0.0 149.0 0.0 145.0 2.0 145.0 Q10.75 140.85 13.75 138.0 17.7 134.25 18.0 128.0 18.35 121.05 20.25 118.7 22.0 116.5 22.0 113.0 22.0 111.65 18.35 106.35 13.55 99.4 7.0 95.0 15.75 92.0 19.0 88.9 22.55 85.5 22.55 79.4 22.55 77.85 21.0 76.5 20.8 77.7 18.9 79.6 L18.55 79.5 18.25 79.15 18.75 73.75 Q18.8 69.65 16.0 68.0 L18.6 61.65 Q21.0 55.05 21.0 54.25 L18.8 50.1 16.55 45.75 Q16.55 43.3 18.05 42.65 19.5 41.95 19.5 39.55 L19.05 38.05 18.0 36.0 Q19.15 35.15 23.35 28.8 27.5 22.55 28.0 21.0 26.35 20.6 25.25 19.45 24.0 18.05 24.0 16.0 24.0 11.15 26.5 6.0 28.95 1.0 31.0 1.0 35.95 1.0 38.05 3.55 L39.4 5.6 Q40.15 6.65 41.0 7.0 41.85 7.25 45.25 6.3 48.25 6.55 48.25 12.9" fill="#ff0000" fill-opacity="0.9019608" fill-rule="evenodd" stroke="none"/>
  </g>
</svg>
