<?xml version="1.0" encoding="UTF-8" standalone="no"?>
<svg xmlns:xlink="http://www.w3.org/1999/xlink" height="118.0px" width="74.0px" xmlns="http://www.w3.org/2000/svg">
  <g transform="matrix(1.0, 0.0, 0.0, 1.0, 0.0, -1.0)">
    <path d="M16.0 30.0 L15.25 29.75 14.0 28.0 13.0 28.0 12.0 28.0 11.0 28.0 11.0 29.0 11.0 30.0 10.9 31.0 Q10.2 34.2 9.0 37.0 L9.0 38.0 9.0 39.0 9.1 39.95 Q9.65 42.15 8.0 42.0 L8.0 43.0 8.0 45.0 8.0 46.0 8.0 47.0 8.0 49.0 8.0 50.0 8.0 51.0 8.0 53.0 8.0 54.0 8.0 55.0 8.0 56.0 8.0 58.0 8.0 59.0 8.0 60.0 8.0 61.0 8.0 65.0 8.0 66.0 8.0 67.0 Q9.7 68.3 9.1 72.0 L9.0 73.0 9.0 74.0 9.0 75.0 Q10.8 73.8 11.8 71.9 L12.0 71.0 12.0 70.0 Q13.5 69.0 14.4 67.2 14.5 67.0 15.0 67.0 L15.0 66.0 15.0 65.0 Q16.7 64.7 17.4 63.2 17.5 63.0 18.0 63.0 L19.0 63.0 19.0 62.0 Q21.1 59.6 21.9 56.0 L22.0 55.0 22.0 54.0 22.0 53.0 Q23.7 51.7 23.5 48.0 L24.0 48.0 24.0 47.0 24.0 46.0 24.0 45.0 24.0 43.0 Q25.7 42.7 25.5 40.0 L26.0 40.0 26.0 39.0 26.0 38.0 25.15 37.8 21.0 35.0 20.1 34.8 Q19.5 34.5 19.0 34.0 18.5 34.0 18.3 33.75 17.0 32.0 16.0 30.0 M54.0 36.0 L53.8 36.6 Q53.0 37.0 52.0 37.0 52.0 37.5 51.8 37.6 50.0 38.5 48.0 39.0 L47.75 39.75 46.0 41.0 46.0 48.0 46.0 49.0 46.0 51.0 46.0 52.0 Q47.8 55.2 48.85 59.05 L49.0 60.0 50.75 62.15 51.0 63.0 52.75 65.15 53.0 66.0 53.8 67.1 54.0 68.0 56.75 70.25 57.0 71.0 57.75 71.25 58.0 72.0 Q59.8 73.2 60.8 75.1 L61.0 76.0 62.75 77.25 63.0 78.0 64.0 78.0 64.0 77.0 65.0 77.0 65.0 76.0 65.0 72.0 Q66.7 71.7 66.95 70.0 L67.0 69.0 67.0 68.0 67.0 65.0 67.0 64.0 67.0 59.0 67.0 58.0 67.0 56.0 66.8 55.1 Q65.55 52.95 66.0 49.0 L66.0 48.0 65.5 47.9 Q65.0 45.0 65.0 42.0 L65.0 41.0 65.0 40.0 Q64.5 40.0 64.35 39.8 63.0 37.5 62.0 35.0 L61.5 34.95 Q61.1 31.9 57.0 33.0 L56.75 33.75 54.0 36.0 M62.0 21.0 L62.0 20.0 65.9 20.45 66.0 21.0 Q67.65 20.9 67.1 23.05 L67.0 24.0 68.0 24.0 Q69.75 26.25 68.55 30.9 L68.0 31.0 68.0 32.0 68.0 35.0 68.0 36.0 Q67.4 38.15 68.9 38.45 L69.0 39.0 69.0 40.0 69.8 41.1 70.0 42.0 Q71.7 42.3 71.1 45.0 L71.0 46.0 Q72.65 45.9 72.1 48.05 L72.0 49.0 Q73.7 49.3 73.1 52.0 L73.0 53.0 74.0 53.0 74.0 65.0 74.0 66.0 73.0 66.0 73.0 67.0 73.1 68.0 Q73.7 71.7 72.0 73.0 L72.0 74.0 72.0 75.0 Q71.9 77.9 70.0 79.0 L69.75 79.75 69.0 80.0 68.75 80.75 67.0 82.0 67.8 83.1 68.0 84.0 Q68.5 84.0 68.75 84.25 L69.0 85.0 Q71.3 88.35 69.2 92.1 L69.0 93.0 70.8 93.4 71.0 94.0 Q72.75 96.25 71.55 100.9 L71.0 101.0 70.8 101.9 70.0 103.0 69.75 103.7 Q67.25 105.75 62.0 105.0 L61.0 104.9 Q57.25 104.25 56.0 101.0 L55.0 101.0 54.9 101.5 49.0 102.0 48.1 102.2 Q45.95 103.45 43.0 104.0 L43.0 105.0 Q43.05 106.95 43.75 108.15 L44.0 109.0 Q45.75 111.25 44.55 115.9 L44.0 116.0 43.85 116.55 Q42.05 117.05 41.0 118.0 L40.0 118.0 40.0 119.0 39.0 119.0 34.0 119.0 34.0 118.0 33.0 118.0 32.1 117.8 Q31.5 117.5 31.0 117.0 L30.45 116.85 Q29.95 115.05 29.0 114.0 L28.5 113.95 Q28.0 110.5 28.0 107.0 L29.0 107.0 Q31.15 107.65 31.05 106.0 L31.0 105.0 30.05 104.85 Q25.1 102.9 21.0 100.0 L20.0 100.0 19.0 100.0 18.85 100.55 Q16.05 101.55 15.0 104.0 L14.9 104.5 9.0 105.0 8.0 105.0 7.05 104.85 Q4.05 103.95 2.0 102.0 L1.5 101.95 Q1.0 98.5 1.0 95.0 L2.0 95.0 2.0 94.0 2.75 93.75 3.0 93.0 3.0 92.0 3.0 91.0 2.5 90.9 Q2.0 88.0 2.0 85.0 L3.0 85.0 3.0 84.0 4.0 84.0 3.85 83.05 Q2.45 79.55 2.0 75.0 L1.75 74.2 Q0.25 72.2 1.0 68.0 L1.0 67.0 0.0 67.0 0.0 66.0 0.0 58.0 0.0 57.0 0.0 52.0 1.0 52.0 1.0 51.0 1.0 48.0 1.0 47.0 1.0 45.0 Q2.7 43.7 2.1 40.0 L2.0 39.0 2.0 38.0 Q3.45 34.95 3.95 31.0 L4.0 30.0 4.0 29.0 4.8 27.9 5.0 27.0 4.0 27.0 3.5 26.9 Q3.0 24.0 3.0 21.0 L4.0 21.0 4.0 20.0 4.0 17.0 5.0 17.0 6.0 17.0 7.0 17.0 8.0 17.0 8.0 16.0 Q9.55 14.05 12.95 14.5 L13.0 15.0 15.15 16.75 16.0 17.0 17.1 16.2 18.0 16.0 19.0 16.0 20.0 16.0 20.0 15.0 21.0 15.0 21.0 14.0 Q23.0 13.5 24.8 12.6 25.0 12.5 25.0 12.0 L25.0 11.0 Q25.65 8.65 28.0 8.1 L29.0 8.0 29.0 7.0 30.0 7.0 31.0 7.0 31.0 6.0 31.0 5.0 31.0 3.0 34.0 3.0 35.0 3.0 35.0 2.0 36.0 2.0 36.0 1.0 39.9 1.45 40.0 2.0 Q41.65 1.9 41.5 4.0 L42.0 4.0 42.0 3.0 Q51.35 3.35 51.05 9.0 L51.0 10.0 Q55.4 12.6 56.85 18.05 L57.0 19.0 57.0 20.0 57.0 21.0 Q57.3 23.2 60.0 23.05 L61.0 23.0 61.0 22.0 62.0 22.0 62.0 21.0" fill="#ff0000" fill-rule="evenodd" stroke="none"/>
  </g>
</svg>
