<?xml version="1.0" encoding="UTF-8" standalone="no"?>
<svg xmlns:xlink="http://www.w3.org/1999/xlink" height="37.0px" width="94.0px" xmlns="http://www.w3.org/2000/svg">
  <g transform="matrix(1.0, 0.0, 0.0, 1.0, -1.0, -1.0)">
    <path d="M90.0 15.0 L91.0 15.0 92.0 15.0 93.0 15.0 94.0 15.0 95.0 15.0 95.0 19.0 95.0 20.0 95.0 23.0 95.0 24.0 94.0 24.0 Q94.0 24.5 93.8 24.6 93.0 25.0 92.0 25.0 L92.0 25.5 Q88.65 25.65 87.0 27.0 L86.0 27.0 85.8 27.9 85.0 29.0 Q85.0 29.5 84.8 29.6 84.0 30.0 83.0 30.0 L82.75 30.65 Q80.55 32.05 79.0 34.0 L78.0 34.0 77.0 34.0 76.0 34.0 74.0 34.0 73.9 34.5 Q66.75 35.75 62.0 34.0 L61.25 33.75 Q61.0 33.5 61.0 33.0 L60.0 33.05 Q57.3 33.2 57.0 31.0 L58.0 31.0 58.0 30.0 58.75 29.75 59.0 29.0 58.0 29.0 57.0 29.0 56.0 29.0 55.0 29.0 54.9 29.55 51.0 30.0 50.5 30.1 Q50.15 31.65 48.0 31.0 L47.0 31.0 46.0 31.0 45.5 31.1 Q45.15 32.65 43.0 32.0 L42.05 32.15 Q41.0 32.5 40.0 33.0 L39.0 33.0 38.0 33.0 37.0 33.0 Q36.5 33.0 36.3 33.25 35.2 34.7 32.0 34.0 L31.0 34.0 30.85 34.55 28.0 35.0 27.0 35.0 26.9 35.55 23.0 36.0 22.9 36.55 19.0 37.0 18.0 37.0 18.0 38.0 17.0 38.0 16.0 38.0 15.95 37.5 Q12.9 37.1 14.0 33.0 L15.0 33.0 15.0 32.0 18.0 32.0 19.0 32.0 19.0 31.0 23.0 31.0 24.0 31.0 24.0 30.0 27.0 30.0 28.0 30.0 28.0 29.0 29.0 29.0 29.0 28.0 29.0 27.0 28.1 26.8 Q26.2 25.8 25.0 24.0 24.5 24.0 24.4 23.8 22.75 20.25 19.0 19.0 L18.0 19.0 Q16.05 19.05 15.0 20.0 L14.75 20.75 13.0 22.0 12.75 22.75 11.0 24.0 10.8 24.6 Q9.0 25.5 7.0 26.0 L6.9 26.5 Q3.35 27.15 4.0 24.0 L4.0 23.5 Q1.3 23.7 1.0 22.0 L1.0 21.0 1.0 20.0 Q4.35 20.35 6.15 19.25 L7.0 19.0 7.0 18.0 11.0 17.1 12.0 17.0 12.0 16.0 13.1 15.2 14.0 15.0 14.0 14.0 Q16.75 12.75 17.5 9.1 L18.0 9.0 18.0 8.0 18.8 6.9 19.0 6.0 19.0 5.0 20.0 5.0 20.0 4.0 25.9 4.5 26.0 5.0 27.0 5.0 28.0 5.0 Q29.95 4.95 31.15 4.25 L32.0 4.0 32.0 3.0 40.0 3.0 41.0 3.0 Q42.0 2.5 43.05 2.15 L44.0 2.0 Q46.15 2.65 46.45 1.1 L47.0 1.0 Q50.5 0.95 52.8 2.35 53.0 2.5 53.0 3.0 53.5 3.5 54.1 3.8 L55.0 4.0 56.0 4.0 Q58.15 3.4 58.5 4.9 L59.0 5.0 67.0 5.0 68.0 5.0 68.0 4.0 Q73.5 3.0 72.1 9.05 L72.0 10.0 71.75 10.75 71.0 11.0 71.0 12.0 Q71.0 12.5 71.25 12.75 L72.0 13.0 72.0 12.0 Q73.45 10.45 76.0 10.5 L76.0 11.0 77.0 11.0 78.0 11.0 Q81.35 10.65 82.75 12.2 L83.0 13.0 Q85.9 13.1 86.8 15.1 L87.0 16.0 88.0 16.0 89.0 16.0 89.0 15.0 90.0 15.0" fill="#ff0000" fill-rule="evenodd" stroke="none"/>
  </g>
</svg>
