<?xml version="1.0" encoding="UTF-8" standalone="no"?>
<svg xmlns:xlink="http://www.w3.org/1999/xlink" height="64.0px" width="47.0px" xmlns="http://www.w3.org/2000/svg">
  <g transform="matrix(1.0, 0.0, 0.0, 1.0, -1.0, 0.0)">
    <path d="M44.25 33.6 Q45.95 36.15 47.3 38.95 L47.0 41.0 Q48.0 41.0 48.0 45.0 48.0 54.05 39.95 59.45 33.25 64.0 25.0 64.0 18.95 64.0 18.25 63.0 L18.05 62.3 Q17.9 62.0 17.0 62.0 12.55 62.0 7.6 57.95 1.0 52.55 1.0 43.5 1.0 39.1 4.75 33.45 9.0 27.1 10.0 21.0 L11.0 21.0 11.0 18.0 Q8.55 17.5 7.5 15.95 L6.0 13.0 11.8 9.9 Q16.0 7.75 18.0 8.0 16.2 3.45 19.1 1.3 20.6 0.2 22.5 0.0 23.95 0.0 25.3 1.9 L25.0 5.0 27.0 5.0 27.0 4.0 33.1 4.45 36.0 5.0 36.6 5.5 37.0 6.0 38.8 11.0 Q39.95 14.1 39.95 14.75 39.95 17.85 38.5 19.0 37.0 19.65 37.0 20.0 L37.5 24.0 38.0 28.0 Q40.9 28.6 44.25 33.6" fill="#ff0000" fill-rule="evenodd" stroke="none"/>
  </g>
</svg>
