<?xml version="1.0" encoding="UTF-8" standalone="no"?>
<svg xmlns:xlink="http://www.w3.org/1999/xlink" height="67.9px" width="54.0px" xmlns="http://www.w3.org/2000/svg">
  <g transform="matrix(1.0, 0.0, 0.0, 1.0, -1.0, -0.7)">
    <path d="M54.8 15.6 L53.0 16.0 53.0 17.0 54.8 17.4 Q55.0 17.5 55.0 18.0 L54.85 18.55 52.0 19.0 52.0 20.0 Q52.75 38.75 51.0 55.0 L50.8 55.6 Q49.0 56.5 47.0 57.0 L46.75 57.75 Q38.65 65.9 34.0 59.0 L33.0 59.0 31.0 59.0 Q32.45 61.05 30.75 64.35 25.5 74.3 24.0 61.0 L23.2 61.25 Q20.5 63.45 18.0 61.0 L17.1 61.2 Q12.6 63.15 10.0 60.0 L9.45 59.9 Q9.0 58.0 9.0 56.0 L8.45 55.9 Q8.15 54.4 6.0 55.0 L5.05 54.85 Q0.8 53.2 1.0 47.0 L1.0 46.0 Q8.25 44.25 10.85 37.95 L11.0 37.0 11.0 36.0 11.0 35.0 11.0 34.0 11.0 20.0 12.0 20.0 12.0 19.0 12.0 18.0 Q11.65 9.35 7.0 5.0 L7.0 4.0 Q9.25 2.25 12.05 1.15 L13.0 1.0 Q21.0 -0.5 21.9 5.0 L22.0 6.0 Q22.0 6.5 21.8 6.6 21.0 7.0 20.0 7.0 L19.75 7.75 19.0 8.0 19.0 11.0 19.0 12.0 Q22.55 14.05 26.2 11.25 26.5 11.0 27.0 11.0 30.35 7.85 35.9 6.55 L36.0 6.0 Q43.85 11.65 54.9 14.45 L55.0 15.0 Q55.0 15.5 54.8 15.6" fill="#ff0000" fill-rule="evenodd" stroke="none"/>
  </g>
</svg>
