<?xml version="1.0" encoding="UTF-8" standalone="no"?>
<svg xmlns:xlink="http://www.w3.org/1999/xlink" height="76.0px" width="67.2px" xmlns="http://www.w3.org/2000/svg">
  <g transform="matrix(1.0, 0.0, 0.0, 1.0, -1.0, -1.0)">
    <path d="M49.65 6.95 Q50.0 7.0 49.5 8.85 48.65 12.15 51.0 16.0 52.75 18.25 51.55 22.9 L51.0 23.0 50.8 23.9 49.0 27.0 49.0 28.0 49.0 29.0 49.0 31.0 49.0 32.0 49.0 33.0 49.0 36.0 49.0 37.0 Q49.3 38.7 50.8 39.4 L51.0 40.0 Q52.75 44.75 52.05 52.0 L52.0 53.0 54.0 53.0 55.0 53.0 54.75 52.15 Q53.65 50.35 54.0 47.0 55.3 53.25 60.05 52.1 L61.0 52.0 61.0 51.0 63.0 51.0 64.0 51.0 64.85 51.25 Q73.8 57.35 59.0 58.0 L59.0 59.0 58.8 59.95 Q58.0 61.9 57.0 59.0 L56.0 59.0 54.0 59.0 53.0 59.0 50.0 59.0 50.0 61.0 50.0 62.0 58.0 62.0 59.0 62.0 59.5 62.0 59.0 62.25 58.9 62.5 58.0 62.7 Q53.45 64.65 48.0 66.0 L47.0 66.05 Q45.4 66.15 46.0 64.0 L46.0 63.0 46.0 62.0 45.75 61.25 45.0 61.0 44.0 61.05 36.0 62.0 35.85 62.55 33.0 63.0 32.5 63.0 Q32.7 66.7 31.0 68.0 L30.75 68.75 30.0 69.0 Q30.95 70.05 31.45 71.85 L32.0 72.0 Q35.0 72.5 32.6 76.8 32.5 77.0 32.0 77.0 L31.0 77.0 30.0 77.0 30.0 76.0 30.0 75.0 30.0 73.0 29.75 72.2 Q27.8 69.7 24.0 69.0 L24.75 68.75 25.0 68.0 24.25 67.75 24.0 67.0 23.45 67.1 Q23.15 68.65 21.0 68.0 L20.0 67.95 Q14.7 67.3 13.0 63.0 L12.85 62.45 Q10.3 61.7 10.0 59.0 9.5 59.0 9.4 58.8 8.7 57.3 7.0 57.0 L6.1 57.2 Q5.5 57.5 5.0 58.0 L4.75 58.75 4.0 59.0 3.75 59.8 Q2.0 61.9 1.0 60.0 L1.0 59.0 Q1.5 58.5 2.1 58.2 L3.0 58.0 3.0 57.0 Q3.5 56.5 4.1 56.2 L5.0 56.0 5.0 55.0 5.0 54.0 4.45 53.9 Q4.0 52.0 4.0 50.0 L6.0 50.0 7.0 50.0 7.0 49.0 Q8.95 48.95 9.75 47.85 L10.0 47.0 10.0 46.0 12.0 46.0 13.0 46.0 12.9 45.45 Q8.55 44.45 9.0 39.0 15.75 37.15 13.95 31.95 L14.15 30.85 Q14.8 26.7 13.0 24.0 L12.5 23.9 Q12.0 21.0 12.0 18.0 L12.0 17.0 11.5 16.9 Q11.0 14.5 11.0 12.0 L12.0 12.0 12.0 11.0 12.0 10.0 12.0 8.0 11.95 7.0 Q11.45 3.55 10.0 1.0 15.0 2.0 19.85 3.45 L20.0 4.0 Q26.0 5.1 21.9 6.8 L21.0 7.0 20.75 7.85 19.0 10.0 19.0 11.0 19.0 12.0 19.0 13.0 20.0 13.0 21.0 13.0 22.0 13.0 23.0 13.0 23.0 12.0 25.0 12.0 26.0 12.0 27.0 12.0 27.0 11.0 Q29.15 10.4 29.45 11.9 L30.0 12.0 30.0 11.0 Q31.45 8.45 35.0 8.05 L36.0 8.0 Q38.7 7.8 40.15 8.75 L41.0 9.0 Q41.5 9.0 41.75 9.25 L42.0 10.0 44.85 10.45 45.0 11.0 Q48.75 6.75 49.65 6.95" fill="#ff0000" fill-rule="evenodd" stroke="none"/>
  </g>
</svg>
