<?xml version="1.0" encoding="UTF-8" standalone="no"?>
<svg xmlns:xlink="http://www.w3.org/1999/xlink" height="89.0px" width="61.1px" xmlns="http://www.w3.org/2000/svg">
  <g transform="matrix(1.0, 0.0, 0.0, 1.0, -0.9, -1.0)">
    <path d="M61.75 27.7 Q59.75 29.25 57.0 30.0 57.55 35.5 57.05 41.0 L57.0 42.0 Q58.75 44.25 58.05 49.0 L58.0 50.0 58.0 59.0 58.0 60.0 58.0 68.0 58.0 69.0 58.0 72.0 Q58.0 74.0 57.65 74.05 49.7 75.55 52.0 85.0 L51.85 85.55 Q40.3 89.55 44.0 78.0 42.95 77.05 41.0 76.8 34.05 76.05 34.45 80.85 35.05 87.4 29.0 90.0 L28.0 89.9 Q23.5 89.0 25.0 82.0 L25.8 80.9 26.0 80.0 25.1 80.2 Q18.25 83.25 12.0 82.0 L11.5 82.0 Q12.1 74.4 6.0 74.0 L5.05 73.85 Q0.2 72.3 1.0 65.0 4.7 65.2 6.3 63.25 6.5 63.0 7.0 63.0 L7.0 62.0 Q9.7 61.8 11.15 62.75 L12.0 63.0 11.9 62.45 Q7.55 61.45 8.0 56.0 12.0 55.5 12.0 51.0 L12.0 50.0 12.0 49.0 12.0 48.0 11.2 47.75 Q8.9 46.1 8.0 43.0 L7.5 43.0 Q7.25 36.75 6.0 32.0 6.0 31.5 6.15 31.05 7.35 26.45 3.0 23.0 L2.25 22.75 Q2.0 22.5 2.0 22.0 3.45 19.45 7.0 19.05 L8.0 19.0 12.0 19.0 13.0 19.0 Q15.0 19.5 16.8 20.4 L17.0 21.0 Q21.4 25.2 26.2 21.25 26.5 21.0 27.0 21.0 L27.0 20.0 Q28.5 19.0 29.4 17.2 29.5 17.0 30.0 17.0 L30.0 16.0 30.0 15.0 30.0 13.0 31.75 10.85 32.0 10.0 31.45 9.85 Q30.55 7.45 29.0 6.0 31.0 2.8 32.8 7.1 L33.0 8.0 Q34.7 7.7 34.1 5.0 L34.0 4.0 34.0 3.0 34.0 1.0 35.0 1.0 Q36.7 2.3 35.55 5.85 L35.0 6.0 35.0 8.0 35.0 9.0 Q40.75 4.6 38.25 8.15 38.0 8.5 38.0 9.0 38.55 12.45 39.8 15.1 L40.0 16.0 Q43.55 18.95 46.75 22.25 L47.0 23.0 Q53.0 26.0 61.95 26.5 L62.0 27.0 61.75 27.7" fill="#ff0000" fill-rule="evenodd" stroke="none"/>
  </g>
</svg>
