<?xml version="1.0" encoding="UTF-8" standalone="no"?>
<svg xmlns:xlink="http://www.w3.org/1999/xlink" height="104.9px" width="66.0px" xmlns="http://www.w3.org/2000/svg">
  <g transform="matrix(1.0, 0.0, 0.0, 1.0, -1.0, 0.0)">
    <path d="M62.0 3.0 L62.0 2.0 Q64.65 1.35 63.6 3.8 L63.0 4.0 62.75 4.75 62.0 5.0 62.0 6.0 61.75 6.75 61.0 7.0 61.0 8.0 61.1 8.95 Q61.65 11.15 60.0 11.0 L60.1 11.95 Q60.65 14.15 59.0 14.0 L59.0 17.0 59.0 18.0 59.1 18.95 Q59.65 21.15 58.0 21.0 L58.1 21.95 Q58.65 24.15 57.0 24.0 L57.0 26.0 57.0 27.0 Q59.2 27.3 59.05 30.0 L59.0 31.0 59.1 31.95 Q59.65 34.15 58.0 34.0 L58.0 35.0 Q57.9 37.9 56.0 39.0 57.85 41.65 58.85 45.05 L59.0 46.0 Q60.7 46.3 60.1 49.0 L60.0 50.0 60.0 53.0 60.0 54.0 Q58.9 58.1 61.95 58.5 L62.0 59.0 64.85 59.45 65.0 60.0 65.8 61.1 66.0 62.0 67.0 62.0 67.0 66.0 67.0 67.0 66.0 67.0 65.8 67.95 Q64.25 71.75 60.0 73.0 L60.0 74.0 60.0 81.0 60.0 82.0 Q62.7 86.3 63.5 92.0 L63.0 92.0 62.0 92.0 59.0 92.0 58.4 92.2 Q57.0 94.9 56.0 93.0 L55.0 93.0 54.0 93.0 54.0 94.0 Q54.3 95.7 54.75 96.6 L55.7 98.85 Q50.3 104.85 42.0 99.0 L44.8 94.85 45.0 94.0 45.0 93.0 45.75 92.75 46.0 92.0 45.75 91.25 44.0 90.0 43.0 90.0 40.0 90.0 39.05 90.15 Q35.7 91.2 34.0 94.0 L34.0 95.0 34.8 96.1 35.0 97.0 Q35.5 97.0 35.6 97.2 40.5 107.5 29.0 104.0 L28.0 104.0 25.0 104.0 24.45 103.85 Q24.0 102.5 24.0 101.0 25.9 99.9 26.5 97.1 L27.0 97.0 27.0 96.0 27.0 95.0 28.0 95.0 28.0 94.0 28.0 93.0 27.0 93.0 Q25.05 93.05 24.0 94.0 L24.0 95.0 23.8 95.9 23.0 97.0 22.0 97.0 19.0 97.0 Q19.0 97.5 18.8 97.6 L17.0 98.0 17.0 98.5 Q15.5 98.0 14.0 97.0 L13.0 97.0 10.0 97.0 9.45 96.85 Q9.0 95.5 9.0 94.0 10.65 94.15 10.5 92.0 L11.0 92.0 11.0 91.0 11.0 90.0 11.75 89.75 12.0 89.0 11.15 88.75 Q9.95 88.05 8.0 88.0 L7.1 87.8 Q3.05 85.95 1.0 82.0 L1.0 81.0 1.0 80.0 1.0 79.0 2.0 79.0 3.0 79.0 3.0 78.0 Q4.9 76.9 5.5 74.1 L6.0 74.0 6.0 73.0 7.8 73.4 8.0 74.0 13.05 75.85 14.0 76.0 13.9 75.45 Q9.55 74.45 10.0 69.0 11.0 68.5 12.05 68.15 L13.0 68.0 13.0 67.0 13.0 61.0 12.8 60.1 12.0 59.0 Q11.5 59.0 11.3 58.75 8.7 55.3 9.0 49.0 L8.0 49.05 Q6.15 49.15 3.0 48.0 5.8 47.8 7.8 46.65 L8.0 46.0 8.0 45.0 8.0 44.0 8.0 43.0 8.2 42.1 Q9.5 39.0 5.0 37.0 L4.45 36.85 Q4.0 35.5 4.0 34.0 L5.0 34.0 5.0 33.0 9.0 32.1 10.0 32.0 10.0 31.0 13.9 31.45 14.0 32.0 Q16.7 31.8 18.15 32.75 L19.0 33.0 19.0 32.0 19.0 20.0 19.0 19.0 19.0 10.0 20.0 10.0 21.1 9.2 22.0 9.0 22.0 8.0 Q23.5 8.0 24.85 8.45 L25.0 9.0 Q25.5 9.5 26.1 9.8 L27.0 10.0 Q34.2 12.8 40.15 16.75 L41.0 17.0 Q42.7 18.3 42.1 22.0 L42.0 23.0 Q44.15 23.65 44.5 22.1 L45.0 22.0 45.0 21.0 45.0 19.0 Q47.45 14.45 48.9 8.95 L49.0 8.0 49.0 7.0 49.0 6.0 Q50.0 6.0 50.8 5.6 L51.0 5.0 50.5 4.9 Q50.0 2.5 50.0 0.0 L51.0 0.0 52.0 0.0 52.0 2.0 52.0 3.0 53.0 3.0 54.0 3.0 Q59.65 -0.25 59.5 8.0 L60.0 8.0 60.0 7.0 60.0 6.0 61.0 6.0 61.0 5.0 61.0 4.0 61.75 3.75 62.0 3.0" fill="#ff0000" fill-rule="evenodd" stroke="none"/>
  </g>
</svg>
