<?xml version="1.0" encoding="UTF-8" standalone="no"?>
<svg xmlns:xlink="http://www.w3.org/1999/xlink" height="41.0px" width="31.0px" xmlns="http://www.w3.org/2000/svg">
  <g transform="matrix(1.0, 0.0, 0.0, 1.0, -1.0, 0.0)">
    <path d="M32.0 9.0 L32.0 11.0 28.0 11.0 Q27.5 20.95 28.05 28.85 L28.3 35.3 Q28.0 36.3 25.15 37.15 20.0 38.6 15.0 41.0 L15.0 40.5 Q12.85 40.75 10.6 39.0 8.55 37.15 8.0 37.0 L5.65 36.45 Q4.85 36.0 4.5 34.1 3.9 30.4 4.15 20.0 4.65 1.9 2.8 1.55 L1.5 2.2 Q0.9 2.45 1.0 0.0 L6.0 0.0 Q6.0 1.4 10.3 1.35 L16.0 1.65 Q19.4 2.6 25.6 5.85 31.4 8.9 32.0 9.0" fill="#ff0000" fill-rule="evenodd" stroke="none"/>
  </g>
</svg>
