<?xml version="1.0" encoding="UTF-8" standalone="no"?>
<svg xmlns:xlink="http://www.w3.org/1999/xlink" height="59.0px" width="61.0px" xmlns="http://www.w3.org/2000/svg">
  <g transform="matrix(1.0, 0.0, 0.0, 1.0, -2.0, -1.0)">
    <path d="M62.0 15.65 Q62.0 19.35 61.4 21.0 60.75 22.85 58.8 23.8 55.8 23.2 52.05 21.75 L42.5 21.3 Q33.6 21.3 28.3 24.8 24.25 28.5 23.0 29.0 25.15 32.95 29.7 34.35 32.2 35.15 36.0 35.15 38.2 33.0 41.1 30.85 46.9 26.55 52.8 26.55 56.9 26.55 60.0 28.55 63.0 30.5 63.0 33.0 63.0 36.35 59.15 38.75 55.6 41.0 51.45 41.0 L47.0 40.8 Q46.8 43.35 45.7 47.8 45.7 50.15 46.75 51.3 47.6 52.2 50.0 53.0 49.65 54.85 47.75 56.8 44.55 60.0 39.0 60.0 36.9 60.0 34.25 58.0 31.55 55.95 31.55 54.1 31.55 52.8 33.65 50.4 36.4 47.2 37.5 45.0 27.8 41.8 22.8 37.25 20.65 35.3 18.85 32.0 18.95 31.4 18.5 31.15 L18.0 31.0 17.15 31.7 15.15 32.05 Q12.15 31.45 9.1 29.9 2.95 26.75 2.0 22.0 4.65 21.65 6.3 20.5 7.75 19.5 8.7 19.5 L14.6 21.65 Q20.7 24.0 21.7 25.05 22.2 25.1 23.6 24.2 L25.0 23.0 Q25.0 22.1 24.05 21.4 L22.0 19.95 Q19.0 17.55 19.0 11.9 19.0 9.95 21.35 9.35 L26.0 9.0 26.0 7.0 31.35 6.25 Q33.55 6.05 34.0 4.0 37.0 4.35 37.65 3.65 38.15 3.15 38.0 1.0 42.45 1.15 51.5 5.7 62.0 10.9 62.0 15.65" fill="#ff0000" fill-rule="evenodd" stroke="none"/>
  </g>
</svg>
