<?xml version="1.0" encoding="UTF-8" standalone="no"?>
<svg xmlns:xlink="http://www.w3.org/1999/xlink" height="87.0px" width="57.0px" xmlns="http://www.w3.org/2000/svg">
  <g transform="matrix(1.0, 0.0, 0.0, 1.0, 0.0, 0.0)">
    <path d="M42.65 11.5 Q45.3 13.85 45.3 18.1 45.3 20.5 44.15 25.6 43.0 30.65 43.0 31.5 43.0 38.35 42.35 43.55 41.7 48.75 41.7 51.4 41.7 54.3 44.1 55.75 L49.35 57.9 Q57.0 60.95 57.0 70.5 57.0 74.9 54.8 78.45 53.3 80.85 51.55 82.0 L45.65 84.05 Q41.05 85.45 40.0 87.0 L17.0 87.0 17.0 86.5 Q11.95 87.25 5.65 81.8 L0.0 76.0 0.0 65.0 1.0 65.0 Q0.1 62.0 7.1 58.1 13.7 54.4 16.0 55.0 14.8 51.75 14.8 47.95 L15.0 44.0 Q14.65 43.95 14.3 37.6 14.0 32.0 14.0 29.0 13.05 28.95 12.75 25.85 12.05 19.65 11.0 15.0 L12.0 15.0 Q13.4 10.7 18.55 8.9 L22.95 7.5 Q25.5 6.65 27.0 5.55 L25.2 3.7 Q24.2 3.0 24.0 3.0 L15.15 5.15 Q12.6 5.15 13.0 2.0 15.15 2.0 18.85 1.05 L23.0 0.4 23.0 0.0 29.0 0.0 Q28.75 3.85 31.25 5.9 32.65 7.1 36.85 8.6 41.0 10.05 42.65 11.5" fill="#ff0000" fill-rule="evenodd" stroke="none"/>
  </g>
</svg>
