<?xml version="1.0" encoding="UTF-8" standalone="no"?>
<svg xmlns:xlink="http://www.w3.org/1999/xlink" height="184.1px" width="219.35px" xmlns="http://www.w3.org/2000/svg">
  <g transform="matrix(1.0, 0.0, 0.0, 1.0, -1.0, -4.0)">
    <path d="M182.0 86.0 Q184.05 87.45 187.0 87.5 L187.0 87.0 187.0 86.0 192.35 91.65 195.0 95.0 Q198.7 95.95 201.2 97.8 205.4 99.0 208.0 97.4 211.65 95.15 211.25 103.0 211.0 108.0 211.0 113.0 L211.0 114.0 211.0 115.0 Q212.9 116.1 213.5 118.9 L214.0 119.0 Q214.85 125.75 216.85 122.9 219.25 119.5 219.0 128.0 219.0 128.5 219.25 128.8 222.0 132.55 218.0 134.0 L217.75 134.75 Q212.4 140.35 206.0 136.0 L205.2 135.75 Q203.8 134.7 204.0 132.0 L205.8 128.9 206.0 128.0 206.0 127.0 205.9 126.5 Q203.2 126.05 198.1 126.6 L191.35 131.4 191.75 132.15 192.0 133.0 Q193.2 135.8 192.65 138.75 189.95 153.3 187.0 138.0 L188.0 138.0 188.0 137.0 188.0 133.75 176.05 142.25 Q176.6 144.5 180.0 144.05 L181.0 144.0 Q183.95 141.55 183.45 146.95 182.9 153.3 178.0 147.0 L178.75 146.75 179.0 146.0 178.85 145.45 176.0 145.0 176.05 146.0 Q177.8 158.3 169.0 155.0 L168.2 154.75 Q166.65 153.35 167.0 150.0 L168.0 150.0 168.05 149.0 168.2 147.8 152.0 159.25 Q152.35 161.2 152.85 163.05 L153.0 164.0 152.75 164.8 Q147.8 171.05 143.7 165.1 L137.55 169.5 Q137.25 171.4 135.2 172.6 132.7 174.1 132.1 173.35 L113.8 186.25 113.1 185.3 111.75 185.75 Q105.75 187.05 103.7 185.05 L101.15 188.1 81.8 172.0 Q79.65 172.5 76.0 171.0 L75.45 170.9 Q75.0 169.0 75.0 167.0 L75.0 166.4 54.35 149.2 54.15 149.5 Q53.65 150.45 53.6 151.95 53.15 164.4 49.2 154.5 L48.6 155.05 41.95 148.4 Q41.0 152.45 36.0 150.0 L35.5 149.95 Q35.0 146.5 35.0 143.0 L35.05 142.0 35.1 141.55 30.05 136.5 Q21.8 133.5 14.0 130.0 L13.0 130.0 Q14.2 131.3 13.55 133.9 L13.0 134.0 12.75 134.8 Q8.2 140.6 2.0 136.0 L1.5 135.9 Q1.0 133.0 1.0 130.0 3.75 129.25 3.5 125.0 L4.0 125.0 4.0 124.0 4.0 119.0 Q5.7 118.2 5.1 115.0 L5.0 114.0 5.0 113.0 5.0 112.0 Q7.3 110.8 7.9 108.0 L8.0 107.0 8.0 106.0 8.0 105.0 Q11.1 106.9 9.55 112.9 L9.0 113.0 Q8.35 118.15 11.15 119.8 L12.0 120.0 12.0 119.0 Q18.15 117.15 23.15 114.2 L24.0 114.0 Q25.65 114.15 25.5 112.0 L26.0 112.0 26.0 111.0 26.0 109.0 26.8 107.9 27.0 107.0 27.0 106.0 Q29.45 102.45 30.5 97.1 L31.0 97.0 31.0 96.0 31.0 92.0 32.75 93.25 33.0 94.0 Q35.95 103.6 39.0 93.5 L39.0 94.0 Q40.75 96.75 39.55 101.9 L39.0 102.0 39.0 103.0 39.0 104.0 39.55 103.8 54.0 89.35 54.0 87.0 55.75 84.85 56.0 84.0 56.0 83.0 56.0 82.0 56.75 81.75 57.0 81.0 57.0 80.0 57.0 78.0 Q58.7 77.7 58.1 75.0 L58.0 74.0 58.0 73.0 58.0 72.0 59.0 72.0 59.0 71.0 59.0 70.0 Q60.35 68.35 60.9 66.0 L61.0 65.0 61.0 64.0 Q62.7 63.7 63.4 62.2 63.5 62.0 64.0 62.0 L64.0 61.0 Q68.0 59.35 65.55 68.9 L65.0 69.0 65.05 70.0 Q65.75 75.25 64.0 78.0 L64.0 79.0 64.0 79.35 79.0 64.35 79.0 64.0 79.0 62.0 Q80.7 61.2 80.5 58.0 L81.0 58.0 81.0 57.0 81.0 56.0 81.0 55.0 81.0 48.0 82.0 48.0 82.0 47.0 82.0 46.0 82.0 45.0 82.0 39.0 82.0 38.0 82.0 32.0 82.0 31.0 82.0 23.0 Q83.65 23.15 83.1 20.95 L83.0 20.0 83.0 19.0 83.0 15.0 83.8 13.9 84.0 13.0 84.0 12.0 84.0 4.0 Q86.65 5.0 87.9 12.0 L88.0 13.0 88.0 14.0 Q89.75 17.75 89.05 24.0 L89.0 25.0 Q90.75 27.25 90.05 32.0 L90.0 33.0 90.85 35.05 91.0 36.0 Q92.75 38.25 92.05 43.0 L92.0 44.0 93.0 44.0 Q95.45 41.95 99.95 42.5 L100.0 43.0 Q103.2 43.7 103.85 41.95 L104.0 41.0 103.95 40.0 Q103.35 34.65 103.0 29.0 104.85 26.3 105.0 22.0 L105.0 21.0 105.0 20.0 105.0 16.0 Q109.35 5.65 109.0 22.0 L109.0 23.0 109.0 30.0 109.0 31.0 Q110.45 38.05 110.95 46.0 L111.0 47.0 112.0 47.0 Q117.85 38.35 122.4 28.2 122.5 28.0 123.0 28.0 122.75 41.0 121.6 56.1 121.35 59.15 122.25 62.95 124.6 72.9 128.0 82.0 130.45 83.55 135.0 83.5 L135.0 84.0 143.0 84.0 144.0 84.0 144.1 83.05 Q145.35 77.65 144.0 69.0 L143.85 68.05 Q142.95 65.5 143.0 62.0 147.55 66.45 148.5 69.0 L148.0 69.0 Q151.75 78.6 150.1 89.0 L150.0 90.0 Q149.3 93.2 149.75 92.75 153.15 89.35 153.05 101.0 L153.05 102.95 151.9 103.45 154.25 105.4 155.05 104.85 Q157.2 96.85 157.45 98.3 157.95 100.9 158.8 102.2 L162.0 99.9 162.0 86.0 163.0 86.0 163.0 85.0 163.0 80.0 164.0 80.0 164.0 79.0 163.15 78.75 Q156.3 74.2 150.0 69.0 157.95 72.05 164.2 76.75 L165.0 77.0 165.0 76.0 165.0 75.0 166.85 79.05 167.0 80.0 Q173.6 83.4 181.9 85.45 L182.0 86.0 M105.95 82.6 L105.05 82.5 105.6 83.05 105.95 82.6 M131.4 84.8 Q130.75 83.4 128.4 83.9 L138.1 92.0 Q140.15 91.1 141.35 89.2 141.5 89.0 142.0 89.0 L142.0 88.0 142.8 86.9 143.0 86.0 142.95 85.5 132.0 85.0 Q131.5 85.0 131.4 84.8" fill="#ff0000" fill-opacity="0.99215686" fill-rule="evenodd" stroke="none"/>
  </g>
</svg>
