<?xml version="1.0" encoding="UTF-8" standalone="no"?>
<svg xmlns:xlink="http://www.w3.org/1999/xlink" height="58.0px" width="84.0px" xmlns="http://www.w3.org/2000/svg">
  <g transform="matrix(1.0, 0.0, 0.0, 1.0, 0.0, -7.0)">
    <path d="M84.0 36.0 Q84.0 39.65 81.9 44.25 79.5 49.5 75.35 53.6 64.35 64.35 47.0 62.05 L47.0 65.0 38.0 65.0 38.0 64.0 26.7 63.1 17.85 62.05 Q10.0 59.9 10.0 49.0 10.0 47.7 12.3 46.4 14.85 44.95 18.2 44.95 L20.0 45.0 27.85 43.5 Q30.0 42.65 30.0 39.8 L15.0 30.65 0.0 21.5 Q0.0 14.8 10.4 10.45 18.65 7.0 26.0 7.0 L41.1 7.5 Q41.3 7.65 40.9 7.85 L42.5 8.0 Q55.35 8.0 67.95 14.4 84.0 22.55 84.0 36.0" fill="#ff0000" fill-rule="evenodd" stroke="none"/>
  </g>
</svg>
