<?xml version="1.0" encoding="UTF-8" standalone="no"?>
<svg xmlns:xlink="http://www.w3.org/1999/xlink" height="68.0px" width="38.0px" xmlns="http://www.w3.org/2000/svg">
  <g transform="matrix(1.0, 0.0, 0.0, 1.0, -1.0, -1.0)">
    <path d="M25.35 2.2 Q28.3 1.0 29.3 1.0 33.85 1.0 35.9 4.2 37.95 7.4 37.95 14.5 37.95 20.75 34.5 27.45 32.75 30.8 31.0 33.0 31.0 46.5 35.0 48.9 37.25 50.3 37.75 51.05 39.0 53.1 39.0 58.45 39.0 63.35 34.15 65.9 31.5 67.25 27.0 69.0 L15.0 69.0 15.0 67.95 Q9.0 67.0 5.85 65.4 1.0 62.95 1.0 58.5 1.0 49.15 9.8 45.6 14.25 43.85 19.0 43.95 L19.3 43.15 19.0 41.0 16.85 41.65 14.55 42.3 Q10.15 42.3 8.55 39.05 6.9 35.75 6.0 25.0 L7.0 25.0 Q7.8 13.55 18.05 6.2 21.45 3.8 25.35 2.2" fill="#ff0000" fill-rule="evenodd" stroke="none"/>
  </g>
</svg>
