<?xml version="1.0" encoding="UTF-8" standalone="no"?>
<svg xmlns:xlink="http://www.w3.org/1999/xlink" height="41.0px" width="186.0px" xmlns="http://www.w3.org/2000/svg">
  <g transform="matrix(1.0, 0.0, 0.0, 1.0, 194.2, 20.5)">
    <path d="M-193.7 -18.0 Q-193.7 -20.0 -191.7 -20.0 L-10.7 -20.0 Q-8.7 -20.0 -8.7 -18.0 L-8.7 18.0 Q-8.7 20.0 -10.7 20.0 L-191.7 20.0 Q-193.7 20.0 -193.7 18.0 L-193.7 -18.0" fill="url(#gradient0)" fill-rule="evenodd" stroke="none"/>
    <path d="M-193.7 -18.0 L-193.7 18.0 Q-193.7 20.0 -191.7 20.0 L-10.7 20.0 Q-8.7 20.0 -8.7 18.0 L-8.7 -18.0 Q-8.7 -20.0 -10.7 -20.0 L-191.7 -20.0 Q-193.7 -20.0 -193.7 -18.0 Z" fill="none" stroke="#333333" stroke-linecap="round" stroke-linejoin="round" stroke-width="1.0"/>
  </g>
  <defs>
    <linearGradient gradientTransform="matrix(0.3265, 0.0, 0.0, 0.0244, -306.2, 0.0)" gradientUnits="userSpaceOnUse" id="gradient0" spreadMethod="pad" x1="-819.2" x2="819.2">
      <stop offset="0.4549019607843137" stop-color="#ffff99"/>
      <stop offset="0.5411764705882353" stop-color="#ffffa8"/>
    </linearGradient>
  </defs>
</svg>
