<?xml version="1.0" encoding="UTF-8" standalone="no"?>
<svg xmlns:xlink="http://www.w3.org/1999/xlink" height="42.0px" width="42.0px" xmlns="http://www.w3.org/2000/svg">
  <g transform="matrix(1.0, 0.0, 0.0, 1.0, 21.0, 21.0)">
    <path d="M0.0 -5.0 L0.0 -10.0 13.0 0.0 0.0 10.0 0.0 5.0 -10.0 5.0 -10.0 -5.0 0.0 -5.0" fill="#ffffff" fill-rule="evenodd" stroke="none"/>
    <path d="M14.15 -14.15 Q20.0 -8.3 20.0 0.0 20.0 8.3 14.15 14.15 8.3 20.0 0.0 20.0 -8.3 20.0 -14.15 14.15 -20.0 8.25 -20.0 0.0 -20.0 -8.2 -14.15 -14.15 -8.3 -20.0 0.0 -20.0 8.3 -20.0 14.15 -14.15 M0.0 -5.0 L-10.0 -5.0 -10.0 5.0 0.0 5.0 0.0 10.0 13.0 0.0 0.0 -10.0 0.0 -5.0" fill="#ffcc00" fill-rule="evenodd" stroke="none"/>
    <path d="M14.15 -14.15 Q20.0 -8.3 20.0 0.0 20.0 8.3 14.15 14.15 8.3 20.0 0.0 20.0 -8.3 20.0 -14.15 14.15 -20.0 8.25 -20.0 0.0 -20.0 -8.2 -14.15 -14.15 -8.3 -20.0 0.0 -20.0 8.3 -20.0 14.15 -14.15 M0.0 -5.0 L-10.0 -5.0 -10.0 5.0 0.0 5.0 0.0 10.0 13.0 0.0 0.0 -10.0 0.0 -5.0 Z" fill="none" stroke="#333333" stroke-linecap="round" stroke-linejoin="round" stroke-width="2.0"/>
  </g>
</svg>
