<?xml version="1.0" encoding="UTF-8" standalone="no"?>
<svg xmlns:xlink="http://www.w3.org/1999/xlink" height="47.55px" width="49.15px" xmlns="http://www.w3.org/2000/svg">
  <g transform="matrix(1.0, 0.0, 0.0, 1.0, 0.9, 0.05)">
    <path d="M45.0 1.0 Q44.5 -0.9 33.75 11.55 22.65 24.35 21.0 31.0 L20.9 31.45 Q19.45 30.65 17.9 29.05 14.65 25.75 14.0 21.5 L6.9 25.05 Q-0.15 28.65 -0.1 28.85 L0.0 30.0 Q2.95 31.2 7.0 33.85 15.2 39.25 21.05 46.7 23.95 41.65 28.7 35.6 38.2 23.55 47.45 18.65 L47.0 17.45 Q46.4 16.05 46.5 15.0 46.9 11.8 46.2 7.05 L45.0 1.0 Z" fill="none" stroke="#215730" stroke-linecap="round" stroke-linejoin="round" stroke-width="1.6"/>
    <path d="M45.0 1.0 Q46.7 6.6 46.5 14.55 L46.5 14.6 46.5 15.2 47.1 17.75 47.25 18.2 47.15 18.25 Q30.9 28.9 21.0 46.0 L20.3 45.75 Q12.65 35.35 0.0 30.0 L0.0 29.0 Q6.85 24.85 14.0 21.5 L14.0 22.0 Q15.9 28.6 21.0 31.5 L21.0 31.0 Q29.4 12.95 44.2 1.25 L45.0 1.0 M42.65 12.1 L43.4 17.5 Q45.4 12.35 44.8 7.95 44.15 3.2 40.4 8.0 41.95 9.1 42.65 12.1 M7.0 27.0 Q8.3 28.7 11.55 27.05 15.9 24.85 7.0 27.0" fill="#019f35" fill-opacity="0.9764706" fill-rule="evenodd" stroke="none"/>
    <path d="M42.65 12.1 Q41.95 9.1 40.4 8.0 44.15 3.2 44.8 7.95 45.4 12.35 43.4 17.5 L42.65 12.1" fill="#62d68d" fill-rule="evenodd" stroke="none"/>
    <path d="M7.0 27.0 Q15.9 24.85 11.55 27.05 8.3 28.7 7.0 27.0" fill="#81dda3" fill-rule="evenodd" stroke="none"/>
  </g>
</svg>
