<?xml version="1.0" encoding="UTF-8" standalone="no"?>
<svg xmlns:xlink="http://www.w3.org/1999/xlink" height="22.0px" width="37.0px" xmlns="http://www.w3.org/2000/svg">
  <g transform="matrix(1.0, 0.0, 0.0, 1.0, 1.0, 1.0)">
    <path d="M35.0 2.0 L35.0 18.0 Q35.0 20.0 33.0 20.0 L2.0 20.0 Q0.0 20.0 0.0 18.0 L0.0 2.0 Q0.0 0.0 2.0 0.0 L33.0 0.0 Q35.0 0.0 35.0 2.0" fill="#fd3e3e" fill-rule="evenodd" stroke="none"/>
    <path d="M35.0 2.0 Q35.0 0.0 33.0 0.0 L2.0 0.0 Q0.0 0.0 0.0 2.0 L0.0 18.0 Q0.0 20.0 2.0 20.0 L33.0 20.0 Q35.0 20.0 35.0 18.0 L35.0 2.0 Z" fill="none" stroke="#666666" stroke-linecap="round" stroke-linejoin="round" stroke-width="2.0"/>
  </g>
</svg>
