<?xml version="1.0" encoding="UTF-8" standalone="no"?>
<svg xmlns:xlink="http://www.w3.org/1999/xlink" height="94.75px" width="296.7px" xmlns="http://www.w3.org/2000/svg">
  <g transform="matrix(1.0, 0.0, 0.0, 1.0, 75.7, 84.9)">
    <path d="M220.0 -61.75 L220.0 -26.0 Q220.0 -3.85 197.85 -3.85 L-30.9 -3.85 -74.7 8.85 -60.0 -26.7 -60.0 -61.75 Q-60.0 -83.9 -37.9 -83.9 L197.85 -83.9 Q220.0 -83.9 220.0 -61.75" fill="url(#gradient0)" fill-rule="evenodd" stroke="none"/>
    <path d="M220.0 -61.75 Q220.0 -83.9 197.85 -83.9 L-37.9 -83.9 Q-60.0 -83.9 -60.0 -61.75 L-60.0 -26.7 -74.7 8.85 -30.9 -3.85 197.85 -3.85 Q220.0 -3.85 220.0 -26.0 L220.0 -61.75 Z" fill="none" stroke="#000000" stroke-linecap="round" stroke-linejoin="round" stroke-width="2.0"/>
  </g>
  <defs>
    <linearGradient gradientTransform="matrix(-3.0E-4, 0.0606, -0.0495, -3.0E-4, 72.65, -37.5)" gradientUnits="userSpaceOnUse" id="gradient0" spreadMethod="pad" x1="-819.2" x2="819.2">
      <stop offset="0.0" stop-color="#ffffff"/>
      <stop offset="1.0" stop-color="#f0f0f0"/>
    </linearGradient>
  </defs>
</svg>
