<?xml version="1.0" encoding="UTF-8" standalone="no"?>
<svg xmlns:xlink="http://www.w3.org/1999/xlink" height="45.1px" width="394.7px" xmlns="http://www.w3.org/2000/svg">
  <g transform="matrix(1.0, 0.0, 0.0, 1.0, 0.0, 0.0)">
    <path d="M29.2 0.0 L36.6 8.55 36.6 33.45 26.4 45.1 19.9 37.8 13.5 45.1 1.55 31.55 3.35 29.5 3.35 7.3 0.0 3.5 8.95 3.5 10.8 5.65 10.8 26.0 9.1 27.9 14.3 33.7 16.3 31.5 16.3 2.55 23.75 11.15 23.75 26.0 22.05 27.9 27.2 33.7 29.2 31.5 29.2 0.0 M40.5 19.15 L45.65 13.15 37.1 3.5 53.9 3.5 60.75 11.4 51.55 11.4 55.25 15.35 47.95 23.7 47.95 34.05 58.3 22.25 58.3 33.2 47.9 45.1 38.7 34.6 40.5 32.55 40.5 19.15 M68.1 3.5 L69.95 5.65 69.95 34.15 75.6 27.8 75.6 38.65 69.9 45.1 60.7 34.6 62.5 32.55 62.5 7.3 59.15 3.5 68.1 3.5 M89.75 3.5 L96.65 11.4 85.8 11.4 85.8 34.05 96.15 22.25 96.15 33.2 85.75 45.1 76.55 34.6 78.35 32.55 78.35 11.4 81.9 11.4 74.95 3.5 89.75 3.5 M107.15 0.0 L120.05 14.75 120.05 36.65 112.6 45.1 97.85 28.3 99.7 26.3 99.7 12.65 97.8 10.65 107.15 0.0 M112.55 17.15 L107.15 11.0 107.15 27.3 112.55 33.4 112.55 17.15 M142.05 3.5 L147.65 3.5 147.65 45.1 140.15 36.65 140.15 15.9 135.7 20.9 131.25 15.9 131.25 45.1 122.0 34.6 123.8 32.55 123.8 7.3 120.45 3.5 129.4 3.5 135.7 10.7 142.05 3.5 M162.95 11.4 L166.65 15.35 159.35 23.7 159.35 34.05 169.7 22.25 169.7 33.2 159.3 45.1 150.1 34.6 151.9 32.55 151.9 19.15 157.05 13.15 148.5 3.5 165.3 3.5 172.15 11.4 162.95 11.4 M219.7 27.3 L225.1 33.4 225.1 17.15 219.7 11.0 219.7 27.3 M202.6 3.5 L209.85 11.7 197.4 11.7 200.45 15.25 200.45 45.1 191.2 34.6 192.95 32.55 192.95 11.7 189.35 11.7 182.1 3.5 202.6 3.5 M210.35 10.65 L219.7 0.0 232.6 14.75 232.6 36.65 225.15 45.1 210.4 28.3 212.25 26.3 212.25 12.65 210.35 10.65 M244.95 3.5 L253.9 3.5 255.75 5.65 255.75 45.1 246.5 34.6 248.3 32.55 248.3 7.3 244.95 3.5 M265.55 3.5 L272.85 11.75 272.85 0.0 280.3 8.55 280.3 45.1 272.85 36.65 272.85 22.4 267.4 16.25 267.4 45.1 258.15 34.6 259.95 32.55 259.95 7.3 256.6 3.5 265.55 3.5 M301.6 15.45 L294.6 23.4 291.95 20.3 291.95 45.1 282.7 34.6 284.5 32.55 284.5 13.7 282.75 11.7 288.4 11.7 281.15 3.5 296.35 3.5 303.65 11.7 290.25 11.7 291.95 13.65 291.95 15.45 301.6 15.45 M314.75 11.4 L318.45 15.35 311.15 23.7 311.15 34.05 321.5 22.25 321.5 33.2 311.1 45.1 301.9 34.6 303.7 32.55 303.7 19.15 308.85 13.15 300.3 3.5 317.1 3.5 323.95 11.4 314.75 11.4 M331.3 3.5 L333.1 5.6 336.45 1.85 346.8 13.6 341.25 19.85 343.9 24.95 345.85 23.7 345.85 45.05 333.15 20.5 333.15 45.1 323.9 34.6 325.7 32.55 325.7 7.3 322.35 3.5 331.3 3.5 M336.9 15.1 L333.15 10.85 333.15 19.35 336.9 15.1 M369.85 8.55 L369.85 45.1 362.4 36.65 362.4 22.4 356.95 16.25 356.95 45.1 347.7 34.6 349.5 32.55 349.5 7.3 346.15 3.5 355.1 3.5 362.4 11.75 362.4 0.0 369.85 8.55 M381.8 27.3 L387.2 33.4 387.2 17.15 381.8 11.0 381.8 27.3 M374.35 12.65 L372.45 10.65 381.8 0.0 394.7 14.75 394.7 36.65 387.25 45.1 372.5 28.3 374.35 26.3 374.35 12.65" fill="#ff0000" fill-rule="evenodd" stroke="none"/>
  </g>
</svg>
