<?xml version="1.0" encoding="UTF-8" standalone="no"?>
<svg xmlns:xlink="http://www.w3.org/1999/xlink" height="411.0px" width="421.0px" xmlns="http://www.w3.org/2000/svg">
  <g transform="matrix(1.0, 0.0, 0.0, 1.0, -64.5, -79.5)">
    <path d="M479.0 80.0 Q485.0 80.0 485.0 86.0 L485.0 484.0 Q485.0 490.0 479.0 490.0 L71.0 490.0 Q65.0 490.0 65.0 484.0 L65.0 86.0 Q65.0 80.0 71.0 80.0 L479.0 80.0" fill="#ffffff" fill-rule="evenodd" stroke="none"/>
    <path d="M479.0 80.0 L71.0 80.0 Q65.0 80.0 65.0 86.0 L65.0 484.0 Q65.0 490.0 71.0 490.0 L479.0 490.0 Q485.0 490.0 485.0 484.0 L485.0 86.0 Q485.0 80.0 479.0 80.0 Z" fill="none" stroke="#999999" stroke-linecap="round" stroke-linejoin="round" stroke-width="1.0"/>
  </g>
</svg>
