<?xml version="1.0" encoding="UTF-8" standalone="no"?>
<svg xmlns:xlink="http://www.w3.org/1999/xlink" height="48.0px" width="301.1px" xmlns="http://www.w3.org/2000/svg">
  <g transform="matrix(1.0, 0.0, 0.0, 1.0, 0.4, 0.5)">
    <path d="M171.5 0.0 L171.4 0.4 171.1 0.55 170.85 0.4 170.75 0.0 170.85 -0.35 171.1 -0.5 171.4 -0.35 171.5 0.0 M174.0 -0.35 L174.25 -0.5 174.55 -0.35 174.65 0.0 174.55 0.4 174.25 0.55 174.0 0.4 173.85 0.0 174.0 -0.35 M167.7 -0.35 L168.0 -0.5 168.25 -0.35 168.4 0.0 168.25 0.4 168.0 0.55 167.7 0.4 167.6 0.0 167.7 -0.35 M180.25 -0.35 L180.55 -0.5 180.8 -0.35 180.95 0.0 180.8 0.4 180.55 0.55 180.25 0.4 180.15 0.0 180.25 -0.35 M177.1 -0.35 L177.4 -0.5 177.65 -0.35 177.8 0.0 177.65 0.4 177.4 0.55 177.1 0.4 177.0 0.0 177.1 -0.35 M190.2 -0.35 L190.35 0.0 190.2 0.4 189.95 0.55 189.65 0.4 189.55 0.0 189.65 -0.35 189.95 -0.5 190.2 -0.35 M183.4 -0.35 L183.65 -0.5 183.95 -0.35 184.05 0.0 183.95 0.4 183.65 0.55 183.4 0.4 183.3 0.0 183.4 -0.35 M187.1 -0.35 L187.2 0.0 187.1 0.4 186.8 0.55 186.55 0.4 186.4 0.0 186.55 -0.35 186.8 -0.5 187.1 -0.35 M195.95 -0.35 L196.2 -0.5 196.5 -0.35 196.6 0.0 196.5 0.4 196.2 0.55 195.95 0.4 195.85 0.0 195.95 -0.35 M199.1 -0.35 L199.35 -0.5 199.65 -0.35 199.75 0.0 199.65 0.4 199.35 0.55 199.1 0.4 198.95 0.0 199.1 -0.35 M192.8 -0.35 L193.1 -0.5 193.35 -0.35 193.5 0.0 193.35 0.4 193.1 0.55 192.8 0.4 192.7 0.0 192.8 -0.35 M140.15 0.0 L140.05 0.4 139.75 0.55 139.5 0.4 139.35 0.0 139.5 -0.35 139.75 -0.5 140.05 -0.35 140.15 0.0 M142.6 -0.35 L142.9 -0.5 143.15 -0.35 143.3 0.0 143.15 0.4 142.9 0.55 142.6 0.4 142.5 0.0 142.6 -0.35 M136.35 -0.35 L136.6 -0.5 136.9 -0.35 137.0 0.0 136.9 0.4 136.6 0.55 136.35 0.4 136.2 0.0 136.35 -0.35 M148.9 -0.35 L149.15 -0.5 149.45 -0.35 149.55 0.0 149.45 0.4 149.15 0.55 148.9 0.4 148.75 0.0 148.9 -0.35 M145.75 -0.35 L146.05 -0.5 146.3 -0.35 146.4 0.0 146.3 0.4 146.05 0.55 Q145.85 0.55 145.75 0.4 L145.65 0.0 145.75 -0.35 M155.85 0.0 L155.7 0.4 155.45 0.55 155.15 0.4 155.05 0.0 155.15 -0.35 155.45 -0.5 155.7 -0.35 155.85 0.0 M158.3 -0.35 L158.6 -0.5 158.85 -0.35 158.95 0.0 158.85 0.4 158.6 0.55 158.3 0.4 158.2 0.0 158.3 -0.35 M152.05 -0.35 L152.3 -0.5 152.6 -0.35 152.7 0.0 152.6 0.4 152.3 0.55 152.05 0.4 151.9 0.0 152.05 -0.35 M165.15 -0.35 L165.25 0.0 165.15 0.4 164.85 0.55 164.6 0.4 164.45 0.0 164.6 -0.35 164.85 -0.5 165.15 -0.35 M161.45 -0.35 L161.7 -0.5 162.0 -0.35 162.1 0.0 162.0 0.4 161.7 0.55 161.45 0.4 Q161.3 0.2 161.3 0.0 L161.45 -0.35 M144.05 46.6 Q144.15 46.45 144.3 46.45 144.45 46.45 144.6 46.6 L144.7 47.0 144.6 47.35 144.3 47.5 Q144.15 47.5 144.05 47.35 L143.9 47.0 144.05 46.6 M147.15 46.6 L147.45 46.45 147.7 46.6 147.85 47.0 147.7 47.35 147.45 47.5 147.15 47.35 147.05 47.0 147.15 46.6 M150.3 46.6 Q150.4 46.45 150.6 46.45 L150.85 46.6 150.95 47.0 150.85 47.35 150.6 47.5 150.3 47.35 150.2 47.0 150.3 46.6 M138.3 46.6 L138.4 47.0 138.3 47.35 138.05 47.5 Q137.85 47.5 137.75 47.35 L137.65 47.0 137.75 46.6 Q137.85 46.45 138.05 46.45 L138.3 46.6 M140.9 46.6 Q141.0 46.45 141.15 46.45 L141.45 46.6 141.55 47.0 141.45 47.35 141.15 47.5 140.9 47.35 140.75 47.0 Q140.75 46.8 140.9 46.6 M159.7 46.6 Q159.85 46.45 160.0 46.45 L160.25 46.6 160.4 47.0 160.25 47.35 160.0 47.5 159.7 47.35 159.6 47.0 159.7 46.6 M162.85 46.6 Q162.95 46.45 163.15 46.45 L163.4 46.6 163.5 47.0 163.4 47.35 163.15 47.5 Q162.95 47.5 162.85 47.35 L162.75 47.0 162.85 46.6 M166.0 46.6 L166.25 46.45 166.55 46.6 166.65 47.0 166.55 47.35 166.25 47.5 166.0 47.35 165.85 47.0 166.0 46.6 M153.45 46.6 L153.7 46.45 Q153.85 46.45 154.0 46.6 L154.1 47.0 154.0 47.35 153.7 47.5 153.45 47.35 153.3 47.0 153.45 46.6 M156.6 46.6 Q156.7 46.45 156.85 46.45 L157.15 46.6 157.25 47.0 157.15 47.35 156.85 47.5 156.6 47.35 156.45 47.0 156.6 46.6 M176.05 47.0 L175.95 47.35 175.65 47.5 175.4 47.35 175.3 47.0 175.4 46.6 Q175.5 46.45 175.65 46.45 L175.95 46.6 176.05 47.0 M178.55 46.6 Q178.65 46.45 178.8 46.45 178.95 46.45 179.1 46.6 L179.2 47.0 179.1 47.35 178.8 47.5 Q178.65 47.5 178.55 47.35 L178.4 47.0 178.55 46.6 M181.65 46.6 L181.95 46.45 182.2 46.6 182.35 47.0 182.2 47.35 181.95 47.5 181.65 47.35 181.55 47.0 181.65 46.6 M169.65 46.6 L169.8 47.0 169.65 47.35 169.4 47.5 169.15 47.35 169.0 47.0 169.15 46.6 169.4 46.45 169.65 46.6 M172.25 46.6 L172.55 46.45 172.8 46.6 172.95 47.0 172.8 47.35 172.55 47.5 172.25 47.35 172.15 47.0 172.25 46.6 M191.75 47.0 L191.65 47.35 191.35 47.5 191.1 47.35 190.95 47.0 191.1 46.6 Q191.2 46.45 191.35 46.45 L191.65 46.6 191.75 47.0 M194.2 46.6 Q194.35 46.45 194.5 46.45 L194.75 46.6 194.9 47.0 194.75 47.35 194.5 47.5 194.2 47.35 194.1 47.0 194.2 46.6 M197.35 46.6 L197.65 46.45 197.9 46.6 198.05 47.0 197.9 47.35 197.65 47.5 197.35 47.35 197.25 47.0 197.35 46.6 M184.8 46.6 Q184.95 46.45 185.1 46.45 L185.35 46.6 185.5 47.0 185.35 47.35 185.1 47.5 184.8 47.35 184.7 47.0 184.8 46.6 M188.5 46.6 L188.6 47.0 188.5 47.35 188.2 47.5 187.95 47.35 187.85 47.0 187.95 46.6 188.2 46.45 Q188.4 46.45 188.5 46.6 M108.1 -0.35 L108.4 -0.5 108.65 -0.35 108.75 0.0 108.65 0.4 108.4 0.55 108.1 0.4 108.0 0.0 108.1 -0.35 M111.25 -0.35 L111.5 -0.5 111.8 -0.35 111.9 0.0 111.8 0.4 111.5 0.55 111.25 0.4 111.15 0.0 111.25 -0.35 M104.95 -0.35 L105.25 -0.5 105.5 -0.35 105.65 0.0 105.5 0.4 105.25 0.55 104.95 0.4 104.85 0.0 104.95 -0.35 M117.5 -0.35 L117.8 -0.5 118.05 -0.35 118.2 0.0 118.05 0.4 117.8 0.55 117.5 0.4 117.4 0.0 117.5 -0.35 M114.4 -0.35 L114.65 -0.5 114.95 -0.35 115.05 0.0 114.95 0.4 114.65 0.55 114.4 0.4 114.25 0.0 114.4 -0.35 M124.45 0.0 L124.35 0.4 124.05 0.55 Q123.9 0.55 123.8 0.4 L123.65 0.0 123.8 -0.35 Q123.9 -0.5 124.05 -0.5 L124.35 -0.35 124.45 0.0 M126.95 -0.35 L127.2 -0.5 127.5 -0.35 127.6 0.0 127.5 0.4 127.2 0.55 126.95 0.4 126.8 0.0 126.95 -0.35 M120.65 -0.35 L120.95 -0.5 121.2 -0.35 121.3 0.0 121.2 0.4 120.95 0.55 Q120.75 0.55 120.65 0.4 L120.55 0.0 120.65 -0.35 M133.75 -0.35 L133.85 0.0 133.75 0.4 133.5 0.55 133.2 0.4 133.1 0.0 133.2 -0.35 133.5 -0.5 133.75 -0.35 M130.05 -0.35 L130.35 -0.5 130.6 -0.35 130.75 0.0 130.6 0.4 130.35 0.55 130.05 0.4 129.95 0.0 130.05 -0.35 M76.75 -0.35 L77.0 -0.5 77.3 -0.35 77.4 0.0 77.3 0.4 77.0 0.55 76.75 0.4 76.6 0.0 76.75 -0.35 M79.85 -0.35 L80.15 -0.5 80.4 -0.35 80.55 0.0 80.4 0.4 80.15 0.55 79.85 0.4 79.75 0.0 79.85 -0.35 M73.6 -0.35 L73.85 -0.5 74.15 -0.35 74.25 0.0 74.15 0.4 73.85 0.55 73.6 0.4 73.5 0.0 73.6 -0.35 M86.15 -0.35 L86.4 -0.5 86.7 -0.35 86.8 0.0 86.7 0.4 86.4 0.55 86.15 0.4 86.05 0.0 86.15 -0.35 M83.55 -0.35 L83.7 0.0 83.55 0.4 83.3 0.55 83.0 0.4 82.9 0.0 83.0 -0.35 83.3 -0.5 83.55 -0.35 M92.4 -0.35 L92.7 -0.5 92.95 -0.35 93.1 0.0 92.95 0.4 92.7 0.55 92.4 0.4 92.3 0.0 92.4 -0.35 M95.55 -0.35 L95.85 -0.5 96.1 -0.35 96.2 0.0 96.1 0.4 95.85 0.55 95.55 0.4 95.45 0.0 95.55 -0.35 M89.3 -0.35 Q89.4 -0.5 89.55 -0.5 L89.85 -0.35 89.95 0.0 89.85 0.4 89.55 0.55 Q89.4 0.55 89.3 0.4 89.15 0.2 89.15 0.0 L89.3 -0.35 M102.4 -0.35 L102.5 0.0 102.4 0.4 102.1 0.55 101.85 0.4 101.7 0.0 101.85 -0.35 102.1 -0.5 102.4 -0.35 M99.25 -0.35 L99.35 0.0 99.25 0.4 98.95 0.55 98.7 0.4 98.6 0.0 98.7 -0.35 98.95 -0.5 99.25 -0.35 M81.85 46.6 L81.95 47.0 81.85 47.35 81.55 47.5 81.3 47.35 81.15 47.0 81.3 46.6 Q81.4 46.45 81.55 46.45 L81.85 46.6 M84.95 46.6 L85.1 47.0 84.95 47.35 84.7 47.5 84.4 47.35 84.3 47.0 84.4 46.6 Q84.55 46.45 84.7 46.45 84.85 46.45 84.95 46.6 M87.55 46.6 L87.85 46.45 88.1 46.6 88.2 47.0 88.1 47.35 87.85 47.5 87.55 47.35 87.45 47.0 87.55 46.6 M72.55 47.0 L72.4 47.35 72.15 47.5 71.85 47.35 71.75 47.0 71.85 46.6 72.15 46.45 72.4 46.6 72.55 47.0 M75.0 46.6 Q75.15 46.45 75.3 46.45 L75.55 46.6 75.7 47.0 75.55 47.35 75.3 47.5 75.0 47.35 74.9 47.0 75.0 46.6 M78.15 46.6 Q78.25 46.45 78.4 46.45 78.6 46.45 78.7 46.6 L78.8 47.0 78.7 47.35 78.4 47.5 78.15 47.35 78.05 47.0 78.15 46.6 M97.5 46.6 L97.65 47.0 97.5 47.35 97.25 47.5 96.95 47.35 96.85 47.0 96.95 46.6 97.25 46.45 Q97.4 46.45 97.5 46.6 M100.65 46.6 L100.75 47.0 100.65 47.35 100.4 47.5 100.1 47.35 100.0 47.0 100.1 46.6 Q100.2 46.45 100.4 46.45 L100.65 46.6 M103.25 46.6 Q103.35 46.45 103.5 46.45 103.7 46.45 103.8 46.6 L103.9 47.0 103.8 47.35 103.5 47.5 103.25 47.35 103.15 47.0 103.25 46.6 M90.7 46.6 L90.95 46.45 91.25 46.6 91.35 47.0 91.25 47.35 90.95 47.5 90.7 47.35 90.6 47.0 90.7 46.6 M93.85 46.6 L94.1 46.45 Q94.25 46.45 94.4 46.6 L94.5 47.0 94.4 47.35 94.1 47.5 93.85 47.35 93.7 47.0 93.85 46.6 M113.2 46.6 L113.3 47.0 113.2 47.35 112.95 47.5 Q112.75 47.5 112.65 47.35 L112.55 47.0 112.65 46.6 Q112.75 46.45 112.95 46.45 L113.2 46.6 M116.35 46.6 L116.45 47.0 116.35 47.35 116.05 47.5 115.8 47.35 115.65 47.0 115.8 46.6 Q115.9 46.45 116.05 46.45 L116.35 46.6 M118.95 46.6 L119.2 46.45 Q119.35 46.45 119.5 46.6 L119.6 47.0 119.5 47.35 119.2 47.5 118.95 47.35 118.8 47.0 118.95 46.6 M106.95 46.6 L107.05 47.0 106.95 47.35 106.65 47.5 106.4 47.35 106.25 47.0 106.4 46.6 Q106.5 46.45 106.65 46.45 L106.95 46.6 M109.5 46.6 Q109.65 46.45 109.8 46.45 L110.05 46.6 110.2 47.0 110.05 47.35 109.8 47.5 109.5 47.35 109.4 47.0 109.5 46.6 M128.35 46.6 L128.6 46.45 Q128.75 46.45 128.9 46.6 L129.0 47.0 128.9 47.35 128.6 47.5 128.35 47.35 128.2 47.0 128.35 46.6 M131.5 46.6 L131.75 46.45 132.05 46.6 132.15 47.0 132.05 47.35 131.75 47.5 131.5 47.35 131.35 47.0 131.5 46.6 M134.6 46.6 Q134.75 46.45 134.9 46.45 L135.15 46.6 135.3 47.0 135.15 47.35 134.9 47.5 134.6 47.35 134.5 47.0 134.6 46.6 M122.05 46.6 L122.35 46.45 122.6 46.6 122.75 47.0 122.6 47.35 122.35 47.5 122.05 47.35 121.95 47.0 122.05 46.6 M125.2 46.6 Q125.3 46.45 125.5 46.45 L125.75 46.6 125.85 47.0 125.75 47.35 125.5 47.5 125.2 47.35 125.1 47.0 125.2 46.6 M45.9 -0.35 L46.05 0.0 45.9 0.4 45.65 0.55 45.35 0.4 45.25 0.0 45.35 -0.35 45.65 -0.5 45.9 -0.35 M42.2 -0.35 L42.5 -0.5 42.75 -0.35 42.9 0.0 42.75 0.4 42.5 0.55 42.2 0.4 42.1 0.0 42.2 -0.35 M54.75 -0.35 L55.05 -0.5 55.3 -0.35 55.45 0.0 55.3 0.4 55.05 0.55 54.75 0.4 54.65 0.0 54.75 -0.35 M48.5 -0.35 L48.75 -0.5 49.05 -0.35 49.15 0.0 49.05 0.4 48.75 0.55 48.5 0.4 48.4 0.0 48.5 -0.35 M52.2 -0.35 L52.3 0.0 52.2 0.4 51.9 0.55 51.65 0.4 51.5 0.0 51.65 -0.35 51.9 -0.5 52.2 -0.35 M61.6 -0.35 L61.7 0.0 61.6 0.4 61.3 0.55 61.05 0.4 60.95 0.0 61.05 -0.35 61.3 -0.5 61.6 -0.35 M57.9 -0.35 L58.2 -0.5 58.45 -0.35 58.6 0.0 58.45 0.4 58.2 0.55 57.9 0.4 57.8 0.0 57.9 -0.35 M71.0 -0.35 L71.15 0.0 71.0 0.4 70.75 0.55 70.45 0.4 70.35 0.0 70.45 -0.35 70.75 -0.5 71.0 -0.35 M64.85 0.0 L64.75 0.4 64.45 0.55 64.2 0.4 64.05 0.0 64.2 -0.35 64.45 -0.5 64.75 -0.35 64.85 0.0 M67.85 -0.35 L68.0 0.0 67.85 0.4 67.6 0.55 67.3 0.4 67.2 0.0 67.3 -0.35 67.6 -0.5 67.85 -0.35 M14.55 -0.35 L14.65 0.0 14.55 0.4 14.25 0.55 14.0 0.4 13.85 0.0 14.0 -0.35 14.25 -0.5 14.55 -0.35 M10.85 -0.35 L11.15 -0.5 11.4 -0.35 11.5 0.0 11.4 0.4 11.15 0.55 Q10.95 0.55 10.85 0.4 L10.75 0.0 10.85 -0.35 M20.95 0.0 L20.8 0.4 20.55 0.55 20.25 0.4 20.15 0.0 20.25 -0.35 20.55 -0.5 20.8 -0.35 20.95 0.0 M23.95 -0.35 L24.05 0.0 23.95 0.4 23.7 0.55 23.4 0.4 23.3 0.0 23.4 -0.35 23.7 -0.5 23.95 -0.35 M17.15 -0.35 L17.4 -0.5 17.7 -0.35 17.8 0.0 17.7 0.4 17.4 0.55 17.15 0.4 Q17.0 0.2 17.0 0.0 L17.15 -0.35 M30.25 -0.35 L30.35 0.0 30.25 0.4 29.95 0.55 29.7 0.4 29.55 0.0 29.7 -0.35 29.95 -0.5 30.25 -0.35 M26.55 -0.35 L26.8 -0.5 27.1 -0.35 27.2 0.0 27.1 0.4 26.8 0.55 26.55 0.4 26.4 0.0 26.55 -0.35 M36.6 0.0 L36.5 0.4 36.25 0.55 Q36.05 0.55 35.95 0.4 L35.85 0.0 35.95 -0.35 36.25 -0.5 36.5 -0.35 36.6 0.0 M39.1 -0.35 L39.35 -0.5 39.65 -0.35 39.75 0.0 39.65 0.4 39.35 0.55 39.1 0.4 38.95 0.0 39.1 -0.35 M32.8 -0.35 L33.1 -0.5 33.35 -0.35 33.5 0.0 33.35 0.4 33.1 0.55 32.8 0.4 32.7 0.0 32.8 -0.35 M19.1 46.6 L19.2 47.0 19.1 47.35 18.8 47.5 18.55 47.35 18.4 47.0 18.55 46.6 18.8 46.45 Q18.95 46.45 19.1 46.6 M21.7 46.6 L21.95 46.45 22.25 46.6 22.35 47.0 22.25 47.35 21.95 47.5 21.7 47.35 21.55 47.0 21.7 46.6 M9.15 46.6 Q9.25 46.45 9.4 46.45 9.55 46.45 9.7 46.6 L9.8 47.0 9.7 47.35 9.4 47.5 9.15 47.35 9.0 47.0 9.15 46.6 M12.25 46.6 L12.55 46.45 12.8 46.6 12.95 47.0 12.8 47.35 12.55 47.5 12.25 47.35 12.15 47.0 12.25 46.6 M15.4 46.6 Q15.5 46.45 15.7 46.45 15.85 46.45 15.95 46.6 L16.05 47.0 15.95 47.35 15.7 47.5 15.4 47.35 15.3 47.0 15.4 46.6 M34.75 46.6 L34.9 47.0 34.75 47.35 34.5 47.5 34.25 47.35 34.1 47.0 Q34.1 46.8 34.25 46.6 34.35 46.45 34.5 46.45 L34.75 46.6 M37.35 46.6 L37.65 46.45 37.9 46.6 38.05 47.0 37.9 47.35 37.65 47.5 37.35 47.35 37.25 47.0 37.35 46.6 M25.35 46.6 L25.5 47.0 25.35 47.35 25.1 47.5 24.8 47.35 24.7 47.0 24.8 46.6 Q24.95 46.45 25.1 46.45 25.25 46.45 25.35 46.6 M27.95 46.6 Q28.05 46.45 28.25 46.45 28.4 46.45 28.5 46.6 L28.6 47.0 28.5 47.35 28.25 47.5 Q28.05 47.5 27.95 47.35 L27.85 47.0 27.95 46.6 M31.1 46.6 Q31.2 46.45 31.35 46.45 L31.65 46.6 31.75 47.0 31.65 47.35 31.35 47.5 31.1 47.35 30.95 47.0 31.1 46.6 M50.45 46.6 L50.6 47.0 50.45 47.35 50.2 47.5 49.9 47.35 49.8 47.0 49.9 46.6 Q50.05 46.45 50.2 46.45 50.35 46.45 50.45 46.6 M53.6 46.6 L53.7 47.0 53.6 47.35 53.3 47.5 53.05 47.35 52.95 47.0 53.05 46.6 53.3 46.45 Q53.5 46.45 53.6 46.6 M56.2 46.6 L56.45 46.45 56.75 46.6 56.85 47.0 56.75 47.35 56.45 47.5 56.2 47.35 56.05 47.0 56.2 46.6 M40.5 46.6 Q40.6 46.45 40.75 46.45 L41.05 46.6 41.15 47.0 41.05 47.35 40.75 47.5 40.5 47.35 40.4 47.0 40.5 46.6 M43.65 46.6 Q43.75 46.45 43.9 46.45 44.05 46.45 44.2 46.6 L44.3 47.0 44.2 47.35 43.9 47.5 43.65 47.35 43.5 47.0 43.65 46.6 M46.75 46.6 L47.05 46.45 47.3 46.6 47.45 47.0 47.3 47.35 47.05 47.5 46.75 47.35 46.65 47.0 46.75 46.6 M66.15 46.6 L66.25 47.0 66.15 47.35 65.85 47.5 65.6 47.35 65.5 47.0 65.6 46.6 Q65.7 46.45 65.85 46.45 L66.15 46.6 M69.3 46.6 L69.4 47.0 69.3 47.35 69.0 47.5 68.75 47.35 68.6 47.0 68.75 46.6 Q68.85 46.45 69.0 46.45 69.15 46.45 69.3 46.6 M59.3 46.6 Q59.45 46.45 59.6 46.45 59.75 46.45 59.85 46.6 L60.0 47.0 59.85 47.35 59.6 47.5 59.3 47.35 59.2 47.0 59.3 46.6 M62.45 46.6 L62.75 46.45 Q62.9 46.45 63.0 46.6 L63.15 47.0 63.0 47.35 62.75 47.5 62.45 47.35 62.35 47.0 62.45 46.6 M0.25 1.55 L0.4 1.9 0.25 2.3 0.0 2.45 -0.3 2.3 -0.4 1.9 -0.3 1.55 Q-0.15 1.4 0.0 1.4 L0.25 1.55 M-0.3 5.75 Q-0.15 5.6 0.0 5.6 L0.25 5.75 0.4 6.15 0.25 6.5 0.0 6.65 -0.3 6.5 -0.4 6.15 -0.3 5.75 M5.25 0.0 L5.15 0.4 4.85 0.55 4.6 0.4 4.45 0.0 4.6 -0.35 4.85 -0.5 5.15 -0.35 5.25 0.0 M7.7 -0.35 L8.0 -0.5 8.25 -0.35 8.4 0.0 8.25 0.4 8.0 0.55 7.7 0.4 7.6 0.0 7.7 -0.35 M1.45 -0.35 L1.7 -0.5 2.0 -0.35 2.1 0.0 2.0 0.4 1.7 0.55 1.45 0.4 1.3 0.0 1.45 -0.35 M0.25 10.0 L0.4 10.4 0.25 10.75 0.0 10.9 -0.3 10.75 -0.4 10.4 -0.3 10.0 Q-0.15 9.85 0.0 9.85 L0.25 10.0 M-0.3 14.25 Q-0.15 14.1 0.0 14.1 L0.25 14.25 0.4 14.6 0.25 15.0 0.0 15.15 -0.3 15.0 -0.4 14.6 -0.3 14.25 M-0.3 18.45 Q-0.15 18.3 0.0 18.3 L0.25 18.45 0.4 18.85 0.25 19.2 0.0 19.35 -0.3 19.2 -0.4 18.85 -0.3 18.45 M-0.3 22.7 Q-0.15 22.55 0.0 22.55 L0.25 22.7 0.4 23.1 0.25 23.45 0.0 23.6 -0.3 23.45 -0.4 23.1 -0.3 22.7 M-0.3 26.95 Q-0.15 26.8 0.0 26.8 L0.25 26.95 0.4 27.3 0.25 27.7 0.0 27.85 -0.3 27.7 -0.4 27.3 -0.3 26.95 M-0.3 31.15 Q-0.15 31.0 0.0 31.0 L0.25 31.15 0.4 31.55 0.25 31.9 0.0 32.05 -0.3 31.9 -0.4 31.55 -0.3 31.15 M3.4 46.6 L3.5 47.0 3.4 47.35 3.15 47.5 Q2.95 47.5 2.85 47.35 L2.75 47.0 2.85 46.6 Q2.95 46.45 3.15 46.45 L3.4 46.6 M6.0 46.6 Q6.1 46.45 6.25 46.45 L6.55 46.6 6.65 47.0 6.55 47.35 6.25 47.5 6.0 47.35 5.85 47.0 6.0 46.6 M0.25 35.4 L0.4 35.8 0.25 36.15 0.0 36.3 -0.3 36.15 -0.4 35.8 -0.3 35.4 Q-0.15 35.25 0.0 35.25 L0.25 35.4 M-0.3 39.65 Q-0.15 39.5 0.0 39.5 L0.25 39.65 0.4 40.0 0.25 40.4 0.0 40.55 -0.3 40.4 -0.4 40.0 -0.3 39.65 M-0.3 43.85 Q-0.15 43.7 0.0 43.7 L0.25 43.85 0.4 44.25 0.25 44.6 0.0 44.75 -0.3 44.6 -0.4 44.25 -0.3 43.85 M-0.3 46.6 Q-0.15 46.45 0.0 46.45 L0.25 46.6 0.4 47.0 0.25 47.35 0.0 47.5 -0.3 47.35 -0.4 47.0 -0.3 46.6 M299.5 -0.35 L299.75 -0.5 300.0 -0.35 300.15 0.0 300.0 0.4 299.75 0.55 299.5 0.4 299.35 0.0 299.5 -0.35 M296.35 -0.35 L296.6 -0.5 296.9 -0.35 297.0 0.0 296.9 0.4 296.6 0.55 296.35 0.4 296.2 0.0 296.35 -0.35 M300.7 3.5 L300.55 3.85 300.3 4.05 300.0 3.85 299.9 3.5 300.0 3.15 300.3 2.95 300.55 3.15 300.7 3.5 M300.0 7.35 Q300.15 7.2 300.3 7.2 L300.55 7.35 300.7 7.75 300.55 8.1 300.3 8.25 300.0 8.1 299.9 7.75 300.0 7.35 M268.65 -0.35 L268.75 0.0 268.65 0.4 268.4 0.55 268.1 0.4 268.0 0.0 268.1 -0.35 268.4 -0.5 268.65 -0.35 M264.95 -0.35 L265.25 -0.5 265.5 -0.35 265.65 0.0 265.5 0.4 265.25 0.55 264.95 0.4 264.85 0.0 264.95 -0.35 M275.05 0.0 L274.95 0.4 274.65 0.55 274.4 0.4 274.25 0.0 274.4 -0.35 274.65 -0.5 274.95 -0.35 275.05 0.0 M278.05 -0.35 L278.2 0.0 278.05 0.4 277.8 0.55 277.5 0.4 277.4 0.0 277.5 -0.35 277.8 -0.5 278.05 -0.35 M271.25 -0.35 L271.5 -0.5 271.8 -0.35 271.9 0.0 271.8 0.4 271.5 0.55 271.25 0.4 271.1 0.0 271.25 -0.35 M284.35 -0.35 L284.45 0.0 284.35 0.4 284.05 0.55 283.8 0.4 283.65 0.0 283.8 -0.35 284.05 -0.5 284.35 -0.35 M280.65 -0.35 L280.95 -0.5 281.2 -0.35 281.3 0.0 281.2 0.4 280.95 0.55 Q280.75 0.55 280.65 0.4 L280.55 0.0 280.65 -0.35 M290.75 0.0 L290.6 0.4 290.35 0.55 290.05 0.4 289.95 0.0 290.05 -0.35 290.35 -0.5 290.6 -0.35 290.75 0.0 M293.2 -0.35 L293.5 -0.5 293.75 -0.35 293.85 0.0 293.75 0.4 293.5 0.55 293.2 0.4 293.1 0.0 293.2 -0.35 M286.95 -0.35 L287.2 -0.5 287.5 -0.35 287.6 0.0 287.5 0.4 287.2 0.55 286.95 0.4 286.8 0.0 286.95 -0.35 M273.2 46.6 L273.3 47.0 273.2 47.35 272.95 47.5 Q272.75 47.5 272.65 47.35 L272.55 47.0 272.65 46.6 Q272.75 46.45 272.95 46.45 273.1 46.45 273.2 46.6 M275.8 46.6 L276.05 46.45 276.35 46.6 276.45 47.0 276.35 47.35 276.05 47.5 275.8 47.35 275.65 47.0 275.8 46.6 M263.25 46.6 Q263.35 46.45 263.5 46.45 263.65 46.45 263.8 46.6 L263.9 47.0 263.8 47.35 263.5 47.5 263.25 47.35 263.1 47.0 263.25 46.6 M266.4 46.6 Q266.5 46.45 266.65 46.45 L266.95 46.6 267.05 47.0 266.95 47.35 266.65 47.5 266.4 47.35 266.25 47.0 266.4 46.6 M269.5 46.6 Q269.65 46.45 269.8 46.45 L270.05 46.6 270.2 47.0 270.05 47.35 269.8 47.5 269.5 47.35 269.4 47.0 269.5 46.6 M288.9 46.6 L289.0 47.0 288.9 47.35 288.6 47.5 288.35 47.35 288.2 47.0 288.35 46.6 Q288.45 46.45 288.6 46.45 288.75 46.45 288.9 46.6 M291.5 46.6 Q291.6 46.45 291.75 46.45 L292.05 46.6 292.15 47.0 292.05 47.35 291.75 47.5 291.5 47.35 291.35 47.0 291.5 46.6 M279.5 46.6 L279.6 47.0 279.5 47.35 279.2 47.5 278.95 47.35 278.8 47.0 278.95 46.6 279.2 46.45 Q279.35 46.45 279.5 46.6 M282.05 46.6 L282.35 46.45 Q282.5 46.45 282.6 46.6 L282.75 47.0 282.6 47.35 282.35 47.5 282.05 47.35 281.95 47.0 282.05 46.6 M285.2 46.6 Q285.3 46.45 285.5 46.45 285.65 46.45 285.75 46.6 L285.85 47.0 285.75 47.35 285.5 47.5 285.2 47.35 285.1 47.0 285.2 46.6 M300.0 11.6 Q300.15 11.45 300.3 11.45 L300.55 11.6 300.7 11.95 300.55 12.35 300.3 12.5 300.0 12.35 299.9 11.95 300.0 11.6 M300.7 16.2 L300.55 16.55 300.3 16.75 300.0 16.55 299.9 16.2 300.0 15.85 300.3 15.65 300.55 15.85 300.7 16.2 M300.0 20.05 Q300.15 19.9 300.3 19.9 L300.55 20.05 300.7 20.45 300.55 20.8 300.3 20.95 300.0 20.8 299.9 20.45 300.0 20.05 M300.55 25.05 L300.3 25.2 300.0 25.05 299.9 24.65 300.0 24.3 Q300.15 24.15 300.3 24.15 L300.55 24.3 300.7 24.65 300.55 25.05 M300.3 28.35 L300.55 28.55 300.7 28.9 300.55 29.25 300.3 29.45 300.0 29.25 299.9 28.9 300.0 28.55 300.3 28.35 M300.3 32.6 L300.55 32.75 300.7 33.15 300.55 33.5 300.3 33.65 300.0 33.5 299.9 33.15 300.0 32.75 Q300.15 32.6 300.3 32.6 M300.7 37.35 L300.55 37.75 300.3 37.9 300.0 37.75 299.9 37.35 300.0 37.0 Q300.15 36.85 300.3 36.85 L300.55 37.0 300.7 37.35 M300.3 41.05 L300.55 41.25 300.7 41.6 300.55 41.95 300.3 42.15 300.0 41.95 299.9 41.6 300.0 41.25 300.3 41.05 M294.6 46.6 Q294.75 46.45 294.9 46.45 L295.15 46.6 295.3 47.0 295.15 47.35 294.9 47.5 294.6 47.35 294.5 47.0 294.6 46.6 M297.75 46.6 Q297.85 46.45 298.05 46.45 L298.3 46.6 298.4 47.0 298.3 47.35 298.05 47.5 Q297.85 47.5 297.75 47.35 L297.65 47.0 297.75 46.6 M300.3 45.3 L300.55 45.45 300.7 45.85 300.55 46.2 300.3 46.35 300.0 46.2 299.9 45.85 300.0 45.45 Q300.15 45.3 300.3 45.3 M237.3 -0.35 L237.4 0.0 237.3 0.4 237.0 0.55 236.75 0.4 Q236.6 0.2 236.6 0.0 L236.75 -0.35 237.0 -0.5 237.3 -0.35 M231.1 0.0 L231.0 0.4 230.75 0.55 230.45 0.4 230.35 0.0 230.45 -0.35 230.75 -0.5 231.0 -0.35 231.1 0.0 M234.15 -0.35 L234.25 0.0 234.15 0.4 233.85 0.55 233.6 0.4 233.5 0.0 233.6 -0.35 233.85 -0.5 234.15 -0.35 M243.0 -0.35 L243.3 -0.5 243.55 -0.35 243.65 0.0 243.55 0.4 243.3 0.55 243.0 0.4 242.9 0.0 243.0 -0.35 M246.7 -0.35 L246.8 0.0 246.7 0.4 246.4 0.55 246.15 0.4 246.05 0.0 246.15 -0.35 246.4 -0.5 246.7 -0.35 M239.85 -0.35 L240.15 -0.5 240.4 -0.35 240.55 0.0 240.4 0.4 240.15 0.55 239.85 0.4 239.75 0.0 239.85 -0.35 M252.95 -0.35 L253.1 0.0 252.95 0.4 252.7 0.55 252.4 0.4 252.3 0.0 252.4 -0.35 252.7 -0.5 252.95 -0.35 M249.3 -0.35 L249.55 -0.5 249.85 -0.35 249.95 0.0 249.85 0.4 249.55 0.55 249.3 0.4 249.15 0.0 249.3 -0.35 M259.35 0.0 L259.25 0.4 258.95 0.55 258.7 0.4 258.55 0.0 258.7 -0.35 258.95 -0.5 259.25 -0.35 259.35 0.0 M261.85 -0.35 L262.1 -0.5 262.4 -0.35 262.5 0.0 262.4 0.4 262.1 0.55 261.85 0.4 261.7 0.0 261.85 -0.35 M255.55 -0.35 L255.85 -0.5 256.1 -0.35 256.2 0.0 256.1 0.4 255.85 0.55 Q255.65 0.55 255.55 0.4 L255.45 0.0 255.55 -0.35 M205.9 -0.35 L206.05 0.0 205.9 0.4 205.65 0.55 205.35 0.4 205.25 0.0 205.35 -0.35 205.65 -0.5 205.9 -0.35 M202.75 -0.35 L202.9 0.0 202.75 0.4 202.5 0.55 202.2 0.4 202.1 0.0 202.2 -0.35 202.5 -0.5 202.75 -0.35 M211.65 -0.35 L211.9 -0.5 212.2 -0.35 212.3 0.0 212.2 0.4 211.9 0.55 211.65 0.4 211.5 0.0 211.65 -0.35 M214.65 0.0 L214.75 -0.35 215.05 -0.5 215.3 -0.35 215.45 0.0 215.3 0.4 215.05 0.55 214.75 0.4 214.65 0.0 M208.5 -0.35 L208.75 -0.5 209.05 -0.35 209.15 0.0 209.05 0.4 208.75 0.55 208.5 0.4 208.4 0.0 208.5 -0.35 M221.6 -0.35 L221.7 0.0 221.6 0.4 221.3 0.55 221.05 0.4 220.95 0.0 221.05 -0.35 221.3 -0.5 221.6 -0.35 M218.45 -0.35 L218.6 0.0 218.45 0.4 218.2 0.55 217.9 0.4 217.8 0.0 217.9 -0.35 218.2 -0.5 218.45 -0.35 M227.3 -0.35 L227.6 -0.5 227.85 -0.35 228.0 0.0 227.85 0.4 227.6 0.55 227.3 0.4 227.2 0.0 227.3 -0.35 M224.2 -0.35 L224.45 -0.5 224.75 -0.35 224.85 0.0 224.75 0.4 224.45 0.55 224.2 0.4 224.05 0.0 224.2 -0.35 M207.45 47.0 L207.3 47.35 207.05 47.5 206.75 47.35 206.65 47.0 206.75 46.6 207.05 46.45 207.3 46.6 207.45 47.0 M209.9 46.6 Q210.05 46.45 210.2 46.45 210.35 46.45 210.45 46.6 L210.6 47.0 210.45 47.35 210.2 47.5 209.9 47.35 209.8 47.0 209.9 46.6 M213.05 46.6 Q213.15 46.45 213.3 46.45 213.5 46.45 213.6 46.6 L213.7 47.0 213.6 47.35 213.3 47.5 Q213.15 47.5 213.05 47.35 L212.95 47.0 213.05 46.6 M201.05 46.6 L201.15 47.0 201.05 47.35 200.75 47.5 200.5 47.35 200.4 47.0 200.5 46.6 200.75 46.45 201.05 46.6 M204.2 46.6 L204.3 47.0 204.2 47.35 203.9 47.5 203.65 47.35 203.5 47.0 203.65 46.6 203.9 46.45 Q204.05 46.45 204.2 46.6 M223.1 47.0 L223.0 47.35 222.75 47.5 222.45 47.35 222.35 47.0 222.45 46.6 222.75 46.45 223.0 46.6 223.1 47.0 M225.6 46.6 Q225.7 46.45 225.85 46.45 L226.15 46.6 226.25 47.0 226.15 47.35 225.85 47.5 225.6 47.35 225.5 47.0 225.6 46.6 M228.75 46.6 Q228.85 46.45 229.0 46.45 229.15 46.45 229.3 46.6 L229.4 47.0 229.3 47.35 229.0 47.5 228.75 47.35 228.6 47.0 228.75 46.6 M216.2 46.6 Q216.3 46.45 216.45 46.45 L216.75 46.6 216.85 47.0 216.75 47.35 216.45 47.5 216.2 47.35 216.05 47.0 216.2 46.6 M219.85 46.6 L220.0 47.0 219.85 47.35 219.6 47.5 219.3 47.35 219.2 47.0 219.3 46.6 Q219.45 46.45 219.6 46.45 L219.85 46.6 M241.85 46.6 L241.95 47.0 241.85 47.35 241.55 47.5 241.3 47.35 241.15 47.0 241.3 46.6 241.55 46.45 241.85 46.6 M244.4 46.6 Q244.55 46.45 244.7 46.45 244.85 46.45 244.95 46.6 L245.1 47.0 244.95 47.35 244.7 47.5 244.4 47.35 244.3 47.0 244.4 46.6 M232.4 46.6 L232.55 47.0 232.4 47.35 232.15 47.5 231.85 47.35 231.75 47.0 231.85 46.6 232.15 46.45 232.4 46.6 M235.55 46.6 L235.65 47.0 235.55 47.35 235.3 47.5 235.0 47.35 234.9 47.0 235.0 46.6 Q235.1 46.45 235.3 46.45 L235.55 46.6 M238.15 46.6 L238.4 46.45 Q238.55 46.45 238.7 46.6 L238.8 47.0 238.7 47.35 238.4 47.5 238.15 47.35 238.05 47.0 238.15 46.6 M257.5 46.6 L257.65 47.0 257.5 47.35 257.25 47.5 256.95 47.35 256.85 47.0 256.95 46.6 257.25 46.45 257.5 46.6 M260.1 46.6 Q260.2 46.45 260.4 46.45 L260.65 46.6 260.75 47.0 260.65 47.35 260.4 47.5 260.1 47.35 260.0 47.0 260.1 46.6 M248.1 46.6 L248.2 47.0 248.1 47.35 247.85 47.5 Q247.65 47.5 247.55 47.35 L247.45 47.0 247.55 46.6 Q247.65 46.45 247.85 46.45 248.0 46.45 248.1 46.6 M250.7 46.6 Q250.8 46.45 250.95 46.45 L251.25 46.6 251.35 47.0 251.25 47.35 250.95 47.5 250.7 47.35 250.55 47.0 250.7 46.6 M253.85 46.6 Q253.95 46.45 254.1 46.45 254.25 46.45 254.4 46.6 L254.5 47.0 254.4 47.35 254.1 47.5 253.85 47.35 253.7 47.0 253.85 46.6" fill="#666666" fill-rule="evenodd" stroke="none"/>
  </g>
</svg>
