<?xml version="1.0" encoding="UTF-8" standalone="no"?>
<svg xmlns:xlink="http://www.w3.org/1999/xlink" height="384.75px" width="542.0px" xmlns="http://www.w3.org/2000/svg">
  <g transform="matrix(1.0, 0.0, 0.0, 1.0, 212.95, 191.75)">
    <path d="M-212.45 -65.95 L-212.45 -183.25 Q-212.45 -191.25 -203.55 -191.25 L319.65 -191.25 Q328.55 -191.25 328.55 -183.25 L328.55 184.5 Q328.55 192.5 319.65 192.5 L-203.55 192.5 Q-212.45 192.5 -212.45 184.5 L-212.45 102.0 113.0 102.0 113.0 -65.95 -212.45 -65.95 113.0 -65.95 113.0 102.0 -212.45 102.0 -212.45 96.0 -212.45 -47.95 -212.45 -65.95" fill="#ffffff" fill-rule="evenodd" stroke="none"/>
    <path d="M-212.45 102.0 L-212.45 184.5 Q-212.45 192.5 -203.55 192.5 L319.65 192.5 Q328.55 192.5 328.55 184.5 L328.55 -183.25 Q328.55 -191.25 319.65 -191.25 L-203.55 -191.25 Q-212.45 -191.25 -212.45 -183.25 L-212.45 -65.95 -212.45 -47.95 -212.45 96.0 -212.45 102.0 Z" fill="none" stroke="#666666" stroke-linecap="round" stroke-linejoin="round" stroke-width="1.0"/>
    <path d="M115.0 98.0 L113.0 98.0 -174.4 98.0 -200.0 98.0 -200.0 96.0 -200.0 -47.95 -200.0 -50.0 113.0 -50.0 115.0 -50.0 315.0 -50.0 315.0 98.0 297.3 98.0 115.0 98.0 Z" fill="none" stroke="#666666" stroke-linecap="round" stroke-linejoin="round" stroke-width="1.0"/>
  </g>
</svg>
