<?xml version="1.0" encoding="UTF-8" standalone="no"?>
<svg xmlns:xlink="http://www.w3.org/1999/xlink" height="26.0px" width="26.0px" xmlns="http://www.w3.org/2000/svg">
  <g transform="matrix(1.0, 0.0, 0.0, 1.0, 13.0, 13.0)">
    <path d="M-13.0 10.65 L-13.0 7.05 -13.0 -7.05 -13.0 -10.65 Q-13.0 -13.0 -10.65 -13.0 L-7.05 -13.0 7.05 -13.0 10.45 -13.0 Q13.0 -13.0 13.0 -10.65 L13.0 -7.05 13.0 7.05 13.0 10.65 Q13.0 13.0 10.45 13.0 L7.05 13.0 -7.05 13.0 -10.65 13.0 Q-13.0 13.0 -13.0 10.65" fill="#845f26" fill-rule="evenodd" stroke="none"/>
    <path d="M-11.0 9.0 L-11.0 7.05 -11.0 -7.05 -11.0 -9.0 Q-11.0 -11.0 -9.0 -11.0 L-7.05 -11.0 7.05 -11.0 9.0 -11.0 Q11.0 -11.0 11.0 -9.0 L11.0 -7.05 11.0 7.05 11.0 9.0 Q11.0 11.0 9.0 11.0 L7.05 11.0 -7.05 11.0 -9.0 11.0 Q-11.0 11.0 -11.0 9.0" fill="#32170a" fill-rule="evenodd" stroke="none"/>
  </g>
</svg>
