<?xml version="1.0" encoding="UTF-8" standalone="no"?>
<svg xmlns:xlink="http://www.w3.org/1999/xlink" height="15.0px" width="15.0px" xmlns="http://www.w3.org/2000/svg">
  <g transform="matrix(1.0, 0.0, 0.0, 1.0, 0.5, 0.5)">
    <path d="M11.95 2.05 Q14.0 4.1 14.0 7.0 14.0 9.9 11.95 11.95 9.9 14.0 7.0 14.0 4.1 14.0 2.05 11.95 0.0 9.9 0.0 7.0 0.0 4.1 2.05 2.05 4.1 0.0 7.0 0.0 9.9 0.0 11.95 2.05" fill="#ffffff" fill-rule="evenodd" stroke="none"/>
    <path d="M11.95 2.05 Q14.0 4.1 14.0 7.0 14.0 9.9 11.95 11.95 9.9 14.0 7.0 14.0 4.1 14.0 2.05 11.95 0.0 9.9 0.0 7.0 0.0 4.1 2.05 2.05 4.1 0.0 7.0 0.0 9.9 0.0 11.95 2.05 Z" fill="none" stroke="#666666" stroke-linecap="round" stroke-linejoin="round" stroke-width="1.0"/>
  </g>
</svg>
