<?xml version="1.0" encoding="UTF-8" standalone="no"?>
<svg xmlns:xlink="http://www.w3.org/1999/xlink" height="101.2px" width="513.2px" xmlns="http://www.w3.org/2000/svg">
  <g transform="matrix(1.0, 0.0, 0.0, 1.0, 0.6, 0.6)">
    <path d="M506.95 0.0 Q510.15 0.0 511.35 2.1 512.0 3.3 512.0 5.15 L512.0 94.85 Q512.0 100.0 506.95 100.0 L5.1 100.0 Q0.0 100.0 0.0 94.85 L0.0 5.15 Q0.0 3.3 0.7 2.1 1.85 0.0 5.1 0.0 L506.95 0.0" fill="#f6eddf" fill-rule="evenodd" stroke="none"/>
    <path d="M506.95 0.0 L5.1 0.0 Q1.85 0.0 0.7 2.1 0.0 3.3 0.0 5.15 L0.0 94.85 Q0.0 100.0 5.1 100.0 L506.95 100.0 Q512.0 100.0 512.0 94.85 L512.0 5.15 Q512.0 3.3 511.35 2.1 510.15 0.0 506.95 0.0 Z" fill="none" stroke="#c2b778" stroke-linecap="round" stroke-linejoin="round" stroke-width="1.25"/>
  </g>
</svg>
