<?xml version="1.0" encoding="UTF-8" standalone="no"?>
<svg xmlns:xlink="http://www.w3.org/1999/xlink" height="25.7px" width="237.4px" xmlns="http://www.w3.org/2000/svg">
  <g transform="matrix(1.0, 0.0, 0.0, 1.0, 44.9, 2.55)">
    <path d="M0.5 -2.05 L0.35 -1.7 0.0 -1.55 -0.35 -1.7 -0.5 -2.05 -0.35 -2.4 0.0 -2.55 0.35 -2.4 0.5 -2.05 M4.35 -2.4 L4.5 -2.05 4.35 -1.7 4.0 -1.55 3.65 -1.7 3.5 -2.05 3.65 -2.4 4.0 -2.55 4.35 -2.4 M8.35 -2.4 L8.5 -2.05 8.35 -1.7 8.0 -1.55 Q7.8 -1.55 7.65 -1.7 L7.5 -2.05 7.65 -2.4 8.0 -2.55 8.35 -2.4 M11.65 -2.4 L12.0 -2.55 12.35 -2.4 12.5 -2.05 12.35 -1.7 12.0 -1.55 Q11.8 -1.55 11.65 -1.7 11.5 -1.85 11.5 -2.05 L11.65 -2.4 M15.65 -2.4 L16.0 -2.55 16.35 -2.4 16.5 -2.05 16.35 -1.7 16.0 -1.55 15.65 -1.7 15.5 -2.05 15.65 -2.4 M20.0 -2.55 L20.35 -2.4 20.5 -2.05 20.35 -1.7 Q20.2 -1.55 20.0 -1.55 L19.65 -1.7 19.5 -2.05 19.65 -2.4 20.0 -2.55 M24.35 -2.4 L24.5 -2.05 24.35 -1.7 24.0 -1.55 Q23.8 -1.55 23.65 -1.7 L23.5 -2.05 23.65 -2.4 24.0 -2.55 24.35 -2.4 M28.35 -2.4 L28.5 -2.05 28.35 -1.7 28.0 -1.55 Q27.8 -1.55 27.65 -1.7 L27.5 -2.05 27.65 -2.4 28.0 -2.55 28.35 -2.4 M31.65 -2.4 L32.0 -2.55 32.35 -2.4 32.5 -2.05 32.35 -1.7 Q32.2 -1.55 32.0 -1.55 31.8 -1.55 31.65 -1.7 L31.5 -2.05 31.65 -2.4 M35.65 -2.4 Q35.8 -2.55 36.0 -2.55 L36.35 -2.4 36.5 -2.05 36.35 -1.7 36.0 -1.55 Q35.8 -1.55 35.65 -1.7 L35.5 -2.05 35.65 -2.4 M39.65 -2.4 L40.0 -2.55 40.35 -2.4 40.5 -2.05 40.35 -1.7 40.0 -1.55 Q39.8 -1.55 39.65 -1.7 L39.5 -2.05 39.65 -2.4 M43.65 -2.4 L44.0 -2.55 44.35 -2.4 44.5 -2.05 44.35 -1.7 Q44.2 -1.55 44.0 -1.55 43.8 -1.55 43.65 -1.7 43.5 -1.85 43.5 -2.05 L43.65 -2.4 M48.35 -2.4 L48.5 -2.05 48.35 -1.7 Q48.2 -1.55 48.0 -1.55 47.8 -1.55 47.65 -1.7 47.5 -1.85 47.5 -2.05 L47.65 -2.4 48.0 -2.55 48.35 -2.4 M51.65 -2.4 L52.0 -2.55 52.35 -2.4 52.5 -2.05 52.35 -1.7 52.0 -1.55 Q51.8 -1.55 51.65 -1.7 L51.5 -2.05 51.65 -2.4 M55.5 -2.05 L55.65 -2.4 56.0 -2.55 56.35 -2.4 56.5 -2.05 56.35 -1.7 Q56.2 -1.55 56.0 -1.55 55.8 -1.55 55.65 -1.7 55.5 -1.85 55.5 -2.05 M60.35 -2.4 L60.5 -2.05 60.35 -1.7 Q60.2 -1.55 60.0 -1.55 59.8 -1.55 59.65 -1.7 59.5 -1.85 59.5 -2.05 L59.65 -2.4 60.0 -2.55 60.35 -2.4 M63.65 -2.4 L64.0 -2.55 64.35 -2.4 64.5 -2.05 64.35 -1.7 64.0 -1.55 Q63.8 -1.55 63.65 -1.7 L63.5 -2.05 63.65 -2.4 M68.35 -2.4 L68.5 -2.05 68.35 -1.7 Q68.2 -1.55 68.0 -1.55 67.8 -1.55 67.65 -1.7 67.5 -1.85 67.5 -2.05 L67.65 -2.4 68.0 -2.55 68.35 -2.4 M71.65 -2.4 L72.0 -2.55 72.35 -2.4 72.5 -2.05 72.35 -1.7 Q72.2 -1.55 72.0 -1.55 71.8 -1.55 71.65 -1.7 71.5 -1.85 71.5 -2.05 L71.65 -2.4 M75.5 -2.05 L75.65 -2.4 76.0 -2.55 76.35 -2.4 76.5 -2.05 76.35 -1.7 76.0 -1.55 75.65 -1.7 75.5 -2.05 M79.65 -2.4 L80.0 -2.55 80.35 -2.4 80.5 -2.05 80.35 -1.7 80.0 -1.55 Q79.8 -1.55 79.65 -1.7 L79.5 -2.05 79.65 -2.4 M83.65 -2.4 L84.0 -2.55 84.35 -2.4 84.5 -2.05 84.35 -1.7 84.0 -1.55 Q83.8 -1.55 83.65 -1.7 83.5 -1.85 83.5 -2.05 L83.65 -2.4 M88.35 -2.4 L88.5 -2.05 88.35 -1.7 88.0 -1.55 87.65 -1.7 87.5 -2.05 87.65 -2.4 88.0 -2.55 88.35 -2.4 M91.65 -2.4 L92.0 -2.55 92.35 -2.4 92.5 -2.05 92.35 -1.7 92.0 -1.55 Q91.8 -1.55 91.65 -1.7 L91.5 -2.05 91.65 -2.4 M96.0 -2.55 L96.35 -2.4 96.5 -2.05 96.35 -1.7 96.0 -1.55 Q95.8 -1.55 95.65 -1.7 95.5 -1.85 95.5 -2.05 L95.65 -2.4 96.0 -2.55 M100.35 -2.4 L100.5 -2.05 100.35 -1.7 100.0 -1.55 99.65 -1.7 99.5 -2.05 99.65 -2.4 100.0 -2.55 100.35 -2.4 M103.65 -2.4 L104.0 -2.55 104.35 -2.4 104.5 -2.05 104.35 -1.7 Q104.2 -1.55 104.0 -1.55 L103.65 -1.7 103.5 -2.05 103.65 -2.4 M108.35 -2.4 L108.5 -2.05 108.35 -1.7 108.0 -1.55 Q107.8 -1.55 107.65 -1.7 L107.5 -2.05 107.65 -2.4 108.0 -2.55 108.35 -2.4 M111.65 -2.4 L112.0 -2.55 112.35 -2.4 112.5 -2.05 112.35 -1.7 112.0 -1.55 Q111.8 -1.55 111.65 -1.7 L111.5 -2.05 111.65 -2.4 M116.35 -2.4 L116.5 -2.05 116.35 -1.7 Q116.2 -1.55 116.0 -1.55 115.8 -1.55 115.65 -1.7 L115.5 -2.05 115.65 -2.4 116.0 -2.55 116.35 -2.4 M120.35 -2.4 L120.5 -2.05 120.35 -1.7 120.0 -1.55 Q119.8 -1.55 119.65 -1.7 L119.5 -2.05 119.65 -2.4 Q119.8 -2.55 120.0 -2.55 L120.35 -2.4 M123.65 -2.4 L124.0 -2.55 124.35 -2.4 124.5 -2.05 124.35 -1.7 124.0 -1.55 Q123.8 -1.55 123.65 -1.7 L123.5 -2.05 123.65 -2.4 M128.35 -2.4 L128.5 -2.05 128.35 -1.7 Q128.2 -1.55 128.0 -1.55 127.8 -1.55 127.65 -1.7 127.5 -1.85 127.5 -2.05 L127.65 -2.4 128.0 -2.55 128.35 -2.4 M132.5 -2.05 L132.35 -1.7 Q132.2 -1.55 132.0 -1.55 131.8 -1.55 131.65 -1.7 131.5 -1.85 131.5 -2.05 L131.65 -2.4 132.0 -2.55 132.35 -2.4 132.5 -2.05 M136.35 -2.4 L136.5 -2.05 136.35 -1.7 136.0 -1.55 Q135.8 -1.55 135.65 -1.7 L135.5 -2.05 135.65 -2.4 136.0 -2.55 136.35 -2.4 M139.65 -2.4 L140.0 -2.55 140.35 -2.4 140.5 -2.05 140.35 -1.7 Q140.2 -1.55 140.0 -1.55 139.8 -1.55 139.65 -1.7 139.5 -1.85 139.5 -2.05 L139.65 -2.4 M143.65 -2.4 L144.0 -2.55 144.35 -2.4 144.5 -2.05 144.35 -1.7 Q144.2 -1.55 144.0 -1.55 143.8 -1.55 143.65 -1.7 143.5 -1.85 143.5 -2.05 L143.65 -2.4 M147.65 -2.4 L148.0 -2.55 148.35 -2.4 148.5 -2.05 148.35 -1.7 148.0 -1.55 Q147.8 -1.55 147.65 -1.7 L147.5 -2.05 147.65 -2.4 M151.65 -2.4 L152.0 -2.55 152.35 -2.4 152.5 -2.05 152.35 -1.7 Q152.2 -1.55 152.0 -1.55 151.8 -1.55 151.65 -1.7 151.5 -1.85 151.5 -2.05 L151.65 -2.4 M156.35 -2.4 L156.5 -2.05 156.35 -1.7 Q156.2 -1.55 156.0 -1.55 155.8 -1.55 155.65 -1.7 155.5 -1.85 155.5 -2.05 L155.65 -2.4 156.0 -2.55 156.35 -2.4 M160.35 -2.4 L160.5 -2.05 160.35 -1.7 160.0 -1.55 159.65 -1.7 159.5 -2.05 159.65 -2.4 160.0 -2.55 160.35 -2.4 M163.65 -2.4 L164.0 -2.55 164.35 -2.4 164.5 -2.05 164.35 -1.7 164.0 -1.55 Q163.8 -1.55 163.65 -1.7 L163.5 -2.05 163.65 -2.4 M167.65 -2.4 L168.0 -2.55 168.35 -2.4 168.5 -2.05 168.35 -1.7 168.0 -1.55 Q167.8 -1.55 167.65 -1.7 167.5 -1.85 167.5 -2.05 L167.65 -2.4 M171.65 -2.4 L172.0 -2.55 172.35 -2.4 172.5 -2.05 172.35 -1.7 172.0 -1.55 171.65 -1.7 171.5 -2.05 171.65 -2.4 M176.35 -2.4 L176.5 -2.05 176.35 -1.7 176.0 -1.55 Q175.8 -1.55 175.65 -1.7 L175.5 -2.05 175.65 -2.4 176.0 -2.55 176.35 -2.4 M179.65 -2.4 L180.0 -2.55 180.35 -2.4 180.5 -2.05 180.35 -1.7 180.0 -1.55 Q179.8 -1.55 179.65 -1.7 179.5 -1.85 179.5 -2.05 L179.65 -2.4 M183.65 -2.4 L184.0 -2.55 184.35 -2.4 184.5 -2.05 184.35 -1.7 184.0 -1.55 183.65 -1.7 183.5 -2.05 183.65 -2.4 M187.65 -2.4 L188.0 -2.55 188.35 -2.4 188.5 -2.05 188.35 -1.7 Q188.2 -1.55 188.0 -1.55 L187.65 -1.7 187.5 -2.05 187.65 -2.4 M192.0 -0.35 L192.35 -0.2 192.5 0.15 192.35 0.5 192.0 0.65 191.65 0.5 191.5 0.15 191.65 -0.2 192.0 -0.35 M191.65 -2.4 L192.0 -2.55 192.35 -2.4 192.5 -2.05 192.35 -1.7 192.0 -1.55 Q191.8 -1.55 191.65 -1.7 L191.5 -2.05 191.65 -2.4 M192.35 3.8 L192.5 4.15 192.35 4.5 192.0 4.65 191.65 4.5 191.5 4.15 191.65 3.8 Q191.8 3.65 192.0 3.65 L192.35 3.8 M191.65 7.8 Q191.8 7.65 192.0 7.65 L192.35 7.8 192.5 8.15 192.35 8.5 192.0 8.65 191.65 8.5 191.5 8.15 191.65 7.8 M191.65 11.8 Q191.8 11.65 192.0 11.65 L192.35 11.8 192.5 12.15 192.35 12.5 192.0 12.65 191.65 12.5 191.5 12.15 191.65 11.8 M191.65 15.8 Q191.8 15.65 192.0 15.65 L192.35 15.8 192.5 16.15 192.35 16.5 192.0 16.65 191.65 16.5 191.5 16.15 191.65 15.8 M182.85 22.3 L183.0 22.65 182.85 23.0 182.5 23.15 182.15 23.0 182.0 22.65 182.15 22.3 182.5 22.15 182.85 22.3 M186.15 22.3 Q186.3 22.15 186.5 22.15 L186.85 22.3 187.0 22.65 186.85 23.0 186.5 23.15 186.15 23.0 186.0 22.65 186.15 22.3 M191.65 19.8 Q191.8 19.65 192.0 19.65 L192.35 19.8 192.5 20.15 192.35 20.5 192.0 20.65 191.65 20.5 191.5 20.15 191.65 19.8 M190.85 22.3 L191.0 22.65 190.85 23.0 190.5 23.15 190.15 23.0 190.0 22.65 Q190.0 22.45 190.15 22.3 190.3 22.15 190.5 22.15 L190.85 22.3 M162.15 22.3 Q162.3 22.15 162.5 22.15 162.7 22.15 162.85 22.3 L163.0 22.65 162.85 23.0 162.5 23.15 162.15 23.0 162.0 22.65 Q162.0 22.45 162.15 22.3 M166.15 22.3 Q166.3 22.15 166.5 22.15 166.7 22.15 166.85 22.3 L167.0 22.65 166.85 23.0 166.5 23.15 166.15 23.0 166.0 22.65 Q166.0 22.45 166.15 22.3 M170.15 22.3 L170.5 22.15 170.85 22.3 171.0 22.65 170.85 23.0 170.5 23.15 170.15 23.0 170.0 22.65 170.15 22.3 M174.85 22.3 L175.0 22.65 174.85 23.0 174.5 23.15 174.15 23.0 174.0 22.65 174.15 22.3 Q174.3 22.15 174.5 22.15 L174.85 22.3 M178.85 22.3 L179.0 22.65 178.85 23.0 178.5 23.15 178.15 23.0 178.0 22.65 Q178.0 22.45 178.15 22.3 178.3 22.15 178.5 22.15 L178.85 22.3 M142.85 22.3 L143.0 22.65 142.85 23.0 142.5 23.15 142.15 23.0 142.0 22.65 Q142.0 22.45 142.15 22.3 142.3 22.15 142.5 22.15 142.7 22.15 142.85 22.3 M146.15 22.3 Q146.3 22.15 146.5 22.15 L146.85 22.3 147.0 22.65 146.85 23.0 146.5 23.15 146.15 23.0 146.0 22.65 146.15 22.3 M150.15 22.3 Q150.3 22.15 150.5 22.15 150.7 22.15 150.85 22.3 L151.0 22.65 150.85 23.0 150.5 23.15 150.15 23.0 150.0 22.65 Q150.0 22.45 150.15 22.3 M154.85 22.3 L155.0 22.65 154.85 23.0 154.5 23.15 154.15 23.0 154.0 22.65 Q154.0 22.45 154.15 22.3 154.3 22.15 154.5 22.15 154.7 22.15 154.85 22.3 M158.15 22.3 Q158.3 22.15 158.5 22.15 L158.85 22.3 159.0 22.65 158.85 23.0 158.5 23.15 158.15 23.0 158.0 22.65 158.15 22.3 M122.15 22.3 Q122.3 22.15 122.5 22.15 L122.85 22.3 123.0 22.65 122.85 23.0 122.5 23.15 122.15 23.0 122.0 22.65 122.15 22.3 M126.15 22.3 Q126.3 22.15 126.5 22.15 126.7 22.15 126.85 22.3 L127.0 22.65 126.85 23.0 126.5 23.15 126.15 23.0 126.0 22.65 126.15 22.3 M130.15 22.3 Q130.3 22.15 130.5 22.15 L130.85 22.3 131.0 22.65 130.85 23.0 130.5 23.15 Q130.3 23.15 130.15 23.0 L130.0 22.65 130.15 22.3 M134.85 22.3 L135.0 22.65 134.85 23.0 134.5 23.15 134.15 23.0 134.0 22.65 134.15 22.3 Q134.3 22.15 134.5 22.15 L134.85 22.3 M138.15 22.3 Q138.3 22.15 138.5 22.15 138.7 22.15 138.85 22.3 L139.0 22.65 138.85 23.0 138.5 23.15 138.15 23.0 138.0 22.65 Q138.0 22.45 138.15 22.3 M102.85 22.3 L103.0 22.65 102.85 23.0 102.5 23.15 102.15 23.0 102.0 22.65 102.15 22.3 Q102.3 22.15 102.5 22.15 L102.85 22.3 M106.15 22.3 Q106.3 22.15 106.5 22.15 L106.85 22.3 107.0 22.65 106.85 23.0 106.5 23.15 106.15 23.0 106.0 22.65 Q106.0 22.45 106.15 22.3 M110.15 22.3 L110.5 22.15 110.85 22.3 111.0 22.65 110.85 23.0 110.5 23.15 110.15 23.0 110.0 22.65 110.15 22.3 M114.85 22.3 L115.0 22.65 114.85 23.0 114.5 23.15 114.15 23.0 114.0 22.65 114.15 22.3 114.5 22.15 Q114.7 22.15 114.85 22.3 M118.15 22.3 Q118.3 22.15 118.5 22.15 L118.85 22.3 119.0 22.65 118.85 23.0 118.5 23.15 118.15 23.0 118.0 22.65 118.15 22.3 M82.85 22.3 L83.0 22.65 82.85 23.0 82.5 23.15 82.15 23.0 82.0 22.65 Q82.0 22.45 82.15 22.3 82.3 22.15 82.5 22.15 82.7 22.15 82.85 22.3 M86.85 22.3 L87.0 22.65 86.85 23.0 86.5 23.15 86.15 23.0 86.0 22.65 86.15 22.3 86.5 22.15 86.85 22.3 M90.15 22.3 Q90.3 22.15 90.5 22.15 L90.85 22.3 91.0 22.65 90.85 23.0 90.5 23.15 90.15 23.0 90.0 22.65 90.15 22.3 M94.85 22.3 L95.0 22.65 94.85 23.0 94.5 23.15 94.15 23.0 94.0 22.65 Q94.0 22.45 94.15 22.3 94.3 22.15 94.5 22.15 L94.85 22.3 M98.15 22.3 L98.5 22.15 98.85 22.3 99.0 22.65 98.85 23.0 98.5 23.15 98.15 23.0 98.0 22.65 98.15 22.3 M62.15 22.3 Q62.3 22.15 62.5 22.15 L62.85 22.3 63.0 22.65 62.85 23.0 62.5 23.15 62.15 23.0 62.0 22.65 62.15 22.3 M66.85 22.3 L67.0 22.65 66.85 23.0 66.5 23.15 66.15 23.0 66.0 22.65 Q66.0 22.45 66.15 22.3 66.3 22.15 66.5 22.15 66.7 22.15 66.85 22.3 M70.15 22.3 Q70.3 22.15 70.5 22.15 70.7 22.15 70.85 22.3 L71.0 22.65 70.85 23.0 70.5 23.15 70.15 23.0 70.0 22.65 Q70.0 22.45 70.15 22.3 M74.85 22.3 L75.0 22.65 74.85 23.0 74.5 23.15 74.15 23.0 74.0 22.65 74.15 22.3 Q74.3 22.15 74.5 22.15 L74.85 22.3 M78.15 22.3 Q78.3 22.15 78.5 22.15 78.7 22.15 78.85 22.3 L79.0 22.65 78.85 23.0 78.5 23.15 78.15 23.0 78.0 22.65 Q78.0 22.45 78.15 22.3 M42.85 22.3 L43.0 22.65 42.85 23.0 42.5 23.15 42.15 23.0 42.0 22.65 42.15 22.3 Q42.3 22.15 42.5 22.15 42.7 22.15 42.85 22.3 M46.85 22.3 L47.0 22.65 46.85 23.0 46.5 23.15 Q46.3 23.15 46.15 23.0 L46.0 22.65 46.15 22.3 Q46.3 22.15 46.5 22.15 L46.85 22.3 M50.15 22.3 Q50.3 22.15 50.5 22.15 L50.85 22.3 51.0 22.65 50.85 23.0 50.5 23.15 50.15 23.0 50.0 22.65 50.15 22.3 M54.15 22.3 Q54.3 22.15 54.5 22.15 54.7 22.15 54.85 22.3 L55.0 22.65 54.85 23.0 54.5 23.15 54.15 23.0 54.0 22.65 Q54.0 22.45 54.15 22.3 M58.15 22.3 Q58.3 22.15 58.5 22.15 58.7 22.15 58.85 22.3 L59.0 22.65 58.85 23.0 58.5 23.15 58.15 23.0 58.0 22.65 Q58.0 22.45 58.15 22.3 M22.15 22.3 Q22.3 22.15 22.5 22.15 L22.85 22.3 23.0 22.65 22.85 23.0 22.5 23.15 22.15 23.0 22.0 22.65 Q22.0 22.45 22.15 22.3 M26.85 22.3 L27.0 22.65 26.85 23.0 26.5 23.15 26.15 23.0 26.0 22.65 26.15 22.3 26.5 22.15 26.85 22.3 M30.15 22.3 L30.5 22.15 Q30.7 22.15 30.85 22.3 L31.0 22.65 30.85 23.0 30.5 23.15 30.15 23.0 30.0 22.65 30.15 22.3 M34.15 22.3 Q34.3 22.15 34.5 22.15 L34.85 22.3 35.0 22.65 34.85 23.0 34.5 23.15 34.15 23.0 34.0 22.65 34.15 22.3 M38.15 22.3 Q38.3 22.15 38.5 22.15 L38.85 22.3 39.0 22.65 38.85 23.0 38.5 23.15 38.15 23.0 38.0 22.65 38.15 22.3 M2.85 22.3 L3.0 22.65 2.85 23.0 2.5 23.15 2.15 23.0 2.0 22.65 2.15 22.3 2.5 22.15 2.85 22.3 M6.15 22.3 Q6.3 22.15 6.5 22.15 L6.85 22.3 7.0 22.65 6.85 23.0 6.5 23.15 6.15 23.0 6.0 22.65 6.15 22.3 M11.0 22.65 L10.85 23.0 10.5 23.15 10.15 23.0 10.0 22.65 Q10.0 22.45 10.15 22.3 10.3 22.15 10.5 22.15 L10.85 22.3 11.0 22.65 M14.15 22.3 L14.5 22.15 14.85 22.3 15.0 22.65 14.85 23.0 14.5 23.15 14.15 23.0 14.0 22.65 14.15 22.3 M18.15 22.3 Q18.3 22.15 18.5 22.15 L18.85 22.3 19.0 22.65 18.85 23.0 18.5 23.15 18.15 23.0 18.0 22.65 18.15 22.3 M-44.35 -2.4 L-44.0 -2.55 -43.65 -2.4 -43.5 -2.05 Q-43.5 -1.85 -43.65 -1.7 -43.8 -1.55 -44.0 -1.55 -44.2 -1.55 -44.35 -1.7 L-44.5 -2.05 -44.35 -2.4 M-40.35 -2.4 L-40.0 -2.55 -39.65 -2.4 -39.5 -2.05 -39.65 -1.7 Q-39.8 -1.55 -40.0 -1.55 L-40.35 -1.7 -40.5 -2.05 -40.35 -2.4 M-35.65 -2.4 L-35.5 -2.05 -35.65 -1.7 Q-35.8 -1.55 -36.0 -1.55 L-36.35 -1.7 -36.5 -2.05 -36.35 -2.4 -36.0 -2.55 Q-35.8 -2.55 -35.65 -2.4 M-31.65 -2.4 L-31.5 -2.05 -31.65 -1.7 Q-31.8 -1.55 -32.0 -1.55 -32.2 -1.55 -32.35 -1.7 L-32.5 -2.05 -32.35 -2.4 -32.0 -2.55 -31.65 -2.4 M-28.35 -2.4 L-28.0 -2.55 -27.65 -2.4 -27.5 -2.05 -27.65 -1.7 Q-27.8 -1.55 -28.0 -1.55 L-28.35 -1.7 -28.5 -2.05 -28.35 -2.4 M-24.35 -2.4 L-24.0 -2.55 -23.65 -2.4 -23.5 -2.05 -23.65 -1.7 Q-23.8 -1.55 -24.0 -1.55 L-24.35 -1.7 -24.5 -2.05 -24.35 -2.4 M-20.5 -2.05 L-20.35 -2.4 -20.0 -2.55 -19.65 -2.4 -19.5 -2.05 -19.65 -1.7 -20.0 -1.55 Q-20.2 -1.55 -20.35 -1.7 L-20.5 -2.05 M-15.65 -2.4 L-15.5 -2.05 -15.65 -1.7 -16.0 -1.55 -16.35 -1.7 -16.5 -2.05 -16.35 -2.4 -16.0 -2.55 -15.65 -2.4 M-11.65 -2.4 L-11.5 -2.05 Q-11.5 -1.85 -11.65 -1.7 -11.8 -1.55 -12.0 -1.55 L-12.35 -1.7 -12.5 -2.05 -12.35 -2.4 -12.0 -2.55 -11.65 -2.4 M-8.35 -2.4 L-8.0 -2.55 -7.65 -2.4 -7.5 -2.05 -7.65 -1.7 Q-7.8 -1.55 -8.0 -1.55 L-8.35 -1.7 -8.5 -2.05 -8.35 -2.4 M-4.35 -2.4 L-4.0 -2.55 -3.65 -2.4 -3.5 -2.05 -3.65 -1.7 -4.0 -1.55 -4.35 -1.7 -4.5 -2.05 -4.35 -2.4 M-17.85 22.3 L-17.5 22.15 Q-17.3 22.15 -17.15 22.3 L-17.0 22.65 -17.15 23.0 -17.5 23.15 -17.85 23.0 -18.0 22.65 -17.85 22.3 M-13.85 22.3 L-13.5 22.15 Q-13.3 22.15 -13.15 22.3 L-13.0 22.65 -13.15 23.0 -13.5 23.15 -13.85 23.0 -14.0 22.65 -13.85 22.3 M-9.85 22.3 Q-9.7 22.15 -9.5 22.15 L-9.15 22.3 -9.0 22.65 -9.15 23.0 -9.5 23.15 -9.85 23.0 -10.0 22.65 -9.85 22.3 M-5.85 22.3 L-5.5 22.15 -5.15 22.3 -5.0 22.65 -5.15 23.0 -5.5 23.15 -5.85 23.0 -6.0 22.65 -5.85 22.3 M-1.85 22.3 L-1.5 22.15 Q-1.3 22.15 -1.15 22.3 -1.0 22.45 -1.0 22.65 L-1.15 23.0 -1.5 23.15 -1.85 23.0 -2.0 22.65 -1.85 22.3 M-37.15 22.3 Q-37.0 22.45 -37.0 22.65 L-37.15 23.0 -37.5 23.15 -37.85 23.0 -38.0 22.65 -37.85 22.3 Q-37.7 22.15 -37.5 22.15 -37.3 22.15 -37.15 22.3 M-33.85 22.3 Q-33.7 22.15 -33.5 22.15 -33.3 22.15 -33.15 22.3 -33.0 22.45 -33.0 22.65 L-33.15 23.0 -33.5 23.15 -33.85 23.0 -34.0 22.65 -33.85 22.3 M-29.85 22.3 L-29.5 22.15 Q-29.3 22.15 -29.15 22.3 L-29.0 22.65 -29.15 23.0 -29.5 23.15 -29.85 23.0 -30.0 22.65 -29.85 22.3 M-25.85 22.3 L-25.5 22.15 Q-25.3 22.15 -25.15 22.3 L-25.0 22.65 -25.15 23.0 Q-25.3 23.15 -25.5 23.15 L-25.85 23.0 -26.0 22.65 -25.85 22.3 M-21.85 22.3 Q-21.7 22.15 -21.5 22.15 -21.3 22.15 -21.15 22.3 L-21.0 22.65 -21.15 23.0 -21.5 23.15 -21.85 23.0 -22.0 22.65 -21.85 22.3 M-44.75 1.2 L-44.4 1.05 Q-44.2 1.05 -44.05 1.2 L-43.9 1.55 -44.05 1.9 Q-44.2 2.05 -44.4 2.05 L-44.75 1.9 -44.9 1.55 -44.75 1.2 M-44.75 5.2 L-44.4 5.05 Q-44.2 5.05 -44.05 5.2 L-43.9 5.55 -44.05 5.9 Q-44.2 6.05 -44.4 6.05 L-44.75 5.9 -44.9 5.55 -44.75 5.2 M-44.75 9.2 L-44.4 9.05 Q-44.2 9.05 -44.05 9.2 L-43.9 9.55 -44.05 9.9 Q-44.2 10.05 -44.4 10.05 L-44.75 9.9 -44.9 9.55 -44.75 9.2 M-44.75 13.2 L-44.4 13.05 Q-44.2 13.05 -44.05 13.2 L-43.9 13.55 -44.05 13.9 Q-44.2 14.05 -44.4 14.05 L-44.75 13.9 -44.9 13.55 -44.75 13.2 M-44.75 17.2 L-44.4 17.05 Q-44.2 17.05 -44.05 17.2 L-43.9 17.55 -44.05 17.9 Q-44.2 18.05 -44.4 18.05 L-44.75 17.9 -44.9 17.55 -44.75 17.2 M-44.05 21.2 L-43.9 21.55 -44.05 21.9 Q-44.2 22.05 -44.4 22.05 L-44.75 21.9 -44.9 21.55 -44.75 21.2 -44.4 21.05 Q-44.2 21.05 -44.05 21.2 M-41.85 22.3 L-41.5 22.15 Q-41.3 22.15 -41.15 22.3 L-41.0 22.65 -41.15 23.0 -41.5 23.15 -41.85 23.0 -42.0 22.65 -41.85 22.3" fill="#c2b778" fill-rule="evenodd" stroke="none"/>
  </g>
</svg>
