<?xml version="1.0" encoding="UTF-8" standalone="no"?>
<svg xmlns:xlink="http://www.w3.org/1999/xlink" height="256.8px" width="334.5px" xmlns="http://www.w3.org/2000/svg">
  <g transform="matrix(1.0, 0.0, 0.0, 1.0, -208.75, -158.35)">
    <path d="M518.4 158.5 L518.75 158.35 Q518.95 158.35 519.1 158.5 L519.25 158.85 519.1 159.2 518.75 159.35 518.4 159.2 518.25 158.85 518.4 158.5 M522.4 158.5 Q522.55 158.35 522.75 158.35 L523.1 158.5 523.25 158.85 523.1 159.2 522.75 159.35 522.4 159.2 522.25 158.85 522.4 158.5 M526.4 158.5 Q526.55 158.35 526.75 158.35 L527.1 158.5 527.25 158.85 527.1 159.2 526.75 159.35 526.4 159.2 526.25 158.85 526.4 158.5 M506.4 158.5 Q506.55 158.35 506.75 158.35 L507.1 158.5 507.25 158.85 507.1 159.2 506.75 159.35 506.4 159.2 506.25 158.85 506.4 158.5 M511.1 158.5 L511.25 158.85 511.1 159.2 510.75 159.35 510.4 159.2 510.25 158.85 Q510.25 158.65 510.4 158.5 510.55 158.35 510.75 158.35 L511.1 158.5 M515.1 158.5 L515.25 158.85 515.1 159.2 514.75 159.35 514.4 159.2 514.25 158.85 514.4 158.5 514.75 158.35 515.1 158.5 M498.4 158.5 Q498.55 158.35 498.75 158.35 L499.1 158.5 499.25 158.85 499.1 159.2 498.75 159.35 498.4 159.2 498.25 158.85 Q498.25 158.65 498.4 158.5 M502.4 158.5 L502.75 158.35 503.1 158.5 503.25 158.85 503.1 159.2 502.75 159.35 502.4 159.2 502.25 158.85 502.4 158.5 M486.4 158.5 Q486.55 158.35 486.75 158.35 486.95 158.35 487.1 158.5 L487.25 158.85 487.1 159.2 486.75 159.35 486.4 159.2 486.25 158.85 Q486.25 158.65 486.4 158.5 M490.75 158.35 L491.1 158.5 491.25 158.85 491.1 159.2 490.75 159.35 490.4 159.2 490.25 158.85 490.4 158.5 490.75 158.35 M494.4 158.5 Q494.55 158.35 494.75 158.35 L495.1 158.5 495.25 158.85 495.1 159.2 494.75 159.35 494.4 159.2 494.25 158.85 494.4 158.5 M502.0 176.6 L502.15 176.95 502.0 177.3 501.65 177.45 501.3 177.3 501.15 176.95 Q501.15 176.75 501.3 176.6 501.45 176.45 501.65 176.45 501.85 176.45 502.0 176.6 M505.3 176.6 Q505.45 176.45 505.65 176.45 505.85 176.45 506.0 176.6 L506.15 176.95 506.0 177.3 505.65 177.45 505.3 177.3 505.15 176.95 Q505.15 176.75 505.3 176.6 M498.0 176.6 L498.15 176.95 498.0 177.3 497.65 177.45 497.3 177.3 497.15 176.95 497.3 176.6 Q497.45 176.45 497.65 176.45 L498.0 176.6 M493.3 176.6 Q493.45 176.45 493.65 176.45 493.85 176.45 494.0 176.6 L494.15 176.95 494.0 177.3 493.65 177.45 493.3 177.3 493.15 176.95 Q493.15 176.75 493.3 176.6 M486.0 177.3 L485.65 177.45 485.3 177.3 485.15 176.95 485.3 176.6 Q485.45 176.45 485.65 176.45 L486.0 176.6 486.15 176.95 486.0 177.3 M489.3 176.6 Q489.45 176.45 489.65 176.45 489.85 176.45 490.0 176.6 L490.15 176.95 490.0 177.3 489.65 177.45 489.3 177.3 489.15 176.95 Q489.15 176.75 489.3 176.6 M522.0 176.6 L522.15 176.95 522.0 177.3 521.65 177.45 521.3 177.3 521.15 176.95 521.3 176.6 521.65 176.45 522.0 176.6 M525.3 176.6 Q525.45 176.45 525.65 176.45 L526.0 176.6 526.15 176.95 526.0 177.3 525.65 177.45 525.3 177.3 525.15 176.95 525.3 176.6 M517.3 176.6 Q517.45 176.45 517.65 176.45 L518.0 176.6 518.15 176.95 518.0 177.3 517.65 177.45 517.3 177.3 517.15 176.95 Q517.15 176.75 517.3 176.6 M513.3 176.6 Q513.45 176.45 513.65 176.45 L514.0 176.6 514.15 176.95 514.0 177.3 513.65 177.45 513.3 177.3 513.15 176.95 513.3 176.6 M509.3 176.6 L509.65 176.45 510.0 176.6 510.15 176.95 510.0 177.3 509.65 177.45 509.3 177.3 509.15 176.95 509.3 176.6 M538.4 158.5 Q538.55 158.35 538.75 158.35 L539.1 158.5 539.25 158.85 539.1 159.2 538.75 159.35 538.4 159.2 538.25 158.85 538.4 158.5 M543.1 158.5 L543.25 158.85 543.1 159.2 542.75 159.35 542.4 159.2 542.25 158.85 Q542.25 158.65 542.4 158.5 542.55 158.35 542.75 158.35 542.95 158.35 543.1 158.5 M531.1 158.5 L531.25 158.85 531.1 159.2 530.75 159.35 530.4 159.2 530.25 158.85 530.4 158.5 Q530.55 158.35 530.75 158.35 530.95 158.35 531.1 158.5 M535.1 158.5 L535.25 158.85 535.1 159.2 534.75 159.35 Q534.55 159.35 534.4 159.2 L534.25 158.85 534.4 158.5 Q534.55 158.35 534.75 158.35 L535.1 158.5 M542.4 161.7 Q542.55 161.55 542.75 161.55 542.95 161.55 543.1 161.7 L543.25 162.05 543.1 162.4 542.75 162.55 542.4 162.4 542.25 162.05 Q542.25 161.85 542.4 161.7 M543.1 165.7 L543.25 166.05 543.1 166.4 542.75 166.55 542.4 166.4 542.25 166.05 Q542.25 165.85 542.4 165.7 542.55 165.55 542.75 165.55 542.95 165.55 543.1 165.7 M543.1 169.7 L543.25 170.05 543.1 170.4 542.75 170.55 542.4 170.4 542.25 170.05 Q542.25 169.85 542.4 169.7 542.55 169.55 542.75 169.55 542.95 169.55 543.1 169.7 M542.4 173.7 Q542.55 173.55 542.75 173.55 542.95 173.55 543.1 173.7 L543.25 174.05 543.1 174.4 542.75 174.55 542.4 174.4 542.25 174.05 Q542.25 173.85 542.4 173.7 M542.0 177.3 L541.65 177.45 541.3 177.3 541.15 176.95 541.3 176.6 Q541.45 176.45 541.65 176.45 L542.0 176.6 542.15 176.95 542.0 177.3 M537.3 176.6 L537.65 176.45 Q537.85 176.45 538.0 176.6 L538.15 176.95 538.0 177.3 537.65 177.45 537.3 177.3 537.15 176.95 537.3 176.6 M533.3 176.6 L533.65 176.45 534.0 176.6 534.15 176.95 534.0 177.3 533.65 177.45 533.3 177.3 533.15 176.95 533.3 176.6 M529.3 176.6 Q529.45 176.45 529.65 176.45 L530.0 176.6 530.15 176.95 530.0 177.3 529.65 177.45 529.3 177.3 529.15 176.95 Q529.15 176.75 529.3 176.6 M355.25 158.85 L355.1 159.2 354.75 159.35 354.4 159.2 354.25 158.85 354.4 158.5 Q354.55 158.35 354.75 158.35 L355.1 158.5 355.25 158.85 M359.1 158.5 L359.25 158.85 359.1 159.2 358.75 159.35 358.4 159.2 358.25 158.85 358.4 158.5 Q358.55 158.35 358.75 158.35 L359.1 158.5 M363.1 158.5 L363.25 158.85 363.1 159.2 362.75 159.35 362.4 159.2 362.25 158.85 362.4 158.5 Q362.55 158.35 362.75 158.35 362.95 158.35 363.1 158.5 M346.4 158.5 L346.75 158.35 347.1 158.5 347.25 158.85 347.1 159.2 346.75 159.35 346.4 159.2 346.25 158.85 346.4 158.5 M351.1 158.5 L351.25 158.85 351.1 159.2 350.75 159.35 350.4 159.2 350.25 158.85 350.4 158.5 350.75 158.35 Q350.95 158.35 351.1 158.5 M334.4 158.5 L334.75 158.35 335.1 158.5 335.25 158.85 335.1 159.2 334.75 159.35 334.4 159.2 334.25 158.85 334.4 158.5 M339.1 158.5 L339.25 158.85 339.1 159.2 338.75 159.35 338.4 159.2 338.25 158.85 338.4 158.5 Q338.55 158.35 338.75 158.35 L339.1 158.5 M342.4 158.5 Q342.55 158.35 342.75 158.35 L343.1 158.5 343.25 158.85 343.1 159.2 342.75 159.35 342.4 159.2 342.25 158.85 Q342.25 158.65 342.4 158.5 M326.4 158.5 Q326.55 158.35 326.75 158.35 L327.1 158.5 327.25 158.85 327.1 159.2 326.75 159.35 326.4 159.2 326.25 158.85 326.4 158.5 M331.1 158.5 L331.25 158.85 331.1 159.2 330.75 159.35 330.4 159.2 330.25 158.85 Q330.25 158.65 330.4 158.5 330.55 158.35 330.75 158.35 L331.1 158.5 M341.3 176.6 L341.65 176.45 342.0 176.6 342.15 176.95 342.0 177.3 341.65 177.45 341.3 177.3 341.15 176.95 341.3 176.6 M338.0 176.6 L338.15 176.95 338.0 177.3 337.65 177.45 337.3 177.3 337.15 176.95 Q337.15 176.75 337.3 176.6 337.45 176.45 337.65 176.45 337.85 176.45 338.0 176.6 M330.0 176.6 L330.15 176.95 330.0 177.3 329.65 177.45 329.3 177.3 329.15 176.95 329.3 176.6 Q329.45 176.45 329.65 176.45 L330.0 176.6 M333.3 176.6 Q333.45 176.45 333.65 176.45 333.85 176.45 334.0 176.6 L334.15 176.95 334.0 177.3 333.65 177.45 333.3 177.3 333.15 176.95 Q333.15 176.75 333.3 176.6 M325.3 176.6 Q325.45 176.45 325.65 176.45 325.85 176.45 326.0 176.6 L326.15 176.95 326.0 177.3 325.65 177.45 325.3 177.3 325.15 176.95 Q325.15 176.75 325.3 176.6 M361.3 176.6 Q361.45 176.45 361.65 176.45 L362.0 176.6 362.15 176.95 362.0 177.3 361.65 177.45 361.3 177.3 361.15 176.95 Q361.15 176.75 361.3 176.6 M358.0 176.6 L358.15 176.95 358.0 177.3 357.65 177.45 357.3 177.3 357.15 176.95 357.3 176.6 Q357.45 176.45 357.65 176.45 L358.0 176.6 M350.0 176.6 L350.15 176.95 350.0 177.3 349.65 177.45 349.3 177.3 349.15 176.95 Q349.15 176.75 349.3 176.6 349.45 176.45 349.65 176.45 L350.0 176.6 M353.3 176.6 L353.65 176.45 354.0 176.6 354.15 176.95 354.0 177.3 353.65 177.45 353.3 177.3 353.15 176.95 353.3 176.6 M346.0 176.6 L346.15 176.95 346.0 177.3 345.65 177.45 345.3 177.3 345.15 176.95 345.3 176.6 Q345.45 176.45 345.65 176.45 L346.0 176.6 M395.25 158.85 L395.1 159.2 394.75 159.35 394.4 159.2 394.25 158.85 394.4 158.5 Q394.55 158.35 394.75 158.35 L395.1 158.5 395.25 158.85 M399.1 158.5 L399.25 158.85 399.1 159.2 398.75 159.35 398.4 159.2 398.25 158.85 Q398.25 158.65 398.4 158.5 398.55 158.35 398.75 158.35 398.95 158.35 399.1 158.5 M403.1 158.5 L403.25 158.85 403.1 159.2 402.75 159.35 402.4 159.2 402.25 158.85 Q402.25 158.65 402.4 158.5 402.55 158.35 402.75 158.35 402.95 158.35 403.1 158.5 M386.4 158.5 Q386.55 158.35 386.75 158.35 386.95 158.35 387.1 158.5 L387.25 158.85 387.1 159.2 386.75 159.35 386.4 159.2 386.25 158.85 Q386.25 158.65 386.4 158.5 M390.4 158.5 Q390.55 158.35 390.75 158.35 390.95 158.35 391.1 158.5 L391.25 158.85 391.1 159.2 390.75 159.35 390.4 159.2 390.25 158.85 Q390.25 158.65 390.4 158.5 M375.25 158.85 L375.1 159.2 374.75 159.35 374.4 159.2 374.25 158.85 Q374.25 158.65 374.4 158.5 374.55 158.35 374.75 158.35 374.95 158.35 375.1 158.5 L375.25 158.85 M379.1 158.5 L379.25 158.85 379.1 159.2 378.75 159.35 378.4 159.2 378.25 158.85 Q378.25 158.65 378.4 158.5 378.55 158.35 378.75 158.35 378.95 158.35 379.1 158.5 M382.4 158.5 Q382.55 158.35 382.75 158.35 L383.1 158.5 383.25 158.85 383.1 159.2 382.75 159.35 382.4 159.2 382.25 158.85 382.4 158.5 M366.4 158.5 Q366.55 158.35 366.75 158.35 L367.1 158.5 367.25 158.85 367.1 159.2 366.75 159.35 Q366.55 159.35 366.4 159.2 L366.25 158.85 366.4 158.5 M370.4 158.5 Q370.55 158.35 370.75 158.35 L371.1 158.5 371.25 158.85 371.1 159.2 370.75 159.35 370.4 159.2 370.25 158.85 370.4 158.5 M381.3 176.6 Q381.45 176.45 381.65 176.45 381.85 176.45 382.0 176.6 L382.15 176.95 382.0 177.3 381.65 177.45 381.3 177.3 381.15 176.95 381.3 176.6 M378.0 176.6 L378.15 176.95 378.0 177.3 377.65 177.45 377.3 177.3 377.15 176.95 377.3 176.6 Q377.45 176.45 377.65 176.45 L378.0 176.6 M370.0 176.6 L370.15 176.95 370.0 177.3 369.65 177.45 369.3 177.3 369.15 176.95 369.3 176.6 369.65 176.45 Q369.85 176.45 370.0 176.6 M373.3 176.6 Q373.45 176.45 373.65 176.45 L374.0 176.6 374.15 176.95 374.0 177.3 373.65 177.45 373.3 177.3 373.15 176.95 373.3 176.6 M366.0 176.6 L366.15 176.95 366.0 177.3 365.65 177.45 365.3 177.3 365.15 176.95 365.3 176.6 365.65 176.45 366.0 176.6 M401.3 176.6 Q401.45 176.45 401.65 176.45 L402.0 176.6 402.15 176.95 402.0 177.3 401.65 177.45 401.3 177.3 401.15 176.95 401.3 176.6 M398.0 176.6 L398.15 176.95 398.0 177.3 397.65 177.45 397.3 177.3 397.15 176.95 Q397.15 176.75 397.3 176.6 397.45 176.45 397.65 176.45 397.85 176.45 398.0 176.6 M390.0 177.3 L389.65 177.45 389.3 177.3 389.15 176.95 389.3 176.6 Q389.45 176.45 389.65 176.45 L390.0 176.6 390.15 176.95 390.0 177.3 M393.3 176.6 Q393.45 176.45 393.65 176.45 393.85 176.45 394.0 176.6 L394.15 176.95 394.0 177.3 393.65 177.45 393.3 177.3 393.15 176.95 Q393.15 176.75 393.3 176.6 M386.0 176.6 L386.15 176.95 386.0 177.3 385.65 177.45 Q385.45 177.45 385.3 177.3 L385.15 176.95 385.3 176.6 Q385.45 176.45 385.65 176.45 L386.0 176.6 M438.4 158.5 Q438.55 158.35 438.75 158.35 L439.1 158.5 439.25 158.85 439.1 159.2 438.75 159.35 438.4 159.2 438.25 158.85 438.4 158.5 M443.1 158.5 L443.25 158.85 443.1 159.2 442.75 159.35 442.4 159.2 442.25 158.85 442.4 158.5 Q442.55 158.35 442.75 158.35 L443.1 158.5 M426.4 158.5 Q426.55 158.35 426.75 158.35 L427.1 158.5 427.25 158.85 427.1 159.2 426.75 159.35 426.4 159.2 426.25 158.85 Q426.25 158.65 426.4 158.5 M431.25 158.85 L431.1 159.2 430.75 159.35 430.4 159.2 430.25 158.85 430.4 158.5 430.75 158.35 431.1 158.5 431.25 158.85 M434.4 158.5 L434.75 158.35 Q434.95 158.35 435.1 158.5 L435.25 158.85 435.1 159.2 434.75 159.35 434.4 159.2 434.25 158.85 434.4 158.5 M418.4 158.5 L418.75 158.35 419.1 158.5 419.25 158.85 419.1 159.2 418.75 159.35 418.4 159.2 418.25 158.85 418.4 158.5 M422.4 158.5 Q422.55 158.35 422.75 158.35 L423.1 158.5 423.25 158.85 423.1 159.2 422.75 159.35 422.4 159.2 422.25 158.85 422.4 158.5 M406.4 158.5 L406.75 158.35 407.1 158.5 407.25 158.85 407.1 159.2 406.75 159.35 406.4 159.2 406.25 158.85 406.4 158.5 M410.4 158.5 Q410.55 158.35 410.75 158.35 L411.1 158.5 411.25 158.85 411.1 159.2 410.75 159.35 410.4 159.2 410.25 158.85 410.4 158.5 M414.4 158.5 Q414.55 158.35 414.75 158.35 L415.1 158.5 415.25 158.85 415.1 159.2 414.75 159.35 414.4 159.2 414.25 158.85 Q414.25 158.65 414.4 158.5 M421.3 176.6 Q421.45 176.45 421.65 176.45 421.85 176.45 422.0 176.6 L422.15 176.95 422.0 177.3 421.65 177.45 421.3 177.3 421.15 176.95 Q421.15 176.75 421.3 176.6 M418.0 176.6 L418.15 176.95 418.0 177.3 417.65 177.45 417.3 177.3 417.15 176.95 Q417.15 176.75 417.3 176.6 417.45 176.45 417.65 176.45 417.85 176.45 418.0 176.6 M413.3 176.6 Q413.45 176.45 413.65 176.45 L414.0 176.6 414.15 176.95 414.0 177.3 413.65 177.45 413.3 177.3 413.15 176.95 413.3 176.6 M406.0 176.6 L406.15 176.95 406.0 177.3 405.65 177.45 405.3 177.3 405.15 176.95 Q405.15 176.75 405.3 176.6 405.45 176.45 405.65 176.45 405.85 176.45 406.0 176.6 M409.3 176.6 Q409.45 176.45 409.65 176.45 409.85 176.45 410.0 176.6 L410.15 176.95 410.0 177.3 409.65 177.45 409.3 177.3 409.15 176.95 Q409.15 176.75 409.3 176.6 M442.0 176.6 L442.15 176.95 442.0 177.3 441.65 177.45 441.3 177.3 441.15 176.95 441.3 176.6 Q441.45 176.45 441.65 176.45 L442.0 176.6 M445.3 176.6 Q445.45 176.45 445.65 176.45 L446.0 176.6 446.15 176.95 446.0 177.3 445.65 177.45 445.3 177.3 445.15 176.95 Q445.15 176.75 445.3 176.6 M438.0 176.6 L438.15 176.95 438.0 177.3 437.65 177.45 437.3 177.3 437.15 176.95 437.3 176.6 437.65 176.45 438.0 176.6 M433.3 176.6 Q433.45 176.45 433.65 176.45 L434.0 176.6 434.15 176.95 434.0 177.3 433.65 177.45 433.3 177.3 433.15 176.95 Q433.15 176.75 433.3 176.6 M426.0 176.6 L426.15 176.95 426.0 177.3 425.65 177.45 425.3 177.3 425.15 176.95 425.3 176.6 425.65 176.45 426.0 176.6 M429.3 176.6 Q429.45 176.45 429.65 176.45 L430.0 176.6 430.15 176.95 430.0 177.3 429.65 177.45 429.3 177.3 429.15 176.95 429.3 176.6 M478.4 158.5 Q478.55 158.35 478.75 158.35 L479.1 158.5 479.25 158.85 479.1 159.2 478.75 159.35 478.4 159.2 478.25 158.85 478.4 158.5 M483.1 158.5 L483.25 158.85 483.1 159.2 482.75 159.35 482.4 159.2 482.25 158.85 Q482.25 158.65 482.4 158.5 482.55 158.35 482.75 158.35 482.95 158.35 483.1 158.5 M466.4 158.5 Q466.55 158.35 466.75 158.35 L467.1 158.5 467.25 158.85 467.1 159.2 466.75 159.35 466.4 159.2 466.25 158.85 466.4 158.5 M470.75 158.35 Q470.95 158.35 471.1 158.5 L471.25 158.85 471.1 159.2 470.75 159.35 470.4 159.2 470.25 158.85 Q470.25 158.65 470.4 158.5 470.55 158.35 470.75 158.35 M474.4 158.5 Q474.55 158.35 474.75 158.35 474.95 158.35 475.1 158.5 L475.25 158.85 475.1 159.2 474.75 159.35 474.4 159.2 474.25 158.85 Q474.25 158.65 474.4 158.5 M458.4 158.5 Q458.55 158.35 458.75 158.35 458.95 158.35 459.1 158.5 L459.25 158.85 459.1 159.2 458.75 159.35 458.4 159.2 458.25 158.85 Q458.25 158.65 458.4 158.5 M462.4 158.5 Q462.55 158.35 462.75 158.35 462.95 158.35 463.1 158.5 L463.25 158.85 463.1 159.2 462.75 159.35 462.4 159.2 462.25 158.85 Q462.25 158.65 462.4 158.5 M446.4 158.5 Q446.55 158.35 446.75 158.35 446.95 158.35 447.1 158.5 L447.25 158.85 447.1 159.2 446.75 159.35 446.4 159.2 446.25 158.85 446.4 158.5 M450.25 158.85 L450.4 158.5 Q450.55 158.35 450.75 158.35 L451.1 158.5 451.25 158.85 451.1 159.2 450.75 159.35 Q450.55 159.35 450.4 159.2 L450.25 158.85 M454.4 158.5 Q454.55 158.35 454.75 158.35 L455.1 158.5 455.25 158.85 455.1 159.2 454.75 159.35 454.4 159.2 454.25 158.85 454.4 158.5 M462.0 176.6 L462.15 176.95 462.0 177.3 461.65 177.45 461.3 177.3 461.15 176.95 461.3 176.6 Q461.45 176.45 461.65 176.45 L462.0 176.6 M465.3 176.6 Q465.45 176.45 465.65 176.45 465.85 176.45 466.0 176.6 L466.15 176.95 466.0 177.3 465.65 177.45 465.3 177.3 465.15 176.95 465.3 176.6 M458.0 176.6 L458.15 176.95 458.0 177.3 457.65 177.45 457.3 177.3 457.15 176.95 457.3 176.6 Q457.45 176.45 457.65 176.45 L458.0 176.6 M453.3 176.6 L453.65 176.45 Q453.85 176.45 454.0 176.6 L454.15 176.95 454.0 177.3 453.65 177.45 453.3 177.3 453.15 176.95 453.3 176.6 M449.3 176.6 L449.65 176.45 450.0 176.6 450.15 176.95 450.0 177.3 449.65 177.45 449.3 177.3 449.15 176.95 449.3 176.6 M482.0 176.6 L482.15 176.95 482.0 177.3 481.65 177.45 481.3 177.3 481.15 176.95 Q481.15 176.75 481.3 176.6 481.45 176.45 481.65 176.45 481.85 176.45 482.0 176.6 M478.0 176.6 L478.15 176.95 478.0 177.3 477.65 177.45 477.3 177.3 477.15 176.95 Q477.15 176.75 477.3 176.6 477.45 176.45 477.65 176.45 477.85 176.45 478.0 176.6 M473.3 176.6 Q473.45 176.45 473.65 176.45 L474.0 176.6 474.15 176.95 474.0 177.3 473.65 177.45 473.3 177.3 473.15 176.95 473.3 176.6 M469.3 176.6 Q469.45 176.45 469.65 176.45 L470.0 176.6 470.15 176.95 470.0 177.3 469.65 177.45 Q469.45 177.45 469.3 177.3 L469.15 176.95 469.3 176.6 M471.15 216.3 L471.0 216.65 470.65 216.8 470.3 216.65 470.15 216.3 470.3 215.95 470.65 215.8 471.0 215.95 471.15 216.3 M475.0 215.95 L475.15 216.3 475.0 216.65 474.65 216.8 474.3 216.65 474.15 216.3 474.3 215.95 474.65 215.8 Q474.85 215.8 475.0 215.95 M466.3 215.95 Q466.45 215.8 466.65 215.8 L467.0 215.95 467.15 216.3 467.0 216.65 466.65 216.8 466.3 216.65 466.15 216.3 Q466.15 216.1 466.3 215.95 M483.0 215.95 L483.15 216.3 483.0 216.65 482.65 216.8 482.3 216.65 482.15 216.3 482.3 215.95 Q482.45 215.8 482.65 215.8 L483.0 215.95 M478.3 215.95 Q478.45 215.8 478.65 215.8 L479.0 215.95 479.15 216.3 479.0 216.65 478.65 216.8 478.3 216.65 478.15 216.3 478.3 215.95 M451.15 216.3 L451.0 216.65 450.65 216.8 450.3 216.65 450.15 216.3 450.3 215.95 Q450.45 215.8 450.65 215.8 L451.0 215.95 451.15 216.3 M455.0 215.95 L455.15 216.3 455.0 216.65 454.65 216.8 454.3 216.65 454.15 216.3 Q454.15 216.1 454.3 215.95 454.45 215.8 454.65 215.8 L455.0 215.95 M446.3 215.95 L446.65 215.8 447.0 215.95 447.15 216.3 447.0 216.65 446.65 216.8 446.3 216.65 446.15 216.3 446.3 215.95 M462.3 215.95 Q462.45 215.8 462.65 215.8 L463.0 215.95 463.15 216.3 463.0 216.65 462.65 216.8 462.3 216.65 462.15 216.3 462.3 215.95 M458.3 215.95 L458.65 215.8 459.0 215.95 459.15 216.3 459.0 216.65 458.65 216.8 458.3 216.65 458.15 216.3 458.3 215.95 M431.15 216.3 L431.0 216.65 430.65 216.8 430.3 216.65 430.15 216.3 Q430.15 216.1 430.3 215.95 430.45 215.8 430.65 215.8 430.85 215.8 431.0 215.95 L431.15 216.3 M435.0 215.95 L435.15 216.3 435.0 216.65 434.65 216.8 434.3 216.65 434.15 216.3 434.3 215.95 Q434.45 215.8 434.65 215.8 L435.0 215.95 M426.3 215.95 Q426.45 215.8 426.65 215.8 426.85 215.8 427.0 215.95 L427.15 216.3 427.0 216.65 426.65 216.8 426.3 216.65 426.15 216.3 Q426.15 216.1 426.3 215.95 M443.0 215.95 L443.15 216.3 443.0 216.65 442.65 216.8 442.3 216.65 442.15 216.3 Q442.15 216.1 442.3 215.95 442.45 215.8 442.65 215.8 442.85 215.8 443.0 215.95 M438.3 215.95 Q438.45 215.8 438.65 215.8 438.85 215.8 439.0 215.95 L439.15 216.3 439.0 216.65 438.65 216.8 438.3 216.65 438.15 216.3 Q438.15 216.1 438.3 215.95 M410.3 215.95 Q410.45 215.8 410.65 215.8 L411.0 215.95 411.15 216.3 411.0 216.65 410.65 216.8 410.3 216.65 410.15 216.3 410.3 215.95 M415.0 215.95 L415.15 216.3 415.0 216.65 414.65 216.8 414.3 216.65 414.15 216.3 Q414.15 216.1 414.3 215.95 414.45 215.8 414.65 215.8 414.85 215.8 415.0 215.95 M406.3 215.95 Q406.45 215.8 406.65 215.8 L407.0 215.95 407.15 216.3 407.0 216.65 406.65 216.8 Q406.45 216.8 406.3 216.65 L406.15 216.3 406.3 215.95 M422.3 215.95 Q422.45 215.8 422.65 215.8 L423.0 215.95 423.15 216.3 423.0 216.65 422.65 216.8 422.3 216.65 422.15 216.3 422.3 215.95 M418.3 215.95 Q418.45 215.8 418.65 215.8 418.85 215.8 419.0 215.95 L419.15 216.3 419.0 216.65 418.65 216.8 418.3 216.65 418.15 216.3 Q418.15 216.1 418.3 215.95 M390.3 215.95 L390.65 215.8 Q390.85 215.8 391.0 215.95 L391.15 216.3 391.0 216.65 390.65 216.8 390.3 216.65 390.15 216.3 390.3 215.95 M394.65 215.8 L395.0 215.95 395.15 216.3 395.0 216.65 394.65 216.8 394.3 216.65 394.15 216.3 394.3 215.95 Q394.45 215.8 394.65 215.8 M386.3 215.95 L386.65 215.8 387.0 215.95 387.15 216.3 387.0 216.65 386.65 216.8 386.3 216.65 386.15 216.3 386.3 215.95 M403.0 215.95 L403.15 216.3 403.0 216.65 402.65 216.8 402.3 216.65 402.15 216.3 402.3 215.95 Q402.45 215.8 402.65 215.8 402.85 215.8 403.0 215.95 M398.3 215.95 Q398.45 215.8 398.65 215.8 L399.0 215.95 399.15 216.3 399.0 216.65 398.65 216.8 398.3 216.65 398.15 216.3 398.3 215.95 M370.3 215.95 Q370.45 215.8 370.65 215.8 L371.0 215.95 371.15 216.3 371.0 216.65 370.65 216.8 370.3 216.65 370.15 216.3 Q370.15 216.1 370.3 215.95 M374.3 215.95 L374.65 215.8 375.0 215.95 375.15 216.3 375.0 216.65 374.65 216.8 374.3 216.65 374.15 216.3 374.3 215.95 M366.3 215.95 Q366.45 215.8 366.65 215.8 L367.0 215.95 367.15 216.3 367.0 216.65 366.65 216.8 366.3 216.65 366.15 216.3 366.3 215.95 M382.3 215.95 Q382.45 215.8 382.65 215.8 L383.0 215.95 383.15 216.3 383.0 216.65 382.65 216.8 382.3 216.65 382.15 216.3 Q382.15 216.1 382.3 215.95 M378.3 215.95 Q378.45 215.8 378.65 215.8 L379.0 215.95 379.15 216.3 379.0 216.65 378.65 216.8 378.3 216.65 378.15 216.3 378.3 215.95 M350.3 215.95 Q350.45 215.8 350.65 215.8 L351.0 215.95 351.15 216.3 351.0 216.65 350.65 216.8 350.3 216.65 350.15 216.3 350.3 215.95 M354.3 215.95 Q354.45 215.8 354.65 215.8 354.85 215.8 355.0 215.95 L355.15 216.3 355.0 216.65 354.65 216.8 354.3 216.65 354.15 216.3 Q354.15 216.1 354.3 215.95 M346.3 215.95 Q346.45 215.8 346.65 215.8 346.85 215.8 347.0 215.95 L347.15 216.3 347.0 216.65 346.65 216.8 346.3 216.65 346.15 216.3 Q346.15 216.1 346.3 215.95 M363.0 215.95 L363.15 216.3 363.0 216.65 362.65 216.8 362.3 216.65 362.15 216.3 362.3 215.95 362.65 215.8 363.0 215.95 M358.3 215.95 Q358.45 215.8 358.65 215.8 358.85 215.8 359.0 215.95 L359.15 216.3 359.0 216.65 358.65 216.8 358.3 216.65 358.15 216.3 Q358.15 216.1 358.3 215.95 M331.0 215.95 L331.15 216.3 331.0 216.65 330.65 216.8 330.3 216.65 330.15 216.3 Q330.15 216.1 330.3 215.95 330.45 215.8 330.65 215.8 330.85 215.8 331.0 215.95 M326.3 215.95 Q326.45 215.8 326.65 215.8 L327.0 215.95 327.15 216.3 327.0 216.65 326.65 216.8 326.3 216.65 326.15 216.3 326.3 215.95 M342.3 215.95 Q342.45 215.8 342.65 215.8 342.85 215.8 343.0 215.95 L343.15 216.3 343.0 216.65 342.65 216.8 342.3 216.65 342.15 216.3 Q342.15 216.1 342.3 215.95 M334.3 215.95 Q334.45 215.8 334.65 215.8 334.85 215.8 335.0 215.95 L335.15 216.3 335.0 216.65 334.65 216.8 334.3 216.65 334.15 216.3 Q334.15 216.1 334.3 215.95 M338.3 215.95 Q338.45 215.8 338.65 215.8 L339.0 215.95 339.15 216.3 339.0 216.65 338.65 216.8 338.3 216.65 338.15 216.3 338.3 215.95 M535.0 215.95 L535.15 216.3 535.0 216.65 534.65 216.8 534.3 216.65 534.15 216.3 534.3 215.95 Q534.45 215.8 534.65 215.8 L535.0 215.95 M527.15 216.3 L527.0 216.65 526.65 216.8 526.3 216.65 526.15 216.3 Q526.15 216.1 526.3 215.95 526.45 215.8 526.65 215.8 526.85 215.8 527.0 215.95 L527.15 216.3 M530.3 215.95 L530.65 215.8 531.0 215.95 531.15 216.3 531.0 216.65 530.65 216.8 530.3 216.65 530.15 216.3 530.3 215.95 M542.3 215.95 L542.65 215.8 543.0 215.95 543.15 216.3 543.0 216.65 542.65 216.8 542.3 216.65 542.15 216.3 542.3 215.95 M538.3 215.95 Q538.45 215.8 538.65 215.8 L539.0 215.95 539.15 216.3 539.0 216.65 538.65 216.8 538.3 216.65 538.15 216.3 Q538.15 216.1 538.3 215.95 M542.75 220.65 L542.4 220.5 542.25 220.15 Q542.25 219.95 542.4 219.8 542.55 219.65 542.75 219.65 542.95 219.65 543.1 219.8 L543.25 220.15 543.1 220.5 542.75 220.65 M542.4 223.8 Q542.55 223.65 542.75 223.65 542.95 223.65 543.1 223.8 L543.25 224.15 543.1 224.5 542.75 224.65 542.4 224.5 542.25 224.15 Q542.25 223.95 542.4 223.8 M543.1 227.8 L543.25 228.15 543.1 228.5 542.75 228.65 542.4 228.5 542.25 228.15 Q542.25 227.95 542.4 227.8 542.55 227.65 542.75 227.65 542.95 227.65 543.1 227.8 M543.1 231.8 L543.25 232.15 543.1 232.5 542.75 232.65 542.4 232.5 542.25 232.15 Q542.25 231.95 542.4 231.8 542.55 231.65 542.75 231.65 542.95 231.65 543.1 231.8 M542.4 235.8 Q542.55 235.65 542.75 235.65 542.95 235.65 543.1 235.8 L543.25 236.15 543.1 236.5 542.75 236.65 542.4 236.5 542.25 236.15 Q542.25 235.95 542.4 235.8 M543.1 239.8 L543.25 240.15 543.1 240.5 542.75 240.65 542.4 240.5 542.25 240.15 Q542.25 239.95 542.4 239.8 542.55 239.65 542.75 239.65 542.95 239.65 543.1 239.8 M543.1 243.8 L543.25 244.15 543.1 244.5 542.75 244.65 542.4 244.5 542.25 244.15 Q542.25 243.95 542.4 243.8 542.55 243.65 542.75 243.65 542.95 243.65 543.1 243.8 M515.0 215.95 L515.15 216.3 515.0 216.65 514.65 216.8 514.3 216.65 514.15 216.3 Q514.15 216.1 514.3 215.95 514.45 215.8 514.65 215.8 514.85 215.8 515.0 215.95 M507.15 216.3 L507.0 216.65 506.65 216.8 506.3 216.65 506.15 216.3 506.3 215.95 Q506.45 215.8 506.65 215.8 L507.0 215.95 507.15 216.3 M510.3 215.95 Q510.45 215.8 510.65 215.8 510.85 215.8 511.0 215.95 L511.15 216.3 511.0 216.65 510.65 216.8 510.3 216.65 510.15 216.3 Q510.15 216.1 510.3 215.95 M522.3 215.95 Q522.45 215.8 522.65 215.8 522.85 215.8 523.0 215.95 L523.15 216.3 523.0 216.65 522.65 216.8 522.3 216.65 522.15 216.3 Q522.15 216.1 522.3 215.95 M518.3 215.95 Q518.45 215.8 518.65 215.8 L519.0 215.95 519.15 216.3 519.0 216.65 518.65 216.8 518.3 216.65 518.15 216.3 518.3 215.95 M495.0 215.95 L495.15 216.3 495.0 216.65 494.65 216.8 494.3 216.65 494.15 216.3 494.3 215.95 Q494.45 215.8 494.65 215.8 L495.0 215.95 M486.3 215.95 Q486.45 215.8 486.65 215.8 486.85 215.8 487.0 215.95 L487.15 216.3 487.0 216.65 486.65 216.8 486.3 216.65 486.15 216.3 486.3 215.95 M490.3 215.95 Q490.45 215.8 490.65 215.8 L491.0 215.95 491.15 216.3 491.0 216.65 490.65 216.8 Q490.45 216.8 490.3 216.65 L490.15 216.3 490.3 215.95 M502.3 215.95 Q502.45 215.8 502.65 215.8 502.85 215.8 503.0 215.95 L503.15 216.3 503.0 216.65 502.65 216.8 502.3 216.65 502.15 216.3 Q502.15 216.1 502.3 215.95 M498.3 215.95 Q498.45 215.8 498.65 215.8 498.85 215.8 499.0 215.95 L499.15 216.3 499.0 216.65 498.65 216.8 498.3 216.65 498.15 216.3 Q498.15 216.1 498.3 215.95 M542.4 247.8 Q542.55 247.65 542.75 247.65 542.95 247.65 543.1 247.8 L543.25 248.15 543.1 248.5 542.75 248.65 542.4 248.5 542.25 248.15 Q542.25 247.95 542.4 247.8 M543.1 251.8 L543.25 252.15 543.1 252.5 542.75 252.65 542.4 252.5 542.25 252.15 Q542.25 251.95 542.4 251.8 542.55 251.65 542.75 251.65 542.95 251.65 543.1 251.8 M542.4 255.8 Q542.55 255.65 542.75 255.65 542.95 255.65 543.1 255.8 L543.25 256.15 543.1 256.5 542.75 256.65 542.4 256.5 542.25 256.15 Q542.25 255.95 542.4 255.8 M542.75 259.65 Q542.95 259.65 543.1 259.8 L543.25 260.15 543.1 260.5 542.75 260.65 542.4 260.5 542.25 260.15 Q542.25 259.95 542.4 259.8 542.55 259.65 542.75 259.65 M543.1 263.8 L543.25 264.15 543.1 264.5 542.75 264.65 542.4 264.5 542.25 264.15 Q542.25 263.95 542.4 263.8 542.55 263.65 542.75 263.65 542.95 263.65 543.1 263.8 M542.4 267.8 Q542.55 267.65 542.75 267.65 542.95 267.65 543.1 267.8 L543.25 268.15 543.1 268.5 542.75 268.65 542.4 268.5 542.25 268.15 Q542.25 267.95 542.4 267.8 M543.1 271.8 L543.25 272.15 543.1 272.5 542.75 272.65 542.4 272.5 542.25 272.15 Q542.25 271.95 542.4 271.8 542.55 271.65 542.75 271.65 542.95 271.65 543.1 271.8 M543.1 275.8 L543.25 276.15 543.1 276.5 542.75 276.65 542.4 276.5 542.25 276.15 Q542.25 275.95 542.4 275.8 542.55 275.65 542.75 275.65 542.95 275.65 543.1 275.8 M542.4 279.8 Q542.55 279.65 542.75 279.65 542.95 279.65 543.1 279.8 L543.25 280.15 543.1 280.5 542.75 280.65 542.4 280.5 542.25 280.15 Q542.25 279.95 542.4 279.8 M542.4 283.8 Q542.55 283.65 542.75 283.65 542.95 283.65 543.1 283.8 L543.25 284.15 543.1 284.5 542.75 284.65 542.4 284.5 542.25 284.15 Q542.25 283.95 542.4 283.8 M542.4 287.8 Q542.55 287.65 542.75 287.65 542.95 287.65 543.1 287.8 L543.25 288.15 543.1 288.5 542.75 288.65 542.4 288.5 542.25 288.15 Q542.25 287.95 542.4 287.8 M542.4 291.8 Q542.55 291.65 542.75 291.65 542.95 291.65 543.1 291.8 L543.25 292.15 543.1 292.5 542.75 292.65 542.4 292.5 542.25 292.15 Q542.25 291.95 542.4 291.8 M542.4 295.8 Q542.55 295.65 542.75 295.65 542.95 295.65 543.1 295.8 L543.25 296.15 543.1 296.5 542.75 296.65 542.4 296.5 542.25 296.15 Q542.25 295.95 542.4 295.8 M542.4 299.8 Q542.55 299.65 542.75 299.65 542.95 299.65 543.1 299.8 L543.25 300.15 543.1 300.5 542.75 300.65 542.4 300.5 542.25 300.15 Q542.25 299.95 542.4 299.8 M542.4 303.8 Q542.55 303.65 542.75 303.65 542.95 303.65 543.1 303.8 L543.25 304.15 543.1 304.5 542.75 304.65 542.4 304.5 542.25 304.15 Q542.25 303.95 542.4 303.8 M542.4 307.8 Q542.55 307.65 542.75 307.65 542.95 307.65 543.1 307.8 L543.25 308.15 543.1 308.5 542.75 308.65 542.4 308.5 542.25 308.15 Q542.25 307.95 542.4 307.8 M542.4 311.8 Q542.55 311.65 542.75 311.65 542.95 311.65 543.1 311.8 L543.25 312.15 543.1 312.5 542.75 312.65 542.4 312.5 542.25 312.15 Q542.25 311.95 542.4 311.8 M542.4 315.8 Q542.55 315.65 542.75 315.65 542.95 315.65 543.1 315.8 L543.25 316.15 543.1 316.5 542.75 316.65 542.4 316.5 542.25 316.15 Q542.25 315.95 542.4 315.8 M543.1 319.8 L543.25 320.15 543.1 320.5 542.75 320.65 542.4 320.5 542.25 320.15 Q542.25 319.95 542.4 319.8 542.55 319.65 542.75 319.65 542.95 319.65 543.1 319.8 M542.4 323.8 Q542.55 323.65 542.75 323.65 542.95 323.65 543.1 323.8 L543.25 324.15 543.1 324.5 542.75 324.65 542.4 324.5 542.25 324.15 Q542.25 323.95 542.4 323.8 M543.1 327.8 L543.25 328.15 543.1 328.5 542.75 328.65 542.4 328.5 542.25 328.15 Q542.25 327.95 542.4 327.8 542.55 327.65 542.75 327.65 542.95 327.65 543.1 327.8 M542.4 331.8 Q542.55 331.65 542.75 331.65 542.95 331.65 543.1 331.8 L543.25 332.15 543.1 332.5 542.75 332.65 542.4 332.5 542.25 332.15 Q542.25 331.95 542.4 331.8 M542.4 335.8 Q542.55 335.65 542.75 335.65 542.95 335.65 543.1 335.8 L543.25 336.15 543.1 336.5 542.75 336.65 542.4 336.5 542.25 336.15 Q542.25 335.95 542.4 335.8 M543.1 339.8 L543.25 340.15 543.1 340.5 542.75 340.65 542.4 340.5 542.25 340.15 Q542.25 339.95 542.4 339.8 542.55 339.65 542.75 339.65 542.95 339.65 543.1 339.8 M542.4 343.8 Q542.55 343.65 542.75 343.65 542.95 343.65 543.1 343.8 L543.25 344.15 543.1 344.5 542.75 344.65 542.4 344.5 542.25 344.15 Q542.25 343.95 542.4 343.8 M542.4 347.8 Q542.55 347.65 542.75 347.65 542.95 347.65 543.1 347.8 L543.25 348.15 543.1 348.5 542.75 348.65 542.4 348.5 542.25 348.15 Q542.25 347.95 542.4 347.8 M543.1 351.8 L543.25 352.15 543.1 352.5 542.75 352.65 542.4 352.5 542.25 352.15 Q542.25 351.95 542.4 351.8 542.55 351.65 542.75 351.65 542.95 351.65 543.1 351.8 M543.1 355.8 L543.25 356.15 543.1 356.5 542.75 356.65 542.4 356.5 542.25 356.15 Q542.25 355.95 542.4 355.8 542.55 355.65 542.75 355.65 542.95 355.65 543.1 355.8 M542.4 359.8 Q542.55 359.65 542.75 359.65 542.95 359.65 543.1 359.8 L543.25 360.15 543.1 360.5 542.75 360.65 542.4 360.5 542.25 360.15 Q542.25 359.95 542.4 359.8 M543.1 363.8 L543.25 364.15 543.1 364.5 542.75 364.65 542.4 364.5 542.25 364.15 Q542.25 363.95 542.4 363.8 542.55 363.65 542.75 363.65 542.95 363.65 543.1 363.8 M542.4 367.8 Q542.55 367.65 542.75 367.65 542.95 367.65 543.1 367.8 L543.25 368.15 543.1 368.5 542.75 368.65 542.4 368.5 542.25 368.15 Q542.25 367.95 542.4 367.8 M542.4 371.8 Q542.55 371.65 542.75 371.65 542.95 371.65 543.1 371.8 L543.25 372.15 543.1 372.5 542.75 372.65 542.4 372.5 542.25 372.15 Q542.25 371.95 542.4 371.8 M543.1 375.8 L543.25 376.15 543.1 376.5 542.75 376.65 542.4 376.5 542.25 376.15 Q542.25 375.95 542.4 375.8 542.55 375.65 542.75 375.65 542.95 375.65 543.1 375.8 M543.1 379.8 L543.25 380.15 543.1 380.5 542.75 380.65 542.4 380.5 542.25 380.15 Q542.25 379.95 542.4 379.8 542.55 379.65 542.75 379.65 542.95 379.65 543.1 379.8 M542.4 383.8 Q542.55 383.65 542.75 383.65 542.95 383.65 543.1 383.8 L543.25 384.15 543.1 384.5 542.75 384.65 542.4 384.5 542.25 384.15 Q542.25 383.95 542.4 383.8 M543.1 387.8 L543.25 388.15 543.1 388.5 542.75 388.65 542.4 388.5 542.25 388.15 Q542.25 387.95 542.4 387.8 542.55 387.65 542.75 387.65 542.95 387.65 543.1 387.8 M542.4 391.8 Q542.55 391.65 542.75 391.65 542.95 391.65 543.1 391.8 L543.25 392.15 543.1 392.5 542.75 392.65 542.4 392.5 542.25 392.15 Q542.25 391.95 542.4 391.8 M542.75 395.65 Q542.95 395.65 543.1 395.8 L543.25 396.15 543.1 396.5 542.75 396.65 542.4 396.5 542.25 396.15 Q542.25 395.95 542.4 395.8 542.55 395.65 542.75 395.65 M234.4 158.5 Q234.55 158.35 234.75 158.35 234.95 158.35 235.1 158.5 L235.25 158.85 235.1 159.2 234.75 159.35 234.4 159.2 234.25 158.85 Q234.25 158.65 234.4 158.5 M238.4 158.5 L238.75 158.35 239.1 158.5 239.25 158.85 239.1 159.2 238.75 159.35 238.4 159.2 238.25 158.85 238.4 158.5 M242.4 158.5 Q242.55 158.35 242.75 158.35 L243.1 158.5 243.25 158.85 243.1 159.2 242.75 159.35 242.4 159.2 242.25 158.85 242.4 158.5 M223.25 158.85 L223.1 159.2 222.75 159.35 222.4 159.2 222.25 158.85 Q222.25 158.65 222.4 158.5 222.55 158.35 222.75 158.35 222.95 158.35 223.1 158.5 L223.25 158.85 M227.1 158.5 L227.25 158.85 227.1 159.2 226.75 159.35 226.4 159.2 226.25 158.85 226.4 158.5 Q226.55 158.35 226.75 158.35 L227.1 158.5 M231.1 158.5 L231.25 158.85 231.1 159.2 230.75 159.35 230.4 159.2 230.25 158.85 Q230.25 158.65 230.4 158.5 230.55 158.35 230.75 158.35 230.95 158.35 231.1 158.5 M214.4 158.5 Q214.55 158.35 214.75 158.35 L215.1 158.5 215.25 158.85 215.1 159.2 214.75 159.35 214.4 159.2 214.25 158.85 214.4 158.5 M218.4 158.5 Q218.55 158.35 218.75 158.35 218.95 158.35 219.1 158.5 L219.25 158.85 219.1 159.2 218.75 159.35 218.4 159.2 218.25 158.85 Q218.25 158.65 218.4 158.5 M210.4 158.5 Q210.55 158.35 210.75 158.35 210.95 158.35 211.1 158.5 L211.25 158.85 211.1 159.2 210.75 159.35 210.4 159.2 210.25 158.85 Q210.25 158.65 210.4 158.5 M208.9 161.0 Q209.05 160.85 209.25 160.85 L209.6 161.0 209.75 161.35 209.6 161.7 209.25 161.85 Q209.05 161.85 208.9 161.7 L208.75 161.35 208.9 161.0 M208.9 165.0 Q209.05 164.85 209.25 164.85 L209.6 165.0 209.75 165.35 209.6 165.7 209.25 165.85 Q209.05 165.85 208.9 165.7 L208.75 165.35 208.9 165.0 M209.6 169.0 L209.75 169.35 209.6 169.7 209.25 169.85 Q209.05 169.85 208.9 169.7 L208.75 169.35 208.9 169.0 Q209.05 168.85 209.25 168.85 L209.6 169.0 M209.25 172.85 L209.6 173.0 209.75 173.35 209.6 173.7 209.25 173.85 Q209.05 173.85 208.9 173.7 L208.75 173.35 208.9 173.0 Q209.05 172.85 209.25 172.85 M218.0 177.3 L217.65 177.45 Q217.45 177.45 217.3 177.3 L217.15 176.95 217.3 176.6 Q217.45 176.45 217.65 176.45 L218.0 176.6 218.15 176.95 218.0 177.3 M221.3 176.6 Q221.45 176.45 221.65 176.45 L222.0 176.6 222.15 176.95 222.0 177.3 221.65 177.45 221.3 177.3 221.15 176.95 221.3 176.6 M213.3 176.6 Q213.45 176.45 213.65 176.45 213.85 176.45 214.0 176.6 L214.15 176.95 214.0 177.3 213.65 177.45 213.3 177.3 213.15 176.95 213.3 176.6 M209.3 176.6 Q209.45 176.45 209.65 176.45 L210.0 176.6 210.15 176.95 210.0 177.3 209.65 177.45 209.3 177.3 209.15 176.95 209.3 176.6 M238.0 177.3 L237.65 177.45 237.3 177.3 237.15 176.95 Q237.15 176.75 237.3 176.6 237.45 176.45 237.65 176.45 237.85 176.45 238.0 176.6 L238.15 176.95 238.0 177.3 M241.3 176.6 Q241.45 176.45 241.65 176.45 241.85 176.45 242.0 176.6 L242.15 176.95 242.0 177.3 241.65 177.45 241.3 177.3 241.15 176.95 Q241.15 176.75 241.3 176.6 M233.3 176.6 Q233.45 176.45 233.65 176.45 L234.0 176.6 234.15 176.95 234.0 177.3 233.65 177.45 233.3 177.3 233.15 176.95 233.3 176.6 M229.3 176.6 Q229.45 176.45 229.65 176.45 229.85 176.45 230.0 176.6 L230.15 176.95 230.0 177.3 229.65 177.45 229.3 177.3 229.15 176.95 Q229.15 176.75 229.3 176.6 M225.3 176.6 Q225.45 176.45 225.65 176.45 225.85 176.45 226.0 176.6 L226.15 176.95 226.0 177.3 225.65 177.45 225.3 177.3 225.15 176.95 Q225.15 176.75 225.3 176.6 M274.4 158.5 Q274.55 158.35 274.75 158.35 L275.1 158.5 275.25 158.85 275.1 159.2 274.75 159.35 274.4 159.2 274.25 158.85 274.4 158.5 M278.25 158.85 L278.4 158.5 Q278.55 158.35 278.75 158.35 278.95 158.35 279.1 158.5 L279.25 158.85 279.1 159.2 278.75 159.35 278.4 159.2 278.25 158.85 M282.4 158.5 Q282.55 158.35 282.75 158.35 L283.1 158.5 283.25 158.85 283.1 159.2 282.75 159.35 Q282.55 159.35 282.4 159.2 L282.25 158.85 282.4 158.5 M266.4 158.5 L266.75 158.35 Q266.95 158.35 267.1 158.5 L267.25 158.85 267.1 159.2 266.75 159.35 266.4 159.2 266.25 158.85 266.4 158.5 M271.1 158.5 L271.25 158.85 271.1 159.2 270.75 159.35 270.4 159.2 270.25 158.85 270.4 158.5 Q270.55 158.35 270.75 158.35 L271.1 158.5 M254.4 158.5 Q254.55 158.35 254.75 158.35 L255.1 158.5 255.25 158.85 255.1 159.2 254.75 159.35 254.4 159.2 254.25 158.85 254.4 158.5 M258.4 158.5 Q258.55 158.35 258.75 158.35 L259.1 158.5 259.25 158.85 259.1 159.2 258.75 159.35 258.4 159.2 258.25 158.85 Q258.25 158.65 258.4 158.5 M263.1 158.5 L263.25 158.85 263.1 159.2 262.75 159.35 262.4 159.2 262.25 158.85 262.4 158.5 262.75 158.35 263.1 158.5 M247.1 158.5 L247.25 158.85 247.1 159.2 246.75 159.35 246.4 159.2 246.25 158.85 Q246.25 158.65 246.4 158.5 246.55 158.35 246.75 158.35 L247.1 158.5 M251.1 158.5 L251.25 158.85 251.1 159.2 250.75 159.35 250.4 159.2 250.25 158.85 250.4 158.5 250.75 158.35 251.1 158.5 M261.3 176.6 Q261.45 176.45 261.65 176.45 L262.0 176.6 262.15 176.95 262.0 177.3 261.65 177.45 261.3 177.3 261.15 176.95 261.3 176.6 M253.3 176.6 Q253.45 176.45 253.65 176.45 253.85 176.45 254.0 176.6 L254.15 176.95 254.0 177.3 253.65 177.45 253.3 177.3 253.15 176.95 Q253.15 176.75 253.3 176.6 M257.3 176.6 L257.65 176.45 258.0 176.6 258.15 176.95 258.0 177.3 257.65 177.45 257.3 177.3 257.15 176.95 257.3 176.6 M249.3 176.6 Q249.45 176.45 249.65 176.45 249.85 176.45 250.0 176.6 L250.15 176.95 250.0 177.3 249.65 177.45 249.3 177.3 249.15 176.95 Q249.15 176.75 249.3 176.6 M245.3 176.6 Q245.45 176.45 245.65 176.45 L246.0 176.6 246.15 176.95 246.0 177.3 245.65 177.45 245.3 177.3 245.15 176.95 245.3 176.6 M281.3 176.6 L281.65 176.45 282.0 176.6 282.15 176.95 282.0 177.3 281.65 177.45 281.3 177.3 281.15 176.95 281.3 176.6 M274.15 176.95 L274.0 177.3 273.65 177.45 273.3 177.3 273.15 176.95 273.3 176.6 Q273.45 176.45 273.65 176.45 L274.0 176.6 274.15 176.95 M277.3 176.6 Q277.45 176.45 277.65 176.45 L278.0 176.6 278.15 176.95 278.0 177.3 277.65 177.45 277.3 177.3 277.15 176.95 Q277.15 176.75 277.3 176.6 M270.0 176.6 L270.15 176.95 270.0 177.3 269.65 177.45 269.3 177.3 269.15 176.95 269.3 176.6 269.65 176.45 270.0 176.6 M265.3 176.6 Q265.45 176.45 265.65 176.45 L266.0 176.6 266.15 176.95 266.0 177.3 265.65 177.45 265.3 177.3 265.15 176.95 Q265.15 176.75 265.3 176.6 M314.4 158.5 Q314.55 158.35 314.75 158.35 314.95 158.35 315.1 158.5 L315.25 158.85 315.1 159.2 314.75 159.35 314.4 159.2 314.25 158.85 Q314.25 158.65 314.4 158.5 M318.75 158.35 Q318.95 158.35 319.1 158.5 L319.25 158.85 319.1 159.2 318.75 159.35 318.4 159.2 318.25 158.85 Q318.25 158.65 318.4 158.5 318.55 158.35 318.75 158.35 M322.4 158.5 L322.75 158.35 323.1 158.5 323.25 158.85 323.1 159.2 322.75 159.35 322.4 159.2 322.25 158.85 322.4 158.5 M306.4 158.5 Q306.55 158.35 306.75 158.35 306.95 158.35 307.1 158.5 L307.25 158.85 307.1 159.2 306.75 159.35 306.4 159.2 306.25 158.85 Q306.25 158.65 306.4 158.5 M311.1 158.5 L311.25 158.85 311.1 159.2 310.75 159.35 310.4 159.2 310.25 158.85 310.4 158.5 Q310.55 158.35 310.75 158.35 L311.1 158.5 M294.4 158.5 Q294.55 158.35 294.75 158.35 294.95 158.35 295.1 158.5 L295.25 158.85 295.1 159.2 294.75 159.35 294.4 159.2 294.25 158.85 Q294.25 158.65 294.4 158.5 M298.25 158.85 L298.4 158.5 Q298.55 158.35 298.75 158.35 L299.1 158.5 299.25 158.85 299.1 159.2 298.75 159.35 298.4 159.2 298.25 158.85 M303.1 158.5 L303.25 158.85 303.1 159.2 302.75 159.35 302.4 159.2 302.25 158.85 Q302.25 158.65 302.4 158.5 302.55 158.35 302.75 158.35 302.95 158.35 303.1 158.5 M286.4 158.5 Q286.55 158.35 286.75 158.35 L287.1 158.5 287.25 158.85 287.1 159.2 286.75 159.35 286.4 159.2 286.25 158.85 286.4 158.5 M291.1 158.5 L291.25 158.85 291.1 159.2 290.75 159.35 290.4 159.2 290.25 158.85 Q290.25 158.65 290.4 158.5 290.55 158.35 290.75 158.35 290.95 158.35 291.1 158.5 M301.3 176.6 Q301.45 176.45 301.65 176.45 L302.0 176.6 302.15 176.95 302.0 177.3 301.65 177.45 Q301.45 177.45 301.3 177.3 L301.15 176.95 301.3 176.6 M294.15 176.95 L294.0 177.3 293.65 177.45 293.3 177.3 293.15 176.95 293.3 176.6 Q293.45 176.45 293.65 176.45 L294.0 176.6 294.15 176.95 M297.3 176.6 Q297.45 176.45 297.65 176.45 297.85 176.45 298.0 176.6 L298.15 176.95 298.0 177.3 297.65 177.45 297.3 177.3 297.15 176.95 297.3 176.6 M290.0 176.6 L290.15 176.95 290.0 177.3 289.65 177.45 289.3 177.3 289.15 176.95 289.3 176.6 Q289.45 176.45 289.65 176.45 L290.0 176.6 M285.3 176.6 L285.65 176.45 Q285.85 176.45 286.0 176.6 L286.15 176.95 286.0 177.3 285.65 177.45 285.3 177.3 285.15 176.95 285.3 176.6 M321.3 176.6 Q321.45 176.45 321.65 176.45 321.85 176.45 322.0 176.6 L322.15 176.95 322.0 177.3 321.65 177.45 321.3 177.3 321.15 176.95 Q321.15 176.75 321.3 176.6 M314.15 176.95 L314.0 177.3 313.65 177.45 313.3 177.3 313.15 176.95 Q313.15 176.75 313.3 176.6 313.45 176.45 313.65 176.45 313.85 176.45 314.0 176.6 L314.15 176.95 M317.3 176.6 Q317.45 176.45 317.65 176.45 L318.0 176.6 318.15 176.95 318.0 177.3 317.65 177.45 317.3 177.3 317.15 176.95 317.3 176.6 M310.0 176.6 L310.15 176.95 310.0 177.3 309.65 177.45 309.3 177.3 309.15 176.95 Q309.15 176.75 309.3 176.6 309.45 176.45 309.65 176.45 309.85 176.45 310.0 176.6 M305.3 176.6 Q305.45 176.45 305.65 176.45 L306.0 176.6 306.15 176.95 306.0 177.3 305.65 177.45 305.3 177.3 305.15 176.95 305.3 176.6 M311.0 215.95 L311.15 216.3 311.0 216.65 310.65 216.8 310.3 216.65 310.15 216.3 310.3 215.95 Q310.45 215.8 310.65 215.8 L311.0 215.95 M306.3 215.95 L306.65 215.8 Q306.85 215.8 307.0 215.95 L307.15 216.3 307.0 216.65 306.65 216.8 306.3 216.65 306.15 216.3 306.3 215.95 M319.15 216.3 L319.0 216.65 318.65 216.8 318.3 216.65 318.15 216.3 318.3 215.95 Q318.45 215.8 318.65 215.8 318.85 215.8 319.0 215.95 L319.15 216.3 M323.0 215.95 L323.15 216.3 323.0 216.65 322.65 216.8 Q322.45 216.8 322.3 216.65 L322.15 216.3 322.3 215.95 Q322.45 215.8 322.65 215.8 L323.0 215.95 M314.3 215.95 Q314.45 215.8 314.65 215.8 L315.0 215.95 315.15 216.3 315.0 216.65 314.65 216.8 314.3 216.65 314.15 216.3 314.3 215.95 M291.0 215.95 L291.15 216.3 291.0 216.65 290.65 216.8 290.3 216.65 290.15 216.3 290.3 215.95 290.65 215.8 291.0 215.95 M286.3 215.95 Q286.45 215.8 286.65 215.8 L287.0 215.95 287.15 216.3 287.0 216.65 286.65 216.8 286.3 216.65 286.15 216.3 Q286.15 216.1 286.3 215.95 M299.15 216.3 L299.0 216.65 298.65 216.8 298.3 216.65 298.15 216.3 Q298.15 216.1 298.3 215.95 298.45 215.8 298.65 215.8 L299.0 215.95 299.15 216.3 M302.3 215.95 L302.65 215.8 303.0 215.95 303.15 216.3 303.0 216.65 302.65 216.8 302.3 216.65 302.15 216.3 302.3 215.95 M294.3 215.95 Q294.45 215.8 294.65 215.8 L295.0 215.95 295.15 216.3 295.0 216.65 294.65 216.8 294.3 216.65 294.15 216.3 294.3 215.95 M271.0 215.95 L271.15 216.3 271.0 216.65 270.65 216.8 270.3 216.65 270.15 216.3 Q270.15 216.1 270.3 215.95 270.45 215.8 270.65 215.8 270.85 215.8 271.0 215.95 M266.3 215.95 Q266.45 215.8 266.65 215.8 L267.0 215.95 267.15 216.3 267.0 216.65 266.65 216.8 266.3 216.65 266.15 216.3 266.3 215.95 M279.15 216.3 L279.0 216.65 278.65 216.8 278.3 216.65 278.15 216.3 278.3 215.95 278.65 215.8 279.0 215.95 279.15 216.3 M283.0 215.95 L283.15 216.3 283.0 216.65 282.65 216.8 282.3 216.65 282.15 216.3 282.3 215.95 Q282.45 215.8 282.65 215.8 L283.0 215.95 M274.3 215.95 Q274.45 215.8 274.65 215.8 274.85 215.8 275.0 215.95 L275.15 216.3 275.0 216.65 274.65 216.8 274.3 216.65 274.15 216.3 Q274.15 216.1 274.3 215.95 M251.0 215.95 L251.15 216.3 251.0 216.65 250.65 216.8 250.3 216.65 250.15 216.3 Q250.15 216.1 250.3 215.95 250.45 215.8 250.65 215.8 250.85 215.8 251.0 215.95 M243.15 216.3 L243.0 216.65 242.65 216.8 242.3 216.65 242.15 216.3 242.3 215.95 Q242.45 215.8 242.65 215.8 L243.0 215.95 243.15 216.3 M246.3 215.95 Q246.45 215.8 246.65 215.8 246.85 215.8 247.0 215.95 L247.15 216.3 247.0 216.65 246.65 216.8 246.3 216.65 246.15 216.3 Q246.15 216.1 246.3 215.95 M259.15 216.3 L259.0 216.65 258.65 216.8 258.3 216.65 258.15 216.3 Q258.15 216.1 258.3 215.95 258.45 215.8 258.65 215.8 258.85 215.8 259.0 215.95 L259.15 216.3 M262.3 215.95 Q262.45 215.8 262.65 215.8 262.85 215.8 263.0 215.95 L263.15 216.3 263.0 216.65 262.65 216.8 262.3 216.65 262.15 216.3 Q262.15 216.1 262.3 215.95 M254.3 215.95 Q254.45 215.8 254.65 215.8 L255.0 215.95 255.15 216.3 255.0 216.65 254.65 216.8 254.3 216.65 254.15 216.3 254.3 215.95 M231.0 215.95 L231.15 216.3 231.0 216.65 230.65 216.8 230.3 216.65 230.15 216.3 230.3 215.95 Q230.45 215.8 230.65 215.8 L231.0 215.95 M223.15 216.3 L223.0 216.65 222.65 216.8 222.3 216.65 222.15 216.3 222.3 215.95 222.65 215.8 Q222.85 215.8 223.0 215.95 L223.15 216.3 M226.3 215.95 Q226.45 215.8 226.65 215.8 L227.0 215.95 227.15 216.3 227.0 216.65 226.65 216.8 226.3 216.65 226.15 216.3 226.3 215.95 M238.3 215.95 Q238.45 215.8 238.65 215.8 L239.0 215.95 239.15 216.3 239.0 216.65 238.65 216.8 Q238.45 216.8 238.3 216.65 L238.15 216.3 238.3 215.95 M234.3 215.95 Q234.45 215.8 234.65 215.8 234.85 215.8 235.0 215.95 L235.15 216.3 235.0 216.65 234.65 216.8 234.3 216.65 234.15 216.3 234.3 215.95 M211.0 215.95 L211.15 216.3 211.0 216.65 210.65 216.8 210.3 216.65 210.15 216.3 210.3 215.95 Q210.45 215.8 210.65 215.8 L211.0 215.95 M208.9 218.55 Q209.05 218.4 209.25 218.4 L209.6 218.55 209.75 218.9 209.6 219.25 209.25 219.4 Q209.05 219.4 208.9 219.25 L208.75 218.9 208.9 218.55 M209.25 222.4 L209.6 222.55 209.75 222.9 209.6 223.25 209.25 223.4 Q209.05 223.4 208.9 223.25 L208.75 222.9 208.9 222.55 Q209.05 222.4 209.25 222.4 M218.3 215.95 L218.65 215.8 219.0 215.95 219.15 216.3 219.0 216.65 218.65 216.8 218.3 216.65 218.15 216.3 218.3 215.95 M214.3 215.95 Q214.45 215.8 214.65 215.8 L215.0 215.95 215.15 216.3 215.0 216.65 214.65 216.8 214.3 216.65 214.15 216.3 Q214.15 216.1 214.3 215.95 M208.9 226.55 Q209.05 226.4 209.25 226.4 L209.6 226.55 209.75 226.9 209.6 227.25 209.25 227.4 Q209.05 227.4 208.9 227.25 L208.75 226.9 208.9 226.55 M209.6 230.55 L209.75 230.9 209.6 231.25 209.25 231.4 Q209.05 231.4 208.9 231.25 L208.75 230.9 208.9 230.55 Q209.05 230.4 209.25 230.4 L209.6 230.55 M208.9 234.55 Q209.05 234.4 209.25 234.4 L209.6 234.55 209.75 234.9 209.6 235.25 209.25 235.4 Q209.05 235.4 208.9 235.25 L208.75 234.9 208.9 234.55 M208.9 238.55 Q209.05 238.4 209.25 238.4 L209.6 238.55 209.75 238.9 209.6 239.25 209.25 239.4 Q209.05 239.4 208.9 239.25 L208.75 238.9 208.9 238.55 M209.6 242.55 L209.75 242.9 209.6 243.25 209.25 243.4 Q209.05 243.4 208.9 243.25 L208.75 242.9 208.9 242.55 Q209.05 242.4 209.25 242.4 L209.6 242.55 M208.9 246.55 Q209.05 246.4 209.25 246.4 L209.6 246.55 209.75 246.9 209.6 247.25 209.25 247.4 Q209.05 247.4 208.9 247.25 L208.75 246.9 208.9 246.55 M209.6 250.55 L209.75 250.9 209.6 251.25 209.25 251.4 Q209.05 251.4 208.9 251.25 L208.75 250.9 208.9 250.55 Q209.05 250.4 209.25 250.4 L209.6 250.55 M209.6 254.55 L209.75 254.9 209.6 255.25 209.25 255.4 Q209.05 255.4 208.9 255.25 L208.75 254.9 208.9 254.55 Q209.05 254.4 209.25 254.4 L209.6 254.55 M208.9 258.55 Q209.05 258.4 209.25 258.4 L209.6 258.55 209.75 258.9 209.6 259.25 209.25 259.4 Q209.05 259.4 208.9 259.25 L208.75 258.9 208.9 258.55 M209.6 262.55 L209.75 262.9 209.6 263.25 209.25 263.4 Q209.05 263.4 208.9 263.25 L208.75 262.9 208.9 262.55 Q209.05 262.4 209.25 262.4 L209.6 262.55 M209.6 266.55 L209.75 266.9 209.6 267.25 209.25 267.4 Q209.05 267.4 208.9 267.25 L208.75 266.9 208.9 266.55 Q209.05 266.4 209.25 266.4 L209.6 266.55 M208.9 270.55 Q209.05 270.4 209.25 270.4 L209.6 270.55 209.75 270.9 209.6 271.25 209.25 271.4 Q209.05 271.4 208.9 271.25 L208.75 270.9 208.9 270.55 M208.9 274.55 Q209.05 274.4 209.25 274.4 L209.6 274.55 209.75 274.9 209.6 275.25 209.25 275.4 Q209.05 275.4 208.9 275.25 L208.75 274.9 208.9 274.55 M209.25 279.4 Q209.05 279.4 208.9 279.25 L208.75 278.9 208.9 278.55 Q209.05 278.4 209.25 278.4 L209.6 278.55 209.75 278.9 209.6 279.25 209.25 279.4 M208.9 282.55 Q209.05 282.4 209.25 282.4 L209.6 282.55 209.75 282.9 209.6 283.25 209.25 283.4 Q209.05 283.4 208.9 283.25 L208.75 282.9 208.9 282.55 M208.9 286.55 Q209.05 286.4 209.25 286.4 L209.6 286.55 209.75 286.9 209.6 287.25 209.25 287.4 Q209.05 287.4 208.9 287.25 L208.75 286.9 208.9 286.55 M209.25 290.4 L209.6 290.55 209.75 290.9 209.6 291.25 209.25 291.4 Q209.05 291.4 208.9 291.25 L208.75 290.9 208.9 290.55 Q209.05 290.4 209.25 290.4 M208.9 294.55 Q209.05 294.4 209.25 294.4 L209.6 294.55 209.75 294.9 209.6 295.25 209.25 295.4 Q209.05 295.4 208.9 295.25 L208.75 294.9 208.9 294.55 M208.9 298.55 Q209.05 298.4 209.25 298.4 L209.6 298.55 209.75 298.9 209.6 299.25 209.25 299.4 Q209.05 299.4 208.9 299.25 L208.75 298.9 208.9 298.55 M208.9 302.55 Q209.05 302.4 209.25 302.4 L209.6 302.55 209.75 302.9 209.6 303.25 209.25 303.4 Q209.05 303.4 208.9 303.25 L208.75 302.9 208.9 302.55 M208.9 306.55 Q209.05 306.4 209.25 306.4 L209.6 306.55 209.75 306.9 209.6 307.25 209.25 307.4 Q209.05 307.4 208.9 307.25 L208.75 306.9 208.9 306.55 M208.9 310.55 Q209.05 310.4 209.25 310.4 L209.6 310.55 209.75 310.9 209.6 311.25 209.25 311.4 Q209.05 311.4 208.9 311.25 L208.75 310.9 208.9 310.55 M208.9 314.55 Q209.05 314.4 209.25 314.4 L209.6 314.55 209.75 314.9 209.6 315.25 209.25 315.4 Q209.05 315.4 208.9 315.25 L208.75 314.9 208.9 314.55 M208.9 318.55 Q209.05 318.4 209.25 318.4 L209.6 318.55 209.75 318.9 209.6 319.25 209.25 319.4 Q209.05 319.4 208.9 319.25 L208.75 318.9 208.9 318.55 M209.6 322.55 L209.75 322.9 209.6 323.25 209.25 323.4 Q209.05 323.4 208.9 323.25 L208.75 322.9 208.9 322.55 Q209.05 322.4 209.25 322.4 L209.6 322.55 M208.9 326.55 Q209.05 326.4 209.25 326.4 L209.6 326.55 209.75 326.9 209.6 327.25 209.25 327.4 Q209.05 327.4 208.9 327.25 L208.75 326.9 208.9 326.55 M208.9 330.55 Q209.05 330.4 209.25 330.4 L209.6 330.55 209.75 330.9 209.6 331.25 209.25 331.4 Q209.05 331.4 208.9 331.25 L208.75 330.9 208.9 330.55 M208.9 334.55 Q209.05 334.4 209.25 334.4 L209.6 334.55 209.75 334.9 209.6 335.25 209.25 335.4 Q209.05 335.4 208.9 335.25 L208.75 334.9 208.9 334.55 M208.9 338.55 Q209.05 338.4 209.25 338.4 L209.6 338.55 209.75 338.9 209.6 339.25 209.25 339.4 Q209.05 339.4 208.9 339.25 L208.75 338.9 208.9 338.55 M208.9 342.55 Q209.05 342.4 209.25 342.4 L209.6 342.55 209.75 342.9 209.6 343.25 209.25 343.4 Q209.05 343.4 208.9 343.25 L208.75 342.9 208.9 342.55 M208.9 346.55 Q209.05 346.4 209.25 346.4 L209.6 346.55 209.75 346.9 209.6 347.25 209.25 347.4 Q209.05 347.4 208.9 347.25 L208.75 346.9 208.9 346.55 M208.9 350.55 Q209.05 350.4 209.25 350.4 L209.6 350.55 209.75 350.9 209.6 351.25 209.25 351.4 Q209.05 351.4 208.9 351.25 L208.75 350.9 208.9 350.55 M209.6 354.55 L209.75 354.9 209.6 355.25 209.25 355.4 Q209.05 355.4 208.9 355.25 L208.75 354.9 208.9 354.55 Q209.05 354.4 209.25 354.4 L209.6 354.55 M209.25 358.4 L209.6 358.55 209.75 358.9 209.6 359.25 209.25 359.4 Q209.05 359.4 208.9 359.25 L208.75 358.9 208.9 358.55 Q209.05 358.4 209.25 358.4 M208.9 362.55 Q209.05 362.4 209.25 362.4 L209.6 362.55 209.75 362.9 209.6 363.25 209.25 363.4 Q209.05 363.4 208.9 363.25 L208.75 362.9 208.9 362.55 M209.6 366.55 L209.75 366.9 209.6 367.25 209.25 367.4 Q209.05 367.4 208.9 367.25 L208.75 366.9 208.9 366.55 Q209.05 366.4 209.25 366.4 L209.6 366.55 M208.9 370.55 Q209.05 370.4 209.25 370.4 L209.6 370.55 209.75 370.9 209.6 371.25 209.25 371.4 Q209.05 371.4 208.9 371.25 L208.75 370.9 208.9 370.55 M208.9 374.55 Q209.05 374.4 209.25 374.4 L209.6 374.55 209.75 374.9 209.6 375.25 209.25 375.4 Q209.05 375.4 208.9 375.25 L208.75 374.9 208.9 374.55 M209.6 378.55 L209.75 378.9 209.6 379.25 209.25 379.4 Q209.05 379.4 208.9 379.25 L208.75 378.9 208.9 378.55 Q209.05 378.4 209.25 378.4 L209.6 378.55 M208.9 382.55 Q209.05 382.4 209.25 382.4 L209.6 382.55 209.75 382.9 209.6 383.25 209.25 383.4 Q209.05 383.4 208.9 383.25 L208.75 382.9 208.9 382.55 M209.6 386.55 L209.75 386.9 209.6 387.25 209.25 387.4 Q209.05 387.4 208.9 387.25 L208.75 386.9 208.9 386.55 Q209.05 386.4 209.25 386.4 L209.6 386.55 M209.6 390.55 L209.75 390.9 209.6 391.25 209.25 391.4 Q209.05 391.4 208.9 391.25 L208.75 390.9 208.9 390.55 Q209.05 390.4 209.25 390.4 L209.6 390.55 M208.9 394.55 Q209.05 394.4 209.25 394.4 L209.6 394.55 209.75 394.9 209.6 395.25 209.25 395.4 Q209.05 395.4 208.9 395.25 L208.75 394.9 208.9 394.55 M313.25 414.15 Q313.45 414.15 313.6 414.3 L313.75 414.65 313.6 415.0 313.25 415.15 312.9 415.0 312.75 414.65 Q312.75 414.45 312.9 414.3 313.05 414.15 313.25 414.15 M309.25 414.15 L309.6 414.3 309.75 414.65 309.6 415.0 309.25 415.15 308.9 415.0 308.75 414.65 308.9 414.3 Q309.05 414.15 309.25 414.15 M305.25 414.15 Q305.45 414.15 305.6 414.3 L305.75 414.65 305.6 415.0 305.25 415.15 304.9 415.0 304.75 414.65 Q304.75 414.45 304.9 414.3 305.05 414.15 305.25 414.15 M321.25 414.15 L321.6 414.3 321.75 414.65 321.6 415.0 321.25 415.15 320.9 415.0 320.75 414.65 320.9 414.3 Q321.05 414.15 321.25 414.15 M317.6 414.3 L317.75 414.65 317.6 415.0 317.25 415.15 316.9 415.0 316.75 414.65 Q316.75 414.45 316.9 414.3 317.05 414.15 317.25 414.15 317.45 414.15 317.6 414.3 M293.25 414.15 L293.6 414.3 293.75 414.65 293.6 415.0 293.25 415.15 Q293.05 415.15 292.9 415.0 L292.75 414.65 292.9 414.3 Q293.05 414.15 293.25 414.15 M289.25 414.15 Q289.45 414.15 289.6 414.3 L289.75 414.65 289.6 415.0 289.25 415.15 288.9 415.0 288.75 414.65 288.9 414.3 Q289.05 414.15 289.25 414.15 M285.6 414.3 L285.75 414.65 285.6 415.0 285.25 415.15 284.9 415.0 284.75 414.65 284.9 414.3 Q285.05 414.15 285.25 414.15 L285.6 414.3 M301.25 414.15 Q301.45 414.15 301.6 414.3 L301.75 414.65 301.6 415.0 301.25 415.15 300.9 415.0 300.75 414.65 Q300.75 414.45 300.9 414.3 301.05 414.15 301.25 414.15 M297.6 414.3 L297.75 414.65 297.6 415.0 297.25 415.15 296.9 415.0 296.75 414.65 296.9 414.3 Q297.05 414.15 297.25 414.15 L297.6 414.3 M273.25 414.15 L273.6 414.3 273.75 414.65 273.6 415.0 273.25 415.15 272.9 415.0 272.75 414.65 272.9 414.3 273.25 414.15 M269.25 414.15 L269.6 414.3 269.75 414.65 269.6 415.0 269.25 415.15 268.9 415.0 268.75 414.65 Q268.75 414.45 268.9 414.3 269.05 414.15 269.25 414.15 M265.25 414.15 L265.6 414.3 265.75 414.65 265.6 415.0 265.25 415.15 264.9 415.0 264.75 414.65 264.9 414.3 Q265.05 414.15 265.25 414.15 M281.25 414.15 L281.6 414.3 281.75 414.65 281.6 415.0 281.25 415.15 280.9 415.0 280.75 414.65 280.9 414.3 Q281.05 414.15 281.25 414.15 M277.6 414.3 L277.75 414.65 277.6 415.0 277.25 415.15 276.9 415.0 276.75 414.65 276.9 414.3 277.25 414.15 Q277.45 414.15 277.6 414.3 M249.25 414.15 L249.6 414.3 249.75 414.65 249.6 415.0 249.25 415.15 248.9 415.0 248.75 414.65 248.9 414.3 249.25 414.15 M245.6 414.3 L245.75 414.65 245.6 415.0 245.25 415.15 244.9 415.0 244.75 414.65 Q244.75 414.45 244.9 414.3 245.05 414.15 245.25 414.15 245.45 414.15 245.6 414.3 M252.75 414.65 L252.9 414.3 Q253.05 414.15 253.25 414.15 L253.6 414.3 253.75 414.65 253.6 415.0 253.25 415.15 252.9 415.0 252.75 414.65 M261.25 414.15 L261.6 414.3 261.75 414.65 261.6 415.0 261.25 415.15 260.9 415.0 260.75 414.65 260.9 414.3 261.25 414.15 M257.6 414.3 L257.75 414.65 257.6 415.0 257.25 415.15 256.9 415.0 256.75 414.65 Q256.75 414.45 256.9 414.3 257.05 414.15 257.25 414.15 L257.6 414.3 M229.25 414.15 Q229.45 414.15 229.6 414.3 L229.75 414.65 229.6 415.0 229.25 415.15 228.9 415.0 228.75 414.65 Q228.75 414.45 228.9 414.3 229.05 414.15 229.25 414.15 M225.25 414.15 L225.6 414.3 225.75 414.65 225.6 415.0 225.25 415.15 224.9 415.0 224.75 414.65 224.9 414.3 Q225.05 414.15 225.25 414.15 M241.25 414.15 Q241.45 414.15 241.6 414.3 L241.75 414.65 241.6 415.0 241.25 415.15 240.9 415.0 240.75 414.65 Q240.75 414.45 240.9 414.3 241.05 414.15 241.25 414.15 M233.6 414.3 L233.75 414.65 233.6 415.0 233.25 415.15 232.9 415.0 232.75 414.65 Q232.75 414.45 232.9 414.3 233.05 414.15 233.25 414.15 233.45 414.15 233.6 414.3 M237.6 414.3 L237.75 414.65 237.6 415.0 237.25 415.15 236.9 415.0 236.75 414.65 236.9 414.3 Q237.05 414.15 237.25 414.15 L237.6 414.3 M209.6 398.55 L209.75 398.9 209.6 399.25 209.25 399.4 Q209.05 399.4 208.9 399.25 L208.75 398.9 208.9 398.55 Q209.05 398.4 209.25 398.4 L209.6 398.55 M209.6 402.55 L209.75 402.9 209.6 403.25 209.25 403.4 Q209.05 403.4 208.9 403.25 L208.75 402.9 208.9 402.55 Q209.05 402.4 209.25 402.4 L209.6 402.55 M208.9 406.55 Q209.05 406.4 209.25 406.4 L209.6 406.55 209.75 406.9 209.6 407.25 209.25 407.4 Q209.05 407.4 208.9 407.25 L208.75 406.9 208.9 406.55 M208.9 410.55 Q209.05 410.4 209.25 410.4 L209.6 410.55 209.75 410.9 209.6 411.25 209.25 411.4 Q209.05 411.4 208.9 411.25 L208.75 410.9 208.9 410.55 M209.25 414.15 L209.6 414.3 209.75 414.65 209.6 415.0 209.25 415.15 Q209.05 415.15 208.9 415.0 L208.75 414.65 208.9 414.3 Q209.05 414.15 209.25 414.15 M221.25 414.15 Q221.45 414.15 221.6 414.3 L221.75 414.65 221.6 415.0 221.25 415.15 220.9 415.0 220.75 414.65 Q220.75 414.45 220.9 414.3 221.05 414.15 221.25 414.15 M217.25 414.15 Q217.45 414.15 217.6 414.3 L217.75 414.65 217.6 415.0 217.25 415.15 216.9 415.0 216.75 414.65 Q216.75 414.45 216.9 414.3 217.05 414.15 217.25 414.15 M213.6 414.3 L213.75 414.65 213.6 415.0 213.25 415.15 212.9 415.0 212.75 414.65 212.9 414.3 Q213.05 414.15 213.25 414.15 L213.6 414.3 M543.1 399.8 L543.25 400.15 543.1 400.5 542.75 400.65 542.4 400.5 542.25 400.15 Q542.25 399.95 542.4 399.8 542.55 399.65 542.75 399.65 542.95 399.65 543.1 399.8 M542.4 403.8 Q542.55 403.65 542.75 403.65 542.95 403.65 543.1 403.8 L543.25 404.15 543.1 404.5 542.75 404.65 542.4 404.5 542.25 404.15 Q542.25 403.95 542.4 403.8 M542.4 407.8 Q542.55 407.65 542.75 407.65 542.95 407.65 543.1 407.8 L543.25 408.15 543.1 408.5 542.75 408.65 542.4 408.5 542.25 408.15 Q542.25 407.95 542.4 407.8 M533.25 414.15 L533.6 414.3 533.75 414.65 533.6 415.0 533.25 415.15 532.9 415.0 532.75 414.65 532.9 414.3 Q533.05 414.15 533.25 414.15 M529.6 414.3 L529.75 414.65 529.6 415.0 529.25 415.15 528.9 415.0 528.75 414.65 528.9 414.3 529.25 414.15 Q529.45 414.15 529.6 414.3 M543.1 411.8 L543.25 412.15 543.1 412.5 542.75 412.65 542.4 412.5 542.25 412.15 Q542.25 411.95 542.4 411.8 542.55 411.65 542.75 411.65 542.95 411.65 543.1 411.8 M541.25 414.15 Q541.45 414.15 541.6 414.3 L541.75 414.65 541.6 415.0 541.25 415.15 540.9 415.0 540.75 414.65 540.9 414.3 Q541.05 414.15 541.25 414.15 M537.6 414.3 L537.75 414.65 537.6 415.0 537.25 415.15 536.9 415.0 536.75 414.65 536.9 414.3 Q537.05 414.15 537.25 414.15 L537.6 414.3 M513.25 414.15 L513.6 414.3 513.75 414.65 513.6 415.0 513.25 415.15 512.9 415.0 512.75 414.65 512.9 414.3 513.25 414.15 M509.25 414.15 L509.6 414.3 509.75 414.65 509.6 415.0 509.25 415.15 508.9 415.0 508.75 414.65 Q508.75 414.45 508.9 414.3 509.05 414.15 509.25 414.15 M525.25 414.15 L525.6 414.3 525.75 414.65 525.6 415.0 525.25 415.15 524.9 415.0 524.75 414.65 524.9 414.3 525.25 414.15 M521.25 414.15 L521.6 414.3 521.75 414.65 521.6 415.0 521.25 415.15 520.9 415.0 520.75 414.65 Q520.75 414.45 520.9 414.3 521.05 414.15 521.25 414.15 M517.6 414.3 L517.75 414.65 517.6 415.0 517.25 415.15 516.9 415.0 516.75 414.65 516.9 414.3 Q517.05 414.15 517.25 414.15 L517.6 414.3 M493.25 414.15 Q493.45 414.15 493.6 414.3 L493.75 414.65 493.6 415.0 493.25 415.15 492.9 415.0 492.75 414.65 Q492.75 414.45 492.9 414.3 493.05 414.15 493.25 414.15 M489.6 414.3 L489.75 414.65 489.6 415.0 489.25 415.15 488.9 415.0 488.75 414.65 488.9 414.3 Q489.05 414.15 489.25 414.15 L489.6 414.3 M505.25 414.15 L505.6 414.3 505.75 414.65 505.6 415.0 505.25 415.15 504.9 415.0 504.75 414.65 504.9 414.3 Q505.05 414.15 505.25 414.15 M501.6 414.3 L501.75 414.65 501.6 415.0 501.25 415.15 500.9 415.0 500.75 414.65 500.9 414.3 501.25 414.15 501.6 414.3 M497.6 414.3 L497.75 414.65 497.6 415.0 497.25 415.15 496.9 415.0 496.75 414.65 Q496.75 414.45 496.9 414.3 497.05 414.15 497.25 414.15 497.45 414.15 497.6 414.3 M473.25 414.15 Q473.45 414.15 473.6 414.3 L473.75 414.65 473.6 415.0 473.25 415.15 472.9 415.0 472.75 414.65 Q472.75 414.45 472.9 414.3 473.05 414.15 473.25 414.15 M469.25 414.15 Q469.45 414.15 469.6 414.3 L469.75 414.65 469.6 415.0 469.25 415.15 468.9 415.0 468.75 414.65 Q468.75 414.45 468.9 414.3 469.05 414.15 469.25 414.15 M485.25 414.15 Q485.45 414.15 485.6 414.3 L485.75 414.65 485.6 415.0 485.25 415.15 484.9 415.0 484.75 414.65 Q484.75 414.45 484.9 414.3 485.05 414.15 485.25 414.15 M481.6 414.3 L481.75 414.65 481.6 415.0 481.25 415.15 480.9 415.0 480.75 414.65 Q480.75 414.45 480.9 414.3 481.05 414.15 481.25 414.15 481.45 414.15 481.6 414.3 M477.6 414.3 L477.75 414.65 477.6 415.0 477.25 415.15 476.9 415.0 476.75 414.65 476.9 414.3 Q477.05 414.15 477.25 414.15 L477.6 414.3 M453.25 414.15 L453.6 414.3 453.75 414.65 453.6 415.0 453.25 415.15 452.9 415.0 452.75 414.65 452.9 414.3 Q453.05 414.15 453.25 414.15 M449.6 414.3 L449.75 414.65 449.6 415.0 449.25 415.15 448.9 415.0 448.75 414.65 448.9 414.3 Q449.05 414.15 449.25 414.15 L449.6 414.3 M445.6 415.0 L445.25 415.15 444.9 415.0 444.75 414.65 444.9 414.3 445.25 414.15 Q445.45 414.15 445.6 414.3 L445.75 414.65 445.6 415.0 M465.25 414.15 L465.6 414.3 465.75 414.65 465.6 415.0 465.25 415.15 464.9 415.0 464.75 414.65 464.9 414.3 Q465.05 414.15 465.25 414.15 M461.25 414.15 L461.6 414.3 461.75 414.65 461.6 415.0 461.25 415.15 Q461.05 415.15 460.9 415.0 L460.75 414.65 460.9 414.3 Q461.05 414.15 461.25 414.15 M457.6 414.3 L457.75 414.65 457.6 415.0 457.25 415.15 456.9 415.0 456.75 414.65 456.9 414.3 Q457.05 414.15 457.25 414.15 457.45 414.15 457.6 414.3 M433.25 414.15 L433.6 414.3 433.75 414.65 433.6 415.0 433.25 415.15 432.9 415.0 432.75 414.65 432.9 414.3 Q433.05 414.15 433.25 414.15 M429.25 414.15 L429.6 414.3 429.75 414.65 429.6 415.0 429.25 415.15 428.9 415.0 428.75 414.65 428.9 414.3 429.25 414.15 M425.6 414.3 L425.75 414.65 425.6 415.0 425.25 415.15 424.9 415.0 424.75 414.65 Q424.75 414.45 424.9 414.3 425.05 414.15 425.25 414.15 L425.6 414.3 M441.25 414.15 L441.6 414.3 441.75 414.65 441.6 415.0 441.25 415.15 440.9 415.0 440.75 414.65 440.9 414.3 441.25 414.15 M437.6 414.3 L437.75 414.65 437.6 415.0 437.25 415.15 436.9 415.0 436.75 414.65 Q436.75 414.45 436.9 414.3 437.05 414.15 437.25 414.15 L437.6 414.3 M413.25 414.15 Q413.45 414.15 413.6 414.3 L413.75 414.65 413.6 415.0 413.25 415.15 412.9 415.0 412.75 414.65 Q412.75 414.45 412.9 414.3 413.05 414.15 413.25 414.15 M405.6 414.3 L405.75 414.65 405.6 415.0 405.25 415.15 404.9 415.0 404.75 414.65 404.9 414.3 Q405.05 414.15 405.25 414.15 L405.6 414.3 M409.6 414.3 L409.75 414.65 409.6 415.0 409.25 415.15 408.9 415.0 408.75 414.65 Q408.75 414.45 408.9 414.3 409.05 414.15 409.25 414.15 409.45 414.15 409.6 414.3 M421.25 414.15 L421.6 414.3 421.75 414.65 421.6 415.0 421.25 415.15 420.9 415.0 420.75 414.65 420.9 414.3 Q421.05 414.15 421.25 414.15 M417.6 414.3 L417.75 414.65 417.6 415.0 417.25 415.15 416.9 415.0 416.75 414.65 416.9 414.3 417.25 414.15 417.6 414.3 M393.25 414.15 L393.6 414.3 393.75 414.65 393.6 415.0 393.25 415.15 392.9 415.0 392.75 414.65 392.9 414.3 Q393.05 414.15 393.25 414.15 M389.25 414.15 Q389.45 414.15 389.6 414.3 L389.75 414.65 389.6 415.0 389.25 415.15 388.9 415.0 388.75 414.65 Q388.75 414.45 388.9 414.3 389.05 414.15 389.25 414.15 M385.25 414.15 Q385.45 414.15 385.6 414.3 L385.75 414.65 385.6 415.0 385.25 415.15 384.9 415.0 384.75 414.65 Q384.75 414.45 384.9 414.3 385.05 414.15 385.25 414.15 M401.25 414.15 Q401.45 414.15 401.6 414.3 L401.75 414.65 401.6 415.0 401.25 415.15 400.9 415.0 400.75 414.65 Q400.75 414.45 400.9 414.3 401.05 414.15 401.25 414.15 M397.6 414.3 L397.75 414.65 397.6 415.0 397.25 415.15 396.9 415.0 396.75 414.65 Q396.75 414.45 396.9 414.3 397.05 414.15 397.25 414.15 397.45 414.15 397.6 414.3 M373.25 414.15 Q373.45 414.15 373.6 414.3 L373.75 414.65 373.6 415.0 373.25 415.15 372.9 415.0 372.75 414.65 372.9 414.3 Q373.05 414.15 373.25 414.15 M369.25 414.15 L369.6 414.3 369.75 414.65 369.6 415.0 369.25 415.15 368.9 415.0 368.75 414.65 368.9 414.3 Q369.05 414.15 369.25 414.15 M365.6 414.3 L365.75 414.65 365.6 415.0 365.25 415.15 364.9 415.0 364.75 414.65 364.9 414.3 Q365.05 414.15 365.25 414.15 L365.6 414.3 M381.25 414.15 L381.6 414.3 381.75 414.65 381.6 415.0 381.25 415.15 380.9 415.0 380.75 414.65 380.9 414.3 Q381.05 414.15 381.25 414.15 M377.6 414.3 L377.75 414.65 377.6 415.0 377.25 415.15 Q377.05 415.15 376.9 415.0 L376.75 414.65 376.9 414.3 Q377.05 414.15 377.25 414.15 L377.6 414.3 M353.25 414.15 L353.6 414.3 353.75 414.65 353.6 415.0 353.25 415.15 352.9 415.0 352.75 414.65 Q352.75 414.45 352.9 414.3 353.05 414.15 353.25 414.15 M349.25 414.15 L349.6 414.3 349.75 414.65 349.6 415.0 349.25 415.15 348.9 415.0 348.75 414.65 348.9 414.3 Q349.05 414.15 349.25 414.15 M345.25 414.15 L345.6 414.3 345.75 414.65 345.6 415.0 345.25 415.15 344.9 415.0 344.75 414.65 344.9 414.3 345.25 414.15 M361.25 414.15 Q361.45 414.15 361.6 414.3 L361.75 414.65 361.6 415.0 361.25 415.15 360.9 415.0 360.75 414.65 360.9 414.3 361.25 414.15 M357.6 414.3 L357.75 414.65 357.6 415.0 357.25 415.15 356.9 415.0 356.75 414.65 356.9 414.3 357.25 414.15 357.6 414.3 M333.25 414.15 L333.6 414.3 333.75 414.65 333.6 415.0 333.25 415.15 332.9 415.0 332.75 414.65 332.9 414.3 333.25 414.15 M329.6 414.3 L329.75 414.65 329.6 415.0 329.25 415.15 328.9 415.0 328.75 414.65 Q328.75 414.45 328.9 414.3 329.05 414.15 329.25 414.15 329.45 414.15 329.6 414.3 M325.6 414.3 L325.75 414.65 325.6 415.0 325.25 415.15 324.9 415.0 324.75 414.65 Q324.75 414.45 324.9 414.3 325.05 414.15 325.25 414.15 325.45 414.15 325.6 414.3 M341.25 414.15 L341.6 414.3 341.75 414.65 341.6 415.0 341.25 415.15 340.9 415.0 340.75 414.65 Q340.75 414.45 340.9 414.3 341.05 414.15 341.25 414.15 M337.6 414.3 L337.75 414.65 337.6 415.0 337.25 415.15 336.9 415.0 336.75 414.65 336.9 414.3 Q337.05 414.15 337.25 414.15 L337.6 414.3" fill="#666666" fill-rule="evenodd" stroke="none"/>
  </g>
</svg>
