<?xml version="1.0" encoding="UTF-8" standalone="no"?>
<svg xmlns:xlink="http://www.w3.org/1999/xlink" height="70.0px" width="240.0px" xmlns="http://www.w3.org/2000/svg">
  <g transform="matrix(1.0, 0.0, 0.0, 1.0, 90.0, 24.0)">
    <path d="M146.0 -24.0 Q150.0 -24.0 150.0 -20.0 L150.0 42.0 Q150.0 46.0 146.0 46.0 L-48.1 46.0 -60.1 46.0 -67.05 46.0 -74.0 46.0 Q-78.0 46.0 -78.0 42.0 L-78.0 21.0 -90.0 15.0 -78.0 5.0 -78.0 -20.0 Q-78.0 -24.0 -74.0 -24.0 L-67.05 -24.0 -60.1 -24.0 -48.1 -24.0 146.0 -24.0" fill="#ffffff" fill-opacity="0.9019608" fill-rule="evenodd" stroke="none"/>
    <path d="M146.0 -24.0 L-48.1 -24.0 -60.1 -24.0 -67.05 -24.0 -74.0 -24.0 Q-78.0 -24.0 -78.0 -20.0 L-78.0 5.0 -90.0 15.0 -78.0 21.0 -78.0 42.0 Q-78.0 46.0 -74.0 46.0 L-67.05 46.0 -60.1 46.0 -48.1 46.0 146.0 46.0 Q150.0 46.0 150.0 42.0 L150.0 -20.0 Q150.0 -24.0 146.0 -24.0 Z" fill="none" stroke="#000000" stroke-linecap="round" stroke-linejoin="round" stroke-opacity="0.49803922" stroke-width="0.05"/>
  </g>
</svg>
