<?xml version="1.0" encoding="UTF-8" standalone="no"?>
<svg xmlns:xlink="http://www.w3.org/1999/xlink" height="381.0px" width="371.0px" xmlns="http://www.w3.org/2000/svg">
  <g transform="matrix(1.0, 0.0, 0.0, 1.0, 83.5, 155.5)">
    <path d="M277.0 -20.0 Q287.0 -20.0 287.0 -10.0 L287.0 215.0 Q287.0 225.0 277.0 225.0 L-73.0 225.0 Q-83.0 225.0 -83.0 215.0 L-83.0 -10.0 Q-83.0 -20.0 -73.0 -20.0 L277.0 -20.0 M277.0 -155.0 Q287.0 -155.0 287.0 -145.0 L287.0 -60.0 Q287.0 -50.0 277.0 -50.0 L-73.0 -50.0 Q-83.0 -50.0 -83.0 -60.0 L-83.0 -145.0 Q-83.0 -155.0 -73.0 -155.0 L277.0 -155.0" fill="#ffffff" fill-opacity="0.49803922" fill-rule="evenodd" stroke="none"/>
    <path d="M277.0 -155.0 L-73.0 -155.0 Q-83.0 -155.0 -83.0 -145.0 L-83.0 -60.0 Q-83.0 -50.0 -73.0 -50.0 L277.0 -50.0 Q287.0 -50.0 287.0 -60.0 L287.0 -145.0 Q287.0 -155.0 277.0 -155.0 M277.0 -20.0 L-73.0 -20.0 Q-83.0 -20.0 -83.0 -10.0 L-83.0 215.0 Q-83.0 225.0 -73.0 225.0 L277.0 225.0 Q287.0 225.0 287.0 215.0 L287.0 -10.0 Q287.0 -20.0 277.0 -20.0 Z" fill="none" stroke="#666666" stroke-linecap="round" stroke-linejoin="round" stroke-width="1.0"/>
  </g>
</svg>
