<?xml version="1.0" encoding="UTF-8" standalone="no"?>
<svg xmlns:xlink="http://www.w3.org/1999/xlink" height="129.0px" width="331.85px" xmlns="http://www.w3.org/2000/svg">
  <g transform="matrix(1.0, 0.0, 0.0, 1.0, 13.9, -12.0)">
    <path d="M-1.0 132.35 L-1.0 105.4 -1.0 49.45 -1.0 47.85 -12.9 35.5 -1.0 23.2 -1.0 20.65 Q-1.0 13.0 6.65 13.0 L79.4 13.0 238.55 13.0 301.35 13.0 309.3 13.0 Q316.95 13.0 316.95 20.65 L316.95 49.45 316.95 105.4 316.95 132.35 Q316.95 140.0 309.3 140.0 L238.55 140.0 79.4 140.0 6.65 140.0 Q-1.0 140.0 -1.0 132.35" fill="url(#gradient0)" fill-rule="evenodd" stroke="none"/>
    <path d="M-1.0 132.35 Q-1.0 140.0 6.65 140.0 L79.4 140.0 238.55 140.0 309.3 140.0 Q316.95 140.0 316.95 132.35 L316.95 105.4 316.95 49.45 316.95 20.65 Q316.95 13.0 309.3 13.0 L301.35 13.0 238.55 13.0 79.4 13.0 6.65 13.0 Q-1.0 13.0 -1.0 20.65 L-1.0 23.2 -12.9 35.5 -1.0 47.85 -1.0 49.45 -1.0 105.4 -1.0 132.35 Z" fill="none" stroke="#666666" stroke-linecap="round" stroke-linejoin="round" stroke-width="2.0"/>
  </g>
  <defs>
    <linearGradient gradientTransform="matrix(-4.0E-4, -0.0879, 0.0854, -4.0E-4, 157.95, 70.0)" gradientUnits="userSpaceOnUse" id="gradient0" spreadMethod="pad" x1="-819.2" x2="819.2">
      <stop offset="0.0" stop-color="#ffce68"/>
      <stop offset="0.24313725490196078" stop-color="#fff892"/>
    </linearGradient>
  </defs>
</svg>
