<?xml version="1.0" encoding="UTF-8" standalone="no"?>
<svg xmlns:xlink="http://www.w3.org/1999/xlink" height="288.4px" width="304.6px" xmlns="http://www.w3.org/2000/svg">
  <g transform="matrix(1.0, 0.0, 0.0, 1.0, -123.15, -16.05)">
    <path d="M427.25 303.95 L181.6 303.95 123.65 303.95 123.65 300.45 123.65 289.95 123.65 212.05 181.5 212.05 181.6 212.05 427.25 212.05 427.25 303.95" fill="url(#gradient0)" fill-rule="evenodd" stroke="none"/>
    <path d="M427.25 108.45 L181.6 108.45 123.65 108.45 123.65 104.95 123.65 94.45 123.65 16.55 181.5 16.55 181.6 16.55 427.25 16.55 427.25 108.45" fill="url(#gradient1)" fill-rule="evenodd" stroke="none"/>
    <path d="M427.25 206.45 L181.6 206.45 123.65 206.45 123.65 202.95 123.65 192.45 123.65 114.55 181.5 114.55 181.6 114.55 427.25 114.55 427.25 206.45" fill="url(#gradient2)" fill-rule="evenodd" stroke="none"/>
    <path d="M427.25 108.45 L181.6 108.45 123.65 108.45 123.65 104.95 123.65 94.45 123.65 16.55 181.5 16.55 181.6 16.55 427.25 16.55 427.25 108.45 M427.25 303.95 L181.6 303.95 123.65 303.95 123.65 300.45 123.65 289.95 123.65 212.05 181.5 212.05 181.6 212.05 427.25 212.05 427.25 303.95 M427.25 206.45 L181.6 206.45 123.65 206.45 123.65 202.95 123.65 192.45 123.65 114.55 181.5 114.55 181.6 114.55 427.25 114.55 427.25 206.45 Z" fill="none" stroke="#876b01" stroke-linecap="round" stroke-linejoin="round" stroke-opacity="0.49803922" stroke-width="1.0"/>
  </g>
  <defs>
    <linearGradient gradientTransform="matrix(0.1965, 0.0, 0.0, 0.0372, 183.0, 291.7)" gradientUnits="userSpaceOnUse" id="gradient0" spreadMethod="pad" x1="-819.2" x2="819.2">
      <stop offset="0.00784313725490196" stop-color="#ffffff" stop-opacity="0.4"/>
      <stop offset="1.0" stop-color="#ffffff" stop-opacity="0.8117647"/>
    </linearGradient>
    <linearGradient gradientTransform="matrix(0.1965, 0.0, 0.0, 0.0372, 183.0, 96.2)" gradientUnits="userSpaceOnUse" id="gradient1" spreadMethod="pad" x1="-819.2" x2="819.2">
      <stop offset="0.00784313725490196" stop-color="#ffffff" stop-opacity="0.4"/>
      <stop offset="1.0" stop-color="#ffffff" stop-opacity="0.8117647"/>
    </linearGradient>
    <linearGradient gradientTransform="matrix(0.1965, 0.0, 0.0, 0.0372, 183.0, 194.2)" gradientUnits="userSpaceOnUse" id="gradient2" spreadMethod="pad" x1="-819.2" x2="819.2">
      <stop offset="0.00784313725490196" stop-color="#ffffff" stop-opacity="0.4"/>
      <stop offset="1.0" stop-color="#ffffff" stop-opacity="0.8117647"/>
    </linearGradient>
  </defs>
</svg>
