<?xml version="1.0" encoding="UTF-8" standalone="no"?>
<svg xmlns:xlink="http://www.w3.org/1999/xlink" height="291.0px" width="661.0px" xmlns="http://www.w3.org/2000/svg">
  <g transform="matrix(1.0, 0.0, 0.0, 1.0, 330.5, 145.55)">
    <path d="M330.0 -141.45 L330.0 -126.6 330.0 -95.0 330.0 141.3 Q330.0 144.95 326.95 144.95 L180.3 144.95 113.0 144.95 -120.95 144.95 -315.0 144.95 -327.0 144.95 Q-330.0 144.95 -330.0 141.3 L-330.0 -126.6 -330.0 -141.45 Q-330.0 -145.05 -327.0 -145.05 L-315.0 -145.05 180.3 -145.05 326.95 -145.05 Q330.0 -145.05 330.0 -141.45" fill="#f0d9c0" fill-rule="evenodd" stroke="none"/>
    <path d="M330.0 -141.45 Q330.0 -145.05 326.95 -145.05 L180.3 -145.05 -315.0 -145.05 -327.0 -145.05 Q-330.0 -145.05 -330.0 -141.45 L-330.0 -126.6 -330.0 141.3 Q-330.0 144.95 -327.0 144.95 L-315.0 144.95 -120.95 144.95 113.0 144.95 180.3 144.95 326.95 144.95 Q330.0 144.95 330.0 141.3 L330.0 -95.0 330.0 -126.6 330.0 -141.45 Z" fill="none" stroke="#797979" stroke-linecap="round" stroke-linejoin="round" stroke-width="1.0"/>
  </g>
</svg>
