<?xml version="1.0" encoding="UTF-8" standalone="no"?>
<svg xmlns:xlink="http://www.w3.org/1999/xlink" height="11.0px" width="11.0px" xmlns="http://www.w3.org/2000/svg">
  <g transform="matrix(1.0, 0.0, 0.0, 1.0, 5.45, 5.45)">
    <path d="M3.6 -3.5 Q5.05 -2.0 5.05 0.05 5.05 2.15 3.6 3.6 2.1 5.05 0.05 5.05 -2.05 5.05 -3.5 3.6 -4.95 2.15 -4.95 0.05 -4.95 -2.0 -3.5 -3.5 -2.05 -4.95 0.05 -4.95 2.1 -4.95 3.6 -3.5" fill="url(#gradient0)" fill-rule="evenodd" stroke="none"/>
    <path d="M3.6 -3.5 Q5.05 -2.0 5.05 0.05 5.05 2.15 3.6 3.6 2.1 5.05 0.05 5.05 -2.05 5.05 -3.5 3.6 -4.95 2.15 -4.95 0.05 -4.95 -2.0 -3.5 -3.5 -2.05 -4.95 0.05 -4.95 2.1 -4.95 3.6 -3.5 Z" fill="none" stroke="#000000" stroke-linecap="round" stroke-linejoin="round" stroke-width="1.0"/>
  </g>
  <defs>
    <radialGradient cx="0" cy="0" gradientTransform="matrix(0.0105, 0.0, 0.0, 0.0105, -1.95, -2.55)" gradientUnits="userSpaceOnUse" id="gradient0" r="819.2" spreadMethod="pad">
      <stop offset="0.0" stop-color="#f0e5d5"/>
      <stop offset="0.2980392156862745" stop-color="#3a3a3a"/>
      <stop offset="0.5529411764705883" stop-color="#020200"/>
      <stop offset="1.0" stop-color="#830700"/>
    </radialGradient>
  </defs>
</svg>
