<?xml version="1.0" encoding="UTF-8" standalone="no"?>
<svg xmlns:xlink="http://www.w3.org/1999/xlink" height="154.35px" width="112.0px" xmlns="http://www.w3.org/2000/svg">
  <g transform="matrix(1.0, 0.0, 0.0, 1.0, 0.0, 0.0)">
    <path d="M88.0 27.85 Q91.1 33.85 93.95 40.7 L98.7 51.0 Q101.3 56.8 102.05 62.25 104.25 62.45 107.25 64.35 111.0 66.8 111.0 69.85 L110.55 70.6 Q109.9 71.05 109.45 72.3 108.9 73.8 108.35 77.05 107.85 79.9 107.85 80.85 L108.05 84.75 Q108.4 88.6 109.0 90.85 109.35 92.25 110.85 95.3 112.0 97.7 112.0 99.1 112.0 101.1 111.1 103.15 110.15 105.2 110.15 108.45 L112.0 115.85 Q112.0 119.05 110.9 125.45 109.75 131.85 108.0 138.85 107.55 140.55 95.2 145.65 81.9 151.1 75.05 151.1 L67.45 150.7 Q65.95 150.25 65.95 148.05 L66.0 146.85 62.0 146.85 63.2 148.65 Q63.55 149.2 63.55 149.8 63.55 150.45 61.25 152.0 58.15 154.05 53.85 154.05 L50.95 153.45 48.0 152.85 Q47.95 152.85 46.9 153.6 45.7 154.35 44.55 154.35 L42.6 154.05 40.9 153.4 Q39.65 152.55 27.7 152.1 L16.0 151.85 Q16.45 144.8 13.9 141.4 11.9 138.7 8.45 138.7 6.0 138.7 5.3 139.7 4.65 140.7 3.05 140.7 -0.2 140.7 0.0 132.85 0.65 132.2 1.95 131.95 L4.0 131.7 Q6.1 131.25 5.0 127.85 L10.5 126.45 Q12.65 125.6 12.65 122.65 12.65 118.3 11.3 116.95 9.95 115.55 9.95 114.1 9.95 112.95 11.9 109.0 13.9 105.0 14.0 99.85 14.05 95.15 15.3 89.35 12.0 81.6 12.0 80.85 12.0 79.1 15.15 77.5 18.85 75.55 20.2 71.8 22.3 66.0 23.75 55.25 24.7 48.25 27.0 47.85 26.5 45.3 30.7 34.65 L35.0 23.85 34.45 21.05 Q33.85 19.05 33.85 15.5 33.85 12.75 36.05 10.7 38.15 8.7 38.0 7.85 42.2 7.75 44.6 5.8 L48.3 2.1 49.75 0.8 Q50.9 0.0 52.8 0.0 56.35 0.0 57.0 3.7 57.0 7.7 57.15 8.3 57.7 10.65 62.1 13.3 66.35 15.85 69.0 15.85 71.1 15.85 76.4 11.4 81.7 6.9 83.45 6.9 85.55 6.9 87.0 8.85 89.35 12.0 89.35 19.65 L88.7 23.15 Q88.0 25.55 88.0 27.85" fill="#ff0000" fill-rule="evenodd" stroke="none"/>
  </g>
</svg>
