<?xml version="1.0" encoding="UTF-8" standalone="no"?>
<svg xmlns:xlink="http://www.w3.org/1999/xlink" height="119.4px" width="124.0px" xmlns="http://www.w3.org/2000/svg">
  <g transform="matrix(1.0, 0.0, 0.0, 1.0, -2.0, -1.95)">
    <path d="M118.3 10.6 Q119.55 12.2 119.55 15.65 119.55 16.15 117.15 17.55 112.3 20.4 106.0 25.0 L106.0 28.0 107.95 27.95 Q110.65 27.95 111.4 28.55 111.75 28.85 111.75 29.55 111.75 30.35 108.9 33.0 106.0 35.7 106.0 36.0 106.0 37.75 107.9 42.45 109.85 47.3 110.0 51.0 L115.05 50.0 Q119.95 50.0 119.95 53.8 119.95 56.85 119.1 57.4 117.65 58.3 116.9 60.2 117.9 61.05 118.35 61.1 L120.6 61.0 Q126.0 61.0 126.0 65.0 126.05 66.4 125.3 67.8 123.8 70.55 120.0 71.0 122.9 72.5 124.25 74.85 125.25 76.6 125.25 78.3 125.25 87.25 116.4 91.1 L110.25 93.75 Q107.5 95.4 107.5 98.0 107.5 99.05 105.6 100.1 103.45 101.25 101.0 101.0 101.25 102.1 101.9 103.1 L102.5 104.0 Q102.5 107.45 99.0 109.3 96.6 110.6 94.35 110.6 L90.8 109.8 Q88.2 109.0 87.0 109.0 L87.15 110.55 86.9 112.25 86.4 112.4 85.45 112.55 Q81.95 111.0 81.0 111.0 79.55 111.0 78.7 112.1 L77.35 114.5 Q75.15 118.0 68.7 118.0 L65.85 117.5 63.0 117.0 Q58.75 117.0 56.9 119.2 55.05 121.35 51.0 121.35 47.6 121.35 32.55 117.5 17.5 113.6 15.7 113.6 14.7 113.6 12.85 112.9 L10.25 111.75 10.0 111.0 12.1 110.1 14.0 109.4 14.0 109.0 Q8.0 109.2 4.45 107.75 2.0 106.75 2.0 106.0 L3.5 102.65 Q5.0 99.15 5.0 98.0 L4.4 96.6 3.0 94.0 3.9 94.15 6.65 92.4 12.05 88.8 12.5 88.0 Q10.9 87.6 10.05 86.85 8.8 85.7 8.8 83.5 L9.0 78.0 13.0 78.0 13.0 69.0 Q12.45 68.45 11.85 64.95 11.0 59.9 11.0 52.0 11.0 51.9 12.95 50.95 L15.0 50.0 Q17.95 50.0 19.65 53.3 20.9 55.8 21.1 59.15 22.45 57.0 23.25 51.35 L23.8 46.05 21.8 45.1 Q18.95 43.3 15.0 39.0 20.85 37.25 21.5 36.15 22.0 35.25 22.0 27.3 22.0 20.35 21.2 19.75 L20.55 19.45 Q20.15 19.1 19.95 17.65 L19.95 16.0 Q25.95 14.8 27.4 18.3 27.8 19.15 28.5 27.3 29.1 34.1 32.35 37.9 36.95 43.35 48.0 45.0 L42.8 31.1 Q38.05 17.65 36.0 8.0 37.55 8.0 38.7 7.05 L41.1 4.95 Q45.35 1.95 56.6 1.95 63.5 1.95 68.0 4.0 72.65 6.1 72.65 9.35 L70.85 13.3 Q69.0 16.85 69.0 20.5 69.0 23.4 72.15 26.4 75.1 29.25 77.4 29.25 88.25 29.25 98.3 19.0 L105.45 11.95 Q109.45 8.75 113.3 8.75 116.85 8.75 118.3 10.6" fill="#ff0000" fill-rule="evenodd" stroke="none"/>
  </g>
</svg>
