<?xml version="1.0" encoding="UTF-8" standalone="no"?>
<svg xmlns:xlink="http://www.w3.org/1999/xlink" height="162.7px" width="109.75px" xmlns="http://www.w3.org/2000/svg">
  <g transform="matrix(1.0, 0.0, 0.0, 1.0, -17.0, 73.75)">
    <path d="M59.5 -53.05 Q61.5 -54.4 61.5 -55.35 L60.75 -58.5 Q60.75 -60.9 61.3 -62.5 L61.05 -62.9 Q60.75 -63.5 60.75 -64.1 60.75 -67.75 61.95 -69.6 63.05 -71.25 66.35 -73.05 67.95 -73.9 69.6 -73.7 71.4 -73.5 72.2 -72.1 72.55 -71.55 74.95 -70.3 L78.25 -68.3 Q83.75 -66.9 84.05 -64.05 83.4 -60.8 84.0 -59.3 L86.4 -59.35 Q87.85 -61.2 92.85 -63.0 97.1 -64.55 98.6 -64.55 101.0 -64.55 102.25 -61.15 L103.0 -57.6 Q103.0 -54.05 98.25 -53.25 L95.0 -52.45 Q93.5 -51.75 93.5 -50.05 93.5 -48.05 93.75 -47.1 L93.75 -37.35 94.25 -31.6 94.05 -28.3 94.25 -28.3 95.75 -27.55 Q96.6 -27.55 98.7 -30.05 101.3 -31.9 105.5 -28.8 109.25 -26.7 112.5 -25.2 L118.0 -22.7 Q121.55 -21.05 123.25 -19.8 125.15 -18.4 125.75 -16.8 L126.65 -13.35 126.75 -10.3 Q126.75 -7.35 126.25 -6.45 124.6 -3.55 118.6 -4.1 121.5 -2.05 122.4 1.0 122.7 2.15 123.0 6.4 L123.0 23.95 Q123.6 25.25 123.7 27.4 L123.75 30.85 Q123.75 35.5 122.25 36.45 L122.25 38.35 Q122.25 42.25 121.7 44.1 120.4 48.3 119.75 51.6 L119.75 65.1 Q119.45 65.9 115.7 67.55 L109.25 70.45 Q108.3 70.9 106.85 73.25 105.45 75.5 103.35 76.45 104.25 77.85 104.25 78.85 104.25 79.75 103.4 80.25 101.55 81.25 96.15 81.05 L92.9 84.05 Q90.95 85.55 87.65 86.3 L81.15 88.1 Q77.65 88.95 73.15 88.95 70.2 88.95 69.3 87.85 L69.25 87.7 64.85 87.7 63.15 88.0 61.25 88.2 Q58.1 88.2 55.9 84.55 L53.6 79.7 Q49.65 82.2 47.9 82.2 46.3 82.2 44.5 79.35 43.05 77.0 42.75 75.3 L42.75 75.2 39.6 75.85 33.5 76.45 Q29.2 76.45 27.15 72.4 25.75 68.0 25.2 67.2 23.8 65.3 23.1 62.45 22.5 60.15 22.5 57.85 22.5 53.75 23.15 49.0 23.75 44.25 23.75 41.0 L23.75 39.45 Q22.1 39.45 21.75 37.7 L21.75 35.95 Q21.75 32.9 23.3 32.35 L23.0 26.35 Q23.0 25.35 23.55 24.5 23.05 24.0 22.95 23.05 L22.85 21.45 Q21.2 21.35 21.0 19.5 L21.05 19.3 20.65 18.9 Q19.2 17.45 18.7 16.55 17.55 14.55 17.2 12.3 L17.0 8.2 Q17.0 3.95 17.25 3.4 L22.1 -2.55 Q23.75 -4.55 25.25 -8.0 26.95 -11.95 27.85 -13.3 L31.0 -18.45 Q32.95 -21.65 34.95 -23.95 35.85 -25.05 36.45 -26.6 37.1 -28.15 37.0 -29.2 L37.0 -29.25 Q34.65 -25.8 32.25 -25.8 29.05 -25.8 26.75 -28.15 25.0 -29.9 25.0 -30.8 25.0 -31.95 26.75 -33.7 26.4 -36.4 26.5 -39.2 26.5 -41.45 28.75 -42.55 30.95 -43.6 33.75 -43.0 37.8 -42.1 39.6 -38.9 L39.75 -39.3 Q40.5 -41.05 41.0 -43.55 41.5 -44.5 41.55 -47.0 42.3 -49.25 46.6 -50.1 47.55 -51.8 49.5 -51.8 51.65 -51.8 52.5 -48.15 53.4 -44.55 55.35 -44.55 56.05 -44.55 57.2 -46.5 L58.25 -48.55 57.9 -49.45 57.5 -50.25 Q57.5 -51.7 59.5 -53.05 M30.5 -38.75 L30.55 -38.85 30.5 -38.85 30.5 -38.75 M34.5 -12.5 Q31.95 -9.0 31.0 -5.7 33.5 -4.35 34.7 -3.75 36.8 -2.75 39.75 -2.3 L40.45 -18.55 Q37.1 -16.15 34.5 -12.5 M84.9 -49.55 Q86.95 -47.15 89.75 -45.2 L89.75 -46.1 Q89.5 -47.45 89.5 -50.25 L84.9 -49.55 M85.25 -37.2 L84.1 -36.3 84.95 -35.0 85.0 -34.1 84.4 -31.45 84.05 -30.1 Q85.0 -29.65 85.0 -28.2 85.0 -27.65 84.55 -27.05 L84.05 -26.55 84.4 -25.85 Q85.0 -24.75 85.0 -22.35 L85.0 -17.3 Q85.65 -18.05 87.4 -22.85 88.45 -25.25 89.65 -26.35 L89.75 -27.1 90.25 -31.35 89.75 -36.2 89.75 -38.55 Q88.3 -37.65 85.25 -37.2 M114.75 4.65 Q112.35 1.9 105.25 -0.6 104.05 2.55 108.9 6.25 114.0 10.15 114.0 10.4 114.0 10.85 108.65 14.55 L102.1 18.95 108.55 23.15 Q112.6 25.7 114.5 25.7 115.15 25.7 115.5 24.05 L115.0 19.9 Q115.0 17.35 115.75 13.8 L116.5 10.3 Q116.5 6.65 114.75 4.65 M98.75 45.2 Q102.1 43.9 105.55 41.4 L110.5 37.55 Q109.75 35.15 105.65 33.15 102.15 31.4 102.5 29.7 98.85 28.2 98.75 27.8 L98.75 45.2 M108.1 46.75 L107.75 47.2 Q108.55 49.25 109.1 51.95 L109.25 52.1 Q112.5 48.85 112.5 47.95 L112.15 46.4 111.75 45.3 Q111.2 45.15 108.1 46.75 M41.5 15.4 Q37.2 14.7 34.05 12.95 32.3 12.0 29.7 10.3 L26.85 16.65 Q34.2 16.0 35.65 17.5 L36.45 18.65 Q36.95 19.2 38.35 19.2 L40.25 19.15 Q40.85 18.45 41.1 17.35 L41.5 15.4 M34.5 26.45 L31.5 26.45 Q31.5 27.4 32.4 30.55 L33.25 34.0 Q33.25 35.7 32.25 38.65 31.25 41.55 31.25 43.6 L31.0 52.95 31.1 53.05 Q31.9 51.3 34.75 49.95 36.15 49.25 38.95 48.95 41.0 48.7 41.0 48.05 41.0 47.1 39.35 43.7 L37.5 39.95 37.5 28.35 Q37.25 27.9 34.5 26.45" fill="#ff0000" fill-rule="evenodd" stroke="none"/>
  </g>
</svg>
