<?xml version="1.0" encoding="UTF-8" standalone="no"?>
<svg xmlns:xlink="http://www.w3.org/1999/xlink" height="176.7px" width="140.65px" xmlns="http://www.w3.org/2000/svg">
  <g transform="matrix(1.0, 0.0, 0.0, 1.0, -3.95, -1.0)">
    <path d="M85.6 7.45 L85.85 11.7 85.0 17.0 88.25 18.15 90.0 19.0 Q90.0 16.0 90.75 15.95 95.75 20.25 105.6 24.0 108.75 25.2 109.9 26.5 111.45 28.2 111.45 31.55 111.45 33.95 110.35 34.85 109.35 35.7 107.0 35.7 96.2 34.0 93.0 33.0 L93.0 46.0 96.0 46.0 96.0 41.0 99.55 40.25 102.0 39.5 Q103.0 39.5 106.0 40.45 117.05 46.75 121.95 51.75 126.75 56.7 126.75 61.75 126.75 63.6 124.6 66.7 121.8 70.75 117.95 70.75 L116.25 70.4 114.5 70.0 Q112.3 70.0 110.9 71.25 109.65 72.3 108.0 72.0 L108.15 72.85 Q108.45 73.55 110.75 75.15 113.4 77.0 115.0 77.0 127.3 77.0 127.3 83.4 L126.65 84.7 126.0 86.0 Q126.0 86.5 126.45 87.0 126.85 87.5 126.85 88.0 L125.95 89.35 Q125.0 90.45 125.0 91.0 125.0 101.6 121.4 110.4 L118.9 116.4 Q117.75 119.6 117.75 122.5 117.75 125.85 119.2 125.85 120.2 125.85 120.0 125.4 L120.0 121.0 Q131.7 124.85 136.85 130.2 140.3 133.8 140.3 137.25 140.3 138.55 139.65 140.0 139.0 141.45 139.0 142.5 L139.0 144.0 Q142.85 143.95 144.6 145.1 L143.1 145.95 141.0 146.5 Q131.15 146.5 129.8 149.0 L129.1 151.7 Q128.7 153.7 127.5 155.1 L121.4 157.4 Q116.05 159.5 116.05 162.0 L118.25 167.35 118.05 168.1 117.85 168.2 116.6 168.35 Q111.7 168.4 110.0 167.0 110.75 169.7 109.35 172.1 107.9 174.6 105.3 174.6 102.7 174.6 99.05 171.8 95.4 169.0 93.0 169.0 91.85 169.0 89.55 170.3 87.85 171.3 87.0 172.0 L88.1 173.5 Q88.5 174.2 88.5 175.0 88.5 175.75 87.75 176.35 87.0 176.95 86.2 176.95 84.7 176.95 83.65 175.95 82.4 174.65 79.0 174.0 L80.0 176.7 80.15 177.45 79.95 177.7 Q77.75 176.15 67.2 173.6 52.6 170.1 49.0 169.0 49.1 169.85 47.2 167.2 44.85 164.0 44.0 164.0 L41.3 164.55 38.6 165.1 Q34.95 165.1 31.5 162.65 29.6 161.3 25.4 157.1 17.05 148.75 9.5 147.95 9.2 141.45 6.5 139.95 L4.75 138.8 Q3.95 137.8 3.95 135.4 3.95 133.9 4.6 133.3 L6.0 131.65 4.85 130.0 15.65 128.1 Q18.0 127.2 18.0 124.0 18.0 121.9 16.45 120.65 15.6 119.95 13.0 118.9 8.0 116.85 8.0 113.0 L15.5 109.0 Q20.95 109.0 23.35 114.3 24.6 117.1 25.45 117.95 26.95 119.6 29.8 119.6 L31.05 119.45 30.8 119.1 Q30.6 118.6 35.35 118.55 37.6 118.5 39.9 117.5 42.0 116.6 42.0 116.0 42.0 114.85 41.0 110.15 40.0 105.5 40.0 99.95 40.0 97.6 40.95 94.2 L41.85 90.35 Q41.85 87.4 41.0 86.0 40.4 85.0 39.5 85.0 36.25 85.0 29.25 97.2 L22.1 109.35 Q20.25 109.35 18.4 108.25 16.0 106.85 16.0 104.5 16.0 103.1 17.25 101.75 L20.0 98.95 Q24.0 94.3 24.0 85.0 L25.0 85.0 Q24.9 80.35 26.4 79.1 L27.4 78.35 Q27.9 77.95 27.9 77.1 27.9 74.25 26.35 73.5 24.75 72.75 24.75 70.85 24.75 70.45 25.85 66.55 L27.0 62.0 Q28.4 61.35 24.9 49.35 20.95 35.8 20.95 34.0 20.95 33.4 21.8 32.6 L22.6 31.95 26.05 32.55 27.0 33.0 30.9 32.9 31.0 32.2 31.0 31.55 30.95 31.6 Q29.25 30.5 28.1 29.05 26.0 26.25 26.0 20.5 26.0 19.4 26.4 18.6 L27.0 17.0 39.0 17.9 Q42.2 18.25 44.25 22.8 L46.25 27.35 Q46.55 27.95 47.3 27.95 47.6 27.95 48.5 26.5 49.35 25.0 50.8 25.0 53.35 25.0 54.75 26.2 56.3 27.5 56.3 29.95 L56.05 32.2 Q56.15 33.3 58.0 34.0 60.55 23.85 61.15 19.7 62.0 13.85 62.0 3.15 L66.5 2.8 Q67.3 2.8 68.05 3.4 L69.0 4.0 71.95 3.55 72.0 1.0 Q80.95 1.15 83.6 2.0 85.35 2.55 85.35 4.3 L85.6 7.45" fill="#ff0000" fill-rule="evenodd" stroke="none"/>
  </g>
</svg>
