<?xml version="1.0" encoding="UTF-8" standalone="no"?>
<svg xmlns:xlink="http://www.w3.org/1999/xlink" height="159.7px" width="145.45px" xmlns="http://www.w3.org/2000/svg">
  <g transform="matrix(1.0, 0.0, 0.0, 1.0, -6.6, -11.15)">
    <path d="M16.55 11.65 L68.2 11.65 69.4 11.8 71.1 12.3 75.2 16.85 147.1 97.7 150.5 101.5 Q151.45 103.9 151.55 107.05 L151.55 161.65 146.8 156.4 21.05 16.65 16.55 11.65" fill="#50c102" fill-opacity="0.8862745" fill-rule="evenodd" stroke="none"/>
    <path d="M151.55 161.65 Q151.55 165.8 148.65 168.7 L146.55 170.35 146.55 156.65 146.8 156.4 151.55 161.65 M21.05 16.65 L7.1 16.65 Q7.8 15.1 9.5 13.85 12.4 11.65 16.55 11.65 L21.05 16.65" fill="#43662b" fill-opacity="0.87058824" fill-rule="evenodd" stroke="none"/>
    <path d="M16.55 11.65 L68.2 11.65 69.4 11.8 71.1 12.3 75.2 16.85 147.1 97.7 150.5 101.5 Q151.45 103.9 151.55 107.05 L151.55 161.65 Q151.55 165.8 148.65 168.7 L146.55 170.35 146.55 156.65 M146.8 156.4 L21.05 16.65 7.1 16.65 Q7.8 15.1 9.5 13.85 12.4 11.65 16.55 11.65 L21.05 16.65 M151.55 161.65 L146.8 156.4" fill="none" stroke="#006600" stroke-linecap="round" stroke-linejoin="round" stroke-width="1.0"/>
  </g>
</svg>
