<?xml version="1.0" encoding="UTF-8" standalone="no"?>
<svg xmlns:xlink="http://www.w3.org/1999/xlink" height="196.0px" width="196.0px" xmlns="http://www.w3.org/2000/svg">
  <g transform="matrix(1.0, 0.0, 0.0, 1.0, 0.0, 28.0)">
    <path d="M80.65 -14.8 L80.5 -15.75 Q79.85 -18.0 79.65 -20.8 81.2 -26.85 82.7 -28.0 L103.8 -28.0 103.65 -26.8 107.4 -23.55 107.65 -22.8 Q109.55 -21.7 109.65 -18.8 L109.65 -17.8 Q111.4 -14.55 110.7 -8.8 L110.65 -7.8 Q117.8 -3.95 122.4 2.35 L122.65 3.2 Q123.7 5.65 126.5 6.65 L126.65 7.2 Q131.05 11.45 135.6 11.7 L135.65 12.2 Q137.85 16.0 139.5 20.25 L139.65 21.2 140.4 21.45 140.65 22.2 Q142.4 26.95 141.15 34.1 L140.65 34.2 140.55 35.15 139.95 37.25 141.05 37.6 142.15 36.8 Q143.5 35.9 142.0 41.55 142.55 43.3 144.15 37.3 144.8 34.85 147.0 34.55 L147.0 33.55 148.0 33.55 Q153.0 29.05 160.05 31.4 L161.0 31.55 Q165.75 32.8 167.8 36.65 L168.0 37.55 Q174.3 46.25 168.65 54.3 L168.0 54.55 167.1 54.75 166.0 55.55 Q168.35 61.7 174.5 64.65 178.5 66.55 182.0 69.55 192.4 78.45 196.0 89.55 184.35 102.4 168.85 111.35 L168.0 111.55 Q168.55 114.5 169.8 116.65 L170.0 117.55 170.1 118.55 Q171.2 124.25 167.0 124.55 170.0 131.55 169.5 141.5 L169.0 141.55 Q169.05 143.5 168.8 143.95 165.55 150.6 158.0 153.55 L157.5 153.55 Q157.65 160.9 164.0 162.55 163.0 166.45 154.4 164.05 L152.0 160.55 153.1 159.75 154.0 159.55 Q154.0 159.05 153.8 158.95 152.3 158.25 153.0 155.55 148.6 157.65 144.8 160.6 132.65 169.9 120.0 165.55 119.15 168.7 115.45 167.35 109.9 165.3 97.9 166.4 83.85 167.65 75.0 165.55 74.5 165.55 74.25 165.8 71.0 169.05 68.0 167.55 L67.1 167.35 Q55.1 161.95 44.0 155.55 L43.5 155.55 Q43.6 157.7 42.0 157.55 L42.0 158.55 42.0 159.55 Q42.5 159.55 42.65 159.75 44.65 163.0 39.0 163.55 38.5 163.55 38.2 163.8 33.7 167.85 30.0 162.55 37.5 161.55 38.9 154.55 L39.0 153.55 38.1 153.35 Q37.5 153.05 37.0 152.55 L36.1 152.35 Q33.0 150.55 30.0 148.55 L29.0 148.45 Q24.85 147.7 26.0 141.55 L26.05 140.55 Q26.85 134.8 26.0 129.55 L27.0 129.55 27.0 128.55 27.1 127.55 Q27.6 125.15 26.0 120.55 L26.0 119.55 26.0 118.55 26.0 117.55 26.0 114.55 26.8 113.45 27.0 112.55 26.8 111.95 Q10.5 104.05 0.0 90.55 L1.0 90.55 1.0 89.55 1.0 84.55 Q1.5 84.05 2.1 83.75 L3.0 83.55 3.0 82.55 3.0 81.55 Q12.2 71.75 22.2 62.8 22.5 62.55 23.0 62.55 L23.0 61.55 26.0 61.55 27.0 61.55 Q28.7 61.25 29.4 59.75 29.5 59.55 30.0 59.55 L29.85 58.6 28.0 54.55 27.2 54.3 Q24.4 52.15 24.0 47.55 25.75 45.8 25.5 41.55 L26.0 41.55 26.0 40.55 26.0 38.55 27.0 38.55 27.0 37.55 27.0 36.55 Q27.5 36.05 28.1 35.75 L29.0 35.55 29.0 34.55 Q31.25 32.8 34.05 31.7 L35.0 31.55 35.0 30.55 Q42.0 29.55 45.2 32.3 L46.0 32.55 Q48.75 34.3 50.65 36.85 L50.4 36.45 Q48.95 34.9 49.65 31.2 L49.65 30.2 49.65 22.2 50.65 22.2 50.65 21.2 50.65 20.2 Q53.2 14.75 57.8 11.45 L58.65 11.2 58.65 10.2 58.65 9.2 60.45 6.1 60.65 5.2 60.65 4.2 62.45 4.6 Q62.65 4.7 62.65 5.2 L64.7 6.05 65.65 6.2 Q71.2 -2.25 79.8 -7.6 L80.65 -7.8 80.65 -8.8 80.65 -14.8 M165.0 85.55 L165.0 86.55 165.0 93.55 165.0 94.55 Q164.3 106.75 171.9 97.45 177.55 90.6 185.5 86.05 L185.0 85.55 185.0 84.55 184.05 84.4 Q172.25 80.3 165.0 66.55 L165.0 85.55 M52.0 39.45 L52.0 39.55 52.05 39.5 52.0 39.45 M29.0 71.55 Q28.5 71.55 28.35 71.8 21.15 82.65 11.0 85.55 L10.75 86.3 10.0 86.55 19.45 95.2 Q24.75 99.8 31.0 103.55 L31.0 102.55 30.9 102.05 Q29.35 101.7 30.0 99.55 L30.75 99.3 31.0 98.55 30.5 98.55 Q30.0 85.05 30.0 71.55 L29.0 71.55" fill="#ff0000" fill-opacity="0.9882353" fill-rule="evenodd" stroke="none"/>
  </g>
</svg>
