<?xml version="1.0" encoding="UTF-8" standalone="no"?>
<svg xmlns:xlink="http://www.w3.org/1999/xlink" height="194.9px" width="5294.85px" xmlns="http://www.w3.org/2000/svg">
  <g transform="matrix(1.0, 0.0, 0.0, 1.0, -13.0, 66.0)">
    <path d="M5232.95 -32.0 L5232.0 -32.15 Q5228.2 -33.2 5225.95 -36.0 L5232.25 -50.4 Q5234.4 -55.15 5238.65 -58.4 5251.75 -68.4 5266.75 -62.45 5268.65 -61.7 5267.95 -58.0 L5267.35 -57.8 Q5266.95 -57.0 5266.75 -56.95 5241.75 -52.15 5232.95 -32.0 M4044.95 -36.0 L4044.45 -35.9 Q4043.15 -29.4 4040.95 -24.0 4041.0 -10.95 4049.35 5.8 L4049.95 6.0 Q4049.65 7.7 4048.1 8.35 4046.5 9.0 4045.4 8.65 4029.85 3.6 4028.95 -22.0 4032.4 -34.2 4039.6 -37.6 L4042.0 -37.9 Q4044.65 -37.7 4044.95 -36.0" fill="#191b1a" fill-opacity="0.2509804" fill-rule="evenodd" stroke="none"/>
    <path d="M5268.95 -51.0 Q5269.8 -48.5 5269.95 -45.0 L5269.95 -44.0 5269.35 -44.2 5268.95 -45.0 Q5266.95 -40.95 5260.95 -40.0 L5261.75 -38.9 5261.95 -38.0 5261.2 -37.75 Q5260.0 -36.5 5257.95 -36.0 L5257.25 -35.75 Q5252.1 -29.8 5243.95 -27.0 L5243.95 -26.0 Q5243.45 -26.0 5243.15 -26.25 5240.9 -27.95 5237.95 -29.0 L5237.95 -30.0 Q5250.45 -43.0 5268.05 -50.8 L5268.95 -51.0" fill="#545342" fill-opacity="0.5372549" fill-rule="evenodd" stroke="none"/>
    <path d="M5269.95 -39.0 Q5279.2 -38.25 5279.9 -29.0 L5279.95 -28.0 5280.15 -27.1 Q5284.15 -18.8 5281.95 -9.0 L5281.2 -8.75 Q5276.9 -4.05 5266.95 -5.0 L5265.95 -5.0 Q5255.55 -5.1 5252.95 -13.0 5254.55 -16.05 5254.9 -20.0 L5254.95 -21.0 5255.0 -22.0 5254.95 -25.0 5255.75 -26.1 5255.95 -27.0 5255.95 -28.0 5255.95 -30.0 Q5257.05 -32.25 5257.8 -35.05 L5257.95 -36.0 Q5260.0 -36.5 5261.2 -37.75 L5261.95 -38.0 Q5264.8 -39.15 5268.95 -39.0 L5269.95 -39.0 M4600.95 -23.0 L4601.15 -22.1 Q4606.75 -9.6 4595.95 -6.0 L4595.05 -5.8 Q4594.45 -5.5 4593.95 -5.0 L4592.95 -5.0 4591.95 -5.0 4590.95 -5.0 4581.95 -5.0 4581.9 -5.5 Q4573.65 -6.2 4572.95 -14.0 4575.0 -19.55 4575.9 -26.0 L4575.95 -27.0 4575.95 -28.0 4575.95 -29.0 Q4577.2 -34.7 4581.15 -37.75 L4581.95 -38.0 Q4585.3 -39.3 4589.95 -39.05 L4590.95 -39.0 Q4595.3 -38.75 4597.25 -36.25 4597.45 -36.0 4597.95 -36.0 4598.55 -33.25 4599.75 -30.9 L4599.95 -30.0 4600.85 -24.0 4600.95 -23.0 M3924.95 -16.0 Q3923.95 -16.0 3923.85 -15.65 3923.0 -13.5 3921.75 -12.05 3911.8 -0.5 3894.95 -8.0 L3894.7 -8.7 Q3892.6 -10.25 3892.95 -14.0 3894.95 -20.5 3895.9 -28.0 L3895.95 -29.0 Q3897.35 -40.1 3910.95 -39.05 L3911.95 -39.0 Q3914.7 -37.75 3917.1 -36.2 L3917.95 -36.0 Q3919.9 -24.95 3924.75 -16.85 L3924.95 -16.0 M4065.95 -28.0 L4065.95 -29.0 Q4068.6 -42.2 4084.0 -38.1 L4084.95 -38.0 Q4092.4 -31.0 4092.45 -16.0 L4092.95 -16.0 4092.8 -15.05 Q4088.75 -0.4 4068.95 -6.0 L4068.8 -6.55 Q4065.9 -7.55 4063.95 -9.0 L4063.7 -9.85 Q4062.8 -11.3 4062.95 -14.0 4064.7 -20.2 4065.85 -27.0 L4065.95 -28.0 M4416.95 -5.0 L4415.95 -5.0 Q4404.7 -4.75 4402.95 -14.0 4405.1 -19.85 4405.9 -27.0 L4405.95 -28.0 Q4406.6 -38.3 4416.95 -38.95 L4417.95 -39.0 Q4428.55 -39.6 4429.9 -31.0 L4429.95 -30.0 Q4430.3 -25.3 4431.75 -21.9 L4431.95 -21.0 4432.05 -20.05 Q4433.6 -13.9 4431.95 -9.0 L4431.2 -8.75 Q4426.7 -4.25 4416.95 -5.0" fill="#fdfc8c" fill-opacity="0.99215686" fill-rule="evenodd" stroke="none"/>
    <path d="M5269.95 -44.0 L5269.95 -40.0 5269.95 -39.0 5268.95 -39.0 Q5264.8 -39.15 5261.95 -38.0 L5261.75 -38.9 5260.95 -40.0 Q5266.95 -40.95 5268.95 -45.0 L5269.35 -44.2 5269.95 -44.0" fill="#7b7758" fill-opacity="0.6666667" fill-rule="evenodd" stroke="none"/>
    <path d="M5250.95 -23.0 L5250.05 -23.2 5243.95 -26.0 5243.95 -27.0 Q5252.1 -29.8 5257.25 -35.75 L5257.95 -36.0 5257.8 -35.05 Q5257.05 -32.25 5255.95 -30.0 L5255.95 -28.0 5255.95 -27.0 5255.35 -26.8 Q5254.05 -24.25 5250.95 -24.0 L5250.95 -23.0" fill="#7c7758" fill-opacity="0.6745098" fill-rule="evenodd" stroke="none"/>
    <path d="M5254.95 -21.0 L5254.2 -21.25 Q5253.0 -22.5 5250.95 -23.0 L5250.95 -24.0 Q5254.05 -24.25 5255.35 -26.8 L5255.95 -27.0 5255.75 -26.1 5254.95 -25.0 5255.0 -22.0 5254.95 -21.0" fill="#a39a6d" fill-opacity="0.7882353" fill-rule="evenodd" stroke="none"/>
    <path d="M5267.95 -58.0 Q5268.85 -55.5 5268.95 -52.0 L5268.95 -51.0 5268.05 -50.8 Q5250.45 -43.0 5237.95 -30.0 L5237.95 -29.0 5237.0 -29.15 Q5234.3 -29.95 5232.95 -32.0 5241.75 -52.15 5266.75 -56.95 5266.95 -57.0 5267.35 -57.8 L5267.95 -58.0" fill="#33342d" fill-opacity="0.4" fill-rule="evenodd" stroke="none"/>
    <path d="M5284.95 -29.0 L5284.95 -30.0 5287.95 -30.0 5288.95 -30.0 5289.9 -29.85 Q5294.65 -28.25 5298.95 -26.0 L5299.15 -25.15 Q5302.5 -19.55 5303.95 -12.0 L5303.45 -11.95 Q5301.15 3.2 5289.95 9.0 L5289.0 9.1 Q5282.55 10.8 5275.95 9.0 5275.95 8.5 5275.75 8.4 5272.4 6.6 5269.95 4.0 5269.95 3.5 5269.75 3.4 5268.25 2.7 5268.95 0.0 5273.2 1.65 5278.0 2.9 L5278.95 3.0 Q5294.7 -1.75 5293.95 -18.0 L5293.95 -19.0 Q5291.4 -25.45 5285.8 -28.8 L5284.95 -29.0" fill="#272925" fill-opacity="0.3372549" fill-rule="evenodd" stroke="none"/>
    <path d="M5288.95 -30.0 L5288.95 -30.5 Q5302.25 -30.3 5306.95 -21.0 L5307.05 -20.0 Q5312.7 14.45 5277.95 13.0 5277.95 12.5 5277.75 12.4 5272.1 9.85 5269.95 4.0 5272.4 6.6 5275.75 8.4 5275.95 8.5 5275.95 9.0 5282.55 10.8 5289.0 9.1 L5289.95 9.0 Q5301.15 3.2 5303.45 -11.95 L5303.95 -12.0 Q5302.5 -19.55 5299.15 -25.15 L5298.95 -26.0 Q5294.65 -28.25 5289.9 -29.85 L5288.95 -30.0" fill="#151717" fill-opacity="0.22352941" fill-rule="evenodd" stroke="none"/>
    <path d="M5279.95 -28.0 L5283.95 -28.9 5284.95 -29.0 5285.8 -28.8 Q5291.4 -25.45 5293.95 -19.0 L5293.95 -18.0 Q5294.7 -1.75 5278.95 3.0 L5278.0 2.9 Q5273.2 1.65 5268.95 0.0 L5268.45 0.0 Q5268.3 -3.35 5266.95 -5.0 5276.9 -4.05 5281.2 -8.75 L5281.95 -9.0 Q5284.15 -18.8 5280.15 -27.1 L5279.95 -28.0" fill="#48483b" fill-opacity="0.4862745" fill-rule="evenodd" stroke="none"/>
    <path d="M4580.95 -53.0 L4580.45 -53.05 Q4579.95 -57.0 4579.95 -61.0 4589.95 -66.25 4602.95 -65.05 L4603.95 -65.0 Q4623.6 -58.7 4622.2 -38.1 4622.05 -35.9 4618.95 -35.0 L4618.7 -35.8 4605.95 -51.0 4604.95 -51.0 Q4602.35 -51.0 4597.95 -54.0 L4596.95 -53.95 Q4588.65 -53.1 4580.95 -54.0 L4580.95 -53.0 M4782.95 -40.0 L4782.75 -40.85 Q4775.05 -54.1 4753.95 -54.0 4753.95 -53.5 4753.75 -53.35 4746.7 -49.3 4741.95 -48.0 4741.45 -48.0 4741.4 -48.15 4740.3 -51.0 4739.95 -54.0 4749.1 -70.65 4771.85 -63.65 4780.05 -61.1 4784.95 -55.0 4788.5 -45.75 4783.65 -40.25 4783.45 -40.0 4782.95 -40.0 M4945.95 -45.0 L4945.7 -45.75 Q4936.15 -55.95 4917.95 -53.0 L4917.7 -52.35 Q4910.85 -47.6 4904.95 -42.0 L4904.95 -41.0 Q4904.45 -41.0 4904.3 -41.2 L4900.95 -47.0 Q4903.95 -61.95 4918.85 -65.45 L4918.95 -66.0 4932.95 -66.0 4933.95 -66.0 Q4950.1 -60.65 4946.5 -45.1 L4945.95 -45.0 M5068.95 -36.0 Q5068.45 -36.0 5068.15 -36.25 5065.35 -38.3 5062.95 -41.0 5065.95 -64.65 5095.95 -66.0 L5096.95 -66.0 5108.0 -58.65 Q5108.95 -58.0 5108.95 -56.0 5108.9 -54.05 5107.95 -53.0 L5106.95 -53.05 Q5080.3 -57.05 5068.95 -37.0 L5068.95 -36.0" fill="#1a1c1b" fill-opacity="0.25882354" fill-rule="evenodd" stroke="none"/>
    <path d="M4580.95 -53.0 L4580.95 -54.0 Q4588.65 -53.1 4596.95 -53.95 L4597.95 -54.0 Q4602.35 -51.0 4604.95 -51.0 L4605.95 -51.0 4618.7 -35.8 4618.95 -35.0 4618.7 -34.3 4614.95 -32.0 4614.7 -32.75 Q4602.35 -44.45 4581.95 -48.0 L4581.95 -46.0 4581.95 -45.0 4582.0 -42.0 4581.95 -41.0 4581.45 -41.05 Q4580.85 -47.0 4580.95 -53.0" fill="#35362e" fill-opacity="0.40392157" fill-rule="evenodd" stroke="none"/>
    <path d="M4575.95 -28.0 L4575.95 -27.0 4575.1 -26.8 Q4570.5 -24.05 4567.95 -19.0 4567.4 -13.4 4568.8 -9.95 L4568.95 -9.0 Q4574.85 1.5 4587.95 0.05 L4588.95 0.0 Q4592.5 -2.55 4592.1 -4.05 4591.95 -4.5 4591.95 -5.0 L4592.95 -5.0 4593.95 -5.0 4593.9 -4.0 Q4593.2 3.25 4583.95 7.0 L4582.95 7.0 Q4560.2 6.8 4560.95 -17.0 4564.3 -26.2 4574.95 -27.9 L4575.95 -28.0" fill="#34362e" fill-opacity="0.40392157" fill-rule="evenodd" stroke="none"/>
    <path d="M4595.95 -6.0 L4595.95 -5.0 Q4595.55 5.65 4589.95 11.0 L4589.1 11.25 Q4582.7 15.8 4570.95 15.0 L4570.8 14.45 Q4557.5 9.9 4552.95 -3.0 L4552.95 -4.0 4552.95 -15.0 Q4555.85 -25.05 4565.8 -28.45 L4565.95 -29.0 4574.95 -29.0 4575.95 -29.0 4575.95 -28.0 4574.95 -27.9 Q4564.3 -26.2 4560.95 -17.0 4560.2 6.8 4582.95 7.0 L4583.95 7.0 Q4593.2 3.25 4593.9 -4.0 L4593.95 -5.0 Q4594.45 -5.5 4595.05 -5.8 L4595.95 -6.0 M4744.95 -24.0 L4743.95 -23.9 Q4739.1 -22.85 4735.95 -15.0 4735.8 -11.5 4735.95 -8.0 L4735.95 -7.0 Q4740.0 7.5 4757.95 8.0 L4758.95 8.0 Q4771.8 3.95 4771.95 -8.0 L4771.95 -9.0 4771.95 -10.0 Q4773.65 -10.3 4773.05 -13.0 L4772.95 -14.0 4773.75 -13.75 Q4776.85 -11.4 4775.95 0.0 4773.9 4.55 4770.8 7.85 4767.65 11.25 4763.5 12.45 4737.7 19.9 4729.95 -2.0 L4729.95 -3.0 4729.95 -14.0 Q4735.5 -25.0 4744.95 -26.9 L4745.95 -27.0 Q4745.95 -26.5 4746.1 -26.05 4746.7 -23.9 4744.95 -24.0" fill="#1a1c1b" fill-opacity="0.25490198" fill-rule="evenodd" stroke="none"/>
    <path d="M4575.95 -27.0 L4575.9 -26.0 Q4575.0 -19.55 4572.95 -14.0 4573.65 -6.2 4581.9 -5.5 L4581.95 -5.0 4590.95 -5.0 4591.95 -5.0 Q4591.95 -4.5 4592.1 -4.05 4592.5 -2.55 4588.95 0.0 L4587.95 0.05 Q4574.85 1.5 4568.95 -9.0 L4568.8 -9.95 Q4567.4 -13.4 4567.95 -19.0 4570.5 -24.05 4575.1 -26.8 L4575.95 -27.0" fill="#504f3f" fill-opacity="0.50980395" fill-rule="evenodd" stroke="none"/>
    <path d="M4605.95 -26.0 L4605.25 -25.75 Q4603.6 -23.7 4600.95 -23.0 L4600.85 -24.0 4599.95 -30.0 4605.7 -26.65 4605.95 -26.0 M4060.95 -30.0 Q4063.85 -29.9 4065.25 -28.25 4065.45 -28.0 4065.95 -28.0 L4065.85 -27.0 Q4064.7 -20.2 4062.95 -14.0 L4062.9 -15.0 Q4062.2 -24.8 4058.95 -30.0 L4059.95 -30.0 4060.95 -30.0" fill="#968f66" fill-opacity="0.7490196" fill-rule="evenodd" stroke="none"/>
    <path d="M4610.95 -30.0 L4610.7 -29.35 Q4608.2 -27.75 4605.95 -26.0 L4605.7 -26.65 4599.95 -30.0 4599.75 -30.9 Q4598.55 -33.25 4597.95 -36.0 4603.05 -34.5 4610.1 -30.2 L4610.95 -30.0" fill="#736f53" fill-opacity="0.6431373" fill-rule="evenodd" stroke="none"/>
    <path d="M4614.95 -32.0 L4614.4 -31.85 Q4613.75 -29.8 4610.95 -30.0 L4610.1 -30.2 Q4603.05 -34.5 4597.95 -36.0 4597.45 -36.0 4597.25 -36.25 4595.3 -38.75 4590.95 -39.0 L4590.8 -39.55 Q4587.25 -40.8 4581.95 -45.0 L4581.95 -46.0 4581.95 -48.0 Q4602.35 -44.45 4614.7 -32.75 L4614.95 -32.0" fill="#525241" fill-opacity="0.5294118" fill-rule="evenodd" stroke="none"/>
    <path d="M4581.95 -38.0 L4581.95 -39.0 4581.95 -41.0 4582.0 -42.0 4581.95 -45.0 Q4587.25 -40.8 4590.8 -39.55 L4590.95 -39.0 4589.95 -39.05 Q4585.3 -39.3 4581.95 -38.0" fill="#716d52" fill-opacity="0.6313726" fill-rule="evenodd" stroke="none"/>
    <path d="M4741.95 -48.0 Q4746.7 -49.3 4753.75 -53.35 4753.95 -53.5 4753.95 -54.0 4775.05 -54.1 4782.75 -40.85 L4782.95 -40.0 4782.7 -39.25 4779.95 -37.0 4779.05 -37.2 Q4760.5 -45.8 4743.95 -43.0 L4743.4 -43.1 4741.95 -48.0 M4904.95 -41.0 L4904.95 -42.0 Q4910.85 -47.6 4917.7 -52.35 L4917.95 -53.0 Q4936.15 -55.95 4945.7 -45.75 L4945.95 -45.0 4945.7 -44.15 4943.95 -42.0 4942.95 -42.1 Q4924.45 -45.3 4908.95 -37.0 4908.45 -37.0 4908.2 -37.25 4906.3 -39.0 4904.95 -41.0" fill="#373830" fill-opacity="0.41568628" fill-rule="evenodd" stroke="none"/>
    <path d="M4771.95 -9.0 L4771.95 -8.0 Q4771.8 3.95 4758.95 8.0 L4757.95 8.0 Q4740.0 7.5 4735.95 -7.0 L4735.95 -8.0 Q4735.8 -11.5 4735.95 -15.0 4739.1 -22.85 4743.95 -23.9 L4744.95 -24.0 4744.95 -23.0 4744.95 -22.0 4744.15 -21.75 Q4740.6 -18.8 4739.95 -13.0 4741.8 -1.9 4752.85 0.5 L4752.95 1.0 Q4765.25 1.8 4768.75 -6.1 L4768.95 -7.0 Q4770.65 -7.3 4771.35 -8.8 4771.45 -9.0 4771.95 -9.0" fill="#34352e" fill-opacity="0.39607844" fill-rule="evenodd" stroke="none"/>
    <path d="M4770.95 -27.0 L4770.7 -27.8 Q4768.95 -30.0 4768.95 -34.0 4772.7 -31.95 4775.95 -32.5 L4775.95 -32.0 4775.7 -31.25 Q4773.6 -29.0 4770.95 -27.0" fill="#7d7858" fill-opacity="0.6666667" fill-rule="evenodd" stroke="none"/>
    <path d="M4744.95 -24.0 Q4746.7 -23.9 4746.1 -26.05 4745.95 -26.5 4745.95 -27.0 L4745.95 -28.0 4745.95 -29.0 Q4747.65 -29.3 4747.05 -32.0 L4746.95 -33.0 Q4748.05 -34.5 4748.75 -36.1 L4748.95 -37.0 Q4760.6 -41.75 4768.7 -34.7 L4768.95 -34.0 Q4768.95 -30.0 4770.7 -27.8 L4770.95 -27.0 Q4770.9 -19.95 4772.8 -14.95 L4772.95 -14.0 4773.05 -13.0 Q4773.65 -10.3 4771.95 -10.0 L4771.95 -9.0 Q4771.45 -9.0 4771.35 -8.8 4770.65 -7.3 4768.95 -7.0 L4768.05 -6.8 Q4761.9 -4.05 4751.95 -5.0 L4751.9 -5.5 Q4744.25 -6.3 4742.95 -13.0 4744.4 -16.6 4744.9 -21.0 L4744.95 -22.0 4744.95 -23.0 4744.95 -24.0 M4939.95 -31.0 Q4939.2 -27.3 4940.7 -25.75 L4940.95 -25.0 4940.95 -24.0 Q4943.45 -16.5 4942.05 -10.0 L4941.95 -9.0 4941.2 -8.75 Q4938.7 -6.3 4934.95 -5.0 L4933.95 -4.95 Q4924.05 -4.1 4917.95 -7.0 4917.45 -7.0 4917.1 -7.25 4914.7 -8.75 4912.95 -11.0 L4912.95 -12.0 4912.95 -13.0 Q4914.65 -14.3 4914.05 -18.0 L4913.95 -19.0 Q4915.7 -22.3 4915.95 -27.0 L4915.95 -28.0 4915.95 -29.0 4915.95 -30.0 4916.75 -31.1 4916.95 -32.0 4916.95 -33.0 4916.95 -34.0 Q4930.8 -45.7 4939.3 -31.2 4939.45 -31.0 4939.95 -31.0" fill="#fdfd8e" fill-opacity="0.99607843" fill-rule="evenodd" stroke="none"/>
    <path d="M4743.95 -43.0 Q4760.5 -45.8 4779.05 -37.2 L4779.95 -37.0 4779.7 -36.3 Q4777.5 -34.45 4775.95 -32.0 L4775.95 -32.5 Q4772.7 -31.95 4768.95 -34.0 L4768.7 -34.7 Q4760.6 -41.75 4748.95 -37.0 L4748.35 -37.2 Q4747.65 -38.7 4745.95 -39.0 L4745.95 -38.0 4745.4 -38.1 4743.95 -43.0" fill="#575644" fill-opacity="0.5411765" fill-rule="evenodd" stroke="none"/>
    <path d="M4748.95 -37.0 L4748.75 -36.1 Q4748.05 -34.5 4746.95 -33.0 L4746.85 -34.0 4745.95 -38.0 4745.95 -39.0 Q4747.65 -38.7 4748.35 -37.2 L4748.95 -37.0" fill="#797455" fill-opacity="0.6509804" fill-rule="evenodd" stroke="none"/>
    <path d="M4768.95 -7.0 L4768.75 -6.1 Q4765.25 1.8 4752.95 1.0 L4752.85 0.5 Q4741.8 -1.9 4739.95 -13.0 4740.6 -18.8 4744.15 -21.75 L4744.95 -22.0 4744.9 -21.0 Q4744.4 -16.6 4742.95 -13.0 4744.25 -6.3 4751.9 -5.5 L4751.95 -5.0 Q4761.9 -4.05 4768.05 -6.8 L4768.95 -7.0" fill="#4f4e3e" fill-opacity="0.5058824" fill-rule="evenodd" stroke="none"/>
    <path d="M4908.95 -37.0 Q4924.45 -45.3 4942.95 -42.1 L4943.95 -42.0 4943.8 -41.05 Q4942.45 -37.05 4939.95 -34.0 L4939.95 -32.0 4939.95 -31.0 Q4939.45 -31.0 4939.3 -31.2 4930.8 -45.7 4916.95 -34.0 L4916.95 -33.0 4916.95 -32.0 4915.95 -32.0 4912.95 -32.0 Q4912.45 -32.0 4912.15 -32.25 4909.85 -33.9 4908.95 -37.0" fill="#5c5a46" fill-opacity="0.5568628" fill-rule="evenodd" stroke="none"/>
    <path d="M4916.95 -32.0 L4916.75 -31.1 4915.95 -30.0 4915.95 -29.0 4915.95 -28.0 4915.25 -28.25 Q4913.95 -30.0 4912.95 -32.0 L4915.95 -32.0 4916.95 -32.0" fill="#89835f" fill-opacity="0.7058824" fill-rule="evenodd" stroke="none"/>
    <path d="M4913.95 -19.0 L4914.05 -18.0 Q4914.65 -14.3 4912.95 -13.0 L4912.95 -12.0 4912.95 -11.0 4912.7 -10.25 4911.95 -10.0 Q4912.35 -0.95 4917.7 3.3 L4917.95 4.0 Q4921.45 6.05 4925.8 7.45 L4925.95 8.0 4933.95 8.0 4934.95 8.0 Q4946.85 3.4 4949.85 -10.0 L4949.95 -11.0 Q4948.1 -19.65 4941.8 -23.75 L4940.95 -24.0 4940.95 -25.0 Q4941.45 -25.0 4941.55 -25.2 L4941.95 -26.0 Q4954.8 -21.3 4954.95 -3.0 L4954.4 -2.85 Q4950.8 8.45 4941.95 14.0 L4941.0 14.15 Q4930.7 17.6 4919.95 14.0 L4919.75 13.4 Q4907.6 7.85 4907.95 -10.0 4909.4 -15.55 4913.15 -18.75 L4913.95 -19.0" fill="#1a1d1b" fill-opacity="0.25490198" fill-rule="evenodd" stroke="none"/>
    <path d="M4912.95 -11.0 Q4914.7 -8.75 4917.1 -7.25 4917.45 -7.0 4917.95 -7.0 L4917.7 -6.25 Q4917.45 -6.0 4916.95 -6.0 4922.9 0.45 4931.95 -0.5 L4931.95 0.0 Q4940.6 -2.85 4941.85 -8.05 L4941.95 -9.0 4942.05 -10.0 Q4943.45 -16.5 4940.95 -24.0 L4941.8 -23.75 Q4948.1 -19.65 4949.95 -11.0 L4949.85 -10.0 Q4946.85 3.4 4934.95 8.0 L4933.95 8.0 4925.95 8.0 4925.8 7.45 Q4921.45 6.05 4917.95 4.0 L4917.7 3.3 Q4912.35 -0.95 4911.95 -10.0 L4912.7 -10.25 4912.95 -11.0" fill="#383930" fill-opacity="0.4117647" fill-rule="evenodd" stroke="none"/>
    <path d="M4917.95 -7.0 Q4924.05 -4.1 4933.95 -4.95 L4934.95 -5.0 Q4938.7 -6.3 4941.2 -8.75 L4941.95 -9.0 4941.85 -8.05 Q4940.6 -2.85 4931.95 0.0 L4931.95 -0.5 Q4922.9 0.45 4916.95 -6.0 4917.45 -6.0 4917.7 -6.25 L4917.95 -7.0" fill="#525141" fill-opacity="0.52156866" fill-rule="evenodd" stroke="none"/>
    <path d="M5105.95 -42.0 L5105.95 -38.0 5105.95 -37.0 Q5105.45 -37.0 5105.1 -37.25 L5102.95 -39.0 5102.95 -39.5 Q5101.0 -39.4 5100.95 -41.0 5104.8 -40.5 5105.95 -42.5 L5105.95 -42.0" fill="#797556" fill-opacity="0.65882355" fill-rule="evenodd" stroke="none"/>
    <path d="M5106.95 -47.0 L5107.05 -46.0 Q5107.75 -42.8 5105.95 -42.0 L5105.95 -42.5 Q5104.8 -40.5 5100.95 -41.0 5101.0 -39.4 5102.95 -39.5 L5102.95 -39.0 5101.95 -39.05 Q5091.0 -39.95 5086.95 -34.0 L5086.95 -33.0 5085.95 -32.9 Q5083.4 -32.45 5077.95 -30.0 L5077.95 -29.0 Q5077.45 -29.0 5077.25 -29.25 5075.4 -31.45 5072.95 -33.0 L5072.95 -34.0 Q5080.8 -38.75 5092.75 -44.4 5092.95 -44.5 5092.95 -45.0 5100.6 -44.7 5106.95 -47.5 L5106.95 -47.0" fill="#565443" fill-opacity="0.5372549" fill-rule="evenodd" stroke="none"/>
    <path d="M5105.95 -37.0 Q5109.4 -34.9 5109.9 -30.0 L5109.95 -29.0 5109.95 -28.0 Q5109.95 -27.5 5110.1 -27.05 5113.5 -18.15 5111.95 -9.0 L5111.15 -8.75 Q5103.0 -2.55 5089.95 -6.0 L5089.05 -6.2 Q5088.45 -6.5 5087.95 -7.0 L5087.05 -7.2 Q5083.75 -8.7 5082.95 -13.0 5084.95 -16.9 5084.95 -23.0 L5084.95 -24.0 5084.95 -25.0 Q5086.55 -28.05 5086.9 -32.0 L5086.95 -33.0 5086.95 -34.0 Q5091.0 -39.95 5101.95 -39.05 L5102.95 -39.0 5105.1 -37.25 Q5105.45 -37.0 5105.95 -37.0 M4235.95 -28.0 Q4236.75 -40.15 4250.95 -39.05 L4251.95 -39.0 Q4260.35 -36.4 4260.9 -26.0 L4260.95 -25.0 Q4261.75 -22.8 4261.9 -20.0 L4261.95 -19.0 4262.0 -18.0 Q4264.35 -2.0 4242.95 -5.0 L4242.95 -5.5 Q4233.7 -5.75 4232.95 -14.0 4234.75 -14.8 4234.05 -18.0 L4233.95 -19.0 Q4235.4 -22.65 4235.9 -27.0 L4235.95 -28.0" fill="#fdfd8d" fill-opacity="0.99607843" fill-rule="evenodd" stroke="none"/>
    <path d="M5084.95 -24.0 Q5084.45 -24.0 5084.2 -24.25 5081.4 -26.9 5077.95 -29.0 L5077.95 -30.0 Q5083.4 -32.45 5085.95 -32.9 L5086.95 -33.0 5086.9 -32.0 Q5086.55 -28.05 5084.95 -25.0 L5084.95 -24.0" fill="#807c5b" fill-opacity="0.68235296" fill-rule="evenodd" stroke="none"/>
    <path d="M5107.95 -53.0 L5108.05 -52.0 Q5108.65 -48.3 5106.95 -47.0 L5106.95 -47.5 Q5100.6 -44.7 5092.95 -45.0 5092.95 -44.5 5092.75 -44.4 5080.8 -38.75 5072.95 -34.0 L5072.95 -33.0 5072.05 -33.2 Q5070.15 -34.2 5068.95 -36.0 L5068.95 -37.0 Q5080.3 -57.05 5106.95 -53.05 L5107.95 -53.0" fill="#35372f" fill-opacity="0.40784314" fill-rule="evenodd" stroke="none"/>
    <path d="M5109.95 -29.0 L5110.95 -29.0 Q5128.2 -28.3 5131.95 -14.0 L5131.95 -13.0 5131.95 -3.0 5131.4 -2.85 Q5127.25 10.85 5113.95 15.0 L5112.95 15.0 Q5092.6 15.8 5087.95 1.0 L5087.95 0.0 Q5087.8 -3.5 5087.95 -7.0 5088.45 -6.5 5089.05 -6.2 L5089.95 -6.0 Q5091.35 2.6 5098.8 5.45 L5098.95 6.0 5107.95 6.0 5108.95 6.0 Q5117.25 3.3 5121.35 -3.8 5121.45 -4.0 5121.95 -4.0 5124.0 -10.7 5123.05 -16.0 L5122.95 -17.0 Q5120.0 -25.55 5110.9 -27.9 L5109.95 -28.0 5109.95 -29.0" fill="#1c1e1c" fill-opacity="0.26666668" fill-rule="evenodd" stroke="none"/>
    <path d="M5089.95 -6.0 Q5103.0 -2.55 5111.15 -8.75 L5111.95 -9.0 Q5113.5 -18.15 5110.1 -27.05 5109.95 -27.5 5109.95 -28.0 L5110.9 -27.9 Q5120.0 -25.55 5122.95 -17.0 L5123.05 -16.0 Q5124.0 -10.7 5121.95 -4.0 5121.45 -4.0 5121.35 -3.8 5117.25 3.3 5108.95 6.0 L5107.95 6.0 5098.95 6.0 5098.8 5.45 Q5091.35 2.6 5089.95 -6.0" fill="#424237" fill-opacity="0.45490196" fill-rule="evenodd" stroke="none"/>
    <path d="M3945.95 -16.0 L3944.95 -16.0 3941.95 -16.0 3941.8 -16.95 Q3937.35 -31.9 3928.95 -48.0 L3928.95 -49.0 Q3930.65 -49.3 3931.35 -50.8 3931.45 -51.0 3931.95 -51.0 L3948.55 -17.0 3947.05 -16.65 Q3946.45 -16.5 3945.95 -16.0" fill="#4e4e3f" fill-opacity="0.52156866" fill-rule="evenodd" stroke="none"/>
    <path d="M3962.95 -17.0 L3961.95 -16.95 3945.95 -16.0 Q3946.45 -16.5 3947.05 -16.65 L3948.55 -17.0 3931.95 -51.0 3931.95 -52.0 3940.7 -60.25 3940.95 -61.0 Q3951.3 -38.85 3962.75 -17.9 L3962.95 -17.0" fill="#2b2d28" fill-opacity="0.35686275" fill-rule="evenodd" stroke="none"/>
    <path d="M3940.95 -61.0 L3940.95 -62.0 Q3946.1 -67.0 3949.85 -57.35 L3958.5 -35.4 3963.05 -23.65 3965.1 -17.55 Q3964.95 -17.0 3962.95 -17.0 L3962.75 -17.9 Q3951.3 -38.85 3940.95 -61.0" fill="#141616" fill-opacity="0.21568628" fill-rule="evenodd" stroke="none"/>
    <path d="M3941.95 -16.0 L3940.95 -16.0 3936.95 -16.0 3936.75 -16.85 Q3928.75 -29.7 3923.95 -42.0 L3923.95 -43.0 Q3926.55 -45.0 3928.7 -47.25 L3928.95 -48.0 Q3937.35 -31.9 3941.8 -16.95 L3941.95 -16.0" fill="#6b684f" fill-opacity="0.627451" fill-rule="evenodd" stroke="none"/>
    <path d="M3936.95 -16.0 L3935.95 -16.0 3924.95 -16.0 3924.75 -16.85 Q3919.9 -24.95 3917.95 -36.0 L3917.95 -37.0 Q3921.15 -38.85 3923.25 -41.75 L3923.95 -42.0 Q3928.75 -29.7 3936.75 -16.85 L3936.95 -16.0" fill="#918b64" fill-opacity="0.74509805" fill-rule="evenodd" stroke="none"/>
    <path d="M3894.95 -8.0 L3894.25 -7.75 Q3892.85 -6.1 3889.95 -6.0 L3889.45 -6.0 Q3892.15 -17.95 3887.95 -32.0 L3888.95 -32.0 Q3892.9 -31.35 3895.2 -29.25 3895.45 -29.0 3895.95 -29.0 L3895.9 -28.0 Q3894.95 -20.5 3892.95 -14.0 3892.6 -10.25 3894.7 -8.7 L3894.95 -8.0" fill="#989167" fill-opacity="0.7607843" fill-rule="evenodd" stroke="none"/>
    <path d="M3889.95 -6.0 Q3889.95 -5.5 3889.75 -5.4 3886.0 -3.5 3881.95 -2.0 L3882.05 -2.95 Q3885.8 -17.15 3880.95 -35.0 L3881.95 -35.0 Q3885.2 -33.65 3888.8 -32.55 L3888.95 -32.0 3887.95 -32.0 Q3892.15 -17.95 3889.45 -6.0 L3889.95 -6.0" fill="#736f53" fill-opacity="0.654902" fill-rule="evenodd" stroke="none"/>
    <path d="M4044.95 -36.0 L4047.8 -35.55 4047.95 -35.0 Q4050.0 -28.1 4050.85 -15.1 4051.45 -6.0 4053.95 3.0 L4053.7 3.85 Q4052.5 5.55 4049.95 6.0 L4049.35 5.8 Q4041.0 -10.95 4040.95 -24.0 4043.15 -29.4 4044.45 -35.9 L4044.95 -36.0" fill="#32332d" fill-opacity="0.39607844" fill-rule="evenodd" stroke="none"/>
    <path d="M3881.95 -2.0 L3881.8 -1.45 Q3878.9 -0.45 3876.95 1.0 L3876.45 1.0 3876.45 0.05 Q3875.5 -18.05 3874.95 -38.0 3878.2 -36.65 3881.8 -35.55 L3881.95 -35.0 3880.95 -35.0 Q3885.8 -17.15 3882.05 -2.95 L3881.95 -2.0 M4090.95 -46.0 L4090.95 -47.0 4097.7 -55.2 4097.95 -56.0 Q4108.9 -39.4 4119.65 -22.45 4119.95 -22.0 4120.75 -21.6 4120.95 -21.5 4120.95 -21.0 L4119.95 -20.9 4106.95 -19.0 4106.7 -19.85 Q4098.0 -32.0 4090.95 -46.0" fill="#515040" fill-opacity="0.5294118" fill-rule="evenodd" stroke="none"/>
    <path d="M4097.95 -56.0 L4097.95 -57.0 4103.7 -64.2 4103.95 -65.0 Q4108.35 -61.4 4112.2 -57.25 4112.45 -57.0 4112.95 -57.0 L4113.7 -56.75 4113.95 -56.0 Q4115.45 -52.0 4118.2 -49.25 4118.45 -49.0 4118.95 -49.0 L4131.35 -24.2 Q4131.45 -24.0 4131.95 -24.0 L4132.45 -24.0 Q4130.45 -21.5 4120.95 -21.0 4120.95 -21.5 4120.75 -21.6 4119.95 -22.0 4119.65 -22.45 4108.9 -39.4 4097.95 -56.0" fill="#212321" fill-opacity="0.3019608" fill-rule="evenodd" stroke="none"/>
    <path d="M4103.95 -65.0 L4103.95 -66.0 Q4109.0 -65.65 4112.75 -57.9 L4112.95 -57.0 Q4112.45 -57.0 4112.2 -57.25 4108.35 -61.4 4103.95 -65.0" fill="#101313" fill-opacity="0.19607843" fill-rule="evenodd" stroke="none"/>
    <path d="M4113.95 -56.0 Q4117.2 -53.7 4118.75 -49.95 L4118.95 -49.0 Q4118.45 -49.0 4118.2 -49.25 4115.45 -52.0 4113.95 -56.0" fill="#111314" fill-opacity="0.19607843" fill-rule="evenodd" stroke="none"/>
    <path d="M4053.95 3.0 Q4051.45 -6.0 4050.85 -15.1 4050.0 -28.1 4047.95 -35.0 4050.15 -34.2 4052.85 -33.55 L4052.95 -33.0 Q4057.55 -16.35 4059.45 -1.05 L4059.95 -1.0 4059.7 -0.35 Q4057.05 1.5 4053.95 3.0" fill="#4e4d3e" fill-opacity="0.5176471" fill-rule="evenodd" stroke="none"/>
    <path d="M4052.95 -33.0 Q4056.7 -31.7 4060.8 -30.55 L4060.95 -30.0 4059.95 -30.0 4058.95 -30.0 Q4062.2 -24.8 4062.9 -15.0 L4062.95 -14.0 Q4062.8 -11.3 4063.7 -9.85 L4063.95 -9.0 4064.05 -8.0 Q4064.65 -5.3 4062.95 -5.0 4062.95 -4.5 4063.2 -4.25 4063.45 -4.0 4063.95 -4.0 L4063.8 -3.45 Q4061.4 -2.55 4059.95 -1.0 L4059.45 -1.05 Q4057.55 -16.35 4052.95 -33.0" fill="#706d52" fill-opacity="0.6392157" fill-rule="evenodd" stroke="none"/>
    <path d="M4068.95 -6.0 L4068.0 -5.85 4063.95 -4.0 Q4063.45 -4.0 4063.2 -4.25 4062.95 -4.5 4062.95 -5.0 4064.65 -5.3 4064.05 -8.0 L4063.95 -9.0 Q4065.9 -7.55 4068.8 -6.55 L4068.95 -6.0" fill="#88825e" fill-opacity="0.7019608" fill-rule="evenodd" stroke="none"/>
    <path d="M4084.95 -38.0 Q4088.1 -41.3 4090.7 -45.15 L4090.95 -46.0 Q4098.0 -32.0 4106.7 -19.85 L4106.95 -19.0 4105.95 -18.95 4092.95 -17.0 4092.95 -16.0 4092.45 -16.0 Q4092.4 -31.0 4084.95 -38.0" fill="#8a8460" fill-opacity="0.72156864" fill-rule="evenodd" stroke="none"/>
    <path d="M4118.95 -49.0 Q4127.55 -39.05 4131.8 -24.95 L4131.95 -24.0 Q4131.45 -24.0 4131.35 -24.2 L4118.95 -49.0" fill="#101213" fill-opacity="0.19607843" fill-rule="evenodd" stroke="none"/>
    <path d="M4230.95 7.0 L4230.7 7.65 Q4228.3 9.35 4226.95 12.0 L4225.95 11.95 Q4201.3 9.2 4201.95 -19.0 4203.8 -22.7 4204.85 -27.05 L4204.95 -28.0 Q4210.35 -34.75 4218.9 -33.5 L4218.95 -33.0 4218.9 -32.0 Q4218.6 -27.8 4213.95 -23.0 4214.25 -19.45 4213.95 -12.0 L4213.95 -11.0 4217.75 -2.9 4217.95 -2.0 Q4224.25 2.2 4230.15 6.75 L4230.95 7.0 M4397.95 -30.0 L4397.05 -29.8 Q4389.1 -25.8 4385.95 -17.0 L4387.85 -6.0 4387.95 -5.0 Q4392.3 1.6 4399.75 5.4 4399.95 5.5 4399.95 6.0 4408.1 6.55 4413.05 4.2 L4413.95 4.0 4413.75 4.9 Q4408.8 14.45 4392.95 13.0 4392.95 12.5 4392.75 12.45 4378.5 6.45 4375.95 -11.0 4376.85 -31.1 4397.95 -30.5 L4397.95 -30.0" fill="#191b1b" fill-opacity="0.25490198" fill-rule="evenodd" stroke="none"/>
    <path d="M4261.95 -62.0 L4261.95 -63.0 Q4265.9 -68.75 4274.45 -62.7 4292.75 -49.75 4295.0 -27.95 L4293.95 -27.0 4293.75 -27.9 Q4283.85 -50.95 4261.95 -62.0" fill="#141617" fill-opacity="0.22352941" fill-rule="evenodd" stroke="none"/>
    <path d="M4256.95 -50.0 L4256.95 -51.0 4256.95 -52.0 4258.7 -54.15 4258.95 -55.0 Q4274.45 -43.45 4284.7 -26.45 4284.95 -26.0 4285.75 -25.6 4285.95 -25.5 4285.95 -25.0 L4285.05 -24.8 Q4282.5 -23.45 4278.95 -23.0 L4278.7 -23.75 Q4266.1 -35.15 4256.95 -50.0" fill="#4b4a3c" fill-opacity="0.5058824" fill-rule="evenodd" stroke="none"/>
    <path d="M4258.95 -55.0 L4258.95 -56.0 4258.95 -57.0 4261.7 -61.15 4261.95 -62.0 Q4283.85 -50.95 4293.75 -27.9 L4293.95 -27.0 4293.05 -26.8 Q4290.25 -25.35 4285.95 -25.0 4285.95 -25.5 4285.75 -25.6 4284.95 -26.0 4284.7 -26.45 4274.45 -43.45 4258.95 -55.0" fill="#282a26" fill-opacity="0.34117648" fill-rule="evenodd" stroke="none"/>
    <path d="M4251.95 -39.0 L4251.95 -40.0 4256.75 -49.1 4256.95 -50.0 Q4266.1 -35.15 4278.7 -23.75 L4278.95 -23.0 4278.0 -22.85 Q4272.95 -20.95 4266.95 -20.0 L4266.75 -20.9 Q4263.4 -26.85 4260.95 -25.0 L4260.9 -26.0 Q4260.35 -36.4 4251.95 -39.0" fill="#787456" fill-opacity="0.6627451" fill-rule="evenodd" stroke="none"/>
    <path d="M4233.95 -28.0 L4234.95 -28.0 4235.95 -28.0 4235.9 -27.0 Q4235.4 -22.65 4233.95 -19.0 L4233.8 -19.95 Q4232.8 -23.2 4232.95 -28.0 L4233.95 -28.0" fill="#928a63" fill-opacity="0.7294118" fill-rule="evenodd" stroke="none"/>
    <path d="M4227.95 -30.0 L4233.8 -28.55 4233.95 -28.0 4232.95 -28.0 Q4232.8 -23.2 4233.8 -19.95 L4233.95 -19.0 4234.05 -18.0 Q4234.75 -14.8 4232.95 -14.0 4233.7 -5.75 4242.95 -5.5 L4242.95 -5.0 4242.15 -4.75 4235.95 1.0 4235.4 0.9 Q4231.45 -16.1 4226.95 -30.0 L4227.95 -30.0" fill="#6e6a50" fill-opacity="0.62352943" fill-rule="evenodd" stroke="none"/>
    <path d="M4218.95 -33.0 Q4222.7 -32.75 4225.8 -31.55 L4225.95 -31.0 Q4225.45 -31.0 4225.35 -30.8 4223.95 -28.0 4222.95 -25.0 L4223.9 -14.0 4223.95 -13.0 Q4228.85 -4.95 4233.35 3.8 4233.45 4.0 4233.95 4.0 L4233.7 4.75 4230.95 7.0 4230.15 6.75 Q4224.25 2.2 4217.95 -2.0 L4217.75 -2.9 4213.95 -11.0 4213.95 -12.0 Q4214.25 -19.45 4213.95 -23.0 4218.6 -27.8 4218.9 -32.0 L4218.95 -33.0 M4400.95 -29.0 Q4400.45 -29.0 4400.4 -28.8 4398.1 -23.45 4394.95 -19.0 4395.75 -15.9 4395.95 -11.0 L4395.95 -10.0 Q4402.8 -0.2 4413.95 0.95 L4414.95 1.0 4414.75 1.9 4413.95 3.0 4413.95 4.0 4413.05 4.2 Q4408.1 6.55 4399.95 6.0 4399.95 5.5 4399.75 5.4 4392.3 1.6 4387.95 -5.0 L4387.85 -6.0 4385.95 -17.0 Q4389.1 -25.8 4397.05 -29.8 L4397.95 -30.0 4400.8 -29.55 4400.95 -29.0" fill="#33342d" fill-opacity="0.39607844" fill-rule="evenodd" stroke="none"/>
    <path d="M4225.95 -31.0 L4227.75 -30.6 4227.95 -30.0 4226.95 -30.0 Q4231.45 -16.1 4235.4 0.9 L4235.95 1.0 4235.7 1.8 Q4235.1 2.5 4233.95 3.0 L4233.95 4.0 Q4233.45 4.0 4233.35 3.8 4228.85 -4.95 4223.95 -13.0 L4223.9 -14.0 4222.95 -25.0 Q4223.95 -28.0 4225.35 -30.8 4225.45 -31.0 4225.95 -31.0" fill="#4d4d3e" fill-opacity="0.50980395" fill-rule="evenodd" stroke="none"/>
    <path d="M4266.95 -20.0 L4266.3 -19.75 Q4265.25 -18.3 4261.95 -19.0 L4261.9 -20.0 Q4261.75 -22.8 4260.95 -25.0 4263.4 -26.85 4266.75 -20.9 L4266.95 -20.0" fill="#a0986b" fill-opacity="0.78039217" fill-rule="evenodd" stroke="none"/>
    <path d="M4421.95 -62.0 Q4429.0 -59.55 4433.95 -59.95 L4434.95 -60.0 Q4444.65 -55.7 4451.25 -48.25 4451.45 -48.0 4451.95 -48.0 4454.35 -39.4 4458.7 -32.85 L4458.95 -32.0 4458.05 -31.8 Q4452.85 -29.1 4446.95 -27.0 L4446.7 -27.8 Q4434.75 -43.3 4418.95 -50.0 L4418.95 -51.0 4418.95 -52.0 Q4420.2 -56.65 4421.8 -61.05 L4421.95 -62.0" fill="#2c2e28" fill-opacity="0.36078432" fill-rule="evenodd" stroke="none"/>
    <path d="M4458.95 -32.0 L4458.7 -32.85 Q4454.35 -39.4 4451.95 -48.0 4451.45 -48.0 4451.25 -48.25 4444.65 -55.7 4434.95 -60.0 L4433.95 -59.95 Q4429.0 -59.55 4421.95 -62.0 L4421.95 -63.0 4421.95 -65.0 Q4455.25 -65.6 4461.15 -34.85 4461.65 -32.3 4458.95 -32.0" fill="#131516" fill-opacity="0.21568628" fill-rule="evenodd" stroke="none"/>
    <path d="M4405.95 -28.0 L4405.9 -27.0 Q4405.1 -19.85 4402.95 -14.0 4404.7 -4.75 4415.95 -5.0 L4416.95 -5.0 4416.85 -4.05 Q4416.3 -1.65 4414.95 0.0 L4414.95 1.0 4413.95 0.95 Q4402.8 -0.2 4395.95 -10.0 L4395.95 -11.0 Q4395.75 -15.9 4394.95 -19.0 4398.1 -23.45 4400.4 -28.8 4400.45 -29.0 4400.95 -29.0 4403.75 -29.2 4405.1 -28.25 4405.45 -28.0 4405.95 -28.0" fill="#515040" fill-opacity="0.5176471" fill-rule="evenodd" stroke="none"/>
    <path d="M4418.95 -50.0 Q4434.75 -43.3 4446.7 -27.8 L4446.95 -27.0 4446.05 -26.8 Q4442.25 -24.65 4437.95 -23.0 L4437.7 -23.8 Q4434.4 -27.5 4429.95 -30.0 L4429.9 -31.0 Q4428.55 -39.6 4417.95 -39.0 L4417.95 -40.0 4417.95 -45.0 Q4419.75 -45.8 4419.05 -49.0 L4418.95 -50.0" fill="#64624b" fill-opacity="0.59607846" fill-rule="evenodd" stroke="none"/>
    <path d="M4431.95 -21.0 L4431.75 -21.9 Q4430.3 -25.3 4429.95 -30.0 4434.4 -27.5 4437.7 -23.8 L4437.95 -23.0 4437.1 -22.75 Q4435.0 -21.3 4431.95 -21.0" fill="#989067" fill-opacity="0.7529412" fill-rule="evenodd" stroke="none"/>
    <path d="M3869.95 4.0 L3868.9 5.15 3868.9 -16.2 Q3869.85 -6.85 3869.95 3.0 L3869.95 4.0 M3868.9 -29.4 L3868.9 -40.7 3869.95 -40.0 3869.9 -39.0 Q3869.6 -34.0 3868.9 -29.4" fill="#191b1a" fill-opacity="0.25490198" fill-rule="evenodd" stroke="none"/>
    <path d="M3876.95 1.0 L3876.75 1.6 Q3873.55 3.0 3869.95 4.0 L3869.95 3.0 Q3869.85 -6.85 3868.9 -16.2 L3868.9 -29.4 Q3869.6 -34.0 3869.9 -39.0 L3869.95 -40.0 Q3872.75 -39.8 3874.75 -38.65 L3874.95 -38.0 Q3875.5 -18.05 3876.45 0.05 L3876.45 1.0 3876.95 1.0" fill="#32332c" fill-opacity="0.39607844" fill-rule="evenodd" stroke="none"/>
    <path d="M79.1 -3.65 Q79.45 -3.4 79.95 -3.4 83.0 6.1 84.05 17.2 86.0 18.7 86.5 21.8 L87.0 21.9 Q90.95 23.95 93.75 27.1 L94.0 27.9 104.0 29.8 105.0 29.9 Q115.8 35.25 112.15 45.95 112.0 46.4 112.0 46.9 L112.0 58.9 112.0 59.9 112.0 60.9 112.0 61.9 Q112.45 70.35 106.0 71.9 112.9 80.0 124.85 83.35 L125.0 83.9 Q126.75 86.15 126.5 90.9 L127.0 90.9 127.0 95.9 127.0 96.9 127.0 101.9 127.0 102.9 126.0 102.9 126.0 106.9 126.0 107.9 125.95 108.4 Q115.75 109.65 108.0 107.9 L108.05 106.9 Q108.4 104.0 105.0 104.9 L105.0 105.9 105.0 106.9 105.0 107.9 105.0 108.9 Q107.4 111.0 108.8 114.0 L109.0 114.9 109.0 116.9 109.0 117.9 Q109.5 117.9 109.8 118.15 114.05 121.5 106.0 121.9 L105.85 122.45 103.0 122.9 102.8 123.55 Q100.5 124.9 97.0 124.9 L96.9 125.4 92.0 125.9 91.85 126.45 Q88.4 127.8 84.0 127.9 L83.8 127.3 Q75.55 123.45 78.0 118.9 L78.0 118.4 64.0 118.9 Q64.0 119.4 64.2 119.5 L65.0 119.9 Q61.7 124.1 57.0 127.9 L57.0 128.9 56.0 128.9 55.0 128.9 54.95 128.4 Q52.3 128.1 51.0 126.9 L50.15 126.65 Q48.7 125.7 46.0 125.9 L45.05 125.75 35.0 122.9 34.05 122.75 Q31.25 121.65 29.0 119.9 30.7 119.6 31.4 118.1 L32.0 117.9 32.0 116.9 32.0 114.9 Q34.45 112.35 35.85 108.85 L36.0 107.9 36.05 106.9 Q36.4 104.0 33.0 104.9 L33.0 106.9 33.0 107.9 Q31.25 109.6 27.2 110.2 14.25 112.15 14.0 102.9 L13.0 102.9 13.0 101.9 13.0 93.9 14.0 93.9 14.0 92.9 14.0 89.9 14.0 88.9 14.0 85.9 Q15.45 82.85 19.0 82.0 L20.0 81.9 20.0 80.9 Q23.35 80.25 26.1 79.1 L27.0 78.9 27.0 77.9 28.0 77.9 27.9 76.9 26.0 65.9 27.0 65.9 27.0 64.9 Q31.05 62.95 34.2 60.15 34.5 59.9 35.0 59.9 L35.0 58.9 Q37.55 58.45 37.5 54.9 L38.0 54.9 38.0 53.9 38.0 52.9 Q39.7 52.6 39.5 49.9 L40.0 49.9 40.0 48.9 40.0 36.9 41.0 36.9 41.0 35.9 41.0 34.9 41.0 33.9 Q42.75 30.7 45.25 28.15 45.5 27.9 46.0 27.9 L46.0 26.9 Q47.7 26.6 48.4 25.1 48.5 24.9 49.0 24.9 49.5 24.4 50.1 24.1 L51.0 23.9 51.0 22.9 55.0 19.5 Q57.9 8.5 60.45 -3.3 L60.95 -3.4 Q69.95 -9.45 79.1 -3.65" fill="#ff0000" fill-opacity="0.9882353" fill-rule="evenodd" stroke="none"/>
  </g>
</svg>
