<?xml version="1.0" encoding="UTF-8" standalone="no"?>
<svg xmlns:xlink="http://www.w3.org/1999/xlink" height="18.75px" width="18.75px" xmlns="http://www.w3.org/2000/svg">
  <g transform="matrix(1.0, 0.0, 0.0, 1.0, 1.2, 0.95)">
    <path d="M16.55 16.8 L-0.2 16.8 -0.2 0.05 16.55 0.05 16.55 16.8" fill="#990000" fill-rule="evenodd" stroke="none"/>
    <path d="M16.55 16.8 L-0.2 16.8 -0.2 0.05 16.55 0.05 16.55 16.8 Z" fill="none" stroke="#000000" stroke-linecap="round" stroke-linejoin="round" stroke-width="2.0"/>
    <path d="M13.6 4.95 L10.15 8.4 13.65 11.9 11.7 13.85 8.2 10.35 4.75 13.8 2.85 11.9 6.3 8.45 2.85 5.0 4.8 3.05 8.25 6.5 11.7 3.05 13.6 4.95" fill="#ffffff" fill-rule="evenodd" stroke="none"/>
    <path d="M13.6 4.95 L10.15 8.4 13.65 11.9 11.7 13.85 8.2 10.35 4.75 13.8 2.85 11.9 6.3 8.45 2.85 5.0 4.8 3.05 8.25 6.5 11.7 3.05 13.6 4.95 Z" fill="none" stroke="#000000" stroke-linecap="round" stroke-linejoin="round" stroke-width="1.0"/>
  </g>
</svg>
