<?xml version="1.0" encoding="UTF-8" standalone="no"?>
<svg xmlns:xlink="http://www.w3.org/1999/xlink" height="291.0px" width="672.0px" xmlns="http://www.w3.org/2000/svg">
  <g transform="matrix(1.0, 0.0, 0.0, 1.0, 355.5, 125.5)">
    <path d="M-355.0 -122.85 Q-355.0 -125.0 -351.8 -125.0 L-38.2 -125.0 Q-35.0 -125.0 -35.0 -122.85 L-35.0 162.85 Q-35.0 165.0 -38.2 165.0 L-351.8 165.0 Q-355.0 165.0 -355.0 162.85 L-355.0 -122.85 M312.65 -125.0 Q316.0 -125.0 316.0 -122.8 L316.0 162.85 Q316.0 165.0 312.65 165.0 L-0.65 165.0 Q-4.0 165.0 -4.0 162.85 L-4.0 -122.8 Q-4.0 -125.0 -0.65 -125.0 L312.65 -125.0 M315.5 -103.0 L-3.2 -103.0 315.5 -103.0 M-35.8 -103.0 L-354.5 -103.0 -35.8 -103.0" fill="#ffffff" fill-rule="evenodd" stroke="none"/>
    <path d="M312.65 -125.0 L-0.65 -125.0 Q-4.0 -125.0 -4.0 -122.8 L-4.0 162.85 Q-4.0 165.0 -0.65 165.0 L312.65 165.0 Q316.0 165.0 316.0 162.85 L316.0 -122.8 Q316.0 -125.0 312.65 -125.0 M-355.0 -122.85 L-355.0 162.85 Q-355.0 165.0 -351.8 165.0 L-38.2 165.0 Q-35.0 165.0 -35.0 162.85 L-35.0 -122.85 Q-35.0 -125.0 -38.2 -125.0 L-351.8 -125.0 Q-355.0 -125.0 -355.0 -122.85" fill="none" stroke="#666666" stroke-linecap="round" stroke-linejoin="round" stroke-width="1.0"/>
    <path d="M-354.5 -103.0 L-35.8 -103.0 M-3.2 -103.0 L315.5 -103.0" fill="none" stroke="#000000" stroke-linecap="round" stroke-linejoin="round" stroke-width="2.0"/>
  </g>
</svg>
