<?xml version="1.0" encoding="UTF-8" standalone="no"?>
<svg xmlns:xlink="http://www.w3.org/1999/xlink" height="101.0px" width="201.0px" xmlns="http://www.w3.org/2000/svg">
  <g transform="matrix(1.0, 0.0, 0.0, 1.0, 0.5, 0.5)">
    <path d="M0.0 94.0 L0.0 88.05 0.0 11.95 0.0 6.0 Q0.0 0.0 6.0 0.0 L11.95 0.0 188.05 0.0 194.0 0.0 Q200.0 0.0 200.0 6.0 L200.0 11.95 200.0 88.05 200.0 94.0 Q200.0 100.0 194.0 100.0 L188.05 100.0 11.95 100.0 6.0 100.0 Q0.0 100.0 0.0 94.0" fill="#ffff99" fill-rule="evenodd" stroke="none"/>
    <path d="M0.0 94.0 Q0.0 100.0 6.0 100.0 L11.95 100.0 188.05 100.0 194.0 100.0 Q200.0 100.0 200.0 94.0 L200.0 88.05 200.0 11.95 200.0 6.0 Q200.0 0.0 194.0 0.0 L188.05 0.0 11.95 0.0 6.0 0.0 Q0.0 0.0 0.0 6.0 L0.0 11.95 0.0 88.05 0.0 94.0 Z" fill="none" stroke="#333333" stroke-linecap="round" stroke-linejoin="round" stroke-width="1.0"/>
  </g>
</svg>
