<?xml version="1.0" encoding="UTF-8" standalone="no"?>
<svg xmlns:xlink="http://www.w3.org/1999/xlink" height="103.0px" width="141.0px" xmlns="http://www.w3.org/2000/svg">
  <g transform="matrix(1.0, 0.0, 0.0, 1.0, 0.5, 0.5)">
    <path d="M135.75 0.0 Q140.0 0.0 140.0 4.25 L140.0 97.75 Q140.0 102.0 135.75 102.0 L4.3 102.0 Q0.0 102.0 0.0 97.75 L0.0 4.25 Q0.0 0.0 4.3 0.0 L135.75 0.0" fill="#333333" fill-rule="evenodd" stroke="none"/>
    <path d="M135.75 0.0 L4.3 0.0 Q0.0 0.0 0.0 4.25 L0.0 97.75 Q0.0 102.0 4.3 102.0 L135.75 102.0 Q140.0 102.0 140.0 97.75 L140.0 4.25 Q140.0 0.0 135.75 0.0 Z" fill="none" stroke="#000000" stroke-linecap="round" stroke-linejoin="round" stroke-width="1.0"/>
  </g>
</svg>
