<?xml version="1.0" encoding="UTF-8" standalone="no"?>
<svg xmlns:xlink="http://www.w3.org/1999/xlink" height="41.0px" width="132.65px" xmlns="http://www.w3.org/2000/svg">
  <g transform="matrix(1.0, 0.0, 0.0, 1.0, -14.7, 0.5)">
    <path d="M143.55 0.0 Q146.85 0.0 146.85 4.0 L146.85 36.0 Q146.85 40.0 143.55 40.0 L18.45 40.0 Q15.2 40.0 15.2 36.0 L15.2 4.0 Q15.2 0.0 18.45 0.0 L143.55 0.0" fill="#ffffff" fill-rule="evenodd" stroke="none"/>
    <path d="M143.55 0.0 L18.45 0.0 Q15.2 0.0 15.2 4.0 L15.2 36.0 Q15.2 40.0 18.45 40.0 L143.55 40.0 Q146.85 40.0 146.85 36.0 L146.85 4.0 Q146.85 0.0 143.55 0.0 Z" fill="none" stroke="#000000" stroke-linecap="round" stroke-linejoin="round" stroke-width="1.0"/>
  </g>
</svg>
