<?xml version="1.0" encoding="UTF-8" standalone="no"?>
<svg xmlns:xlink="http://www.w3.org/1999/xlink" height="16.0px" width="58.0px" xmlns="http://www.w3.org/2000/svg">
  <g transform="matrix(1.0, 0.0, 0.0, 1.0, 0.5, 0.5)">
    <path d="M54.9 0.0 Q57.0 0.0 57.0 2.05 L57.0 12.95 Q57.0 15.0 54.9 15.0 L2.1 15.0 Q0.0 15.0 0.0 12.95 L0.0 2.05 Q0.0 0.0 2.1 0.0 L54.9 0.0" fill="url(#gradient0)" fill-rule="evenodd" stroke="none"/>
    <path d="M54.9 0.0 L2.1 0.0 Q0.0 0.0 0.0 2.05 L0.0 12.95 Q0.0 15.0 2.1 15.0 L54.9 15.0 Q57.0 15.0 57.0 12.95 L57.0 2.05 Q57.0 0.0 54.9 0.0 Z" fill="none" stroke="#666666" stroke-linecap="round" stroke-linejoin="round" stroke-width="1.0"/>
  </g>
  <defs>
    <linearGradient gradientTransform="matrix(0.0348, 0.0, 0.0, 0.0092, 28.5, 7.45)" gradientUnits="userSpaceOnUse" id="gradient0" spreadMethod="pad" x1="-819.2" x2="819.2">
      <stop offset="0.0" stop-color="#d9d9d9"/>
      <stop offset="1.0" stop-color="#f7f7f7"/>
    </linearGradient>
  </defs>
</svg>
