<?xml version="1.0" encoding="UTF-8" standalone="no"?>
<svg xmlns:xlink="http://www.w3.org/1999/xlink" height="41.0px" width="566.0px" xmlns="http://www.w3.org/2000/svg">
  <g transform="matrix(1.0, 0.0, 0.0, 1.0, 328.5, -84.5)">
    <path d="M235.0 85.0 Q237.0 85.0 237.0 87.0 L237.0 123.0 Q237.0 125.0 235.0 125.0 L-326.0 125.0 Q-328.0 125.0 -328.0 123.0 L-328.0 87.0 Q-328.0 85.0 -326.0 85.0 L235.0 85.0" fill="url(#gradient0)" fill-rule="evenodd" stroke="none"/>
    <path d="M235.0 85.0 L-326.0 85.0 Q-328.0 85.0 -328.0 87.0 L-328.0 123.0 Q-328.0 125.0 -326.0 125.0 L235.0 125.0 Q237.0 125.0 237.0 123.0 L237.0 87.0 Q237.0 85.0 235.0 85.0 Z" fill="none" stroke="#333333" stroke-linecap="round" stroke-linejoin="round" stroke-width="1.0"/>
  </g>
  <defs>
    <linearGradient gradientTransform="matrix(0.3265, 0.0, 0.0, 0.0244, -60.5, 105.0)" gradientUnits="userSpaceOnUse" id="gradient0" spreadMethod="pad" x1="-819.2" x2="819.2">
      <stop offset="0.4549019607843137" stop-color="#ffff99"/>
      <stop offset="0.5411764705882353" stop-color="#ffffa8"/>
    </linearGradient>
  </defs>
</svg>
