<?xml version="1.0" encoding="UTF-8" standalone="no"?>
<svg xmlns:xlink="http://www.w3.org/1999/xlink" height="231.0px" width="169.0px" xmlns="http://www.w3.org/2000/svg">
  <g transform="matrix(1.0, 0.0, 0.0, 1.0, 141.5, 115.5)">
    <path d="M24.0 -115.0 Q27.0 -115.0 27.0 -112.0 L27.0 112.0 Q27.0 115.0 24.0 115.0 L-138.0 115.0 Q-141.0 115.0 -141.0 112.0 L-141.0 -46.0 -141.0 -112.0 Q-141.0 -115.0 -138.0 -115.0 L24.0 -115.0" fill="#ffffff" fill-rule="evenodd" stroke="none"/>
    <path d="M24.0 -115.0 L-138.0 -115.0 Q-141.0 -115.0 -141.0 -112.0 L-141.0 -46.0 -141.0 112.0 Q-141.0 115.0 -138.0 115.0 L24.0 115.0 Q27.0 115.0 27.0 112.0 L27.0 -112.0 Q27.0 -115.0 24.0 -115.0 Z" fill="none" stroke="#333333" stroke-linecap="round" stroke-linejoin="round" stroke-width="1.0"/>
  </g>
</svg>
