<?xml version="1.0" encoding="UTF-8" standalone="no"?>
<svg xmlns:xlink="http://www.w3.org/1999/xlink" height="61.0px" width="131.0px" xmlns="http://www.w3.org/2000/svg">
  <g transform="matrix(1.0, 0.0, 0.0, 1.0, 0.0, 30.25)">
    <path d="M0.5 26.25 L0.5 22.3 0.5 12.95 0.5 -25.75 Q0.5 -29.75 4.5 -29.75 L19.7 -29.75 114.05 -29.75 116.5 -29.75 Q120.5 -29.75 120.5 -25.75 L120.5 -9.75 130.5 0.25 120.5 10.25 120.5 12.95 120.5 22.3 120.5 26.25 Q120.5 30.25 116.5 30.25 L114.05 30.25 19.7 30.25 4.5 30.25 Q0.5 30.25 0.5 26.25" fill="#fbfbfb" fill-rule="evenodd" stroke="none"/>
    <path d="M0.5 26.25 Q0.5 30.25 4.5 30.25 L19.7 30.25 114.05 30.25 116.5 30.25 Q120.5 30.25 120.5 26.25 L120.5 22.3 120.5 12.95 120.5 10.25 130.5 0.25 120.5 -9.75 120.5 -25.75 Q120.5 -29.75 116.5 -29.75 L114.05 -29.75 19.7 -29.75 4.5 -29.75 Q0.5 -29.75 0.5 -25.75 L0.5 12.95 0.5 22.3 0.5 26.25 Z" fill="none" stroke="#333333" stroke-linecap="round" stroke-linejoin="round" stroke-width="1.0"/>
  </g>
</svg>
