<?xml version="1.0" encoding="UTF-8" standalone="no"?>
<svg xmlns:xlink="http://www.w3.org/1999/xlink" height="99.0px" width="275.0px" xmlns="http://www.w3.org/2000/svg">
  <g transform="matrix(1.0, 0.0, 0.0, 1.0, 140.0, 65.0)">
    <path d="M131.0 -65.0 Q135.0 -65.0 135.0 -61.0 L135.0 30.0 Q135.0 34.0 131.0 34.0 L-136.0 34.0 Q-140.0 34.0 -140.0 30.0 L-140.0 -61.0 Q-140.0 -65.0 -136.0 -65.0 L131.0 -65.0" fill="#ffffff" fill-opacity="0.9019608" fill-rule="evenodd" stroke="none"/>
    <path d="M131.0 -65.0 L-136.0 -65.0 Q-140.0 -65.0 -140.0 -61.0 L-140.0 30.0 Q-140.0 34.0 -136.0 34.0 L131.0 34.0 Q135.0 34.0 135.0 30.0 L135.0 -61.0 Q135.0 -65.0 131.0 -65.0 Z" fill="none" stroke="#000000" stroke-linecap="round" stroke-linejoin="round" stroke-opacity="0.49803922" stroke-width="0.05"/>
  </g>
</svg>
