<?xml version="1.0" encoding="UTF-8" standalone="no"?>
<svg xmlns:xlink="http://www.w3.org/1999/xlink" height="12.95px" width="12.95px" xmlns="http://www.w3.org/2000/svg">
  <g transform="matrix(1.0, 0.0, 0.0, 1.0, 0.95, 0.95)">
    <path d="M1.1 9.95 Q-0.7 8.1 -0.7 5.5 -0.7 2.9 1.1 1.1 2.9 -0.7 5.5 -0.7 8.1 -0.7 9.95 1.1 11.75 2.9 11.75 5.5 11.75 8.1 9.95 9.95 8.1 11.75 5.5 11.75 2.9 11.75 1.1 9.95" fill="url(#gradient0)" fill-rule="evenodd" stroke="none"/>
    <path d="M1.1 9.95 Q-0.7 8.1 -0.7 5.5 -0.7 2.9 1.1 1.1 2.9 -0.7 5.5 -0.7 8.1 -0.7 9.95 1.1 11.75 2.9 11.75 5.5 11.75 8.1 9.95 9.95 8.1 11.75 5.5 11.75 2.9 11.75 1.1 9.95 Z" fill="none" stroke="#333333" stroke-linecap="round" stroke-linejoin="round" stroke-width="0.5"/>
    <path d="M1.6 1.6 Q3.2 0.0 5.5 0.0 7.8 0.0 9.4 1.6 11.0 3.2 11.0 5.5 11.0 7.8 9.4 9.4 7.8 11.0 5.5 11.0 3.2 11.0 1.6 9.4 0.0 7.8 0.0 5.5 0.0 3.2 1.6 1.6" fill="url(#gradient1)" fill-rule="evenodd" stroke="none"/>
    <path d="M1.6 1.6 Q3.2 0.0 5.5 0.0 7.8 0.0 9.4 1.6 11.0 3.2 11.0 5.5 11.0 7.8 9.4 9.4 7.8 11.0 5.5 11.0 3.2 11.0 1.6 9.4 0.0 7.8 0.0 5.5 0.0 3.2 1.6 1.6 Z" fill="none" stroke="url(#gradient2)" stroke-linecap="round" stroke-linejoin="round" stroke-width="0.5"/>
  </g>
  <defs>
    <radialGradient cx="0" cy="0" fx="108.80000000000001" fy="0" gradientTransform="matrix(0.0108, 0.0, 0.0, 0.0108, 6.55, 7.85)" gradientUnits="userSpaceOnUse" id="gradient0" r="819.2" spreadMethod="pad">
      <stop offset="0.0" stop-color="#413f3f"/>
      <stop offset="1.0" stop-color="#e7e7e7"/>
    </radialGradient>
    <radialGradient cx="0" cy="0" fx="-25.6" fy="0" gradientTransform="matrix(0.0036, 0.0036, -0.003, 0.003, 5.1, 5.1)" gradientUnits="userSpaceOnUse" id="gradient1" r="819.2" spreadMethod="pad">
      <stop offset="0.0" stop-color="#666666" stop-opacity="0.8"/>
      <stop offset="1.0" stop-color="#333333" stop-opacity="0.8"/>
    </radialGradient>
    <radialGradient cx="0" cy="0" fx="108.80000000000001" fy="0" gradientTransform="matrix(0.0, -0.0115, 0.0077, 0.0, 2.6, 0.9)" gradientUnits="userSpaceOnUse" id="gradient2" r="819.2" spreadMethod="pad">
      <stop offset="0.0" stop-color="#cbcbcb"/>
      <stop offset="1.0" stop-color="#626262"/>
    </radialGradient>
  </defs>
</svg>
