<?xml version="1.0" encoding="UTF-8" standalone="no"?>
<svg xmlns:xlink="http://www.w3.org/1999/xlink" height="61.0px" width="298.9px" xmlns="http://www.w3.org/2000/svg">
  <g transform="matrix(1.0, 0.0, 0.0, 1.0, 125.45, 70.5)">
    <path d="M147.45 -69.85 L147.8 -70.0 148.15 -69.85 148.3 -69.5 148.15 -69.15 Q148.0 -69.0 147.8 -69.0 147.6 -69.0 147.45 -69.15 147.3 -69.3 147.3 -69.5 L147.45 -69.85 M148.15 -65.85 L148.3 -65.5 148.15 -65.15 Q148.0 -65.0 147.8 -65.0 147.6 -65.0 147.45 -65.15 147.3 -65.3 147.3 -65.5 L147.45 -65.85 147.8 -66.0 148.15 -65.85 M147.45 -61.85 L147.8 -62.0 148.15 -61.85 148.3 -61.5 148.15 -61.15 Q148.0 -61.0 147.8 -61.0 147.6 -61.0 147.45 -61.15 147.3 -61.3 147.3 -61.5 L147.45 -61.85 M148.15 -57.85 L148.3 -57.5 148.15 -57.15 Q148.0 -57.0 147.8 -57.0 147.6 -57.0 147.45 -57.15 147.3 -57.3 147.3 -57.5 L147.45 -57.85 147.8 -58.0 148.15 -57.85 M147.45 -53.85 L147.8 -54.0 148.15 -53.85 148.3 -53.5 148.15 -53.15 Q148.0 -53.0 147.8 -53.0 147.6 -53.0 147.45 -53.15 147.3 -53.3 147.3 -53.5 L147.45 -53.85 M147.8 -50.0 L148.15 -49.85 148.3 -49.5 148.15 -49.15 Q148.0 -49.0 147.8 -49.0 147.6 -49.0 147.45 -49.15 147.3 -49.3 147.3 -49.5 L147.45 -49.85 147.8 -50.0 M148.15 -45.85 L148.3 -45.5 148.15 -45.15 Q148.0 -45.0 147.8 -45.0 147.6 -45.0 147.45 -45.15 147.3 -45.3 147.3 -45.5 L147.45 -45.85 147.8 -46.0 148.15 -45.85 M147.45 -41.85 L147.8 -42.0 148.15 -41.85 148.3 -41.5 148.15 -41.15 Q148.0 -41.0 147.8 -41.0 147.6 -41.0 147.45 -41.15 147.3 -41.3 147.3 -41.5 L147.45 -41.85 M147.45 -37.85 L147.8 -38.0 148.15 -37.85 148.3 -37.5 148.15 -37.15 Q148.0 -37.0 147.8 -37.0 147.6 -37.0 147.45 -37.15 147.3 -37.3 147.3 -37.5 L147.45 -37.85 M147.45 -33.85 L147.8 -34.0 148.15 -33.85 148.3 -33.5 148.15 -33.15 Q148.0 -33.0 147.8 -33.0 147.6 -33.0 147.45 -33.15 147.3 -33.3 147.3 -33.5 L147.45 -33.85 M147.45 -29.85 L147.8 -30.0 148.15 -29.85 148.3 -29.5 148.15 -29.15 Q148.0 -29.0 147.8 -29.0 147.6 -29.0 147.45 -29.15 147.3 -29.3 147.3 -29.5 L147.45 -29.85 M148.15 -25.85 L148.3 -25.5 148.15 -25.15 Q148.0 -25.0 147.8 -25.0 147.6 -25.0 147.45 -25.15 147.3 -25.3 147.3 -25.5 L147.45 -25.85 147.8 -26.0 148.15 -25.85 M148.15 -21.85 L148.3 -21.5 148.15 -21.15 Q148.0 -21.0 147.8 -21.0 147.6 -21.0 147.45 -21.15 147.3 -21.3 147.3 -21.5 L147.45 -21.85 147.8 -22.0 148.15 -21.85" fill="#999999" fill-rule="evenodd" stroke="none"/>
    <path d="M172.95 -10.0 L-124.95 -10.0 -124.95 -70.0 172.95 -70.0 172.95 -10.0" fill="#ffffff" fill-rule="evenodd" stroke="none"/>
    <path d="M172.95 -10.0 L-124.95 -10.0 -124.95 -70.0 172.95 -70.0 172.95 -10.0 Z" fill="none" stroke="#876b01" stroke-linecap="round" stroke-linejoin="round" stroke-opacity="0.49803922" stroke-width="1.0"/>
  </g>
</svg>
