<?xml version="1.0" encoding="UTF-8" standalone="no"?>
<svg xmlns:xlink="http://www.w3.org/1999/xlink" height="369.3px" width="191.0px" xmlns="http://www.w3.org/2000/svg">
  <g transform="matrix(1.0, 0.0, 0.0, 1.0, 0.5, 0.5)">
    <path d="M182.0 0.0 Q190.0 0.0 190.0 8.0 L190.0 360.3 Q190.0 368.3 182.0 368.3 L8.0 368.3 Q0.0 368.3 0.0 360.3 L0.0 302.75 0.0 88.8 0.0 8.0 Q0.0 0.0 8.0 0.0 L182.0 0.0" fill="#ffffff" fill-opacity="0.29803923" fill-rule="evenodd" stroke="none"/>
    <path d="M182.0 0.0 L8.0 0.0 Q0.0 0.0 0.0 8.0 L0.0 88.8 0.0 302.75 0.0 360.3 Q0.0 368.3 8.0 368.3 L182.0 368.3 Q190.0 368.3 190.0 360.3 L190.0 8.0 Q190.0 0.0 182.0 0.0 Z" fill="none" stroke="#c2b778" stroke-linecap="round" stroke-linejoin="round" stroke-width="1.0"/>
  </g>
</svg>
