<?xml version="1.0" encoding="UTF-8" standalone="no"?>
<svg xmlns:xlink="http://www.w3.org/1999/xlink" height="41.0px" width="66.0px" xmlns="http://www.w3.org/2000/svg">
  <g transform="matrix(1.0, 0.0, 0.0, 1.0, 0.5, 40.5)">
    <path d="M65.0 -35.05 L65.0 -9.95 65.0 -9.0 Q65.0 -5.0 61.0 -5.0 L60.05 -5.0 15.95 -5.0 15.0 -5.0 10.0 0.0 5.0 -5.0 4.0 -5.0 Q0.0 -5.0 0.0 -9.0 L0.0 -9.95 0.0 -35.05 0.0 -36.0 Q0.0 -40.0 4.0 -40.0 L15.95 -40.0 60.05 -40.0 61.0 -40.0 Q65.0 -40.0 65.0 -36.0 L65.0 -35.05" fill="#ffffff" fill-rule="evenodd" stroke="none"/>
    <path d="M65.0 -35.05 L65.0 -36.0 Q65.0 -40.0 61.0 -40.0 L60.05 -40.0 15.95 -40.0 4.0 -40.0 Q0.0 -40.0 0.0 -36.0 L0.0 -35.05 0.0 -9.95 0.0 -9.0 Q0.0 -5.0 4.0 -5.0 L5.0 -5.0 10.0 0.0 15.0 -5.0 15.95 -5.0 60.05 -5.0 61.0 -5.0 Q65.0 -5.0 65.0 -9.0 L65.0 -9.95 65.0 -35.05 Z" fill="none" stroke="#666666" stroke-linecap="round" stroke-linejoin="round" stroke-width="1.0"/>
  </g>
</svg>
