<?xml version="1.0" encoding="UTF-8" standalone="no"?>
<svg xmlns:xlink="http://www.w3.org/1999/xlink" height="51.0px" width="51.0px" xmlns="http://www.w3.org/2000/svg">
  <g transform="matrix(1.0, 0.0, 0.0, 1.0, 0.45, 0.5)">
    <path d="M42.7 42.65 Q35.4 50.0 25.05 50.0 14.65 50.0 7.35 42.65 0.05 35.35 0.05 25.0 0.05 14.6 7.35 7.25 14.65 0.0 25.05 0.0 35.4 0.0 42.7 7.25 50.05 14.6 50.05 25.0 50.05 35.35 42.7 42.65" fill="#ff0000" fill-rule="evenodd" stroke="none"/>
    <path d="M42.7 42.65 Q35.4 50.0 25.05 50.0 14.65 50.0 7.35 42.65 0.05 35.35 0.05 25.0 0.05 14.6 7.35 7.25 14.65 0.0 25.05 0.0 35.4 0.0 42.7 7.25 50.05 14.6 50.05 25.0 50.05 35.35 42.7 42.65 Z" fill="none" stroke="#000000" stroke-linecap="round" stroke-linejoin="round" stroke-opacity="0.4" stroke-width="1.0"/>
  </g>
</svg>
