<?xml version="1.0" encoding="UTF-8" standalone="no"?>
<svg xmlns:xlink="http://www.w3.org/1999/xlink" height="16.0px" width="16.0px" xmlns="http://www.w3.org/2000/svg">
  <g transform="matrix(1.0, 0.0, 0.0, 1.0, 0.5, 0.5)">
    <path d="M12.8 12.8 Q10.6 15.0 7.5 15.0 4.4 15.0 2.2 12.8 0.0 10.6 0.0 7.5 0.0 4.4 2.2 2.2 4.4 0.0 7.5 0.0 10.6 0.0 12.8 2.2 15.0 4.4 15.0 7.5 15.0 10.6 12.8 12.8" fill="#9966ff" fill-rule="evenodd" stroke="none"/>
    <path d="M12.8 12.8 Q10.6 15.0 7.5 15.0 4.4 15.0 2.2 12.8 0.0 10.6 0.0 7.5 0.0 4.4 2.2 2.2 4.4 0.0 7.5 0.0 10.6 0.0 12.8 2.2 15.0 4.4 15.0 7.5 15.0 10.6 12.8 12.8 Z" fill="none" stroke="#333333" stroke-linecap="round" stroke-linejoin="round" stroke-width="1.0"/>
  </g>
</svg>
