<?xml version="1.0" encoding="UTF-8" standalone="no"?>
<svg xmlns:xlink="http://www.w3.org/1999/xlink" height="51.0px" width="634.65px" xmlns="http://www.w3.org/2000/svg">
  <g transform="matrix(1.0, 0.0, 0.0, 1.0, 0.5, 0.5)">
    <path d="M50.0 0.0 L50.5 0.0 50.75 0.0 60.9 0.0 61.55 0.0 65.5 0.0 633.65 0.0 633.65 50.0 65.5 50.0 61.55 50.0 60.9 50.0 50.75 50.0 50.5 50.0 50.0 50.0 50.0 0.0" fill="#009900" fill-opacity="0.08627451" fill-rule="evenodd" stroke="none"/>
    <path d="M50.0 0.0 L50.5 0.0 50.75 0.0 60.9 0.0 61.55 0.0 65.5 0.0 633.65 0.0 633.65 50.0 65.5 50.0 61.55 50.0 60.9 50.0 50.75 50.0 50.5 50.0 50.0 50.0 45.7 50.0 0.0 50.0 0.0 0.0 45.7 0.0 50.0 0.0 50.0 50.0" fill="none" stroke="#cccccc" stroke-linecap="round" stroke-linejoin="round" stroke-width="1.0"/>
  </g>
</svg>
