<?xml version="1.0" encoding="UTF-8" standalone="no"?>
<svg xmlns:xlink="http://www.w3.org/1999/xlink" height="51.0px" width="634.65px" xmlns="http://www.w3.org/2000/svg">
  <g transform="matrix(1.0, 0.0, 0.0, 1.0, 0.5, 0.5)">
    <path d="M50.0 0.0 L50.5 0.0 50.75 0.0 60.9 0.0 61.55 0.0 65.5 0.0 633.65 0.0 633.65 50.0 65.5 50.0 61.55 50.0 60.9 50.0 50.75 50.0 50.5 50.0 50.0 50.0 50.0 0.0" fill="#ffff33" fill-opacity="0.08627451" fill-rule="evenodd" stroke="none"/>
    <path d="M50.0 0.0 L50.5 0.0 50.75 0.0 60.9 0.0 61.55 0.0 65.5 0.0 633.65 0.0 633.65 50.0 65.5 50.0 61.55 50.0 60.9 50.0 50.75 50.0 50.5 50.0 50.0 50.0 45.7 50.0 0.0 50.0 0.0 0.0 45.7 0.0 50.0 0.0 50.0 50.0" fill="none" stroke="#cccccc" stroke-linecap="round" stroke-linejoin="round" stroke-width="1.0"/>
    <path d="M632.9 2.6 L632.9 23.25 618.1 50.0 606.65 50.0 632.9 2.6" fill="url(#gradient0)" fill-rule="evenodd" stroke="none"/>
    <path d="M610.9 1.0 L622.35 1.0 595.25 50.0 583.8 50.0 610.9 1.0" fill="url(#gradient1)" fill-rule="evenodd" stroke="none"/>
    <path d="M588.05 1.0 L599.5 1.0 572.35 50.0 560.9 50.0 588.05 1.0" fill="url(#gradient2)" fill-rule="evenodd" stroke="none"/>
    <path d="M632.9 50.0 L629.5 50.0 632.9 43.85 632.9 50.0" fill="url(#gradient3)" fill-rule="evenodd" stroke="none"/>
    <path d="M542.3 1.0 L553.75 1.0 526.6 50.0 515.15 50.0 542.3 1.0" fill="url(#gradient4)" fill-rule="evenodd" stroke="none"/>
    <path d="M496.6 1.0 L508.05 1.0 480.9 50.0 469.45 50.0 496.6 1.0" fill="url(#gradient5)" fill-rule="evenodd" stroke="none"/>
    <path d="M503.75 50.0 L492.35 50.0 519.45 1.0 530.9 1.0 503.75 50.0" fill="url(#gradient6)" fill-rule="evenodd" stroke="none"/>
    <path d="M549.5 50.0 L538.05 50.0 565.2 1.0 576.6 1.0 549.5 50.0" fill="url(#gradient7)" fill-rule="evenodd" stroke="none"/>
    <path d="M450.9 1.0 L462.35 1.0 435.2 50.0 423.75 50.0 450.9 1.0" fill="url(#gradient8)" fill-rule="evenodd" stroke="none"/>
    <path d="M473.7 1.0 L485.15 1.0 458.05 50.0 446.6 50.0 473.7 1.0" fill="url(#gradient9)" fill-rule="evenodd" stroke="none"/>
    <path d="M405.2 1.0 L416.6 1.0 389.5 50.0 378.05 50.0 405.2 1.0" fill="url(#gradient10)" fill-rule="evenodd" stroke="none"/>
    <path d="M428.05 1.0 L439.45 1.0 412.35 50.0 400.9 50.0 428.05 1.0" fill="url(#gradient11)" fill-rule="evenodd" stroke="none"/>
    <path d="M382.3 1.0 L393.75 1.0 366.6 50.0 355.15 50.0 382.3 1.0" fill="url(#gradient12)" fill-rule="evenodd" stroke="none"/>
    <path d="M336.55 1.0 L348.0 1.0 320.85 50.0 309.45 50.0 336.55 1.0" fill="url(#gradient13)" fill-rule="evenodd" stroke="none"/>
    <path d="M343.75 50.0 L332.3 50.0 359.45 1.0 370.9 1.0 343.75 50.0" fill="url(#gradient14)" fill-rule="evenodd" stroke="none"/>
    <path d="M290.85 1.0 L302.3 1.0 275.15 50.0 263.7 50.0 290.85 1.0" fill="url(#gradient15)" fill-rule="evenodd" stroke="none"/>
    <path d="M245.1 1.0 L256.55 1.0 229.4 50.0 217.95 50.0 245.1 1.0" fill="url(#gradient16)" fill-rule="evenodd" stroke="none"/>
    <path d="M268.0 1.0 L279.4 1.0 252.3 50.0 240.85 50.0 268.0 1.0" fill="url(#gradient17)" fill-rule="evenodd" stroke="none"/>
    <path d="M298.0 50.0 L286.6 50.0 313.7 1.0 325.15 1.0 298.0 50.0" fill="url(#gradient18)" fill-rule="evenodd" stroke="none"/>
    <path d="M222.25 1.0 L233.7 1.0 206.55 50.0 195.1 50.0 222.25 1.0" fill="url(#gradient19)" fill-rule="evenodd" stroke="none"/>
    <path d="M176.55 1.0 L187.95 1.0 160.85 50.0 149.45 50.0 176.55 1.0" fill="url(#gradient20)" fill-rule="evenodd" stroke="none"/>
    <path d="M183.7 50.0 L172.25 50.0 199.4 1.0 210.85 1.0 183.7 50.0" fill="url(#gradient21)" fill-rule="evenodd" stroke="none"/>
    <path d="M130.85 1.0 L142.25 1.0 115.15 50.0 103.7 50.0 130.85 1.0" fill="url(#gradient22)" fill-rule="evenodd" stroke="none"/>
    <path d="M85.1 1.0 L96.55 1.0 69.45 50.0 58.0 50.0 85.1 1.0" fill="url(#gradient23)" fill-rule="evenodd" stroke="none"/>
    <path d="M108.0 1.0 L119.4 1.0 92.25 50.0 80.85 50.0 108.0 1.0" fill="url(#gradient24)" fill-rule="evenodd" stroke="none"/>
    <path d="M138.0 50.0 L126.55 50.0 153.7 1.0 165.15 1.0 138.0 50.0" fill="url(#gradient25)" fill-rule="evenodd" stroke="none"/>
    <path d="M62.25 1.0 L73.7 1.0 50.5 42.85 50.5 22.2 62.25 1.0" fill="url(#gradient26)" fill-rule="evenodd" stroke="none"/>
    <path d="M50.5 1.55 L50.5 1.0 50.8 1.0 50.5 1.55" fill="url(#gradient27)" fill-rule="evenodd" stroke="none"/>
  </g>
  <defs>
    <linearGradient gradientTransform="matrix(0.0225, 0.0, 0.0, 0.0379, 621.7, 25.0)" gradientUnits="userSpaceOnUse" id="gradient0" spreadMethod="pad" x1="-819.2" x2="819.2">
      <stop offset="0.0" stop-color="#d2d000" stop-opacity="0.29803923"/>
      <stop offset="1.0" stop-color="#f3ff0e" stop-opacity="0.2901961"/>
    </linearGradient>
    <linearGradient gradientTransform="matrix(0.028, 0.0, 0.0, 0.0379, 603.35, 25.0)" gradientUnits="userSpaceOnUse" id="gradient1" spreadMethod="pad" x1="-819.2" x2="819.2">
      <stop offset="0.0" stop-color="#d2d000" stop-opacity="0.29803923"/>
      <stop offset="1.0" stop-color="#f3ff0e" stop-opacity="0.2901961"/>
    </linearGradient>
    <linearGradient gradientTransform="matrix(0.028, 0.0, 0.0, 0.0379, 580.45, 25.0)" gradientUnits="userSpaceOnUse" id="gradient2" spreadMethod="pad" x1="-819.2" x2="819.2">
      <stop offset="0.0" stop-color="#d2d000" stop-opacity="0.29803923"/>
      <stop offset="1.0" stop-color="#f3ff0e" stop-opacity="0.2901961"/>
    </linearGradient>
    <linearGradient gradientTransform="matrix(0.0085, 0.0, 0.0, 0.0154, 633.15, 43.4)" gradientUnits="userSpaceOnUse" id="gradient3" spreadMethod="pad" x1="-819.2" x2="819.2">
      <stop offset="0.0" stop-color="#d2d000" stop-opacity="0.29803923"/>
      <stop offset="1.0" stop-color="#f3ff0e" stop-opacity="0.2901961"/>
    </linearGradient>
    <linearGradient gradientTransform="matrix(0.028, 0.0, 0.0, 0.0379, 534.7, 25.0)" gradientUnits="userSpaceOnUse" id="gradient4" spreadMethod="pad" x1="-819.2" x2="819.2">
      <stop offset="0.0" stop-color="#d2d000" stop-opacity="0.29803923"/>
      <stop offset="1.0" stop-color="#f3ff0e" stop-opacity="0.2901961"/>
    </linearGradient>
    <linearGradient gradientTransform="matrix(0.028, 0.0, 0.0, 0.0379, 489.0, 25.0)" gradientUnits="userSpaceOnUse" id="gradient5" spreadMethod="pad" x1="-819.2" x2="819.2">
      <stop offset="0.0" stop-color="#d2d000" stop-opacity="0.29803923"/>
      <stop offset="1.0" stop-color="#f3ff0e" stop-opacity="0.2901961"/>
    </linearGradient>
    <linearGradient gradientTransform="matrix(0.028, 0.0, 0.0, 0.0379, 511.9, 25.0)" gradientUnits="userSpaceOnUse" id="gradient6" spreadMethod="pad" x1="-819.2" x2="819.2">
      <stop offset="0.0" stop-color="#d2d000" stop-opacity="0.29803923"/>
      <stop offset="1.0" stop-color="#f3ff0e" stop-opacity="0.2901961"/>
    </linearGradient>
    <linearGradient gradientTransform="matrix(0.028, 0.0, 0.0, 0.0379, 557.6, 25.0)" gradientUnits="userSpaceOnUse" id="gradient7" spreadMethod="pad" x1="-819.2" x2="819.2">
      <stop offset="0.0" stop-color="#d2d000" stop-opacity="0.29803923"/>
      <stop offset="1.0" stop-color="#f3ff0e" stop-opacity="0.2901961"/>
    </linearGradient>
    <linearGradient gradientTransform="matrix(0.028, 0.0, 0.0, 0.0379, 443.3, 25.0)" gradientUnits="userSpaceOnUse" id="gradient8" spreadMethod="pad" x1="-819.2" x2="819.2">
      <stop offset="0.0" stop-color="#d2d000" stop-opacity="0.29803923"/>
      <stop offset="1.0" stop-color="#f3ff0e" stop-opacity="0.2901961"/>
    </linearGradient>
    <linearGradient gradientTransform="matrix(0.028, 0.0, 0.0, 0.0379, 466.15, 25.0)" gradientUnits="userSpaceOnUse" id="gradient9" spreadMethod="pad" x1="-819.2" x2="819.2">
      <stop offset="0.0" stop-color="#d2d000" stop-opacity="0.29803923"/>
      <stop offset="1.0" stop-color="#f3ff0e" stop-opacity="0.2901961"/>
    </linearGradient>
    <linearGradient gradientTransform="matrix(0.028, 0.0, 0.0, 0.0379, 397.6, 25.0)" gradientUnits="userSpaceOnUse" id="gradient10" spreadMethod="pad" x1="-819.2" x2="819.2">
      <stop offset="0.0" stop-color="#d2d000" stop-opacity="0.29803923"/>
      <stop offset="1.0" stop-color="#f3ff0e" stop-opacity="0.2901961"/>
    </linearGradient>
    <linearGradient gradientTransform="matrix(0.028, 0.0, 0.0, 0.0379, 420.45, 25.0)" gradientUnits="userSpaceOnUse" id="gradient11" spreadMethod="pad" x1="-819.2" x2="819.2">
      <stop offset="0.0" stop-color="#d2d000" stop-opacity="0.29803923"/>
      <stop offset="1.0" stop-color="#f3ff0e" stop-opacity="0.2901961"/>
    </linearGradient>
    <linearGradient gradientTransform="matrix(0.028, 0.0, 0.0, 0.0379, 374.7, 25.0)" gradientUnits="userSpaceOnUse" id="gradient12" spreadMethod="pad" x1="-819.2" x2="819.2">
      <stop offset="0.0" stop-color="#d2d000" stop-opacity="0.29803923"/>
      <stop offset="1.0" stop-color="#f3ff0e" stop-opacity="0.2901961"/>
    </linearGradient>
    <linearGradient gradientTransform="matrix(0.028, 0.0, 0.0, 0.0379, 329.0, 25.0)" gradientUnits="userSpaceOnUse" id="gradient13" spreadMethod="pad" x1="-819.2" x2="819.2">
      <stop offset="0.0" stop-color="#d2d000" stop-opacity="0.29803923"/>
      <stop offset="1.0" stop-color="#f3ff0e" stop-opacity="0.2901961"/>
    </linearGradient>
    <linearGradient gradientTransform="matrix(0.028, 0.0, 0.0, 0.0379, 351.85, 25.0)" gradientUnits="userSpaceOnUse" id="gradient14" spreadMethod="pad" x1="-819.2" x2="819.2">
      <stop offset="0.0" stop-color="#d2d000" stop-opacity="0.29803923"/>
      <stop offset="1.0" stop-color="#f3ff0e" stop-opacity="0.2901961"/>
    </linearGradient>
    <linearGradient gradientTransform="matrix(0.028, 0.0, 0.0, 0.0379, 283.25, 25.0)" gradientUnits="userSpaceOnUse" id="gradient15" spreadMethod="pad" x1="-819.2" x2="819.2">
      <stop offset="0.0" stop-color="#d2d000" stop-opacity="0.29803923"/>
      <stop offset="1.0" stop-color="#f3ff0e" stop-opacity="0.2901961"/>
    </linearGradient>
    <linearGradient gradientTransform="matrix(0.028, 0.0, 0.0, 0.0379, 237.5, 25.0)" gradientUnits="userSpaceOnUse" id="gradient16" spreadMethod="pad" x1="-819.2" x2="819.2">
      <stop offset="0.0" stop-color="#d2d000" stop-opacity="0.29803923"/>
      <stop offset="1.0" stop-color="#f3ff0e" stop-opacity="0.2901961"/>
    </linearGradient>
    <linearGradient gradientTransform="matrix(0.028, 0.0, 0.0, 0.0379, 260.4, 25.0)" gradientUnits="userSpaceOnUse" id="gradient17" spreadMethod="pad" x1="-819.2" x2="819.2">
      <stop offset="0.0" stop-color="#d2d000" stop-opacity="0.29803923"/>
      <stop offset="1.0" stop-color="#f3ff0e" stop-opacity="0.2901961"/>
    </linearGradient>
    <linearGradient gradientTransform="matrix(0.0279, 0.0, 0.0, 0.0379, 306.1, 25.0)" gradientUnits="userSpaceOnUse" id="gradient18" spreadMethod="pad" x1="-819.2" x2="819.2">
      <stop offset="0.0" stop-color="#d2d000" stop-opacity="0.29803923"/>
      <stop offset="1.0" stop-color="#f3ff0e" stop-opacity="0.2901961"/>
    </linearGradient>
    <linearGradient gradientTransform="matrix(0.028, 0.0, 0.0, 0.0379, 214.65, 25.0)" gradientUnits="userSpaceOnUse" id="gradient19" spreadMethod="pad" x1="-819.2" x2="819.2">
      <stop offset="0.0" stop-color="#d2d000" stop-opacity="0.29803923"/>
      <stop offset="1.0" stop-color="#f3ff0e" stop-opacity="0.2901961"/>
    </linearGradient>
    <linearGradient gradientTransform="matrix(0.0279, 0.0, 0.0, 0.0379, 168.95, 25.0)" gradientUnits="userSpaceOnUse" id="gradient20" spreadMethod="pad" x1="-819.2" x2="819.2">
      <stop offset="0.0" stop-color="#d2d000" stop-opacity="0.29803923"/>
      <stop offset="1.0" stop-color="#f3ff0e" stop-opacity="0.2901961"/>
    </linearGradient>
    <linearGradient gradientTransform="matrix(0.028, 0.0, 0.0, 0.0379, 191.8, 25.0)" gradientUnits="userSpaceOnUse" id="gradient21" spreadMethod="pad" x1="-819.2" x2="819.2">
      <stop offset="0.0" stop-color="#d2d000" stop-opacity="0.29803923"/>
      <stop offset="1.0" stop-color="#f3ff0e" stop-opacity="0.2901961"/>
    </linearGradient>
    <linearGradient gradientTransform="matrix(0.028, 0.0, 0.0, 0.0379, 123.25, 25.0)" gradientUnits="userSpaceOnUse" id="gradient22" spreadMethod="pad" x1="-819.2" x2="819.2">
      <stop offset="0.0" stop-color="#d2d000" stop-opacity="0.29803923"/>
      <stop offset="1.0" stop-color="#f3ff0e" stop-opacity="0.2901961"/>
    </linearGradient>
    <linearGradient gradientTransform="matrix(0.028, 0.0, 0.0, 0.0379, 77.55, 25.0)" gradientUnits="userSpaceOnUse" id="gradient23" spreadMethod="pad" x1="-819.2" x2="819.2">
      <stop offset="0.0" stop-color="#d2d000" stop-opacity="0.29803923"/>
      <stop offset="1.0" stop-color="#f3ff0e" stop-opacity="0.2901961"/>
    </linearGradient>
    <linearGradient gradientTransform="matrix(0.0279, 0.0, 0.0, 0.0379, 100.35, 25.0)" gradientUnits="userSpaceOnUse" id="gradient24" spreadMethod="pad" x1="-819.2" x2="819.2">
      <stop offset="0.0" stop-color="#d2d000" stop-opacity="0.29803923"/>
      <stop offset="1.0" stop-color="#f3ff0e" stop-opacity="0.2901961"/>
    </linearGradient>
    <linearGradient gradientTransform="matrix(0.028, 0.0, 0.0, 0.0379, 146.1, 25.0)" gradientUnits="userSpaceOnUse" id="gradient25" spreadMethod="pad" x1="-819.2" x2="819.2">
      <stop offset="0.0" stop-color="#d2d000" stop-opacity="0.29803923"/>
      <stop offset="1.0" stop-color="#f3ff0e" stop-opacity="0.2901961"/>
    </linearGradient>
    <linearGradient gradientTransform="matrix(0.0217, 0.0, 0.0, 0.0379, 59.75, 25.0)" gradientUnits="userSpaceOnUse" id="gradient26" spreadMethod="pad" x1="-819.2" x2="819.2">
      <stop offset="0.0" stop-color="#d2d000" stop-opacity="0.29803923"/>
      <stop offset="1.0" stop-color="#f3ff0e" stop-opacity="0.2901961"/>
    </linearGradient>
    <linearGradient gradientTransform="matrix(0.0078, 0.0, 0.0, 0.014, 48.35, 5.45)" gradientUnits="userSpaceOnUse" id="gradient27" spreadMethod="pad" x1="-819.2" x2="819.2">
      <stop offset="0.0" stop-color="#d2d000" stop-opacity="0.29803923"/>
      <stop offset="1.0" stop-color="#f3ff0e" stop-opacity="0.2901961"/>
    </linearGradient>
  </defs>
</svg>
