<?xml version="1.0" encoding="UTF-8" standalone="no"?>
<svg xmlns:xlink="http://www.w3.org/1999/xlink" height="82.55px" width="59.0px" xmlns="http://www.w3.org/2000/svg">
  <g transform="matrix(1.0, 0.0, 0.0, 1.0, 27.75, 74.8)">
    <path d="M11.5 -59.4 Q21.3 -51.5 27.2 -47.6 28.3 -46.45 28.4 -44.5 L28.25 -37.85 Q28.25 -28.25 22.0 -22.1 20.2 -20.35 17.7 -18.75 15.75 -17.5 15.75 -17.35 15.75 -16.6 16.15 -15.65 L16.75 -14.35 21.25 -14.95 25.25 -15.75 Q27.75 -15.75 29.75 -4.9 30.75 0.5 31.25 6.05 L30.95 7.2 30.0 7.75 15.5 7.75 14.75 7.5 -26.5 7.25 Q-27.45 6.7 -27.7 4.95 L-27.75 2.5 Q-26.05 -10.75 -23.5 -12.75 L-20.65 -12.9 -17.75 -13.35 Q-20.75 -18.95 -24.0 -23.6 -25.75 -26.6 -25.75 -31.75 -25.75 -40.7 -22.55 -44.75 -19.15 -49.1 -5.05 -57.65 -6.95 -59.95 -8.8 -64.3 -10.75 -69.0 -10.75 -71.9 -10.75 -73.0 -9.7 -73.6 -8.25 -74.45 -4.5 -74.55 L-4.5 -74.8 11.0 -74.8 18.0 -74.3 18.85 -73.95 Q19.25 -73.7 19.25 -72.9 19.25 -71.95 15.7 -66.1 L11.5 -59.4" fill="#000000" fill-opacity="0.003921569" fill-rule="evenodd" stroke="none"/>
  </g>
</svg>
