<?xml version="1.0" encoding="UTF-8" standalone="no"?>
<svg xmlns:xlink="http://www.w3.org/1999/xlink" height="88.4px" width="98.8px" xmlns="http://www.w3.org/2000/svg">
  <g transform="matrix(1.0, 0.0, 0.0, 1.0, 51.15, 79.6)">
    <path d="M11.65 -50.1 Q12.35 -48.0 12.35 -44.0 12.35 -41.2 11.75 -38.2 L11.1 -35.35 Q11.1 -34.95 11.25 -34.95 L11.4 -35.0 16.55 -34.75 16.8 -34.75 Q16.3 -35.65 15.9 -39.05 L15.6 -42.9 15.8 -45.55 Q16.4 -47.65 18.25 -47.65 L27.3 -44.85 40.5 -44.75 Q45.15 -42.35 45.15 -39.9 44.7 -37.05 43.15 -34.7 40.05 -30.0 34.6 -32.0 L33.1 -32.0 Q39.1 -29.5 39.9 -24.9 40.2 -23.4 40.0 -20.9 L39.9 -17.0 Q40.15 -14.05 42.9 -13.25 45.85 -12.35 46.4 -9.65 L47.25 -5.75 Q47.65 -3.55 47.65 -2.05 47.65 0.7 47.35 1.45 46.35 3.8 42.5 4.05 37.5 4.4 31.3 6.1 25.45 7.7 10.5 8.55 L-10.75 8.8 Q-19.75 7.9 -34.5 5.0 -51.15 1.75 -51.15 0.15 L-50.9 -1.4 -50.65 -3.15 -51.15 -8.1 Q-47.0 -10.95 -42.9 -14.0 -34.65 -20.15 -34.65 -21.5 -34.65 -22.7 -37.75 -31.25 -40.9 -39.8 -40.9 -44.4 -40.9 -47.65 -32.0 -57.6 -23.1 -67.55 -23.1 -68.9 -23.1 -69.4 -24.85 -72.45 -26.6 -75.5 -26.6 -76.95 -26.6 -78.15 -23.85 -79.0 -19.7 -80.2 -11.65 -78.9 L-2.5 -78.75 Q-1.45 -78.45 -1.2 -77.2 L-1.1 -75.25 Q-1.1 -73.75 -3.1 -70.7 -5.1 -67.65 -5.1 -67.15 -5.1 -64.4 -0.9 -61.15 L6.75 -56.1 Q10.45 -53.75 11.65 -50.1" fill="#000000" fill-opacity="0.003921569" fill-rule="evenodd" stroke="none"/>
  </g>
</svg>
