<?xml version="1.0" encoding="UTF-8" standalone="no"?>
<svg xmlns:xlink="http://www.w3.org/1999/xlink" height="96.5px" width="206.5px" xmlns="http://www.w3.org/2000/svg">
  <g transform="matrix(1.0, 0.0, 0.0, 1.0, 101.75, 84.25)">
    <path d="M56.5 -50.1 L56.75 -48.6 Q56.9 -47.45 57.75 -45.25 58.3 -43.75 61.6 -42.85 L70.5 -40.75 84.7 -37.55 Q92.85 -35.05 93.55 -30.35 93.9 -27.9 93.85 -24.0 L93.8 -17.35 Q99.95 -16.55 102.8 -12.45 104.75 -9.6 104.75 -6.0 104.75 -3.65 104.55 -3.1 104.35 -2.35 103.2 -1.95 98.45 -0.7 92.0 2.25 L56.05 2.5 23.1 9.55 Q8.65 12.25 -3.0 12.25 -23.85 12.25 -30.75 10.0 L-48.5 9.75 Q-53.5 9.3 -72.5 2.55 -90.35 -3.75 -100.0 -3.75 L-101.6 -4.0 -101.75 -5.85 -99.85 -14.5 -99.75 -18.6 Q-99.65 -19.05 -98.15 -19.25 -96.1 -19.6 -93.85 -21.85 -90.9 -24.9 -89.05 -29.9 -86.9 -35.75 -84.75 -38.75 L-87.3 -39.9 Q-89.15 -40.7 -89.75 -41.6 L-89.75 -44.8 Q-89.75 -51.2 -88.4 -54.3 -86.3 -59.2 -80.5 -59.25 -71.35 -59.35 -67.7 -61.1 -65.05 -62.35 -64.55 -65.05 L-63.7 -69.35 Q-62.4 -71.55 -57.5 -72.25 L-7.25 -72.5 -4.25 -73.0 Q-5.75 -74.2 -5.75 -74.8 -5.75 -81.3 -4.15 -82.3 L5.5 -84.25 18.5 -84.25 Q20.6 -83.25 21.1 -82.0 L21.25 -79.75 Q21.25 -78.1 20.25 -74.3 19.4 -71.1 18.55 -68.85 22.5 -65.1 31.5 -60.1 39.35 -55.75 42.8 -51.35 L55.5 -51.7 Q56.5 -51.65 56.5 -50.1" fill="#000000" fill-opacity="0.003921569" fill-rule="evenodd" stroke="none"/>
  </g>
</svg>
