<?xml version="1.0" encoding="UTF-8" standalone="no"?>
<svg xmlns:xlink="http://www.w3.org/1999/xlink" height="51.0px" width="686.0px" xmlns="http://www.w3.org/2000/svg">
  <g transform="matrix(1.0, 0.0, 0.0, 1.0, 0.5, 0.5)">
    <path d="M50.45 0.0 L61.05 0.0 61.75 0.0 685.0 0.0 685.0 50.0 61.75 50.0 61.05 50.0 50.45 50.0 50.0 50.0 50.0 0.0 50.45 0.0" fill="#ffffff" fill-rule="evenodd" stroke="none"/>
    <path d="M50.45 0.0 L61.05 0.0 61.75 0.0 685.0 0.0 685.0 50.0 61.75 50.0 61.05 50.0 50.45 50.0 50.0 50.0 45.45 50.0 0.0 50.0 0.0 0.0 45.45 0.0 50.0 0.0 50.0 50.0" fill="none" stroke="#cccccc" stroke-linecap="round" stroke-linejoin="round" stroke-width="1.0"/>
    <path d="M91.0 22.0 L90.0 23.0 Q89.3 22.75 89.0 22.3 L89.25 21.65 Q89.55 21.15 90.0 21.0 90.7 21.3 91.0 22.0" fill="#666666" fill-rule="evenodd" stroke="none"/>
  </g>
</svg>
