<?xml version="1.0" encoding="UTF-8" standalone="no"?>
<svg xmlns:xlink="http://www.w3.org/1999/xlink" height="14.65px" width="18.0px" xmlns="http://www.w3.org/2000/svg">
  <g transform="matrix(1.0, 0.0, 0.0, 1.0, 0.0, 0.0)">
    <path d="M7.15 1.1 Q6.4 1.25 5.6 3.15 4.9 4.8 4.5 6.75 L4.3 7.65 3.65 7.0 2.7 6.8 Q2.3 6.85 1.65 8.15 1.0 9.45 1.0 10.2 1.0 12.1 2.75 12.7 L3.25 12.85 Q3.95 12.85 4.25 12.15 L4.55 11.5 5.05 12.0 6.3 12.95 Q7.75 13.8 9.05 13.6 11.2 13.25 12.2 11.45 L12.45 11.0 12.9 11.25 Q15.25 12.6 16.55 12.6 L16.8 12.5 Q17.35 11.75 16.55 8.5 16.3 7.65 15.6 7.65 14.7 7.65 13.9 8.3 L13.3 8.7 12.55 5.95 Q10.3 5.65 9.6 5.05 8.65 4.35 8.8 1.0 L7.15 1.1 M9.85 0.75 L9.9 3.05 Q10.0 4.1 10.2 4.25 10.75 4.7 13.0 5.0 L13.35 5.05 13.9 7.15 Q14.8 6.65 15.6 6.65 17.1 6.65 17.5 8.25 18.45 12.0 17.6 13.1 17.25 13.6 16.55 13.6 15.45 13.6 12.8 12.35 11.35 14.2 9.25 14.6 L8.55 14.65 Q6.6 14.65 4.8 13.1 4.15 13.85 3.25 13.85 L2.4 13.65 Q1.2 13.2 0.55 12.15 0.0 11.25 0.0 10.2 0.0 9.15 0.8 7.65 1.7 5.9 2.6 5.85 L3.65 5.9 Q4.95 0.5 7.0 0.1 L8.35 0.0 Q9.45 0.0 9.7 0.35 L9.85 0.5 9.85 0.75" fill="#000000" fill-rule="evenodd" stroke="none"/>
    <path d="M3.3 11.45 Q3.6 10.65 3.4 9.25 L3.15 8.05 3.6 8.25 Q4.1 8.6 4.3 9.45 4.6 10.85 3.3 11.45" fill="#000000" fill-rule="evenodd" stroke="none"/>
    <path d="M11.85 7.4 L12.2 7.9 Q12.45 8.6 12.2 9.55 11.85 11.1 8.75 12.1 9.35 10.25 9.0 8.6 L8.55 7.3 Q9.75 8.25 10.95 7.9 11.5 7.75 11.85 7.4" fill="#000000" fill-rule="evenodd" stroke="none"/>
    <path d="M8.15 2.2 L7.85 3.05 Q7.7 4.05 8.4 5.05 9.25 6.15 8.6 6.25 8.0 6.35 7.55 5.35 7.2 4.55 7.65 3.3 L8.15 2.2" fill="#000000" fill-rule="evenodd" stroke="none"/>
    <path d="M15.9 9.3 L16.15 11.05 Q16.15 11.8 14.75 11.2 15.55 11.05 15.9 9.3" fill="#000000" fill-rule="evenodd" stroke="none"/>
  </g>
</svg>
