<?xml version="1.0" encoding="UTF-8" standalone="no"?>
<svg xmlns:xlink="http://www.w3.org/1999/xlink" height="16.7px" width="22.0px" xmlns="http://www.w3.org/2000/svg">
  <g transform="matrix(1.0, 0.0, 0.0, 1.0, 0.0, 0.0)">
    <path d="M15.3 7.9 Q15.0 8.35 14.45 8.35 13.9 8.35 13.7 7.15 13.45 5.9 12.65 5.9 11.9 5.9 11.95 9.15 12.0 12.4 11.35 12.4 10.65 12.4 10.65 10.7 10.65 9.0 10.2 9.0 9.85 9.0 10.0 8.05 10.1 7.05 9.0 7.05 7.95 7.05 8.15 9.15 8.4 11.25 7.7 11.25 7.05 11.25 7.1 8.15 7.2 5.05 5.9 5.05 4.55 5.05 4.5 7.45 4.45 9.85 4.1 9.85 3.7 9.85 3.7 11.5 3.7 13.15 2.7 13.15 1.85 13.15 2.0 9.1 2.15 5.05 0.9 5.05 L0.0 5.2 0.0 0.0 22.0 0.0 22.0 9.9 21.45 10.15 Q20.45 10.15 20.4 8.45 20.3 6.75 19.75 6.75 19.15 6.75 19.3 9.75 19.5 12.75 19.0 12.75 18.6 12.75 18.75 14.75 18.9 16.7 17.8 16.7 16.75 16.7 16.8 12.05 16.85 7.4 16.3 7.4 15.65 7.4 15.3 7.9" fill="#000000" fill-rule="evenodd" stroke="none"/>
  </g>
</svg>
