<?xml version="1.0" encoding="UTF-8" standalone="no"?>
<svg xmlns:xlink="http://www.w3.org/1999/xlink" height="20.0px" width="18.35px" xmlns="http://www.w3.org/2000/svg">
  <g transform="matrix(1.0, 0.0, 0.0, 1.0, 0.0, 0.0)">
    <path d="M9.2 0.0 Q12.85 0.0 15.5 2.5 18.15 5.0 18.35 8.65 L17.3 8.7 Q17.1 5.45 14.75 3.25 12.4 1.0 9.2 1.0 5.95 1.0 3.6 3.25 1.25 5.45 1.05 8.7 L0.0 8.65 Q0.25 5.0 2.9 2.5 5.55 0.0 9.2 0.0" fill="#000000" fill-rule="evenodd" stroke="none"/>
    <path d="M1.85 8.65 Q2.0 6.1 3.75 4.2 L8.2 8.65 1.85 8.65" fill="#000000" fill-rule="evenodd" stroke="none"/>
    <path d="M14.5 4.2 Q16.25 6.1 16.4 8.65 L10.05 8.65 14.5 4.2" fill="#000000" fill-rule="evenodd" stroke="none"/>
    <path d="M9.55 8.0 L9.55 1.85 Q12.0 2.0 13.9 3.65 L9.55 8.0" fill="#000000" fill-rule="evenodd" stroke="none"/>
    <path d="M8.7 1.85 L8.7 8.0 4.35 3.65 Q6.25 2.0 8.7 1.85" fill="#000000" fill-rule="evenodd" stroke="none"/>
    <path d="M6.55 16.3 L9.15 10.6 11.7 16.3 11.85 17.25 Q11.85 18.4 11.05 19.2 10.25 20.0 9.15 20.0 8.0 20.0 7.2 19.2 6.4 18.4 6.4 17.25 6.4 16.75 6.55 16.3" fill="#000000" fill-rule="evenodd" stroke="none"/>
  </g>
</svg>
