<?xml version="1.0" encoding="UTF-8" standalone="no"?>
<svg xmlns:xlink="http://www.w3.org/1999/xlink" height="26.0px" width="19.85px" xmlns="http://www.w3.org/2000/svg">
  <g transform="matrix(1.0, 0.0, 0.0, 1.0, 0.0, 0.0)">
    <path d="M9.95 0.0 Q12.85 0.0 15.45 2.8 17.8 5.35 19.05 9.25 L18.35 9.55 17.9 9.35 17.0 9.35 16.2 9.85 15.8 9.85 15.7 9.95 15.0 10.55 14.75 10.65 14.3 10.5 13.7 10.5 12.55 9.85 12.1 9.8 11.45 9.1 10.75 9.1 9.8 8.65 9.55 8.85 Q8.95 9.3 8.95 9.6 L8.3 10.05 7.15 10.1 6.6 10.55 6.05 10.55 5.55 10.15 4.8 10.15 4.8 11.15 5.2 11.15 5.7 11.55 6.95 11.55 7.5 11.1 8.65 11.0 9.65 10.3 9.7 11.15 9.3 11.85 9.4 12.55 10.0 12.6 10.65 13.25 11.1 13.25 12.0 13.8 12.45 13.55 13.15 14.45 13.95 11.5 14.1 11.5 14.8 11.7 14.95 11.6 15.8 11.15 16.15 10.85 16.5 10.85 17.3 10.35 17.65 10.35 18.3 10.65 19.3 10.2 Q19.85 12.4 19.85 14.3 19.85 19.15 16.95 22.55 14.05 26.0 9.95 26.0 5.85 26.0 2.9 22.55 0.0 19.15 0.0 14.3 0.0 9.2 2.9 4.7 6.0 0.0 9.95 0.0" fill="#000000" fill-rule="evenodd" stroke="none"/>
  </g>
</svg>
