<?xml version="1.0" encoding="UTF-8" standalone="no"?>
<svg xmlns:xlink="http://www.w3.org/1999/xlink" height="23.5px" width="23.5px" xmlns="http://www.w3.org/2000/svg">
  <g transform="matrix(1.0, 0.0, 0.0, 1.0, 0.5, 0.5)">
    <path d="M21.55 4.05 Q23.45 7.75 22.85 11.9 22.2 16.15 19.15 19.15 16.15 22.2 11.9 22.85 7.75 23.45 4.05 21.55 L21.55 4.05" fill="#000000" fill-rule="evenodd" stroke="none"/>
    <path d="M10.65 9.25 L18.5 17.1 17.1 18.5 9.25 10.65 10.65 9.25" fill="#000000" fill-rule="evenodd" stroke="none"/>
    <path d="M11.4 8.55 Q11.95 9.15 11.95 10.0 11.95 10.8 11.4 11.4 10.8 11.95 10.0 11.95 9.15 11.95 8.55 11.4 8.0 10.8 8.0 10.0 8.0 9.15 8.55 8.55 9.15 8.0 10.0 8.0 10.8 8.0 11.4 8.55" fill="#000000" fill-rule="evenodd" stroke="none"/>
    <path d="M10.0 8.0 Q10.85 8.0 11.4 8.55 12.0 9.15 12.0 10.0 12.0 10.85 11.4 11.4 10.85 12.0 10.0 12.0 9.15 12.0 8.55 11.4 8.0 10.85 8.0 10.0 8.0 9.15 8.55 8.55 9.15 8.0 10.0 8.0" fill="#000000" fill-rule="evenodd" stroke="none"/>
    <path d="M5.0 10.0 Q5.0 7.9 6.45 6.45 7.9 5.0 10.0 5.0" fill="none" stroke="#000000" stroke-linecap="butt" stroke-linejoin="miter-clip" stroke-miterlimit="10.0" stroke-width="1.0"/>
    <path d="M2.5 10.0 Q2.5 6.9 4.7 4.7 6.9 2.5 10.0 2.5" fill="none" stroke="#000000" stroke-linecap="butt" stroke-linejoin="miter-clip" stroke-miterlimit="10.0" stroke-width="1.0"/>
    <path d="M0.0 10.0 Q0.0 5.85 2.9 2.9 5.85 0.0 10.0 0.0" fill="none" stroke="#000000" stroke-linecap="butt" stroke-linejoin="miter-clip" stroke-miterlimit="10.0" stroke-width="1.0"/>
  </g>
</svg>
