<?xml version="1.0" encoding="UTF-8" standalone="no"?>
<svg xmlns:xlink="http://www.w3.org/1999/xlink" height="18.0px" width="18.0px" xmlns="http://www.w3.org/2000/svg">
  <g transform="matrix(1.0, 0.0, 0.0, 1.0, 0.0, 0.0)">
    <path d="M3.35 3.35 Q1.0 5.7 1.0 9.0 1.0 12.3 3.35 14.65 5.7 17.0 9.0 17.0 12.35 17.0 14.65 14.65 17.0 12.3 17.0 9.0 17.0 5.7 14.65 3.35 12.35 1.0 9.0 1.0 5.7 1.0 3.35 3.35 M2.65 2.65 Q5.3 0.0 9.0 0.0 12.75 0.0 15.4 2.65 18.0 5.3 18.0 9.0 18.0 12.75 15.4 15.4 12.75 18.0 9.0 18.0 5.3 18.0 2.65 15.4 0.0 12.75 0.0 9.0 0.0 5.3 2.65 2.65" fill="#000000" fill-rule="evenodd" stroke="none"/>
    <path d="M13.0 9.0 Q13.0 10.65 11.85 11.85 10.7 13.0 9.0 13.0 7.35 13.0 6.2 11.85 5.0 10.65 5.0 9.0 5.0 7.35 6.2 6.2 7.35 5.0 9.0 5.0 10.7 5.0 11.85 6.2 13.0 7.35 13.0 9.0 Z" fill="none" stroke="#000000" stroke-linecap="butt" stroke-linejoin="miter-clip" stroke-miterlimit="10.0" stroke-width="1.0"/>
    <path d="M9.0 16.0 L9.0 2.0" fill="none" stroke="#000000" stroke-linecap="butt" stroke-linejoin="miter-clip" stroke-miterlimit="10.0" stroke-width="1.0"/>
    <path d="M16.0 9.0 L2.0 9.0" fill="none" stroke="#000000" stroke-linecap="butt" stroke-linejoin="miter-clip" stroke-miterlimit="10.0" stroke-width="1.0"/>
  </g>
</svg>
