<?xml version="1.0" encoding="UTF-8" standalone="no"?>
<svg xmlns:xlink="http://www.w3.org/1999/xlink" height="10.4px" width="23.8px" xmlns="http://www.w3.org/2000/svg">
  <g transform="matrix(1.0, 0.0, 0.0, 1.0, 0.0, 0.0)">
    <path d="M9.9 9.0 Q10.25 9.0 10.35 8.4 10.45 7.75 10.0 7.75 9.65 7.75 9.55 8.4 9.55 9.0 9.9 9.0 M11.85 9.05 Q12.25 9.05 12.15 8.45 12.05 7.8 11.7 7.8 11.3 7.8 11.4 8.45 11.4 9.05 11.85 9.05 M7.6 1.25 L7.25 1.0 5.95 1.0 6.65 1.25 8.05 2.55 Q9.55 4.85 10.35 4.65 10.2 4.1 10.6 3.5 L10.1 4.0 Q10.0 4.3 9.45 3.85 L8.45 2.5 7.6 1.25 M18.4 3.3 Q19.2 3.85 19.2 4.9 19.2 5.75 18.6 6.35 18.05 6.95 17.2 6.95 16.5 6.95 15.95 6.5 15.4 6.1 15.2 5.45 14.0 6.4 13.0 6.55 L14.05 7.9 Q15.4 9.25 16.9 9.35 20.4 9.65 21.95 6.75 23.1 4.7 22.85 4.4 L21.95 3.4 Q20.9 2.7 19.3 3.0 L18.4 3.3 M17.4 1.0 L16.35 1.0 14.95 2.4 12.45 4.2 Q13.6 3.85 14.65 3.0 L17.4 1.0 M0.0 10.4 L0.0 0.0 23.8 0.0 23.8 10.4 0.0 10.4 M5.15 6.4 Q4.55 5.85 4.55 5.0 4.55 3.85 5.55 3.25 4.75 2.7 4.1 2.5 2.55 2.15 1.65 3.0 0.7 3.8 0.95 5.3 1.2 6.7 2.65 7.75 4.05 8.75 5.85 8.8 7.3 8.85 8.5 7.75 L9.4 6.65 Q8.95 6.5 8.4 5.95 7.85 7.0 6.6 7.0 5.75 7.0 5.15 6.4" fill="#000000" fill-rule="evenodd" stroke="none"/>
  </g>
</svg>
