<?xml version="1.0" encoding="UTF-8" standalone="no"?>
<svg xmlns:xlink="http://www.w3.org/1999/xlink" height="14.0px" width="18.0px" xmlns="http://www.w3.org/2000/svg">
  <g transform="matrix(1.0, 0.0, 0.0, 1.0, 0.0, 0.0)">
    <path d="M9.1 4.9 Q10.0 5.75 10.0 7.0 10.0 8.25 9.1 9.1 8.25 10.0 7.0 10.0 5.75 10.0 4.9 9.1 4.0 8.25 4.0 7.0 4.0 5.75 4.9 4.9 5.75 4.0 7.0 4.0 8.25 4.0 9.1 4.9" fill="#000000" fill-rule="evenodd" stroke="none"/>
    <path d="M7.5 2.0 L6.5 2.0 6.5 0.0 7.5 0.0 7.5 2.0" fill="#000000" fill-rule="evenodd" stroke="none"/>
    <path d="M7.5 14.0 L6.5 14.0 6.5 12.0 7.5 12.0 7.5 14.0" fill="#000000" fill-rule="evenodd" stroke="none"/>
    <path d="M4.9 2.4 L4.05 2.9 3.05 1.2 3.9 0.7 4.9 2.4" fill="#000000" fill-rule="evenodd" stroke="none"/>
    <path d="M10.9 12.8 L10.05 13.3 9.05 11.55 9.9 11.05 10.9 12.8" fill="#000000" fill-rule="evenodd" stroke="none"/>
    <path d="M2.9 4.05 L2.4 4.95 0.7 3.9 1.2 3.05 2.9 4.05" fill="#000000" fill-rule="evenodd" stroke="none"/>
    <path d="M13.3 10.05 L12.8 10.9 11.05 9.95 11.55 9.05 13.3 10.05" fill="#000000" fill-rule="evenodd" stroke="none"/>
    <path d="M9.05 2.4 L10.05 0.7 10.9 1.2 9.9 2.9 9.05 2.4" fill="#000000" fill-rule="evenodd" stroke="none"/>
    <path d="M3.05 12.8 L4.05 11.05 4.9 11.55 3.9 13.3 3.05 12.8" fill="#000000" fill-rule="evenodd" stroke="none"/>
    <path d="M11.05 4.05 L12.8 3.05 13.3 3.9 11.55 4.95 11.05 4.05" fill="#000000" fill-rule="evenodd" stroke="none"/>
    <path d="M0.7 10.05 L2.4 9.05 2.9 9.95 1.2 10.9 0.7 10.05" fill="#000000" fill-rule="evenodd" stroke="none"/>
    <path d="M18.0 6.5 L18.0 7.5 5.0 7.5 5.0 6.5 18.0 6.5" fill="#000000" fill-rule="evenodd" stroke="none"/>
    <path d="M2.0 6.5 L2.0 7.5 0.0 7.5 0.0 6.5 2.0 6.5" fill="#000000" fill-rule="evenodd" stroke="none"/>
  </g>
</svg>
