<?xml version="1.0" encoding="UTF-8" standalone="no"?>
<svg xmlns:xlink="http://www.w3.org/1999/xlink" height="22.9px" width="25.0px" xmlns="http://www.w3.org/2000/svg">
  <g transform="matrix(1.0, 0.0, 0.0, 1.0, 0.0, 0.0)">
    <path d="M17.5 16.6 Q15.5 18.0 12.5 18.0 9.8 18.0 7.9 16.85 6.0 15.75 6.0 14.15 L6.0 10.6 12.5 14.0 17.5 11.4 17.5 16.6" fill="#000000" fill-rule="evenodd" stroke="none"/>
    <path d="M12.3 6.45 L13.35 5.9 19.5 9.2 19.5 17.9 18.5 17.9 18.5 9.75 12.3 6.45" fill="#000000" fill-rule="evenodd" stroke="none"/>
    <path d="M25.0 6.5 L20.5 8.8 20.5 8.6 13.35 4.75 10.15 6.4 17.5 10.35 17.5 10.4 12.5 13.0 0.0 6.45 12.5 0.0 25.0 6.5" fill="#000000" fill-rule="evenodd" stroke="none"/>
    <path d="M17.5 22.9 L17.5 20.4 Q17.5 19.75 17.95 19.35 18.35 18.9 19.0 18.9 19.6 18.9 20.05 19.35 20.5 19.75 20.5 20.4 L20.5 22.9 17.5 22.9" fill="#000000" fill-rule="evenodd" stroke="none"/>
  </g>
</svg>
