<?xml version="1.0" encoding="UTF-8" standalone="no"?>
<svg xmlns:xlink="http://www.w3.org/1999/xlink" height="18.0px" width="17.95px" xmlns="http://www.w3.org/2000/svg">
  <g transform="matrix(1.0, 0.0, 0.0, 1.0, 0.0, 0.0)">
    <path d="M9.45 11.15 L9.45 9.05 11.55 9.05 Q11.2 10.85 9.45 11.15" fill="#000000" fill-rule="evenodd" stroke="none"/>
    <path d="M6.4 8.05 Q6.55 7.25 7.1 6.7 7.65 6.1 8.45 5.95 L8.45 8.05 6.4 8.05" fill="#000000" fill-rule="evenodd" stroke="none"/>
    <path d="M8.45 11.15 Q6.75 10.85 6.4 9.05 L8.45 9.05 8.45 11.15" fill="#000000" fill-rule="evenodd" stroke="none"/>
    <path d="M9.45 5.95 Q11.2 6.25 11.55 8.05 L9.45 8.05 9.45 5.95" fill="#000000" fill-rule="evenodd" stroke="none"/>
    <path d="M9.45 3.05 L8.45 3.05 8.45 4.95 Q7.25 5.15 6.4 6.0 5.55 6.85 5.4 8.05 L3.45 8.05 3.45 9.05 5.4 9.05 Q5.55 10.25 6.4 11.1 7.25 11.95 8.45 12.15 L8.45 14.05 9.45 14.05 9.45 12.15 Q10.7 11.95 11.55 11.1 12.4 10.25 12.55 9.05 L14.45 9.05 14.45 8.05 12.55 8.05 Q12.4 6.85 11.55 6.0 10.7 5.15 9.45 4.95 L9.45 3.05 M0.5 6.5 L0.0 1.5 2.8 1.5 Q5.2 1.4 5.2 3.5 5.2 4.55 6.9 4.45 6.75 4.1 6.85 3.6 7.0 2.6 8.15 2.05 L8.45 1.95 8.95 0.0 9.5 1.95 9.8 2.05 Q10.95 2.6 11.1 3.6 L11.05 4.45 Q12.75 4.55 12.75 3.5 12.75 1.4 15.15 1.5 L17.95 1.5 17.45 6.5 Q16.25 11.45 12.65 11.5 12.35 13.1 11.0 13.9 L13.55 16.2 12.35 17.1 Q10.8 18.0 9.0 18.0 L8.95 18.0 Q7.15 18.0 5.6 17.1 L4.4 16.2 6.95 13.9 Q5.65 13.1 5.3 11.5 1.7 11.45 0.5 6.5" fill="#000000" fill-rule="evenodd" stroke="none"/>
  </g>
</svg>
