<?xml version="1.0" encoding="UTF-8" standalone="no"?>
<svg xmlns:xlink="http://www.w3.org/1999/xlink" height="26.0px" width="21.55px" xmlns="http://www.w3.org/2000/svg">
  <g transform="matrix(1.0, 0.0, 0.0, 1.0, 0.0, 0.0)">
    <path d="M12.8 1.0 L8.8 1.0 8.8 10.6 8.65 10.8 1.1 23.85 Q0.95 24.25 1.1 24.6 1.35 25.0 1.8 25.0 L19.75 25.0 20.3 24.8 20.55 24.25 20.4 23.8 20.35 23.75 12.8 10.6 12.8 1.0 M14.8 0.0 L14.8 1.0 13.8 1.0 13.8 10.3 21.25 23.25 21.55 24.25 Q21.55 24.95 21.05 25.5 20.5 26.0 19.75 26.0 L1.8 26.0 Q0.7 26.0 0.25 25.15 -0.2 24.2 0.25 23.35 L7.8 10.3 7.8 1.0 6.8 1.0 6.8 0.0 14.8 0.0" fill="#000000" fill-rule="evenodd" stroke="none"/>
    <path d="M4.5 16.0 L17.05 16.0 21.25 23.25 21.55 24.25 Q21.55 24.95 21.05 25.5 20.5 26.0 19.75 26.0 L1.8 26.0 Q0.7 26.0 0.25 25.15 -0.2 24.2 0.25 23.35 L4.5 16.0" fill="#000000" fill-rule="evenodd" stroke="none"/>
  </g>
</svg>
