<?xml version="1.0" encoding="UTF-8" standalone="no"?>
<svg xmlns:xlink="http://www.w3.org/1999/xlink" height="15.1px" width="16.0px" xmlns="http://www.w3.org/2000/svg">
  <g transform="matrix(1.0, 0.0, 0.0, 1.0, 0.0, 0.0)">
    <path d="M0.9 14.2 L4.0 14.2 4.0 11.15 0.9 11.15 0.9 14.2 M0.9 4.0 L4.0 4.0 4.0 0.9 0.9 0.9 0.9 4.0 M9.4 0.0 L12.05 0.45 Q13.35 0.95 14.2 1.8 15.15 2.8 15.5 3.75 16.0 5.1 16.0 7.15 L15.85 9.65 Q15.7 11.1 15.2 11.95 L13.85 13.6 Q13.05 14.35 12.05 14.65 L9.4 15.1 0.0 15.1 0.0 10.25 9.6 10.25 Q10.85 10.25 11.65 9.55 12.35 8.75 12.35 7.55 12.35 6.3 11.65 5.6 10.9 4.85 9.6 4.85 L0.0 4.85 0.0 0.0 9.4 0.0" fill="#000000" fill-rule="evenodd" stroke="none"/>
  </g>
</svg>
