<?xml version="1.0" encoding="UTF-8" standalone="no"?>
<svg xmlns:xlink="http://www.w3.org/1999/xlink" height="164.6px" width="481.0px" xmlns="http://www.w3.org/2000/svg">
  <g transform="matrix(1.0, 0.0, 0.0, 1.0, 240.5, -53.5)">
    <path d="M237.05 54.0 Q240.0 54.0 240.0 57.0 L240.0 214.6 Q240.0 217.6 237.05 217.6 L-236.95 217.6 Q-240.0 217.6 -240.0 214.6 L-240.0 57.0 Q-240.0 54.0 -236.95 54.0 L237.05 54.0" fill="#ffffff" fill-rule="evenodd" stroke="none"/>
    <path d="M237.05 54.0 L-236.95 54.0 Q-240.0 54.0 -240.0 57.0 L-240.0 214.6 Q-240.0 217.6 -236.95 217.6 L237.05 217.6 Q240.0 217.6 240.0 214.6 L240.0 57.0 Q240.0 54.0 237.05 54.0 Z" fill="none" stroke="#999999" stroke-linecap="round" stroke-linejoin="round" stroke-opacity="0.8" stroke-width="1.0"/>
  </g>
</svg>
