<?xml version="1.0" encoding="UTF-8" standalone="no"?>
<svg xmlns:xlink="http://www.w3.org/1999/xlink" height="23.0px" width="25.05px" xmlns="http://www.w3.org/2000/svg">
  <g transform="matrix(1.0, 0.0, 0.0, 1.0, 0.0, 1.2)">
    <path d="M20.4 9.25 L18.95 6.1 22.35 4.55 Q23.55 4.0 23.4 0.3 L24.75 3.45 Q25.65 6.8 23.7 7.7 L20.4 9.25" fill="#000000" fill-rule="evenodd" stroke="none"/>
    <path d="M6.1 6.1 L4.65 9.25 1.35 7.7 Q-0.6 6.8 0.3 3.45 L1.65 0.3 1.75 2.2 Q1.95 4.2 2.7 4.55 L6.1 6.1" fill="#000000" fill-rule="evenodd" stroke="none"/>
    <path d="M19.45 2.5 Q19.0 2.05 18.55 2.5 L16.3 4.25 14.4 3.45 14.05 0.65 Q13.95 0.0 13.4 0.0 L11.7 0.0 Q11.05 0.0 11.05 0.65 L10.7 3.45 Q9.55 3.8 8.75 4.25 L6.5 2.5 Q6.0 2.1 5.6 2.5 L4.4 3.7 Q3.95 4.15 4.4 4.6 L6.15 6.85 Q5.7 7.65 5.35 8.8 L2.5 9.15 Q1.85 9.25 1.85 9.8 L1.85 11.5 Q1.85 12.05 2.5 12.15 L5.35 12.5 6.15 14.4 4.4 16.65 Q4.0 17.15 4.4 17.6 L5.6 18.8 Q6.0 19.2 6.5 18.8 L8.75 17.05 Q9.65 17.6 10.7 17.8 L11.05 20.65 Q11.15 21.3 11.7 21.3 L13.4 21.3 Q13.95 21.3 14.05 20.65 L14.4 17.85 16.3 17.05 18.55 18.8 Q19.1 19.15 19.45 18.8 L20.7 17.6 Q21.05 17.2 20.7 16.65 L18.9 14.4 19.7 12.5 22.55 12.15 Q23.2 12.05 23.2 11.5 L23.2 9.8 Q23.2 9.15 22.55 9.15 L19.7 8.8 Q19.5 7.9 18.9 6.85 L20.7 4.65 Q21.1 4.1 20.7 3.7 L19.45 2.5 M12.55 13.65 Q11.3 13.65 10.4 12.75 9.5 11.9 9.5 10.65 9.5 9.4 10.4 8.55 11.3 7.65 12.55 7.65 13.8 7.65 14.65 8.55 15.55 9.4 15.55 10.65 15.55 11.9 14.65 12.75 13.8 13.65 12.55 13.65 Z" fill="none" stroke="#000000" stroke-linecap="butt" stroke-linejoin="miter-clip" stroke-miterlimit="10.0" stroke-width="1.0"/>
  </g>
</svg>
