<?xml version="1.0" encoding="UTF-8" standalone="no"?>
<svg xmlns:xlink="http://www.w3.org/1999/xlink" height="18.05px" width="16.1px" xmlns="http://www.w3.org/2000/svg">
  <g transform="matrix(1.0, 0.0, 0.0, 1.0, 0.0, 0.0)">
    <path d="M5.25 12.75 L5.25 13.2 Q5.25 13.5 5.0 13.1 L4.5 12.55 Q4.3 12.55 4.2 13.05 L4.2 13.55 3.3 11.35 2.85 10.8 2.55 11.9 Q2.35 13.1 2.8 13.9 L3.35 14.65 3.4 13.9 3.65 13.55 Q3.8 13.5 3.75 13.95 L4.05 15.05 4.85 14.9 4.9 14.85 Q4.9 14.35 5.05 14.35 L5.35 14.7 5.7 14.6 6.2 13.95 6.25 14.45 7.7 14.3 10.5 14.9 10.45 13.95 11.25 14.95 11.75 14.95 12.1 14.05 Q12.1 13.7 12.25 13.65 12.4 13.55 12.55 13.9 L12.65 14.75 Q13.45 14.45 13.65 13.4 13.8 12.6 13.45 11.5 L13.1 10.6 12.65 11.1 Q13.25 11.7 12.65 12.95 12.85 12.05 12.1 11.7 L11.75 12.0 Q12.2 12.8 11.3 13.75 11.45 13.0 11.1 12.5 L10.2 12.95 7.75 13.3 5.25 12.75 M5.7 9.3 Q4.95 8.65 4.6 8.7 4.1 8.75 4.05 9.45 4.0 10.1 4.4 10.5 L7.05 10.75 6.15 9.75 Q6.15 10.1 5.75 10.1 5.35 10.1 5.35 9.7 5.35 9.4 5.7 9.3 M11.75 8.95 Q11.6 8.8 11.15 8.95 L10.2 9.45 10.5 9.85 Q10.5 10.25 10.1 10.25 L9.7 9.95 8.65 10.7 11.7 10.9 Q12.25 10.75 12.15 9.95 L11.75 8.95 M9.5 1.95 Q9.6 2.65 9.35 2.85 8.85 3.35 8.9 3.7 8.95 3.95 9.3 3.45 9.35 4.05 8.9 4.15 8.55 4.25 8.5 4.45 8.45 4.65 8.85 4.6 L9.45 4.65 9.6 4.95 Q9.6 5.8 9.85 5.7 L10.05 5.45 10.2 5.0 10.55 3.9 Q10.4 3.25 10.8 2.3 L11.2 0.9 11.2 1.55 Q11.25 2.25 11.55 2.45 12.45 3.15 12.15 3.85 11.75 4.9 12.1 5.8 L12.5 6.15 12.7 5.8 Q12.65 5.55 12.95 5.1 L13.2 4.65 13.1 5.0 13.25 5.65 Q14.2 6.75 14.05 7.25 13.8 8.3 14.05 8.35 L14.25 7.95 14.85 7.05 14.65 7.5 Q14.5 8.05 14.7 8.4 L15.15 9.35 15.3 10.15 15.3 10.8 Q15.35 11.25 15.5 11.2 L15.75 10.7 16.05 10.15 Q16.25 12.0 15.3 12.65 L15.1 14.05 Q14.85 15.6 14.3 16.2 12.85 17.7 10.5 17.95 8.75 18.15 6.1 17.95 L4.35 17.4 Q3.1 16.9 2.45 16.4 1.8 15.9 0.9 14.1 0.0 12.25 0.0 11.45 0.05 10.1 0.55 10.95 L0.85 11.2 1.0 10.65 Q1.3 8.45 1.75 8.1 3.2 7.2 3.2 6.75 L3.15 5.65 3.8 4.85 3.6 5.5 Q3.45 6.2 3.65 6.25 L4.15 5.9 4.35 5.05 Q4.3 4.65 4.6 4.0 L5.15 3.1 5.45 2.5 Q5.5 2.15 5.15 1.5 L5.6 1.8 6.0 2.2 5.8 2.75 Q5.65 3.15 5.8 3.3 L6.05 3.75 6.05 4.15 Q5.45 5.05 6.2 5.2 L6.55 4.4 7.05 3.45 7.5 3.25 7.8 3.05 8.05 2.7 8.1 2.1 Q7.85 0.5 8.45 0.0 L8.4 0.45 8.65 1.15 Q9.05 1.5 9.0 1.95 L9.1 2.4 9.5 1.95" fill="#000000" fill-rule="evenodd" stroke="none"/>
  </g>
</svg>
