<?xml version="1.0" encoding="UTF-8" standalone="no"?>
<svg xmlns:xlink="http://www.w3.org/1999/xlink" height="20.35px" width="25.25px" xmlns="http://www.w3.org/2000/svg">
  <g transform="matrix(1.0, 0.0, 0.0, 1.0, -0.95, -3.85)">
    <path d="M16.95 4.65 L25.0 8.3 21.25 9.9 25.0 11.5 21.4 13.65 21.3 19.4 13.75 23.55 5.6 19.25 5.75 13.7 2.3 11.45 6.15 9.55 2.2 7.45 10.3 4.5 13.7 6.6 16.95 4.65 M13.75 13.75 L10.2 16.15 13.75 13.75 6.15 9.55 13.75 13.75 21.25 9.9 13.75 13.75 17.1 16.15 13.75 13.75 13.75 23.55 13.75 13.75 M13.7 6.6 L6.15 9.55 13.7 6.6 21.25 9.9 13.7 6.6 M21.4 13.65 L17.1 16.15 21.4 13.65 M10.2 16.15 L5.75 13.7 10.2 16.15" fill="#ffff00" fill-rule="evenodd" stroke="none"/>
    <path d="M16.95 4.65 L25.0 8.3 21.25 9.9 M25.0 11.5 L21.4 13.65 17.1 16.15 M21.3 19.4 L13.75 23.55 M5.6 19.25 L5.75 13.7 M2.3 11.45 L6.15 9.55 M2.2 7.45 L10.3 4.5 13.7 6.6" fill="none" stroke="#000000" stroke-linecap="square" stroke-linejoin="miter-clip" stroke-miterlimit="3.0" stroke-width="1.0"/>
    <path d="M10.2 16.15 L13.75 13.75" fill="none" stroke="#000000" stroke-linecap="round" stroke-linejoin="miter-clip" stroke-miterlimit="3.0" stroke-width="1.0"/>
    <path d="M13.75 13.75 L6.15 9.55 M21.25 9.9 L13.75 13.75 13.75 23.55" fill="none" stroke="#000000" stroke-linecap="round" stroke-linejoin="round" stroke-width="1.0"/>
    <path d="M21.25 9.9 L25.0 11.5 M21.4 13.65 L21.3 19.4 M13.75 23.55 L5.6 19.25 M5.75 13.7 L2.3 11.45 M6.15 9.55 L2.2 7.45 M13.7 6.6 L16.95 4.65 M6.15 9.55 L13.7 6.6 21.25 9.9 M13.75 13.75 L17.1 16.15" fill="none" stroke="#000000" stroke-linecap="round" stroke-linejoin="miter-clip" stroke-miterlimit="3.0" stroke-width="1.0"/>
    <path d="M5.75 13.7 L10.2 16.15" fill="none" stroke="#000000" stroke-linecap="round" stroke-linejoin="miter-clip" stroke-miterlimit="3.0" stroke-width="1.0"/>
  </g>
</svg>
