<?xml version="1.0" encoding="UTF-8" standalone="no"?>
<svg xmlns:xlink="http://www.w3.org/1999/xlink" height="31.0px" width="66.0px" xmlns="http://www.w3.org/2000/svg">
  <g transform="matrix(1.0, 0.0, 0.0, 1.0, 0.5, 0.5)">
    <path d="M0.0 26.0 L0.0 22.8 0.0 9.95 0.0 4.0 Q0.0 0.0 4.0 0.0 L9.95 0.0 55.05 0.0 61.0 0.0 Q65.0 0.0 65.0 4.0 L65.0 9.95 65.0 22.8 65.0 26.0 Q65.0 30.0 61.0 30.0 L55.05 30.0 9.95 30.0 4.0 30.0 Q0.0 30.0 0.0 26.0" fill="url(#gradient0)" fill-rule="evenodd" stroke="none"/>
    <path d="M0.0 26.0 Q0.0 30.0 4.0 30.0 L9.95 30.0 55.05 30.0 61.0 30.0 Q65.0 30.0 65.0 26.0 L65.0 22.8 65.0 9.95 65.0 4.0 Q65.0 0.0 61.0 0.0 L55.05 0.0 9.95 0.0 4.0 0.0 Q0.0 0.0 0.0 4.0 L0.0 9.95 0.0 22.8 0.0 26.0 Z" fill="none" stroke="#666666" stroke-linecap="round" stroke-linejoin="round" stroke-width="1.0"/>
  </g>
  <defs>
    <linearGradient gradientTransform="matrix(0.0, -0.0244, 0.0183, 0.0, 32.5, 15.0)" gradientUnits="userSpaceOnUse" id="gradient0" spreadMethod="pad" x1="-819.2" x2="819.2">
      <stop offset="0.0" stop-color="#f7dd00"/>
      <stop offset="1.0" stop-color="#fdfd02"/>
    </linearGradient>
  </defs>
</svg>
