<?xml version="1.0" encoding="UTF-8" standalone="no"?>
<svg xmlns:xlink="http://www.w3.org/1999/xlink" height="30.0px" width="190.0px" xmlns="http://www.w3.org/2000/svg">
  <g transform="matrix(1.0, 0.0, 0.0, 1.0, 0.0, 0.0)">
    <path d="M188.75 28.0 L188.75 1.9 Q188.75 0.95 187.75 0.95 L1.75 0.95 Q0.75 0.95 0.75 1.9 L0.75 28.0 Q0.75 28.95 1.75 28.95 L187.75 28.95 Q188.75 28.95 188.75 28.0 M188.0 0.0 Q190.0 0.0 190.0 1.95 L190.0 28.05 Q190.0 30.0 188.0 30.0 L2.0 30.0 Q0.0 30.0 0.0 28.05 L0.0 1.95 Q0.0 0.0 2.0 0.0 L188.0 0.0" fill="#666666" fill-rule="evenodd" stroke="none"/>
  </g>
</svg>
