<?xml version="1.0" encoding="UTF-8" standalone="no"?>
<svg xmlns:xlink="http://www.w3.org/1999/xlink" height="160.0px" width="294.5px" xmlns="http://www.w3.org/2000/svg">
  <g transform="matrix(1.0, 0.0, 0.0, 1.0, 110.2, 52.0)">
    <path d="M180.3 -52.0 Q184.3 -52.0 184.3 -48.0 L184.3 18.0 Q184.3 22.0 180.3 22.0 L171.8 22.0 166.85 22.0 73.85 22.0 -97.2 22.0 Q-101.2 22.0 -101.2 18.0 L-101.2 -25.0 -110.2 -28.0 -101.2 -38.0 -101.2 -48.0 Q-101.2 -52.0 -97.2 -52.0 L180.3 -52.0" fill="#ffffff" fill-opacity="0.9019608" fill-rule="evenodd" stroke="none"/>
    <path d="M180.3 -52.0 L-97.2 -52.0 Q-101.2 -52.0 -101.2 -48.0 L-101.2 -38.0 -110.2 -28.0 -101.2 -25.0 -101.2 18.0 Q-101.2 22.0 -97.2 22.0 L73.85 22.0 166.85 22.0 171.8 22.0 180.3 22.0 Q184.3 22.0 184.3 18.0 L184.3 -48.0 Q184.3 -52.0 180.3 -52.0 Z" fill="none" stroke="#000000" stroke-linecap="round" stroke-linejoin="round" stroke-opacity="0.49803922" stroke-width="0.05"/>
    <path d="M-86.6 108.0 L-88.8 108.0 Q-87.2 107.2 -86.6 108.0" fill="#000000" fill-rule="evenodd" stroke="none"/>
  </g>
</svg>
