<?xml version="1.0" encoding="UTF-8" standalone="no"?>
<svg xmlns:xlink="http://www.w3.org/1999/xlink" height="195.0px" width="536.0px" xmlns="http://www.w3.org/2000/svg">
  <g transform="matrix(1.0, 0.0, 0.0, 1.0, 265.5, 80.5)">
    <path d="M262.0 -80.0 Q270.0 -80.0 270.0 -72.0 L270.0 106.0 Q270.0 114.0 262.0 114.0 L-257.0 114.0 Q-265.0 114.0 -265.0 106.0 L-265.0 -72.0 Q-265.0 -80.0 -257.0 -80.0 L262.0 -80.0" fill="#ffffff" fill-opacity="0.7058824" fill-rule="evenodd" stroke="none"/>
    <path d="M262.0 -80.0 L-257.0 -80.0 Q-265.0 -80.0 -265.0 -72.0 L-265.0 106.0 Q-265.0 114.0 -257.0 114.0 L262.0 114.0 Q270.0 114.0 270.0 106.0 L270.0 -72.0 Q270.0 -80.0 262.0 -80.0 Z" fill="none" stroke="#333333" stroke-linecap="round" stroke-linejoin="round" stroke-opacity="0.49803922" stroke-width="1.0"/>
  </g>
</svg>
