<?xml version="1.0" encoding="UTF-8" standalone="no"?>
<svg xmlns:xlink="http://www.w3.org/1999/xlink" height="51.0px" width="51.0px" xmlns="http://www.w3.org/2000/svg">
  <g transform="matrix(1.0, 0.0, 0.0, 1.0, 25.5, 25.5)">
    <path d="M15.45 -20.25 L15.2 -10.5 25.0 -7.75 18.7 -0.05 25.0 7.7 15.2 10.45 15.45 20.25 5.8 16.95 0.05 25.0 -5.75 16.95 -15.4 20.25 -15.15 10.45 -25.0 7.7 -18.7 0.0 -25.0 -7.75 -15.15 -10.5 -15.4 -20.25 -5.75 -16.95 0.05 -25.0 5.8 -16.95 15.45 -20.25" fill="#ffcc00" fill-rule="evenodd" stroke="none"/>
    <path d="M15.45 -20.25 L15.2 -10.5 25.0 -7.75 18.7 -0.05 25.0 7.7 15.2 10.45 15.45 20.25 5.8 16.95 0.05 25.0 -5.75 16.95 -15.4 20.25 -15.15 10.45 -25.0 7.7 -18.7 0.0 -25.0 -7.75 -15.15 -10.5 -15.4 -20.25 -5.75 -16.95 0.05 -25.0 5.8 -16.95 15.45 -20.25 Z" fill="none" stroke="#ff6600" stroke-linecap="round" stroke-linejoin="round" stroke-width="1.0"/>
  </g>
</svg>
