<?xml version="1.0" encoding="UTF-8" standalone="no"?>
<svg xmlns:xlink="http://www.w3.org/1999/xlink" height="31.0px" width="66.0px" xmlns="http://www.w3.org/2000/svg">
  <g transform="matrix(1.0, 0.0, 0.0, 1.0, 0.5, 0.5)">
    <path d="M0.0 26.0 L0.0 24.3 0.0 5.95 0.0 4.0 Q0.0 0.0 4.0 0.0 L5.7 0.0 59.3 0.0 61.0 0.0 Q65.0 0.0 65.0 4.0 L65.0 5.95 65.0 24.3 65.0 26.0 Q65.0 30.0 61.0 30.0 L59.3 30.0 5.7 30.0 4.0 30.0 Q0.0 30.0 0.0 26.0" fill="url(#gradient0)" fill-rule="evenodd" stroke="none"/>
    <path d="M0.0 26.0 Q0.0 30.0 4.0 30.0 L5.7 30.0 59.3 30.0 61.0 30.0 Q65.0 30.0 65.0 26.0 L65.0 24.3 65.0 5.95 65.0 4.0 Q65.0 0.0 61.0 0.0 L59.3 0.0 5.7 0.0 4.0 0.0 Q0.0 0.0 0.0 4.0 L0.0 5.95 0.0 24.3 0.0 26.0 Z" fill="none" stroke="#666666" stroke-linecap="round" stroke-linejoin="round" stroke-width="1.0"/>
  </g>
  <defs>
    <linearGradient gradientTransform="matrix(0.0, -0.0237, 0.0183, 0.0, 32.5, 15.0)" gradientUnits="userSpaceOnUse" id="gradient0" spreadMethod="pad" x1="-819.2" x2="819.2">
      <stop offset="0.0" stop-color="#64513b"/>
      <stop offset="1.0" stop-color="#9c7e5d"/>
    </linearGradient>
  </defs>
</svg>
