<?xml version="1.0" encoding="UTF-8" standalone="no"?>
<svg xmlns:xlink="http://www.w3.org/1999/xlink" height="17.0px" width="88.0px" xmlns="http://www.w3.org/2000/svg">
  <g transform="matrix(1.0, 0.0, 0.0, 1.0, 0.5, -1.2)">
    <path d="M85.0 1.7 Q87.0 1.7 87.0 3.7 L87.0 15.7 Q87.0 17.7 85.0 17.7 L2.0 17.7 Q0.0 17.7 0.0 15.7 L0.0 3.7 Q0.0 1.7 2.0 1.7 L85.0 1.7" fill="#ff0000" fill-rule="evenodd" stroke="none"/>
    <path d="M2.0 17.7 L85.0 17.7 Q87.0 17.7 87.0 15.7 L87.0 3.7 Q87.0 1.7 85.0 1.7" fill="none" stroke="#000000" stroke-linecap="round" stroke-linejoin="round" stroke-opacity="0.49803922" stroke-width="1.0"/>
    <path d="M85.0 1.7 L2.0 1.7 Q0.0 1.7 0.0 3.7 L0.0 15.7 Q0.0 17.7 2.0 17.7" fill="none" stroke="#ff9900" stroke-linecap="round" stroke-linejoin="round" stroke-width="1.0"/>
  </g>
</svg>
