<?xml version="1.0" encoding="UTF-8" standalone="no"?>
<svg xmlns:xlink="http://www.w3.org/1999/xlink" height="411.0px" width="675.45px" xmlns="http://www.w3.org/2000/svg">
  <g transform="matrix(1.0, 0.0, 0.0, 1.0, 337.5, 195.5)">
    <path d="M-188.35 -166.75 L-184.35 -162.7 -188.35 -158.65 -196.4 -150.55 -196.4 215.0 -337.0 215.0 -337.0 -195.0 -196.4 -195.0 -196.4 -174.8 -188.35 -166.75" fill="#f2f2f2" fill-rule="evenodd" stroke="none"/>
    <path d="M-188.35 -166.75 L-188.35 -174.8 -188.35 -195.0 0.45 -195.0 0.45 -174.8 7.5 -167.75 7.5 -166.8 7.5 -166.75 11.4 -162.7 7.5 -158.65 7.5 -158.6 7.5 -157.65 0.45 -150.55 0.45 215.0 -188.35 215.0 -188.35 -150.55 -188.35 -158.6 -184.35 -162.65 -184.35 -162.7 -188.35 -166.75" fill="#f7f7f7" fill-rule="evenodd" stroke="none"/>
    <path d="M7.5 -157.65 L7.5 -158.6 11.4 -162.65 11.4 -162.7 7.5 -166.75 7.5 -166.8 7.5 -167.75 7.5 -195.0 181.15 -195.0 314.25 -195.0 318.2 -195.0 337.45 -195.0 337.45 215.0 318.2 215.0 314.25 215.0 181.15 215.0 7.5 215.0 7.5 -157.6 7.5 -157.65" fill="#fbfbfb" fill-rule="evenodd" stroke="none"/>
    <path d="M7.5 -167.75 L0.45 -174.8 0.45 -195.0 -188.35 -195.0 -188.35 -174.8 -188.35 -166.75 -184.35 -162.7 M-184.35 -162.65 L-188.35 -158.6 -188.35 -150.55 -188.35 215.0 0.45 215.0 0.45 -150.55 7.5 -157.65 7.5 -158.6 11.4 -162.65 M11.4 -162.7 L7.5 -166.75 7.5 -166.8 M7.5 -167.75 L7.5 -195.0 181.15 -195.0 314.25 -195.0 318.2 -195.0 337.45 -195.0 337.45 215.0 318.2 215.0 314.25 215.0 181.15 215.0 7.5 215.0 7.5 -157.6 M-188.35 -166.75 L-196.4 -174.8 -196.4 -195.0 -337.0 -195.0 -337.0 215.0 -196.4 215.0 -196.4 -150.55 -188.35 -158.65" fill="none" stroke="#666666" stroke-linecap="round" stroke-linejoin="bevel" stroke-width="1.0"/>
  </g>
</svg>
