<?xml version="1.0" encoding="UTF-8" standalone="no"?>
<svg xmlns:xlink="http://www.w3.org/1999/xlink" height="146.05px" width="221.0px" xmlns="http://www.w3.org/2000/svg">
  <g transform="matrix(1.0, 0.0, 0.0, 1.0, -146.2, -39.5)">
    <path d="M356.7 53.7 Q366.7 53.7 366.7 64.6 L366.7 152.5 366.7 165.0 366.7 174.1 Q366.7 185.05 356.7 185.05 L351.7 185.05 156.7 185.05 Q146.7 185.05 146.7 174.1 L146.7 165.0 146.7 152.5 146.7 64.6 Q146.7 53.7 156.7 53.7 L171.7 53.7 180.0 40.0 188.35 53.7 356.7 53.7" fill="#ffff99" fill-rule="evenodd" stroke="none"/>
    <path d="M356.7 53.7 L188.35 53.7 180.0 40.0 171.7 53.7 156.7 53.7 Q146.7 53.7 146.7 64.6 L146.7 152.5 146.7 165.0 146.7 174.1 Q146.7 185.05 156.7 185.05 L351.7 185.05 356.7 185.05 Q366.7 185.05 366.7 174.1 L366.7 165.0 366.7 152.5 366.7 64.6 Q366.7 53.7 356.7 53.7 Z" fill="none" stroke="#000000" stroke-linecap="round" stroke-linejoin="round" stroke-width="1.0"/>
  </g>
</svg>
