<?xml version="1.0" encoding="UTF-8" standalone="no"?>
<svg xmlns:xlink="http://www.w3.org/1999/xlink" height="41.0px" width="41.0px" xmlns="http://www.w3.org/2000/svg">
  <g transform="matrix(1.0, 0.0, 0.0, 1.0, 0.5, 0.5)">
    <path d="M40.0 20.0 Q40.0 28.3 34.15 34.15 28.3 40.0 20.0 40.0 11.7 40.0 5.85 34.15 0.0 28.3 0.0 20.0 0.0 11.7 5.85 5.85 11.7 0.0 20.0 0.0 28.3 0.0 34.15 5.85 40.0 11.7 40.0 20.0" fill="#ffffff" fill-rule="evenodd" stroke="none"/>
    <path d="M40.0 20.0 Q40.0 28.3 34.15 34.15 28.3 40.0 20.0 40.0 11.7 40.0 5.85 34.15 0.0 28.3 0.0 20.0 0.0 11.7 5.85 5.85 11.7 0.0 20.0 0.0 28.3 0.0 34.15 5.85 40.0 11.7 40.0 20.0 Z" fill="none" stroke="#000000" stroke-linecap="round" stroke-linejoin="round" stroke-opacity="0.49803922" stroke-width="1.0"/>
  </g>
</svg>
