<?xml version="1.0" encoding="UTF-8" standalone="no"?>
<svg xmlns:xlink="http://www.w3.org/1999/xlink" height="58.65px" width="60.1px" xmlns="http://www.w3.org/2000/svg">
  <g transform="matrix(1.0, 0.0, 0.0, 1.0, 30.05, 56.15)">
    <path d="M26.4 -24.25 Q27.65 -25.55 27.55 -26.8 27.65 -28.1 26.4 -29.35 L3.25 -52.5 Q0.95 -54.75 -1.3 -52.5 L-8.65 -45.15 Q-10.9 -42.9 -8.65 -40.6 L-4.85 -36.9 -4.65 -36.6 -3.65 -35.65 -24.35 -35.65 Q-27.55 -35.65 -27.55 -32.45 L-27.55 -22.05 Q-27.55 -18.85 -24.35 -18.85 L-2.8 -18.85 -4.65 -17.0 -4.95 -16.65 -8.65 -13.0 Q-10.9 -10.75 -8.65 -8.5 L-1.3 -1.15 Q0.95 1.15 3.25 -1.15 L9.45 -7.3 9.45 -7.35 26.4 -24.25 Z" fill="none" stroke="#156210" stroke-linecap="round" stroke-linejoin="round" stroke-width="5.0"/>
    <path d="M9.45 -8.3 L3.25 -2.15 Q0.95 0.15 -1.3 -2.15 L-8.65 -9.5 Q-10.9 -11.75 -8.65 -14.0 L-4.95 -17.65 -4.65 -18.0 -2.8 -19.85 -24.35 -19.85 Q-27.55 -19.85 -27.55 -23.05 L-27.55 -33.45 Q-27.55 -36.65 -24.35 -36.65 L-3.65 -36.65 -4.65 -37.6 -4.85 -37.9 -8.65 -41.6 Q-10.9 -43.9 -8.65 -46.15 L-1.3 -53.5 Q0.95 -55.75 3.25 -53.5 L26.4 -30.35 Q27.65 -29.1 27.55 -27.8 27.65 -26.55 26.4 -25.25 L9.45 -8.35 9.45 -8.3" fill="#00b42c" fill-rule="evenodd" stroke="none"/>
    <path d="M5.2 -51.55 Q2.9 -53.7 0.7 -51.5 L-6.65 -44.15 Q-8.7 -42.1 -7.0 -40.0 L-8.65 -41.6 -8.95 -41.95 Q-10.7 -44.1 -8.65 -46.15 L-1.3 -53.5 Q0.9 -55.7 3.2 -53.55 L5.2 -51.55 M-27.35 -21.75 L-27.55 -23.05 -27.55 -33.45 Q-27.55 -36.65 -24.35 -36.65 L-3.65 -36.65 -4.65 -37.6 -4.8 -37.8 -2.85 -35.9 -2.8 -35.8 -2.65 -35.6 -1.65 -34.65 -22.35 -34.65 Q-25.55 -34.65 -25.55 -31.45 L-25.55 -21.6 -26.1 -21.6 -27.35 -21.75" fill="#07d544" fill-rule="evenodd" stroke="none"/>
    <path d="M25.8 -29.55 Q25.9 -30.8 24.75 -32.0 L26.4 -30.35 Q27.65 -29.1 27.55 -27.8 27.65 -26.55 26.4 -25.25 L9.45 -8.35 9.45 -8.3 3.25 -2.15 Q0.95 0.15 -1.3 -2.15 L-2.85 -3.7 Q-0.7 -1.7 1.5 -3.9 L7.7 -10.05 7.7 -10.1 24.65 -27.0 Q25.9 -28.3 25.8 -29.55 M-27.35 -21.75 L-26.1 -21.6 -25.55 -21.6 -4.55 -21.6 -2.85 -19.85 -24.35 -19.85 Q-26.8 -19.85 -27.35 -21.75" fill="#008b16" fill-rule="evenodd" stroke="none"/>
  </g>
</svg>
