<?xml version="1.0" encoding="UTF-8" standalone="no"?>
<svg xmlns:xlink="http://www.w3.org/1999/xlink" height="26.0px" width="111.0px" xmlns="http://www.w3.org/2000/svg">
  <g transform="matrix(1.0, 0.0, 0.0, 1.0, 0.5, 0.5)">
    <path d="M97.85 25.0 L12.2 25.0 Q7.2 24.9 3.65 21.35 0.1 17.8 0.0 12.8 L0.0 12.2 Q0.1 7.2 3.65 3.65 7.2 0.1 12.2 0.0 L97.85 0.0 Q102.8 0.1 106.35 3.65 110.0 7.3 110.0 12.5 110.0 17.7 106.35 21.35 102.8 24.9 97.85 25.0" fill="url(#gradient0)" fill-rule="evenodd" stroke="none"/>
    <path d="M97.85 25.0 L12.2 25.0 Q7.2 24.9 3.65 21.35 0.1 17.8 0.0 12.8 L0.0 12.2 Q0.1 7.2 3.65 3.65 7.2 0.1 12.2 0.0 L97.85 0.0 Q102.8 0.1 106.35 3.65 110.0 7.3 110.0 12.5 110.0 17.7 106.35 21.35 102.8 24.9 97.85 25.0 Z" fill="none" stroke="#333333" stroke-linecap="round" stroke-linejoin="round" stroke-width="1.0"/>
  </g>
  <defs>
    <linearGradient gradientTransform="matrix(0.0671, 0.0, 0.0, 0.0153, 55.0, 12.5)" gradientUnits="userSpaceOnUse" id="gradient0" spreadMethod="pad" x1="-819.2" x2="819.2">
      <stop offset="0.1568627450980392" stop-color="#ffee00"/>
      <stop offset="0.807843137254902" stop-color="#ff7000"/>
    </linearGradient>
  </defs>
</svg>
