<?xml version="1.0" encoding="UTF-8" standalone="no"?>
<svg xmlns:xlink="http://www.w3.org/1999/xlink" height="15.0px" width="15.0px" xmlns="http://www.w3.org/2000/svg">
  <g transform="matrix(1.0, 0.0, 0.0, 1.0, -4.9, -4.9)">
    <path d="M14.4 5.4 L14.4 10.6 19.4 10.6 19.4 14.6 14.4 14.6 14.4 19.4 10.4 19.4 10.4 14.6 5.4 14.6 5.4 10.6 10.4 10.6 10.4 5.4 14.4 5.4" fill="#543201" fill-rule="evenodd" stroke="none"/>
    <path d="M14.4 5.4 L14.4 10.6 19.4 10.6 19.4 14.6 14.4 14.6 14.4 19.4 10.4 19.4 10.4 14.6 5.4 14.6 5.4 10.6 10.4 10.6 10.4 5.4 14.4 5.4 Z" fill="none" stroke="#543201" stroke-linecap="round" stroke-linejoin="round" stroke-width="1.0"/>
  </g>
</svg>
