<?xml version="1.0" encoding="UTF-8" standalone="no"?>
<svg xmlns:xlink="http://www.w3.org/1999/xlink" height="26.0px" width="26.0px" xmlns="http://www.w3.org/2000/svg">
  <g transform="matrix(1.0, 0.0, 0.0, 1.0, 0.5, 0.5)">
    <path d="M21.35 21.35 Q17.7 25.0 12.5 25.0 7.3 25.0 3.65 21.35 0.0 17.7 0.0 12.5 0.0 7.3 3.65 3.65 7.3 0.0 12.5 0.0 17.7 0.0 21.35 3.65 25.0 7.3 25.0 12.5 25.0 17.7 21.35 21.35" fill="#999999" fill-rule="evenodd" stroke="none"/>
    <path d="M21.35 21.35 Q17.7 25.0 12.5 25.0 7.3 25.0 3.65 21.35 0.0 17.7 0.0 12.5 0.0 7.3 3.65 3.65 7.3 0.0 12.5 0.0 17.7 0.0 21.35 3.65 25.0 7.3 25.0 12.5 25.0 17.7 21.35 21.35 Z" fill="none" stroke="#333333" stroke-linecap="round" stroke-linejoin="round" stroke-width="1.0"/>
    <path d="M18.25 5.0 L18.25 7.95 9.25 8.75 9.25 5.8 18.25 5.0 M18.1 16.3 L18.2 16.75 Q18.2 17.45 17.4 18.0 16.65 18.65 15.55 18.8 L13.65 18.55 Q12.85 18.1 12.85 17.45 12.85 16.75 13.65 16.15 14.4 15.55 15.55 15.4 16.65 15.25 17.4 15.65 17.95 15.9 18.1 16.3 M9.25 16.75 Q9.25 17.45 8.45 18.0 7.7 18.65 6.6 18.8 L4.7 18.55 Q3.9 18.1 3.9 17.45 3.9 16.75 4.7 16.15 5.45 15.55 6.6 15.4 L8.45 15.65 9.2 16.4 9.25 16.75" fill="#333333" fill-rule="evenodd" stroke="none"/>
    <path d="M18.25 7.95 L18.25 5.0 M9.25 5.8 L9.25 8.75 9.2 16.4" fill="none" stroke="#333333" stroke-linecap="round" stroke-linejoin="round" stroke-width="1.0"/>
    <path d="M18.25 5.0 L9.25 5.8 M9.25 8.75 L18.25 7.95 18.1 16.3 18.2 16.75 Q18.2 17.45 17.4 18.0 16.65 18.65 15.55 18.8 L13.65 18.55 Q12.85 18.1 12.85 17.45 12.85 16.75 13.65 16.15 14.4 15.55 15.55 15.4 16.65 15.25 17.4 15.65 17.95 15.9 18.1 16.3 M9.25 16.75 L9.2 16.4 8.45 15.65 6.6 15.4 Q5.45 15.55 4.7 16.15 3.9 16.75 3.9 17.45 3.9 18.1 4.7 18.55 L6.6 18.8 Q7.7 18.65 8.45 18.0 9.25 17.45 9.25 16.75 Z" fill="none" stroke="#333333" stroke-linecap="round" stroke-linejoin="miter-clip" stroke-miterlimit="3.0" stroke-width="1.0"/>
  </g>
</svg>
