<?xml version="1.0" encoding="UTF-8" standalone="no"?>
<svg xmlns:xlink="http://www.w3.org/1999/xlink" height="92.0px" width="87.0px" xmlns="http://www.w3.org/2000/svg">
  <g transform="matrix(1.0, 0.0, 0.0, 1.0, 1.0, 1.0)">
    <path d="M0.0 80.0 L0.0 75.05 0.0 14.95 0.0 10.0 Q0.0 0.0 10.0 0.0 L14.95 0.0 75.0 0.0 Q85.0 0.0 85.0 10.0 L85.0 14.95 85.0 75.05 85.0 80.0 Q85.0 90.0 75.0 90.0 L14.95 90.0 10.0 90.0 Q0.0 90.0 0.0 80.0" fill="#f2f2f2" fill-rule="evenodd" stroke="none"/>
    <path d="M0.0 80.0 Q0.0 90.0 10.0 90.0 L14.95 90.0 75.0 90.0 Q85.0 90.0 85.0 80.0 L85.0 75.05 85.0 14.95 85.0 10.0 Q85.0 0.0 75.0 0.0 L14.95 0.0 10.0 0.0 Q0.0 0.0 0.0 10.0 L0.0 14.95 0.0 75.05 0.0 80.0 Z" fill="none" stroke="#666666" stroke-linecap="round" stroke-linejoin="round" stroke-width="2.0"/>
  </g>
</svg>
