<?xml version="1.0" encoding="UTF-8" standalone="no"?>
<svg xmlns:xlink="http://www.w3.org/1999/xlink" height="70.2px" width="88.0px" xmlns="http://www.w3.org/2000/svg">
  <g transform="matrix(1.0, 0.0, 0.0, 1.0, 0.0, 0.0)">
    <path d="M81.0 29.0 Q84.25 29.75 84.9 33.0 L85.0 34.0 86.0 34.0 Q86.5 34.0 86.75 34.25 L87.0 35.0 88.0 35.0 88.0 41.0 88.0 42.0 87.0 42.0 86.85 42.55 Q85.05 43.05 84.0 44.0 83.3 47.2 84.75 48.3 L85.0 49.0 86.0 49.0 Q86.5 49.0 86.75 49.25 L87.0 50.0 88.0 50.0 88.0 56.0 88.0 57.0 87.0 57.0 86.0 57.0 85.0 57.0 Q85.0 57.5 84.8 57.6 84.0 58.0 83.0 58.0 L82.8 58.6 Q82.0 59.0 81.0 59.0 L80.85 59.55 Q79.05 60.05 78.0 61.0 L77.5 61.1 Q77.15 62.65 75.0 62.0 L74.85 62.55 Q73.05 63.05 72.0 64.0 71.5 64.0 71.15 64.25 65.85 67.85 59.0 70.0 L58.0 70.0 57.0 70.0 57.0 69.0 56.05 68.85 54.0 68.0 53.25 67.75 Q53.0 67.5 53.0 67.0 L52.05 66.85 48.0 65.0 47.3 64.75 Q46.2 63.3 43.0 64.0 L42.5 64.1 Q42.15 65.65 40.0 65.0 L39.85 65.55 Q38.05 66.05 37.0 67.0 36.5 67.0 36.25 67.25 35.0 68.5 33.0 69.0 L32.5 69.1 Q32.15 70.65 30.0 70.0 L29.0 70.0 28.0 70.0 27.15 69.8 Q25.0 68.5 23.0 67.0 L22.1 66.8 21.0 66.0 20.1 65.8 Q19.5 65.5 19.0 65.0 L18.0 64.9 Q16.0 64.5 15.0 63.0 L14.0 63.0 13.1 62.8 Q10.0 61.0 7.0 59.0 L6.05 58.85 Q3.05 57.95 1.0 56.0 L0.0 56.0 0.0 55.0 0.0 50.0 1.0 50.0 1.0 49.0 2.0 49.0 3.0 49.0 3.0 48.0 4.0 48.0 4.0 47.0 4.0 43.0 3.1 42.8 2.0 42.0 1.5 41.95 Q1.0 38.5 1.0 35.0 L2.0 35.0 2.0 34.0 3.0 34.0 4.0 34.0 4.0 33.0 Q5.7 32.2 5.5 29.0 L6.0 29.0 7.0 29.0 7.0 28.0 7.75 27.75 8.0 27.0 8.0 26.0 8.0 25.0 8.0 24.0 Q11.25 21.75 13.35 18.2 13.5 18.0 14.0 18.0 L14.0 17.0 14.0 13.0 15.0 13.0 16.0 13.0 Q18.15 13.65 18.45 12.1 L19.0 12.0 Q20.05 11.05 22.0 11.0 L23.0 11.0 23.0 10.0 Q25.55 9.55 27.2 8.25 L28.0 8.0 28.0 7.0 Q30.95 6.45 33.1 5.2 L34.0 5.0 34.0 4.0 Q36.15 4.65 36.45 3.1 L37.0 3.0 38.0 3.0 39.0 3.0 39.0 2.0 Q41.15 2.65 41.45 1.1 L42.0 1.0 42.0 0.0 45.0 0.0 46.0 0.0 Q45.9 1.65 48.0 1.5 L48.0 2.0 Q50.0 2.5 51.8 3.4 52.0 3.5 52.0 4.0 L53.0 4.0 Q56.05 5.95 59.85 7.45 L60.0 8.0 Q62.9 8.1 64.3 9.75 L65.0 10.0 Q66.05 10.95 67.85 11.45 L68.0 12.0 69.8 12.4 Q70.0 12.5 70.0 13.0 L71.0 13.0 Q71.5 13.5 72.1 13.8 L73.0 14.0 Q74.7 14.3 74.1 17.0 L74.0 18.0 Q75.0 18.5 76.05 18.85 L77.0 19.0 Q78.7 19.3 78.1 22.0 L78.0 23.0 78.75 23.25 79.0 24.0 80.0 24.0 Q81.7 24.8 81.1 28.0 L81.0 29.0" fill="#ff0000" fill-rule="evenodd" stroke="none"/>
  </g>
</svg>
