<?xml version="1.0" encoding="UTF-8" standalone="no"?>
<svg xmlns:xlink="http://www.w3.org/1999/xlink" height="76.0px" width="119.3px" xmlns="http://www.w3.org/2000/svg">
  <g transform="matrix(1.0, 0.0, 0.0, 1.0, -1.0, -1.0)">
    <path d="M83.5 11.9 L84.0 12.0 Q86.0 12.5 87.25 13.75 L88.0 14.0 Q89.7 14.3 89.1 17.0 L89.0 18.0 91.05 18.85 92.0 19.0 Q93.7 19.3 93.1 22.0 L93.0 23.0 93.75 23.25 94.0 24.0 95.0 24.0 Q96.7 24.8 96.1 28.0 L96.0 29.0 Q99.25 29.75 99.9 33.0 L100.0 34.0 101.0 34.0 Q101.5 34.0 101.75 34.25 L102.0 35.0 Q103.75 37.25 102.55 41.9 L102.0 42.0 101.85 42.55 Q100.05 43.05 99.0 44.0 98.3 47.2 99.75 48.3 L100.0 49.0 101.0 49.0 Q102.0 52.0 103.4 54.8 L104.0 55.0 108.9 55.5 109.0 56.0 Q110.95 56.05 111.75 57.15 L112.0 58.0 112.55 58.15 Q113.75 62.25 111.0 63.0 L110.0 63.0 109.9 63.55 Q105.25 64.75 103.0 63.0 L102.1 62.8 Q101.5 62.5 101.0 62.0 L100.0 61.95 Q98.3 61.7 99.0 59.0 L99.0 58.5 Q96.95 59.45 94.0 60.0 L94.0 61.0 95.75 63.15 96.0 64.0 95.95 65.0 Q95.7 66.7 94.0 67.0 L93.0 67.0 92.75 67.75 92.0 68.0 91.75 68.85 Q90.55 70.55 88.0 71.0 L87.75 71.75 Q85.95 73.45 83.0 74.0 L82.0 74.0 82.0 74.5 Q77.45 74.45 75.0 76.0 L74.9 76.5 70.0 77.0 69.0 77.0 68.0 77.0 68.0 76.0 67.15 75.75 Q66.05 74.95 66.0 73.0 68.15 73.65 68.5 72.1 L69.0 72.0 69.0 71.0 70.0 71.0 70.0 70.0 72.0 70.0 73.0 70.0 73.0 69.0 73.0 68.0 72.0 68.1 Q68.8 68.7 68.0 67.0 L67.0 67.0 66.75 67.85 Q65.55 69.55 63.0 70.0 L62.0 70.0 61.0 70.0 60.75 70.85 Q58.65 73.8 58.0 70.0 L57.0 70.0 54.0 70.0 54.0 69.0 53.25 68.75 Q53.0 68.5 53.0 68.0 L52.0 68.0 49.0 68.0 Q49.0 68.5 48.8 68.6 47.0 69.5 45.0 70.0 L44.0 70.0 43.8 70.6 Q43.0 71.0 42.0 71.0 L42.25 71.75 43.0 72.0 44.0 72.0 45.0 72.0 46.0 72.0 47.0 72.0 47.0 71.0 52.0 71.0 53.0 71.0 53.0 72.0 Q57.1 70.9 56.5 73.9 L56.0 74.0 55.8 74.9 55.0 76.0 54.9 76.5 50.0 77.0 49.25 76.75 Q49.0 76.5 49.0 76.0 L48.0 76.0 45.0 76.0 44.0 76.1 Q40.3 76.7 39.0 75.0 L38.0 74.9 Q36.0 74.5 35.0 73.0 L34.4 72.8 Q33.35 70.65 31.0 70.0 L30.0 70.0 Q29.5 70.0 29.4 69.8 29.0 69.0 29.0 68.0 31.9 68.4 31.1 64.95 L31.0 64.0 30.25 63.75 30.0 63.0 Q29.5 63.0 29.25 63.25 L26.0 66.0 25.0 66.05 Q23.4 66.15 24.0 64.0 L23.0 64.0 Q19.2 63.8 19.0 60.0 19.0 59.5 18.8 59.4 17.3 58.7 17.0 57.0 L16.4 56.8 Q16.0 56.0 16.0 55.0 L15.45 54.9 Q15.0 53.0 15.0 51.0 L14.75 50.25 13.0 49.0 12.0 49.05 Q9.3 49.2 8.0 48.0 L7.15 47.75 Q6.05 46.95 6.0 45.0 7.45 43.45 10.0 43.05 L11.0 43.0 11.0 42.0 13.0 42.0 14.0 42.0 15.0 42.0 Q16.75 39.75 16.5 35.0 L17.0 35.0 17.0 34.0 Q20.15 31.15 22.75 27.8 L23.0 27.0 23.0 26.0 23.0 25.0 23.0 24.0 Q26.25 21.75 28.35 18.2 L29.0 18.0 29.0 17.0 29.0 13.0 30.0 13.0 31.0 13.0 32.0 13.0 Q33.0 12.5 34.05 12.15 L35.0 12.0 35.0 11.0 36.0 11.0 37.0 11.0 37.0 10.0 Q39.95 9.45 42.1 8.2 L43.0 8.0 43.0 7.0 Q45.95 6.45 48.1 5.2 L49.0 5.0 49.0 4.0 Q51.15 4.65 51.45 3.1 L52.0 3.0 53.0 3.0 54.0 3.0 54.0 2.0 55.0 2.0 56.0 2.0 56.0 1.0 60.0 1.0 61.0 1.0 Q63.0 1.5 64.8 2.4 L65.0 3.0 66.0 3.0 Q68.0 3.5 69.25 4.75 L70.0 5.0 71.1 5.8 72.0 6.0 Q76.1 8.4 80.8 10.4 L81.0 11.0 Q83.15 10.4 83.5 11.9 M3.0 49.0 L3.0 48.0 Q3.65 50.35 5.8 51.4 L6.0 52.0 Q7.5 53.0 9.1 53.8 L10.0 54.0 10.5 54.0 Q9.05 58.05 5.0 55.0 L4.0 55.0 2.0 55.0 1.5 54.9 Q1.0 52.0 1.0 49.0 L2.0 49.0 3.0 49.0 M118.0 48.0 L118.0 47.5 Q123.05 50.35 117.0 52.0 L116.0 52.0 114.0 52.0 113.45 51.85 Q112.45 49.05 110.0 48.0 L117.0 48.0 118.0 48.0" fill="#ff0000" fill-rule="evenodd" stroke="none"/>
  </g>
</svg>
