<?xml version="1.0" encoding="UTF-8" standalone="no"?>
<svg xmlns:xlink="http://www.w3.org/1999/xlink" height="84.8px" width="86.0px" xmlns="http://www.w3.org/2000/svg">
  <g transform="matrix(1.0, 0.0, 0.0, 1.0, 43.0, 32.4)">
    <path d="M17.3 -0.2 Q24.4 1.8 30.4 5.6 43.0 13.65 43.0 25.0 43.0 36.35 30.4 44.35 17.8 52.4 0.0 52.4 -17.8 52.4 -30.4 44.35 -43.0 36.35 -43.0 25.0 -43.0 13.65 -30.4 5.6 -25.25 2.3 -19.2 0.4 -21.05 -2.1 -21.05 -5.1 -21.05 -10.4 -15.25 -14.15 -13.3 -15.4 -11.05 -16.2 L-11.05 -20.45 Q-12.9 -22.3 -12.9 -24.55 -12.9 -27.8 -9.1 -30.1 -5.3 -32.4 0.05 -32.4 5.4 -32.4 9.2 -30.1 13.0 -27.8 13.0 -24.55 13.0 -21.4 9.4 -19.1 L9.4 -15.95 12.9 -14.15 Q18.75 -10.4 18.75 -5.1 18.75 -2.45 17.3 -0.2" fill="#ff0000" fill-rule="evenodd" stroke="none"/>
  </g>
</svg>
