<?xml version="1.0" encoding="UTF-8" standalone="no"?>
<svg xmlns:xlink="http://www.w3.org/1999/xlink" height="79.0px" width="67.0px" xmlns="http://www.w3.org/2000/svg">
  <g transform="matrix(1.0, 0.0, 0.0, 1.0, 0.0, -1.0)">
    <path d="M51.0 1.0 L51.5 1.1 Q52.8 6.8 50.0 9.0 L49.75 9.75 49.0 10.0 49.0 12.0 49.0 13.0 Q50.7 13.3 51.4 14.8 51.5 15.0 52.0 15.0 L54.75 17.25 55.0 18.0 56.75 19.25 57.0 20.0 57.8 21.1 58.0 22.0 58.8 23.1 59.0 24.0 Q60.7 25.3 60.1 29.0 L60.0 30.0 Q61.75 34.75 61.05 42.0 L61.0 43.0 Q63.95 43.55 65.75 45.25 L66.0 46.0 67.0 46.0 67.0 49.0 67.0 50.0 67.0 56.0 67.0 57.0 67.0 63.0 67.0 64.0 66.0 64.0 65.75 64.75 64.0 66.0 Q64.0 66.5 63.8 66.6 L62.0 67.0 61.85 67.55 Q57.75 68.7 56.0 67.0 L55.0 67.0 54.0 67.0 53.75 67.65 Q49.75 70.25 45.0 72.0 L44.0 72.0 42.0 72.0 42.1 73.0 Q42.7 75.7 41.0 76.0 L40.8 76.9 Q39.9 78.9 37.0 79.0 L37.0 80.0 36.0 80.0 31.0 80.0 31.0 79.0 30.0 79.05 Q27.3 79.2 27.0 77.0 L26.25 76.75 Q26.0 76.5 26.0 76.0 L25.5 75.95 Q25.2 72.8 23.0 72.0 L22.05 71.85 Q17.25 70.25 14.0 67.0 L13.0 67.0 12.0 67.0 10.0 67.0 9.0 67.1 Q5.8 67.7 5.0 66.0 L4.05 66.1 Q1.9 66.65 2.0 65.0 L1.1 64.8 0.0 64.0 0.0 63.0 0.0 60.0 0.0 59.0 0.0 46.0 1.0 46.0 1.0 45.0 5.05 43.15 6.0 43.0 6.0 42.0 6.0 30.0 7.0 30.0 7.0 29.0 7.0 27.0 7.0 26.0 7.0 24.0 8.0 24.0 8.0 23.0 8.0 22.0 Q9.65 22.15 9.5 20.0 L10.0 20.0 10.0 19.0 Q12.15 18.15 13.35 16.2 13.5 16.0 14.0 16.0 L14.0 15.0 Q16.55 14.55 18.2 13.25 18.5 13.0 19.0 13.0 L19.0 12.0 20.0 12.0 21.0 12.0 21.0 11.0 21.75 10.75 22.0 10.0 22.0 9.0 23.0 9.0 23.0 8.0 23.0 5.0 Q23.5 4.5 24.1 4.2 L25.0 4.0 Q27.35 3.35 29.15 2.2 L30.0 2.0 30.0 1.0 35.9 1.5 36.0 2.0 38.85 2.45 39.0 3.0 43.0 3.0 44.0 3.0 44.0 2.0 47.0 2.0 48.0 2.0 49.1 1.2 50.0 1.0 51.0 1.0 M49.0 21.0 L49.75 21.25 50.0 22.0 Q52.15 21.4 52.5 22.9 L53.0 23.0 53.5 23.0 Q52.15 19.85 49.0 18.0 L49.0 20.0 49.0 21.0 M21.0 16.0 L20.45 16.1 Q20.15 17.65 18.0 17.0 L17.75 17.75 13.0 22.0 13.0 23.0 14.0 23.0 Q16.0 22.5 17.25 21.25 17.5 21.0 18.0 21.0 L19.0 21.0 19.0 20.0 Q20.95 19.95 22.15 19.25 L23.0 19.0 22.95 18.0 Q22.7 16.3 21.0 16.0" fill="#ff0000" fill-rule="evenodd" stroke="none"/>
  </g>
</svg>
