<?xml version="1.0" encoding="UTF-8" standalone="no"?>
<svg xmlns:xlink="http://www.w3.org/1999/xlink" height="91.2px" width="79.15px" xmlns="http://www.w3.org/2000/svg">
  <g transform="matrix(1.0, 0.0, 0.0, 1.0, -0.85, -1.0)">
    <path d="M65.0 7.0 L66.8 7.4 Q67.0 7.5 67.0 8.0 66.1 11.4 69.0 11.5 L69.0 12.0 Q73.65 11.35 73.95 15.0 L74.0 16.0 Q76.15 15.4 76.05 17.0 L76.0 18.0 78.0 18.0 79.0 18.0 80.0 18.0 80.0 19.0 80.0 20.0 79.4 20.2 Q78.7 21.7 76.0 21.0 L76.0 22.0 76.0 23.0 Q77.75 30.25 77.05 40.0 L77.0 41.0 77.05 42.0 Q77.75 51.75 76.0 59.0 L75.75 59.75 75.0 60.0 74.75 60.75 73.0 62.0 Q71.55 67.45 76.0 67.5 L76.0 68.0 77.8 68.4 78.0 69.0 Q79.65 68.9 79.1 71.05 L79.0 72.0 78.75 72.85 Q77.95 73.95 76.0 74.0 L75.9 74.55 Q71.25 75.75 69.0 74.0 L68.1 73.8 Q67.5 73.5 67.0 73.0 L66.15 72.75 Q65.05 71.95 65.0 70.0 L68.1 68.2 69.0 68.0 69.0 67.0 71.0 67.0 72.0 67.0 72.0 66.0 72.0 63.0 71.0 63.0 70.8 63.6 Q68.0 65.0 65.0 66.0 L64.0 66.0 63.85 66.55 Q61.05 67.55 59.0 69.0 L58.0 69.0 57.85 69.55 Q55.05 70.55 53.0 72.0 L52.0 72.0 51.85 72.55 Q49.05 73.55 47.0 75.0 L46.0 75.0 42.0 75.0 42.1 76.0 Q42.7 79.2 41.0 80.0 L40.75 80.85 Q39.95 81.95 38.0 82.0 37.35 84.65 40.0 84.5 L40.0 85.0 41.8 85.4 42.0 86.0 Q45.45 87.6 42.7 90.75 L42.0 91.0 Q41.5 91.0 41.4 91.2 40.7 92.7 38.0 92.0 L37.0 92.0 35.0 92.0 34.0 91.9 Q32.0 91.5 31.0 90.0 L30.45 89.85 Q30.0 88.5 30.0 87.0 L30.0 86.0 Q31.95 85.95 33.15 85.25 33.5 85.0 34.0 85.0 L35.0 85.0 36.0 85.0 36.0 84.0 36.0 83.0 36.0 82.0 36.0 81.0 35.1 80.8 34.0 80.0 33.25 79.75 33.0 79.0 32.05 78.85 Q28.05 77.45 25.0 75.0 L24.0 75.0 23.15 74.8 19.0 72.0 18.0 72.0 17.15 71.75 Q15.95 71.05 14.0 71.0 L14.0 72.0 Q14.5 72.0 14.55 72.15 16.1 76.1 13.0 76.0 13.0 76.5 12.8 76.6 12.0 77.0 11.0 77.0 L10.85 77.55 Q6.8 78.7 5.0 77.0 L4.05 76.85 Q3.0 76.5 2.0 76.0 L1.25 75.75 Q1.0 75.5 1.0 75.0 L1.0 74.0 1.0 72.0 Q2.95 71.95 4.15 71.25 L5.0 71.0 6.0 71.0 6.0 70.0 7.0 70.0 7.0 69.0 7.0 67.0 7.0 66.5 Q3.1 66.9 4.0 63.0 L3.75 62.15 Q2.65 60.35 3.0 57.0 L3.0 56.0 3.0 54.0 4.0 54.0 4.0 53.0 4.0 48.0 4.0 47.0 4.0 46.0 3.5 45.95 Q3.0 42.5 3.0 39.0 L3.0 38.0 3.0 28.0 3.0 27.5 Q0.35 27.65 1.0 25.0 L1.0 24.0 1.0 23.0 Q2.5 22.0 4.1 21.2 L5.0 21.0 5.0 20.0 Q7.35 19.35 9.15 18.25 9.5 18.0 10.0 18.0 L11.1 17.2 12.0 17.0 13.0 17.0 14.0 17.0 14.0 16.0 15.0 16.0 16.0 16.0 16.0 15.0 Q18.95 14.45 21.1 13.2 L22.0 13.0 22.0 12.0 23.0 12.0 24.0 12.0 24.0 11.0 Q26.15 11.65 26.45 10.1 L27.0 10.0 26.85 9.05 26.0 7.0 25.4 6.8 Q25.0 6.0 25.0 5.0 L30.05 4.85 31.0 5.0 31.0 4.0 31.0 2.0 Q32.0 2.0 32.8 1.6 L33.0 1.0 34.75 2.25 35.0 3.0 Q35.5 3.5 36.1 3.8 L37.0 4.0 39.0 4.0 40.0 4.0 40.0 3.0 Q43.35 1.3 45.75 3.3 L46.0 4.0 48.85 4.45 49.0 5.0 51.85 5.45 52.0 6.0 53.0 6.0 54.0 6.0 54.0 5.0 Q55.95 4.95 57.15 4.25 L58.0 4.0 58.0 3.0 Q59.65 2.9 59.1 5.05 L59.0 6.0 60.0 6.0 Q61.3 7.2 64.0 7.05 L65.0 7.0" fill="#ff0000" fill-rule="evenodd" stroke="none"/>
  </g>
</svg>
