<?xml version="1.0" encoding="UTF-8" standalone="no"?>
<svg xmlns:xlink="http://www.w3.org/1999/xlink" height="83.0px" width="100.0px" xmlns="http://www.w3.org/2000/svg">
  <g transform="matrix(1.0, 0.0, 0.0, 1.0, 0.0, 0.0)">
    <path d="M83.0 37.0 L83.0 38.0 Q86.25 40.25 86.95 45.0 L87.0 46.0 Q88.5 47.0 88.9 49.0 L89.0 50.0 Q90.95 52.05 91.85 55.05 L92.0 56.0 Q93.7 56.3 93.95 58.0 L94.0 59.0 94.8 60.1 95.0 61.0 95.8 62.1 96.0 63.0 96.75 63.25 97.0 64.0 98.75 65.25 99.0 66.0 100.0 66.0 100.0 67.0 100.0 68.0 99.0 68.05 Q96.2 68.2 94.0 69.0 L93.0 69.0 92.0 69.0 91.8 69.65 Q89.8 70.8 87.0 71.0 L86.9 71.55 Q84.2 72.2 82.0 73.0 L81.0 73.0 80.9 73.55 Q78.2 74.2 76.0 75.0 L75.0 75.0 74.0 75.0 73.95 75.5 Q70.45 75.95 68.0 77.0 L67.75 77.75 67.0 78.0 67.0 79.0 67.05 80.0 Q67.4 82.9 64.0 82.0 L63.0 82.0 60.0 82.0 59.0 82.0 58.9 82.5 54.0 83.0 54.0 82.0 54.0 81.0 54.1 80.0 Q54.7 77.3 53.0 77.0 L52.0 77.1 Q48.3 77.7 47.0 76.0 L49.85 75.55 50.0 75.0 50.0 74.0 50.0 73.0 50.0 69.0 50.0 68.0 50.0 67.0 49.0 67.05 Q46.45 67.45 45.0 69.0 L44.8 69.9 Q43.8 71.8 42.0 73.0 L41.8 73.9 Q40.15 77.65 37.0 75.0 L36.45 74.9 Q36.15 73.4 34.0 74.0 L33.0 74.0 32.0 74.0 32.0 75.0 Q32.5 75.0 32.75 75.25 34.7 77.3 31.0 78.0 L30.0 78.0 29.95 78.5 Q27.3 78.8 26.0 80.0 L25.0 79.9 Q23.0 79.5 22.0 78.0 L21.1 77.8 20.0 77.0 19.2 76.75 14.0 73.0 13.2 72.75 Q7.75 68.75 4.0 63.0 L4.0 62.0 4.0 61.0 4.0 60.0 4.0 58.0 Q3.5 58.0 3.4 57.8 3.0 57.0 3.0 56.0 L2.5 55.9 Q1.9 53.1 0.0 52.0 L0.0 51.0 Q3.15 51.35 3.0 55.0 L3.0 56.0 Q8.6 55.4 11.8 57.35 L12.0 58.0 12.0 59.0 13.0 59.0 13.8 57.9 14.0 57.0 13.45 56.9 Q13.0 55.0 13.0 53.0 14.9 51.9 15.5 49.1 L16.0 49.0 16.0 48.0 16.0 47.0 Q17.65 47.15 17.5 45.0 L18.0 45.0 18.0 44.0 18.0 42.0 Q19.65 42.15 19.1 39.95 L19.0 39.0 19.0 38.0 19.0 37.0 19.0 35.0 Q19.0 34.5 18.8 34.4 17.3 33.7 18.0 31.0 L17.75 30.3 Q16.3 29.2 17.0 26.0 L16.45 25.85 Q16.0 24.5 16.0 23.0 L15.8 22.1 Q14.2 19.3 14.0 15.0 L14.0 14.0 14.0 13.0 Q17.7 14.3 20.75 16.35 L21.0 17.0 22.0 17.0 23.0 17.0 Q24.8 19.7 25.0 24.0 L25.0 25.0 Q26.65 24.9 26.5 27.0 L27.0 27.0 27.0 26.0 28.0 26.0 28.0 25.0 28.0 24.0 Q29.65 24.15 29.5 22.0 L30.0 22.0 30.0 21.0 31.0 21.0 31.0 20.0 32.0 20.0 32.0 19.0 33.0 19.0 34.0 19.0 34.0 18.0 Q35.9 16.9 36.5 14.1 L37.0 14.0 37.0 13.0 37.0 11.0 Q39.7 7.7 41.45 3.15 41.5 3.0 42.0 3.0 L42.0 2.0 42.0 1.0 42.75 0.75 43.0 0.0 46.0 0.0 47.0 0.0 47.0 1.0 47.05 2.0 Q47.85 10.75 46.0 2.0 L45.0 2.0 Q43.05 2.05 42.0 3.0 L41.85 3.95 Q40.25 9.75 37.0 14.0 L37.1 14.95 Q37.65 17.15 36.0 17.0 L36.0 18.0 36.0 19.0 Q41.3 19.7 42.85 24.05 L43.0 25.0 46.0 25.5 46.0 25.0 46.0 24.0 46.0 23.0 Q50.6 18.2 47.2 24.1 L47.0 25.0 Q47.0 26.0 47.4 26.8 47.5 27.0 48.0 27.0 L48.0 26.0 Q52.25 20.25 61.0 19.05 L62.0 19.0 Q69.4 26.6 77.75 33.3 L78.0 34.0 Q80.5 35.0 82.8 36.35 83.0 36.5 83.0 37.0 M83.0 63.0 L82.75 62.15 81.0 60.0 Q80.5 60.0 80.35 60.25 78.75 62.75 75.0 63.0 L74.0 63.0 73.0 63.0 72.15 63.25 Q70.7 64.2 68.0 64.0 L67.75 64.75 67.0 65.0 67.0 66.0 67.0 67.0 67.75 67.25 68.0 68.0 Q67.3 71.2 69.05 71.85 L70.0 72.0 71.0 72.0 72.0 72.0 72.0 71.0 Q76.75 71.25 79.2 69.25 L80.0 69.0 85.05 68.15 86.0 68.0 86.0 67.0 86.0 66.5 Q83.9 66.65 84.0 65.0 L83.8 64.1 83.0 63.0 M48.0 7.0 Q56.1 10.4 48.15 7.55 48.0 7.5 48.0 7.0" fill="#ff0000" fill-rule="evenodd" stroke="none"/>
  </g>
</svg>
