<?xml version="1.0" encoding="UTF-8" standalone="no"?>
<svg xmlns:xlink="http://www.w3.org/1999/xlink" height="143.0px" width="60.0px" xmlns="http://www.w3.org/2000/svg">
  <g transform="matrix(1.0, 0.0, 0.0, 1.0, 0.0, 0.0)">
    <path d="M41.45 6.6 Q42.25 5.9 42.4 5.9 43.45 5.9 44.3 8.4 L46.0 13.0 Q48.9 9.85 50.6 9.85 52.7 9.85 52.7 15.1 52.7 24.7 50.9 32.05 49.45 38.05 48.45 38.05 40.0 56.9 40.0 57.5 L41.5 71.0 42.95 74.95 Q44.5 79.05 44.5 83.05 44.5 83.5 42.75 85.75 41.0 87.95 41.0 91.0 41.0 93.1 41.8 93.8 42.2 94.15 43.65 94.5 46.25 95.05 46.25 99.65 46.25 101.05 44.65 103.35 43.0 105.7 43.0 106.0 43.0 112.75 50.25 119.65 56.9 126.0 60.0 125.0 L60.0 129.0 Q60.0 129.6 59.2 129.4 L58.1 129.2 43.2 136.5 30.0 143.0 Q29.0 143.0 25.6 141.85 21.35 140.45 16.0 138.0 14.0 137.15 7.25 132.5 0.0 127.55 0.0 126.5 0.0 125.85 5.95 121.05 12.15 116.0 14.0 116.0 13.85 113.8 15.6 112.25 17.1 110.9 18.7 110.9 L20.0 111.0 Q20.0 109.9 20.5 108.8 L21.0 107.0 20.5 106.9 Q18.0 96.0 18.0 95.0 18.0 93.85 19.45 89.8 L20.9 85.25 Q20.9 82.75 19.95 81.35 L19.0 80.0 Q19.0 78.3 20.25 75.25 21.45 72.25 21.45 71.65 21.45 69.15 18.65 65.15 16.2 61.6 14.0 60.0 15.8 59.0 16.0 58.3 15.85 57.75 16.0 57.5 14.5 57.8 13.25 57.05 L12.0 56.0 Q12.65 55.65 12.65 55.3 17.7 54.25 19.2 52.15 20.0 51.05 20.0 48.5 20.0 45.25 19.5 42.95 18.85 39.9 16.25 35.85 14.0 32.35 14.0 30.0 14.0 29.45 15.95 26.15 L19.0 20.6 20.45 17.6 Q20.75 17.05 21.0 17.0 15.95 12.55 15.95 5.8 L16.25 3.05 Q16.5 1.05 16.65 1.05 L22.45 0.9 27.05 0.45 26.65 0.4 24.55 0.0 28.0 0.1 Q33.45 0.4 35.0 1.85 36.45 3.15 38.0 8.0 L40.0 8.0 41.45 6.6" fill="#ff0000" fill-opacity="0.9019608" fill-rule="evenodd" stroke="none"/>
  </g>
</svg>
