<?xml version="1.0" encoding="UTF-8" standalone="no"?>
<svg xmlns:xlink="http://www.w3.org/1999/xlink" height="84.0px" width="80.9px" xmlns="http://www.w3.org/2000/svg">
  <g transform="matrix(1.0, 0.0, 0.0, 1.0, 0.0, 0.0)">
    <path d="M68.25 20.4 Q70.45 21.15 73.0 24.65 77.2 23.05 79.35 30.75 80.45 34.6 80.7 38.85 L80.65 39.65 80.7 40.45 Q80.7 41.95 79.95 42.85 L79.25 43.5 Q79.75 44.6 79.75 46.1 L79.75 47.0 79.75 47.7 Q79.75 51.3 77.9 53.6 76.35 55.55 76.1 58.25 L76.55 60.2 77.0 62.65 76.95 63.65 77.0 64.25 Q77.0 65.7 76.45 66.75 L76.3 67.1 78.55 70.35 Q80.9 75.15 80.9 76.0 L80.5 76.25 80.9 77.6 Q69.1 84.0 68.5 84.0 66.95 84.0 61.9 81.5 56.85 78.95 53.2 78.95 L38.0 79.75 Q30.1 80.8 29.95 82.65 L28.15 82.65 Q18.45 83.45 12.95 77.3 8.95 72.85 8.95 68.65 L9.1 68.5 8.95 67.05 Q14.55 57.85 15.05 56.3 14.75 52.3 12.75 48.1 L7.55 39.4 Q0.0 27.4 0.0 16.5 L0.0 15.7 0.0 14.9 Q0.0 10.8 1.0 9.4 2.55 7.25 7.7 7.25 12.7 7.25 15.75 9.7 18.15 11.65 18.15 13.6 L18.15 15.1 18.2 18.95 18.4 22.95 18.3 22.95 18.3 23.0 18.7 23.0 Q22.15 23.0 22.75 14.5 L22.9 0.15 25.9 0.0 27.05 0.15 27.2 0.95 27.1 1.85 27.2 2.55 27.15 3.05 Q28.4 3.4 33.15 5.6 38.3 8.0 38.9 8.0 L40.85 8.35 Q41.45 7.95 43.9 3.0 53.7 5.55 56.8 10.05 58.1 11.9 58.1 14.95 L58.1 15.75 58.1 16.55 58.05 18.05 68.25 20.4" fill="#fe0707" fill-opacity="0.99215686" fill-rule="evenodd" stroke="none"/>
  </g>
</svg>
