<?xml version="1.0" encoding="UTF-8" standalone="no"?>
<svg xmlns:xlink="http://www.w3.org/1999/xlink" height="49.0px" width="80.1px" xmlns="http://www.w3.org/2000/svg">
  <g transform="matrix(1.0, 0.0, 0.0, 1.0, -1.0, 0.0)">
    <path d="M63.0 2.5 L63.0 3.0 Q63.95 12.05 66.8 19.05 L67.0 20.0 67.75 19.75 68.0 19.0 68.0 18.0 68.0 11.0 69.0 11.0 69.0 10.0 Q72.1 9.9 71.1 14.05 L71.0 15.0 72.0 15.0 73.0 15.0 Q80.6 15.9 81.0 24.95 81.95 45.05 74.0 31.0 L73.0 31.0 72.0 31.0 72.0 32.0 72.0 33.0 Q71.4 35.15 72.9 35.5 L73.0 36.0 Q75.05 37.45 77.85 38.45 L78.0 39.0 78.8 39.25 Q81.4 41.45 77.0 42.0 L77.0 43.0 77.0 44.0 77.15 44.95 Q79.25 50.2 74.0 44.0 L73.2 44.25 Q68.75 47.75 62.0 49.0 L61.25 48.75 Q61.0 48.5 61.0 48.0 L60.15 47.75 Q58.35 46.65 55.0 47.0 L54.25 46.75 54.0 46.0 53.0 46.0 52.0 46.0 Q52.0 46.5 51.8 46.6 45.55 49.4 43.0 47.0 45.15 47.65 45.05 46.0 L45.0 45.0 44.05 45.15 Q40.1 46.6 35.0 47.0 L34.0 47.05 Q30.45 47.55 30.0 45.0 L29.2 45.25 Q24.3 49.05 20.0 46.0 L19.0 45.95 Q13.85 45.65 13.0 41.0 L14.0 41.0 14.0 40.0 14.0 39.0 14.75 38.75 15.0 38.0 14.1 37.8 Q13.5 37.5 13.0 37.0 L12.2 36.75 Q7.5 33.0 7.0 25.0 L8.0 25.0 8.0 24.0 8.0 19.0 9.0 19.0 9.0 18.0 9.0 17.0 8.85 16.05 Q7.8 13.2 5.0 12.0 L4.9 11.45 1.0 11.0 1.0 10.0 1.0 9.0 2.0 9.0 2.0 8.0 Q3.15 4.65 8.0 4.95 L9.0 5.0 12.0 5.0 13.0 5.0 Q16.95 5.45 19.1 4.2 L20.0 4.0 Q22.2 3.2 25.0 3.05 L26.0 3.0 27.0 3.0 28.0 3.0 28.0 2.0 Q29.95 1.95 31.15 1.25 L32.0 1.0 32.0 0.0 34.0 0.0 35.0 0.0 Q36.55 1.45 36.95 4.0 L37.0 5.0 38.8 8.1 39.0 9.0 Q41.9 7.6 43.85 5.1 47.4 0.45 52.0 4.0 L52.0 3.0 53.0 3.0 53.0 2.0 Q57.0 9.4 63.0 2.5" fill="#ff0000" fill-rule="evenodd" stroke="none"/>
  </g>
</svg>
