<?xml version="1.0" encoding="UTF-8" standalone="no"?>
<svg xmlns:xlink="http://www.w3.org/1999/xlink" height="16.25px" width="30.0px" xmlns="http://www.w3.org/2000/svg">
  <g transform="matrix(1.0, 0.0, 0.0, 1.0, -1.0, -1.0)">
    <path d="M31.0 11.0 L30.0 11.0 29.0 11.0 29.0 12.0 28.75 12.8 Q26.0 16.5 25.0 13.0 L24.05 12.85 22.0 12.0 21.0 12.0 20.75 12.75 20.0 13.0 Q20.0 13.5 20.25 13.85 22.65 17.15 17.0 17.0 L16.8 16.4 15.0 16.0 14.75 16.75 14.0 17.0 13.05 17.1 Q10.9 17.65 11.0 16.0 L11.8 14.9 12.0 14.0 11.0 14.0 10.0 14.0 10.0 14.5 4.0 12.0 4.0 11.0 3.0 11.0 1.0 11.0 1.0 10.0 1.0 9.0 2.0 9.0 2.0 8.0 3.0 8.0 3.0 7.0 3.0 6.0 4.0 6.0 4.0 5.0 6.0 5.0 7.0 5.0 7.0 4.0 7.0 3.0 Q9.7 3.2 11.15 2.25 11.5 2.0 12.0 2.0 L13.0 2.0 14.0 2.0 14.0 1.0 15.0 1.0 17.0 1.0 18.0 1.0 22.9 1.5 23.0 2.0 24.75 3.25 25.0 4.0 26.8 4.4 27.0 5.0 Q28.7 5.8 28.1 9.0 L28.0 10.0 Q29.0 9.5 30.05 9.15 L31.0 9.0 31.0 10.0 31.0 11.0" fill="#ff0000" fill-rule="evenodd" stroke="none"/>
  </g>
</svg>
