<?xml version="1.0" encoding="UTF-8" standalone="no"?>
<svg xmlns:xlink="http://www.w3.org/1999/xlink" height="115.0px" width="82.05px" xmlns="http://www.w3.org/2000/svg">
  <g transform="matrix(1.0, 0.0, 0.0, 1.0, -0.95, 0.0)">
    <path d="M62.75 9.25 L63.0 10.0 63.8 11.1 64.0 12.0 64.8 13.1 65.0 14.0 Q66.7 15.75 65.55 19.85 L65.0 20.0 65.1 20.95 Q65.65 23.15 64.0 23.0 L64.0 24.0 63.75 24.75 Q62.2 26.2 61.0 28.0 L61.0 29.0 Q61.0 29.5 60.8 29.6 60.0 30.0 59.0 30.0 L58.75 30.75 58.0 31.0 58.0 37.0 58.0 38.0 Q59.7 38.3 60.4 39.8 60.5 40.0 61.0 40.0 L61.75 40.25 62.0 41.0 Q63.7 41.3 64.4 42.8 L65.0 43.0 67.75 45.25 68.0 46.0 69.0 46.0 70.0 46.0 70.0 45.0 70.0 43.0 71.0 43.0 71.0 42.0 76.9 42.5 77.0 43.0 78.0 43.0 Q79.7 44.75 78.55 48.85 L78.0 49.0 77.0 49.0 77.0 50.0 77.0 53.0 77.0 54.0 77.1 55.0 Q77.7 58.7 76.0 60.0 L76.0 61.0 76.0 64.0 76.0 65.0 Q77.65 64.9 76.6 66.8 L76.0 67.0 76.0 77.0 76.0 78.0 76.85 80.05 77.0 81.0 Q78.7 82.3 78.1 86.0 L78.0 87.0 78.0 88.0 Q77.65 91.35 78.75 93.15 L79.0 94.0 Q81.75 96.75 82.9 101.05 L83.0 102.0 82.8 102.9 Q80.15 107.6 75.0 105.0 85.0 102.85 78.25 95.75 L78.0 95.0 Q77.5 95.0 77.4 95.2 76.7 96.7 75.0 97.0 L74.95 97.5 68.0 98.0 68.0 100.0 68.0 101.0 Q68.5 101.0 68.75 101.25 L69.0 102.0 69.75 102.25 70.0 103.0 70.5 103.1 Q71.7 110.7 67.0 108.0 L66.15 107.8 Q64.3 106.7 65.0 103.0 L65.0 102.5 Q64.0 102.5 63.0 103.0 L62.9 103.5 57.0 104.0 57.0 105.0 56.9 105.55 53.0 106.0 52.95 107.0 Q52.7 109.2 50.0 109.0 L49.85 109.55 Q45.75 110.7 44.0 109.0 L43.5 109.0 Q43.65 111.15 42.0 111.0 L41.1 111.2 40.0 112.0 Q39.5 112.0 39.4 112.2 38.7 113.7 37.0 114.0 L36.1 114.2 Q35.5 114.5 35.0 115.0 L35.0 114.0 34.1 113.8 Q33.5 113.5 33.0 113.0 L32.1 112.8 Q31.5 112.5 31.0 112.0 L30.0 112.0 Q28.05 111.95 27.0 111.0 L26.15 110.75 Q24.95 110.05 23.0 110.0 L22.1 109.8 21.0 109.0 20.1 108.8 Q19.5 108.5 19.0 108.0 L18.0 107.95 Q14.8 107.7 13.0 106.0 L12.05 105.9 Q9.65 105.35 8.0 104.0 L7.0 104.1 Q2.75 104.75 2.0 102.0 4.1 102.65 4.45 101.1 L5.0 101.0 5.0 100.0 6.0 100.0 6.0 99.0 7.0 99.0 8.0 99.0 8.0 98.0 Q11.7 97.3 13.25 98.75 L14.0 99.0 15.1 99.8 16.0 100.0 Q18.15 99.4 18.45 100.9 L19.0 101.0 Q21.15 100.4 21.45 101.9 L22.0 102.0 Q23.3 103.2 25.95 103.5 L26.0 104.0 27.0 104.0 28.0 104.0 Q29.65 105.35 33.0 105.5 L33.0 106.0 34.0 106.0 35.0 106.0 35.0 105.0 35.0 104.0 35.75 103.75 36.0 103.0 36.0 102.0 36.0 100.0 35.0 99.95 Q31.15 99.35 29.0 97.0 L28.45 96.9 Q28.15 95.4 26.0 96.0 L25.1 96.2 24.0 97.0 23.0 97.0 Q21.05 96.95 20.0 96.0 L19.0 96.05 Q15.45 96.55 15.0 94.0 L14.0 94.0 13.5 93.95 Q13.0 87.0 13.0 80.0 L14.0 80.0 14.0 79.0 15.75 76.85 16.0 76.0 16.0 75.0 15.25 74.75 15.0 74.0 14.25 73.75 13.0 72.0 12.25 71.75 12.0 71.0 11.25 70.75 10.0 69.0 9.25 68.75 9.0 68.0 8.2 67.75 Q6.65 66.35 7.0 63.0 L7.0 62.0 7.0 60.0 9.85 60.45 10.0 61.0 10.75 61.25 11.0 62.0 13.75 64.25 14.0 65.0 16.75 67.25 17.0 68.0 Q17.5 68.5 18.1 68.8 L19.0 69.0 Q21.55 68.55 23.2 67.25 L24.0 67.0 25.0 67.0 25.0 66.0 26.0 66.0 26.0 65.0 26.0 56.0 26.0 55.0 25.05 54.85 Q22.05 53.95 20.0 52.0 L19.5 51.9 Q19.0 49.0 19.0 46.0 L20.0 46.0 21.1 45.2 22.0 45.0 22.0 44.0 23.1 43.2 24.0 43.0 24.0 42.0 Q25.7 41.7 26.4 40.2 26.5 40.0 27.0 40.0 L27.0 39.0 Q29.25 36.3 30.75 38.2 L31.0 39.0 32.0 39.0 33.0 39.0 36.0 39.0 37.0 39.0 37.0 38.0 38.0 38.0 37.75 37.15 Q37.05 35.95 37.0 34.0 L37.0 33.0 36.05 33.1 Q31.3 34.2 32.0 30.0 33.0 29.5 34.05 29.15 L35.0 29.0 37.0 29.0 38.0 29.0 37.8 28.4 Q36.0 27.5 35.0 26.0 L34.25 25.75 33.0 24.0 32.05 23.85 Q29.55 22.95 29.0 20.0 L28.15 19.75 Q27.05 18.95 27.0 17.0 L27.0 16.0 27.0 15.0 27.0 14.0 27.0 12.0 Q28.25 9.25 29.8 6.85 L30.0 6.0 30.0 5.0 Q31.7 4.7 32.4 3.2 32.5 3.0 33.0 3.0 33.5 2.5 34.1 2.2 L35.0 2.0 39.0 1.1 40.0 1.0 40.0 0.0 46.0 0.0 47.0 0.0 47.0 1.0 48.8 1.4 Q49.0 1.5 49.0 2.0 L50.0 2.0 52.85 2.45 53.0 3.0 Q54.95 3.05 55.75 4.15 L56.0 5.0 57.0 5.0 Q58.45 6.55 60.85 7.45 L61.0 8.0 61.75 8.25 62.0 9.0 Q62.5 9.0 62.75 9.25 M3.0 86.0 L3.0 85.0 Q9.4 83.6 9.05 89.0 L9.0 90.0 9.1 91.0 Q9.7 94.7 8.0 96.0 L8.0 97.0 7.1 97.2 Q0.3 100.2 1.0 91.0 L2.0 91.0 2.0 90.0 2.0 89.0 3.0 89.0 3.0 88.0 3.0 86.0" fill="#ff0000" fill-rule="evenodd" stroke="none"/>
  </g>
</svg>
