<?xml version="1.0" encoding="UTF-8" standalone="no"?>
<svg xmlns:xlink="http://www.w3.org/1999/xlink" height="50.8px" width="76.0px" xmlns="http://www.w3.org/2000/svg">
  <g transform="matrix(1.0, 0.0, 0.0, 1.0, -1.0, -1.2)">
    <path d="M68.0 11.0 L68.0 10.0 Q69.65 10.15 69.5 8.0 L70.0 8.0 Q74.7 7.3 74.05 12.0 L74.0 13.0 74.0 14.0 Q74.3 15.7 77.0 15.5 L77.0 16.0 76.8 16.9 76.0 18.0 76.0 19.0 Q76.0 23.0 74.0 25.0 L73.8 25.9 73.0 27.0 73.0 28.0 73.0 29.0 Q73.5 29.0 73.55 29.15 74.55 32.55 72.0 33.0 L71.8 33.6 Q70.0 34.5 68.0 35.0 L67.0 35.0 66.0 35.0 65.9 36.0 Q65.35 38.35 64.0 40.0 L63.8 40.9 63.0 42.0 63.1 42.95 Q63.65 45.15 62.0 45.0 L61.85 45.95 Q59.85 51.7 56.0 47.0 L55.25 46.75 Q55.0 46.5 55.0 46.0 56.7 45.7 56.5 43.0 L57.0 43.0 57.0 42.0 57.0 40.0 57.75 39.75 58.0 39.0 58.0 38.0 57.05 38.15 Q56.0 38.5 55.0 39.0 L54.75 39.75 54.0 40.0 53.0 40.0 51.0 40.0 51.0 41.0 51.0 42.0 51.5 42.1 Q52.15 46.15 49.0 47.0 L48.45 47.15 Q47.7 49.2 45.0 49.0 L44.75 49.85 Q43.95 50.95 42.0 51.0 L42.0 52.0 41.0 52.0 41.0 51.0 40.2 50.75 Q38.8 49.7 39.0 47.0 L40.0 47.0 40.0 46.5 Q36.8 46.7 36.0 45.0 L35.15 44.75 Q34.0 44.0 33.0 43.0 32.5 43.0 32.3 42.75 29.45 39.45 28.0 37.0 L27.0 37.0 26.0 37.0 Q25.5 37.0 25.15 37.25 L23.0 39.0 22.9 40.0 Q22.5 42.0 21.0 43.0 L20.05 42.85 Q17.85 42.15 17.0 40.0 16.5 40.0 16.35 39.8 15.15 37.85 13.0 37.0 L12.25 36.75 10.0 34.0 9.1 33.8 8.0 33.0 Q7.5 33.0 7.25 33.25 5.0 35.45 3.0 33.0 L2.25 32.75 1.0 31.0 1.0 30.0 1.0 27.0 1.75 26.75 2.0 26.0 2.0 25.0 3.0 25.0 3.0 24.0 3.0 22.0 3.0 21.0 Q7.2 20.25 8.75 22.2 L9.0 23.0 Q9.0 24.0 9.4 24.8 9.5 25.0 10.0 25.0 L11.0 25.0 11.0 24.0 Q13.9 24.4 13.5 21.0 L14.0 21.0 14.0 20.0 14.8 18.9 15.0 18.0 15.0 17.0 Q16.0 17.0 16.8 16.6 L17.0 16.0 17.0 15.0 Q18.05 14.05 20.0 14.0 L21.0 14.0 Q23.75 13.25 26.1 12.2 L27.0 12.0 28.0 12.0 29.0 12.0 Q29.5 11.5 30.1 11.2 L31.0 11.0 32.0 11.0 36.0 10.1 37.0 10.0 Q38.95 9.95 40.15 9.25 L41.0 9.0 41.0 8.0 Q42.0 7.5 43.0 7.5 L43.0 8.0 44.0 8.0 45.0 8.0 45.0 7.0 46.0 7.0 46.0 6.0 46.0 4.0 46.0 3.0 Q48.5 -0.7 50.8 3.15 L51.0 4.0 52.0 4.0 53.0 4.0 Q57.45 3.55 56.1 9.05 L56.0 10.0 Q55.4 12.15 56.9 12.5 L57.0 13.0 Q57.85 15.15 59.8 16.35 60.0 16.5 60.0 17.0 L61.0 17.0 62.0 17.0 63.0 17.0 Q64.7 16.7 65.4 15.2 65.5 15.0 66.0 15.0 L66.0 14.0 66.75 13.75 67.0 13.0 67.0 12.0 67.0 11.0 68.0 11.0" fill="#ff0000" fill-rule="evenodd" stroke="none"/>
  </g>
</svg>
