<?xml version="1.0" encoding="UTF-8" standalone="no"?>
<svg xmlns:xlink="http://www.w3.org/1999/xlink" height="103.0px" width="97.0px" xmlns="http://www.w3.org/2000/svg">
  <g transform="matrix(1.0, 0.0, 0.0, 1.0, 0.0, -1.0)">
    <path d="M94.0 57.0 Q95.45 59.0 94.15 63.05 94.0 63.5 94.0 64.0 L94.0 69.0 94.0 70.0 95.0 70.0 96.0 70.0 97.0 70.0 97.0 75.0 97.0 76.0 96.0 76.0 95.2 76.25 Q92.95 77.95 90.0 79.0 91.3 80.7 95.0 80.5 L95.0 81.0 Q96.65 80.9 96.1 83.05 L96.0 84.0 96.0 85.0 96.0 86.0 95.0 86.0 94.9 86.5 89.0 87.0 88.0 87.0 87.0 87.0 86.8 87.6 Q86.0 88.0 85.0 88.0 L85.0 89.0 85.0 90.0 Q88.25 90.75 86.55 95.85 L86.0 96.0 85.0 96.0 Q85.0 96.5 84.8 96.6 84.0 97.0 83.0 97.0 L83.0 98.0 82.85 98.55 Q78.25 100.25 76.0 99.0 L75.0 99.0 74.0 99.0 Q73.5 99.0 73.35 99.25 72.0 101.35 71.0 99.0 L70.0 99.0 69.0 98.95 Q66.8 98.7 66.0 97.0 L65.1 97.2 64.0 98.0 Q63.5 98.0 63.45 98.15 62.7 100.2 60.0 100.0 L59.8 100.6 Q59.0 101.0 58.0 101.0 L57.8 101.9 57.0 103.0 56.85 103.55 Q52.3 105.2 53.0 101.0 L53.0 100.0 Q54.05 99.05 56.0 99.0 L57.0 99.0 57.0 98.0 Q58.95 97.95 60.15 97.25 60.5 97.0 61.0 97.0 L61.0 96.0 Q63.15 96.65 63.5 95.1 L64.0 95.0 Q65.7 94.7 65.95 93.0 L66.0 92.0 65.1 91.8 64.0 91.0 63.0 91.0 60.0 91.0 59.0 91.0 58.0 91.0 58.1 91.95 Q58.9 95.4 56.0 95.0 L55.75 95.7 Q51.7 98.65 48.0 97.0 L47.0 96.9 Q45.0 96.5 44.0 95.0 L43.0 95.0 42.0 95.0 42.0 96.0 42.0 97.0 Q44.75 97.75 43.55 101.85 L43.0 102.0 42.0 101.9 Q40.0 101.5 39.0 100.0 L38.25 99.75 36.0 97.0 Q35.5 97.0 35.35 97.25 32.45 101.35 32.0 96.0 L34.0 96.0 35.0 96.0 34.8 95.1 31.0 87.0 30.45 86.85 Q29.95 85.05 29.0 84.0 L28.0 84.0 27.75 84.75 27.0 85.0 Q27.95 86.05 28.0 88.0 L28.0 89.0 27.8 89.9 27.0 91.0 26.0 91.05 Q23.3 91.2 22.0 90.0 L21.1 89.8 18.0 88.0 17.0 88.0 13.0 88.0 13.0 90.0 13.0 91.0 13.75 91.25 14.0 92.0 Q14.7 96.3 17.75 98.35 L18.0 99.0 18.5 99.1 Q19.45 103.45 14.0 102.0 L13.05 101.9 Q10.65 101.35 9.0 100.0 L8.2 100.25 Q6.0 101.9 5.0 100.0 L4.8 99.1 4.0 98.0 3.0 97.95 Q1.3 97.7 1.0 96.0 L1.0 95.0 1.0 94.0 0.0 94.0 0.0 93.0 0.0 88.0 1.0 88.0 Q2.65 88.15 2.5 86.0 L3.0 86.0 3.0 85.0 3.0 84.0 4.0 84.0 4.0 83.0 Q5.95 82.95 7.15 82.25 7.5 82.0 8.0 82.0 L8.0 81.0 10.0 81.0 11.0 81.0 11.0 80.0 Q13.0 79.5 14.25 78.25 14.5 78.0 15.0 78.0 L16.0 78.0 17.0 78.0 17.0 77.0 Q18.0 76.5 19.05 76.15 L20.0 76.0 20.0 75.0 Q21.7 73.7 21.1 70.0 L21.0 69.0 Q20.5 69.0 20.45 68.85 19.95 67.05 19.0 66.0 L18.45 65.85 Q18.0 64.5 18.0 63.0 L19.1 62.2 20.0 62.0 20.0 61.0 20.8 59.9 21.0 59.0 20.8 58.1 20.0 57.0 19.0 57.0 18.15 56.8 Q16.3 55.7 17.0 52.0 L18.0 52.0 19.0 52.0 20.0 52.0 20.0 51.0 21.0 51.0 20.9 50.0 Q19.5 43.5 15.0 40.0 L16.0 40.0 16.0 39.0 16.0 38.0 Q19.7 36.1 23.2 38.75 L24.0 39.0 24.0 38.0 24.0 35.0 25.0 35.0 25.0 34.0 25.0 32.0 27.8 27.85 28.0 27.0 28.0 26.0 28.0 25.0 Q30.2 24.7 30.5 22.05 L31.0 22.0 31.0 21.0 34.75 17.75 35.0 17.0 35.0 16.0 43.2 9.25 44.0 9.0 44.0 8.0 44.75 7.75 45.0 7.0 44.8 6.4 Q43.3 5.7 44.0 3.0 L45.0 3.0 45.0 2.0 46.0 2.0 47.0 2.0 47.75 1.75 48.0 1.0 50.0 1.0 51.0 1.0 51.75 1.25 52.0 2.0 Q54.4 3.6 54.9 7.0 L55.0 8.0 56.8 11.1 57.0 12.0 Q58.0 14.5 62.0 14.5 L62.0 15.0 63.8 15.4 Q64.0 15.5 64.0 16.0 66.0 16.5 67.8 17.4 L68.0 18.0 Q70.15 17.4 70.5 18.9 L71.0 19.0 Q72.65 21.35 74.75 23.25 L75.0 24.0 75.75 24.25 76.0 25.0 75.75 25.75 75.0 26.0 74.85 26.95 Q74.15 29.15 72.0 30.0 L71.75 30.75 71.0 31.0 71.0 32.0 70.75 32.85 69.0 35.0 69.1 36.0 Q69.7 39.2 68.0 40.0 L68.0 42.0 68.0 43.0 67.85 43.95 Q67.2 45.7 64.0 45.0 L63.9 45.55 60.0 46.0 Q60.45 48.55 61.75 50.2 L62.0 51.0 67.75 56.3 68.0 57.0 71.0 57.0 72.0 57.0 73.0 57.0 74.0 57.0 75.0 57.0 76.0 57.0 Q79.25 57.25 79.05 61.0 L79.0 62.0 Q78.25 66.25 80.8 67.4 L81.0 68.0 Q82.7 66.7 82.5 63.0 L83.0 63.0 83.0 62.0 83.0 56.0 84.0 56.0 84.0 55.0 85.0 55.0 85.0 54.0 86.0 54.0 87.0 54.0 87.0 53.0 Q91.55 51.15 93.8 56.1 L94.0 57.0 M44.0 11.0 L43.1 11.2 42.0 12.0 41.8 12.9 Q39.65 16.65 36.0 19.0 L35.75 19.75 34.0 21.0 33.8 21.9 Q32.75 24.25 31.0 26.0 L30.75 26.85 29.0 29.0 29.0 30.0 Q28.9 32.9 27.0 34.0 L27.0 38.0 27.0 39.0 Q27.5 39.5 28.1 39.8 L29.0 40.0 Q30.7 39.2 30.5 36.0 L31.0 36.0 31.0 35.0 32.0 35.0 32.0 34.0 32.0 32.0 Q33.0 31.5 34.05 31.15 L35.0 31.0 36.0 31.0 36.0 30.0 36.0 29.0 Q37.0 27.0 38.3 25.25 38.5 25.0 39.0 25.0 L43.0 25.0 44.0 25.0 44.0 24.0 44.0 23.0 46.0 23.0 47.0 23.0 48.0 23.0 48.0 22.0 50.0 22.0 51.0 22.0 51.0 21.0 51.0 19.0 Q50.5 19.0 50.4 18.8 49.5 17.0 49.0 15.0 L48.5 14.95 Q48.25 10.75 44.0 11.0 M85.8 80.1 L85.0 79.0 84.05 78.85 80.0 77.0 Q79.5 77.0 79.15 77.25 77.95 77.95 76.0 78.0 L75.9 78.55 72.0 79.0 Q71.5 79.0 71.4 79.2 70.7 80.7 68.0 80.0 L67.0 80.0 Q67.0 80.5 66.8 80.6 62.8 82.3 58.0 83.0 L57.75 83.75 57.0 84.0 57.0 85.0 61.0 85.0 62.0 85.0 62.0 84.0 69.0 84.0 70.0 84.0 70.0 83.0 72.0 83.0 73.0 83.0 73.0 82.0 Q73.5 82.5 74.1 82.8 L75.0 83.0 Q77.7 83.2 79.15 82.25 79.5 82.0 80.0 82.0 L80.0 81.0 Q80.5 81.0 80.75 81.25 L81.0 82.0 85.0 82.0 86.0 82.0 86.0 81.0 85.8 80.1 M72.1 47.2 L73.0 47.0 73.0 46.0 73.0 45.0 74.0 45.0 75.0 45.0 Q76.7 43.35 77.4 44.8 77.5 45.0 78.0 45.0 79.7 45.3 79.95 47.0 L80.0 48.0 79.9 48.95 Q77.9 56.7 73.0 53.0 L72.45 52.85 71.0 48.0 Q71.5 47.5 72.1 47.2 M37.0 79.0 L36.0 79.0 34.0 79.0 34.0 80.0 34.0 81.0 Q36.3 87.2 39.75 92.15 L40.0 93.0 Q41.7 92.2 41.5 89.0 L42.0 89.0 43.0 89.0 44.0 89.0 44.0 88.0 Q46.15 88.65 46.5 87.1 L47.0 87.0 47.0 86.0 47.0 80.0 46.25 79.75 Q46.0 79.5 46.0 79.0 L45.0 79.0 44.0 79.0 43.0 79.0 37.0 79.0" fill="#ff0000" fill-rule="evenodd" stroke="none"/>
  </g>
</svg>
