<?xml version="1.0" encoding="UTF-8" standalone="no"?>
<svg xmlns:xlink="http://www.w3.org/1999/xlink" height="57.3px" width="95.25px" xmlns="http://www.w3.org/2000/svg">
  <g transform="matrix(1.0, 0.0, 0.0, 1.0, -1.0, -1.0)">
    <path d="M81.0 5.0 L81.55 5.15 Q83.0 10.5 80.0 12.0 L79.75 12.75 76.0 16.0 75.75 16.75 75.0 17.0 75.0 18.0 75.0 19.0 Q74.2 24.8 77.8 26.4 L78.0 27.0 79.0 27.0 78.8 26.1 Q77.45 23.55 78.0 19.0 L79.0 19.0 80.0 19.0 82.05 18.15 83.0 18.0 83.0 17.0 Q84.95 17.05 85.75 18.15 L86.0 19.0 Q86.5 19.0 86.75 19.25 L87.0 20.0 Q88.8 21.2 89.8 23.1 L90.0 24.0 90.75 24.25 91.0 25.0 Q92.7 25.3 92.95 27.0 L93.0 28.0 94.75 29.25 95.0 30.0 Q96.75 32.25 96.05 37.0 L96.0 38.0 95.0 38.0 Q94.5 38.0 94.15 38.25 92.7 39.2 90.0 39.0 L89.9 39.5 84.0 40.0 83.0 40.0 80.0 40.0 79.0 40.0 77.0 40.0 76.95 40.5 70.0 41.0 69.0 41.0 69.0 41.5 Q63.95 41.45 61.0 43.0 60.5 43.0 60.15 43.25 58.7 44.2 56.0 44.0 L55.85 44.55 53.0 45.0 52.8 45.6 Q52.0 46.0 51.0 46.0 L51.5 51.0 50.5 51.0 Q50.45 56.4 49.0 55.0 48.5 55.0 48.25 55.25 44.25 59.3 33.0 58.0 L32.8 57.1 Q31.9 55.1 29.0 55.0 L28.05 54.85 Q25.5 54.0 26.0 50.0 L25.8 49.4 Q24.0 48.5 23.0 47.0 L22.05 47.15 Q19.5 48.0 17.0 49.0 L16.0 49.0 13.0 49.0 12.0 48.9 Q10.0 48.5 9.0 47.0 L8.25 46.75 Q8.0 46.5 8.0 46.0 L7.0 46.0 6.0 46.0 5.75 46.8 Q3.95 48.95 3.0 45.0 L3.0 44.0 2.25 43.75 1.0 42.0 1.0 41.0 1.0 40.0 1.0 36.0 2.0 36.0 2.0 35.0 2.0 34.0 3.0 34.0 3.0 33.0 3.0 32.0 Q4.5 31.0 6.1 30.2 L7.0 30.0 7.0 29.0 11.9 28.5 12.0 28.0 12.0 27.0 Q14.0 26.5 15.25 25.25 15.5 25.0 16.0 25.0 L16.0 24.0 17.75 22.75 18.0 22.0 17.8 21.1 17.0 20.0 17.0 19.0 16.2 18.75 Q14.8 17.7 15.0 15.0 L16.0 15.0 16.0 14.0 17.0 14.0 17.0 13.0 Q20.6 15.7 22.75 12.8 L23.0 12.0 23.0 11.0 23.0 10.0 Q24.9 8.9 25.5 6.1 L26.0 6.0 Q27.0 5.5 28.05 5.15 L29.0 5.0 30.75 6.25 31.0 7.0 Q32.3 9.7 37.0 9.5 L37.0 10.0 39.0 10.0 40.0 10.0 Q42.2 8.2 46.0 8.0 L47.0 8.0 49.0 8.0 50.0 8.0 49.9 7.45 Q48.4 7.15 49.0 5.0 50.7 4.7 51.4 3.2 51.5 3.0 52.0 3.0 L52.0 2.0 52.75 1.75 53.0 1.0 54.0 1.0 55.0 1.0 58.75 4.25 59.0 5.0 60.0 5.0 61.0 5.0 61.0 4.0 67.05 2.15 68.0 2.0 70.0 2.0 71.0 2.0 71.0 1.0 76.9 1.5 77.0 2.0 Q77.5 2.5 78.1 2.8 L79.0 3.0 79.75 3.25 80.0 4.0 Q80.5 4.0 80.75 4.25 L81.0 5.0" fill="#ff0000" fill-rule="evenodd" stroke="none"/>
  </g>
</svg>
