<?xml version="1.0" encoding="UTF-8" standalone="no"?>
<svg xmlns:xlink="http://www.w3.org/1999/xlink" height="146.45px" width="62.0px" xmlns="http://www.w3.org/2000/svg">
  <g transform="matrix(1.0, 0.0, 0.0, 1.0, 0.0, -2.0)">
    <path d="M43.65 15.75 L45.65 23.55 Q46.8 27.0 49.0 27.0 50.05 27.0 54.1 24.15 56.3 22.6 56.3 26.95 L56.9 47.3 Q56.9 50.65 55.35 56.7 54.0 62.15 53.0 64.0 L53.0 97.0 55.0 97.0 54.65 96.5 Q54.4 96.0 55.0 96.0 57.25 96.0 58.05 99.15 59.3 103.75 59.3 117.95 59.3 129.2 60.65 130.35 61.0 130.65 61.6 130.75 62.0 131.05 62.0 133.0 62.0 136.5 47.75 142.8 40.6 146.0 33.35 148.45 L26.75 147.85 24.15 146.8 3.25 135.2 Q0.0 133.35 0.0 133.0 0.0 131.4 1.15 130.65 1.7 130.25 3.0 130.0 L3.0 98.0 Q5.55 96.35 6.05 96.35 L7.55 96.7 9.0 97.0 9.0 64.0 Q8.2 62.8 7.45 59.1 5.85 51.75 5.85 38.5 L5.65 27.4 Q5.8 23.8 7.6 22.4 9.15 24.3 9.0 25.0 L12.2 25.1 Q13.45 26.8 14.0 27.0 L15.6 25.0 Q16.8 23.6 16.65 23.05 16.55 22.75 17.2 21.2 L18.0 19.0 Q20.0 8.6 24.25 5.35 24.9 4.85 27.2 3.75 28.65 3.0 29.0 2.0 40.2 3.95 43.65 15.75" fill="#ff0000" fill-rule="evenodd" stroke="none"/>
  </g>
</svg>
