<?xml version="1.0" encoding="UTF-8" standalone="no"?>
<svg xmlns:xlink="http://www.w3.org/1999/xlink" height="66.0px" width="39.0px" xmlns="http://www.w3.org/2000/svg">
  <g transform="matrix(1.0, 0.0, 0.0, 1.0, -1.0, 0.0)">
    <path d="M34.2 7.25 Q38.1 12.7 38.1 18.1 38.1 24.3 35.75 28.0 33.1 32.2 26.0 36.0 29.65 39.85 33.85 45.15 39.75 52.6 40.0 55.0 33.2 55.75 27.2 61.05 L23.0 64.5 Q20.65 66.0 18.0 66.0 16.9 66.0 12.1 63.45 6.0 60.25 1.0 56.0 7.1 48.6 12.65 42.25 15.1 39.25 15.1 37.75 15.1 37.25 13.25 35.3 L9.1 30.6 Q2.85 22.9 2.0 15.0 L3.0 15.0 Q4.15 9.2 10.85 4.25 16.55 0.0 20.0 0.0 29.0 0.0 34.2 7.25" fill="#ff0000" fill-rule="evenodd" stroke="none"/>
  </g>
</svg>
