<?xml version="1.0" encoding="UTF-8" standalone="no"?>
<svg xmlns:xlink="http://www.w3.org/1999/xlink" height="43.0px" width="48.45px" xmlns="http://www.w3.org/2000/svg">
  <g transform="matrix(1.0, 0.0, 0.0, 1.0, -0.85, -1.0)">
    <path d="M47.85 13.8 Q45.35 17.05 42.15 24.1 39.45 30.0 39.0 30.0 L36.0 29.5 33.0 29.0 Q32.65 29.0 32.25 29.65 31.85 30.25 31.0 30.25 29.35 30.25 26.6 33.8 23.2 38.15 19.5 40.0 19.75 41.05 19.3 41.6 19.0 42.05 18.45 42.05 17.85 42.05 17.85 42.65 L18.0 44.0 16.0 44.0 Q12.65 41.85 4.8 38.45 1.0 36.8 1.0 34.0 1.0 33.5 1.5 33.9 2.0 34.3 2.0 33.8 2.0 33.6 1.45 33.4 0.85 33.2 0.85 32.0 0.85 30.1 4.6 26.65 L8.3 23.15 Q8.0 20.0 8.0 18.0 9.0 18.0 9.0 17.5 7.7 17.75 7.3 17.2 7.0 16.8 7.0 15.5 7.0 14.3 12.0 12.0 16.7 9.85 18.05 9.85 19.0 9.85 20.5 11.0 L19.0 12.35 Q19.0 14.55 20.5 15.25 L24.0 17.0 29.15 6.85 Q32.1 1.0 33.5 1.0 42.75 1.0 47.05 5.4 51.15 9.55 47.85 13.8" fill="#ff0505" fill-opacity="0.99607843" fill-rule="evenodd" stroke="none"/>
  </g>
</svg>
