<?xml version="1.0" encoding="UTF-8" standalone="no"?>
<svg xmlns:xlink="http://www.w3.org/1999/xlink" height="116.0px" width="135.0px" xmlns="http://www.w3.org/2000/svg">
  <g transform="matrix(1.0, 0.0, 0.0, 1.0, 0.0, 0.0)">
    <path d="M96.5 21.0 L94.0 21.0 94.0 30.0 Q94.75 30.7 97.55 31.1 99.3 31.35 99.3 33.95 L99.1 36.0 Q99.0 37.25 99.5 38.0 100.85 40.05 108.0 40.0 108.4 37.75 109.5 37.15 L110.7 37.0 Q111.7 37.0 112.35 38.1 113.0 39.2 113.0 41.0 L112.85 41.75 112.5 41.7 Q112.0 41.75 112.0 46.0 112.0 50.4 112.45 50.75 113.25 51.35 119.5 54.0 119.1 56.25 117.3 57.65 115.55 59.05 113.0 59.0 113.0 60.35 113.55 61.1 116.15 62.55 117.75 64.6 119.45 66.8 119.45 68.95 L119.45 72.55 Q119.65 73.55 120.95 75.55 121.6 76.5 122.6 79.85 123.35 82.45 124.75 83.2 127.25 84.55 128.6 84.85 130.65 85.3 135.0 85.0 L135.0 88.0 129.0 95.0 Q129.8 95.15 130.9 96.95 L130.8 97.45 Q130.3 98.05 129.1 98.05 128.5 98.05 127.55 98.6 L125.55 99.1 Q124.6 99.1 123.95 97.55 123.3 96.0 122.0 96.0 117.8 96.0 107.25 103.8 104.6 105.75 99.35 108.1 93.8 110.6 91.65 110.6 L89.8 110.1 87.5 109.0 Q87.7 110.05 87.3 110.6 87.0 111.05 86.45 111.05 86.15 111.05 84.6 112.55 82.75 114.35 82.0 116.0 L64.0 116.0 64.0 115.0 59.25 115.15 Q57.85 114.65 57.85 112.75 57.85 112.05 59.7 110.55 61.7 109.0 63.0 109.0 L63.0 105.0 Q61.45 104.75 55.35 101.85 L49.5 99.0 47.35 100.45 44.95 102.45 Q43.95 104.2 43.75 106.5 L43.3 109.3 43.0 109.2 Q42.6 108.4 42.0 105.0 40.3 104.5 38.1 107.1 35.75 109.95 34.3 109.95 33.5 109.95 32.95 109.4 32.0 108.55 32.0 106.5 32.0 105.4 33.2 103.75 34.45 102.1 34.55 100.2 34.5 98.7 35.45 99.25 36.3 100.1 36.3 101.25 L36.0 104.2 37.5 104.25 Q38.25 104.25 38.95 103.85 40.0 103.25 40.0 102.0 40.0 100.25 39.1 97.95 36.65 92.0 35.5 92.0 32.2 92.0 31.45 94.7 30.7 97.35 29.15 97.35 L28.2 97.2 28.0 97.0 Q30.0 95.0 30.0 94.0 30.0 92.3 28.9 91.4 L26.5 89.9 Q23.0 87.25 23.0 78.0 23.0 77.4 23.65 77.0 L25.0 76.25 Q27.0 74.8 27.0 70.0 L26.85 62.0 Q20.8 60.65 13.1 56.0 3.85 50.4 0.0 44.0 L0.0 38.0 1.0 38.0 Q1.3 35.9 2.45 34.05 4.8 30.35 9.3 30.35 12.25 30.35 15.0 34.95 16.7 37.8 21.0 46.0 L21.95 45.75 Q21.55 43.65 22.45 42.0 23.75 39.6 24.0 38.0 25.25 37.7 25.75 35.65 26.2 33.6 27.45 33.35 L32.45 36.0 Q36.3 37.95 36.3 38.6 36.3 40.8 36.45 41.1 36.85 42.0 39.0 42.0 46.75 42.0 50.95 34.5 54.0 29.05 54.0 23.5 54.0 20.3 53.15 19.2 52.1 17.95 52.0 17.0 L56.7 7.65 Q60.75 0.0 63.0 0.0 65.95 0.0 80.5 8.4 95.9 17.25 96.5 21.0 M6.0 93.0 Q8.9 92.95 9.55 91.6 10.2 90.35 13.45 90.35 14.95 90.35 15.95 91.6 16.8 92.65 16.8 93.5 L16.65 94.9 13.85 95.5 10.15 96.05 Q8.25 96.05 7.45 95.3 L6.0 93.0" fill="#ff0000" fill-rule="evenodd" stroke="none"/>
  </g>
</svg>
