<?xml version="1.0" encoding="UTF-8" standalone="no"?>
<svg xmlns:xlink="http://www.w3.org/1999/xlink" height="78.0px" width="131.95px" xmlns="http://www.w3.org/2000/svg">
  <g transform="matrix(1.0, 0.0, 0.0, 1.0, -1.0, 0.0)">
    <path d="M132.9 48.35 L132.95 48.6 Q130.9 50.25 130.25 51.45 L129.75 52.75 Q129.25 53.6 122.0 56.0 119.8 56.8 110.15 58.6 101.25 60.25 100.0 61.0 L92.75 64.4 Q89.05 66.25 88.9 68.9 83.55 69.25 82.2 70.45 81.0 71.55 75.9 71.55 72.45 71.55 69.2 69.4 L64.0 65.0 64.0 68.0 Q65.0 68.2 65.0 69.2 65.0 70.2 64.9 69.55 L58.5 70.35 Q55.95 70.35 55.95 68.0 55.95 67.0 58.5 64.95 L61.0 63.0 Q61.0 61.05 60.3 60.15 59.4 59.0 57.0 59.0 56.4 59.0 51.15 61.0 L46.0 63.0 45.5 63.55 Q45.0 63.95 45.0 64.5 L48.7 71.2 52.5 78.0 51.65 78.0 Q50.65 75.8 46.8 71.7 43.3 68.0 43.0 68.0 L40.8 68.2 Q40.05 68.15 39.0 67.0 L39.65 66.85 Q40.0 66.65 40.0 66.0 40.0 64.75 38.85 64.15 37.35 63.55 36.5 63.0 36.35 64.85 35.5 65.8 34.5 66.95 32.3 66.95 31.75 66.95 31.3 66.5 30.3 65.55 30.0 63.0 L28.9 59.8 Q28.0 57.55 28.0 56.0 28.0 55.4 28.5 55.15 L29.0 55.0 19.4 54.55 Q12.4 54.15 8.0 53.0 9.0 53.0 9.0 52.0 L10.35 51.6 11.0 51.0 4.75 49.4 Q1.0 48.05 1.0 44.0 1.0 42.8 4.0 40.25 L7.0 38.0 Q13.0 38.0 13.85 38.9 L14.15 39.6 Q14.3 39.95 15.0 40.0 15.2 38.15 16.15 35.25 16.9 32.95 17.0 28.0 L19.0 28.0 19.9 28.6 Q20.45 29.0 21.0 29.0 L25.0 21.8 Q28.95 15.2 30.95 15.2 31.35 15.2 32.4 16.1 33.5 17.0 34.0 17.0 41.3 17.0 43.5 14.25 44.75 12.75 45.4 12.35 46.9 11.5 50.0 11.5 L51.95 13.25 Q53.65 15.0 57.0 15.0 59.8 15.0 60.65 9.0 61.85 0.35 62.0 0.0 L66.0 0.0 Q66.1 0.9 67.7 1.6 68.95 2.15 68.0 5.0 70.45 4.15 71.6 3.25 72.15 2.85 73.7 2.85 74.15 2.85 80.3 6.4 87.3 10.4 92.0 12.0 L93.2 7.4 Q93.6 6.1 94.7 6.1 95.35 6.1 95.4 6.4 L95.4 7.05 Q95.8 7.95 101.0 8.0 105.15 8.0 106.4 8.9 106.9 9.25 106.9 10.15 L106.45 11.6 Q106.0 12.5 106.0 13.0 106.0 14.8 107.8 15.65 L111.75 16.65 Q117.45 17.8 117.45 21.9 117.45 29.05 119.3 30.35 L120.55 31.5 Q121.1 32.6 121.1 35.45 121.1 37.45 118.45 41.05 L117.65 42.45 Q117.0 43.95 117.0 44.5 117.0 46.6 123.0 49.0 126.0 50.2 129.0 51.0 129.8 51.0 130.8 49.65 131.75 48.25 132.25 48.25 L132.9 48.35" fill="#ff0000" fill-rule="evenodd" stroke="none"/>
  </g>
</svg>
