<?xml version="1.0" encoding="UTF-8" standalone="no"?>
<svg xmlns:xlink="http://www.w3.org/1999/xlink" height="69.2px" width="54.3px" xmlns="http://www.w3.org/2000/svg">
  <g transform="matrix(1.0, 0.0, 0.0, 1.0, -1.0, 0.0)">
    <path d="M41.0 8.0 Q42.45 10.0 44.8 11.35 45.0 11.5 45.0 12.0 48.0 13.0 50.8 14.4 L51.0 15.0 52.0 15.0 53.0 15.0 Q53.5 15.0 53.75 15.25 56.05 17.8 54.9 19.95 L52.95 19.95 52.75 20.85 51.95 21.95 52.15 22.45 53.4 26.85 53.95 26.95 53.95 27.95 53.95 30.95 53.95 31.95 53.95 32.95 53.9 33.95 Q53.65 35.65 51.95 35.95 L51.75 36.85 51.0 37.9 51.0 38.0 51.0 46.0 51.0 47.0 50.75 47.85 Q49.95 48.95 48.0 49.0 L47.0 49.0 47.1 50.0 Q47.7 53.2 46.0 54.0 L45.9 54.55 42.0 55.0 41.0 55.0 40.5 54.9 Q40.0 52.0 40.0 49.0 L41.0 49.0 41.0 48.0 41.0 47.0 40.0 47.0 39.0 46.95 Q36.3 46.8 35.0 48.0 L35.0 49.0 35.0 50.0 35.1 51.0 Q35.7 54.7 34.0 56.0 L33.85 56.55 Q30.3 57.7 29.0 56.0 L28.0 56.0 27.0 56.0 26.5 55.9 Q26.0 53.0 26.0 50.0 L26.0 49.0 26.0 48.0 26.0 47.0 25.5 47.0 Q25.7 50.2 24.0 51.0 L23.1 51.2 22.0 52.0 21.0 52.0 20.1 51.8 Q19.5 51.5 19.0 51.0 L18.0 51.0 17.5 50.95 17.2 43.95 16.95 43.95 16.95 42.95 16.95 37.95 16.95 36.95 16.95 35.95 16.05 35.75 Q14.15 34.75 12.95 32.95 L12.95 31.95 12.95 27.95 12.95 26.95 12.95 19.95 13.5 19.95 Q13.0 16.5 13.0 13.0 L12.45 12.9 Q12.0 11.0 12.0 9.0 L13.0 9.0 12.85 8.05 12.0 6.0 11.25 5.75 10.0 4.0 9.25 3.75 9.0 3.0 Q10.7 2.7 11.4 1.2 11.5 1.0 12.0 1.0 L12.0 0.0 17.0 0.0 18.0 0.0 18.0 1.0 Q20.7 0.8 20.95 3.0 L21.0 4.0 20.75 4.75 20.0 5.0 19.75 5.75 18.0 7.0 18.0 8.0 18.0 9.0 19.0 9.0 20.0 9.0 21.0 9.0 23.0 9.0 24.0 9.0 25.0 9.0 26.0 9.0 26.0 8.0 Q27.95 7.95 29.15 7.25 L30.0 7.0 30.0 6.0 32.75 3.75 33.0 3.0 33.0 2.0 Q36.2 1.8 36.85 4.05 L37.0 5.0 37.0 6.0 Q38.3 7.2 40.95 7.5 L41.0 8.0 M8.0 40.0 Q9.7 41.75 8.55 45.85 L8.0 46.0 7.0 46.0 Q7.0 46.5 6.8 46.6 4.3 47.7 4.0 46.0 L3.25 45.75 1.0 43.0 1.0 42.0 1.0 39.0 2.0 39.0 6.0 38.1 7.0 38.0 7.8 39.1 8.0 40.0 M33.0 61.0 Q37.2 60.3 36.1 65.05 L36.0 66.0 36.55 66.15 Q37.4 68.9 34.0 68.0 L33.15 68.2 Q29.8 70.25 27.0 68.0 L26.0 67.95 Q22.55 67.45 22.0 64.0 L23.1 63.2 24.0 63.0 29.05 62.15 30.0 62.0 30.0 61.0 32.0 61.0 33.0 61.0" fill="#ff0000" fill-rule="evenodd" stroke="none"/>
  </g>
</svg>
