<?xml version="1.0" encoding="UTF-8" standalone="no"?>
<svg xmlns:xlink="http://www.w3.org/1999/xlink" height="89.25px" width="72.0px" xmlns="http://www.w3.org/2000/svg">
  <g transform="matrix(1.0, 0.0, 0.0, 1.0, 0.0, -2.0)">
    <path d="M60.0 21.0 L60.05 22.0 Q60.15 23.65 58.0 23.0 L57.0 23.0 57.0 25.0 57.0 26.0 57.15 26.95 Q58.45 30.55 57.95 32.8 59.05 33.8 59.4 35.5 L59.5 36.5 Q61.2 38.25 60.05 42.35 L59.5 42.5 59.5 45.5 59.5 46.5 Q61.2 48.25 60.05 52.35 L59.5 52.5 59.55 53.5 Q60.15 57.4 57.05 57.5 L57.0 58.0 57.1 59.0 Q58.65 68.15 54.0 71.0 L53.0 71.0 51.0 71.0 51.0 73.0 51.0 74.0 Q52.7 74.3 51.6 76.8 L51.0 77.0 50.8 77.65 Q44.6 81.35 43.0 76.0 L42.5 75.9 Q42.0 73.5 42.0 71.0 L41.0 70.95 Q36.75 70.75 35.0 73.0 L35.0 74.0 35.05 75.0 Q35.7 79.2 34.0 81.0 L33.9 81.55 30.0 82.0 29.0 82.0 28.05 82.1 Q25.9 82.65 26.0 81.0 L25.5 80.9 Q24.4 74.1 21.0 70.0 L21.05 71.0 Q21.7 75.2 18.0 75.0 L17.8 75.6 Q15.3 76.7 15.0 75.0 L14.0 74.95 Q12.3 74.7 12.0 73.0 L11.5 72.95 11.15 69.5 10.5 69.5 10.5 68.5 10.5 64.5 10.5 63.5 10.5 60.5 10.5 59.5 10.5 58.5 9.75 58.25 Q9.5 58.0 9.5 57.5 L8.5 57.45 Q6.8 57.2 6.5 55.5 L6.5 54.5 6.5 53.5 6.0 53.45 Q5.5 50.0 5.5 46.5 L5.5 45.5 5.5 36.5 6.5 36.5 6.5 35.5 6.5 34.5 7.5 34.5 7.5 33.5 8.5 33.5 8.5 32.5 8.5 31.5 9.5 31.5 9.5 30.5 9.5 28.95 9.5 28.5 9.35 28.5 Q9.0 27.3 9.0 26.0 L8.5 25.9 Q8.0 23.0 8.0 20.0 L8.0 19.0 8.0 18.0 7.45 17.9 Q7.0 16.0 7.0 14.0 L8.0 14.0 8.0 13.0 8.0 11.0 7.45 10.85 Q6.7 8.8 5.0 8.0 L4.45 7.9 Q4.0 6.0 4.0 4.0 5.3 2.8 8.0 2.95 L9.0 3.0 9.0 2.0 10.0 2.0 11.0 2.0 12.0 2.0 13.0 2.0 14.0 2.0 16.85 2.45 17.0 3.0 Q17.5 3.0 17.75 3.25 L18.0 4.0 Q21.2 5.2 18.75 7.75 L18.0 8.0 18.0 9.0 18.0 10.0 19.0 10.0 21.0 10.0 22.0 10.0 Q27.95 8.45 31.75 4.75 L32.0 4.0 32.0 3.0 32.0 2.0 Q37.25 2.5 42.0 8.0 44.8 11.2 48.0 14.0 55.55 15.45 59.75 20.2 L60.0 21.0 M4.5 60.0 L4.5 59.5 Q6.8 58.9 7.4 60.0 7.65 60.55 7.55 61.5 L7.5 62.5 Q9.2 63.8 8.05 67.35 L7.5 67.5 6.5 67.5 4.5 67.5 Q4.6 68.45 5.1 69.05 4.15 69.0 4.0 68.0 L3.25 67.75 2.0 66.0 1.0 66.0 0.0 66.0 0.0 65.0 0.0 62.0 1.0 62.0 1.0 61.0 3.0 61.0 4.0 61.0 4.0 60.0 4.5 60.0 M32.0 84.0 Q34.7 83.3 35.4 84.8 35.5 85.0 36.0 85.0 L36.75 85.25 37.0 86.0 Q38.7 86.8 37.55 89.85 L37.0 90.0 36.0 90.0 35.85 90.55 33.0 91.0 32.0 91.1 Q28.3 91.7 27.0 90.0 L26.0 89.95 Q22.35 89.65 23.0 85.0 L24.0 85.0 Q26.7 85.7 27.4 84.2 27.5 84.0 28.0 84.0 L28.0 83.0 31.9 83.45 32.0 84.0 M63.5 59.5 L63.5 60.1 64.0 60.0 65.0 60.0 65.0 59.0 68.9 59.45 69.0 60.0 Q69.3 61.7 70.8 62.4 L71.0 63.0 72.0 63.0 72.0 65.0 72.0 66.0 71.0 66.0 70.5 66.1 Q70.15 67.65 68.0 67.0 L67.85 67.55 65.0 68.0 64.0 68.0 62.0 68.0 61.0 68.05 Q59.8 68.1 59.85 67.0 L59.65 66.0 59.45 65.9 59.2 64.5 58.95 64.35 Q58.5 63.0 58.5 61.5 L59.5 61.5 59.5 60.5 Q61.45 60.45 62.65 59.75 63.0 59.5 63.5 59.5 M58.0 81.0 L59.0 81.0 59.0 80.0 63.9 80.5 64.0 81.0 64.1 82.0 Q64.65 84.65 62.0 84.0 L61.8 84.6 Q59.3 85.7 59.0 84.0 L58.0 84.0 57.0 84.0 56.8 84.6 Q50.5 88.0 49.0 82.0 51.45 80.95 55.0 81.0 L56.0 81.0 57.0 81.0 58.0 81.0 M59.0 89.0 L58.25 88.75 Q58.0 88.5 58.0 88.0 L58.0 87.0 60.85 87.45 61.0 88.0 61.5 88.0 Q61.35 91.8 59.0 89.0" fill="#ff0000" fill-rule="evenodd" stroke="none"/>
  </g>
</svg>
