<?xml version="1.0" encoding="UTF-8" standalone="no"?>
<svg xmlns:xlink="http://www.w3.org/1999/xlink" height="89.0px" width="82.15px" xmlns="http://www.w3.org/2000/svg">
  <g transform="matrix(1.0, 0.0, 0.0, 1.0, -0.85, 0.0)">
    <path d="M83.0 61.0 L83.0 63.0 83.0 64.0 82.0 64.0 81.5 64.1 Q81.15 65.65 79.0 65.0 L78.85 65.55 76.0 66.0 75.0 66.0 72.0 66.0 Q71.5 66.0 71.4 65.8 71.0 65.0 71.0 64.0 L70.45 63.9 Q70.0 62.0 70.0 60.0 L71.0 60.0 71.0 59.0 Q72.95 58.95 74.15 58.25 L75.0 58.0 76.0 58.0 76.0 57.0 79.9 57.45 80.0 58.0 80.8 59.1 81.0 60.0 81.75 60.25 82.0 61.0 83.0 61.0 M68.0 22.0 L68.0 26.0 68.0 27.0 Q72.75 30.25 74.85 36.05 L75.0 37.0 75.8 38.1 76.0 39.0 75.8 39.9 Q73.35 44.35 69.0 47.0 L69.1 47.95 Q69.65 50.15 68.0 50.0 L68.0 51.0 68.0 52.0 68.0 55.0 68.0 56.0 68.0 60.0 68.0 61.0 68.0 63.0 68.0 64.0 68.0 65.0 Q68.1 70.1 62.0 69.0 L62.0 71.0 62.0 72.0 Q63.7 72.3 62.6 74.8 62.5 75.0 62.0 75.0 L61.75 75.75 61.0 76.0 Q60.9 77.65 63.0 77.5 L63.0 78.0 Q68.6 78.95 63.85 81.8 L63.0 82.0 62.85 82.55 60.0 83.0 59.0 83.0 59.0 84.0 58.75 84.65 Q53.7 88.25 52.0 83.0 51.5 83.0 51.4 82.8 51.0 82.0 51.0 81.0 53.05 79.55 57.0 79.5 L57.0 78.5 Q54.9 78.65 55.0 77.0 L54.45 76.85 Q54.0 75.5 54.0 74.0 L53.5 73.9 Q53.0 71.5 53.0 69.0 L52.0 68.95 Q47.75 68.75 46.0 71.0 L46.0 74.0 46.0 75.0 46.1 76.0 Q46.7 78.7 45.0 79.0 L44.9 79.55 41.0 80.0 40.0 80.0 39.05 80.1 Q36.9 80.65 37.0 79.0 L36.5 78.9 Q35.4 72.1 32.0 68.0 L32.05 69.0 Q32.7 73.2 29.0 73.0 L28.8 73.6 Q26.3 74.7 26.0 73.0 L25.1 72.8 24.0 72.0 23.25 71.75 Q23.0 71.5 23.0 71.0 L22.5 70.95 Q22.0 65.5 22.0 60.0 L21.45 59.9 Q21.15 58.4 19.0 59.0 L19.0 60.0 19.0 61.0 Q20.7 62.3 19.55 65.85 L19.0 66.0 18.0 66.0 18.1 67.0 Q18.7 70.7 17.0 72.0 L16.75 72.75 16.0 73.0 15.85 73.55 Q12.8 74.7 12.0 73.0 L12.0 72.0 12.0 71.0 Q11.5 71.0 11.4 70.8 11.0 70.0 11.0 69.0 12.05 68.05 14.0 68.0 L15.0 68.0 15.0 67.0 15.0 66.0 14.25 65.75 13.0 64.0 12.0 64.0 11.45 63.9 Q11.0 62.0 11.0 60.0 L12.0 60.0 12.0 59.0 14.0 59.0 15.0 59.0 15.0 58.0 16.0 58.0 16.0 57.0 16.0 56.0 15.8 55.1 15.0 54.0 15.0 53.0 14.45 52.9 Q14.0 51.0 14.0 49.0 L14.0 48.0 14.0 46.0 14.0 45.0 14.0 43.0 15.0 43.0 15.0 42.0 16.0 42.0 16.0 41.0 Q17.5 40.0 19.1 39.2 L20.0 39.0 20.0 38.0 20.0 36.0 20.0 35.0 19.25 34.75 Q19.0 34.5 19.0 34.0 L19.0 33.0 19.0 31.0 20.0 31.0 20.0 30.0 Q21.65 30.15 21.1 27.95 L21.0 27.0 20.25 26.75 Q13.35 19.65 7.0 12.0 L6.0 12.1 Q-0.05 13.05 1.0 7.0 1.5 6.5 2.1 6.2 L3.0 6.0 3.0 5.0 Q3.5 4.5 4.1 4.2 L5.0 4.0 5.0 3.0 Q8.0 2.0 10.8 0.6 L11.0 0.0 12.0 0.0 13.0 0.0 14.8 3.1 15.0 4.0 14.75 4.75 14.0 5.0 14.0 6.0 Q14.85 10.65 17.75 13.25 L18.0 14.0 Q18.95 16.5 21.15 17.8 21.5 18.0 22.0 18.0 L24.75 15.75 25.0 15.0 24.85 14.05 24.0 12.0 24.0 11.0 24.0 10.0 24.0 9.0 24.0 6.0 25.0 6.0 25.0 5.0 Q28.2 4.3 29.3 5.75 L30.0 6.0 Q33.7 6.7 35.25 5.25 35.5 5.0 36.0 5.0 L38.0 5.0 39.0 5.0 Q42.2 4.7 44.2 3.25 L45.0 3.0 45.0 2.0 Q46.05 1.05 47.85 0.55 L48.0 0.0 49.0 0.0 Q50.9 7.1 56.8 10.4 L57.0 11.0 Q59.15 10.4 59.5 11.9 L60.0 12.0 Q68.8 14.7 68.5 21.0 L68.0 21.0 68.0 22.0 M74.0 75.0 L73.75 75.8 Q71.45 78.45 70.0 75.0 L70.0 74.0 73.9 74.45 74.0 75.0 M75.0 70.0 L75.0 69.0 79.9 69.5 80.0 70.0 Q81.7 70.3 80.6 72.8 80.5 73.0 80.0 73.0 L79.0 73.1 Q74.0 74.0 74.0 70.0 L75.0 70.0 M34.0 85.0 L34.0 84.0 34.0 83.0 Q37.2 83.7 38.3 82.25 38.5 82.0 39.0 82.0 L39.0 81.0 42.9 81.45 43.0 82.0 Q45.7 81.3 46.4 82.8 L47.0 83.0 Q47.5 83.0 47.75 83.25 L48.0 84.0 Q49.7 84.8 48.55 87.85 L48.0 88.0 47.0 88.0 46.85 88.55 44.0 89.0 43.0 89.0 41.0 89.0 40.05 88.85 35.0 87.0 34.4 86.8 Q34.0 86.0 34.0 85.0 M17.0 80.0 L16.4 79.8 Q16.0 79.0 16.0 78.0 22.8 74.15 27.0 78.0 L26.25 78.45 Q24.2 79.7 21.0 80.0 L20.85 80.55 Q17.8 81.7 17.0 80.0" fill="#ff0000" fill-rule="evenodd" stroke="none"/>
  </g>
</svg>
