<?xml version="1.0" encoding="UTF-8" standalone="no"?>
<svg xmlns:xlink="http://www.w3.org/1999/xlink" height="45.0px" width="12.0px" xmlns="http://www.w3.org/2000/svg">
  <g transform="matrix(1.0, 0.0, 0.0, 1.0, -2.0, 0.0)">
    <path d="M12.1 3.3 L12.0 5.0 Q12.0 16.0 11.0 17.3 L10.3 17.7 Q10.0 17.95 10.0 19.5 10.0 21.1 11.2 22.7 12.4 24.35 14.0 25.0 L14.0 27.0 Q13.0 28.1 13.0 30.2 L12.3 30.25 10.8 29.05 9.0 27.0 9.0 45.0 6.0 45.0 6.0 27.0 Q4.9 27.95 4.1 29.2 L2.9 30.95 2.45 30.6 2.25 30.35 2.0 28.0 3.6 26.05 Q5.2 23.8 5.2 21.95 5.2 19.9 4.1 17.2 3.0 14.5 3.0 8.0 3.0 2.9 4.1 1.2 4.9 0.0 7.0 0.0 8.75 0.0 10.45 1.15 12.1 2.25 12.1 3.3" fill="#ff0000" fill-rule="evenodd" stroke="none"/>
  </g>
</svg>
