<?xml version="1.0" encoding="UTF-8" standalone="no"?>
<svg xmlns:xlink="http://www.w3.org/1999/xlink" height="118.0px" width="60.3px" xmlns="http://www.w3.org/2000/svg">
  <g transform="matrix(1.0, 0.0, 0.0, 1.0, 32.8, 43.2)">
    <path d="M14.3 -21.65 Q16.05 -22.4 18.0 -22.45 20.0 -22.45 21.9 -20.8 24.35 -18.7 24.35 -15.2 24.35 -11.35 23.6 -9.2 22.45 -5.95 19.35 -5.2 19.15 -3.9 18.15 -2.9 17.35 -2.05 17.35 -0.2 L17.35 0.8 Q18.95 3.1 19.35 8.8 20.45 9.9 21.5 12.6 22.4 15.0 22.4 16.35 L22.35 18.8 24.75 19.1 Q25.7 19.6 25.7 21.3 L25.35 23.8 26.15 23.9 Q26.65 24.1 26.65 24.75 L26.35 32.8 25.45 34.05 Q24.6 34.9 23.35 34.8 L23.35 36.8 Q25.95 41.55 26.35 43.8 L27.5 47.75 Q27.75 49.6 25.35 50.8 L25.35 53.8 Q26.25 54.9 26.35 55.8 L26.75 55.7 26.75 59.9 Q24.3 59.75 21.8 58.9 20.25 58.35 19.35 57.8 L18.15 59.3 Q17.3 60.2 17.3 60.75 L17.2 65.8 Q16.4 68.8 12.35 68.8 11.55 68.8 9.05 67.0 L6.6 65.15 Q-1.15 65.15 -4.65 74.8 L-11.65 74.8 Q-12.3 74.15 -13.2 72.05 -14.35 69.25 -15.05 68.0 -18.15 62.55 -24.65 60.8 -26.3 59.65 -27.95 54.45 -29.5 49.6 -29.65 45.8 -30.5 45.8 -31.05 44.95 -31.65 44.05 -31.65 42.8 L-32.4 41.05 Q-33.0 39.1 -32.65 34.8 L-32.65 31.8 -31.65 31.8 -31.65 29.8 -30.65 29.8 -29.65 26.8 -30.15 26.8 -30.65 20.8 -30.0 20.15 -29.35 19.3 Q-29.35 18.3 -29.65 16.8 L-29.65 14.8 Q-29.2 12.9 -28.7 12.5 -28.4 12.2 -28.4 11.7 -28.4 10.7 -28.65 9.8 -28.65 8.95 -27.6 6.75 L-25.65 2.8 -26.8 -2.45 -27.65 -7.2 -25.65 -7.2 -25.65 -27.2 Q-25.65 -27.6 -25.95 -27.9 L-26.65 -28.2 Q-29.15 -28.2 -30.9 -30.55 -32.65 -32.9 -32.65 -36.2 -32.65 -37.85 -30.6 -39.0 -28.55 -40.2 -25.65 -40.2 L-25.65 -43.2 -22.65 -43.2 Q-22.65 -41.95 -21.85 -41.1 L-20.65 -40.2 -20.0 -40.1 -14.65 -39.2 Q-13.5 -38.35 -12.65 -37.2 L-11.65 -37.2 -8.05 -35.45 -5.65 -34.2 Q0.25 -32.7 2.35 -30.2 4.4 -30.2 5.9 -27.85 7.35 -25.5 7.35 -22.2 6.95 -20.55 4.8 -19.5 L1.35 -18.2 2.4 -16.35 3.35 -14.2 3.35 -7.2 5.45 -6.55 7.35 -5.2 12.35 -4.55 12.35 -4.2 13.3 -5.1 Q13.95 -6.15 13.95 -8.3 L13.65 -11.2 Q13.0 -14.25 11.35 -16.2 10.85 -20.05 14.3 -21.65" fill="#ff0000" fill-opacity="0.8901961" fill-rule="evenodd" stroke="none"/>
  </g>
</svg>
