<?xml version="1.0" encoding="UTF-8" standalone="no"?>
<svg xmlns:xlink="http://www.w3.org/1999/xlink" height="103.6px" width="64.15px" xmlns="http://www.w3.org/2000/svg">
  <g transform="matrix(1.0, 0.0, 0.0, 1.0, 0.0, 0.0)">
    <path d="M64.15 16.5 L64.15 36.0 60.9 36.0 60.0 36.0 56.85 38.7 58.25 43.75 59.4 43.75 59.4 68.6 59.0 69.25 59.0 77.9 59.4 78.9 59.4 82.3 59.0 82.65 59.0 93.6 59.0 94.6 59.05 95.6 Q59.75 100.35 58.0 102.6 L58.0 103.6 57.0 103.6 49.0 103.6 Q49.0 103.1 48.8 102.95 44.95 100.65 44.0 95.6 L44.85 95.55 39.85 94.7 39.85 96.7 39.85 97.7 39.85 98.7 39.25 98.7 Q39.1 101.15 38.0 102.6 L38.0 103.6 37.0 103.6 29.0 103.6 Q29.0 103.1 28.8 102.95 26.25 101.45 25.0 98.7 L19.25 98.7 Q19.1 101.15 18.0 102.6 L18.0 103.6 17.0 103.6 9.0 103.6 Q9.0 103.1 8.8 102.95 4.95 100.65 4.0 95.6 5.0 95.6 5.8 95.2 L6.0 94.6 5.5 94.6 Q6.3 82.0 0.0 72.6 L0.0 71.6 0.0 67.6 Q4.05 62.15 9.2 57.85 L10.0 57.6 10.0 56.6 10.0 54.6 10.0 53.7 9.85 53.7 9.85 52.7 9.85 48.7 10.85 48.7 10.85 47.7 10.85 42.7 11.85 42.7 11.85 41.7 Q14.25 39.2 16.15 36.0 L15.9 36.0 15.9 35.0 Q17.6 34.7 18.3 33.2 18.4 33.0 18.9 33.0 L18.9 32.0 18.4 31.95 16.9 11.0 15.9 11.0 13.9 11.0 13.9 10.0 13.9 5.0 15.9 5.0 16.9 5.0 16.9 4.0 17.7 2.9 17.9 2.0 17.9 1.0 17.9 0.0 19.9 0.0 20.9 0.0 20.9 2.0 20.9 3.0 20.9 4.0 20.9 5.0 Q24.1 4.3 24.75 6.05 L24.9 7.0 Q28.35 7.55 31.0 8.8 L31.9 9.0 31.9 8.0 31.9 7.0 31.9 6.0 Q33.9 3.5 38.8 4.5 L38.9 5.0 38.9 13.0 38.9 14.0 Q40.85 14.05 41.65 15.15 L41.9 16.0 Q42.15 18.2 43.4 19.0 L42.9 19.0 Q44.95 24.85 47.25 33.25 48.65 31.15 49.85 31.2 L49.85 31.7 Q51.0 32.0 51.9 32.55 L51.95 32.0 52.3 24.95 Q51.9 22.55 51.85 19.7 L52.05 19.55 51.65 16.5 54.9 16.5 54.9 17.6 55.7 17.25 55.85 16.7 59.85 16.7 60.85 16.7 61.3 16.6 61.25 16.5 61.85 16.5 Q62.75 16.35 63.4 16.5 L64.15 16.5 M47.85 43.75 L48.85 43.75 48.85 43.7 47.85 43.7 37.85 43.7 36.85 43.7 32.85 43.7 31.85 43.7 30.85 43.7 29.85 43.7 23.85 43.7 22.85 43.7 22.85 43.75 30.85 43.75 31.85 43.75 46.85 43.75 47.85 43.75 M24.9 15.0 L23.9 15.0 22.95 15.15 Q20.35 16.1 19.9 24.0 20.1 26.8 20.75 29.05 L20.9 30.0 Q21.95 29.05 23.9 29.0 L24.9 29.0 24.9 28.0 24.9 27.0 Q29.7 25.85 28.05 19.95 L27.9 19.0 27.65 18.25 Q26.1 16.8 24.9 15.0 M24.0 59.1 Q23.15 57.7 22.85 55.8 L22.85 57.7 22.85 58.7 24.0 59.1" fill="#fd0808" fill-opacity="0.98039216" fill-rule="evenodd" stroke="none"/>
  </g>
</svg>
