<?xml version="1.0" encoding="UTF-8" standalone="no"?>
<svg xmlns:xlink="http://www.w3.org/1999/xlink" height="88.0px" width="74.0px" xmlns="http://www.w3.org/2000/svg">
  <g transform="matrix(1.0, 0.0, 0.0, 1.0, 0.0, -1.0)">
    <path d="M60.95 19.4 Q62.1 20.65 62.1 21.55 62.1 22.7 61.0 26.0 61.0 28.6 62.25 33.8 63.5 39.0 63.5 40.3 63.5 44.75 63.15 49.0 63.7 51.1 69.9 51.5 69.95 66.55 72.0 67.6 L73.35 67.55 Q74.0 67.55 74.0 69.5 74.0 71.35 57.05 80.0 40.05 88.65 40.0 89.0 L35.0 89.0 Q34.45 86.8 27.1 83.65 11.65 77.05 0.0 71.0 L0.0 68.0 Q1.35 67.35 3.0 67.0 1.1 57.1 2.75 52.9 3.95 50.0 7.3 49.5 L11.7 48.55 Q13.1 47.25 11.0 42.0 12.35 41.65 12.8 40.2 13.25 38.6 15.0 38.0 L15.0 35.0 Q14.75 35.0 14.45 33.15 14.1 31.25 14.0 29.0 L14.55 29.65 Q14.85 29.95 15.45 29.95 17.0 28.9 17.0 28.0 L15.0 24.0 Q13.0 19.6 13.0 17.0 L15.0 13.85 Q17.0 10.85 17.25 10.85 18.1 10.85 18.9 11.7 19.85 12.7 21.0 13.0 21.3 10.5 23.0 8.35 25.05 5.75 27.8 5.75 28.55 5.75 31.0 7.0 33.65 7.0 35.0 4.65 36.0 2.95 36.0 1.0 36.95 2.05 37.75 2.05 36.35 5.35 39.35 7.4 41.5 8.8 43.25 8.8 44.2 8.8 46.3 7.65 L50.35 4.95 49.35 7.25 Q48.65 9.25 48.65 10.4 48.65 13.75 51.25 14.15 L55.55 14.4 Q54.85 15.5 54.0 16.0 L54.0 18.0 56.3 18.6 58.0 19.0 Q58.5 19.0 58.0 18.5 57.5 18.0 58.0 18.0 59.65 18.0 60.95 19.4" fill="#ff0000" fill-opacity="0.9764706" fill-rule="evenodd" stroke="none"/>
  </g>
</svg>
