<?xml version="1.0" encoding="UTF-8" standalone="no"?>
<svg xmlns:xlink="http://www.w3.org/1999/xlink" height="32.6px" width="32.1px" xmlns="http://www.w3.org/2000/svg">
  <g transform="matrix(1.0, 0.0, 0.0, 1.0, -1.0, -1.5)">
    <path d="M31.9 7.65 Q31.9 8.75 32.5 10.7 33.1 12.65 33.1 13.7 33.1 16.35 29.7 18.6 26.1 20.5 25.8 20.9 24.75 22.35 22.45 29.2 20.85 34.1 18.3 34.1 15.9 34.1 13.0 30.4 9.75 26.2 11.0 22.0 9.75 22.85 8.9 22.45 8.0 22.0 8.0 20.3 8.0 19.75 8.5 18.95 L9.0 18.0 Q7.45 18.7 4.6 17.15 1.9 15.7 1.0 14.0 2.8 13.9 3.2 12.1 3.6 10.35 5.05 10.35 L6.55 10.7 8.0 11.0 8.0 7.0 9.0 7.0 Q9.25 5.4 13.05 3.5 17.1 1.5 21.0 1.5 21.65 1.5 24.7 3.2 28.3 5.25 28.5 7.0 31.15 6.9 31.9 7.65" fill="#ff0000" fill-rule="evenodd" stroke="none"/>
  </g>
</svg>
