<?xml version="1.0" encoding="UTF-8" standalone="no"?>
<svg xmlns:xlink="http://www.w3.org/1999/xlink" height="107.0px" width="97.25px" xmlns="http://www.w3.org/2000/svg">
  <g transform="matrix(1.0, 0.0, 0.0, 1.0, 0.0, -26.0)">
    <path d="M81.8 63.1 L82.0 64.0 83.75 66.15 84.0 67.0 Q85.55 68.45 85.5 71.0 L85.0 71.0 84.75 71.75 84.0 72.0 83.85 72.55 Q82.05 73.05 81.0 74.0 80.4 76.15 82.0 76.05 L83.0 76.0 Q89.6 74.95 94.8 77.4 L95.0 78.0 Q97.2 78.3 97.05 81.0 L97.0 82.0 97.0 83.0 97.0 84.0 97.05 85.0 Q97.75 92.75 96.0 98.0 L95.75 98.75 94.0 100.0 93.85 100.55 91.0 101.0 90.9 101.55 87.0 102.0 86.0 102.0 85.0 101.9 Q83.0 101.5 82.0 100.0 L81.45 99.85 Q81.0 98.5 81.0 97.0 L80.0 97.0 80.0 99.0 80.0 100.0 80.0 105.0 80.0 106.0 80.0 108.0 80.0 109.0 80.1 109.95 Q80.65 112.15 79.0 112.0 L79.0 114.0 79.0 115.0 79.0 116.0 Q80.65 115.9 80.1 118.05 L80.0 119.0 Q81.2 120.8 82.75 122.25 L83.0 123.0 Q84.7 124.75 83.55 128.85 L83.0 129.0 82.75 129.7 Q80.45 131.45 77.0 132.0 L77.0 133.0 76.0 133.0 70.0 133.0 70.0 132.0 69.1 131.8 68.0 131.0 67.0 131.0 66.0 131.0 65.15 130.75 Q63.45 129.55 63.0 127.0 63.0 126.5 63.15 126.05 65.45 119.1 61.0 121.0 L60.0 121.0 59.85 121.55 Q57.05 122.55 55.0 124.0 L54.85 124.55 52.0 125.0 51.0 125.0 51.1 126.0 Q51.7 128.7 50.0 129.0 L49.85 129.55 Q48.05 130.05 47.0 131.0 L46.85 131.55 Q42.1 132.9 41.0 130.0 L40.1 129.8 Q39.5 129.5 39.0 129.0 L38.5 128.9 Q38.0 126.0 38.0 123.0 L37.15 122.75 35.0 121.0 34.1 120.8 Q33.5 120.5 33.0 120.0 L32.1 119.8 Q31.5 119.5 31.0 119.0 L30.0 119.0 29.15 118.75 27.0 117.0 26.1 116.8 Q25.5 116.5 25.0 116.0 L24.0 116.0 Q23.5 116.0 23.45 116.15 22.05 120.05 20.0 123.0 L19.75 123.8 Q18.1 126.1 15.0 127.0 L14.9 127.55 Q9.75 128.75 7.0 127.0 L6.25 126.75 6.0 126.0 5.0 125.95 Q3.3 125.7 3.0 124.0 L2.15 123.75 Q1.05 122.95 1.0 121.0 L1.0 120.0 0.0 120.0 0.0 119.0 0.0 114.0 1.0 114.0 1.0 113.0 1.0 112.0 Q2.65 112.15 2.5 110.0 L3.0 110.0 3.0 109.0 Q4.5 108.0 6.1 107.2 L7.0 107.0 8.0 107.0 8.0 106.0 8.0 105.0 8.0 95.0 8.0 94.0 8.0 85.0 7.25 84.75 6.0 83.0 Q7.65 83.15 7.5 81.0 L8.0 81.0 8.0 80.0 8.0 75.0 7.0 75.0 Q3.9 75.1 5.0 71.0 7.7 71.2 8.45 69.15 8.5 69.0 9.0 69.0 L9.0 68.0 9.0 67.0 9.0 44.0 10.0 44.0 10.0 43.0 9.45 42.85 Q9.0 41.5 9.0 40.0 10.05 39.05 12.0 39.0 L13.0 39.0 13.0 38.0 Q13.5 37.5 14.1 37.2 L15.0 37.0 15.0 36.0 Q20.7 33.75 25.15 36.75 L26.0 37.0 Q28.9 36.9 30.3 35.25 30.5 35.0 31.0 35.0 L31.0 34.0 31.0 32.0 32.0 32.0 32.0 31.0 Q34.55 30.55 36.2 29.25 L37.0 29.0 37.0 28.0 Q38.0 27.5 39.05 27.15 L40.0 27.0 40.75 26.75 41.0 26.0 42.0 26.0 Q43.0 27.5 44.8 28.4 L45.0 29.0 45.8 30.1 46.0 31.0 Q47.75 33.25 47.05 38.0 L47.0 39.0 Q47.0 41.0 47.45 42.9 L48.0 43.0 Q50.15 43.65 50.45 42.1 L51.0 42.0 52.0 42.0 53.0 42.0 53.0 41.0 Q54.95 40.95 56.15 40.25 L57.0 40.0 57.0 39.0 Q59.9 38.9 61.3 37.25 61.5 37.0 62.0 37.0 L62.0 36.0 Q64.45 34.95 67.95 35.5 L68.0 36.0 68.8 37.1 69.0 38.0 69.8 39.1 70.0 40.0 71.8 43.1 72.0 44.0 72.8 45.1 73.0 46.0 Q74.65 45.9 74.1 48.05 L74.0 49.0 75.75 51.15 76.0 52.0 76.0 53.0 Q77.7 53.3 77.95 55.0 L78.0 56.0 Q79.65 55.9 79.1 58.05 L79.0 59.0 79.75 59.25 80.0 60.0 80.8 61.1 81.0 62.0 81.8 63.1 M25.0 40.0 L25.05 41.0 Q25.75 45.75 24.0 48.0 L24.0 52.0 24.0 53.0 25.1 53.8 26.0 54.0 27.0 54.0 27.0 53.0 Q28.95 52.95 30.15 52.25 L31.0 52.0 31.0 51.0 Q32.7 50.2 32.1 47.0 L32.0 46.0 32.0 45.0 32.0 43.0 32.0 42.0 32.0 38.0 31.1 38.2 30.0 39.0 Q29.5 39.0 29.3 39.25 28.2 40.7 25.0 40.0 M21.0 52.0 L20.1 52.2 Q16.5 54.15 13.0 52.0 L13.0 60.0 13.0 61.0 Q12.3 63.7 14.0 63.95 L15.0 64.0 Q15.5 63.5 16.1 63.2 L17.0 63.0 17.0 62.0 18.75 60.75 19.0 60.0 19.0 59.0 19.0 58.0 Q21.15 57.15 21.85 54.95 L22.0 54.0 22.0 53.0 21.25 52.75 21.0 52.0" fill="#ff0000" fill-rule="evenodd" stroke="none"/>
  </g>
</svg>
