<?xml version="1.0" encoding="UTF-8" standalone="no"?>
<svg xmlns:xlink="http://www.w3.org/1999/xlink" height="111.0px" width="146.0px" xmlns="http://www.w3.org/2000/svg">
  <g transform="matrix(1.0, 0.0, 0.0, 1.0, 0.0, -1.0)">
    <path d="M104.0 18.0 L104.0 19.0 105.75 21.15 106.0 22.0 Q107.65 21.9 107.1 24.05 L107.0 25.0 Q107.5 25.0 107.75 25.25 L108.0 26.0 Q108.5 28.0 109.75 29.25 L110.0 30.0 Q111.2 31.8 112.75 33.25 L113.0 34.0 Q113.95 35.05 113.55 36.9 L113.0 37.0 112.75 37.75 112.0 38.0 112.0 41.0 112.0 42.0 111.95 43.0 Q111.7 44.7 109.0 44.0 L108.1 44.2 105.0 46.0 104.75 46.75 104.0 47.0 104.0 49.0 104.0 50.0 104.0 55.0 104.0 56.0 104.0 58.0 104.0 59.0 105.0 59.0 Q106.35 60.65 106.9 63.05 L107.0 64.0 Q108.55 65.45 108.5 68.0 L108.0 68.0 108.1 69.0 Q109.35 75.85 106.0 78.0 L106.0 79.0 Q107.2 82.8 108.8 86.1 L109.0 87.0 110.1 87.8 111.0 88.0 111.0 89.0 Q111.5 89.0 111.55 89.15 113.0 94.5 110.0 96.0 L109.45 96.15 Q108.7 98.2 106.0 98.0 L105.9 98.5 100.0 99.0 99.0 99.0 94.0 99.0 93.0 99.0 Q89.8 98.8 89.0 101.0 L88.85 101.55 Q87.05 102.05 86.0 103.0 L85.0 103.0 83.0 103.0 82.25 102.75 Q82.0 102.5 82.0 102.0 L81.15 101.8 Q79.3 100.7 80.0 97.0 L80.0 96.0 80.0 95.0 79.0 95.0 78.0 95.0 77.8 95.6 Q76.0 96.5 74.0 97.0 L74.0 98.0 74.0 99.0 Q74.5 99.0 74.75 99.25 L75.0 100.0 75.55 100.1 Q77.1 106.1 74.0 108.0 L73.75 108.75 73.0 109.0 Q73.0 109.5 72.8 109.6 71.0 110.5 69.0 111.0 L68.0 111.0 68.0 112.0 67.0 112.0 62.0 112.0 62.0 111.0 62.0 110.5 Q59.35 110.65 60.0 108.0 L60.0 107.0 Q59.5 107.0 59.4 106.8 59.0 106.0 59.0 105.0 L58.15 104.75 Q55.25 102.75 51.0 102.0 L50.0 102.05 Q48.4 102.15 49.0 100.0 52.35 99.65 54.15 100.75 L55.0 101.0 Q57.15 101.65 57.5 100.1 L58.0 100.0 58.0 99.0 Q62.7 100.2 63.45 97.1 L64.0 97.0 Q65.0 96.5 66.05 96.15 L67.0 96.0 67.0 95.0 66.5 94.9 Q66.0 92.0 66.0 89.0 L65.25 88.75 Q65.0 88.5 65.0 88.0 L64.05 87.85 60.0 86.0 59.15 85.75 57.0 84.0 56.1 83.8 Q55.5 83.5 55.0 83.0 L54.1 82.8 Q53.5 82.5 53.0 82.0 L52.05 81.85 50.0 81.0 49.0 81.0 49.85 83.05 50.0 84.0 49.85 84.95 Q48.95 87.95 47.0 90.0 L46.8 90.85 44.0 95.0 43.9 95.5 39.0 96.0 38.1 96.2 Q37.5 96.5 37.0 97.0 L36.1 96.8 Q35.5 96.5 35.0 96.0 L34.4 95.8 Q32.35 92.15 32.0 87.0 L33.0 87.0 33.0 86.0 32.05 85.9 Q29.65 85.35 28.0 84.0 L27.0 84.0 26.0 84.0 25.0 84.0 24.85 84.95 Q24.0 87.35 23.0 85.0 L22.0 85.0 21.0 85.0 20.75 85.75 20.0 86.0 19.75 86.75 18.0 88.0 17.75 88.75 17.0 89.0 16.8 89.6 Q16.0 90.0 15.0 90.0 L14.85 90.55 Q10.75 91.7 9.0 90.0 L8.1 89.8 Q7.5 89.5 7.0 89.0 L6.1 88.8 Q3.05 87.45 2.0 84.0 L1.8 83.1 1.0 82.0 0.0 82.0 0.0 81.0 0.0 76.0 1.0 76.0 2.0 76.0 2.0 75.0 2.0 74.0 2.75 73.75 3.0 73.0 3.0 72.0 Q3.5 71.5 4.1 71.2 L5.0 71.0 Q7.0 70.0 9.05 69.15 L10.0 69.0 11.0 69.0 12.0 69.0 14.0 69.0 15.0 69.0 Q15.5 69.5 16.1 69.8 L17.0 70.0 19.75 72.25 20.0 73.0 Q20.5 73.0 20.75 73.25 L21.0 74.0 Q22.7 74.3 22.5 77.0 L23.0 77.0 23.0 76.0 23.0 75.0 23.8 73.9 24.0 73.0 24.0 72.0 25.0 72.0 25.0 71.0 25.0 70.0 Q26.25 67.25 27.8 64.85 L28.0 64.0 28.0 63.0 28.0 62.0 Q30.2 60.7 30.5 57.05 L31.0 57.0 31.0 56.0 31.0 55.0 Q32.7 54.2 32.5 51.0 L33.0 51.0 33.0 50.0 33.0 48.0 34.0 48.0 34.0 47.0 34.0 45.0 Q35.7 44.7 35.1 42.0 L35.0 41.0 34.0 41.05 Q32.4 41.15 33.0 39.0 32.5 39.0 32.4 38.8 32.0 38.0 32.0 37.0 34.7 37.7 35.4 36.2 35.5 36.0 36.0 36.0 L36.0 35.0 36.0 34.0 36.0 29.0 37.0 29.0 37.0 28.0 37.0 27.0 37.0 22.0 37.0 21.0 37.0 11.0 38.0 11.0 38.0 10.0 38.0 9.0 37.45 8.85 Q37.0 7.5 37.0 6.0 L38.0 6.0 38.0 5.0 Q42.15 5.15 43.45 2.2 43.5 2.0 44.0 2.0 L44.0 1.0 45.0 1.0 46.0 1.0 Q48.8 1.2 50.8 2.35 L51.0 3.0 51.75 3.25 52.0 4.0 Q54.45 5.55 55.8 8.1 L56.0 9.0 Q57.7 9.3 57.95 11.0 L58.0 12.0 Q59.7 12.3 59.95 14.0 L60.0 15.0 62.05 15.85 63.0 16.0 64.0 16.0 64.0 15.0 Q65.95 14.95 67.15 14.25 67.5 14.0 68.0 14.0 69.0 13.5 70.05 13.15 L71.0 13.0 71.0 12.0 Q71.5 11.5 72.1 11.2 L73.0 11.0 74.0 11.0 74.0 10.0 Q76.9 9.9 78.3 8.25 78.5 8.0 79.0 8.0 L80.0 8.0 80.0 7.0 Q81.95 6.95 83.15 6.25 L84.0 6.0 85.0 6.0 85.0 5.0 Q86.0 4.5 87.05 4.15 L88.0 4.0 88.0 3.0 Q90.9 2.9 92.3 1.25 92.5 1.0 93.0 1.0 L95.85 1.45 96.0 2.0 96.8 3.1 97.0 4.0 Q97.5 6.0 98.75 7.25 L99.0 8.0 99.8 9.1 100.0 10.0 101.85 14.05 102.0 15.0 103.75 17.15 104.0 18.0 M36.0 53.0 L35.5 53.0 Q35.7 55.7 34.0 56.0 L34.0 57.0 Q33.9 59.9 32.0 61.0 L32.0 62.0 31.9 63.0 Q31.5 65.0 30.0 66.0 L30.0 67.0 29.85 67.95 Q28.65 71.15 27.0 74.0 L27.0 75.0 26.8 75.9 26.0 77.0 Q25.3 80.2 26.75 81.3 L27.0 82.0 Q29.7 81.8 31.15 82.75 L32.0 83.0 34.0 83.0 35.0 83.0 35.0 82.0 35.75 81.75 36.0 81.0 36.0 80.0 36.0 79.0 36.0 66.0 37.0 66.0 37.0 65.0 37.0 64.0 37.0 61.0 36.5 60.9 Q36.0 58.0 36.0 55.0 L36.0 54.0 36.0 53.0 M49.0 18.0 L48.0 18.0 47.0 18.0 46.9 18.55 Q43.05 19.45 41.0 18.0 L41.0 20.0 41.0 21.0 41.0 26.0 41.0 27.0 Q41.0 28.5 41.45 29.85 L42.0 30.0 43.0 30.0 44.0 30.0 44.0 29.0 45.75 27.75 46.0 27.0 46.0 26.0 47.0 26.0 47.0 25.0 47.0 24.0 Q48.45 22.45 50.85 21.55 L51.0 21.0 Q50.5 21.0 50.4 20.8 50.0 20.0 50.0 19.0 L49.25 18.75 Q49.0 18.5 49.0 18.0 M54.0 11.0 L53.5 11.0 Q53.7 13.7 52.0 14.0 L52.0 18.0 52.0 19.0 53.1 19.8 54.0 20.0 Q56.15 20.65 56.5 19.1 L57.0 19.0 57.0 18.0 58.0 18.0 58.0 17.0 Q58.0 16.5 57.8 16.4 56.3 15.7 56.0 14.0 L55.8 13.4 Q54.3 12.7 54.0 11.0 M111.0 71.0 L111.0 70.0 112.0 70.0 112.0 69.0 113.0 69.0 113.0 68.0 Q114.7 67.7 115.4 66.2 L116.0 66.0 117.0 66.0 118.0 66.0 118.0 65.0 124.95 65.5 125.0 66.0 Q127.0 66.5 128.25 67.75 L129.0 68.0 Q132.65 70.35 132.95 76.0 L133.0 77.0 Q136.75 77.25 139.85 78.45 L140.0 79.0 Q142.7 78.8 144.15 79.75 L145.0 80.0 145.8 81.1 146.0 82.0 145.75 82.75 144.0 84.0 143.05 83.85 Q138.15 82.35 133.0 81.0 L132.0 81.0 131.0 81.0 130.0 81.0 129.75 81.8 Q127.65 84.15 127.0 88.0 126.5 88.0 126.2 88.25 118.5 94.7 112.0 87.0 L112.0 86.0 112.0 85.0 111.5 84.95 Q111.0 81.5 111.0 78.0 L111.0 77.0 110.5 76.9 Q110.0 74.0 110.0 71.0 L111.0 71.0" fill="#ff0000" fill-rule="evenodd" stroke="none"/>
  </g>
</svg>
