<?xml version="1.0" encoding="UTF-8" standalone="no"?>
<svg xmlns:xlink="http://www.w3.org/1999/xlink" height="75.85px" width="88.15px" xmlns="http://www.w3.org/2000/svg">
  <g transform="matrix(1.0, 0.0, 0.0, 1.0, -0.9, -6.15)">
    <path d="M81.0 36.0 L81.0 40.0 81.0 41.0 Q84.7 41.8 86.75 44.2 L87.0 45.0 Q89.2 46.25 89.05 50.0 L89.0 51.0 88.95 52.0 Q88.7 53.65 87.0 52.0 L87.0 59.0 87.0 60.0 Q89.95 68.5 83.15 71.35 77.35 73.85 71.75 77.2 64.3 81.7 60.0 80.0 L59.0 80.0 58.0 80.0 Q57.5 80.0 57.3 80.25 55.9 81.9 53.0 82.0 50.0 80.5 47.2 80.85 39.75 81.7 32.0 80.0 L31.1 79.8 30.0 79.0 30.0 78.0 29.05 77.85 Q13.85 72.7 3.0 63.0 L3.0 62.0 3.0 60.0 3.0 59.0 3.0 52.0 Q2.5 52.0 2.15 52.25 0.55 53.4 1.0 48.0 2.65 48.15 2.5 46.0 L3.0 46.0 3.0 45.0 3.0 44.0 Q4.7 43.7 5.4 42.2 5.5 42.0 6.0 42.0 L6.75 41.75 7.0 41.0 7.0 40.5 Q4.5 40.55 2.0 38.0 L1.4 37.8 Q1.0 37.0 1.0 36.0 L2.0 36.0 2.0 35.0 Q8.65 29.2 16.95 30.5 L17.0 31.0 18.8 30.6 Q19.0 30.5 19.0 30.0 L19.0 29.0 19.0 26.0 Q24.15 32.2 26.3 24.65 L28.0 23.0 28.0 22.0 28.0 19.0 Q29.7 17.2 30.45 14.1 L31.0 14.0 31.0 13.0 Q36.1 13.1 35.5 7.0 L36.0 7.0 Q39.2 5.15 42.8 7.35 43.0 7.5 43.0 8.0 48.0 10.0 52.8 12.4 L53.0 13.0 53.8 14.1 54.0 15.0 Q56.0 15.5 57.8 16.4 58.0 16.5 58.0 17.0 59.55 19.45 60.45 22.9 L61.0 23.0 63.75 25.25 64.0 26.0 67.9 26.45 68.0 27.0 71.75 29.3 72.0 30.0 Q77.2 31.25 83.0 29.5 L83.0 30.0 83.55 30.1 Q84.65 34.65 81.0 35.0 L81.0 36.0" fill="#ff0000" fill-opacity="0.9764706" fill-rule="evenodd" stroke="none"/>
  </g>
</svg>
