<?xml version="1.0" encoding="UTF-8" standalone="no"?>
<svg xmlns:xlink="http://www.w3.org/1999/xlink" height="74.45px" width="85.45px" xmlns="http://www.w3.org/2000/svg">
  <g transform="matrix(1.0, 0.0, 0.0, 1.0, -1.0, 0.0)">
    <path d="M82.5 23.05 Q83.1 28.1 79.0 29.0 L79.0 30.0 79.0 31.0 Q78.9 32.65 81.0 32.5 L81.0 33.0 Q88.6 33.1 83.0 33.95 L82.0 34.0 81.85 34.55 79.0 35.0 79.0 36.0 Q81.8 36.2 83.8 37.35 84.0 37.5 84.0 38.0 87.35 39.65 86.1 46.0 L86.0 47.0 86.0 51.0 86.0 52.0 86.0 53.0 86.0 54.0 86.1 55.0 Q86.7 58.2 85.0 59.0 L84.85 59.55 Q76.85 61.95 71.0 57.0 L70.5 57.0 Q70.7 53.8 69.0 53.0 L68.0 53.0 67.8 53.6 Q64.7 55.2 62.0 57.0 L61.75 57.75 61.0 58.0 60.95 58.5 Q58.3 58.8 57.0 60.0 L57.0 61.0 57.0 63.0 57.0 64.0 Q58.7 65.3 58.1 69.0 L58.0 70.0 Q58.25 74.25 54.05 73.65 L41.0 72.0 40.75 72.65 Q36.95 75.4 34.0 74.0 L33.05 73.85 31.0 73.0 30.5 72.95 Q30.0 67.0 30.0 61.0 L31.0 61.0 31.0 60.0 31.75 59.75 32.0 59.0 31.85 58.45 Q28.7 57.3 27.0 55.0 L26.05 54.85 22.0 53.0 21.3 52.75 Q20.2 51.3 17.0 52.0 L16.9 52.95 Q15.2 59.7 8.0 61.0 L7.05 60.85 3.0 59.0 2.5 59.0 Q2.0 48.5 2.0 38.0 L3.0 38.0 4.0 38.0 4.0 37.0 Q6.65 37.65 6.1 35.0 L6.0 34.0 5.0 34.0 4.1 33.8 Q2.5 33.0 1.0 32.0 L1.0 31.0 1.0 30.0 1.0 28.0 Q4.1 27.1 6.2 25.25 6.5 25.0 7.0 25.0 8.0 24.5 9.05 24.15 L10.0 24.0 10.0 23.0 Q12.2 22.2 14.95 22.5 L15.0 23.0 17.05 23.85 18.0 24.0 17.9 23.0 17.0 19.0 Q19.7 18.8 19.95 21.0 L20.0 22.0 22.0 22.0 23.0 22.0 23.0 21.0 Q24.5 13.95 26.45 18.85 L27.0 19.0 Q30.45 10.45 38.1 6.2 L39.0 6.0 39.0 5.0 39.0 4.0 40.0 4.0 40.0 3.0 40.0 1.0 40.75 0.75 41.0 0.0 42.0 0.0 43.0 0.0 44.0 0.0 45.0 0.0 Q48.1 2.4 52.9 3.5 L53.0 4.0 Q58.35 4.15 58.95 9.0 L59.0 10.0 Q58.35 12.65 61.0 12.5 L61.0 13.0 Q62.7 13.8 62.1 17.0 L62.0 18.0 Q62.5 18.0 62.75 18.25 L63.0 19.0 Q68.15 19.35 70.75 22.25 L71.0 23.0 Q76.2 24.25 82.0 22.5 L82.0 23.0 82.5 23.05" fill="#ff0000" fill-opacity="0.9019608" fill-rule="evenodd" stroke="none"/>
  </g>
</svg>
