<?xml version="1.0" encoding="UTF-8" standalone="no"?>
<svg xmlns:xlink="http://www.w3.org/1999/xlink" height="67.55px" width="90.25px" xmlns="http://www.w3.org/2000/svg">
  <g transform="matrix(1.0, 0.0, 0.0, 1.0, 0.0, -2.65)">
    <path d="M85.0 32.0 Q90.85 32.65 90.05 40.0 L90.0 41.0 90.1 42.0 Q90.7 45.7 89.0 47.0 L88.8 47.6 Q88.0 48.0 87.0 48.0 L87.0 48.5 Q81.4 48.6 77.0 47.0 L76.05 47.15 Q75.0 47.5 74.0 48.0 L74.2 48.85 Q76.0 51.95 73.0 54.0 L72.75 54.75 69.0 58.0 68.75 58.7 Q66.2 60.7 64.0 63.0 L64.0 64.0 65.8 64.4 66.0 65.0 67.75 66.25 68.0 67.0 67.85 67.95 Q66.9 70.9 62.0 70.0 L61.0 69.9 Q58.25 69.25 56.0 68.0 L55.0 67.9 Q51.6 67.4 50.0 65.0 L49.45 64.85 Q49.0 63.5 49.0 62.0 L50.0 62.0 50.0 61.0 51.0 61.0 50.85 60.45 Q45.1 58.9 40.0 63.0 L39.0 62.95 Q34.0 62.5 34.0 57.0 L33.0 57.0 32.0 56.9 Q28.35 56.15 25.0 55.0 L24.0 55.1 Q20.8 55.7 20.0 54.0 L19.0 54.1 Q14.75 54.75 14.0 52.0 L13.2 51.75 Q10.75 49.75 6.0 50.0 L5.0 50.0 1.0 50.0 0.0 50.0 0.0 49.0 0.0 41.0 1.0 41.0 1.0 40.0 1.0 39.0 1.0 36.0 1.0 35.0 1.0 33.0 Q3.7 32.3 4.4 33.8 L5.0 34.0 Q11.2 31.7 19.0 31.05 L20.0 31.0 19.75 30.35 Q17.35 28.65 16.0 26.0 L15.1 25.8 14.0 25.0 13.45 24.85 Q12.7 22.8 10.0 23.0 L9.0 23.1 Q6.35 23.65 7.0 21.0 L11.0 21.0 12.0 21.0 26.05 17.1 27.0 17.0 Q37.2 6.7 48.25 2.75 49.0 2.5 50.0 3.0 52.15 3.85 53.35 5.8 L54.0 6.0 Q55.75 2.75 56.85 6.05 L57.0 7.0 Q68.05 14.95 75.75 26.15 L76.0 27.0 76.8 28.1 77.0 29.0 83.85 31.45 84.0 32.0 85.0 32.0" fill="#ff0000" fill-opacity="0.9843137" fill-rule="evenodd" stroke="none"/>
  </g>
</svg>
