<?xml version="1.0" encoding="UTF-8" standalone="no"?>
<svg xmlns:xlink="http://www.w3.org/1999/xlink" height="46.25px" width="29.0px" xmlns="http://www.w3.org/2000/svg">
  <g transform="matrix(1.0, 0.0, 0.0, 1.0, -1.0, 0.0)">
    <path d="M23.0 15.8 Q19.95 20.75 16.0 21.0 L16.0 31.0 Q17.0 31.0 17.0 30.0 L24.0 33.0 26.1 32.35 Q28.2 31.7 28.6 31.7 30.0 31.7 30.0 35.0 30.0 37.35 18.5 46.25 L16.65 46.0 Q16.0 45.5 16.0 43.0 L17.3 40.85 Q18.75 38.3 19.25 36.0 L18.95 34.6 18.15 34.4 17.0 34.0 Q16.4 35.6 13.65 36.85 10.3 38.35 5.3 38.35 L3.6 38.1 3.0 36.0 Q5.0 35.0 8.4 35.0 L8.7 33.15 8.9 30.55 Q8.9 25.9 6.4 23.0 2.9 19.0 1.0 12.0 1.7 12.0 1.9 11.2 L2.0 8.55 3.65 8.3 5.9 8.3 Q6.25 15.1 7.8 15.1 10.4 15.1 10.85 11.75 L11.0 2.5 Q11.0 2.05 11.65 1.55 L13.0 0.0 15.0 0.0 Q15.0 0.65 17.25 7.6 19.5 14.55 19.75 14.55 20.3 7.0 22.5 5.0 23.65 5.9 24.6 8.2 25.3 10.0 25.3 10.75 24.55 13.3 23.0 15.8" fill="#ff0000" fill-rule="evenodd" stroke="none"/>
  </g>
</svg>
