<?xml version="1.0" encoding="UTF-8" standalone="no"?>
<svg xmlns:xlink="http://www.w3.org/1999/xlink" height="139.0px" width="80.0px" xmlns="http://www.w3.org/2000/svg">
  <g transform="matrix(1.0, 0.0, 0.0, 1.0, -1.0, -1.0)">
    <path d="M62.25 12.5 L61.6 12.6 Q60.7 12.45 57.6 10.75 L54.5 9.0 Q56.25 10.9 56.25 11.95 L56.1 12.6 55.9 12.6 53.4 12.1 50.0 11.0 50.0 12.0 50.5 12.05 Q54.45 14.3 55.45 15.3 L55.35 15.25 Q54.1 14.85 51.95 13.3 50.15 12.0 49.0 12.0 48.4 12.0 46.5 13.05 44.6 14.05 43.95 14.05 43.35 14.05 42.75 14.5 L42.0 15.0 Q43.95 18.05 43.85 21.05 43.85 22.15 43.0 22.65 L42.0 23.0 Q42.65 25.35 46.0 28.0 48.4 28.0 50.1 26.55 51.85 25.05 54.15 24.95 L54.35 25.0 54.4 25.15 Q53.8 25.95 52.0 26.95 50.05 28.0 49.0 28.0 L49.25 28.75 49.4 28.95 50.0 29.0 Q51.95 29.0 56.65 27.15 57.65 27.15 57.0 27.3 L57.0 27.5 Q55.1 30.1 51.65 31.45 50.1 31.45 46.45 32.75 42.0 34.35 42.0 36.0 42.0 36.8 42.8 37.65 43.75 38.6 44.0 40.0 49.1 39.8 50.35 41.0 51.3 41.85 51.3 45.7 L51.3 48.35 Q51.2 49.05 50.45 49.05 49.85 49.05 49.85 49.4 L50.0 50.5 Q50.0 53.05 51.15 57.35 52.3 61.7 52.3 70.6 52.3 83.1 53.8 86.95 L55.55 90.7 Q56.8 93.6 57.85 97.85 59.75 105.75 70.7 111.1 L77.85 114.5 Q81.0 116.25 81.0 118.0 81.0 120.65 79.45 122.05 77.35 123.85 70.35 126.35 67.75 127.25 55.05 134.5 45.35 140.0 39.0 140.0 38.45 140.0 26.6 134.8 14.0 129.3 12.4 128.75 9.45 127.2 6.65 124.7 1.0 119.75 1.0 115.0 1.0 114.3 4.15 113.15 L11.4 110.45 Q22.35 105.8 24.5 97.95 L28.55 82.8 Q30.5 73.3 30.0 62.0 L31.0 62.0 31.0 58.6 30.45 54.8 30.0 52.05 30.5 52.0 Q31.0 51.5 31.0 52.0 L30.5 48.0 30.0 44.0 Q30.0 42.9 31.6 41.8 L35.15 39.8 Q40.3 36.75 40.3 32.15 40.3 27.7 38.7 25.35 37.35 23.35 35.35 23.35 33.95 23.35 31.9 24.85 29.85 26.3 29.25 26.3 L28.0 25.0 Q27.75 25.0 26.7 25.55 L25.5 26.05 24.0 25.0 Q31.5 21.7 31.1 21.1 L35.0 20.0 35.0 19.0 Q32.95 18.8 29.95 16.9 27.15 15.2 25.0 13.0 26.7 13.9 29.35 15.5 31.6 16.65 33.7 16.65 36.6 16.65 38.9 14.5 41.6 12.1 42.0 8.0 42.45 8.05 43.0 8.55 L44.0 9.0 Q44.75 9.0 46.3 8.45 46.7 8.3 47.5 8.85 L41.9 4.65 43.3 5.55 Q44.15 6.45 47.75 7.3 L52.0 8.0 Q51.05 7.55 51.0 7.0 L49.35 5.55 49.4 5.5 Q50.6 5.5 52.75 6.75 L55.0 8.0 Q54.95 7.15 52.2 4.8 49.6 2.6 47.0 1.0 52.2 3.45 60.55 8.0 L59.8 7.75 59.35 7.7 56.0 7.75 56.0 9.0 57.4 9.15 Q58.9 9.15 60.65 10.0 62.5 10.85 62.5 11.7 L62.25 12.5" fill="#ff0000" fill-rule="evenodd" stroke="none"/>
  </g>
</svg>
