<?xml version="1.0" encoding="UTF-8" standalone="no"?>
<svg xmlns:xlink="http://www.w3.org/1999/xlink" height="143.0px" width="80.0px" xmlns="http://www.w3.org/2000/svg">
  <g transform="matrix(1.0, 0.0, 0.0, 1.0, -1.0, 0.0)">
    <path d="M67.0 8.0 Q68.0 9.95 68.2 12.45 68.4 14.9 68.0 19.0 L68.0 20.0 Q68.35 20.0 69.5 19.2 L71.0 18.0 Q71.0 21.2 72.0 23.0 L73.0 23.0 73.0 11.0 Q74.75 13.3 75.5 24.0 75.5 25.1 74.55 26.75 L73.45 28.45 72.85 27.35 Q72.35 26.15 72.0 24.0 L71.0 24.0 70.55 28.35 69.9 32.25 Q69.4 31.0 69.0 22.0 L68.0 22.0 Q68.3 22.9 68.05 24.1 67.8 25.6 66.9 26.5 L66.4 24.45 Q66.05 22.65 65.2 21.05 64.45 21.95 64.5 24.75 64.55 27.65 63.6 29.05 L62.2 26.55 Q61.45 25.2 60.0 24.0 L55.0 24.0 55.0 30.0 59.25 30.95 63.6 32.05 Q62.9 32.7 61.0 33.0 61.75 33.65 62.5 33.9 63.15 34.15 63.7 34.7 L63.7 34.8 62.8 34.95 53.25 33.4 Q52.45 33.4 51.75 33.85 51.0 34.3 51.0 35.0 51.0 37.9 53.0 38.5 55.0 39.1 55.0 40.0 55.0 40.5 54.5 41.0 54.0 41.5 54.0 42.0 54.0 43.45 55.5 44.5 56.95 45.55 56.95 46.65 L56.55 48.7 56.1 50.7 Q56.1 51.9 54.7 54.6 53.3 59.6 53.3 72.0 L52.65 77.35 52.0 81.0 Q52.0 89.8 54.45 93.25 L56.1 95.35 Q56.85 96.5 56.85 98.2 L56.45 100.1 Q56.0 101.5 56.0 102.0 56.0 104.55 57.05 105.8 57.95 106.85 60.8 108.1 72.55 113.25 80.0 118.0 L81.0 118.0 81.0 124.0 Q75.75 124.6 59.0 133.95 42.8 143.0 39.0 143.0 37.55 142.2 33.5 140.15 25.2 136.05 11.7 130.2 7.9 128.55 5.4 126.45 1.0 122.7 1.0 118.0 1.0 117.95 6.05 115.85 12.1 113.3 16.0 108.85 L17.65 110.0 Q18.35 109.35 21.0 107.4 22.95 105.9 23.9 104.6 L26.0 96.5 Q26.0 95.15 25.4 94.05 24.8 92.9 24.8 91.15 24.8 89.05 25.3 88.5 25.75 88.0 27.15 88.25 L28.0 88.0 29.15 80.8 Q30.0 73.65 30.0 65.0 30.0 54.25 29.8 53.0 L28.2 49.35 27.0 48.0 Q30.25 47.95 31.25 53.1 31.55 54.45 32.5 67.0 L33.8 67.0 Q36.35 67.0 38.05 62.6 39.85 56.45 41.0 53.0 40.9 52.1 40.0 51.0 38.1 52.1 37.35 52.1 35.65 52.1 36.0 48.0 L37.5 47.8 Q38.45 47.75 39.0 48.35 39.55 48.95 39.5 50.0 L40.0 50.0 39.0 45.9 Q38.0 41.55 38.0 38.0 38.0 37.3 39.75 36.8 L41.65 36.5 Q42.55 36.5 43.85 37.75 L45.0 39.0 Q50.75 34.75 50.75 34.3 50.75 32.8 47.05 31.65 43.2 30.45 42.75 28.8 L43.0 27.0 Q48.65 27.85 49.0 28.7 49.2 29.25 50.5 29.25 51.75 29.25 52.3 28.6 53.0 27.7 53.0 25.0 53.0 21.1 50.8 20.7 L46.0 21.0 44.9 20.7 Q43.65 19.95 42.1 17.5 L41.0 16.0 Q42.45 16.95 47.15 18.25 L47.85 18.1 49.45 8.75 Q50.15 4.2 50.1 1.0 L50.0 0.0 51.0 0.0 51.3 4.05 51.0 6.6 Q50.6 8.25 50.0 9.0 L50.35 9.5 51.15 9.7 Q52.4 9.7 52.9 8.15 52.25 12.35 53.9 12.8 L58.35 12.55 60.75 12.7 60.85 13.7 60.65 15.4 Q60.75 16.05 61.1 16.4 L62.0 17.0 Q62.55 16.55 62.9 16.6 L63.0 12.0 Q64.6 12.75 64.9 15.1 L65.1 18.75 66.0 19.0 66.0 12.0 67.0 12.0 67.0 8.0 M61.85 21.5 Q62.65 20.7 62.65 19.6 62.65 18.5 61.85 17.75 61.05 16.95 59.95 16.95 58.85 16.95 58.05 17.75 57.25 18.5 57.25 19.6 57.25 20.7 58.05 21.5 58.85 22.25 59.95 22.25 61.05 22.25 61.85 21.5" fill="#ff0000" fill-rule="evenodd" stroke="none"/>
  </g>
</svg>
