<?xml version="1.0" encoding="UTF-8" standalone="no"?>
<svg xmlns:xlink="http://www.w3.org/1999/xlink" height="160.6px" width="256.0px" xmlns="http://www.w3.org/2000/svg">
  <g transform="matrix(1.0, 0.0, 0.0, 1.0, -1.0, -1.4)">
    <path d="M14.5 90.0 L132.5 31.0 246.5 92.0 126.5 149.0 14.5 90.0" fill="#ff0000" fill-opacity="0.0" fill-rule="evenodd" stroke="none"/>
    <path d="M254.0 71.6 L253.95 74.4 256.85 75.6 256.85 88.1 257.0 98.5 128.5 162.0 1.0 101.0 1.0 86.55 1.0 84.5 1.05 84.5 1.0 81.75 Q1.0 76.85 2.0 74.45 3.0 72.05 3.0 66.65 3.0 64.2 4.65 62.7 6.2 61.35 8.25 61.6 13.05 62.25 13.45 68.95 17.45 70.5 17.95 76.2 L42.75 64.0 42.5 62.75 42.5 56.75 Q42.5 43.9 48.0 42.25 50.1 41.6 51.8 43.3 53.5 45.05 53.5 48.05 L54.05 51.05 Q54.45 54.4 53.9 57.7 L83.05 44.15 83.0 44.0 83.0 38.5 Q83.0 25.0 88.75 21.5 L92.7 21.6 Q94.5 23.05 94.5 26.55 L95.4 30.25 97.3 37.85 124.35 23.8 Q123.8 22.25 123.5 20.25 L123.0 11.0 Q123.0 8.1 124.45 5.4 125.8 2.9 127.65 1.9 129.65 0.8 131.05 2.05 132.7 3.45 133.0 7.5 133.0 10.1 133.75 15.15 134.5 20.25 134.5 22.8 L134.45 24.05 164.5 36.7 Q163.65 33.65 167.1 27.9 168.8 25.0 170.7 22.6 L170.65 21.5 172.75 26.5 Q173.55 32.45 176.35 37.1 177.75 39.45 179.0 40.9 L178.65 42.65 205.15 53.8 Q205.45 49.15 206.65 45.7 208.1 41.5 210.25 40.6 212.35 39.65 213.85 42.35 215.5 45.35 215.5 51.4 L215.7 54.05 Q215.8 56.5 215.4 58.15 L243.75 70.1 243.5 66.4 Q243.5 63.15 245.15 61.65 246.65 60.25 248.75 61.0 254.0 62.8 254.0 71.6 M215.55 96.4 Q217.05 96.3 217.0 97.3 L229.95 92.65 211.2 82.85 212.35 85.0 Q214.0 89.05 214.0 96.25 L215.55 96.4 M208.75 81.75 L209.0 81.7 131.5 41.25 127.2 40.45 27.85 92.05 122.95 139.1 Q123.55 139.1 126.15 130.5 128.8 121.85 129.5 121.75 129.9 121.7 132.55 129.9 L135.25 138.0 161.95 125.25 162.75 120.1 Q164.0 112.35 164.0 110.3 164.0 99.2 169.0 102.75 170.85 104.05 172.45 106.85 174.0 109.6 174.0 111.5 174.0 111.9 175.3 113.75 176.5 116.0 176.15 118.35 L200.5 105.3 Q200.25 104.15 201.85 102.65 L203.5 101.25 Q203.5 92.4 205.15 87.05 206.6 82.3 208.75 81.75" fill="#ff0000" fill-opacity="0.9019608" fill-rule="evenodd" stroke="none"/>
  </g>
</svg>
