<?xml version="1.0" encoding="UTF-8" standalone="no"?>
<svg xmlns:xlink="http://www.w3.org/1999/xlink" height="100.0px" width="83.05px" xmlns="http://www.w3.org/2000/svg">
  <g transform="matrix(1.0, 0.0, 0.0, 1.0, 0.0, 0.0)">
    <path d="M83.0 42.0 L82.8 42.6 Q77.4 44.9 76.0 51.0 L76.0 52.0 76.0 53.0 76.0 54.0 Q77.75 57.25 76.5 62.9 L76.0 63.0 75.75 63.8 Q74.7 65.2 72.0 65.0 L71.0 65.0 70.0 65.0 69.8 65.9 69.0 67.0 69.0 68.0 69.0 69.0 Q70.7 69.3 69.6 71.8 L69.0 72.0 69.05 73.0 Q69.6 79.1 63.0 78.0 L63.1 78.95 Q63.65 81.15 62.0 81.0 L62.0 82.0 62.0 83.0 Q63.7 83.3 62.6 85.8 62.5 86.0 62.0 86.0 L61.75 86.75 61.0 87.0 Q61.0 87.5 60.8 87.6 60.0 88.0 59.0 88.0 L58.9 88.55 55.0 89.0 Q54.5 89.0 54.4 89.2 53.7 90.7 52.0 91.0 52.05 92.95 52.5 94.0 L52.0 94.0 51.85 94.55 49.0 95.0 48.75 95.75 46.0 98.0 Q46.0 98.5 45.8 98.6 L44.0 99.0 44.0 100.0 43.0 100.0 41.0 100.0 41.0 99.0 40.1 98.8 Q38.2 97.8 37.0 96.0 L36.15 96.2 Q32.4 98.4 30.0 97.0 L29.0 97.05 Q25.45 97.55 25.0 95.0 L25.0 94.0 25.0 93.0 25.0 92.0 25.0 89.0 26.0 89.0 26.0 88.0 Q29.0 87.0 30.4 84.2 30.5 84.0 31.0 84.0 L31.0 83.0 31.0 82.0 32.0 82.0 32.0 81.0 33.0 81.0 34.0 81.0 34.0 80.0 33.05 79.85 Q29.3 78.7 28.0 75.0 L27.0 75.0 23.0 75.0 23.0 76.0 Q23.0 81.0 20.0 83.0 L19.8 83.6 Q19.0 84.0 18.0 84.0 L17.8 84.6 Q15.3 85.7 15.0 84.0 L14.1 83.8 Q13.5 83.5 13.0 83.0 L12.1 82.8 Q11.5 82.5 11.0 82.0 L11.0 81.0 10.1 80.8 Q9.5 80.5 9.0 80.0 L8.0 80.1 Q4.8 80.7 4.0 79.0 L3.0 79.0 1.0 79.0 0.0 79.0 0.0 78.0 0.0 74.0 1.0 74.0 2.0 74.0 3.0 74.0 3.0 73.0 4.0 73.0 5.0 73.0 5.75 72.75 6.0 72.0 6.0 71.0 6.0 67.0 Q7.7 68.8 7.95 72.0 L8.0 73.0 9.0 73.0 10.0 73.0 10.0 72.0 10.0 71.0 10.0 70.0 11.1 69.2 12.0 69.0 12.0 68.0 13.0 68.0 13.0 67.0 13.0 66.0 Q12.95 64.05 12.0 63.0 L11.0 63.0 10.75 63.75 Q8.45 66.25 9.0 62.0 L10.0 62.0 10.0 61.0 11.1 60.2 12.0 60.0 Q13.65 60.15 13.5 58.0 L14.0 58.0 14.0 57.0 14.0 56.0 Q15.7 54.2 15.95 51.0 L16.0 50.0 16.0 49.0 16.0 44.0 16.0 43.0 16.0 39.0 17.0 39.0 18.0 39.0 18.0 38.0 21.0 38.0 22.0 38.0 Q24.45 36.45 24.5 32.0 L25.0 32.0 25.0 31.0 25.0 29.0 25.0 28.0 24.0 28.0 23.0 28.0 22.85 28.55 Q19.8 29.7 19.0 28.0 L18.8 27.1 18.0 26.0 17.25 25.75 Q17.0 25.5 17.0 25.0 L16.45 24.9 Q16.0 23.0 16.0 21.0 L17.0 21.0 17.0 20.0 17.0 19.0 Q22.55 15.05 25.45 8.2 25.5 8.0 26.0 8.0 L26.0 7.0 27.1 6.2 28.0 6.0 28.0 5.0 Q29.0 4.5 30.05 4.15 L31.0 4.0 31.0 3.0 Q32.7 2.7 33.4 1.2 33.5 1.0 34.0 1.0 L34.0 0.0 37.0 0.0 38.0 0.0 38.0 1.0 Q41.45 2.05 43.35 4.75 L44.0 5.0 45.1 4.2 46.0 4.0 46.0 3.0 Q49.3 0.85 51.1 1.8 L52.0 2.0 53.0 2.0 54.0 2.0 57.0 2.0 58.0 2.0 59.0 2.0 60.0 2.0 61.75 3.25 62.0 4.0 64.05 4.85 65.0 5.0 66.8 5.4 Q67.0 5.5 67.0 6.0 L68.75 7.25 69.0 8.0 Q71.95 9.55 72.9 13.05 L73.0 14.0 73.0 16.0 73.0 17.0 73.1 17.95 Q74.1 22.1 71.0 22.0 L71.1 23.0 Q71.7 25.7 70.0 26.0 69.4 28.15 70.9 28.45 L71.0 29.0 Q72.95 29.05 73.75 30.15 L74.0 31.0 74.5 31.1 Q75.8 36.8 72.0 38.0 L72.0 39.0 73.8 39.4 74.0 40.0 75.8 40.4 Q76.0 40.5 76.0 41.0 78.15 38.65 81.85 39.1 83.2 39.3 83.0 42.0 M26.0 11.0 L26.1 11.95 Q26.65 14.15 25.0 14.0 27.75 19.9 27.05 25.0 L27.0 26.0 Q27.5 25.5 28.1 25.2 L29.0 25.0 Q32.15 24.65 32.5 21.05 L33.0 21.0 33.0 20.0 33.0 18.0 33.0 17.0 32.15 16.8 Q28.45 14.55 26.0 11.0 M67.0 46.0 L67.0 45.0 Q66.5 45.0 66.25 45.25 65.0 46.5 63.0 47.0 62.65 56.85 67.75 61.3 L68.0 62.0 68.0 63.0 69.1 63.8 70.0 64.0 70.0 63.0 70.0 62.0 70.0 60.0 70.0 59.0 70.0 54.0 69.75 53.25 Q67.7 51.3 67.0 48.0 L67.0 47.0 67.0 46.0 M60.0 90.0 Q66.7 90.5 60.0 90.5 L60.0 90.0 M74.0 76.0 L74.0 75.0 Q81.15 78.75 74.0 79.5 L74.0 79.0 73.15 78.75 71.0 77.0 73.0 77.0 74.0 77.0 74.0 76.0" fill="#ff0000" fill-rule="evenodd" stroke="none"/>
  </g>
</svg>
