<?xml version="1.0" encoding="UTF-8" standalone="no"?>
<svg xmlns:xlink="http://www.w3.org/1999/xlink" height="44.0px" width="59.3px" xmlns="http://www.w3.org/2000/svg">
  <g transform="matrix(1.0, 0.0, 0.0, 1.0, -12.95, -1.0)">
    <path d="M41.0 2.0 L41.0 1.0 42.0 1.0 43.0 1.0 Q63.5 2.5 64.0 24.0 L64.0 25.0 Q66.95 28.55 70.75 31.35 L71.0 32.0 Q72.7 32.8 72.1 36.0 L72.0 37.0 71.75 37.75 Q68.65 41.15 63.0 42.0 L62.95 42.5 53.0 44.0 52.9 44.5 Q46.25 45.75 42.0 44.0 L41.0 44.0 33.0 44.0 32.95 44.5 Q24.75 45.75 19.0 44.0 L18.0 44.0 Q13.15 43.85 14.0 38.0 19.55 34.55 15.25 29.8 15.0 29.5 15.0 29.0 L14.2 28.75 Q12.65 27.35 13.0 24.0 15.3 21.8 19.0 21.1 L20.0 21.0 20.0 20.0 20.0 15.0 Q25.2 7.7 34.05 4.15 L35.0 4.0 Q36.55 2.05 40.0 2.0 L41.0 2.0" fill="#ff0000" fill-rule="evenodd" stroke="none"/>
  </g>
</svg>
