<?xml version="1.0" encoding="UTF-8" standalone="no"?>
<svg xmlns:xlink="http://www.w3.org/1999/xlink" height="84.6px" width="72.1px" xmlns="http://www.w3.org/2000/svg">
  <g transform="matrix(1.0, 0.0, 0.0, 1.0, -1.0, -0.9)">
    <path d="M72.5 26.9 L72.0 27.0 71.05 27.15 Q66.4 28.45 68.0 41.0 67.5 41.0 67.25 41.25 57.55 51.05 48.0 61.0 48.0 61.5 48.25 61.85 52.3 68.2 55.0 76.0 L54.75 76.85 Q47.6 87.6 27.0 85.0 L26.95 84.5 Q17.35 83.15 16.0 74.0 L16.0 73.0 16.0 71.0 19.3 67.25 Q19.5 67.0 20.0 67.0 20.0 66.5 20.2 66.4 27.45 62.45 25.0 54.0 L24.75 53.25 Q15.75 44.2 12.0 30.0 L11.75 30.8 Q2.65 41.75 1.0 25.0 3.45 19.95 10.0 19.05 L11.0 19.0 11.0 18.0 11.0 17.0 Q14.3 13.3 19.1 11.2 L20.0 11.0 20.0 10.0 Q25.95 4.45 34.85 1.55 L35.0 1.0 Q45.1 0.4 52.05 2.85 L53.0 3.0 Q55.0 3.5 56.8 4.4 L57.0 5.0 Q76.25 9.7 72.5 26.9" fill="#ff0000" fill-rule="evenodd" stroke="none"/>
  </g>
</svg>
