<?xml version="1.0" encoding="UTF-8" standalone="no"?>
<svg xmlns:xlink="http://www.w3.org/1999/xlink" height="173.85px" width="116.3px" xmlns="http://www.w3.org/2000/svg">
  <g transform="matrix(1.0, 0.0, 0.0, 1.0, -0.7, -1.0)">
    <path d="M96.05 12.0 Q96.25 9.8 95.95 8.3 94.95 15.6 87.0 16.0 94.05 16.95 95.85 23.05 L96.0 23.95 96.0 20.0 96.0 19.0 96.0 13.0 96.05 12.0 M105.0 10.0 L105.0 9.0 Q113.0 6.1 113.95 14.0 L114.0 15.0 116.05 15.85 117.0 16.0 117.0 17.0 117.0 18.0 Q116.5 18.0 116.25 18.25 115.0 19.5 113.0 20.0 L113.0 21.0 112.95 22.0 Q110.8 35.95 115.0 42.0 L114.75 42.8 Q104.75 54.75 97.0 69.0 L97.1 70.0 Q99.1 80.4 97.0 91.0 L96.5 91.0 Q96.1 81.05 96.05 71.15 95.75 82.8 95.0 94.0 L95.0 95.0 95.0 96.0 94.0 96.0 83.5 96.05 93.95 96.5 94.0 97.0 Q88.95 106.45 86.5 118.9 L86.0 119.0 Q97.7 128.75 95.5 101.0 L96.0 101.0 96.0 100.0 Q100.6 97.65 105.1 99.8 L106.0 100.0 106.5 100.0 Q107.0 110.5 107.0 121.0 107.0 121.5 107.25 121.8 114.75 130.55 105.0 132.0 L104.0 132.0 Q104.0 132.5 104.25 132.75 113.9 142.3 107.0 151.0 106.5 151.0 106.2 151.25 89.45 163.95 65.0 169.0 L64.5 169.1 Q63.45 173.45 59.0 174.0 L58.95 174.5 Q50.35 175.65 45.0 173.0 L44.8 172.4 Q32.8 165.7 20.0 160.0 L19.25 159.75 15.0 155.0 14.0 154.9 Q8.45 154.05 4.0 152.0 L3.15 151.75 Q-0.15 149.65 1.0 143.0 3.25 141.25 6.05 140.15 L7.0 140.0 6.8 139.1 Q4.15 132.85 1.0 127.0 L2.0 127.0 2.0 126.0 Q3.7 125.7 4.4 124.2 L5.0 124.0 5.0 123.0 5.0 102.0 6.0 102.0 7.0 102.0 7.0 101.0 Q10.2 100.7 9.5 96.0 L9.0 96.0 9.0 95.0 9.0 87.0 Q14.0 88.5 14.0 86.0 L14.0 85.0 13.0 84.95 Q5.15 84.2 8.0 64.0 14.3 60.3 20.15 56.25 20.5 56.0 21.0 56.0 L21.0 55.0 24.3 51.25 Q24.5 51.0 25.0 51.0 25.0 50.5 25.25 50.15 31.45 41.45 23.0 39.0 L22.05 38.9 Q17.65 37.85 14.0 36.0 13.5 36.0 13.35 35.75 11.35 33.0 9.0 27.0 L9.0 26.0 9.0 20.0 Q10.75 12.25 20.0 12.0 L21.0 12.0 Q31.25 22.35 29.5 32.9 L29.0 33.0 28.75 33.75 28.0 34.0 Q29.0 40.0 34.05 41.85 L35.0 42.0 Q38.05 37.75 42.05 38.85 L43.0 39.0 Q44.6 33.1 53.0 33.5 L53.0 33.0 53.2 32.1 Q54.5 29.05 53.0 27.0 57.15 18.15 68.05 20.9 L69.0 21.0 Q72.95 28.05 83.0 28.5 L83.0 28.0 Q83.55 19.45 79.5 16.0 L80.0 16.0 Q86.65 14.85 93.75 7.75 L94.0 7.0 95.0 7.0 95.5 7.0 Q93.45 2.7 85.0 6.0 L93.15 1.2 94.0 1.0 Q100.1 4.4 104.3 9.75 L105.0 10.0" fill="#ff0000" fill-rule="evenodd" stroke="none"/>
  </g>
</svg>
