<?xml version="1.0" encoding="UTF-8" standalone="no"?>
<svg xmlns:xlink="http://www.w3.org/1999/xlink" height="155.1px" width="153.0px" xmlns="http://www.w3.org/2000/svg">
  <g transform="matrix(1.0, 0.0, 0.0, 1.0, 0.0, -1.0)">
    <path d="M150.0 20.0 Q152.95 24.05 153.0 31.0 L153.0 32.0 152.85 32.95 Q150.1 42.0 145.0 39.0 153.75 35.7 149.2 25.9 L149.0 25.0 148.05 25.15 Q143.15 27.15 139.0 30.0 L139.05 31.0 Q139.9 39.7 129.0 46.0 L128.75 46.85 Q123.9 54.4 118.0 61.0 L117.95 62.0 Q116.7 76.7 111.0 87.0 L110.95 88.0 Q110.35 94.05 103.0 97.0 110.15 102.1 110.5 107.95 L111.0 108.0 Q115.35 97.85 116.5 84.05 L117.0 84.0 117.0 83.0 Q121.2 84.8 126.95 85.5 L127.0 86.0 Q125.95 95.95 124.1 105.0 L124.0 106.0 124.2 106.95 Q127.95 116.2 120.0 119.0 120.0 119.5 120.25 119.65 127.7 124.75 121.0 132.0 L120.05 132.15 Q108.0 136.5 99.0 144.0 L99.0 144.5 Q108.55 142.95 110.0 149.0 L109.75 149.75 Q100.75 159.15 87.0 154.0 L87.0 153.0 Q87.05 146.75 79.0 150.0 78.5 150.0 78.35 150.25 72.3 159.6 60.0 154.0 L59.75 153.35 Q50.5 147.0 39.0 143.0 L38.1 142.8 Q32.5 140.0 29.0 135.0 L28.0 135.05 Q14.75 136.75 16.0 124.0 L17.0 124.0 17.0 123.0 Q17.5 122.5 18.1 122.2 L19.0 122.0 18.8 121.05 Q17.4 117.6 18.0 112.0 19.3 105.6 22.4 98.2 L23.0 98.0 23.0 97.0 Q27.55 82.25 35.75 75.7 L36.0 75.0 35.95 74.5 Q32.0 74.0 33.0 69.0 37.65 59.7 34.6 53.2 L34.0 53.0 33.8 53.9 Q30.3 60.8 23.0 64.0 L22.5 64.05 Q20.6 79.8 3.0 73.0 2.5 73.0 2.4 72.8 1.35 70.65 0.0 69.0 L0.0 68.0 0.0 65.0 Q6.9 54.4 18.0 53.5 L18.0 54.0 Q23.55 50.95 28.15 53.8 L29.0 54.0 28.75 53.3 Q27.3 52.2 28.0 49.0 36.1 49.6 40.2 46.25 L41.0 46.0 40.8 45.15 Q39.25 42.75 38.0 40.0 44.9 40.2 50.3 34.25 50.5 34.0 51.0 34.0 L51.0 33.0 Q51.85 24.85 58.1 22.2 L59.0 22.0 59.0 21.0 Q66.1 21.65 73.1 18.2 L74.0 18.0 Q79.4 20.1 86.0 20.95 L87.0 21.0 Q88.7 21.3 88.95 23.0 L89.0 24.0 Q101.4 18.2 105.8 27.1 L106.0 28.0 Q108.95 33.55 110.9 25.95 L111.0 25.0 110.15 24.75 Q108.45 23.55 108.0 21.0 L111.0 21.0 112.0 21.0 111.95 20.0 Q111.6 14.9 110.0 11.0 117.85 17.05 122.0 17.5 L122.0 17.0 121.75 16.3 Q119.25 14.25 119.0 10.0 128.9 5.9 138.1 1.2 L139.0 1.0 Q142.6 9.7 149.75 19.2 L150.0 20.0 M48.0 153.0 Q36.5 154.95 33.2 148.9 L33.0 148.0 Q43.2 147.3 47.75 152.25 L48.0 153.0" fill="#ff0000" fill-rule="evenodd" stroke="none"/>
  </g>
</svg>
