<?xml version="1.0" encoding="UTF-8" standalone="no"?>
<svg xmlns:xlink="http://www.w3.org/1999/xlink" height="108.1px" width="125.0px" xmlns="http://www.w3.org/2000/svg">
  <g transform="matrix(1.0, 0.0, 0.0, 1.0, 0.0, 0.0)">
    <path d="M85.0 37.0 Q87.1 39.1 88.45 42.0 L89.75 42.0 89.75 48.65 Q90.45 53.9 89.75 58.6 L89.75 68.05 Q91.2 68.2 92.15 68.75 L93.0 69.0 Q102.3 62.45 109.4 65.45 112.3 66.7 115.0 69.0 115.5 69.5 116.1 69.8 L117.0 70.0 123.95 69.5 124.0 70.0 125.0 70.0 125.0 71.0 Q123.25 73.25 119.35 71.95 110.55 69.0 102.0 70.0 L101.8 70.85 Q98.85 75.85 92.0 77.0 L92.8 78.1 93.0 79.0 Q97.55 81.95 100.75 86.2 L101.0 87.0 Q108.25 92.0 102.0 91.05 L101.0 91.0 100.4 90.8 Q99.25 88.25 95.0 89.0 L95.0 92.0 95.0 93.0 Q95.5 93.0 95.6 93.2 99.7 101.05 93.0 98.0 L92.15 97.75 Q79.65 89.45 58.0 92.0 L57.75 92.65 43.0 102.0 42.8 102.9 Q39.9 108.9 30.0 108.0 L29.1 107.8 28.0 107.0 Q36.55 107.55 36.95 100.0 L37.0 99.0 36.5 98.95 Q36.0 94.0 36.0 89.0 L37.0 89.0 37.0 88.0 Q37.0 87.5 36.8 87.4 22.75 81.35 10.0 87.0 L9.9 88.0 Q8.45 94.45 2.0 91.0 5.35 90.35 7.75 88.65 L8.0 88.0 7.05 87.8 Q3.95 86.55 0.0 86.0 L0.0 85.0 Q2.7 85.7 3.4 84.2 3.5 84.0 4.0 84.0 L4.0 83.0 7.0 83.0 8.0 83.0 8.0 82.0 Q14.9 80.9 15.5 73.05 L16.0 73.0 16.0 72.0 16.75 71.75 17.0 71.0 17.0 70.0 18.0 70.0 Q18.0 69.5 18.25 69.25 19.1 68.35 16.0 67.0 L15.0 66.9 Q7.3 65.7 3.0 61.0 L2.25 60.75 Q2.0 60.5 2.0 60.0 L7.95 60.35 7.1 60.0 18.1 59.05 19.1 59.0 19.1 58.0 19.85 57.75 20.1 57.0 19.25 56.75 17.1 55.0 Q16.6 55.0 16.5 54.8 15.6 53.0 15.1 51.0 L14.6 50.9 Q14.1 48.0 14.1 45.0 L17.45 39.2 18.1 39.0 18.1 38.0 18.1 37.0 Q20.75 35.65 22.45 33.25 22.6 33.0 23.1 33.0 L23.1 32.0 24.1 32.0 23.9 31.1 22.1 28.0 21.2 27.8 20.1 27.0 19.25 26.75 Q16.85 25.25 17.1 21.0 19.6 15.5 27.1 15.5 L27.1 16.0 Q32.75 22.1 40.0 15.1 L40.0 14.0 Q43.35 12.8 46.75 12.0 56.9 9.5 67.15 10.35 L68.0 10.35 Q69.45 10.15 70.95 8.95 L72.0 8.0 72.0 7.0 73.0 7.0 72.75 6.25 Q71.3 4.7 72.0 1.0 L73.0 1.0 73.0 0.0 77.0 0.0 78.0 0.0 78.25 0.75 79.0 1.0 79.55 1.15 Q83.1 10.6 78.0 19.0 81.75 27.25 84.85 36.05 L85.0 37.0 M66.35 74.7 L66.35 74.65 66.2 74.65 66.35 74.7" fill="#ff0000" fill-opacity="0.99215686" fill-rule="evenodd" stroke="none"/>
  </g>
</svg>
