<?xml version="1.0" encoding="UTF-8" standalone="no"?>
<svg xmlns:xlink="http://www.w3.org/1999/xlink" height="56.0px" width="86.2px" xmlns="http://www.w3.org/2000/svg">
  <g transform="matrix(1.0, 0.0, 0.0, 1.0, -1.0, -1.0)">
    <path d="M87.0 38.0 Q87.7 41.2 86.0 42.0 77.5 46.0 68.0 49.0 L68.1 50.0 Q68.7 52.7 67.0 53.0 L66.75 53.75 Q64.3 56.3 59.0 56.0 L58.95 56.5 44.0 56.0 43.2 55.75 Q40.6 53.4 37.0 52.0 L36.0 52.0 Q35.5 52.0 35.4 51.8 35.0 51.0 35.0 50.0 L39.9 49.5 40.0 49.0 39.0 49.05 Q30.75 49.75 25.0 48.0 L24.25 47.75 24.0 47.0 23.1 46.8 22.0 46.0 21.0 45.9 Q17.35 45.15 14.0 44.0 L13.05 43.85 Q2.65 40.85 1.0 29.0 L1.0 28.0 5.05 26.15 6.0 26.0 6.0 25.0 8.0 25.0 9.0 25.0 9.0 24.0 9.0 23.0 Q10.7 21.2 10.5 17.0 L11.0 17.0 11.0 16.0 15.0 16.0 16.0 16.0 16.0 15.0 16.0 12.0 Q17.7 11.7 17.5 9.0 L18.0 9.0 18.0 8.0 18.0 7.0 20.05 6.15 21.0 6.0 Q26.7 6.7 27.5 2.1 L28.0 2.0 28.0 1.0 36.0 1.0 37.0 1.0 Q41.55 0.95 43.75 3.25 L44.0 4.0 45.1 4.8 46.0 5.0 Q49.85 5.65 52.2 7.75 L53.0 8.0 Q59.15 4.9 60.85 10.05 L61.0 11.0 Q60.5 16.0 63.8 17.4 64.0 17.5 64.0 18.0 66.8 19.85 68.95 22.95 L69.95 22.2 Q75.1 18.1 77.7 22.75 78.9 24.9 78.05 26.55 76.65 29.35 78.0 31.0 82.5 34.0 86.75 37.3 L87.0 38.0" fill="#ff0000" fill-opacity="0.9764706" fill-rule="evenodd" stroke="none"/>
  </g>
</svg>
