<?xml version="1.0" encoding="UTF-8" standalone="no"?>
<svg xmlns:xlink="http://www.w3.org/1999/xlink" height="95.05px" width="78.25px" xmlns="http://www.w3.org/2000/svg">
  <g transform="matrix(1.0, 0.0, 0.0, 1.0, -1.0, 13.05)">
    <path d="M37.5 -12.5 L40.5 -12.5 41.5 -12.5 48.45 -13.0 48.5 -12.5 Q52.75 -9.75 53.45 -3.5 L53.5 -2.5 Q56.45 -1.95 58.25 -0.25 L58.5 0.5 Q62.35 1.15 64.7 3.25 L65.5 3.5 66.5 3.5 67.5 3.5 67.5 8.5 67.5 9.5 67.5 14.5 67.5 15.5 66.5 15.5 65.5 15.5 Q65.5 16.0 65.3 16.1 L64.25 16.55 64.1 18.0 64.0 19.0 64.0 23.0 64.0 24.0 Q72.65 27.95 69.9 32.35 L69.35 33.1 68.75 33.75 68.0 34.0 67.0 34.0 67.0 35.0 Q73.05 37.3 70.6 42.8 L70.0 43.0 69.9 43.55 66.0 44.0 65.0 44.0 64.0 44.0 64.0 48.0 64.0 49.0 64.0 54.0 64.0 55.0 Q64.0 55.5 64.25 55.75 L65.0 56.0 65.0 55.0 66.0 55.0 66.0 54.0 67.1 53.2 68.0 53.0 69.0 53.0 69.0 52.0 73.9 52.5 74.0 53.0 75.0 53.0 76.75 54.25 77.0 55.0 Q77.5 55.0 77.75 55.25 L78.0 56.0 Q79.65 55.9 79.1 58.05 L79.0 59.0 79.0 61.0 79.0 62.0 78.1 62.2 Q77.5 62.5 77.0 63.0 L76.75 63.75 76.0 64.0 75.75 64.75 74.0 66.0 73.85 66.55 Q69.75 67.7 68.0 66.0 L67.75 65.25 67.0 65.0 Q66.5 65.0 66.3 64.75 64.2 62.3 63.0 59.0 L62.45 58.85 Q61.7 56.3 59.0 56.0 L58.05 56.15 56.0 57.0 55.15 57.25 Q51.95 59.45 48.0 61.0 L47.5 61.1 Q47.15 62.65 45.0 62.0 L44.0 62.0 43.0 62.0 42.0 62.0 42.0 67.0 42.0 68.0 43.8 68.4 44.0 69.0 45.75 70.25 46.0 71.0 46.75 71.25 47.0 72.0 Q47.5 72.0 47.55 72.15 49.0 77.5 46.0 79.0 L45.0 79.0 44.75 79.75 44.0 80.0 43.75 80.75 43.0 81.0 43.0 82.0 42.0 82.0 38.0 82.0 37.95 81.5 Q35.3 81.2 35.0 79.0 L34.25 78.75 33.0 77.0 32.5 76.9 Q32.0 74.0 32.0 71.0 L33.1 70.2 34.0 70.0 35.1 69.2 36.0 69.0 36.0 68.0 37.0 68.0 38.0 68.0 38.0 67.0 38.0 62.0 37.2 62.25 Q35.0 63.9 34.0 62.0 L33.1 61.8 32.0 61.0 31.0 60.9 Q29.0 60.5 28.0 59.0 L27.1 58.8 26.0 58.0 25.05 57.85 21.0 56.0 Q20.5 56.0 20.35 56.2 19.15 58.15 17.0 59.0 L16.8 59.9 Q15.35 62.85 13.0 65.0 12.5 65.0 12.4 65.2 11.7 66.7 9.0 66.0 L8.0 65.95 Q4.25 65.75 3.0 63.0 L2.25 62.75 1.0 61.0 1.0 60.0 1.0 56.0 2.0 56.0 2.0 55.0 3.0 55.0 3.0 54.0 4.0 54.0 4.0 53.0 5.0 53.0 6.0 53.0 6.0 52.0 Q10.2 51.25 12.2 52.75 L13.0 53.0 Q15.3 55.65 16.1 55.2 L17.0 55.0 17.0 54.0 16.5 53.9 Q16.0 51.0 16.0 48.0 15.5 48.0 15.4 47.8 15.0 47.0 15.0 46.0 L15.0 45.0 15.0 44.0 16.0 44.0 16.0 43.0 16.0 42.0 16.0 35.0 15.8 34.1 15.0 33.0 15.0 32.0 16.0 32.0 16.0 31.0 16.0 16.4 12.5 15.5 12.5 14.5 12.5 3.5 13.5 3.5 15.55 2.65 16.5 2.5 16.5 1.5 17.5 1.5 18.5 1.5 18.5 0.5 19.5 0.5 20.5 0.5 20.5 -0.5 21.5 -0.5 22.5 -0.5 22.5 -1.5 Q25.2 -2.3 26.8 -4.25 L27.5 -4.5 27.5 -5.5 32.75 -11.25 33.5 -11.5 Q34.55 -12.45 36.5 -12.5 L37.5 -12.5" fill="#ff0000" fill-rule="evenodd" stroke="none"/>
  </g>
</svg>
