<?xml version="1.0" encoding="UTF-8" standalone="no"?>
<svg xmlns:xlink="http://www.w3.org/1999/xlink" height="95.55px" width="85.0px" xmlns="http://www.w3.org/2000/svg">
  <g transform="matrix(1.0, 0.0, 0.0, 1.0, 0.0, 16.55)">
    <path d="M33.0 58.0 L32.2 57.75 Q26.95 53.6 25.0 58.0 L25.0 60.0 25.0 61.0 Q26.05 61.95 27.85 62.45 L28.0 63.0 27.75 63.75 27.0 64.0 Q28.2 66.3 31.0 66.9 L32.0 67.0 33.1 66.2 34.0 66.0 35.0 66.0 35.0 65.0 36.0 65.0 36.0 64.0 36.0 63.0 37.0 63.0 37.0 62.0 Q36.95 56.95 33.0 58.0 M63.0 41.0 L63.05 42.0 Q63.75 46.75 62.0 49.0 L62.0 50.0 Q62.0 50.5 62.25 50.75 L63.0 51.0 64.0 51.0 64.0 50.0 65.0 50.0 64.95 49.0 Q64.7 44.3 64.0 40.0 L63.0 40.0 63.0 41.0 M65.75 36.75 L65.0 37.0 65.0 38.0 Q65.3 42.7 66.8 46.1 L67.0 47.0 67.0 48.0 67.0 49.0 70.9 49.45 71.0 50.0 72.0 50.0 73.0 50.0 73.5 50.0 Q71.5 41.5 66.0 36.0 L65.75 36.75 M16.0 -1.0 L16.0 -2.0 17.0 -2.0 18.0 -2.0 18.0 -3.0 19.0 -3.0 20.0 -3.0 20.0 -4.0 21.0 -4.0 22.0 -4.0 22.0 -5.0 Q24.7 -5.8 26.3 -7.75 L27.0 -8.0 27.0 -9.0 32.25 -14.75 33.0 -15.0 Q34.05 -15.95 36.0 -16.0 L37.0 -16.0 40.0 -16.0 41.0 -16.0 47.95 -16.5 48.0 -16.0 Q52.25 -13.25 52.95 -7.0 L53.0 -6.0 Q55.95 -5.45 57.75 -3.75 L58.0 -3.0 Q61.85 -2.35 64.2 -0.25 L65.0 0.0 66.0 0.0 67.0 0.0 67.0 5.0 67.0 6.0 67.0 11.0 67.0 12.0 66.0 12.0 65.0 12.0 64.8 12.6 62.0 13.85 62.0 14.0 Q63.75 17.75 63.05 24.0 L63.0 25.0 63.0 26.0 64.0 26.0 Q72.25 27.95 68.25 32.25 68.0 32.5 68.0 33.0 L84.8 67.1 85.0 68.0 84.3 67.75 Q80.15 62.85 78.0 56.0 77.5 56.0 77.25 56.25 75.8 57.8 74.0 59.0 L73.75 59.75 72.0 61.0 71.75 61.7 68.0 64.0 67.0 64.0 67.0 66.0 67.0 67.0 Q66.4 69.15 67.9 69.45 L68.0 70.0 Q69.7 70.3 69.95 72.0 L70.0 73.0 69.8 73.9 69.0 75.0 68.9 75.5 64.0 76.0 63.75 76.75 Q61.45 79.25 62.0 75.0 L62.8 73.9 63.0 73.0 63.0 72.0 63.0 70.0 Q64.7 69.7 64.5 67.0 L65.0 67.0 65.0 66.0 65.0 65.0 66.0 65.0 66.0 64.0 65.0 63.95 Q62.8 63.7 63.0 61.0 L62.8 60.1 62.0 59.0 61.25 58.75 Q61.0 58.5 61.0 58.0 L60.5 57.95 Q60.0 54.45 59.0 52.0 L58.0 52.0 57.0 52.0 56.0 52.0 55.85 52.55 Q52.05 54.05 49.0 56.0 L48.5 56.1 Q48.15 57.65 46.0 57.0 46.0 57.5 45.8 57.6 L44.0 58.0 43.0 58.0 42.0 58.0 41.0 58.0 41.0 62.0 41.0 63.0 41.0 64.0 Q42.7 64.3 43.4 65.8 L44.0 66.0 45.75 67.25 46.0 68.0 46.5 68.1 Q47.8 73.8 44.0 75.0 L43.8 75.6 Q39.2 78.15 35.0 76.0 L34.25 75.75 33.0 74.0 32.45 73.9 Q32.15 72.4 30.0 73.0 L29.0 73.0 Q26.1 72.9 25.0 71.0 L24.1 70.8 Q23.5 70.5 23.0 70.0 L23.0 69.0 23.0 67.0 22.0 67.0 20.0 67.0 19.45 67.1 Q19.15 68.65 17.0 68.0 16.5 68.0 16.3 68.25 15.0 69.9 13.0 68.0 L13.0 67.0 13.0 66.0 13.1 65.0 Q13.7 62.3 12.0 62.0 L11.0 62.0 10.0 62.0 9.0 62.1 Q5.8 62.7 5.0 61.0 L4.0 60.95 Q1.8 60.7 2.0 58.0 L1.25 57.75 Q1.0 57.5 1.0 57.0 L0.0 57.0 0.0 56.0 0.0 51.0 1.0 51.0 1.0 50.0 1.0 49.0 Q2.05 48.05 4.0 48.0 L5.0 48.0 9.0 48.0 10.0 48.0 10.75 48.25 11.0 49.0 12.0 49.0 13.0 49.0 13.0 48.0 13.0 44.0 14.0 44.0 14.0 43.0 15.0 43.0 15.0 42.0 15.0 41.0 15.0 40.0 15.0 30.0 16.0 30.0 16.0 29.0 16.8 27.9 17.0 27.0 17.0 26.0 17.75 25.75 18.0 25.0 18.0 24.0 18.0 22.0 17.25 21.75 16.0 20.0 15.75 19.25 Q14.3 17.7 15.0 14.0 L15.0 13.0 15.0 12.75 12.0 12.0 12.0 11.0 12.0 0.0 13.0 0.0 15.05 -0.85 16.0 -1.0 M3.0 72.0 L3.0 71.0 7.0 70.1 8.0 70.0 Q9.05 69.05 11.0 69.0 L12.0 69.0 12.0 70.0 12.75 70.25 13.0 71.0 14.75 72.25 15.0 73.0 Q18.15 73.85 17.5 77.9 L17.0 78.0 16.0 78.0 15.0 78.0 14.0 78.0 13.0 78.0 12.95 78.5 6.0 79.0 5.25 78.75 Q5.0 78.5 5.0 78.0 L4.1 77.8 Q3.5 77.5 3.0 77.0 L2.5 76.9 Q2.0 74.5 2.0 72.0 L3.0 72.0" fill="#ff0000" fill-rule="evenodd" stroke="none"/>
  </g>
</svg>
