<?xml version="1.0" encoding="UTF-8" standalone="no"?>
<svg xmlns:xlink="http://www.w3.org/1999/xlink" height="66.25px" width="94.25px" xmlns="http://www.w3.org/2000/svg">
  <g transform="matrix(1.0, 0.0, 0.0, 1.0, -1.0, -1.0)">
    <path d="M5.0 37.0 L5.5 37.0 Q5.35 42.3 1.0 39.0 L1.0 38.0 1.0 37.0 Q2.3 35.8 4.9 36.45 L5.0 37.0 M42.8 26.4 L41.0 26.0 40.0 25.9 Q38.0 25.5 37.0 24.0 L36.15 23.75 Q34.95 23.05 33.0 23.0 L32.0 23.0 28.0 23.0 28.0 24.0 29.1 24.8 30.0 25.0 Q31.65 24.9 31.1 27.05 L31.0 28.0 32.0 28.0 37.9 28.5 38.0 29.0 Q41.2 29.7 42.3 28.25 42.5 28.0 43.0 28.0 L43.0 27.0 Q43.0 26.5 42.8 26.4 M92.0 55.0 L92.5 55.0 Q91.05 60.75 88.0 56.0 L88.0 55.0 88.0 54.0 91.9 54.45 92.0 55.0 M90.0 20.0 L90.0 19.0 90.0 18.0 Q91.95 14.65 92.9 19.0 L93.0 20.0 93.8 21.1 94.0 22.0 94.0 23.0 Q93.9 25.9 92.0 27.0 L91.8 27.9 91.0 29.0 91.0 30.0 91.0 31.0 90.8 31.9 Q89.8 33.8 88.0 35.0 L88.0 36.0 89.0 36.0 90.8 36.4 Q91.0 36.5 91.0 37.0 L91.75 37.25 92.0 38.0 Q92.5 38.0 92.75 38.25 L93.0 39.0 93.75 39.25 94.0 40.0 Q95.7 40.8 95.1 44.0 L95.0 45.0 94.75 45.75 94.0 46.0 93.8 46.9 Q92.8 49.3 90.0 50.0 L89.85 50.55 Q85.75 51.7 84.0 50.0 L83.25 49.75 Q83.0 49.5 83.0 49.0 L82.15 48.75 Q80.7 47.75 77.0 49.0 L77.25 49.85 Q81.8 56.5 75.0 50.0 L74.5 50.0 Q74.65 47.35 72.0 48.0 71.5 48.0 71.4 48.2 70.7 49.7 69.0 50.0 L68.75 50.75 Q66.95 52.45 64.0 53.0 L63.5 53.1 Q63.15 54.65 61.0 54.0 L61.8 55.1 62.0 56.0 62.0 57.0 63.0 57.0 68.9 57.5 69.0 58.0 Q68.9 59.65 71.0 59.5 L71.0 60.0 72.0 60.0 73.0 60.0 Q79.0 59.5 74.8 62.75 L74.0 63.0 73.9 63.5 Q69.35 64.35 66.0 66.0 L65.0 66.0 64.8 66.6 Q64.0 67.0 63.0 67.0 L62.0 67.1 Q59.3 67.7 59.0 66.0 L58.0 66.05 Q55.3 66.2 55.0 64.0 L54.05 63.85 Q50.3 62.5 47.4 60.25 L46.0 59.0 45.0 58.0 46.0 58.0 47.0 58.0 48.0 58.0 48.0 57.0 48.0 56.0 47.0 56.0 46.0 56.0 41.0 56.0 40.75 56.75 39.0 58.0 38.95 58.5 32.0 59.0 31.05 58.85 Q28.05 57.95 28.0 54.0 L28.0 53.0 28.0 50.0 28.0 49.5 26.0 55.0 25.75 55.85 Q24.95 56.95 23.0 57.0 L23.0 58.0 23.0 59.0 24.75 61.15 25.0 62.0 Q26.7 62.3 25.6 64.8 L25.0 65.0 24.75 65.8 Q23.35 67.35 20.0 67.0 L19.0 67.0 18.8 66.1 18.0 65.0 17.45 64.85 Q16.05 59.95 12.0 58.0 L11.05 58.1 Q8.9 58.65 9.0 57.0 L8.0 57.0 7.2 56.75 Q4.2 54.3 5.0 48.0 L6.0 48.0 6.0 47.0 6.0 46.0 7.0 46.0 7.0 45.0 7.0 44.0 Q7.5 43.5 8.1 43.2 L9.0 43.0 12.1 41.2 13.0 41.0 13.0 40.0 13.0 39.0 Q16.05 35.8 14.2 31.9 L14.0 31.0 14.0 30.0 14.0 28.0 15.1 27.2 16.0 27.0 16.0 26.0 Q16.7 18.1 24.05 20.85 L25.0 21.0 Q25.5 20.5 26.1 20.2 L27.0 20.0 27.0 19.0 Q29.15 19.65 29.45 18.1 L30.0 18.0 31.0 18.0 32.0 18.0 32.0 17.0 39.95 17.5 40.0 18.0 Q42.8 18.2 44.8 19.35 45.0 19.5 45.0 20.0 47.15 19.4 47.45 20.9 L48.0 21.0 50.05 21.85 51.0 22.0 51.0 21.0 52.0 21.0 52.0 20.0 52.0 19.0 53.0 19.0 53.0 18.0 52.8 17.1 51.0 14.0 Q50.5 14.0 50.35 13.8 49.2 11.8 49.0 9.0 L53.9 9.5 54.0 10.0 55.0 10.0 55.75 9.75 56.0 9.0 56.0 8.0 56.0 6.0 56.0 5.0 56.0 4.0 Q57.7 3.7 58.4 2.2 L59.0 2.0 60.0 2.0 60.0 1.0 64.0 1.0 65.0 1.0 66.8 1.4 Q67.0 1.5 67.0 2.0 L67.75 2.25 68.0 3.0 Q68.5 3.0 68.75 3.25 L69.0 4.0 Q70.7 5.3 70.1 9.0 L70.0 10.0 70.05 11.0 Q70.25 14.25 67.0 14.0 L66.0 14.0 66.0 15.0 66.0 16.0 66.0 17.0 Q68.55 17.45 68.05 21.0 L68.0 22.0 70.85 22.45 71.0 23.0 72.0 23.0 Q73.7 24.75 73.05 29.0 L73.0 30.0 Q73.8 31.7 77.0 31.5 L77.0 32.0 Q77.5 32.5 78.1 32.8 L79.0 33.0 Q79.5 33.5 80.1 33.8 L81.0 34.0 80.85 33.05 78.0 23.0 Q80.8 25.2 81.85 29.05 L82.0 30.0 Q83.7 30.3 83.5 33.0 L84.0 33.0 84.0 32.0 84.0 31.0 Q85.65 31.15 85.5 29.0 L86.0 29.0 86.0 28.0 86.0 27.0 Q87.5 26.0 87.9 24.0 L88.0 23.0 88.0 22.0 Q89.65 22.15 89.5 20.0 L90.0 20.0" fill="#ff0000" fill-rule="evenodd" stroke="none"/>
  </g>
</svg>
