<?xml version="1.0" encoding="UTF-8" standalone="no"?>
<svg xmlns:xlink="http://www.w3.org/1999/xlink" height="131.0px" width="81.0px" xmlns="http://www.w3.org/2000/svg">
  <g transform="matrix(1.0, 0.0, 0.0, 1.0, 0.0, -1.0)">
    <path d="M81.0 37.0 L80.0 37.0 80.05 38.0 Q80.2 41.7 78.0 43.0 L77.75 43.75 77.0 44.0 77.0 45.0 76.8 45.9 75.0 49.0 74.75 49.7 71.0 52.0 70.85 52.55 68.0 53.0 68.0 54.0 69.75 55.25 70.0 56.0 Q71.95 56.05 72.75 57.15 L73.0 58.0 74.75 59.25 75.0 60.0 Q77.45 61.55 77.05 66.0 L77.0 67.0 Q79.7 67.3 79.95 70.0 L80.0 71.0 79.0 71.0 79.0 73.0 79.0 74.0 79.05 75.0 Q79.7 79.2 78.0 81.0 L78.0 82.0 78.0 86.0 78.0 87.0 78.75 87.25 79.0 88.0 Q80.7 89.75 79.55 93.85 L79.0 94.0 78.8 94.9 Q77.5 98.0 72.0 97.0 L71.8 97.9 71.0 99.0 71.0 100.0 Q70.8 103.15 73.2 101.25 L74.0 101.0 Q78.2 100.3 78.0 104.0 L78.0 105.0 Q81.2 106.2 78.75 108.75 L78.0 109.0 77.75 109.75 77.0 110.0 77.0 113.0 77.0 114.0 77.0 116.0 77.0 117.0 Q78.7 117.3 78.1 120.0 L78.0 121.0 78.55 121.1 Q80.2 128.2 77.0 131.0 L77.0 132.0 76.0 132.0 73.0 132.0 Q73.0 131.5 72.8 131.4 68.3 129.2 70.0 121.0 L71.0 121.0 71.0 120.0 71.0 118.0 72.0 118.0 72.0 117.0 72.0 115.0 72.05 114.0 Q72.35 110.65 71.0 109.0 L70.45 108.9 Q70.0 107.0 70.0 105.0 L69.0 105.0 68.15 105.2 Q66.0 106.5 64.0 108.0 L63.75 108.75 62.0 110.0 61.75 110.7 58.0 113.0 Q58.0 113.5 57.8 113.6 52.7 116.2 46.0 117.0 L45.9 117.5 Q38.75 118.75 34.0 117.0 L33.05 117.1 Q30.9 117.65 31.0 116.0 L30.0 115.95 Q26.8 115.7 25.0 114.0 L24.1 113.8 Q23.5 113.5 23.0 113.0 L22.1 112.8 21.0 112.0 20.25 111.75 Q20.0 111.5 20.0 111.0 L19.1 110.8 18.0 110.0 17.25 109.75 Q17.0 109.5 17.0 109.0 L16.25 108.75 Q16.0 108.5 16.0 108.0 L15.25 107.75 13.0 105.0 12.15 105.2 Q9.35 106.85 8.0 110.0 L8.0 113.0 8.0 114.0 8.0 115.0 8.0 116.0 Q9.55 118.45 9.95 122.0 L10.0 123.0 10.0 125.0 10.0 126.0 10.0 128.0 10.0 129.0 9.75 129.75 8.0 131.0 8.0 132.0 7.0 132.0 4.0 132.0 Q2.5 132.0 2.35 131.6 L1.65 129.0 1.5 128.9 1.3 127.4 Q1.0 125.25 1.0 123.0 L2.0 123.0 2.0 122.0 2.0 121.0 2.0 118.0 Q3.65 118.15 3.1 115.95 L3.0 115.0 3.0 114.0 Q4.65 114.15 4.1 111.95 L4.0 111.0 3.8 110.1 3.0 109.0 2.05 108.85 0.0 108.0 0.0 107.0 0.0 106.0 1.1 105.2 2.0 105.0 2.0 104.0 2.0 102.0 3.0 102.0 3.0 101.0 5.0 101.0 6.0 101.0 7.0 101.0 9.05 101.85 10.0 102.0 10.0 101.0 9.9 100.5 Q8.4 100.15 9.0 98.0 L8.0 98.1 Q4.3 98.7 3.0 97.0 L2.8 96.1 2.0 95.0 2.0 94.0 1.5 93.9 Q1.0 91.0 1.0 88.0 L2.0 88.0 2.0 87.0 2.0 86.0 3.0 86.0 3.05 85.0 Q3.35 81.65 2.0 80.0 L1.5 79.95 Q1.0 75.5 1.0 71.0 L1.0 70.0 1.0 68.0 2.0 68.0 3.0 68.0 3.0 67.0 3.0 64.0 3.0 63.0 4.8 59.9 5.0 59.0 5.0 58.0 Q6.5 57.0 8.1 56.2 L9.0 56.0 10.0 56.0 10.0 55.0 Q11.95 54.95 13.15 54.25 L14.0 54.0 14.0 53.0 Q16.15 53.65 16.45 52.1 L17.0 52.0 17.0 51.0 21.0 50.1 22.0 50.0 24.85 49.55 25.0 49.0 25.0 48.0 30.0 48.0 31.0 48.0 Q33.9 47.9 35.3 46.25 35.5 46.0 36.0 46.0 L35.8 45.1 35.0 44.0 34.0 44.05 Q30.45 44.55 30.0 42.0 L29.45 41.85 Q26.75 33.25 23.0 26.0 L22.85 25.05 Q21.7 21.8 22.0 17.0 L22.0 16.0 23.0 16.0 23.0 15.0 23.0 12.0 23.75 11.75 24.0 11.0 24.0 10.0 Q26.75 8.25 27.5 4.1 L28.0 4.0 28.0 3.0 28.0 2.0 Q29.0 2.0 29.8 1.6 L30.0 1.0 32.0 1.0 33.0 1.0 33.8 2.1 34.0 3.0 Q35.65 1.65 39.0 1.95 L40.0 2.0 40.0 1.0 45.9 1.5 46.0 2.0 48.0 2.0 49.0 2.0 Q51.7 1.3 52.4 2.8 L53.0 3.0 60.8 6.4 Q61.0 6.5 61.0 7.0 63.7 6.8 64.75 8.2 L65.0 9.0 Q67.15 9.85 68.35 11.8 68.5 12.0 69.0 12.0 L70.0 12.0 71.0 12.0 72.0 12.0 72.0 11.0 Q74.65 12.35 75.5 15.0 L75.0 15.0 74.75 15.75 74.0 16.0 74.0 17.0 Q74.7 19.8 76.75 21.3 L77.0 22.0 Q78.75 25.75 79.9 30.05 L80.0 31.0 81.0 31.0 81.0 36.0 81.0 37.0" fill="#ff0000" fill-rule="evenodd" stroke="none"/>
  </g>
</svg>
