<?xml version="1.0" encoding="UTF-8" standalone="no"?>
<svg xmlns:xlink="http://www.w3.org/1999/xlink" height="132.0px" width="101.25px" xmlns="http://www.w3.org/2000/svg">
  <g transform="matrix(1.0, 0.0, 0.0, 1.0, -1.0, -1.0)">
    <path d="M74.0 110.0 L73.0 110.0 72.75 110.75 71.0 112.0 71.0 113.0 73.0 113.0 74.0 113.0 75.0 113.0 76.0 113.0 78.85 113.45 79.0 114.0 Q82.9 113.1 82.5 117.0 L83.0 117.0 83.0 116.0 83.0 115.0 83.8 113.9 84.0 113.0 84.0 112.0 84.0 111.0 83.25 110.75 Q83.0 110.5 83.0 110.0 L82.2 109.75 Q80.8 108.7 81.0 106.0 L80.45 105.9 Q80.15 104.4 78.0 105.0 L78.0 106.0 77.75 106.75 74.0 110.0 M85.0 14.0 L85.0 13.0 Q90.7 9.3 86.7 14.75 L86.0 15.0 85.75 15.75 78.0 23.0 78.0 24.0 78.0 25.0 78.75 25.25 79.0 26.0 79.85 28.05 80.0 29.0 80.8 30.1 81.0 31.0 90.0 30.05 91.0 30.0 91.0 29.0 92.0 29.0 Q95.25 30.25 95.9 34.0 L96.0 35.0 98.0 35.0 99.0 35.0 Q100.7 36.3 99.55 39.85 L99.0 40.0 98.8 40.6 Q98.0 41.0 97.0 41.0 L97.0 42.0 97.0 43.0 Q97.05 48.05 94.0 50.0 L93.75 50.8 Q91.35 53.85 87.0 55.0 L86.0 55.0 85.9 55.55 82.0 56.0 82.0 57.0 Q83.5 58.0 84.75 59.25 L85.0 60.0 Q88.15 62.85 88.9 68.0 L89.0 69.0 Q91.9 68.6 90.55 71.8 L90.0 72.0 90.0 74.0 90.0 75.0 90.05 76.0 Q90.7 80.2 89.0 82.0 L89.0 83.0 89.0 84.0 Q92.7 85.3 96.85 86.45 L97.0 87.0 Q106.45 86.75 98.85 91.75 L98.0 92.0 97.0 91.9 93.0 91.0 92.0 91.0 90.0 91.0 90.0 92.0 90.0 93.0 90.1 93.95 Q90.65 96.15 89.0 96.0 L89.0 97.0 88.9 97.5 83.0 98.0 82.75 98.85 81.0 101.0 81.0 102.0 Q81.5 102.5 82.1 102.8 L83.0 103.0 83.0 102.0 84.0 102.0 85.0 102.0 86.0 102.0 Q89.7 101.8 89.05 106.0 L89.0 107.0 Q92.45 107.3 89.75 109.75 L89.0 110.0 88.1 110.2 87.0 111.0 87.0 112.0 87.0 113.0 Q86.4 115.15 87.9 115.5 L88.0 116.0 88.0 117.0 88.0 118.0 88.8 119.1 89.0 120.0 89.0 122.0 89.0 123.0 89.0 124.0 Q91.45 127.0 89.25 130.15 89.0 130.5 89.0 131.0 L88.8 131.6 Q88.0 132.0 87.0 132.0 L87.0 133.0 86.0 133.0 84.0 133.0 84.0 132.0 83.25 131.75 82.0 130.0 81.45 129.9 Q81.0 128.0 81.0 126.0 L82.0 126.0 82.0 125.0 82.0 123.0 82.0 122.0 82.0 119.0 81.75 118.25 81.0 118.0 80.2 118.25 Q75.2 121.9 70.0 117.0 L69.45 116.85 Q69.0 115.5 69.0 114.0 L68.0 114.0 67.8 114.6 Q65.0 116.0 62.0 117.0 61.5 117.0 61.15 117.25 59.7 118.2 57.0 118.0 L56.9 118.5 Q51.25 119.75 48.0 118.0 L47.0 117.95 Q41.55 117.45 38.0 115.0 L37.1 114.8 36.0 114.0 35.1 113.8 34.0 113.0 33.1 112.8 32.0 112.0 31.15 111.75 29.0 110.0 28.25 109.75 27.0 108.0 Q26.5 108.0 26.4 107.8 25.7 106.3 24.0 106.0 L23.0 106.0 22.0 106.0 21.5 106.0 Q21.7 108.7 20.0 109.0 L20.0 111.0 20.0 112.0 20.0 113.0 Q21.75 114.75 22.8 117.1 L23.0 118.0 Q24.95 120.05 25.85 123.05 L26.0 124.0 Q27.7 124.8 26.55 127.85 L26.0 128.0 25.75 128.7 Q22.8 131.25 20.0 129.0 L19.25 128.75 18.0 127.0 18.0 126.0 18.0 125.0 17.45 124.9 Q17.0 123.0 17.0 121.0 L17.0 120.0 16.5 119.95 Q16.0 116.0 16.0 112.0 L15.75 111.25 15.0 111.0 14.05 110.85 Q11.55 109.95 11.0 107.0 L11.8 105.9 12.0 105.0 11.0 105.0 10.0 105.0 9.85 105.95 Q8.3 110.25 5.0 108.0 L4.25 107.75 2.0 105.0 1.45 104.9 Q1.0 103.0 1.0 101.0 L1.0 100.0 Q2.65 100.15 2.5 98.0 L3.0 98.0 3.0 97.0 Q5.7 96.3 6.4 97.8 6.5 98.0 7.0 98.0 9.5 97.0 11.8 95.65 L12.0 95.0 12.0 94.0 12.0 89.0 13.0 89.0 13.0 88.0 13.0 87.0 14.0 87.0 14.0 86.0 14.0 83.0 14.0 82.0 13.25 81.75 Q13.0 81.5 13.0 81.0 L12.5 80.95 Q12.0 76.5 12.0 72.0 L12.0 71.0 12.0 69.0 Q14.65 69.65 14.5 67.0 L15.0 67.0 15.0 66.0 14.9 65.5 Q13.4 65.15 14.0 63.0 15.95 62.95 16.75 61.85 L17.0 61.0 16.0 61.1 Q12.8 61.7 12.0 60.0 L11.0 59.9 Q9.0 59.5 8.0 58.0 L7.1 57.8 Q4.3 56.2 3.0 53.0 6.75 53.75 8.4 56.8 8.5 57.0 9.0 57.0 L13.05 58.85 14.0 59.0 Q16.7 59.7 17.4 58.2 17.5 58.0 18.0 58.0 21.5 56.0 25.1 54.2 L26.0 54.0 26.0 53.0 27.0 53.0 28.0 53.0 28.0 52.0 34.0 51.05 35.0 51.0 35.0 50.0 36.0 50.0 37.0 50.0 37.0 49.0 42.0 49.0 43.0 49.0 44.0 49.0 44.0 48.0 44.0 47.0 45.0 47.0 45.0 46.0 45.0 45.0 Q46.0 44.5 47.05 44.15 L48.0 44.0 Q52.0 44.5 52.85 41.95 L53.0 41.0 52.75 40.25 Q50.7 38.3 50.0 35.0 L49.4 34.8 Q49.0 34.0 49.0 33.0 L48.15 32.75 Q44.85 30.65 44.0 26.0 L43.9 25.5 Q42.4 25.15 43.0 23.0 L43.0 22.0 43.0 17.0 44.0 17.0 45.0 17.0 45.0 16.0 45.0 13.0 Q46.65 13.15 46.5 11.0 L47.0 11.0 47.0 10.0 47.0 9.0 Q47.5 8.5 48.1 8.2 L49.0 8.0 49.0 7.0 Q50.7 6.7 51.4 5.2 51.5 5.0 52.0 5.0 L53.0 5.0 53.0 4.0 55.0 4.0 56.0 4.0 56.0 3.0 64.0 3.0 65.0 3.0 65.0 2.0 65.75 1.75 66.0 1.0 68.85 1.45 69.0 2.0 Q71.15 1.4 71.05 3.0 L71.0 4.0 Q73.1 7.4 76.8 9.4 L77.0 10.0 76.8 10.85 74.0 15.0 73.75 15.75 73.0 16.0 73.0 17.0 72.75 17.75 72.0 18.0 72.0 19.0 73.75 20.25 74.0 21.0 Q74.5 21.0 74.75 21.25 L75.0 22.0 Q77.15 22.65 77.5 21.1 L78.0 21.0 78.0 20.0 Q81.65 17.65 84.3 14.25 84.5 14.0 85.0 14.0 M66.0 121.0 L77.0 121.0 78.0 121.0 79.0 121.0 80.0 121.0 80.8 122.1 81.0 123.0 80.5 123.1 Q79.9 125.9 78.0 127.0 L78.0 128.0 77.75 128.7 74.0 131.0 Q73.5 131.0 73.3 131.25 72.2 132.7 69.0 132.0 L69.0 133.0 68.0 133.0 62.0 133.0 62.0 132.0 61.0 132.05 Q56.55 132.45 55.0 130.0 L56.0 130.0 57.0 130.0 57.0 129.0 Q57.5 128.5 58.1 128.2 L59.0 128.0 59.0 127.0 60.0 127.0 60.0 126.0 61.0 126.0 61.0 125.0 61.0 124.0 Q61.5 121.0 65.0 121.0 L66.0 121.0 M43.0 125.0 Q46.1 123.3 46.7 127.2 47.85 134.5 39.0 128.0 L39.0 127.0 Q41.0 125.5 43.0 124.5 L43.0 125.0" fill="#ff0000" fill-rule="evenodd" stroke="none"/>
  </g>
</svg>
