<?xml version="1.0" encoding="UTF-8" standalone="no"?>
<svg xmlns:xlink="http://www.w3.org/1999/xlink" height="86.2px" width="112.05px" xmlns="http://www.w3.org/2000/svg">
  <g transform="matrix(1.0, 0.0, 0.0, 1.0, 0.0, 0.0)">
    <path d="M82.0 4.0 L92.75 17.2 93.0 18.0 93.8 19.1 94.0 20.0 94.85 22.05 95.0 23.0 Q96.65 22.9 96.1 25.05 L96.0 26.0 96.0 27.0 Q97.75 29.75 96.55 34.9 L96.0 35.0 96.1 35.95 Q96.65 38.15 95.0 38.0 L95.0 39.0 Q96.7 39.8 95.55 42.85 L95.0 43.0 95.0 47.0 95.0 48.0 95.1 48.95 Q95.65 51.15 94.0 51.0 L94.0 52.0 Q95.2 53.3 95.05 56.0 L95.0 57.0 96.0 57.0 102.0 57.0 103.0 57.0 103.0 56.0 Q106.8 54.15 109.75 56.35 L110.0 57.0 Q112.2 57.3 112.05 60.0 L112.0 61.0 111.85 61.55 109.0 62.0 108.75 62.75 108.0 63.0 108.0 63.5 Q103.0 63.5 101.0 66.0 L100.75 66.85 Q97.7 71.2 92.0 73.0 L91.0 73.0 89.0 73.0 88.0 73.0 87.0 73.0 86.35 73.2 Q84.6 76.1 80.0 76.0 L79.9 76.55 Q77.2 77.2 75.0 78.0 L74.0 78.0 73.85 78.55 Q69.75 79.7 68.0 78.0 L67.1 77.8 66.0 77.0 65.0 77.0 64.0 77.0 63.0 77.0 60.0 77.0 59.9 77.5 55.0 78.0 55.0 79.0 55.0 82.0 55.0 83.0 54.75 83.75 54.0 84.0 53.8 84.85 Q52.7 86.7 49.0 86.0 L48.8 85.1 48.0 84.0 47.0 84.0 Q46.5 84.0 46.35 84.25 45.0 86.35 44.0 84.0 L43.05 83.9 Q40.65 83.35 39.0 82.0 L38.15 81.75 Q37.05 80.95 37.0 79.0 L36.2 78.75 Q34.8 77.7 35.0 75.0 L34.5 75.0 Q34.7 71.3 33.0 70.0 L32.75 70.75 28.0 76.0 27.05 75.9 Q21.1 74.4 18.0 70.0 L17.0 70.0 14.0 70.0 13.0 70.1 Q10.35 70.65 11.0 68.0 L10.0 68.0 9.0 68.1 Q6.3 68.7 6.0 67.0 L5.85 66.05 Q4.95 63.5 5.0 60.0 L6.0 60.0 6.0 59.0 Q9.4 59.9 9.05 57.0 L9.0 56.0 8.05 56.1 Q5.9 56.65 6.0 55.0 L6.0 54.0 7.1 53.2 8.0 53.0 8.0 52.0 10.05 51.15 11.0 51.0 11.0 50.0 Q15.0 50.0 17.2 48.25 L18.0 48.0 18.0 47.0 19.0 47.0 19.0 46.0 18.85 45.05 Q17.95 42.55 15.0 42.0 L14.0 42.0 12.0 42.0 11.0 42.0 10.75 42.8 Q7.2 47.2 2.0 45.0 L1.75 44.25 0.0 43.0 0.0 42.0 0.0 39.0 1.0 39.0 1.0 38.0 2.0 38.0 2.0 37.0 Q6.2 35.2 12.0 35.0 L13.0 35.0 13.0 34.0 16.0 34.0 17.0 34.0 19.0 34.0 20.0 34.0 20.0 33.0 Q21.5 32.0 21.9 30.0 L22.0 29.0 21.75 28.15 Q21.05 26.95 21.0 25.0 20.5 25.0 20.35 24.8 19.2 22.8 19.0 20.0 L20.0 20.0 20.0 19.0 Q22.7 19.2 24.15 18.25 24.5 18.0 25.0 18.0 L25.0 17.0 Q28.5 17.0 31.05 16.15 L32.0 16.0 32.0 15.0 34.0 15.0 35.0 15.0 35.0 14.0 35.0 13.0 35.0 12.0 35.0 11.0 36.0 11.0 36.0 10.0 36.0 9.0 Q37.05 8.05 38.9 8.45 L39.0 9.0 Q42.2 8.7 43.4 6.2 L44.0 6.0 44.0 5.0 Q49.25 2.75 55.05 1.15 L56.0 1.0 56.0 0.0 67.0 0.0 68.0 0.0 68.0 1.0 69.0 1.0 Q77.1 1.95 81.85 3.45 L82.0 4.0" fill="#ff0000" fill-rule="evenodd" stroke="none"/>
  </g>
</svg>
