<?xml version="1.0" encoding="UTF-8" standalone="no"?>
<svg xmlns:xlink="http://www.w3.org/1999/xlink" height="117.0px" width="121.0px" xmlns="http://www.w3.org/2000/svg">
  <g transform="matrix(1.0, 0.0, 0.0, 1.0, -1.0, -1.0)">
    <path d="M99.9 22.05 L99.8 22.45 Q98.1 26.95 88.0 29.0 92.05 34.15 97.8 36.95 100.75 38.4 103.25 39.1 102.8 40.25 102.0 41.0 102.0 44.05 104.3 45.95 106.75 48.0 111.0 48.0 L112.05 48.0 113.1 48.65 Q113.25 50.05 117.65 55.25 122.0 60.3 122.0 63.0 119.7 66.55 116.55 69.65 110.25 75.8 106.0 74.0 107.45 76.35 110.3 79.45 112.4 82.25 112.4 85.8 L112.65 89.0 112.85 91.4 112.4 92.35 Q111.85 92.9 111.0 92.95 109.3 93.1 105.9 95.1 102.6 97.0 101.0 97.0 97.05 97.0 92.75 91.6 88.45 86.2 86.8 86.2 84.45 86.2 74.5 96.65 64.6 107.05 61.7 107.05 60.45 107.05 58.6 104.55 56.75 102.0 56.0 102.0 52.95 102.0 50.35 104.8 47.8 107.5 46.95 111.5 46.5 113.6 42.8 115.75 39.05 117.9 39.0 118.0 L28.0 118.0 28.0 117.0 Q25.0 117.3 21.4 115.55 17.0 113.45 17.0 110.0 17.0 106.5 26.3 103.55 33.5 101.2 38.0 101.0 L36.0 86.0 Q32.15 87.5 30.0 90.45 L27.3 95.7 Q25.8 98.75 23.75 100.05 20.85 101.9 15.25 101.9 7.9 101.9 4.7 99.5 1.0 96.7 1.0 89.55 1.0 86.95 2.9 85.7 4.8 84.4 4.8 82.8 4.8 81.85 3.55 78.0 L2.0 73.0 Q4.35 73.2 5.6 71.95 L7.0 70.0 5.25 68.6 4.0 67.0 Q8.7 65.9 14.4 62.15 L24.4 54.85 Q37.2 45.25 46.2 45.25 L53.75 46.4 54.95 46.1 Q55.8 45.65 56.0 45.0 47.0 40.75 46.05 40.15 41.4 37.25 42.0 34.0 42.0 34.4 44.05 34.7 L46.8 34.9 Q51.2 34.9 53.9 33.5 56.25 32.3 59.0 29.0 55.45 28.35 51.8 25.7 47.85 22.8 46.0 19.0 54.9 19.25 63.05 12.85 70.2 7.2 72.0 1.0 L72.95 2.1 Q79.3 11.9 86.9 16.65 91.3 19.4 99.9 22.05 M45.0 80.0 L44.85 83.95 Q44.85 85.2 45.2 87.2 45.55 89.2 46.0 90.5 L46.0 80.0 45.0 80.0 M72.0 109.0 Q71.0 108.15 71.0 107.0 71.0 105.0 74.6 103.2 L78.3 101.8 83.25 106.3 87.85 110.95 Q87.85 112.35 82.55 114.05 81.1 114.05 80.0 113.0 79.0 112.05 79.0 111.0 79.0 110.4 79.9 109.95 L80.95 109.45 81.0 109.0 76.5 110.25 Q73.45 110.25 72.0 109.0 M93.35 104.7 L85.5 104.7 85.5 101.3 93.35 101.3 93.35 104.7" fill="#ff0000" fill-rule="evenodd" stroke="none"/>
  </g>
</svg>
