<?xml version="1.0" encoding="UTF-8" standalone="no"?>
<svg xmlns:xlink="http://www.w3.org/1999/xlink" height="114.15px" width="101.3px" xmlns="http://www.w3.org/2000/svg">
  <g transform="matrix(1.0, 0.0, 0.0, 1.0, 0.0, 22.35)">
    <path d="M33.6 -1.45 L33.7 -0.95 33.8 -1.35 33.8 -1.5 33.6 -1.45 M31.05 -5.15 Q33.85 -6.7 36.3 -6.7 37.95 -6.7 38.3 -5.2 L38.3 -3.5 38.2 -1.55 37.3 1.4 Q38.5 0.5 41.3 -4.45 44.05 -9.3 44.05 -10.25 44.05 -11.2 43.45 -13.3 42.8 -15.35 42.8 -17.25 42.8 -21.25 47.35 -22.15 51.8 -23.05 52.45 -20.2 52.8 -17.75 52.8 -12.6 55.4 -12.35 55.8 -10.3 L56.55 -6.95 58.3 -7.0 Q58.8 -7.95 59.35 -12.1 60.3 -15.7 63.15 -15.7 66.35 -15.7 67.0 -10.75 L67.15 -5.4 Q68.7 -4.95 70.2 -3.0 L71.6 -0.05 Q72.3 1.75 72.95 2.55 L78.3 8.0 Q81.55 11.4 81.55 13.4 L81.25 14.65 Q80.9 15.2 80.4 15.4 L80.8 16.9 Q80.8 19.05 80.05 21.1 79.3 23.1 79.3 24.05 L80.45 26.8 Q81.55 29.55 81.55 32.05 80.65 37.05 79.8 39.9 L79.8 41.9 Q79.85 44.95 84.45 49.85 L92.05 57.3 Q97.25 62.65 99.0 65.3 101.3 68.8 101.3 72.65 L101.2 75.5 Q100.25 77.55 95.8 77.55 91.55 77.55 87.25 75.95 83.8 74.65 82.55 73.4 81.65 74.1 81.15 75.0 L80.5 76.5 Q79.75 77.65 77.25 78.5 L77.3 79.1 Q77.3 80.1 75.45 81.2 L74.8 81.6 74.35 82.5 74.05 82.85 Q74.0 83.5 73.55 84.05 72.95 84.8 72.05 84.8 L70.85 84.5 70.3 84.55 69.85 84.5 69.25 87.05 Q68.5 91.8 66.05 91.8 65.35 91.8 63.1 90.7 60.7 89.55 59.8 89.4 55.85 88.25 55.05 87.3 52.5 86.8 49.65 85.4 46.8 84.05 46.15 83.95 L39.2 82.9 37.7 84.0 Q32.2 88.05 31.05 88.05 26.15 88.05 23.15 86.55 20.2 85.1 19.75 82.7 L18.05 75.55 15.6 76.5 Q12.9 77.3 9.8 77.3 7.8 77.3 6.8 76.8 L4.3 77.05 Q1.3 77.05 0.4 76.05 -0.1 75.6 0.05 75.05 0.05 73.6 1.8 73.0 L1.8 72.65 Q3.75 61.85 6.65 55.15 8.55 50.65 8.55 46.55 8.55 41.75 11.3 43.7 L11.65 44.0 Q12.2 41.55 15.85 37.05 L15.8 36.8 Q15.8 34.9 17.7 34.8 21.7 29.7 20.8 26.55 20.2 24.5 20.8 22.05 21.4 19.45 23.15 17.5 L25.65 14.85 Q25.4 14.15 25.3 13.15 25.15 11.55 25.3 9.95 L25.2 7.65 Q25.2 5.7 25.55 4.75 25.75 4.15 27.25 2.4 28.4 1.1 28.3 -0.45 27.95 -6.4 30.7 -4.95 L31.05 -5.15" fill="#ff0000" fill-rule="evenodd" stroke="none"/>
  </g>
</svg>
