<?xml version="1.0" encoding="UTF-8" standalone="no"?>
<svg xmlns:xlink="http://www.w3.org/1999/xlink" height="114.15px" width="101.3px" xmlns="http://www.w3.org/2000/svg">
  <g transform="matrix(1.0, 0.0, 0.0, 1.0, 0.0, 2.0)">
    <path d="M81.25 35.0 Q80.9 35.55 80.4 35.75 L80.8 37.25 Q80.8 39.4 80.05 41.45 79.3 43.45 79.3 44.4 L80.45 47.15 Q81.55 49.9 81.55 52.4 80.65 57.4 79.8 60.25 L79.8 62.25 Q79.85 65.3 84.45 70.2 L92.05 77.65 Q97.25 83.0 99.0 85.65 101.3 89.15 101.3 93.0 L101.2 95.85 Q100.25 97.9 95.8 97.9 91.55 97.9 87.25 96.3 83.8 95.0 82.55 93.75 81.65 94.45 81.15 95.35 L80.5 96.85 Q79.75 98.0 77.25 98.85 L77.3 99.45 Q77.3 100.45 75.45 101.55 L74.8 101.95 74.35 102.85 74.05 103.2 Q74.0 103.85 73.55 104.4 72.95 105.15 72.05 105.15 L70.85 104.85 70.3 104.9 69.85 104.85 69.25 107.4 Q68.5 112.15 66.05 112.15 65.35 112.15 63.1 111.05 60.7 109.9 59.8 109.75 55.85 108.6 55.05 107.65 52.5 107.15 49.65 105.75 46.8 104.4 46.15 104.3 L39.2 103.25 37.7 104.35 Q32.2 108.4 31.05 108.4 26.15 108.4 23.15 106.9 20.2 105.45 19.75 103.05 L18.05 95.9 15.6 96.85 Q12.9 97.65 9.8 97.65 7.8 97.65 6.8 97.15 L4.3 97.4 Q1.3 97.4 0.4 96.4 -0.1 95.95 0.05 95.4 0.05 93.95 1.8 93.35 L1.8 93.0 Q3.75 82.2 6.65 75.5 8.55 71.0 8.55 66.9 8.55 62.1 11.3 64.05 L11.65 64.35 Q12.2 61.9 15.85 57.4 L15.8 57.15 Q15.8 55.25 17.7 55.15 21.7 50.05 20.8 46.9 20.2 44.85 20.8 42.4 21.4 39.8 23.15 37.85 L25.65 35.2 Q25.4 34.5 25.3 33.5 25.15 31.9 25.3 30.3 L25.2 28.0 Q25.2 26.05 25.55 25.1 25.75 24.5 27.25 22.75 28.4 21.45 28.3 19.9 27.95 13.95 30.7 15.4 L31.05 15.2 Q33.85 13.65 36.3 13.65 37.95 13.65 38.3 15.15 L38.3 16.85 38.2 18.8 37.3 21.75 Q38.5 20.85 41.3 15.9 44.05 11.05 44.05 10.1 44.05 9.15 43.45 7.05 42.8 5.0 42.8 3.1 42.8 -0.9 47.35 -1.8 51.8 -2.7 52.45 0.15 52.8 2.6 52.8 7.75 55.4 8.0 55.8 10.05 L56.55 13.4 58.3 13.35 Q58.8 12.4 59.35 8.25 60.3 4.65 63.15 4.65 66.35 4.65 67.0 9.6 L67.15 14.95 Q68.7 15.4 70.2 17.35 70.8 18.3 71.6 20.3 72.3 22.1 72.95 22.9 L78.3 28.35 Q81.55 31.75 81.55 33.75 L81.25 35.0 M33.8 18.85 L33.6 18.9 33.7 19.4 33.8 19.0 33.8 18.85" fill="#ff0000" fill-rule="evenodd" stroke="none"/>
  </g>
</svg>
