<?xml version="1.0" encoding="UTF-8" standalone="no"?>
<svg xmlns:xlink="http://www.w3.org/1999/xlink" height="74.0px" width="115.0px" xmlns="http://www.w3.org/2000/svg">
  <g transform="matrix(1.0, 0.0, 0.0, 1.0, 0.0, -1.0)">
    <path d="M108.0 24.0 Q111.95 22.75 114.75 27.15 L115.0 28.0 114.75 28.7 Q108.75 33.25 101.0 36.0 L101.0 37.0 101.0 38.0 101.8 39.1 102.0 40.0 Q105.3 37.85 106.75 39.25 L107.0 40.0 109.1 39.7 Q114.1 39.4 105.0 45.0 107.75 50.75 109.85 57.05 L110.0 58.0 110.55 58.1 Q112.9 68.05 97.0 65.0 L96.05 64.85 Q92.9 63.6 89.0 63.0 88.5 63.0 88.3 63.25 87.2 64.7 84.0 64.0 L83.75 64.75 83.0 65.0 82.75 65.85 Q78.15 73.15 68.0 75.0 L67.0 75.0 66.0 75.0 Q59.8 74.7 58.0 70.0 L57.0 70.0 54.0 70.0 Q53.5 70.0 53.15 70.25 51.7 71.2 49.0 71.0 L48.8 71.65 Q46.3 73.05 44.0 73.0 L43.0 73.05 Q39.05 73.45 32.0 73.0 L31.0 73.0 Q25.9 73.1 25.0 69.0 L24.1 69.2 Q23.2 69.7 20.0 68.0 L20.0 68.5 14.0 67.0 Q13.5 67.0 13.35 66.8 11.65 63.85 9.0 62.0 L8.05 61.85 Q5.1 60.9 6.0 56.0 7.7 55.7 7.5 53.0 L8.0 53.0 8.15 52.05 Q8.8 50.15 8.0 45.0 L7.0 45.0 6.0 45.0 5.0 45.0 4.0 45.0 3.0 45.0 Q1.05 44.95 0.0 44.0 L0.0 43.0 0.0 41.0 Q4.2 22.7 22.05 18.1 L23.0 18.0 24.0 18.0 24.0 17.0 33.05 14.15 34.0 14.0 34.2 13.15 Q35.45 11.0 34.0 7.0 36.65 5.65 40.0 5.1 L41.0 5.0 42.0 5.0 42.0 4.0 42.0 3.0 Q44.05 1.55 47.0 1.1 L48.0 1.0 57.95 1.5 58.0 2.0 62.9 2.5 63.0 3.0 Q74.9 6.6 83.75 13.3 L84.0 14.0 Q85.9 15.1 86.5 17.9 L87.0 18.0 Q93.85 10.4 101.0 8.5 L101.0 9.0 Q106.5 7.45 110.2 15.8 110.95 17.45 109.0 19.0 107.05 20.55 106.0 23.0 L107.1 23.8 108.0 24.0" fill="#ff0000" fill-opacity="0.65882355" fill-rule="evenodd" stroke="none"/>
  </g>
</svg>
