<?xml version="1.0" encoding="UTF-8" standalone="no"?>
<svg xmlns:xlink="http://www.w3.org/1999/xlink" height="94.9px" width="71.0px" xmlns="http://www.w3.org/2000/svg">
  <g transform="matrix(1.0, 0.0, 0.0, 1.0, 0.0, 32.9)">
    <path d="M30.8 -31.0 L30.8 -32.0 Q36.3 -34.0 41.6 -31.6 41.8 -31.5 41.8 -31.0 49.0 -24.7 56.55 -18.7 L56.8 -18.0 56.9 -17.05 Q57.9 -12.9 54.8 -13.0 L54.65 -12.45 51.8 -12.0 50.8 -12.1 Q47.2 -12.9 44.8 -15.0 L43.8 -15.0 42.8 -15.0 Q45.8 -12.0 49.55 -9.65 L49.8 -9.0 53.55 -6.7 53.8 -6.0 Q56.25 -4.45 57.6 -1.9 L57.8 -1.0 57.8 -0.2 57.8 0.0 57.0 0.0 57.0 1.0 Q60.65 2.95 57.25 7.2 57.0 7.5 57.0 8.0 57.95 15.95 61.75 20.2 L62.0 21.0 Q64.2 22.25 64.05 26.0 L64.0 27.0 Q65.55 28.45 66.45 30.85 L67.0 31.0 68.75 33.15 69.0 34.0 Q69.5 34.5 70.1 34.8 L71.0 35.0 71.0 36.0 71.0 37.0 71.0 42.0 71.0 43.0 Q68.3 45.8 62.15 44.4 58.0 43.5 60.45 37.6 63.1 31.3 57.0 24.0 L56.5 23.9 Q56.0 21.5 56.0 19.0 L56.0 18.0 55.15 17.75 Q50.55 14.45 50.0 7.0 L50.0 17.0 50.0 18.0 50.0 23.0 50.0 24.0 50.0 25.0 Q54.1 25.9 54.9 30.0 L55.0 31.0 56.55 34.75 58.0 34.75 58.0 53.75 49.65 53.75 48.65 53.75 45.05 53.75 41.8 54.3 Q37.3 54.8 37.0 58.0 L36.95 59.0 Q36.7 61.2 34.0 61.0 L34.0 62.0 33.0 62.0 29.0 62.0 28.9 61.5 Q24.3 60.7 25.0 55.0 L24.25 54.75 24.05 54.35 Q19.3 54.05 17.65 50.8 17.0 52.95 15.0 49.0 L14.25 48.75 Q14.0 48.5 14.0 48.0 L13.4 47.8 Q13.0 47.0 13.0 46.0 12.5 46.0 12.25 46.25 7.0 51.85 0.0 47.0 L0.0 46.0 0.0 45.0 0.0 41.0 0.0 40.0 0.0 39.0 Q1.0 38.5 2.05 38.15 L3.0 38.0 3.0 37.0 4.0 37.0 4.0 36.0 4.0 35.0 4.0 33.0 Q5.6 33.15 5.5 31.0 L6.0 31.0 6.0 30.0 Q8.9 26.9 10.8 22.9 L11.0 22.0 11.0 21.0 Q12.7 20.2 12.5 17.0 L13.0 17.0 13.0 16.0 13.0 13.0 Q14.7 12.7 15.4 11.2 15.5 11.0 16.0 11.0 17.65 11.15 17.5 9.0 L18.0 9.0 18.0 8.0 Q20.15 8.65 20.05 7.0 L20.0 6.0 20.0 5.0 19.5 5.0 Q19.5 1.0 17.0 0.0 L18.8 0.0 18.8 -0.2 18.8 -1.0 18.55 -1.85 Q17.85 -3.05 17.8 -5.0 L17.8 -6.0 17.8 -7.0 Q19.45 -6.9 19.3 -9.0 L19.8 -9.0 19.8 -10.0 24.0 -12.75 24.8 -13.0 25.9 -13.8 26.8 -14.0 26.85 -15.0 Q27.35 -20.05 25.8 -28.0 27.8 -29.5 29.95 -30.8 L30.8 -31.0" fill="#ff0000" fill-opacity="0.98039216" fill-rule="evenodd" stroke="none"/>
  </g>
</svg>
