<?xml version="1.0" encoding="UTF-8" standalone="no"?>
<svg xmlns:xlink="http://www.w3.org/1999/xlink" height="140.1px" width="132.25px" xmlns="http://www.w3.org/2000/svg">
  <g transform="matrix(1.0, 0.0, 0.0, 1.0, -1.0, -2.9)">
    <path d="M131.3 42.55 L130.0 43.0 130.05 52.0 Q130.05 56.1 129.7 57.75 129.2 60.05 125.8 65.0 123.0 69.0 123.0 75.5 123.0 76.1 127.0 80.0 L131.0 84.0 Q133.65 84.0 133.15 90.2 L132.0 100.5 132.15 110.05 Q132.15 113.7 131.6 115.45 130.7 118.4 123.0 124.2 117.35 128.45 110.6 130.5 105.7 132.0 101.65 132.0 L97.0 130.0 Q95.7 130.0 87.8 135.0 79.9 140.0 76.0 140.0 L75.2 139.9 75.1 139.8 70.65 137.85 Q68.6 137.0 68.0 137.0 66.9 137.0 62.05 140.0 57.25 143.0 54.0 143.0 49.25 143.0 47.1 139.8 45.4 137.25 45.0 132.0 44.75 132.0 44.45 130.15 44.1 128.25 44.0 126.0 44.9 125.9 35.5 120.75 26.05 115.6 24.05 115.6 13.45 121.5 12.0 121.5 6.95 121.5 3.7 117.4 0.85 113.9 1.0 110.0 L1.0 105.0 Q2.7 103.85 6.4 102.45 9.5 101.3 10.85 99.95 15.0 95.7 15.0 78.5 L15.0 68.0 13.75 65.0 Q12.7 62.7 11.6 61.5 L10.15 60.15 Q9.0 58.9 9.0 52.0 L10.0 50.8 Q11.0 49.6 11.0 49.0 L10.0 43.65 9.0 39.0 Q9.0 38.2 10.55 37.55 12.05 36.95 13.85 36.95 17.4 36.95 19.75 38.35 21.95 39.65 21.95 41.4 L21.0 42.9 Q20.0 44.15 20.0 48.5 20.0 52.75 20.2 53.8 L21.0 55.0 Q22.5 55.0 24.95 53.8 28.45 52.15 31.0 49.0 29.7 48.65 28.65 46.65 L27.0 44.0 26.65 43.9 26.45 43.9 25.5 40.85 Q25.0 39.55 25.0 39.0 L31.95 35.05 Q39.05 31.15 40.0 31.0 51.2 24.75 61.75 20.9 69.7 17.95 71.95 17.95 L76.3 19.8 Q80.65 21.75 82.0 22.0 82.75 19.95 84.2 17.7 L85.3 15.5 Q85.3 12.65 84.65 11.05 83.7 8.55 83.0 4.0 L85.9 3.45 Q87.4 2.9 87.95 2.9 90.25 2.9 92.85 3.6 95.5 4.35 95.5 5.0 L94.25 10.05 Q93.0 15.05 93.0 19.5 93.0 26.4 95.95 29.7 97.85 31.8 102.45 33.3 107.4 34.9 108.95 36.25 111.9 38.75 111.9 44.35 111.9 46.2 111.0 47.0 109.85 48.1 106.75 48.1 L105.0 48.55 104.0 49.0 Q113.05 52.85 115.0 54.85 L115.65 55.45 117.9 55.5 Q118.65 55.5 119.85 51.5 121.0 47.4 121.0 44.5 121.0 43.7 120.0 42.75 119.0 41.75 119.0 38.0 119.0 37.3 120.9 36.65 L123.95 36.1 Q132.0 36.1 132.0 40.0 132.0 42.05 131.3 42.55" fill="#ff0000" fill-opacity="0.972549" fill-rule="evenodd" stroke="none"/>
  </g>
</svg>
