<?xml version="1.0" encoding="UTF-8" standalone="no"?>
<svg xmlns:xlink="http://www.w3.org/1999/xlink" height="112.3px" width="147.0px" xmlns="http://www.w3.org/2000/svg">
  <g transform="matrix(1.0, 0.0, 0.0, 1.0, 0.0, 0.0)">
    <path d="M136.1 79.2 L134.9 81.8 Q134.55 82.55 132.35 89.05 130.75 93.8 128.9 95.65 126.25 98.25 122.0 97.0 122.15 100.15 119.15 104.55 116.05 109.0 113.45 109.0 109.75 108.25 108.0 107.0 L106.0 109.0 106.0 111.0 Q106.75 111.15 102.9 111.7 L96.35 112.3 91.1 112.15 86.05 111.85 85.8 110.55 86.0 109.0 85.55 109.05 82.85 110.05 81.35 110.45 Q79.15 110.45 76.65 109.05 74.6 107.65 74.35 107.65 73.2 107.65 73.0 108.3 L72.8 109.75 Q72.15 111.8 65.5 111.8 L59.45 111.25 54.4 110.6 47.1 110.8 Q44.15 111.25 40.55 108.0 36.1 104.05 32.45 102.2 29.35 100.65 21.0 98.0 L25.9 97.95 Q28.5 97.65 30.0 96.0 21.0 96.4 21.0 95.0 L21.05 92.6 Q14.45 94.35 10.9 88.85 9.8 87.1 8.35 83.5 L6.0 78.0 8.65 76.55 Q9.8 75.6 9.8 74.3 9.8 73.05 9.0 73.0 7.1 74.7 5.4 74.65 2.15 74.65 0.0 65.0 1.55 65.0 1.4 63.65 1.3 62.3 4.15 62.3 5.85 62.3 6.0 62.65 6.0 66.25 10.25 64.15 L17.0 60.0 Q16.9 59.05 15.3 55.55 13.8 52.2 13.8 51.05 13.8 47.2 15.65 42.55 18.0 36.75 21.4 36.75 24.85 36.75 30.2 42.95 35.9 49.65 37.0 50.0 L36.95 49.55 Q34.0 44.4 34.0 43.0 L35.45 41.9 Q37.15 40.65 37.95 39.45 39.95 36.5 38.5 35.1 37.0 33.6 38.6 31.0 40.05 28.55 42.5 27.4 44.0 26.65 44.9 26.65 47.25 26.65 49.3 27.85 50.35 28.4 51.0 29.0 67.75 16.95 68.75 15.7 69.0 15.35 69.0 1.0 L71.85 0.45 74.0 0.0 Q77.5 0.0 78.8 2.85 80.75 7.15 82.2 8.35 84.35 10.1 93.2 20.85 94.35 22.45 96.85 24.95 L100.0 28.55 Q100.65 29.5 102.3 29.7 L105.4 29.8 Q109.3 30.1 109.3 34.75 L108.65 36.05 Q108.0 36.85 108.0 37.5 108.0 38.0 113.05 43.2 118.1 48.45 118.1 51.6 118.1 52.35 117.05 52.75 116.0 53.1 116.0 54.5 116.0 55.65 119.65 57.9 124.1 60.7 126.4 64.8 L132.4 65.0 Q134.3 65.05 134.3 66.6 L134.0 69.15 142.0 69.5 Q144.15 69.55 145.45 70.25 L147.0 71.0 Q146.2 72.45 144.1 73.55 142.1 74.6 142.0 75.0 141.45 76.95 140.8 77.65 140.15 78.35 136.0 79.0 L136.1 79.2" fill="#ff0000" fill-rule="evenodd" stroke="none"/>
    <path d="M136.1 79.2 L136.0 79.0 138.55 81.0 Q136.45 80.25 136.1 79.2" fill="#ff0000" fill-opacity="0.043137256" fill-rule="evenodd" stroke="none"/>
  </g>
</svg>
