<?xml version="1.0" encoding="UTF-8" standalone="no"?>
<svg xmlns:xlink="http://www.w3.org/1999/xlink" height="77.2px" width="87.0px" xmlns="http://www.w3.org/2000/svg">
  <g transform="matrix(1.0, 0.0, 0.0, 1.0, -1.0, -0.8)">
    <path d="M82.0 11.0 L86.85 23.05 87.0 24.0 87.1 24.95 Q87.65 27.15 86.0 27.0 L85.1 26.8 84.0 26.0 83.1 26.2 82.0 27.0 82.0 28.0 82.0 29.0 Q83.7 29.3 83.1 32.0 L83.0 33.0 83.0 34.0 Q84.25 36.25 84.9 39.0 L85.0 40.0 85.0 41.0 85.0 42.0 Q86.7 42.3 86.1 45.0 L86.0 46.0 Q87.7 46.8 87.5 50.0 L88.0 50.0 88.0 51.0 87.5 51.1 Q87.15 52.65 85.0 52.0 L84.9 53.0 Q84.3 56.3 82.0 58.0 L81.75 58.75 79.0 61.0 79.0 62.0 79.05 63.0 Q79.2 65.7 77.0 66.0 L76.75 66.8 Q69.15 75.65 54.0 77.0 L54.0 78.0 53.0 78.0 48.0 78.0 47.0 78.0 35.0 78.0 35.0 77.0 34.0 76.95 Q30.05 76.45 27.0 75.0 L26.0 75.0 25.0 75.0 24.05 74.85 Q17.4 72.6 13.0 68.0 L12.2 67.75 Q9.4 65.6 9.0 61.0 L8.25 60.75 Q8.0 60.5 8.0 60.0 L7.25 59.75 Q4.35 57.15 4.0 52.0 L3.45 51.9 Q3.1 50.4 1.0 51.0 L1.0 50.0 1.0 48.0 1.0 47.0 1.0 46.0 1.75 45.75 2.0 45.0 2.0 44.0 2.0 43.0 Q3.65 43.15 3.1 40.95 L3.0 40.0 3.0 39.0 Q4.65 39.15 4.1 36.95 L4.0 36.0 4.0 35.0 4.0 34.0 5.0 34.0 5.0 33.0 5.0 32.0 5.0 31.0 5.0 30.0 4.25 29.75 Q4.0 29.5 4.0 29.0 3.5 29.0 3.4 28.8 3.0 28.0 3.0 27.0 L2.0 27.0 1.4 26.8 Q1.0 26.0 1.0 25.0 L1.0 24.0 Q2.35 22.35 2.9 20.0 L3.0 19.0 3.0 18.0 Q5.0 16.0 5.5 12.05 L6.0 12.0 6.0 11.0 6.0 10.0 Q8.4 7.4 13.0 7.05 L14.0 7.0 14.0 6.0 Q17.95 4.95 21.1 3.2 L22.0 3.0 22.0 2.0 Q23.0 2.0 23.8 1.6 L24.0 1.0 Q26.15 0.35 26.05 2.0 L26.0 3.0 26.0 4.0 26.0 5.0 26.0 6.0 Q27.7 7.65 28.4 6.2 L29.0 6.0 30.0 6.0 31.0 6.0 31.0 5.0 33.0 5.0 34.0 5.0 34.0 4.0 35.0 4.0 36.0 4.0 37.0 4.0 38.0 4.0 38.0 3.0 49.95 3.5 50.0 4.0 51.0 4.0 54.9 4.45 55.0 5.0 57.85 5.45 58.0 6.0 Q59.65 6.15 59.5 4.0 L60.0 4.0 60.0 3.0 Q61.0 3.0 61.8 2.6 L62.0 2.0 62.0 1.0 Q67.9 2.6 72.8 5.4 73.0 5.5 73.0 6.0 78.75 6.75 81.75 10.2 L82.0 11.0" fill="#ff0000" fill-rule="evenodd" stroke="none"/>
  </g>
</svg>
