<?xml version="1.0" encoding="UTF-8" standalone="no"?>
<svg xmlns:xlink="http://www.w3.org/1999/xlink" height="86.2px" width="113.25px" xmlns="http://www.w3.org/2000/svg">
  <g transform="matrix(1.0, 0.0, 0.0, 1.0, -1.0, -1.0)">
    <path d="M82.0 6.0 L83.1 6.8 84.0 7.0 85.75 8.25 86.0 9.0 86.8 10.1 87.0 11.0 Q89.5 18.0 91.5 25.0 L91.0 25.0 90.0 25.0 89.0 25.0 88.75 25.75 88.0 26.0 87.75 26.75 86.0 28.0 86.0 33.0 86.0 34.0 86.0 35.0 86.0 36.0 Q86.95 37.05 87.0 39.0 L87.0 40.0 87.0 41.0 87.0 42.0 87.8 43.1 88.0 44.0 88.8 45.1 89.0 46.0 Q90.75 48.75 89.55 53.9 L89.0 54.0 88.9 55.0 Q88.5 57.0 87.0 58.0 L87.0 59.0 Q91.25 62.25 91.5 56.0 L92.0 56.0 93.0 56.0 93.0 55.0 99.95 55.5 100.0 56.0 104.0 56.0 105.0 56.0 105.0 55.0 105.0 54.0 108.9 54.45 109.0 55.0 Q109.8 57.2 112.95 57.5 L113.0 58.0 113.0 59.0 Q114.65 58.9 114.1 61.05 L114.0 62.0 113.75 62.75 112.0 64.0 111.75 64.85 Q110.55 66.55 108.0 67.0 L107.75 67.75 105.0 70.0 104.75 70.85 Q102.75 73.8 100.0 72.0 L99.05 71.85 Q97.3 71.2 97.0 69.0 L96.0 69.0 94.0 69.0 93.0 69.1 Q89.3 69.7 88.0 68.0 L87.0 68.05 Q85.4 68.15 86.0 66.0 L86.0 65.0 86.0 61.0 85.0 61.0 84.1 61.2 Q83.5 61.5 83.0 62.0 L83.0 63.0 82.9 64.0 Q82.25 67.75 79.0 69.0 L79.0 70.0 79.0 71.0 Q81.15 71.65 81.5 70.1 L82.0 70.0 82.75 70.25 83.0 71.0 84.8 71.4 Q85.0 71.5 85.0 72.0 87.0 73.0 88.75 74.3 L89.0 75.0 Q90.05 75.95 91.85 76.45 L92.0 77.0 Q96.55 79.0 92.9 80.8 L92.0 81.0 91.4 81.2 Q90.7 82.7 88.0 82.0 L87.9 82.55 Q85.2 83.2 83.0 84.0 L82.9 84.55 Q80.2 85.2 78.0 86.0 77.5 86.0 77.4 86.2 76.7 87.7 74.0 87.0 L73.25 86.75 Q73.0 86.5 73.0 86.0 L72.25 85.75 71.0 84.0 70.0 84.0 69.25 83.75 68.0 82.0 67.0 82.0 Q66.5 82.0 66.4 81.8 65.7 80.3 64.0 80.0 63.5 80.0 63.4 79.8 62.25 77.25 58.0 78.0 L57.0 78.0 56.75 78.75 56.0 79.0 56.1 80.0 Q56.7 83.7 55.0 85.0 L54.0 85.0 53.85 85.55 Q49.75 86.7 48.0 85.0 L48.0 84.0 48.0 80.0 48.0 79.5 Q42.25 79.75 39.0 78.0 L38.0 77.95 Q29.15 76.85 23.0 73.0 L22.0 73.0 Q21.5 73.0 21.15 72.8 17.45 70.55 15.0 67.0 L14.45 66.85 Q14.0 65.5 14.0 64.0 L13.4 63.8 Q13.0 63.0 13.0 62.0 L12.05 62.1 Q7.3 63.2 8.0 59.0 L7.45 58.9 6.0 54.0 5.75 53.2 Q4.0 51.0 4.0 47.0 L3.45 46.85 Q3.0 45.5 3.0 44.0 L2.45 43.85 Q2.0 42.5 2.0 41.0 L2.0 40.0 2.0 39.0 7.0 39.0 8.0 39.0 9.0 39.0 9.0 38.0 9.0 34.0 Q10.65 34.15 10.1 31.95 L10.0 31.0 9.8 30.1 9.0 29.0 8.85 29.55 6.0 30.0 5.15 29.75 Q4.0 29.0 3.0 28.0 L3.0 27.0 5.8 22.85 6.0 22.0 5.8 21.4 4.0 21.0 3.85 21.55 1.0 22.0 1.0 21.0 Q3.45 18.45 6.2 16.25 6.5 16.0 7.0 16.0 L7.0 15.0 Q8.7 13.7 8.5 10.0 L9.0 10.0 9.0 9.0 9.0 8.0 10.0 8.0 10.0 7.0 11.0 7.0 11.0 6.0 12.0 6.0 12.0 5.0 18.95 5.5 19.0 6.0 Q21.3 6.95 24.75 4.65 L25.0 4.0 25.0 3.0 Q32.8 1.3 30.8 6.3 30.5 7.0 31.0 8.0 L32.0 8.0 32.0 7.0 Q34.15 7.65 34.45 6.1 L35.0 6.0 Q38.35 6.35 40.15 5.25 L41.0 5.0 41.0 4.0 52.95 4.5 53.0 5.0 58.9 5.5 59.0 6.0 60.0 6.0 Q62.7 8.45 63.5 5.1 L64.0 5.0 64.0 4.0 Q66.15 4.65 66.5 3.1 L67.0 3.0 67.0 2.0 67.0 1.0 Q74.55 2.95 81.1 5.8 L82.0 6.0 M6.0 74.0 L6.0 73.0 Q12.95 74.05 18.85 76.45 L19.0 77.0 Q31.1 77.6 26.2 83.3 L25.55 84.0 25.0 84.5 25.0 84.0 24.05 84.1 Q21.9 84.65 22.0 83.0 L21.0 82.95 Q17.45 82.55 15.0 81.0 L14.0 80.95 Q10.45 80.55 8.0 79.0 L7.0 79.05 Q4.1 79.4 5.0 76.0 L5.75 75.75 6.0 75.0 6.0 74.0 M82.0 77.0 L81.0 77.0 76.0 77.0 75.05 77.15 73.0 78.0 73.0 79.0 73.0 80.0 73.75 80.25 74.0 81.0 75.0 81.0 76.0 81.0 Q80.75 81.75 83.15 80.2 L84.0 80.0 85.0 80.0 85.0 79.0 85.0 78.0 84.5 77.9 Q84.15 76.4 82.0 77.0" fill="#ff0000" fill-rule="evenodd" stroke="none"/>
  </g>
</svg>
