<?xml version="1.0" encoding="UTF-8" standalone="no"?>
<svg xmlns:xlink="http://www.w3.org/1999/xlink" height="84.0px" width="111.55px" xmlns="http://www.w3.org/2000/svg">
  <g transform="matrix(1.0, 0.0, 0.0, 1.0, -1.0, -1.0)">
    <path d="M86.25 30.25 Q86.0 30.5 86.0 31.0 86.15 36.35 86.9 41.0 L87.0 42.0 87.55 42.15 Q91.75 55.9 83.0 62.0 L83.0 63.0 82.9 63.95 Q81.75 68.25 78.0 70.0 83.65 70.2 88.75 74.3 L89.0 75.0 89.5 75.05 Q91.2 90.5 68.0 82.0 L67.15 81.75 Q58.6 76.0 49.0 85.0 L48.1 84.8 Q32.4 76.1 16.0 68.0 15.5 68.0 15.4 67.8 14.0 65.0 13.0 62.0 L12.0 62.0 Q6.95 62.05 7.0 57.0 L6.8 56.1 6.0 55.0 5.85 54.05 Q3.5 47.5 2.0 40.0 10.85 40.85 10.05 32.0 L10.0 31.0 10.0 30.5 6.0 30.0 5.25 29.75 Q5.0 29.5 5.0 29.0 L4.0 28.95 Q2.3 28.7 3.0 26.0 4.8 24.8 5.8 22.9 L6.0 22.0 6.0 21.5 Q2.8 22.75 1.0 21.0 L7.2 15.25 8.0 15.0 Q8.25 11.25 9.45 8.15 9.5 8.0 10.0 8.0 L10.0 7.0 Q12.7 4.2 18.9 5.5 L19.0 6.0 Q30.05 0.15 30.5 6.95 L31.0 7.0 Q42.05 3.55 58.95 5.5 L59.0 6.0 Q63.2 7.7 63.5 5.05 L64.0 5.0 64.0 4.0 Q66.15 4.65 66.5 3.1 L67.0 3.0 67.0 2.0 67.0 1.0 Q76.9 3.6 85.1 7.8 L86.0 8.0 Q94.85 21.5 86.25 30.25 M112.0 64.0 L111.75 64.7 Q106.55 69.05 101.0 73.0 L100.1 72.8 Q91.95 69.05 85.0 64.0 90.85 56.85 98.0 56.05 L99.0 56.0 Q113.45 49.8 112.5 63.95 L112.0 64.0 M5.0 75.0 Q17.4 72.2 27.75 81.3 L28.0 82.0 Q16.15 86.7 5.25 75.75 5.0 75.5 5.0 75.0" fill="#ff0000" fill-rule="evenodd" stroke="none"/>
  </g>
</svg>
