<?xml version="1.0" encoding="UTF-8" standalone="no"?>
<svg xmlns:xlink="http://www.w3.org/1999/xlink" height="16.0px" width="91.0px" xmlns="http://www.w3.org/2000/svg">
  <g transform="matrix(1.0, 0.0, 0.0, 1.0, 0.5, 0.5)">
    <path d="M88.6 0.0 Q90.0 0.0 90.0 1.0 L90.0 14.0 Q90.0 15.0 88.6 15.0 L1.4 15.0 Q0.0 15.0 0.0 14.0 L0.0 1.0 Q0.0 0.0 1.4 0.0 L88.6 0.0" fill="#ff0000" fill-rule="evenodd" stroke="none"/>
    <path d="M88.6 0.0 L1.4 0.0 Q0.0 0.0 0.0 1.0 L0.0 14.0 Q0.0 15.0 1.4 15.0 L88.6 15.0 Q90.0 15.0 90.0 14.0 L90.0 1.0 Q90.0 0.0 88.6 0.0 Z" fill="none" stroke="#000000" stroke-linecap="round" stroke-linejoin="round" stroke-width="1.0"/>
  </g>
</svg>
