<?xml version="1.0" encoding="UTF-8" standalone="no"?>
<svg xmlns:xlink="http://www.w3.org/1999/xlink" height="113.0px" width="104.0px" xmlns="http://www.w3.org/2000/svg">
  <g transform="matrix(1.0, 0.0, 0.0, 1.0, 0.0, -1.0)">
    <path d="M98.0 16.0 Q104.4 37.2 102.05 66.0 L102.0 67.0 Q105.55 71.8 102.15 83.05 102.0 83.5 102.0 84.0 L102.05 85.0 Q103.1 97.9 104.0 106.0 L103.8 106.6 Q95.05 110.55 86.0 114.0 L85.1 113.8 Q81.15 111.8 77.0 110.0 L76.75 109.3 Q74.35 107.15 78.0 102.0 L78.0 101.5 Q57.3 103.95 28.0 97.0 L28.2 97.9 Q34.0 110.35 22.0 112.0 L21.75 112.65 Q19.1 114.55 18.0 113.0 L17.1 112.8 Q9.0 109.0 1.0 105.0 L0.0 105.0 0.0 104.0 0.0 69.0 1.0 69.0 Q4.25 45.2 5.95 20.0 L6.0 19.0 Q16.05 8.55 32.05 4.15 L33.0 4.0 Q40.45 2.95 47.05 1.15 L48.0 1.0 58.0 1.0 59.0 1.0 60.0 1.0 Q66.4 3.6 75.0 4.0 L76.0 4.0 Q79.05 5.95 82.85 7.45 L83.0 8.0 Q91.6 10.4 97.25 15.75 L98.0 16.0" fill="#ff0000" fill-rule="evenodd" stroke="none"/>
  </g>
</svg>
