<?xml version="1.0" encoding="UTF-8" standalone="no"?>
<svg xmlns:xlink="http://www.w3.org/1999/xlink" height="122.0px" width="147.05px" xmlns="http://www.w3.org/2000/svg">
  <g transform="matrix(1.0, 0.0, 0.0, 1.0, -1.0, 0.0)">
    <path d="M133.0 46.0 Q133.5 46.0 133.8 46.25 139.45 50.55 146.0 54.0 L146.15 54.95 Q148.45 62.55 148.0 68.0 L147.8 68.65 Q130.8 79.1 115.0 77.0 L115.0 76.5 Q107.55 86.7 107.05 90.7 107.1 90.45 107.25 90.35 122.9 79.25 135.0 95.0 L134.9 96.0 Q133.1 104.6 128.0 110.0 L127.0 109.9 Q119.7 108.3 112.0 107.0 L111.0 107.05 Q106.2 107.7 108.0 115.0 L107.95 115.5 Q94.45 117.15 80.0 122.0 L79.15 121.8 75.0 119.0 74.45 118.85 Q71.95 111.35 75.0 104.0 L74.9 103.45 Q55.4 98.5 47.0 102.0 L47.15 102.95 Q50.7 112.2 37.5 113.0 L37.0 113.0 36.05 112.85 Q25.55 109.95 20.0 102.0 22.65 102.65 22.1 100.0 L22.0 99.0 21.9 98.0 Q20.7 92.3 14.0 92.0 L13.2 91.75 5.0 85.0 4.2 84.75 Q1.9 83.1 1.0 80.0 3.75 76.25 5.45 71.15 5.5 71.0 6.0 71.0 L6.0 70.0 6.0 68.0 Q8.0 65.0 10.3 62.25 10.5 62.0 11.0 62.0 22.65 64.0 23.95 52.0 L24.0 51.0 24.0 50.0 24.0 49.0 Q27.5 42.5 31.75 36.8 L32.0 36.0 32.0 35.0 32.0 30.0 Q34.2 28.7 34.05 25.0 L34.0 24.0 33.0 24.0 Q27.55 23.95 25.0 21.0 28.3 9.8 38.1 5.2 L39.0 5.0 39.0 4.0 66.0 2.0 67.0 2.0 67.0 1.0 67.75 0.75 68.0 0.0 77.0 0.0 78.0 0.0 Q81.9 1.1 85.1 2.8 L86.0 3.0 Q98.65 4.35 106.75 10.35 L107.0 11.0 107.9 11.2 Q124.4 18.3 112.0 25.0 L111.45 25.1 Q107.6 41.05 116.0 55.0 L117.0 54.95 Q128.8 54.3 133.0 46.0" fill="#ff0000" fill-rule="evenodd" stroke="none"/>
  </g>
</svg>
