<?xml version="1.0" encoding="UTF-8" standalone="no"?>
<svg xmlns:xlink="http://www.w3.org/1999/xlink" height="72.55px" width="136.0px" xmlns="http://www.w3.org/2000/svg">
  <g transform="matrix(1.0, 0.0, 0.0, 1.0, 0.0, -1.0)">
    <path d="M136.0 43.0 L136.0 49.0 Q134.0 49.0 127.55 52.65 116.15 59.05 100.65 65.9 89.75 70.75 87.15 73.0 86.55 73.55 86.35 73.55 L83.9 73.5 78.6 71.8 Q73.7 70.05 73.0 70.0 38.25 54.9 22.9 46.75 5.25 37.35 0.0 35.0 L0.0 30.0 Q3.65 30.15 8.8 26.45 14.35 22.4 18.0 22.0 L18.0 21.0 Q12.25 20.25 8.15 14.95 5.0 10.8 4.0 6.0 7.3 6.0 11.45 3.5 L15.0 1.0 Q17.3 1.0 19.5 2.35 L23.6 5.5 Q29.95 10.5 38.0 12.0 L52.15 5.1 Q54.4 4.0 55.0 4.0 59.3 4.0 79.0 15.0 98.65 26.0 101.0 26.0 L107.8 16.0 Q111.3 16.0 113.4 18.6 115.3 20.95 115.3 24.25 L115.0 27.0 116.0 27.0 Q115.65 23.9 115.95 23.1 116.4 22.0 120.0 22.0 123.3 22.0 126.55 32.0 128.3 37.35 129.0 38.9 130.45 42.0 132.0 42.0 L133.8 42.45 136.0 43.0" fill="#ff0000" fill-rule="evenodd" stroke="none"/>
  </g>
</svg>
