<?xml version="1.0" encoding="UTF-8" standalone="no"?>
<svg xmlns:xlink="http://www.w3.org/1999/xlink" height="86.0px" width="93.0px" xmlns="http://www.w3.org/2000/svg">
  <g transform="matrix(1.0, 0.0, 0.0, 1.0, -1.0, 0.0)">
    <path d="M92.35 41.85 Q89.25 45.05 86.2 48.8 83.0 52.75 74.6 57.1 66.1 61.4 64.0 64.0 66.4 65.65 67.15 68.8 L67.45 71.9 Q67.45 76.0 61.85 79.5 55.35 83.65 44.0 84.7 L44.0 86.0 30.0 86.0 30.0 84.95 18.5 82.0 Q12.45 80.4 9.3 78.9 1.0 75.0 1.0 66.0 1.0 63.5 4.75 61.05 7.05 59.6 13.0 56.95 19.05 54.25 21.25 52.8 25.0 50.4 25.0 48.0 23.25 46.95 21.5 44.5 18.0 39.55 18.0 32.5 18.0 30.4 27.0 23.55 L36.0 17.0 Q36.0 14.15 33.4 12.7 30.8 11.3 30.8 8.5 30.8 5.65 32.1 4.45 33.35 3.35 36.2 3.35 39.85 3.35 41.75 5.25 43.3 6.8 43.3 8.95 L43.1 12.0 43.05 14.85 43.6 15.05 44.35 15.1 46.0 15.0 Q45.2 5.6 48.0 1.9 49.35 0.0 51.0 0.0 55.2 0.0 57.0 3.0 58.1 4.8 58.1 6.8 58.1 9.95 56.6 10.6 54.45 11.0 53.0 12.0 L53.0 14.0 Q77.2 15.9 86.65 21.35 94.0 25.6 94.0 33.5 94.0 39.45 92.35 41.85" fill="#ff0000" fill-rule="evenodd" stroke="none"/>
  </g>
</svg>
