<?xml version="1.0" encoding="UTF-8" standalone="no"?>
<svg xmlns:xlink="http://www.w3.org/1999/xlink" height="160.15px" width="246.95px" xmlns="http://www.w3.org/2000/svg">
  <g transform="matrix(1.0, 0.0, 0.0, 1.0, -47.0, -166.0)">
    <path d="M178.5 195.8 Q178.95 197.05 179.4 197.1 184.7 198.2 183.3 196.75 180.0 193.25 178.0 193.0 178.0 194.5 178.5 195.8 M176.0 199.0 L176.0 198.0 176.0 194.0 Q178.35 181.35 186.0 174.0 L186.6 175.2 Q187.0 176.0 187.0 177.0 L187.1 178.0 Q187.9 182.9 185.0 184.0 185.3 185.7 188.0 185.1 L189.0 185.0 189.0 185.5 Q181.15 184.65 181.0 191.0 183.4 197.35 187.0 192.45 186.35 200.05 188.9 196.25 191.75 192.05 187.3 192.0 L188.95 189.0 Q190.25 186.25 194.0 186.0 L195.75 187.25 196.0 188.0 195.75 188.8 Q194.25 190.75 192.0 192.0 193.7 194.2 195.25 195.2 196.5 196.0 197.0 198.0 L196.8 198.9 195.0 202.0 195.8 203.1 196.0 204.0 195.1 204.2 Q186.1 208.0 194.0 217.0 L192.25 218.4 Q188.35 220.3 188.3 219.95 188.15 218.4 187.5 219.7 L185.0 225.0 184.15 225.25 Q179.1 228.95 173.0 242.0 174.7 245.45 174.5 249.0 L175.0 249.0 174.95 249.5 168.0 250.0 Q168.0 249.5 168.15 249.05 171.25 240.1 160.0 242.0 161.05 244.5 160.15 247.05 160.0 247.5 160.0 248.0 158.4 248.15 158.75 245.95 L158.9 244.5 Q154.2 244.25 146.0 247.0 L146.0 249.0 146.0 250.0 Q145.0 249.0 144.45 249.2 143.15 249.65 140.0 255.0 140.0 256.0 140.4 256.8 140.5 257.0 141.0 257.0 L141.0 258.0 140.0 258.0 139.0 258.0 138.0 257.95 Q136.3 257.7 136.0 256.0 L138.85 255.55 139.0 255.0 Q139.0 254.5 139.25 254.25 142.8 250.95 139.0 252.0 L138.95 251.0 Q138.5 245.3 136.0 246.0 137.85 249.8 136.5 253.0 L137.0 253.0 136.75 253.75 136.0 254.0 135.1 253.8 Q131.2 251.8 129.0 248.0 L129.75 247.75 130.0 247.0 130.1 246.05 Q131.4 241.1 130.0 234.0 132.15 234.65 132.05 233.0 L132.0 232.0 Q133.7 232.3 133.95 234.0 L134.0 235.0 Q135.1 242.15 137.5 238.0 L137.0 238.0 137.0 237.0 137.0 234.0 Q141.5 228.5 153.05 231.85 L154.0 232.0 Q154.0 232.5 153.8 232.6 148.65 234.85 141.0 235.0 142.35 244.8 154.6 240.8 L158.2 239.6 Q164.15 237.55 169.0 237.0 170.7 236.7 170.1 234.0 L170.0 233.0 171.0 233.0 Q171.05 242.75 172.6 231.95 174.25 220.1 176.45 216.25 180.35 209.6 174.0 204.0 L174.0 203.0 Q176.95 203.45 176.1 199.95 L176.0 199.0 M181.0 211.0 Q188.9 219.1 187.95 211.0 187.2 204.8 181.0 211.0 M179.0 200.0 Q180.55 204.45 185.8 203.7 188.95 203.2 179.0 200.0" fill="#3e4148" fill-opacity="0.99215686" fill-rule="evenodd" stroke="none"/>
    <path d="M178.5 195.8 Q178.0 194.5 178.0 193.0 180.0 193.25 183.3 196.75 184.7 198.2 179.4 197.1 178.95 197.05 178.5 195.8" fill="#6e767d" fill-rule="evenodd" stroke="none"/>
    <path d="M189.0 185.0 L188.0 185.1 Q185.3 185.7 185.0 184.0 187.9 182.9 187.1 178.0 L187.0 177.0 Q188.85 179.7 189.0 184.0 L189.0 185.0" fill="#1c1f24" fill-opacity="0.9019608" fill-rule="evenodd" stroke="none"/>
    <path d="M194.0 186.0 Q190.25 186.25 188.95 189.0 L187.3 192.0 187.0 192.0 187.0 192.45 Q183.4 197.35 181.0 191.0 181.15 184.65 189.0 185.5 L189.0 185.0 193.9 185.5 194.0 186.0" fill="#6c7482" fill-opacity="0.99215686" fill-rule="evenodd" stroke="none"/>
    <path d="M187.3 192.0 Q191.75 192.05 188.9 196.25 186.35 200.05 187.0 192.45 L187.0 192.0 187.3 192.0" fill="#222a2f" fill-rule="evenodd" stroke="none"/>
    <path d="M197.0 198.0 Q196.5 196.0 195.25 195.2 193.7 194.2 192.0 192.0 194.25 190.75 195.75 188.8 L196.0 188.0 Q199.15 190.35 198.1 197.0 L198.0 198.0 197.0 198.0" fill="#212529" fill-opacity="0.9019608" fill-rule="evenodd" stroke="none"/>
    <path d="M212.0 170.0 Q213.8 173.9 213.5 167.0 L213.0 167.0 213.0 166.0 Q218.9 168.1 219.95 175.0 L220.0 176.0 Q221.15 186.85 221.5 199.0 L222.0 199.0 Q223.85 203.15 224.9 208.0 L225.0 209.0 225.0 215.0 225.0 216.0 224.05 216.15 Q218.4 217.75 216.0 228.0 219.0 233.05 220.1 222.9 220.65 217.65 226.0 218.0 L228.75 215.75 229.0 215.0 229.5 215.05 Q232.25 235.85 222.0 251.0 218.0 252.8 215.05 252.6 205.9 252.0 207.5 255.25 208.7 257.7 207.7 257.0 205.75 255.6 204.0 260.0 203.25 267.4 207.0 262.0 L207.4 262.25 Q208.65 262.9 208.0 265.0 L207.95 266.0 Q207.75 269.75 205.0 271.0 L205.0 272.0 Q204.5 272.0 204.15 272.25 201.5 273.9 199.0 272.0 L198.85 271.05 Q197.1 265.1 192.0 262.0 194.45 267.05 197.35 271.8 L198.0 272.0 Q197.4 274.15 198.9 274.5 L199.0 275.0 Q203.4 281.3 204.5 284.5 L205.0 284.5 205.0 285.0 204.75 285.75 204.0 286.0 204.0 287.0 203.35 287.2 Q201.45 290.45 197.0 291.0 L196.1 291.2 193.0 293.0 Q194.75 294.7 199.0 294.05 L200.0 294.0 Q202.2 294.3 202.5 296.95 L203.0 297.0 Q203.0 299.0 202.4 299.2 194.4 301.9 188.0 305.0 L188.0 306.0 188.0 306.5 Q184.55 306.45 182.0 305.0 L181.0 305.0 180.0 305.0 179.0 305.0 176.0 305.0 176.0 307.0 176.0 308.0 176.0 309.0 176.0 310.0 175.0 310.0 175.0 311.0 174.0 311.0 169.0 311.0 168.1 310.8 Q167.5 310.5 167.0 310.0 173.8 311.1 170.65 306.25 170.5 306.0 170.0 306.0 170.0 305.5 170.2 305.4 172.25 304.5 170.0 304.0 L170.0 303.0 Q171.9 299.4 171.5 294.05 L171.0 294.0 169.5 293.0 165.0 305.0 Q164.5 304.5 164.5 304.0 L164.45 303.45 Q161.5 299.6 154.0 306.0 154.05 308.45 154.85 311.05 L155.0 312.0 154.4 312.2 Q152.75 315.1 149.0 313.0 L148.15 312.8 Q145.05 310.95 141.0 310.0 L141.0 309.5 Q138.3 309.7 138.0 308.0 L138.85 307.75 Q147.25 301.9 137.0 307.0 L137.0 308.0 136.25 307.75 Q134.7 306.3 131.0 307.0 L130.45 306.85 Q129.95 305.05 129.0 304.0 L129.5 304.0 Q129.7 299.35 128.0 296.0 131.4 294.4 131.95 290.0 L132.0 289.0 Q137.5 287.25 133.2 284.65 L133.0 284.0 Q133.0 283.5 133.25 283.3 138.25 279.35 133.0 277.0 139.3 274.95 139.1 278.35 139.8 274.95 142.0 276.0 141.45 279.55 144.0 279.9 L145.0 280.0 Q148.05 292.6 158.2 289.6 L158.65 289.4 Q163.3 286.8 164.9 279.4 165.15 278.15 166.05 276.05 L167.0 274.0 Q168.75 271.25 168.05 266.0 L168.0 265.0 Q170.0 263.5 172.15 262.2 L173.0 262.0 172.75 262.8 Q170.65 265.15 169.0 268.0 L169.0 272.0 169.0 273.0 168.95 274.0 Q166.9 290.05 159.0 296.0 167.3 295.95 170.15 285.05 171.25 280.85 178.4 284.1 179.7 284.7 178.6 282.15 L176.0 276.0 176.1 275.0 Q177.55 268.05 176.0 260.0 L176.0 259.0 Q184.9 256.2 182.2 250.9 L182.0 250.0 Q193.9 246.2 199.5 249.0 204.3 251.4 205.8 244.4 206.8 239.8 209.0 236.0 213.15 233.55 205.0 233.0 211.8 230.7 208.35 220.55 207.8 218.95 208.0 208.0 207.7 201.8 201.0 201.5 L201.0 201.0 201.0 200.0 201.0 199.0 Q203.0 197.0 203.5 193.05 L204.0 193.0 Q204.5 197.0 209.0 197.0 L210.0 197.0 Q212.45 198.5 214.75 195.8 L215.0 195.0 Q221.95 192.85 216.05 188.55 221.9 183.1 213.0 183.0 L212.75 182.35 Q210.45 180.8 209.0 182.0 L209.0 181.0 209.0 177.0 Q212.0 175.5 211.5 170.0 L212.0 170.0 M216.0 189.0 L215.5 189.0 216.0 188.55 216.0 189.0 M150.0 294.0 L150.1 294.55 Q161.4 297.5 150.0 294.0 M144.0 296.5 Q150.95 294.15 144.0 296.0 L144.0 296.5 M212.0 235.5 Q220.1 230.35 212.0 235.0 L212.0 235.5 M195.0 252.0 L195.1 252.55 Q209.9 256.2 195.0 252.0 M183.0 286.0 Q183.4 293.8 187.5 289.45 190.4 286.4 189.15 281.45 188.9 280.55 183.0 286.0" fill="#46474a" fill-opacity="0.99215686" fill-rule="evenodd" stroke="none"/>
    <path d="M213.0 167.0 L213.5 167.0 Q213.8 173.9 212.0 170.0 L212.0 169.0 212.0 168.0 212.75 167.75 213.0 167.0" fill="#707883" fill-opacity="0.91764706" fill-rule="evenodd" stroke="none"/>
    <path d="M209.0 182.0 Q210.45 180.8 212.75 182.35 L213.0 183.0 212.05 183.15 Q211.0 183.5 210.0 184.0 213.35 187.3 212.95 187.95 210.4 191.75 216.0 189.0 L216.0 188.55 216.0 188.5 216.05 188.55 Q221.95 192.85 215.0 195.0 L214.0 195.1 210.0 196.0 210.0 197.0 209.0 197.0 Q204.5 197.0 204.0 193.0 L204.0 192.0 Q207.05 188.05 208.85 182.95 L209.0 182.0" fill="#78808f" fill-opacity="0.9882353" fill-rule="evenodd" stroke="none"/>
    <path d="M213.0 183.0 Q221.9 183.1 216.05 188.55 L216.0 188.5 216.0 188.55 215.5 189.0 216.0 189.0 Q210.4 191.75 212.95 187.95 213.35 187.3 210.0 184.0 211.0 183.5 212.05 183.15 L213.0 183.0" fill="#676d7a" fill-rule="evenodd" stroke="none"/>
    <path d="M215.0 195.0 L214.75 195.8 Q212.45 198.5 210.0 197.0 L210.0 196.0 214.0 195.1 215.0 195.0" fill="#68717d" fill-rule="evenodd" stroke="none"/>
    <path d="M154.0 170.0 L153.45 169.85 Q153.0 168.5 153.0 167.0 156.1 167.9 157.75 170.2 L158.0 171.0 157.9 171.5 Q154.8 172.2 154.0 170.0" fill="#555b66" fill-opacity="0.8784314" fill-rule="evenodd" stroke="none"/>
    <path d="M154.0 170.0 Q154.8 172.2 157.9 171.5 L158.0 171.0 Q166.45 184.05 173.8 198.1 L174.0 199.0 174.0 202.0 174.0 203.0 173.3 202.75 Q169.95 198.95 164.0 201.0 168.65 201.35 170.4 204.8 170.5 205.0 171.0 205.0 L170.85 205.55 Q167.05 207.1 164.0 209.0 L163.85 208.05 Q157.6 190.4 154.0 170.0" fill="#3e424a" fill-opacity="0.93333334" fill-rule="evenodd" stroke="none"/>
    <path d="M149.0 223.0 L149.0 222.0 149.0 221.0 Q151.55 220.55 151.05 217.0 L151.0 216.0 Q151.5 216.5 152.1 216.8 L153.0 217.0 152.85 217.95 Q151.75 221.75 149.0 224.0 L149.0 223.0" fill="#4c463f" fill-opacity="0.98039216" fill-rule="evenodd" stroke="none"/>
    <path d="M174.0 204.0 Q180.35 209.6 176.45 216.25 174.25 220.1 172.6 231.95 171.05 242.75 171.0 233.0 L171.0 232.0 171.0 229.0 Q172.75 226.25 172.05 221.0 L172.0 220.0 172.55 217.65 Q170.95 221.45 161.0 221.0 165.0 223.45 169.0 223.05 L170.0 223.0 Q171.35 224.65 170.55 227.9 L170.0 228.0 169.75 227.35 Q166.4 225.1 164.0 231.0 164.0 232.0 164.4 232.8 164.5 233.0 165.0 233.0 L165.0 233.5 159.0 232.0 158.8 231.4 157.0 231.0 156.85 230.45 Q155.05 229.95 154.0 229.0 154.0 228.5 153.8 228.4 151.45 227.05 149.0 227.0 L149.0 226.0 149.0 225.0 149.0 224.0 Q151.75 221.75 152.85 217.95 L153.0 217.0 Q156.75 211.75 163.05 209.2 L164.0 209.0 Q167.05 207.1 170.85 205.55 L171.0 205.0 Q173.15 205.65 173.5 204.1 L174.0 204.0 M169.0 213.0 L169.0 213.5 Q174.55 211.95 169.0 213.0" fill="#878c94" fill-opacity="0.99607843" fill-rule="evenodd" stroke="none"/>
    <path d="M154.0 232.0 L153.05 231.85 Q141.5 228.5 137.0 234.0 L136.95 233.0 Q136.6 227.9 135.0 224.0 142.8 220.3 150.1 216.2 L151.0 216.0 151.05 217.0 Q151.55 220.55 149.0 221.0 L149.0 222.0 149.0 223.0 148.5 223.1 Q147.9 225.9 146.0 227.0 145.4 229.15 147.0 229.05 L148.0 229.0 Q149.85 232.65 152.75 229.75 L153.0 229.0 154.0 229.0 Q155.05 229.95 156.85 230.45 L157.0 231.0 156.0 231.0 154.0 231.0 154.0 232.0" fill="#7b7f8a" fill-opacity="0.9843137" fill-rule="evenodd" stroke="none"/>
    <path d="M132.0 232.0 L132.05 233.0 Q132.15 234.65 130.0 234.0 131.4 241.1 130.1 246.05 L130.0 247.0 129.25 246.75 128.0 245.0 128.05 244.0 Q128.3 239.2 124.0 239.0 L123.5 238.95 Q122.0 226.5 119.0 216.0 122.1 216.9 123.75 219.2 L124.0 220.0 Q123.65 225.35 128.0 225.95 L129.0 226.0 129.8 227.1 130.0 228.0 129.75 228.75 129.0 229.0 Q129.5 234.1 131.35 231.25 131.5 231.0 132.0 231.0 L132.0 232.0" fill="#4f555d" fill-opacity="0.92941177" fill-rule="evenodd" stroke="none"/>
    <path d="M130.0 228.0 L131.75 230.15 132.0 231.0 Q131.5 231.0 131.35 231.25 129.5 234.1 129.0 229.0 L129.75 228.75 130.0 228.0" fill="#3b3d48" fill-opacity="0.9019608" fill-rule="evenodd" stroke="none"/>
    <path d="M124.0 220.0 L128.75 225.25 129.0 226.0 128.0 225.95 Q123.65 225.35 124.0 220.0" fill="#373e49" fill-opacity="0.9019608" fill-rule="evenodd" stroke="none"/>
    <path d="M125.0 244.0 L124.9 243.0 124.0 239.0 Q128.3 239.2 128.05 244.0 L128.0 245.0 127.5 244.9 Q127.15 243.4 125.0 244.0" fill="#34393c" fill-opacity="0.9137255" fill-rule="evenodd" stroke="none"/>
    <path d="M130.0 247.0 L129.75 247.75 129.0 248.0 Q131.2 251.8 135.1 253.8 L136.0 254.0 Q135.9 255.65 138.05 255.1 L139.0 255.0 138.85 255.55 136.0 256.0 Q136.3 257.7 138.0 257.95 L139.0 258.0 138.75 258.75 138.0 259.0 137.05 259.1 Q133.5 260.05 133.0 264.0 L133.0 265.0 132.1 265.2 Q130.5 266.0 129.0 267.0 L129.0 268.0 128.75 268.7 Q125.45 271.45 123.0 275.0 119.1 272.95 118.6 272.5 113.25 268.25 117.05 271.95 120.35 275.15 119.45 276.7 116.65 281.8 107.0 281.0 L107.0 280.0 107.0 278.0 107.0 277.0 114.75 265.85 115.0 265.0 115.0 264.0 Q120.2 254.7 124.45 244.15 124.5 244.0 125.0 244.0 127.15 243.4 127.5 244.9 L128.0 245.0 129.25 246.75 130.0 247.0" fill="#62656c" fill-opacity="0.99215686" fill-rule="evenodd" stroke="none"/>
    <path d="M137.0 238.0 L137.5 238.0 Q135.1 242.15 134.0 235.0 135.5 236.0 136.4 237.8 L137.0 238.0" fill="#211b1e" fill-opacity="0.7490196" fill-rule="evenodd" stroke="none"/>
    <path d="M169.0 237.0 Q164.15 237.55 158.2 239.6 L154.6 240.8 Q142.35 244.8 141.0 235.0 148.65 234.85 153.8 232.6 154.0 232.5 154.0 232.0 L154.0 231.0 156.0 231.0 157.0 231.0 158.8 231.4 159.0 232.0 158.0 232.0 Q160.45 235.05 166.0 235.0 L167.0 235.0 168.75 236.25 169.0 237.0" fill="#757883" fill-rule="evenodd" stroke="none"/>
    <path d="M153.0 229.0 L152.05 229.1 Q148.6 229.95 149.0 227.0 151.45 227.05 153.8 228.4 154.0 228.5 154.0 229.0 L153.0 229.0" fill="#c3c3c0" fill-rule="evenodd" stroke="none"/>
    <path d="M149.0 227.0 Q148.6 229.95 152.05 229.1 L153.0 229.0 152.75 229.75 Q149.85 232.65 148.0 229.0 L148.0 228.0 148.0 226.0 149.0 226.0 149.0 227.0" fill="#76695a" fill-rule="evenodd" stroke="none"/>
    <path d="M171.0 233.0 L170.0 233.0 169.05 233.15 Q168.0 233.5 167.0 234.0 L167.0 235.0 166.0 235.0 Q160.45 235.05 158.0 232.0 L159.0 232.0 165.0 233.5 165.0 233.0 Q168.75 232.75 169.85 229.95 L170.0 229.0 171.0 229.0 171.0 232.0 171.0 233.0" fill="#322a22" fill-rule="evenodd" stroke="none"/>
    <path d="M149.0 223.0 L149.0 224.0 149.0 225.0 149.0 226.0 148.0 226.0 148.0 228.0 148.0 229.0 147.0 229.05 Q145.4 229.15 146.0 227.0 147.9 225.9 148.5 223.1 L149.0 223.0" fill="#382f23" fill-rule="evenodd" stroke="none"/>
    <path d="M146.0 250.0 L146.0 249.0 146.0 247.0 Q154.2 244.25 158.9 244.5 L158.75 245.95 Q158.4 248.15 160.0 248.0 161.85 250.65 167.0 250.05 L168.0 250.0 174.95 249.5 175.0 249.0 Q179.2 248.25 181.2 249.75 L182.0 250.0 182.2 250.9 Q184.9 256.2 176.0 259.0 L176.0 260.0 175.4 260.2 Q174.7 261.7 173.0 262.0 L172.15 262.2 Q170.0 263.5 168.0 265.0 L167.0 265.0 167.0 266.0 167.0 267.0 166.4 266.8 Q165.7 265.3 164.0 265.0 164.75 269.25 166.4 272.8 L167.0 273.0 167.0 274.0 Q164.1 274.1 163.35 276.15 157.05 292.95 145.0 280.0 L144.0 279.9 Q141.45 279.55 142.0 276.0 L141.75 275.25 Q137.25 270.6 127.0 280.0 L126.15 279.75 Q125.0 279.0 124.0 278.0 129.0 272.15 131.0 271.0 L130.85 269.9 Q130.65 267.9 129.0 268.0 L129.0 267.0 Q130.5 266.0 132.1 265.2 L133.0 265.0 133.75 265.25 134.0 266.0 Q136.1 271.2 139.75 266.8 L140.0 266.0 140.0 265.0 140.0 264.0 141.0 264.0 142.0 264.0 Q143.0 265.0 144.0 265.5 L144.0 265.0 145.75 263.75 146.0 263.0 Q146.5 263.0 146.75 263.25 L147.0 264.0 146.8 264.9 146.0 266.0 Q145.25 270.2 146.75 272.2 L147.0 273.0 146.75 273.75 146.0 274.0 Q146.2 279.35 150.85 277.55 L151.0 277.0 Q155.75 277.75 158.15 276.2 L159.0 276.0 Q161.55 275.55 162.75 273.85 L163.0 273.0 163.0 272.0 163.0 268.0 162.9 267.0 Q162.05 261.95 158.0 260.0 L157.75 259.2 Q156.7 257.8 154.0 258.0 L154.0 259.0 153.05 259.15 148.0 260.0 148.0 259.0 148.0 258.0 148.0 257.0 147.8 256.1 147.0 255.0 147.1 254.0 Q147.7 250.8 146.0 250.0 M154.0 252.0 L154.0 252.5 Q162.85 251.2 154.0 252.0 M150.0 255.0 L150.0 255.5 Q165.05 254.2 150.0 255.0 M167.5 257.25 Q170.9 250.5 165.0 254.0 164.35 256.65 166.5 257.4 167.3 257.7 167.5 257.25" fill="#c7cdc0" fill-rule="evenodd" stroke="none"/>
    <path d="M160.0 248.0 Q160.0 247.5 160.15 247.05 161.05 244.5 160.0 242.0 171.25 240.1 168.15 249.05 168.0 249.5 168.0 250.0 L167.0 250.05 Q161.85 250.65 160.0 248.0" fill="#1a1b1d" fill-rule="evenodd" stroke="none"/>
    <path d="M94.0 246.0 L93.95 247.0 Q93.7 248.7 92.0 249.0 92.3 250.7 95.0 250.1 L96.0 250.0 95.8 250.9 95.0 252.0 Q96.0 253.5 98.0 253.9 L99.0 254.0 98.75 254.85 Q94.0 261.55 91.0 256.0 L90.85 255.05 Q89.25 249.75 90.0 242.0 92.95 242.55 93.85 245.05 L94.0 246.0" fill="#4a5057" fill-opacity="0.9411765" fill-rule="evenodd" stroke="none"/>
    <path d="M96.0 250.0 L95.0 250.1 Q92.3 250.7 92.0 249.0 93.7 248.7 93.95 247.0 L94.0 246.0 95.8 249.1 96.0 250.0" fill="#2a2d30" fill-opacity="0.9019608" fill-rule="evenodd" stroke="none"/>
    <path d="M91.0 256.0 Q94.0 261.55 98.75 254.85 L99.0 254.0 100.0 254.0 Q102.0 255.5 103.75 257.25 L104.0 258.0 103.75 258.75 103.0 259.0 Q103.9 263.55 105.75 261.75 L106.0 261.0 Q109.75 271.15 114.3 265.25 114.5 265.0 115.0 265.0 L114.75 265.85 107.0 277.0 107.0 278.0 106.0 278.0 102.0 278.0 101.85 277.45 99.0 277.0 100.1 276.35 101.5 276.0 Q100.65 275.05 95.0 272.0 L94.9 271.5 Q93.4 271.15 94.0 269.0 94.5 269.0 94.7 268.75 97.05 266.05 93.0 262.0 L92.75 261.2 Q91.3 259.2 91.0 256.0 M103.5 266.8 Q104.65 266.15 103.25 265.45 100.1 263.85 96.0 263.0 97.8 270.25 103.5 266.8" fill="#484545" fill-opacity="0.98039216" fill-rule="evenodd" stroke="none"/>
    <path d="M104.0 258.0 Q105.7 258.3 105.95 260.0 L106.0 261.0 105.75 261.75 Q103.9 263.55 103.0 259.0 L103.75 258.75 104.0 258.0" fill="#1b1b23" fill-opacity="0.9372549" fill-rule="evenodd" stroke="none"/>
    <path d="M103.5 266.8 Q97.8 270.25 96.0 263.0 100.1 263.85 103.25 265.45 104.65 266.15 103.5 266.8" fill="#886951" fill-rule="evenodd" stroke="none"/>
    <path d="M99.0 254.0 L98.0 253.9 Q96.0 253.5 95.0 252.0 L95.8 250.9 96.0 250.0 99.75 253.25 100.0 254.0 99.0 254.0" fill="#2f3339" fill-opacity="0.9019608" fill-rule="evenodd" stroke="none"/>
    <path d="M93.0 262.0 Q97.05 266.05 94.7 268.75 94.5 269.0 94.0 269.0 L93.75 268.2 Q92.25 266.2 93.0 262.0" fill="#a66f44" fill-opacity="0.9098039" fill-rule="evenodd" stroke="none"/>
    <path d="M95.0 272.0 Q100.65 275.05 101.5 276.0 L100.1 276.35 99.0 277.0 98.0 277.0 Q90.95 276.95 86.0 279.0 86.0 278.5 86.25 278.15 87.45 276.5 86.0 275.0 L93.0 275.0 94.0 275.0 Q97.15 275.2 95.25 272.8 95.0 272.5 95.0 272.0" fill="#49372b" fill-opacity="0.8862745" fill-rule="evenodd" stroke="none"/>
    <path d="M99.0 277.0 L101.85 277.45 102.0 278.0 101.0 278.0 Q92.85 278.35 86.0 280.0 L86.0 279.0 Q90.95 276.95 98.0 277.0 L99.0 277.0" fill="#29180d" fill-opacity="0.49803922" fill-rule="evenodd" stroke="none"/>
    <path d="M94.0 275.0 L93.0 275.0 86.0 275.0 Q87.45 276.5 86.25 278.15 86.0 278.5 86.0 279.0 L86.0 280.0 85.5 280.1 Q85.15 281.65 83.0 281.0 L82.75 280.25 81.0 279.0 Q81.0 278.5 81.25 278.15 82.15 276.65 75.0 274.0 L87.95 273.6 Q92.2 273.25 94.0 275.0" fill="#15100e" fill-opacity="0.44313726" fill-rule="evenodd" stroke="none"/>
    <path d="M83.0 281.0 Q82.5 281.0 82.2 281.25 74.2 288.0 69.0 282.0 75.5 281.5 80.1 279.2 L81.0 279.0 82.75 280.25 83.0 281.0" fill="#1c1715" fill-opacity="0.49803922" fill-rule="evenodd" stroke="none"/>
    <path d="M87.0 288.0 L87.0 287.0 Q94.0 287.5 98.85 285.55 L99.0 285.0 Q100.05 285.95 101.85 286.45 L102.0 287.0 101.05 287.1 Q95.05 288.55 87.0 288.0" fill="#2f2926" fill-opacity="0.5882353" fill-rule="evenodd" stroke="none"/>
    <path d="M77.0 289.0 L85.0 289.0 86.0 289.0 85.9 289.5 80.0 290.0 79.05 290.1 Q76.9 290.65 77.0 289.0" fill="#201b19" fill-opacity="0.4392157" fill-rule="evenodd" stroke="none"/>
    <path d="M104.0 282.0 L107.0 282.5 107.0 282.0 107.8 283.1 108.0 284.0 Q108.8 285.7 112.0 285.5 L112.0 286.0 111.0 286.0 108.0 286.0 107.0 286.0 105.0 286.0 105.0 287.0 104.9 287.55 101.0 288.0 101.0 289.0 101.0 290.0 100.0 290.0 97.0 290.0 96.95 289.5 87.0 290.0 87.0 291.0 86.1 291.2 Q83.95 292.45 80.0 292.0 L80.0 291.0 80.0 290.0 85.9 289.5 86.0 289.0 86.0 288.0 87.0 288.0 Q95.05 288.55 101.05 287.1 L102.0 287.0 Q103.9 285.9 104.0 283.0 L104.0 282.0" fill="#4a3527" fill-opacity="0.9019608" fill-rule="evenodd" stroke="none"/>
    <path d="M90.0 295.0 L89.25 294.75 Q89.0 294.5 89.0 294.0 L92.25 291.25 Q92.5 291.0 93.0 291.0 L92.85 291.95 Q92.15 294.15 90.0 295.0" fill="#312a26" fill-opacity="0.6901961" fill-rule="evenodd" stroke="none"/>
    <path d="M87.0 291.0 L87.0 290.0 96.95 289.5 97.0 290.0 96.0 290.0 93.0 290.0 93.0 291.0 Q92.5 291.0 92.25 291.25 L89.0 294.0 Q89.0 294.5 89.25 294.75 L90.0 295.0 89.8 295.6 Q80.05 300.55 69.0 299.0 78.7 296.65 85.8 294.4 90.2 293.0 87.0 291.0" fill="#16110e" fill-opacity="0.49019608" fill-rule="evenodd" stroke="none"/>
    <path d="M101.0 290.0 L101.0 289.0 101.0 288.0 104.9 287.55 105.0 287.0 Q105.5 287.0 105.8 287.25 107.95 289.0 104.0 290.0 L103.0 290.0 101.0 290.0" fill="#2a201b" fill-opacity="0.6509804" fill-rule="evenodd" stroke="none"/>
    <path d="M99.0 285.0 L98.15 284.75 Q96.45 283.55 96.0 281.0 L103.95 281.5 104.0 282.0 104.0 283.0 Q103.9 285.9 102.0 287.0 L101.85 286.45 Q100.05 285.95 99.0 285.0" fill="#616164" fill-opacity="0.93333334" fill-rule="evenodd" stroke="none"/>
    <path d="M107.0 281.0 Q116.65 281.8 119.45 276.7 120.35 275.15 117.05 271.95 113.25 268.25 118.6 272.5 119.1 272.95 123.0 275.0 122.4 277.15 123.9 277.5 L124.0 278.0 Q125.0 279.0 126.15 279.75 L127.0 280.0 127.0 281.0 126.5 281.1 Q126.15 282.65 124.0 282.0 L124.0 283.0 123.95 284.0 Q123.2 292.45 115.0 292.0 121.3 294.6 116.95 295.85 L116.0 296.0 115.0 296.0 112.0 296.0 111.3 295.75 Q109.45 293.55 108.0 291.0 L108.0 290.0 108.0 288.0 Q114.55 288.6 114.1 286.95 L114.0 286.0 Q115.7 285.7 116.65 284.5 L117.0 284.0 Q114.45 282.45 108.0 284.0 L107.8 283.1 107.0 282.0 107.0 281.0 M110.0 290.0 L110.0 290.5 Q119.45 290.45 110.0 290.0" fill="#443d36" fill-opacity="0.99215686" fill-rule="evenodd" stroke="none"/>
    <path d="M112.0 286.0 L112.0 285.5 Q108.8 285.7 108.0 284.0 114.45 282.45 117.0 284.0 L116.65 284.5 Q115.7 285.7 114.0 286.0 L113.0 286.0 112.0 286.0" fill="#202726" fill-rule="evenodd" stroke="none"/>
    <path d="M110.0 290.0 Q119.45 290.45 110.0 290.5 L110.0 290.0" fill="#202929" fill-rule="evenodd" stroke="none"/>
    <path d="M105.0 287.0 L105.0 286.0 107.0 286.0 108.0 286.0 108.0 287.0 108.0 288.0 108.0 290.0 108.0 291.0 107.0 291.1 Q104.3 291.7 104.0 290.0 107.95 289.0 105.8 287.25 105.5 287.0 105.0 287.0" fill="#19120f" fill-opacity="0.49803922" fill-rule="evenodd" stroke="none"/>
    <path d="M108.0 286.0 L111.0 286.0 112.0 286.0 113.0 286.0 114.0 286.0 114.1 286.95 Q114.55 288.6 108.0 288.0 L108.0 287.0 108.0 286.0" fill="#a5632c" fill-rule="evenodd" stroke="none"/>
    <path d="M112.0 296.0 L115.0 296.0 116.0 296.0 Q115.35 298.65 118.0 298.5 L118.0 299.0 117.05 299.15 Q112.75 300.6 112.0 296.0" fill="#48260b" fill-opacity="0.54509807" fill-rule="evenodd" stroke="none"/>
    <path d="M132.0 289.0 L131.95 290.0 Q131.4 294.4 128.0 296.0 129.7 299.35 129.5 304.0 L129.0 304.0 128.0 304.0 127.2 303.75 Q124.85 301.65 121.0 301.0 L120.85 300.45 Q119.05 299.95 118.0 299.0 L118.0 298.5 Q115.35 298.65 116.0 296.0 L116.95 295.85 Q121.3 294.6 115.0 292.0 123.2 292.45 123.95 284.0 L124.0 283.0 Q130.8 284.15 131.85 288.05 L132.0 289.0" fill="#896145" fill-opacity="0.99215686" fill-rule="evenodd" stroke="none"/>
    <path d="M147.0 264.0 L146.75 263.25 Q146.5 263.0 146.0 263.0 L146.0 262.0 147.75 260.75 148.0 260.0 153.05 259.15 154.0 259.0 153.75 259.7 150.0 262.0 150.0 263.0 149.05 263.15 Q148.0 263.5 147.0 264.0" fill="#c8a67b" fill-rule="evenodd" stroke="none"/>
    <path d="M154.0 259.0 L154.0 258.0 Q156.7 257.8 157.75 259.2 L158.0 260.0 158.0 261.0 157.0 261.05 Q151.4 261.9 150.0 267.0 L150.0 275.0 150.0 276.0 149.25 275.75 Q149.0 275.5 149.0 275.0 L149.0 274.0 149.0 265.0 149.8 263.9 150.0 263.0 150.0 262.0 153.75 259.7 154.0 259.0" fill="#d3914c" fill-rule="evenodd" stroke="none"/>
    <path d="M154.0 252.0 Q162.85 251.2 154.0 252.5 L154.0 252.0" fill="#969b94" fill-rule="evenodd" stroke="none"/>
    <path d="M141.0 257.0 Q140.5 257.0 140.4 256.8 140.0 256.0 140.0 255.0 143.15 249.65 144.45 249.2 145.0 249.0 146.0 250.0 147.7 250.8 147.1 254.0 L147.0 255.0 Q146.5 255.0 146.3 255.25 145.2 256.7 142.0 256.0 L142.0 257.0 141.0 257.0" fill="#262325" fill-rule="evenodd" stroke="none"/>
    <path d="M142.0 257.0 L142.0 256.0 Q145.2 256.7 146.3 255.25 146.5 255.0 147.0 255.0 L147.8 256.1 148.0 257.0 147.0 257.0 142.0 257.0" fill="#797a75" fill-rule="evenodd" stroke="none"/>
    <path d="M146.0 263.0 L145.75 263.75 144.0 265.0 144.0 264.0 144.0 262.0 144.8 260.9 145.0 260.0 145.0 259.0 145.0 258.0 Q147.15 257.4 147.5 258.9 L148.0 259.0 148.0 260.0 147.75 260.75 146.0 262.0 146.0 263.0" fill="#746c5c" fill-rule="evenodd" stroke="none"/>
    <path d="M141.0 258.0 L141.0 257.0 142.0 257.0 147.0 257.0 148.0 257.0 148.0 258.0 148.0 259.0 147.5 258.9 Q147.15 257.4 145.0 258.0 L145.0 259.0 145.0 260.0 144.0 260.0 143.0 260.0 142.1 260.2 Q141.5 260.5 141.0 261.0 141.0 260.5 141.25 260.2 142.65 258.3 141.0 258.0" fill="#c4bc99" fill-rule="evenodd" stroke="none"/>
    <path d="M150.0 255.0 Q165.05 254.2 150.0 255.5 L150.0 255.0" fill="#f5faef" fill-rule="evenodd" stroke="none"/>
    <path d="M147.0 273.0 L146.75 272.2 Q145.25 270.2 146.0 266.0 L146.8 264.9 147.0 264.0 Q148.0 263.5 149.05 263.15 L150.0 263.0 149.8 263.9 149.0 265.0 149.0 274.0 149.0 275.0 148.5 275.0 Q148.65 272.9 147.0 273.0" fill="#fbcb79" fill-rule="evenodd" stroke="none"/>
    <path d="M144.0 265.0 L144.0 265.5 Q143.0 265.0 142.0 264.0 L142.0 263.0 Q143.65 263.15 143.1 260.95 L143.0 260.0 144.0 260.0 145.0 260.0 144.8 260.9 144.0 262.0 144.0 264.0 144.0 265.0" fill="#a29e88" fill-rule="evenodd" stroke="none"/>
    <path d="M142.0 264.0 L141.0 264.0 140.0 264.0 140.0 263.0 140.0 262.0 140.75 261.75 141.0 261.0 Q141.5 260.5 142.1 260.2 L143.0 260.0 143.1 260.95 Q143.65 263.15 142.0 263.0 L142.0 264.0" fill="#66471c" fill-rule="evenodd" stroke="none"/>
    <path d="M163.0 268.0 L163.0 272.0 163.0 273.0 162.05 272.85 160.0 272.0 159.75 271.25 Q157.5 269.05 155.0 271.0 L158.25 274.75 159.0 275.0 159.0 276.0 158.15 276.2 Q155.75 277.75 151.0 277.0 L150.75 276.25 150.0 276.0 150.0 275.0 150.0 267.0 Q151.4 261.9 157.0 261.05 L158.0 261.0 Q160.0 264.5 162.35 267.75 162.5 268.0 163.0 268.0 M151.0 269.0 Q152.2 274.3 153.35 267.7 154.1 263.55 151.0 269.0" fill="#865b31" fill-rule="evenodd" stroke="none"/>
    <path d="M160.0 272.0 L159.0 272.0 158.0 272.0 158.85 274.05 159.0 275.0 158.25 274.75 155.0 271.0 Q157.5 269.05 159.75 271.25 L160.0 272.0" fill="#c18f5d" fill-rule="evenodd" stroke="none"/>
    <path d="M158.0 260.0 Q162.05 261.95 162.9 267.0 L163.0 268.0 Q162.5 268.0 162.35 267.75 160.0 264.5 158.0 261.0 L158.0 260.0" fill="#f7d373" fill-rule="evenodd" stroke="none"/>
    <path d="M163.0 273.0 L162.75 273.85 Q161.55 275.55 159.0 276.0 L159.0 275.0 158.85 274.05 158.0 272.0 159.0 272.0 160.0 272.0 162.05 272.85 163.0 273.0" fill="#d5a270" fill-rule="evenodd" stroke="none"/>
    <path d="M151.0 269.0 Q154.1 263.55 153.35 267.7 152.2 274.3 151.0 269.0" fill="#583817" fill-rule="evenodd" stroke="none"/>
    <path d="M137.0 253.0 L136.5 253.0 Q137.85 249.8 136.0 246.0 138.5 245.3 138.95 251.0 L139.0 252.0 Q139.0 252.5 138.8 252.6 138.0 253.0 137.0 253.0" fill="#2a1f25" fill-rule="evenodd" stroke="none"/>
    <path d="M136.0 254.0 L136.75 253.75 137.0 253.0 Q138.0 253.0 138.8 252.6 139.0 252.5 139.0 252.0 142.8 250.95 139.25 254.25 139.0 254.5 139.0 255.0 L138.05 255.1 Q135.9 255.65 136.0 254.0" fill="#9f9c95" fill-rule="evenodd" stroke="none"/>
    <path d="M133.0 265.0 L133.0 264.0 Q133.5 260.05 137.05 259.1 L138.0 259.0 137.75 259.75 137.0 260.0 136.1 260.2 Q135.5 260.5 135.0 261.0 L135.0 265.0 135.0 266.0 134.0 266.0 133.75 265.25 133.0 265.0" fill="#c1a38a" fill-rule="evenodd" stroke="none"/>
    <path d="M139.0 258.0 L140.0 258.0 141.0 258.0 Q142.65 258.3 141.25 260.2 141.0 260.5 141.0 261.0 L140.75 261.75 140.0 262.0 139.15 261.75 137.0 260.0 137.75 259.75 138.0 259.0 138.75 258.75 139.0 258.0" fill="#faf9bd" fill-rule="evenodd" stroke="none"/>
    <path d="M123.0 275.0 Q125.45 271.45 128.75 268.7 L129.0 268.0 Q130.65 267.9 130.85 269.9 L131.0 271.0 Q129.0 272.15 124.0 278.0 L123.9 277.5 Q122.4 277.15 123.0 275.0" fill="#e1eadf" fill-rule="evenodd" stroke="none"/>
    <path d="M140.0 264.0 L140.0 265.0 140.0 266.0 Q139.5 266.0 139.25 266.25 137.35 268.1 135.0 266.0 L135.0 265.0 135.0 261.0 Q135.5 260.5 136.1 260.2 L137.0 260.0 139.15 261.75 140.0 262.0 140.0 263.0 140.0 264.0" fill="#f9d586" fill-rule="evenodd" stroke="none"/>
    <path d="M140.0 266.0 L139.75 266.8 Q136.1 271.2 134.0 266.0 L135.0 266.0 Q137.35 268.1 139.25 266.25 139.5 266.0 140.0 266.0" fill="#7c613f" fill-rule="evenodd" stroke="none"/>
    <path d="M142.0 276.0 Q139.8 274.95 139.1 278.35 139.3 274.95 133.0 277.0 138.25 279.35 133.25 283.3 133.0 283.5 133.0 284.0 L132.25 283.75 Q130.3 281.7 127.0 281.0 L127.0 280.0 Q137.25 270.6 141.75 275.25 L142.0 276.0" fill="#8a938a" fill-rule="evenodd" stroke="none"/>
    <path d="M133.0 284.0 L133.2 284.65 Q137.5 287.25 132.0 289.0 L131.85 288.05 Q130.8 284.15 124.0 283.0 L124.0 282.0 Q126.15 282.65 126.5 281.1 L127.0 281.0 Q130.3 281.7 132.25 283.75 L133.0 284.0" fill="#563b2b" fill-rule="evenodd" stroke="none"/>
    <path d="M151.0 277.0 L150.85 277.55 Q146.2 279.35 146.0 274.0 L146.75 273.75 147.0 273.0 Q148.65 272.9 148.5 275.0 L149.0 275.0 Q149.0 275.5 149.25 275.75 L150.0 276.0 150.75 276.25 151.0 277.0" fill="#f6f3d5" fill-rule="evenodd" stroke="none"/>
    <path d="M144.0 296.5 L144.0 296.0 Q150.95 294.15 144.0 296.5" fill="#6c767f" fill-rule="evenodd" stroke="none"/>
    <path d="M150.0 294.0 Q161.4 297.5 150.1 294.55 L150.0 294.0" fill="#6a7483" fill-rule="evenodd" stroke="none"/>
    <path d="M167.0 274.0 L166.05 276.05 Q165.15 278.15 164.9 279.4 163.3 286.8 158.65 289.4 L158.2 289.6 Q148.05 292.6 145.0 280.0 157.05 292.95 163.35 276.15 164.1 274.1 167.0 274.0" fill="#828980" fill-rule="evenodd" stroke="none"/>
    <path d="M54.0 280.5 L54.0 280.0 Q62.25 278.4 54.0 280.5" fill="#13100d" fill-opacity="0.39607844" fill-rule="evenodd" stroke="none"/>
    <path d="M52.0 288.0 L52.0 289.0 52.0 290.0 52.0 290.5 Q50.05 290.15 47.0 288.0 L51.0 288.0 52.0 288.0" fill="#110d0b" fill-opacity="0.30980393" fill-rule="evenodd" stroke="none"/>
    <path d="M80.0 290.0 L80.0 291.0 80.0 292.0 79.0 291.9 Q65.55 289.85 52.0 290.0 L52.0 289.0 52.0 288.0 Q67.5 288.0 69.9 287.5 72.6 286.95 77.0 289.0 76.9 290.65 79.05 290.1 L80.0 290.0" fill="#211916" fill-opacity="0.5411765" fill-rule="evenodd" stroke="none"/>
    <path d="M149.0 313.0 Q152.75 315.1 154.4 312.2 L155.0 312.0 Q155.5 311.5 156.1 311.2 L157.0 311.0 157.0 312.0 157.0 313.0 Q157.0 313.5 157.25 313.7 160.15 315.8 154.0 317.0 L153.75 316.3 Q152.4 315.1 146.0 314.0 L148.85 313.55 149.0 313.0" fill="#16100d" fill-opacity="0.44705883" fill-rule="evenodd" stroke="none"/>
    <path d="M167.0 310.0 Q167.5 310.5 168.1 310.8 L169.0 311.0 169.0 312.0 168.05 312.15 Q165.45 312.95 164.0 315.0 L163.8 314.15 Q161.5 310.3 157.0 313.0 L157.0 312.0 157.0 311.0 163.1 307.2 164.0 307.0 Q164.0 308.0 164.4 308.8 164.5 309.0 165.0 309.0 165.5 309.5 166.1 309.8 L167.0 310.0" fill="#2c190d" fill-opacity="0.47843137" fill-rule="evenodd" stroke="none"/>
    <path d="M154.0 317.0 Q160.15 315.8 157.25 313.7 157.0 313.5 157.0 313.0 161.5 310.3 163.8 314.15 L164.0 315.0 163.8 315.6 Q156.95 319.45 150.0 318.0 151.95 317.95 153.15 317.25 153.5 317.0 154.0 317.0" fill="#251b15" fill-opacity="0.62352943" fill-rule="evenodd" stroke="none"/>
    <path d="M155.0 312.0 L154.85 311.05 Q154.05 308.45 154.0 306.0 161.5 299.6 164.45 303.45 L164.5 304.0 Q164.5 304.5 165.0 305.0 L164.75 305.75 164.0 306.0 164.0 307.0 163.1 307.2 157.0 311.0 156.1 311.2 Q155.5 311.5 155.0 312.0" fill="#2e2b25" fill-opacity="0.9882353" fill-rule="evenodd" stroke="none"/>
    <path d="M137.0 308.0 L137.0 307.0 Q147.25 301.9 138.85 307.75 L138.0 308.0 137.0 308.0" fill="#697175" fill-opacity="0.99215686" fill-rule="evenodd" stroke="none"/>
    <path d="M138.0 308.0 Q138.3 309.7 141.0 309.5 L141.0 310.0 140.0 310.0 137.0 310.0 136.05 310.1 Q133.9 310.65 134.0 309.0 L136.85 308.55 137.0 308.0 138.0 308.0" fill="#201915" fill-opacity="0.6392157" fill-rule="evenodd" stroke="none"/>
    <path d="M131.0 307.0 Q134.7 306.3 136.25 307.75 L137.0 308.0 136.85 308.55 134.0 309.0 Q133.9 310.65 136.05 310.1 L137.0 310.0 Q137.15 311.65 136.35 312.4 131.6 317.05 130.0 313.0 130.0 312.5 130.25 312.15 132.7 308.4 128.0 310.0 L127.0 310.0 127.0 309.0 Q129.0 308.5 130.8 307.6 L131.0 307.0" fill="#1a120f" fill-opacity="0.39215687" fill-rule="evenodd" stroke="none"/>
    <path d="M128.0 304.0 L128.0 305.0 127.0 305.0 127.0 306.0 126.25 305.75 121.0 301.0 Q124.85 301.65 127.2 303.75 L128.0 304.0" fill="#1e140c" fill-opacity="0.42745098" fill-rule="evenodd" stroke="none"/>
    <path d="M128.0 305.0 Q128.0 305.5 128.25 305.7 129.9 307.0 127.0 308.0 L127.0 309.0 127.0 310.0 126.25 309.75 125.0 308.0 126.75 306.75 127.0 306.0 127.0 305.0 128.0 305.0" fill="#140f0c" fill-opacity="0.69411767" fill-rule="evenodd" stroke="none"/>
    <path d="M129.0 304.0 Q129.95 305.05 130.45 306.85 L131.0 307.0 130.8 307.6 Q129.0 308.5 127.0 309.0 L127.0 308.0 Q129.9 307.0 128.25 305.7 128.0 305.5 128.0 305.0 L128.0 304.0 129.0 304.0" fill="#49301e" fill-opacity="0.8745098" fill-rule="evenodd" stroke="none"/>
    <path d="M128.0 310.0 Q132.7 308.4 130.25 312.15 130.0 312.5 130.0 313.0 130.0 313.5 129.8 313.6 128.0 314.5 126.0 315.0 L126.0 314.5 Q125.0 314.5 124.0 315.0 L124.0 314.5 Q120.8 316.0 117.0 316.0 L117.0 317.0 116.5 317.1 Q116.15 318.65 114.0 318.0 L113.05 318.1 Q109.6 318.95 110.0 316.0 119.6 314.1 127.8 310.6 L128.0 310.0" fill="#231a16" fill-opacity="0.6" fill-rule="evenodd" stroke="none"/>
    <path d="M126.0 315.0 L125.8 315.9 Q124.9 317.9 122.0 318.0 L122.0 317.0 123.75 315.75 124.0 315.0 Q125.0 314.5 126.0 314.5 L126.0 315.0" fill="#2a1c13" fill-opacity="0.69411767" fill-rule="evenodd" stroke="none"/>
    <path d="M122.0 318.0 L121.9 318.5 Q116.45 319.5 117.0 317.0 L117.0 316.0 Q120.8 316.0 124.0 314.5 L124.0 315.0 123.75 315.75 122.0 317.0 122.0 318.0" fill="#110d0b" fill-opacity="0.42352942" fill-rule="evenodd" stroke="none"/>
    <path d="M130.0 317.0 Q146.5 314.5 130.0 317.5 L130.0 317.0" fill="#110e0c" fill-opacity="0.3529412" fill-rule="evenodd" stroke="none"/>
    <path d="M114.0 318.0 L113.85 318.55 Q105.1 321.45 106.0 316.0 L109.0 316.0 110.0 316.0 Q109.6 318.95 113.05 318.1 L114.0 318.0" fill="#0f0c0b" fill-opacity="0.34509805" fill-rule="evenodd" stroke="none"/>
    <path d="M93.0 318.5 L93.0 318.0 Q103.25 315.45 93.0 318.5" fill="#15100e" fill-opacity="0.34509805" fill-rule="evenodd" stroke="none"/>
    <path d="M268.0 206.0 Q268.0 206.5 268.25 206.75 272.85 211.15 265.0 217.0 266.35 222.35 272.0 217.5 L272.0 218.0 272.05 219.0 Q272.75 224.75 271.0 228.0 265.95 230.45 265.25 225.1 265.0 223.1 264.9 225.1 264.8 227.5 259.0 233.0 L267.95 233.5 268.0 234.0 267.85 234.95 Q265.55 241.05 262.0 246.0 L262.1 246.95 Q263.45 252.6 261.0 259.0 260.25 264.75 261.8 268.1 L262.0 269.0 263.25 270.75 264.0 271.0 Q264.0 272.0 264.4 272.8 264.5 273.0 265.0 273.0 266.2 275.7 265.25 276.35 265.0 276.5 265.0 277.0 L264.1 277.2 Q261.95 278.45 258.0 278.0 L257.85 277.45 Q252.35 275.65 247.0 278.0 L247.0 277.5 241.0 277.0 241.0 278.0 241.0 279.0 241.0 280.0 Q236.45 280.55 235.75 278.4 234.45 274.55 231.7 272.9 228.2 270.8 227.0 267.0 L227.0 266.0 227.0 263.0 Q231.3 260.8 235.05 261.85 L236.0 262.0 235.8 262.95 233.0 263.0 Q237.45 270.05 241.0 271.0 L241.85 269.45 Q244.85 263.95 245.85 271.75 246.6 277.1 247.0 272.0 251.7 269.05 250.65 260.4 L246.75 253.05 244.55 250.25 Q243.3 248.8 242.35 250.65 241.3 252.65 241.0 251.0 L241.0 250.0 241.0 248.0 Q252.15 225.15 267.3 206.25 267.5 206.0 268.0 206.0 M255.0 239.5 Q252.4 242.65 247.0 242.0 252.05 247.4 254.5 240.8 L255.0 239.5 M249.0 272.0 L249.1 272.5 Q257.65 274.1 249.0 272.0" fill="#3f3d3a" fill-opacity="0.98039216" fill-rule="evenodd" stroke="none"/>
    <path d="M272.0 218.0 L272.0 217.5 Q266.35 222.35 265.0 217.0 272.85 211.15 268.25 206.75 268.0 206.5 268.0 206.0 273.6 208.9 272.5 217.95 L272.0 218.0" fill="#1e2021" fill-opacity="0.9019608" fill-rule="evenodd" stroke="none"/>
    <path d="M255.0 239.5 L254.5 240.8 Q252.05 247.4 247.0 242.0 252.4 242.65 255.0 239.5" fill="#6b717c" fill-rule="evenodd" stroke="none"/>
    <path d="M268.0 234.0 L267.95 233.5 259.0 233.0 Q264.8 227.5 264.9 225.1 265.0 223.1 265.25 225.1 265.95 230.45 271.0 228.0 L270.85 228.95 Q269.95 231.95 268.0 234.0" fill="#202621" fill-opacity="0.94509804" fill-rule="evenodd" stroke="none"/>
    <path d="M272.0 262.0 L272.0 261.0 Q285.75 259.7 275.85 266.75 L275.0 267.0 275.0 266.5 Q272.3 266.7 272.0 265.0 L272.95 264.9 Q278.1 263.7 272.0 262.0" fill="#1c1715" fill-opacity="0.44705883" fill-rule="evenodd" stroke="none"/>
    <path d="M271.0 266.0 L270.45 265.9 Q270.0 264.0 270.0 262.0 L271.0 262.0 272.0 262.0 Q278.1 263.7 272.95 264.9 L272.0 265.0 271.0 265.0 271.0 266.0" fill="#0d0a08" fill-opacity="0.28235295" fill-rule="evenodd" stroke="none"/>
    <path d="M264.0 271.0 L263.25 270.75 262.0 269.0 270.85 266.55 271.0 266.0 271.0 265.0 272.0 265.0 Q272.3 266.7 275.0 266.5 L275.0 267.0 274.0 267.0 Q278.95 270.9 275.8 273.75 L275.0 274.0 274.85 273.45 Q272.8 272.75 272.0 271.0 L271.95 270.5 264.0 270.0 264.0 271.0" fill="#261f1c" fill-opacity="0.5294118" fill-rule="evenodd" stroke="none"/>
    <path d="M265.0 273.0 Q264.5 273.0 264.4 272.8 264.0 272.0 264.0 271.0 L264.0 270.0 271.95 270.5 272.0 271.0 271.9 271.95 Q271.5 273.45 270.0 271.0 269.5 271.0 269.3 271.25 267.9 272.9 265.0 273.0" fill="#090706" fill-opacity="0.26666668" fill-rule="evenodd" stroke="none"/>
    <path d="M265.0 277.0 Q265.0 276.5 265.25 276.35 266.2 275.7 265.0 273.0 267.9 272.9 269.3 271.25 269.5 271.0 270.0 271.0 269.1 274.9 273.0 274.5 L273.0 275.0 272.75 275.75 Q270.95 277.5 268.0 276.0 L268.0 277.0 268.0 278.0 267.05 277.85 Q266.0 277.5 265.0 277.0" fill="#201a18" fill-opacity="0.5764706" fill-rule="evenodd" stroke="none"/>
    <path d="M275.0 274.0 L274.1 274.2 Q273.5 274.5 273.0 275.0 L273.0 274.5 Q269.1 274.9 270.0 271.0 271.5 273.45 271.9 271.95 L272.0 271.0 Q272.8 272.75 274.85 273.45 L275.0 274.0" fill="#0e0c0b" fill-opacity="0.2901961" fill-rule="evenodd" stroke="none"/>
    <path d="M241.0 251.0 Q241.3 252.65 242.35 250.65 243.3 248.8 244.55 250.25 L246.75 253.05 250.65 260.4 Q251.7 269.05 247.0 272.0 246.6 277.1 245.85 271.75 244.85 263.95 241.85 269.45 L241.0 271.0 Q237.45 270.05 233.0 263.0 L235.8 262.95 236.0 262.0 236.0 261.0 Q236.2 257.65 233.0 256.0 235.9 255.0 234.25 253.7 234.0 253.5 234.0 253.0 L235.0 253.0 236.0 253.0 Q238.7 260.55 240.5 251.1 L241.0 251.0" fill="#2b1e16" fill-opacity="0.9411765" fill-rule="evenodd" stroke="none"/>
    <path d="M264.0 280.0 L263.1 280.2 Q259.45 281.9 257.0 280.0 L263.95 279.5 264.0 280.0" fill="#201107" fill-opacity="0.47058824" fill-rule="evenodd" stroke="none"/>
    <path d="M258.0 278.0 Q261.95 278.45 264.1 277.2 L265.0 277.0 Q266.0 277.5 267.05 277.85 L268.0 278.0 Q269.8 279.75 273.1 278.2 L274.0 278.0 273.75 278.75 273.0 279.0 Q274.45 280.5 273.25 282.15 273.0 282.5 273.0 283.0 L272.1 282.8 Q271.5 282.5 271.0 282.0 L270.05 281.85 264.0 280.0 263.95 279.5 257.0 280.0 256.0 280.0 256.0 279.0 257.1 278.2 258.0 278.0" fill="#2e1f15" fill-opacity="0.7411765" fill-rule="evenodd" stroke="none"/>
    <path d="M241.0 280.0 L241.0 279.0 Q244.7 279.7 246.25 278.25 246.5 278.0 247.0 278.0 252.35 275.65 257.85 277.45 L258.0 278.0 257.1 278.2 256.0 279.0 256.0 280.0 255.0 279.9 Q249.4 278.9 246.0 280.0 245.3 282.7 246.8 283.4 247.0 283.5 247.0 284.0 L247.0 284.5 245.0 284.0 244.3 283.75 Q243.0 282.1 241.0 284.0 L241.0 283.0 241.0 281.0 241.0 280.0" fill="#231810" fill-opacity="0.5882353" fill-rule="evenodd" stroke="none"/>
    <path d="M241.0 279.0 L241.0 278.0 241.0 277.0 247.0 277.5 247.0 278.0 Q246.5 278.0 246.25 278.25 244.7 279.7 241.0 279.0" fill="#26201a" fill-opacity="0.9019608" fill-rule="evenodd" stroke="none"/>
    <path d="M247.0 284.0 Q251.45 288.65 248.9 287.2 L248.0 287.0 247.8 286.4 246.0 286.0 246.0 287.0 245.45 286.85 Q245.0 285.5 245.0 284.0 L247.0 284.5 247.0 284.0" fill="#1d1917" fill-opacity="0.4509804" fill-rule="evenodd" stroke="none"/>
    <path d="M248.0 287.0 L247.5 287.0 Q250.95 295.35 245.0 295.0 248.7 292.5 246.2 287.9 L246.0 287.0 246.0 286.0 247.8 286.4 248.0 287.0" fill="#120e0c" fill-opacity="0.41960785" fill-rule="evenodd" stroke="none"/>
    <path d="M274.0 278.0 L276.85 278.45 277.0 279.0 Q277.0 279.5 276.8 279.6 276.0 280.0 275.0 280.0 L275.8 281.1 276.0 282.0 275.5 282.1 Q275.15 283.65 273.0 283.0 273.0 282.5 273.25 282.15 274.45 280.5 273.0 279.0 L273.75 278.75 274.0 278.0" fill="#4b3d35" fill-opacity="0.8392157" fill-rule="evenodd" stroke="none"/>
    <path d="M277.0 279.0 Q282.65 279.0 279.7 282.75 L279.0 283.0 Q278.5 283.0 278.3 283.25 276.3 285.65 276.0 282.0 L275.8 281.1 275.0 280.0 Q276.0 280.0 276.8 279.6 277.0 279.5 277.0 279.0" fill="#352f2c" fill-opacity="0.5294118" fill-rule="evenodd" stroke="none"/>
    <path d="M279.0 283.0 Q280.1 284.9 282.9 285.5 L283.0 286.0 282.85 286.55 280.0 287.0 279.1 286.8 Q273.55 284.15 270.0 283.0 L270.75 282.75 271.0 282.0 Q271.5 282.5 272.1 282.8 L273.0 283.0 Q275.15 283.65 275.5 282.1 L276.0 282.0 Q276.3 285.65 278.3 283.25 278.5 283.0 279.0 283.0" fill="#1b1614" fill-opacity="0.5921569" fill-rule="evenodd" stroke="none"/>
    <path d="M281.0 278.0 Q284.8 274.75 285.65 277.45 286.65 280.65 282.25 279.25 281.5 279.0 281.0 278.0" fill="#18120f" fill-opacity="0.3019608" fill-rule="evenodd" stroke="none"/>
    <path d="M283.0 286.0 Q284.5 286.0 285.2 286.75 286.2 287.8 292.15 289.5 L293.95 290.05 Q289.65 291.8 280.0 287.0 L282.85 286.55 283.0 286.0" fill="#171311" fill-opacity="0.42745098" fill-rule="evenodd" stroke="none"/>
    <path d="M249.0 272.0 Q257.65 274.1 249.1 272.5 L249.0 272.0" fill="#1a2020" fill-rule="evenodd" stroke="none"/>
    <path d="M208.0 265.0 Q208.65 262.9 207.4 262.25 L207.0 262.0 Q203.25 267.4 204.0 260.0 205.75 255.6 207.7 257.0 208.7 257.7 207.5 255.25 205.9 252.0 215.05 252.6 218.0 252.8 222.0 251.0 232.25 235.85 229.5 215.05 L229.0 215.0 229.0 214.0 Q233.7 213.3 233.05 218.0 L233.0 219.0 233.0 226.0 233.0 227.0 233.2 227.85 Q237.25 234.65 231.0 237.0 233.05 244.95 235.85 252.05 L236.0 253.0 235.0 253.0 234.0 253.0 Q234.15 251.4 232.6 250.7 231.7 250.3 231.5 250.7 227.35 259.85 221.0 266.0 L221.0 267.0 221.0 268.0 221.0 268.5 Q216.35 267.05 212.0 270.0 L211.5 270.0 Q217.2 259.15 208.0 265.0" fill="#2b2421" fill-opacity="0.98039216" fill-rule="evenodd" stroke="none"/>
    <path d="M225.0 216.0 L225.0 215.0 225.0 209.0 Q226.75 211.25 226.05 216.0 L226.0 217.0 225.25 216.75 225.0 216.0" fill="#111417" fill-opacity="0.5058824" fill-rule="evenodd" stroke="none"/>
    <path d="M226.0 218.0 Q220.65 217.65 220.1 222.9 219.0 233.05 216.0 228.0 218.4 217.75 224.05 216.15 L225.0 216.0 225.25 216.75 226.0 217.0 226.0 218.0" fill="#1f2122" fill-opacity="0.99607843" fill-rule="evenodd" stroke="none"/>
    <path d="M175.0 249.0 L174.5 249.0 Q174.7 245.45 173.0 242.0 179.1 228.95 184.15 225.25 L185.0 225.0 187.5 219.7 Q188.15 218.4 188.3 219.95 188.35 220.3 192.25 218.4 L194.0 217.0 Q186.1 208.0 195.1 204.2 L196.0 204.0 Q196.0 204.5 196.25 204.75 L197.0 205.0 Q200.75 210.9 200.5 201.0 L201.0 201.0 201.0 201.5 Q207.7 201.8 208.0 208.0 207.8 218.95 208.35 220.55 211.8 230.7 205.0 233.0 213.15 233.55 209.0 236.0 206.8 239.8 205.8 244.4 204.3 251.4 199.5 249.0 193.9 246.2 182.0 250.0 L181.2 249.75 Q179.2 248.25 175.0 249.0" fill="#222224" fill-opacity="0.99607843" fill-rule="evenodd" stroke="none"/>
    <path d="M222.0 199.0 L221.5 199.0 Q221.15 186.85 220.0 176.0 223.05 184.95 222.05 198.0 L222.0 199.0" fill="#171b1d" fill-opacity="0.62352943" fill-rule="evenodd" stroke="none"/>
    <path d="M212.0 235.5 L212.0 235.0 Q220.1 230.35 212.0 235.5" fill="#6e7580" fill-rule="evenodd" stroke="none"/>
    <path d="M233.0 219.0 Q234.75 221.75 233.55 226.9 L233.0 227.0 233.0 226.0 233.0 219.0" fill="#0e1111" fill-opacity="0.4392157" fill-rule="evenodd" stroke="none"/>
    <path d="M196.0 204.0 L195.8 203.1 195.0 202.0 196.8 198.9 197.0 198.0 198.0 198.0 197.8 198.9 197.0 200.0 197.0 204.0 197.0 205.0 196.25 204.75 Q196.0 204.5 196.0 204.0" fill="#191c1d" fill-opacity="0.7176471" fill-rule="evenodd" stroke="none"/>
    <path d="M176.0 199.0 L176.1 199.95 Q176.95 203.45 174.0 203.0 L174.0 202.0 174.0 199.0 175.0 199.0 176.0 199.0" fill="#1b1b1f" fill-opacity="0.9019608" fill-rule="evenodd" stroke="none"/>
    <path d="M174.0 203.0 L174.0 204.0 173.5 204.1 Q173.15 205.65 171.0 205.0 170.5 205.0 170.4 204.8 168.65 201.35 164.0 201.0 169.95 198.95 173.3 202.75 L174.0 203.0" fill="#272930" fill-rule="evenodd" stroke="none"/>
    <path d="M169.0 213.0 Q174.55 211.95 169.0 213.5 L169.0 213.0" fill="#c0c0c0" fill-rule="evenodd" stroke="none"/>
    <path d="M170.0 223.0 L169.0 223.05 Q165.0 223.45 161.0 221.0 170.95 221.45 172.55 217.65 L172.0 220.0 171.5 220.0 Q171.65 222.15 170.0 222.0 L170.0 223.0" fill="#675848" fill-rule="evenodd" stroke="none"/>
    <path d="M170.0 228.0 L170.55 227.9 Q171.35 224.65 170.0 223.0 L170.0 222.0 Q171.65 222.15 171.5 220.0 L172.0 220.0 172.05 221.0 Q172.75 226.25 171.0 229.0 L170.0 229.0 170.0 228.0" fill="#51422c" fill-rule="evenodd" stroke="none"/>
    <path d="M165.0 233.0 Q164.5 233.0 164.4 232.8 164.0 232.0 164.0 231.0 166.4 225.1 169.75 227.35 L170.0 228.0 170.0 229.0 169.15 229.2 Q167.0 230.5 165.0 232.0 L165.0 233.0" fill="#bfc1c1" fill-rule="evenodd" stroke="none"/>
    <path d="M165.0 233.0 L165.0 232.0 Q167.0 230.5 169.15 229.2 L170.0 229.0 169.85 229.95 Q168.75 232.75 165.0 233.0" fill="#6f7075" fill-rule="evenodd" stroke="none"/>
    <path d="M170.0 233.0 L170.1 234.0 Q170.7 236.7 169.0 237.0 L168.75 236.25 167.0 235.0 167.0 234.0 Q168.0 233.5 169.05 233.15 L170.0 233.0" fill="#0f0502" fill-rule="evenodd" stroke="none"/>
    <path d="M179.0 200.0 Q188.95 203.2 185.8 203.7 180.55 204.45 179.0 200.0" fill="#221b19" fill-rule="evenodd" stroke="none"/>
    <path d="M181.0 211.0 Q187.2 204.8 187.95 211.0 188.9 219.1 181.0 211.0" fill="#22282b" fill-rule="evenodd" stroke="none"/>
    <path d="M198.0 272.0 L197.35 271.8 Q194.45 267.05 192.0 262.0 197.1 265.1 198.85 271.05 L199.0 272.0 198.0 272.0" fill="#371b0b" fill-rule="evenodd" stroke="none"/>
    <path d="M199.0 275.0 L198.9 274.5 Q197.4 274.15 198.0 272.0 L199.0 272.0 Q201.5 273.9 204.15 272.25 204.5 272.0 205.0 272.0 205.0 272.5 204.8 272.6 202.0 274.0 199.0 275.0" fill="#944811" fill-rule="evenodd" stroke="none"/>
    <path d="M195.0 252.0 Q209.9 256.2 195.1 252.55 L195.0 252.0" fill="#1e1711" fill-rule="evenodd" stroke="none"/>
    <path d="M167.5 257.25 Q167.3 257.7 166.5 257.4 164.35 256.65 165.0 254.0 170.9 250.5 167.5 257.25" fill="#9da19a" fill-rule="evenodd" stroke="none"/>
    <path d="M168.0 265.0 L168.05 266.0 Q168.75 271.25 167.0 274.0 L167.0 273.0 167.0 272.0 167.0 267.0 167.0 266.0 167.0 265.0 168.0 265.0" fill="#77877e" fill-rule="evenodd" stroke="none"/>
    <path d="M167.0 267.0 L167.0 272.0 167.0 273.0 166.4 272.8 Q164.75 269.25 164.0 265.0 165.7 265.3 166.4 266.8 L167.0 267.0" fill="#97a397" fill-rule="evenodd" stroke="none"/>
    <path d="M176.0 260.0 Q177.55 268.05 176.1 275.0 L176.0 276.0 175.0 276.1 Q172.4 276.6 169.0 273.0 L169.0 272.0 169.0 268.0 Q170.65 265.15 172.75 262.8 L173.0 262.0 Q174.7 261.7 175.4 260.2 L176.0 260.0" fill="#2e1811" fill-rule="evenodd" stroke="none"/>
    <path d="M176.0 276.0 L178.6 282.15 Q179.7 284.7 178.4 284.1 171.25 280.85 170.15 285.05 167.3 295.95 159.0 296.0 166.9 290.05 168.95 274.0 L169.0 273.0 Q172.4 276.6 175.0 276.1 L176.0 276.0" fill="#773a15" fill-rule="evenodd" stroke="none"/>
    <path d="M165.0 305.0 L169.5 293.0 171.0 294.0 170.85 294.95 Q169.65 298.15 168.0 301.0 L168.0 303.0 168.0 304.0 167.75 304.75 165.0 307.0 165.0 308.0 165.0 309.0 Q164.5 309.0 164.4 308.8 164.0 308.0 164.0 307.0 L164.0 306.0 164.75 305.75 165.0 305.0" fill="#2d2622" fill-opacity="0.92941177" fill-rule="evenodd" stroke="none"/>
    <path d="M171.0 294.0 L171.5 294.05 Q171.9 299.4 170.0 303.0 L170.0 304.0 169.0 304.0 168.0 304.0 168.0 303.0 168.0 301.0 Q169.65 298.15 170.85 294.95 L171.0 294.0" fill="#a15925" fill-opacity="0.99607843" fill-rule="evenodd" stroke="none"/>
    <path d="M183.0 286.0 Q188.9 280.55 189.15 281.45 190.4 286.4 187.5 289.45 183.4 293.8 183.0 286.0" fill="#7a7e8c" fill-rule="evenodd" stroke="none"/>
    <path d="M200.0 294.0 L199.0 294.05 Q194.75 294.7 193.0 293.0 L196.1 291.2 197.0 291.0 196.75 291.75 196.0 292.0 Q196.8 293.7 200.0 293.5 L200.0 294.0" fill="#6d421e" fill-opacity="0.88235295" fill-rule="evenodd" stroke="none"/>
    <path d="M203.0 297.0 L202.5 296.95 Q202.2 294.3 200.0 294.0 L200.0 293.5 Q196.8 293.7 196.0 292.0 L196.75 291.75 197.0 291.0 Q201.45 290.45 203.35 287.2 L204.0 287.0 Q212.6 285.6 222.5 286.5 226.65 287.25 224.0 284.0 L225.0 284.0 231.05 284.15 232.0 284.0 Q232.0 284.5 232.25 284.75 L233.0 285.0 Q234.65 287.1 237.15 285.25 237.5 285.0 238.0 285.0 L237.75 285.75 Q225.5 298.5 203.0 296.0 L203.0 297.0" fill="#391c06" fill-opacity="0.39607844" fill-rule="evenodd" stroke="none"/>
    <path d="M236.0 262.0 L235.05 261.85 Q231.3 260.8 227.0 263.0 L227.0 266.0 227.0 267.0 Q226.5 267.0 226.35 267.2 223.55 271.9 221.0 268.0 L221.0 267.0 221.0 266.0 Q227.35 259.85 231.5 250.7 231.7 250.3 232.6 250.7 234.15 251.4 234.0 253.0 234.0 253.5 234.25 253.7 235.9 255.0 233.0 256.0 236.2 257.65 236.0 261.0 L236.0 262.0" fill="#8b4619" fill-opacity="0.99607843" fill-rule="evenodd" stroke="none"/>
    <path d="M205.0 285.0 L205.0 284.5 204.5 284.5 Q203.4 281.3 199.0 275.0 202.0 274.0 204.8 272.6 205.0 272.5 205.0 272.0 209.3 269.05 212.0 270.5 L212.0 270.0 Q216.35 267.05 221.0 268.5 L221.0 268.0 Q223.55 271.9 226.35 267.2 226.5 267.0 227.0 267.0 228.2 270.8 231.7 272.9 234.45 274.55 235.75 278.4 236.45 280.55 241.0 280.0 L241.0 281.0 240.0 281.1 Q235.5 282.0 233.0 285.0 L232.25 284.75 Q232.0 284.5 232.0 284.0 L231.75 283.15 Q230.55 281.45 229.0 280.0 L229.0 279.0 Q228.7 271.95 226.0 277.0 226.65 274.9 225.75 274.15 L225.0 273.5 Q220.6 274.15 213.0 278.0 L212.8 277.4 Q210.65 276.35 210.0 274.0 209.45 279.1 210.8 282.1 L211.0 283.0 Q210.5 283.0 210.25 283.25 208.45 284.95 205.0 285.0" fill="#a4683d" fill-opacity="0.99607843" fill-rule="evenodd" stroke="none"/>
    <path d="M205.0 272.0 L205.0 271.0 Q207.75 269.75 207.95 266.0 L208.0 265.0 Q217.2 259.15 211.5 270.0 L212.0 270.0 212.0 270.5 Q209.3 269.05 205.0 272.0" fill="#794220" fill-rule="evenodd" stroke="none"/>
    <path d="M213.0 278.0 Q220.6 274.15 225.0 273.5 L225.75 274.15 Q226.65 274.9 226.0 277.0 L226.0 279.0 226.0 280.0 225.75 280.75 225.0 281.0 225.0 283.0 225.0 284.0 224.0 284.0 223.0 283.9 214.0 283.0 214.2 282.1 Q215.0 280.45 213.0 278.0" fill="#43372b" fill-opacity="0.99607843" fill-rule="evenodd" stroke="none"/>
    <path d="M211.0 283.0 L210.8 282.1 Q209.45 279.1 210.0 274.0 210.65 276.35 212.8 277.4 L213.0 278.0 Q215.0 280.45 214.2 282.1 L214.0 283.0 213.0 283.0 211.0 283.0" fill="#533c27" fill-opacity="0.99607843" fill-rule="evenodd" stroke="none"/>
    <path d="M204.0 287.0 L204.0 286.0 204.75 285.75 205.0 285.0 Q208.45 284.95 210.25 283.25 210.5 283.0 211.0 283.0 L213.0 283.0 214.0 283.0 223.0 283.9 224.0 284.0 Q226.65 287.25 222.5 286.5 212.6 285.6 204.0 287.0" fill="#5f320e" fill-opacity="0.7254902" fill-rule="evenodd" stroke="none"/>
    <path d="M241.0 284.0 L240.5 284.1 Q240.15 285.65 238.0 285.0 237.5 285.0 237.15 285.25 234.65 287.1 233.0 285.0 235.5 282.0 240.0 281.1 L241.0 281.0 241.0 283.0 241.0 284.0" fill="#454440" fill-opacity="0.92941177" fill-rule="evenodd" stroke="none"/>
    <path d="M226.0 277.0 Q228.7 271.95 229.0 279.0 L229.0 280.0 228.9 280.55 Q227.05 280.95 226.0 280.0 L226.0 279.0 226.0 277.0" fill="#d36814" fill-opacity="0.99607843" fill-rule="evenodd" stroke="none"/>
    <path d="M229.0 280.0 Q230.55 281.45 231.75 283.15 L232.0 284.0 231.05 284.15 225.0 284.0 225.0 283.0 225.0 281.0 225.75 280.75 226.0 280.0 Q227.05 280.95 228.9 280.55 L229.0 280.0" fill="#643512" fill-opacity="0.84705883" fill-rule="evenodd" stroke="none"/>
    <path d="M195.0 309.0 L194.5 309.0 Q198.3 305.6 194.0 306.0 L194.0 305.0 Q202.55 305.45 195.15 308.45 195.0 308.5 195.0 309.0" fill="#302b29" fill-opacity="0.53333336" fill-rule="evenodd" stroke="none"/>
    <path d="M182.0 305.0 Q184.55 306.45 188.0 306.5 L188.0 306.0 Q190.75 308.2 193.2 306.25 L194.0 306.0 Q198.3 305.6 194.5 309.0 L195.0 309.0 Q200.25 310.25 196.1 310.05 L181.0 308.0 181.0 307.0 181.0 306.0 181.75 305.75 182.0 305.0" fill="#38271e" fill-opacity="0.7882353" fill-rule="evenodd" stroke="none"/>
    <path d="M201.0 303.0 Q209.75 300.55 201.0 303.5 L201.0 303.0" fill="#13100d" fill-opacity="0.3372549" fill-rule="evenodd" stroke="none"/>
    <path d="M189.05 320.2 Q183.2 327.1 179.0 326.0 L190.05 319.05 189.05 320.2" fill="#130f0d" fill-opacity="0.4" fill-rule="evenodd" stroke="none"/>
    <path d="M176.0 310.0 L176.0 309.0 176.0 308.0 Q178.9 307.9 179.8 305.9 L180.0 305.0 181.0 305.0 182.0 305.0 181.75 305.75 181.0 306.0 181.0 307.0 181.0 308.0 180.05 308.15 Q179.0 308.5 178.0 309.0 L178.0 310.0 178.0 311.0 177.1 310.8 176.0 310.0" fill="#211d1b" fill-opacity="0.47843137" fill-rule="evenodd" stroke="none"/>
    <path d="M176.0 308.0 L176.0 307.0 176.0 305.0 179.0 305.0 180.0 305.0 179.8 305.9 Q178.9 307.9 176.0 308.0" fill="#040403" fill-opacity="0.19607843" fill-rule="evenodd" stroke="none"/>
    <path d="M170.0 304.0 Q172.25 304.5 170.2 305.4 170.0 305.5 170.0 306.0 L169.45 306.15 Q168.7 308.2 166.0 308.0 L166.8 309.1 167.0 310.0 166.1 309.8 Q165.5 309.5 165.0 309.0 L165.0 308.0 165.0 307.0 167.75 304.75 168.0 304.0 169.0 304.0 170.0 304.0" fill="#7e828d" fill-opacity="0.972549" fill-rule="evenodd" stroke="none"/>
    <path d="M170.0 306.0 Q170.5 306.0 170.65 306.25 173.8 311.1 167.0 310.0 L166.8 309.1 166.0 308.0 Q168.7 308.2 169.45 306.15 L170.0 306.0" fill="#8d96a5" fill-opacity="0.99607843" fill-rule="evenodd" stroke="none"/>
    <path d="M169.0 311.0 L174.0 311.0 175.0 311.0 174.95 312.0 Q174.75 315.75 172.0 317.0 172.0 316.5 172.25 316.2 176.05 311.0 169.0 312.0 L169.0 311.0" fill="#0f0c0a" fill-opacity="0.44705883" fill-rule="evenodd" stroke="none"/>
    <path d="M174.0 318.0 L173.9 318.95 Q172.5 324.05 170.0 318.0 L171.1 317.2 172.0 317.0 173.1 317.8 174.0 318.0" fill="#120e0c" fill-opacity="0.4392157" fill-rule="evenodd" stroke="none"/>
    <path d="M175.0 311.0 L175.0 310.0 176.0 310.0 177.1 310.8 178.0 311.0 178.1 312.0 Q178.6 315.1 174.0 318.0 L173.1 317.8 172.0 317.0 Q174.75 315.75 174.95 312.0 L175.0 311.0" fill="#2b2521" fill-opacity="0.6431373" fill-rule="evenodd" stroke="none"/>
    <path d="M163.0 322.0 Q173.5 319.8 163.0 322.5 L163.0 322.0" fill="#15110e" fill-opacity="0.30980393" fill-rule="evenodd" stroke="none"/>
  </g>
</svg>
