<?xml version="1.0" encoding="UTF-8" standalone="no"?>
<svg xmlns:xlink="http://www.w3.org/1999/xlink" height="203.65px" width="276.15px" xmlns="http://www.w3.org/2000/svg">
  <g transform="matrix(1.0, 0.0, 0.0, 1.0, -35.25, -119.0)">
    <path d="M171.0 141.0 L171.15 141.95 Q173.7 150.5 171.0 141.0 M170.0 141.0 L170.0 140.0 170.0 136.0 Q181.4 128.85 184.9 143.05 L185.0 144.0 Q185.3 148.2 190.85 146.55 L191.0 146.0 193.75 148.25 194.0 149.0 193.05 149.1 Q183.9 151.2 180.0 163.0 L179.1 162.8 Q178.2 162.3 175.0 162.0 177.2 165.8 181.1 167.8 L182.0 168.0 182.5 168.0 Q175.55 179.85 170.0 194.0 L170.0 195.0 169.0 195.0 169.0 196.0 168.0 196.0 168.0 195.0 168.0 189.0 168.05 188.0 Q168.75 182.75 167.0 180.0 L167.0 179.0 168.0 179.0 Q174.45 178.95 172.9 172.25 172.4 170.1 167.0 174.0 L167.0 175.0 Q166.5 175.0 166.35 175.25 163.45 179.45 161.0 184.0 161.3 187.2 166.0 186.1 L167.0 186.0 166.75 186.75 166.0 187.0 166.0 188.0 165.15 187.8 159.0 188.0 Q159.3 191.5 165.0 189.5 L165.0 190.0 Q164.5 190.0 164.45 190.15 163.55 192.55 160.0 192.0 161.45 193.55 163.15 194.75 L164.0 195.0 Q164.0 195.5 164.25 195.75 L165.0 196.0 164.75 196.75 164.0 197.0 163.05 197.2 Q157.15 199.65 148.0 199.0 L146.9 198.3 Q146.0 198.0 146.0 197.9 144.55 185.05 137.0 191.0 L136.8 190.1 136.0 189.0 Q142.45 188.45 142.5 182.0 L142.0 182.0 141.95 181.0 Q140.9 169.1 139.0 158.0 L139.0 157.0 139.0 156.0 139.05 155.0 Q139.75 150.25 138.0 148.0 L138.0 147.0 138.0 146.0 138.0 145.0 138.0 143.0 Q139.4 147.1 142.0 149.5 L142.0 149.0 142.5 148.9 Q143.5 143.35 141.0 142.0 L141.0 144.0 141.0 145.0 140.5 145.0 Q140.9 140.1 138.0 139.0 L138.0 138.0 138.0 137.0 Q141.3 126.25 146.7 132.3 151.65 137.85 155.0 145.0 155.6 150.9 158.35 154.75 158.5 155.0 159.0 155.0 161.4 165.6 165.0 174.5 L165.0 174.0 Q170.25 164.75 169.05 149.0 L169.0 148.0 169.0 147.0 Q170.7 145.7 170.1 142.0 L170.0 141.0 M155.25 166.45 L157.15 165.4 Q157.25 162.15 151.0 165.0 152.2 168.2 155.25 166.45 M153.0 168.0 L153.25 168.75 Q159.25 174.9 153.0 168.0 M148.0 179.0 L148.1 179.95 Q151.55 192.9 148.0 179.0" fill="#5b606a" fill-opacity="0.99215686" fill-rule="evenodd" stroke="none"/>
    <path d="M171.0 141.0 Q173.7 150.5 171.15 141.95 L171.0 141.0" fill="#a7a094" fill-rule="evenodd" stroke="none"/>
    <path d="M168.0 146.0 Q169.7 144.7 169.5 141.0 L170.0 141.0 170.1 142.0 Q170.7 145.7 169.0 147.0 L169.0 148.0 Q168.5 148.0 168.4 147.8 168.0 147.0 168.0 146.0" fill="#131315" fill-opacity="0.36078432" fill-rule="evenodd" stroke="none"/>
    <path d="M161.0 121.0 L166.85 138.05 167.0 139.0 Q166.15 150.75 166.55 160.0 166.7 162.7 166.3 162.15 L158.0 150.0 158.0 149.0 158.0 138.0 Q162.25 134.65 160.2 129.9 L160.0 129.0 161.0 128.95 Q163.05 128.65 160.0 124.0 L160.0 123.0 160.8 121.9 161.0 121.0" fill="#2d2d2c" fill-opacity="0.94509804" fill-rule="evenodd" stroke="none"/>
    <path d="M167.0 139.0 Q168.7 140.75 168.05 145.0 L168.0 146.0 Q168.0 147.0 168.4 147.8 168.5 148.0 169.0 148.0 L169.05 149.0 Q170.25 164.75 165.0 174.0 L165.0 174.5 Q161.4 165.6 159.0 155.0 L158.9 154.0 158.0 150.0 166.3 162.15 Q166.7 162.7 166.55 160.0 166.15 150.75 167.0 139.0" fill="#0f0f11" fill-opacity="0.98039216" fill-rule="evenodd" stroke="none"/>
    <path d="M185.0 144.0 Q186.55 145.95 190.0 146.0 L191.0 146.0 190.85 146.55 Q185.3 148.2 185.0 144.0" fill="#30343b" fill-opacity="0.7058824" fill-rule="evenodd" stroke="none"/>
    <path d="M194.0 149.0 L195.75 150.25 196.0 151.0 196.0 160.0 196.0 161.0 196.1 162.0 Q196.7 165.2 195.0 166.0 194.4 168.15 195.9 168.5 L196.0 169.0 195.75 169.75 195.0 170.0 Q196.0 173.0 199.0 173.5 L199.0 173.0 Q199.5 173.0 199.7 172.75 203.15 168.35 199.0 168.0 L199.0 167.0 Q201.4 162.4 201.5 155.0 L202.0 155.0 Q203.2 158.3 206.3 154.25 206.5 154.0 207.0 154.0 210.1 157.9 210.95 164.0 L211.0 165.0 211.1 165.95 Q211.65 168.15 210.0 168.0 210.2 174.7 212.45 169.15 212.5 169.0 213.0 169.0 214.45 171.05 214.9 174.0 L215.0 175.0 215.05 176.0 Q216.2 186.75 212.0 183.0 L212.65 182.75 Q215.95 178.05 211.0 176.0 L210.8 175.1 210.0 174.0 Q210.2 185.3 211.0 190.0 209.85 194.95 218.55 191.4 219.55 191.0 217.5 185.55 216.55 183.0 218.0 181.0 L218.0 180.0 219.1 179.2 220.0 179.0 227.8 174.6 228.0 174.0 Q232.0 172.5 234.75 169.75 L235.0 169.0 Q240.15 167.05 243.2 169.75 L244.0 170.0 243.75 170.8 Q234.35 182.35 224.0 193.0 229.45 200.8 233.4 207.8 233.5 208.0 234.0 208.0 236.3 209.85 239.3 203.15 245.25 189.75 248.0 204.0 246.55 217.05 242.2 227.1 L242.0 228.0 Q240.3 236.85 236.65 239.55 233.8 241.65 234.0 246.0 229.3 247.8 230.0 253.9 L230.0 254.0 Q228.65 259.55 224.0 262.0 222.0 255.15 218.55 261.15 L218.05 262.05 Q219.0 259.7 215.0 255.0 214.0 258.85 209.3 254.65 208.0 253.5 207.55 253.65 202.2 255.5 190.0 248.0 184.85 247.55 193.05 250.9 199.65 253.65 197.0 256.0 196.0 256.0 195.5 255.5 L194.0 254.2 Q191.8 254.25 189.2 251.75 185.95 248.65 177.0 242.0 L177.0 241.0 177.0 240.0 Q179.3 238.3 180.45 235.15 L181.0 235.0 Q185.4 240.0 184.5 232.05 L184.0 232.0 184.05 231.0 Q184.8 225.45 179.0 218.0 L184.45 221.55 Q190.85 223.8 186.0 218.0 188.2 217.7 189.45 216.25 190.5 215.0 192.25 213.85 199.8 208.75 208.0 215.0 208.3 227.7 215.2 221.3 215.8 220.75 217.05 223.55 218.0 225.75 220.0 224.0 220.8 222.3 222.95 222.45 L225.85 222.4 Q214.1 212.8 226.0 217.0 231.1 215.15 228.4 211.45 220.6 200.7 210.0 205.0 211.0 201.0 207.8 202.6 L207.0 203.0 Q208.6 206.4 214.0 212.0 205.55 213.1 203.55 208.65 203.15 207.8 193.9 209.35 191.3 209.8 191.4 209.95 193.95 213.35 185.0 215.0 L185.0 216.0 185.0 217.0 184.0 216.9 Q178.7 216.0 174.0 212.0 L173.85 211.05 173.0 209.0 182.2 212.05 Q185.2 212.7 182.8 207.1 182.1 205.4 180.8 203.45 176.9 197.45 181.7 192.75 L178.0 193.95 Q175.25 194.75 175.0 198.0 174.5 198.0 174.4 197.8 173.2 195.25 170.0 195.0 L170.0 194.0 Q175.55 179.85 182.5 168.0 L182.0 168.0 181.95 167.0 Q181.55 164.45 180.0 163.0 183.9 151.2 193.05 149.1 L194.0 149.0 M201.0 175.0 L201.0 175.5 Q208.45 172.85 201.0 175.0 M200.1 183.15 L198.85 183.1 Q192.6 188.0 199.0 187.85 L201.7 187.8 Q197.05 192.55 189.0 194.0 188.3 197.2 188.9 196.7 192.35 193.85 198.55 192.25 208.0 189.85 204.0 187.0 202.0 183.35 200.1 183.15 M192.0 183.0 L191.6 184.5 Q195.2 175.0 192.0 183.0 M201.25 197.45 L202.0 197.0 Q201.4 193.7 192.0 197.0 195.55 200.85 201.25 197.45 M208.9 173.0 L209.0 171.5 Q208.4 173.9 203.0 178.0 207.9 184.25 208.9 173.0 M225.0 181.0 Q229.85 184.9 229.75 180.0 229.65 176.55 225.0 181.0 M210.05 198.8 L216.1 198.4 Q214.55 195.9 206.0 196.0 205.9 199.1 210.05 198.8 M220.0 229.0 Q221.45 230.5 221.5 232.0 L221.5 234.0 Q221.45 240.5 225.15 234.75 226.95 232.0 224.8 231.7 L224.7 231.7 Q224.5 225.15 220.0 229.0 M207.45 228.15 L207.0 226.5 Q207.55 229.6 202.0 231.0 203.2 233.6 205.35 236.5 206.3 237.7 207.0 237.0 209.15 234.8 207.45 228.15 M211.0 240.0 Q211.0 240.5 211.25 240.65 218.1 245.1 211.0 240.0 M216.5 238.0 Q222.55 237.0 215.0 236.0 214.9 237.65 216.5 238.0 M193.0 219.0 Q193.3 221.7 196.0 221.75 203.6 221.9 193.0 219.0 M186.0 236.0 L186.0 236.5 Q195.2 233.05 186.0 236.0" fill="#2f3336" fill-opacity="0.99215686" fill-rule="evenodd" stroke="none"/>
    <path d="M196.0 151.0 Q197.75 154.75 196.5 160.9 L196.0 161.0 196.0 160.0 196.0 151.0" fill="#181e21" fill-opacity="0.6156863" fill-rule="evenodd" stroke="none"/>
    <path d="M202.0 155.0 L202.0 154.0 202.0 153.0 Q204.5 151.05 206.75 153.25 L207.0 154.0 Q206.5 154.0 206.3 154.25 203.2 158.3 202.0 155.0" fill="#626875" fill-opacity="0.91764706" fill-rule="evenodd" stroke="none"/>
    <path d="M196.0 169.0 Q197.7 170.65 198.4 169.2 198.5 169.0 199.0 169.0 L198.8 169.9 198.0 171.0 198.8 172.1 199.0 173.0 199.0 173.5 Q196.0 173.0 195.0 170.0 L195.75 169.75 196.0 169.0" fill="#201d23" fill-opacity="0.84705883" fill-rule="evenodd" stroke="none"/>
    <path d="M199.0 169.0 L199.0 168.0 Q203.15 168.35 199.7 172.75 199.5 173.0 199.0 173.0 L198.8 172.1 198.0 171.0 198.8 169.9 199.0 169.0" fill="#66666e" fill-opacity="0.98039216" fill-rule="evenodd" stroke="none"/>
    <path d="M180.0 163.0 Q181.55 164.45 181.95 167.0 L182.0 168.0 181.1 167.8 Q177.2 165.8 175.0 162.0 178.2 162.3 179.1 162.8 L180.0 163.0" fill="#231813" fill-opacity="0.99607843" fill-rule="evenodd" stroke="none"/>
    <path d="M167.0 180.0 Q168.75 182.75 168.05 188.0 L168.0 189.0 167.0 189.0 166.75 188.25 166.0 188.0 166.0 187.0 166.75 186.75 167.0 186.0 167.0 185.0 167.0 180.0" fill="#271504" fill-rule="evenodd" stroke="none"/>
    <path d="M168.0 179.0 L167.0 179.0 167.0 180.0 167.0 185.0 167.0 186.0 166.0 186.1 Q161.3 187.2 161.0 184.0 163.45 179.45 166.35 175.25 166.5 175.0 167.0 175.0 168.7 175.3 168.1 178.0 L168.0 179.0" fill="#b5b3b2" fill-rule="evenodd" stroke="none"/>
    <path d="M167.0 175.0 L167.0 174.0 Q172.4 170.1 172.9 172.25 174.45 178.95 168.0 179.0 L168.1 178.0 Q168.7 175.3 167.0 175.0" fill="#8f9298" fill-rule="evenodd" stroke="none"/>
    <path d="M165.0 190.0 L165.0 189.5 Q159.3 191.5 159.0 188.0 L165.15 187.8 166.0 188.0 165.8 188.9 165.0 190.0" fill="#9999a1" fill-rule="evenodd" stroke="none"/>
    <path d="M166.0 188.0 L166.75 188.25 167.0 189.0 167.1 189.95 Q168.1 194.1 165.0 194.0 L165.0 193.0 165.0 190.0 165.8 188.9 166.0 188.0" fill="#cead87" fill-rule="evenodd" stroke="none"/>
    <path d="M165.0 190.0 L165.0 193.0 165.0 194.0 164.75 194.75 164.0 195.0 163.15 194.75 Q161.45 193.55 160.0 192.0 163.55 192.55 164.45 190.15 164.5 190.0 165.0 190.0" fill="#8e8d93" fill-rule="evenodd" stroke="none"/>
    <path d="M168.0 189.0 L168.0 195.0 168.0 196.0 167.0 196.0 165.0 196.0 164.25 195.75 Q164.0 195.5 164.0 195.0 L164.75 194.75 165.0 194.0 Q168.1 194.1 167.1 189.95 L167.0 189.0 168.0 189.0" fill="#3c2e24" fill-rule="evenodd" stroke="none"/>
    <path d="M164.0 197.0 L163.9 197.95 Q163.25 200.75 159.0 200.0 L158.0 200.0 157.1 200.2 Q151.1 202.7 147.0 199.0 L148.0 199.0 Q157.15 199.65 163.05 197.2 L164.0 197.0" fill="#ebf1e8" fill-rule="evenodd" stroke="none"/>
    <path d="M168.0 196.0 L169.0 196.0 Q172.95 197.05 174.45 200.85 L175.0 201.0 174.8 201.9 Q173.2 204.7 170.0 206.0 L170.0 207.0 169.4 207.2 Q168.3 209.8 166.0 211.0 L166.0 212.0 165.5 212.0 Q165.65 214.15 164.0 214.0 L163.0 214.05 Q159.3 214.2 154.0 212.0 L153.75 211.25 Q148.0 206.05 143.0 211.0 L142.0 211.0 140.0 211.0 140.0 212.0 139.25 211.75 Q139.0 211.5 139.0 211.0 L139.1 210.0 Q139.6 207.75 135.0 208.0 L134.95 207.0 Q134.45 199.55 126.0 200.0 L125.0 200.0 125.0 199.0 Q128.85 196.35 133.85 194.55 L134.0 194.0 134.0 193.0 Q135.7 192.7 136.4 191.2 L137.0 191.0 Q144.55 185.05 146.0 197.9 146.0 198.0 146.9 198.3 L148.0 199.0 147.0 199.0 Q151.1 202.7 157.1 200.2 L158.0 200.0 158.05 201.0 Q158.15 202.65 156.0 202.0 163.4 209.5 159.2 200.9 L159.0 200.0 Q163.25 200.75 163.9 197.95 L164.0 197.0 164.75 196.75 165.0 196.0 167.0 196.0 168.0 196.0 M148.0 203.0 L147.75 202.3 Q145.75 200.7 143.0 203.0 L143.0 204.0 142.85 204.55 Q140.25 205.6 138.0 205.0 144.65 208.75 153.0 204.5 L151.2 203.65 Q149.95 203.05 148.0 203.0 M136.0 201.0 L136.0 201.5 Q143.55 198.95 136.0 201.0" fill="#bec5bc" fill-rule="evenodd" stroke="none"/>
    <path d="M170.0 195.0 Q173.2 195.25 174.4 197.8 174.5 198.0 175.0 198.0 178.25 199.2 175.85 200.75 L175.0 201.0 174.45 200.85 Q172.95 197.05 169.0 196.0 L169.0 195.0 170.0 195.0" fill="#c5cdc6" fill-rule="evenodd" stroke="none"/>
    <path d="M175.0 198.0 Q175.25 194.75 178.0 193.95 L181.7 192.75 Q176.9 197.45 180.8 203.45 182.1 205.4 182.8 207.1 185.2 212.7 182.2 212.05 L173.0 209.0 172.0 209.0 171.0 209.0 Q170.5 209.0 170.4 208.8 170.0 208.0 170.0 207.0 L170.0 206.0 Q173.2 204.7 174.8 201.9 L175.0 201.0 175.85 200.75 Q178.25 199.2 175.0 198.0" fill="#1a1d20" fill-rule="evenodd" stroke="none"/>
    <path d="M201.0 175.0 Q208.45 172.85 201.0 175.5 L201.0 175.0" fill="#636672" fill-rule="evenodd" stroke="none"/>
    <path d="M200.1 183.15 Q202.0 183.35 204.0 187.0 208.0 189.85 198.55 192.25 192.35 193.85 188.9 196.7 188.3 197.2 189.0 194.0 197.05 192.55 201.7 187.8 L199.0 187.85 Q192.6 188.0 198.85 183.1 L200.1 183.15" fill="#181412" fill-rule="evenodd" stroke="none"/>
    <path d="M192.0 183.0 Q195.2 175.0 191.6 184.5 L192.0 183.0" fill="#1a1712" fill-rule="evenodd" stroke="none"/>
    <path d="M201.25 197.45 Q195.55 200.85 192.0 197.0 201.4 193.7 202.0 197.0 L201.25 197.45" fill="#13141a" fill-rule="evenodd" stroke="none"/>
    <path d="M235.0 169.0 L235.0 168.0 Q244.2 163.2 254.0 159.5 L254.0 160.0 Q253.5 160.0 253.35 160.25 251.95 162.45 249.0 163.0 249.5 163.5 250.1 163.8 L251.0 164.0 250.8 164.6 Q247.0 166.5 244.0 169.0 L244.0 170.0 243.2 169.75 Q240.15 167.05 235.0 169.0" fill="#69707c" fill-opacity="0.9019608" fill-rule="evenodd" stroke="none"/>
    <path d="M227.0 173.0 L227.0 172.0 Q230.1 170.1 234.05 169.1 L235.0 169.0 234.75 169.75 Q232.0 172.5 228.0 174.0 L227.25 173.75 Q227.0 173.5 227.0 173.0" fill="#767c8d" fill-opacity="0.92156863" fill-rule="evenodd" stroke="none"/>
    <path d="M211.0 165.0 L212.8 168.1 213.0 169.0 Q212.5 169.0 212.45 169.15 210.2 174.7 210.0 168.0 211.65 168.15 211.1 165.95 L211.0 165.0" fill="#131415" fill-opacity="0.88235295" fill-rule="evenodd" stroke="none"/>
    <path d="M208.9 173.0 Q207.9 184.25 203.0 178.0 208.4 173.9 209.0 171.5 L208.9 173.0" fill="#676b79" fill-rule="evenodd" stroke="none"/>
    <path d="M220.0 179.0 L220.0 178.0 226.15 173.25 227.0 173.0 Q227.0 173.5 227.25 173.75 L228.0 174.0 227.8 174.6 220.0 179.0" fill="#6d7380" fill-opacity="0.9254902" fill-rule="evenodd" stroke="none"/>
    <path d="M215.0 175.0 Q216.55 177.45 217.45 180.9 L218.0 181.0 Q216.55 183.0 217.5 185.55 219.55 191.0 218.55 191.4 209.85 194.95 211.0 190.0 210.2 185.3 210.0 174.0 L210.8 175.1 211.0 176.0 Q210.95 179.5 211.85 182.05 L212.0 183.0 Q216.2 186.75 215.05 176.0 L215.0 175.0" fill="#121417" fill-opacity="0.94509804" fill-rule="evenodd" stroke="none"/>
    <path d="M212.0 183.0 L211.85 182.05 Q210.95 179.5 211.0 176.0 215.95 178.05 212.65 182.75 L212.0 183.0" fill="#8c8276" fill-rule="evenodd" stroke="none"/>
    <path d="M225.0 181.0 Q229.65 176.55 229.75 180.0 229.85 184.9 225.0 181.0" fill="#697074" fill-rule="evenodd" stroke="none"/>
    <path d="M251.0 164.0 L250.1 163.8 Q249.5 163.5 249.0 163.0 251.95 162.45 253.35 160.25 253.5 160.0 254.0 160.0 L253.85 160.95 Q253.15 163.15 251.0 164.0" fill="#8691a0" fill-opacity="0.9372549" fill-rule="evenodd" stroke="none"/>
    <path d="M254.0 160.0 L255.0 160.55 Q250.55 170.05 247.0 181.0 246.5 181.0 246.2 181.25 236.4 188.9 233.0 203.0 232.8 205.7 233.75 207.15 L234.0 208.0 Q233.5 208.0 233.4 207.8 229.45 200.8 224.0 193.0 234.35 182.35 243.75 170.8 L244.0 170.0 244.0 169.0 Q247.0 166.5 250.8 164.6 L251.0 164.0 Q253.15 163.15 253.85 160.95 L254.0 160.0" fill="#23251e" fill-opacity="0.9764706" fill-rule="evenodd" stroke="none"/>
    <path d="M158.0 125.0 L158.0 124.0 158.0 119.0 Q159.95 119.05 160.75 120.15 L161.0 121.0 160.8 121.9 160.0 123.0 160.0 124.0 160.0 128.0 160.0 129.0 160.2 129.9 Q162.25 134.65 158.0 138.0 L158.0 137.0 158.0 135.0 158.0 134.0 158.0 125.0" fill="#4e5358" fill-opacity="0.9764706" fill-rule="evenodd" stroke="none"/>
    <path d="M138.0 143.0 L138.0 142.0 138.0 139.0 Q140.9 140.1 140.5 145.0 L141.0 145.0 Q140.3 147.7 141.8 148.4 142.0 148.5 142.0 149.0 L142.0 149.5 Q139.4 147.1 138.0 143.0" fill="#989187" fill-rule="evenodd" stroke="none"/>
    <path d="M138.0 146.0 L137.5 145.95 Q137.0 142.0 137.0 138.0 L138.0 138.0 138.0 139.0 138.0 142.0 138.0 143.0 138.0 145.0 138.0 146.0" fill="#1e1f21" fill-opacity="0.35686275" fill-rule="evenodd" stroke="none"/>
    <path d="M142.0 149.0 Q142.0 148.5 141.8 148.4 140.3 147.7 141.0 145.0 L141.0 144.0 141.0 142.0 Q143.5 143.35 142.5 148.9 L142.0 149.0" fill="#36322e" fill-rule="evenodd" stroke="none"/>
    <path d="M157.0 135.0 L157.0 134.0 157.0 125.0 158.0 125.0 158.0 134.0 158.0 135.0 157.0 135.0" fill="#3e4141" fill-opacity="0.7254902" fill-rule="evenodd" stroke="none"/>
    <path d="M160.0 124.0 Q163.05 128.65 161.0 128.95 L160.0 129.0 160.0 128.0 160.0 124.0" fill="#121415" fill-opacity="0.49803922" fill-rule="evenodd" stroke="none"/>
    <path d="M156.0 147.0 Q157.75 142.75 157.05 136.0 L157.0 135.0 158.0 135.0 158.0 137.0 158.0 138.0 158.0 149.0 158.0 150.0 157.45 149.85 Q156.95 148.05 156.0 147.0" fill="#211f1c" fill-opacity="0.45490196" fill-rule="evenodd" stroke="none"/>
    <path d="M155.0 145.0 L155.8 146.1 156.0 147.0 Q156.95 148.05 157.45 149.85 L158.0 150.0 158.9 154.0 159.0 155.0 Q158.5 155.0 158.35 154.75 155.6 150.9 155.0 145.0" fill="#2d333b" fill-opacity="0.9372549" fill-rule="evenodd" stroke="none"/>
    <path d="M106.0 152.0 L105.85 151.05 Q103.45 144.55 103.0 136.0 108.9 135.2 111.8 142.1 L112.0 143.0 111.8 143.9 Q108.05 150.95 106.0 152.0" fill="#525a5f" fill-opacity="0.91764706" fill-rule="evenodd" stroke="none"/>
    <path d="M112.0 181.0 L111.9 180.0 Q109.3 165.7 106.0 152.0 108.05 150.95 111.8 143.9 L112.0 143.0 Q117.4 153.9 122.85 168.05 L123.0 169.0 Q124.5 173.15 123.2 176.1 L123.0 177.0 122.05 177.15 Q116.85 178.85 112.0 181.0" fill="#464c52" fill-opacity="0.94509804" fill-rule="evenodd" stroke="none"/>
    <path d="M107.0 195.0 L107.0 194.0 107.0 193.0 Q109.3 187.3 111.8 181.9 L112.0 181.0 Q116.85 178.85 122.05 177.15 L123.0 177.0 124.0 177.0 Q124.05 180.45 125.75 182.25 L126.0 183.0 126.0 184.0 126.0 185.0 Q125.5 185.0 125.4 185.2 123.1 189.35 120.0 192.0 123.95 195.55 121.15 197.25 120.3 197.75 122.4 198.9 L123.75 200.25 125.0 200.0 126.0 200.0 125.95 201.0 Q125.7 202.7 124.0 203.0 118.95 205.2 118.15 199.0 118.0 198.0 117.6 197.8 113.5 195.85 107.0 195.0" fill="#7a7e87" fill-opacity="0.99215686" fill-rule="evenodd" stroke="none"/>
    <path d="M104.0 206.0 L104.0 205.0 105.75 203.75 106.0 203.0 113.0 203.0 114.5 203.0 Q110.35 201.15 106.0 198.0 L106.0 197.0 106.0 195.0 107.0 195.0 Q113.5 195.85 117.6 197.8 118.0 198.0 118.15 199.0 118.95 205.2 124.0 203.0 L124.0 204.0 123.0 204.0 123.0 206.0 123.0 207.0 122.5 207.0 Q122.55 217.1 120.0 210.0 L119.75 209.25 Q119.5 209.0 119.0 209.0 L118.0 209.0 116.0 209.0 115.75 208.25 Q111.6 204.05 106.0 206.0 L105.0 206.0 104.0 206.0" fill="#5c616e" fill-opacity="0.99215686" fill-rule="evenodd" stroke="none"/>
    <path d="M153.0 168.0 Q159.25 174.9 153.25 168.75 L153.0 168.0" fill="#363843" fill-rule="evenodd" stroke="none"/>
    <path d="M155.25 166.45 Q152.2 168.2 151.0 165.0 157.25 162.15 157.15 165.4 L155.25 166.45" fill="#373943" fill-rule="evenodd" stroke="none"/>
    <path d="M132.0 164.0 L132.0 163.0 132.0 152.0 Q134.5 148.6 135.9 154.05 L136.0 155.0 135.0 155.0 134.0 155.0 Q133.8 157.7 134.75 159.15 L135.0 160.0 135.05 161.0 Q136.05 167.85 132.0 164.0" fill="#525558" fill-opacity="0.90588236" fill-rule="evenodd" stroke="none"/>
    <path d="M136.0 155.0 Q138.15 161.1 138.85 158.95 L139.0 158.0 Q140.9 169.1 141.95 181.0 L142.0 182.0 140.5 181.85 Q139.15 168.85 135.0 160.0 L134.75 159.15 Q133.8 157.7 134.0 155.0 L135.0 155.0 136.0 155.0" fill="#100b0e" fill-opacity="0.9019608" fill-rule="evenodd" stroke="none"/>
    <path d="M139.0 156.0 L138.5 155.95 Q138.0 152.0 138.0 148.0 139.75 150.25 139.05 155.0 L139.0 156.0" fill="#303030" fill-opacity="0.5764706" fill-rule="evenodd" stroke="none"/>
    <path d="M131.0 179.0 L132.0 179.0 132.6 178.8 Q134.25 175.25 132.0 170.0 L132.0 169.0 132.0 164.0 Q136.05 167.85 135.05 161.0 L135.0 160.0 Q139.15 168.85 140.5 181.85 L142.0 182.0 142.5 182.0 Q142.45 188.45 136.0 189.0 L136.8 190.1 137.0 191.0 136.4 191.2 Q135.7 192.7 134.0 193.0 L134.0 194.0 133.3 193.75 Q129.5 189.5 126.0 185.0 L126.0 184.0 126.0 183.0 Q130.1 180.65 130.75 179.8 L131.0 179.0" fill="#292930" fill-opacity="0.9764706" fill-rule="evenodd" stroke="none"/>
    <path d="M132.0 179.0 L132.0 178.0 132.0 170.0 Q134.25 175.25 132.6 178.8 L132.0 179.0" fill="#111212" fill-opacity="0.8156863" fill-rule="evenodd" stroke="none"/>
    <path d="M123.0 169.0 Q125.7 172.3 126.9 177.05 L127.0 178.0 126.05 177.85 124.0 177.0 123.0 177.0 123.2 176.1 Q124.5 173.15 123.0 169.0" fill="#191d23" fill-opacity="0.9137255" fill-rule="evenodd" stroke="none"/>
    <path d="M127.0 178.0 Q128.05 178.95 130.0 179.0 L131.0 179.0 130.75 179.8 Q130.1 180.65 126.0 183.0 L125.75 182.25 Q124.05 180.45 124.0 177.0 L126.05 177.85 127.0 178.0" fill="#4b535f" fill-opacity="0.99215686" fill-rule="evenodd" stroke="none"/>
    <path d="M125.0 200.0 L123.75 200.25 122.4 198.9 Q120.3 197.75 121.15 197.25 123.95 195.55 120.0 192.0 123.1 189.35 125.4 185.2 125.5 185.0 126.0 185.0 129.5 189.5 133.3 193.75 L134.0 194.0 133.85 194.55 Q128.85 196.35 125.0 199.0 L125.0 200.0" fill="#4b505a" fill-rule="evenodd" stroke="none"/>
    <path d="M148.0 179.0 Q151.55 192.9 148.1 179.95 L148.0 179.0" fill="#828d9d" fill-rule="evenodd" stroke="none"/>
    <path d="M158.0 200.0 L159.0 200.0 159.2 200.9 Q163.4 209.5 156.0 202.0 158.15 202.65 158.05 201.0 L158.0 200.0" fill="#949793" fill-rule="evenodd" stroke="none"/>
    <path d="M143.0 204.0 L143.0 203.0 Q145.75 200.7 147.75 202.3 L148.0 203.0 Q147.5 203.0 147.3 203.25 146.2 204.7 143.0 204.0" fill="#939790" fill-rule="evenodd" stroke="none"/>
    <path d="M148.0 203.0 Q149.95 203.05 151.2 203.65 L153.0 204.5 Q144.65 208.75 138.0 205.0 140.25 205.6 142.85 204.55 L143.0 204.0 Q146.2 204.7 147.3 203.25 147.5 203.0 148.0 203.0" fill="#f0f6eb" fill-rule="evenodd" stroke="none"/>
    <path d="M140.0 212.0 L140.0 211.0 142.0 211.0 143.0 211.0 143.05 212.0 Q143.55 215.55 141.0 216.0 140.7 222.8 143.75 226.2 L144.0 227.0 143.2 226.75 Q139.45 224.05 138.0 219.0 L138.0 218.0 138.0 217.0 Q139.65 217.15 139.1 214.95 L139.0 214.0 139.8 212.9 140.0 212.0" fill="#9a8e76" fill-rule="evenodd" stroke="none"/>
    <path d="M147.0 213.0 Q147.5 213.5 148.1 213.6 L149.95 214.05 Q153.05 210.35 147.0 213.0 M148.25 220.4 Q148.75 219.75 147.4 215.55 146.7 213.3 146.3 213.9 144.5 216.45 143.0 222.0 144.1 225.7 148.25 220.4 M144.0 227.0 L143.75 226.2 Q140.7 222.8 141.0 216.0 143.55 215.55 143.05 212.0 L143.0 211.0 Q148.0 206.05 153.75 211.25 L154.0 212.0 Q155.65 213.7 154.2 214.4 154.0 214.5 154.0 215.0 155.25 217.25 157.2 218.75 L158.0 219.0 158.0 220.0 157.1 220.2 156.0 221.0 Q156.95 222.05 157.0 224.0 L157.0 225.0 156.1 224.8 Q155.5 224.5 155.0 224.0 L154.75 223.35 Q150.95 220.75 148.0 224.0 148.55 227.45 151.85 228.45 L152.0 229.0 151.0 229.0 150.15 228.75 Q148.7 227.8 146.0 228.0 L146.0 229.0 145.25 228.75 144.0 227.0" fill="#946538" fill-rule="evenodd" stroke="none"/>
    <path d="M148.25 220.4 Q144.1 225.7 143.0 222.0 144.5 216.45 146.3 213.9 146.7 213.3 147.4 215.55 148.75 219.75 148.25 220.4" fill="#5c3d1d" fill-rule="evenodd" stroke="none"/>
    <path d="M147.0 213.0 Q153.05 210.35 149.95 214.05 L148.1 213.6 Q147.5 213.5 147.0 213.0" fill="#593d1e" fill-rule="evenodd" stroke="none"/>
    <path d="M173.0 209.0 L173.85 211.05 174.0 212.0 173.8 212.9 Q170.1 220.85 165.0 225.0 L165.0 226.0 Q164.5 226.0 164.3 226.25 163.2 227.7 160.0 227.0 L159.8 226.1 159.0 225.0 159.0 224.0 159.0 223.0 159.95 222.9 Q162.4 222.3 159.0 218.0 L159.0 220.0 159.0 221.0 158.25 220.75 Q158.0 220.5 158.0 220.0 L158.0 219.0 157.9 218.05 Q157.2 215.25 154.0 215.0 154.0 214.5 154.2 214.4 155.65 213.7 154.0 212.0 159.3 214.2 163.0 214.05 L164.0 214.0 Q163.7 221.4 170.4 215.45 174.8 211.6 167.0 213.0 L167.0 212.0 Q168.45 210.45 170.85 209.55 L171.0 209.0 172.0 209.0 173.0 209.0" fill="#959189" fill-rule="evenodd" stroke="none"/>
    <path d="M154.0 215.0 Q157.2 215.25 157.9 218.05 L158.0 219.0 157.2 218.75 Q155.25 217.25 154.0 215.0" fill="#ef9947" fill-rule="evenodd" stroke="none"/>
    <path d="M159.0 221.0 L159.0 220.0 159.0 218.0 Q162.4 222.3 159.95 222.9 L159.0 223.0 159.0 222.0 159.0 221.0" fill="#e2c89a" fill-rule="evenodd" stroke="none"/>
    <path d="M158.0 220.0 Q158.0 220.5 158.25 220.75 L159.0 221.0 159.0 222.0 159.0 223.0 159.0 224.0 159.0 225.0 158.8 225.9 158.0 227.0 157.4 226.8 Q157.0 226.0 157.0 225.0 L157.0 224.0 Q156.95 222.05 156.0 221.0 L157.1 220.2 158.0 220.0" fill="#56391f" fill-rule="evenodd" stroke="none"/>
    <path d="M136.0 201.0 Q143.55 198.95 136.0 201.5 L136.0 201.0" fill="#97a099" fill-rule="evenodd" stroke="none"/>
    <path d="M135.0 208.0 Q139.6 207.75 139.1 210.0 L139.0 211.0 138.0 211.0 137.0 211.0 137.0 213.0 137.0 214.0 136.0 214.0 136.1 213.0 Q136.7 209.8 135.0 209.0 L135.0 208.0" fill="#8b918b" fill-rule="evenodd" stroke="none"/>
    <path d="M124.0 203.0 Q125.7 202.7 125.95 201.0 L126.0 200.0 Q134.45 199.55 134.95 207.0 L135.0 208.0 135.0 209.0 134.0 209.0 133.75 208.2 Q132.0 206.0 128.0 206.0 L127.8 205.4 Q126.0 204.5 124.0 204.0 L124.0 203.0" fill="#a17340" fill-rule="evenodd" stroke="none"/>
    <path d="M135.0 209.0 Q136.7 209.8 136.1 213.0 L136.0 214.0 135.0 214.0 134.85 213.05 Q133.8 209.8 131.0 212.0 L130.0 212.0 129.0 212.0 129.0 211.0 Q131.55 210.55 133.2 209.25 L134.0 209.0 135.0 209.0" fill="#b8bfb4" fill-rule="evenodd" stroke="none"/>
    <path d="M134.0 209.0 L133.2 209.25 Q131.55 210.55 129.0 211.0 L129.0 212.0 128.0 212.0 127.45 211.85 Q127.0 210.5 127.0 209.0 L126.85 208.05 126.0 206.0 127.0 206.0 128.0 206.0 Q132.0 206.0 133.75 208.2 L134.0 209.0" fill="#432410" fill-rule="evenodd" stroke="none"/>
    <path d="M128.0 206.0 L127.0 206.0 126.0 206.0 126.85 208.05 127.0 209.0 126.2 208.75 Q124.25 207.2 123.0 207.0 L123.0 206.0 123.0 204.0 124.0 204.0 Q126.0 204.5 127.8 205.4 L128.0 206.0" fill="#68432a" fill-rule="evenodd" stroke="none"/>
    <path d="M127.0 209.0 Q127.0 210.5 127.45 211.85 L128.0 212.0 127.75 212.65 Q120.2 217.95 120.0 210.0 122.55 217.1 122.5 207.0 L123.0 207.0 Q124.25 207.2 126.2 208.75 L127.0 209.0" fill="#a47048" fill-rule="evenodd" stroke="none"/>
    <path d="M131.0 212.0 Q133.8 209.8 134.85 213.05 L135.0 214.0 135.1 215.0 Q135.7 217.7 134.0 218.0 L134.05 217.0 Q134.65 211.3 131.0 214.0 L131.0 213.0 131.0 212.0" fill="#816c51" fill-rule="evenodd" stroke="none"/>
    <path d="M130.0 212.0 L131.0 212.0 131.0 213.0 131.0 214.0 130.9 214.95 Q130.2 217.7 127.0 218.0 L126.05 217.85 124.0 217.0 124.0 216.0 Q127.7 215.2 129.75 212.8 L130.0 212.0" fill="#d29c5f" fill-rule="evenodd" stroke="none"/>
    <path d="M129.0 212.0 L130.0 212.0 129.75 212.8 Q127.7 215.2 124.0 216.0 L124.0 217.0 123.85 217.55 Q122.05 218.05 121.0 219.0 L121.0 220.0 120.1 220.2 Q119.5 220.5 119.0 221.0 L118.0 221.1 Q111.6 222.4 112.0 217.0 L111.8 216.1 111.0 215.0 111.0 214.0 111.0 213.0 112.0 213.0 Q113.65 217.9 116.8 211.9 L117.0 211.0 118.75 209.75 119.0 209.0 Q119.5 209.0 119.75 209.25 L120.0 210.0 Q120.2 217.95 127.75 212.65 L128.0 212.0 129.0 212.0" fill="#c1c4b6" fill-rule="evenodd" stroke="none"/>
    <path d="M127.0 218.0 Q130.2 217.7 130.9 214.95 L131.0 214.0 Q134.65 211.3 134.05 217.0 L134.0 218.0 Q133.5 218.0 133.3 218.25 129.55 222.8 127.0 220.0 L127.0 219.0 127.0 218.0" fill="#221509" fill-rule="evenodd" stroke="none"/>
    <path d="M123.0 220.0 L126.0 220.0 127.0 220.0 Q126.3 222.7 127.8 223.4 L128.0 224.0 127.0 224.0 126.0 224.0 Q126.95 225.05 126.55 226.9 L126.0 227.0 Q121.2 228.7 124.25 224.15 125.45 222.4 123.0 221.0 L123.0 220.0" fill="#a7b0a7" fill-rule="evenodd" stroke="none"/>
    <path d="M121.0 220.0 L122.0 220.0 123.0 220.0 123.0 221.0 122.5 221.0 Q122.7 224.2 121.0 225.0 L120.8 224.1 Q119.75 222.2 113.0 224.0 L113.0 225.0 113.0 226.0 112.45 225.85 Q112.0 224.5 112.0 223.0 114.45 221.45 119.0 221.5 L119.0 221.0 Q119.5 220.5 120.1 220.2 L121.0 220.0" fill="#313127" fill-rule="evenodd" stroke="none"/>
    <path d="M124.0 217.0 L126.05 217.85 127.0 218.0 127.0 219.0 127.0 220.0 126.0 220.0 123.0 220.0 122.0 220.0 121.0 220.0 121.0 219.0 Q122.05 218.05 123.85 217.55 L124.0 217.0" fill="#7e6b54" fill-rule="evenodd" stroke="none"/>
    <path d="M123.0 221.0 Q125.45 222.4 124.25 224.15 121.2 228.7 126.0 227.0 L126.05 228.0 Q126.35 230.35 120.0 231.0 119.9 232.65 122.0 232.5 L122.0 233.0 Q123.95 234.55 124.85 237.05 L125.0 238.0 124.05 237.9 Q120.05 236.95 117.0 235.0 L117.0 234.0 117.0 232.0 117.8 230.9 118.0 230.0 118.8 228.9 119.0 228.0 120.75 225.85 121.0 225.0 Q122.7 224.2 122.5 221.0 L123.0 221.0" fill="#cfd9ce" fill-rule="evenodd" stroke="none"/>
    <path d="M140.0 212.0 L139.8 212.9 139.0 214.0 138.0 214.0 137.0 214.0 137.0 213.0 137.0 211.0 138.0 211.0 139.0 211.0 Q139.0 211.5 139.25 211.75 L140.0 212.0" fill="#4a4b45" fill-rule="evenodd" stroke="none"/>
    <path d="M139.0 214.0 L139.1 214.95 Q139.65 217.15 138.0 217.0 L138.0 218.0 138.0 219.0 137.15 218.8 Q135.3 217.7 136.0 214.0 L137.0 214.0 138.0 214.0 139.0 214.0" fill="#646761" fill-rule="evenodd" stroke="none"/>
    <path d="M138.0 219.0 Q139.45 224.05 143.2 226.75 L144.0 227.0 145.25 228.75 146.0 229.0 Q146.8 230.7 150.0 230.1 L151.0 230.0 Q152.8 231.75 155.75 229.65 L156.0 229.0 157.75 227.75 158.0 227.0 158.8 225.9 159.0 225.0 159.8 226.1 160.0 227.0 160.0 228.0 159.5 228.0 Q159.65 230.15 158.0 230.0 158.05 231.95 158.75 233.15 L159.0 234.0 158.75 234.85 Q152.8 243.5 143.0 234.0 L142.75 233.35 138.0 230.0 137.0 230.0 136.75 229.15 Q134.4 225.65 129.0 228.0 131.25 230.15 130.25 231.25 130.0 231.5 130.0 232.0 L129.0 232.0 128.0 232.0 128.0 233.0 127.0 233.0 Q126.5 233.0 126.25 233.25 124.9 234.55 122.0 233.0 L122.0 232.5 Q119.9 232.65 120.0 231.0 126.35 230.35 126.05 228.0 L126.0 227.0 126.55 226.9 Q126.95 225.05 126.0 224.0 L127.0 224.0 128.0 224.0 Q133.15 223.65 133.9 219.0 L134.0 218.0 Q135.7 217.7 135.1 215.0 L135.0 214.0 136.0 214.0 Q135.3 217.7 137.15 218.8 L138.0 219.0" fill="#c0c8bd" fill-rule="evenodd" stroke="none"/>
    <path d="M128.0 224.0 L127.8 223.4 Q126.3 222.7 127.0 220.0 129.55 222.8 133.3 218.25 133.5 218.0 134.0 218.0 L133.9 219.0 Q133.15 223.65 128.0 224.0" fill="#423120" fill-rule="evenodd" stroke="none"/>
    <path d="M140.0 234.0 L139.4 233.8 Q138.5 232.0 138.0 230.0 L142.75 233.35 143.0 234.0 142.0 234.0 140.0 234.0" fill="#939b8f" fill-rule="evenodd" stroke="none"/>
    <path d="M75.0 256.0 L74.5 255.9 Q73.0 247.0 69.0 241.0 72.65 240.75 71.25 238.3 L69.7 236.05 Q66.5 232.25 70.25 229.1 L71.0 228.5 Q67.2 231.35 66.0 226.0 L66.0 233.0 66.0 234.0 65.45 233.85 Q61.45 220.05 56.0 208.0 63.2 212.0 60.2 205.9 L60.0 205.0 Q73.35 214.65 82.0 222.5 L81.85 221.0 81.0 213.0 Q87.6 217.1 90.55 212.95 93.75 208.5 96.2 215.95 96.25 216.2 98.5 214.5 L98.6 214.9 Q99.3 218.45 102.4 219.65 104.45 220.4 101.0 220.45 99.8 220.45 101.0 223.0 94.45 226.65 94.3 219.3 L93.8 220.95 93.0 223.0 Q104.1 239.9 116.0 251.0 L115.0 252.0 Q124.4 251.25 131.75 259.15 137.1 264.9 145.3 266.55 148.1 267.1 150.0 265.0 140.05 263.25 146.95 262.65 150.35 262.35 151.0 259.0 145.75 255.75 135.2 252.35 130.05 250.7 125.9 247.75 125.3 247.3 126.9 246.7 L128.0 246.0 Q131.95 245.0 131.25 243.85 131.0 243.5 131.0 243.0 L131.5 243.0 Q131.5 241.0 131.0 239.0 L131.5 239.0 Q131.4 234.6 128.0 233.0 L128.0 232.0 129.0 232.0 130.0 232.0 Q133.55 231.55 136.1 230.2 L137.0 230.0 138.0 230.0 Q138.5 232.0 139.4 233.8 L140.0 234.0 Q143.8 237.35 145.45 240.15 146.5 242.0 148.8 243.35 155.3 247.15 158.35 241.8 158.65 241.3 158.9 242.6 159.15 243.65 159.7 243.35 164.9 240.65 160.0 232.0 L160.0 231.0 160.0 228.0 160.0 227.0 Q163.2 227.7 164.3 226.25 164.5 226.0 165.0 226.0 166.75 227.3 173.0 227.5 L171.7 228.7 Q168.95 231.25 169.35 231.65 172.8 235.4 170.0 242.0 L169.0 242.0 Q171.8 250.45 172.0 260.0 174.0 261.55 175.0 264.0 174.5 264.0 174.4 264.2 172.5 267.5 170.0 270.0 169.4 272.15 171.0 272.05 L172.0 272.0 172.0 273.0 Q171.5 273.0 171.3 273.25 168.4 277.0 163.0 280.0 L163.0 281.0 Q163.0 281.5 162.8 281.6 159.9 282.9 158.0 285.0 L158.0 286.0 157.15 286.25 Q143.9 295.7 127.0 285.0 L126.8 284.1 125.0 281.0 124.9 280.0 Q122.8 267.2 112.0 263.0 112.0 262.5 111.8 262.4 L103.0 257.0 Q103.05 263.55 109.0 262.5 L109.0 263.0 Q108.7 264.7 107.0 265.0 104.9 266.8 100.0 274.0 L100.0 275.0 Q99.5 275.0 99.4 275.2 98.7 276.7 97.0 277.0 L96.0 277.0 95.85 276.05 Q95.2 274.3 93.0 274.0 L92.25 273.75 Q90.55 271.95 90.0 269.0 L90.75 268.75 91.0 268.0 91.5 267.95 Q92.2 262.7 89.0 264.0 L89.85 266.05 90.0 267.0 89.25 266.75 Q88.1 265.65 83.0 265.0 L83.0 269.0 83.0 270.0 82.5 269.95 Q82.2 266.85 80.0 269.0 L79.95 268.0 Q79.05 259.95 75.0 255.0 L75.0 256.0 M81.0 246.0 Q81.0 246.5 81.25 246.85 85.3 253.25 81.0 246.0 M107.0 249.0 Q106.65 253.8 108.1 253.7 116.3 253.1 107.0 249.0 M156.0 253.0 L157.1 253.7 158.0 254.0 Q155.95 259.05 160.5 253.7 165.0 248.4 156.0 253.0 M148.1 283.15 Q151.8 280.75 151.35 280.6 145.45 278.2 140.0 282.0 143.5 286.1 148.1 283.15 M164.85 235.1 L164.0 234.0 Q166.25 241.55 162.0 245.0 171.7 244.15 164.85 235.1" fill="#393939" fill-opacity="0.99607843" fill-rule="evenodd" stroke="none"/>
    <path d="M137.0 230.0 L136.1 230.2 Q133.55 231.55 130.0 232.0 130.0 231.5 130.25 231.25 131.25 230.15 129.0 228.0 134.4 225.65 136.75 229.15 L137.0 230.0" fill="#88918a" fill-rule="evenodd" stroke="none"/>
    <path d="M125.0 238.0 L124.85 237.05 Q123.95 234.55 122.0 233.0 124.9 234.55 126.25 233.25 126.5 233.0 127.0 233.0 L126.8 233.9 126.0 235.0 Q127.95 235.95 130.75 238.3 L131.0 239.0 130.4 239.2 Q129.7 240.7 127.0 240.0 L126.75 239.25 125.0 238.0" fill="#939e97" fill-rule="evenodd" stroke="none"/>
    <path d="M128.0 233.0 Q131.4 234.6 131.5 239.0 L131.0 239.0 130.75 238.3 Q127.95 235.95 126.0 235.0 L126.8 233.9 127.0 233.0 128.0 233.0" fill="#6a726e" fill-rule="evenodd" stroke="none"/>
    <path d="M131.0 239.0 Q131.5 241.0 131.5 243.0 L131.0 243.0 130.25 242.75 Q128.8 241.2 127.0 240.0 129.7 240.7 130.4 239.2 L131.0 239.0" fill="#59645c" fill-rule="evenodd" stroke="none"/>
    <path d="M117.0 235.0 Q120.05 236.95 124.05 237.9 L125.0 238.0 126.75 239.25 127.0 240.0 Q126.5 240.0 126.15 240.25 125.0 241.0 124.0 242.0 123.75 245.25 126.95 245.5 L127.0 246.0 126.05 245.85 Q117.3 242.9 116.0 235.0 L117.0 235.0" fill="#463f46" fill-rule="evenodd" stroke="none"/>
    <path d="M131.0 243.0 Q131.0 243.5 131.25 243.85 131.95 245.0 128.0 246.0 L127.0 246.0 126.95 245.5 Q123.75 245.25 124.0 242.0 125.0 241.0 126.15 240.25 126.5 240.0 127.0 240.0 128.8 241.2 130.25 242.75 L131.0 243.0" fill="#180d11" fill-rule="evenodd" stroke="none"/>
    <path d="M81.0 213.0 L81.0 212.0 81.0 210.0 103.0 206.1 104.0 206.0 105.0 206.0 106.0 206.0 Q108.9 208.6 111.3 211.75 L112.0 212.0 112.0 213.0 111.0 213.0 111.0 214.0 111.0 215.0 110.0 215.05 Q108.45 215.1 107.0 218.0 108.75 219.7 111.25 217.25 111.5 217.0 112.0 217.0 111.6 222.4 118.0 221.1 L119.0 221.0 119.0 221.5 Q114.45 221.45 112.0 223.0 112.0 224.5 112.45 225.85 L113.0 226.0 Q113.0 226.5 113.25 226.75 L114.0 227.0 Q114.0 227.5 114.25 227.7 116.15 229.25 112.0 229.0 111.4 231.15 113.0 231.05 L114.0 231.0 113.9 231.95 Q113.15 234.9 111.0 233.0 111.35 238.5 115.2 235.25 L116.0 235.0 Q117.3 242.9 126.05 245.85 L127.0 246.0 128.0 246.0 126.9 246.7 Q125.3 247.3 125.9 247.75 130.05 250.7 135.2 252.35 145.75 255.75 151.0 259.0 150.35 262.35 146.95 262.65 140.05 263.25 150.0 265.0 148.1 267.1 145.3 266.55 137.1 264.9 131.75 259.15 124.4 251.25 115.0 252.0 L116.0 251.0 Q104.1 239.9 93.0 223.0 L93.8 220.95 94.3 219.3 Q94.45 226.65 101.0 223.0 99.8 220.45 101.0 220.45 104.45 220.4 102.4 219.65 99.3 218.45 98.6 214.9 L98.5 214.5 Q96.25 216.2 96.2 215.95 93.75 208.5 90.55 212.95 87.6 217.1 81.0 213.0 M112.9 240.0 Q119.55 239.35 109.0 238.0 110.2 240.3 112.9 240.0" fill="#606470" fill-opacity="0.99607843" fill-rule="evenodd" stroke="none"/>
    <path d="M157.0 225.0 Q157.0 226.0 157.4 226.8 L158.0 227.0 157.75 227.75 156.0 229.0 155.0 229.0 154.85 228.45 Q151.35 227.15 151.0 223.0 152.95 223.05 154.15 223.75 L155.0 224.0 Q155.5 224.5 156.1 224.8 L157.0 225.0" fill="#f9d97f" fill-rule="evenodd" stroke="none"/>
    <path d="M159.0 234.0 L158.75 233.15 Q158.05 231.95 158.0 230.0 159.65 230.15 159.5 228.0 L160.0 228.0 160.0 231.0 160.0 232.0 159.8 232.9 159.0 234.0" fill="#90978e" fill-rule="evenodd" stroke="none"/>
    <path d="M155.0 224.0 L154.15 223.75 Q152.95 223.05 151.0 223.0 151.35 227.15 154.85 228.45 L155.0 229.0 154.0 229.0 152.0 229.0 151.85 228.45 Q148.55 227.45 148.0 224.0 150.95 220.75 154.75 223.35 L155.0 224.0" fill="#f5ae62" fill-rule="evenodd" stroke="none"/>
    <path d="M156.0 229.0 L155.75 229.65 Q152.8 231.75 151.0 230.0 L151.0 229.0 152.0 229.0 154.0 229.0 155.0 229.0 156.0 229.0" fill="#fceeb2" fill-rule="evenodd" stroke="none"/>
    <path d="M160.0 232.0 Q164.9 240.65 159.7 243.35 159.15 243.65 158.9 242.6 158.65 241.3 158.35 241.8 155.3 247.15 148.8 243.35 146.5 242.0 145.45 240.15 143.8 237.35 140.0 234.0 L142.0 234.0 143.0 234.0 Q152.8 243.5 158.75 234.85 L159.0 234.0 159.8 232.9 160.0 232.0" fill="#6e766c" fill-rule="evenodd" stroke="none"/>
    <path d="M151.0 230.0 L150.0 230.1 Q146.8 230.7 146.0 229.0 L146.0 228.0 Q148.7 227.8 150.15 228.75 L151.0 229.0 151.0 230.0" fill="#ed9a4d" fill-rule="evenodd" stroke="none"/>
    <path d="M106.0 203.0 L106.0 202.0 106.0 198.0 Q110.35 201.15 114.5 203.0 L113.0 203.0 106.0 203.0" fill="#332d2e" fill-opacity="0.9019608" fill-rule="evenodd" stroke="none"/>
    <path d="M112.0 212.0 L111.3 211.75 Q108.9 208.6 106.0 206.0 111.6 204.05 115.75 208.25 L116.0 209.0 115.1 209.2 114.0 210.0 114.0 211.0 113.1 211.2 112.0 212.0" fill="#3f4048" fill-rule="evenodd" stroke="none"/>
    <path d="M114.0 211.0 L114.0 210.0 115.1 209.2 116.0 209.0 118.0 209.0 119.0 209.0 118.75 209.75 117.0 211.0 Q116.5 211.0 116.35 211.25 115.0 213.35 114.0 211.0" fill="#f2f4ed" fill-rule="evenodd" stroke="none"/>
    <path d="M112.0 217.0 Q111.5 217.0 111.25 217.25 108.75 219.7 107.0 218.0 108.45 215.1 110.0 215.05 L111.0 215.0 111.8 216.1 112.0 217.0" fill="#8b929c" fill-rule="evenodd" stroke="none"/>
    <path d="M112.0 213.0 L112.0 212.0 113.1 211.2 114.0 211.0 Q115.0 213.35 116.35 211.25 116.5 211.0 117.0 211.0 L116.8 211.9 Q113.65 217.9 112.0 213.0" fill="#f2f8e9" fill-rule="evenodd" stroke="none"/>
    <path d="M81.0 246.0 Q85.3 253.25 81.25 246.85 81.0 246.5 81.0 246.0" fill="#151010" fill-rule="evenodd" stroke="none"/>
    <path d="M121.0 225.0 L120.75 225.85 119.0 228.0 118.15 227.75 Q116.7 226.8 114.0 227.0 L113.25 226.75 Q113.0 226.5 113.0 226.0 L113.0 225.0 113.0 224.0 Q119.75 222.2 120.8 224.1 L121.0 225.0" fill="#14090a" fill-rule="evenodd" stroke="none"/>
    <path d="M119.0 228.0 L118.8 228.9 118.0 230.0 118.0 229.5 Q116.7 230.25 114.0 230.0 L114.0 231.0 113.0 231.05 Q111.4 231.15 112.0 229.0 116.15 229.25 114.25 227.7 114.0 227.5 114.0 227.0 116.7 226.8 118.15 227.75 L119.0 228.0" fill="#423941" fill-rule="evenodd" stroke="none"/>
    <path d="M118.0 230.0 L117.8 230.9 117.0 232.0 117.0 234.0 117.0 235.0 116.0 235.0 115.2 235.25 Q111.35 238.5 111.0 233.0 113.15 234.9 113.9 231.95 L114.0 231.0 114.0 230.0 Q116.7 230.25 118.0 229.5 L118.0 230.0" fill="#2d2c32" fill-rule="evenodd" stroke="none"/>
    <path d="M112.9 240.0 Q110.2 240.3 109.0 238.0 119.55 239.35 112.9 240.0" fill="#393b45" fill-rule="evenodd" stroke="none"/>
    <path d="M107.0 249.0 Q116.3 253.1 108.1 253.7 106.65 253.8 107.0 249.0" fill="#685e57" fill-rule="evenodd" stroke="none"/>
    <path d="M109.0 263.0 L109.0 262.5 Q103.05 263.55 103.0 257.0 L111.8 262.4 Q112.0 262.5 112.0 263.0 L111.0 263.0 109.0 263.0" fill="#271006" fill-rule="evenodd" stroke="none"/>
    <path d="M109.0 263.0 L111.0 263.0 112.0 263.0 Q122.8 267.2 124.9 280.0 L125.0 281.0 125.0 282.0 125.0 283.0 122.45 278.3 Q121.15 275.85 118.3 276.4 112.85 277.55 104.0 280.0 L104.0 279.0 104.0 277.0 104.75 276.75 Q109.95 271.5 100.0 275.0 L100.0 274.0 Q104.9 266.8 107.0 265.0 108.7 264.7 109.0 263.0" fill="#81420f" fill-opacity="0.9411765" fill-rule="evenodd" stroke="none"/>
    <path d="M90.0 267.0 L89.85 266.05 89.0 264.0 Q92.2 262.7 91.5 267.95 L91.0 268.0 90.25 267.75 90.0 267.0" fill="#886a4a" fill-rule="evenodd" stroke="none"/>
    <path d="M85.0 272.0 L84.0 272.0 77.0 272.0 76.4 271.8 Q75.7 270.3 74.0 270.0 L73.85 269.45 Q66.9 266.7 61.0 268.0 59.45 266.55 58.15 266.65 53.65 267.0 50.0 265.0 54.0 265.5 55.35 263.2 55.5 263.0 56.0 263.0 64.3 265.05 64.05 262.0 L64.0 261.0 65.75 262.25 66.0 263.0 Q65.4 265.15 67.0 265.05 L68.0 265.0 Q73.5 268.6 72.2 265.9 L72.0 265.0 71.95 264.5 Q69.3 264.2 69.0 262.0 L69.0 261.0 Q71.0 261.5 72.25 262.75 L73.0 263.0 Q76.95 269.6 80.0 269.5 L80.0 269.0 Q82.2 266.85 82.5 269.95 L83.0 270.0 Q83.5 270.5 84.1 270.8 L85.0 271.0 85.0 272.0" fill="#281e16" fill-opacity="0.78431374" fill-rule="evenodd" stroke="none"/>
    <path d="M90.0 276.0 L89.8 275.35 Q87.85 274.15 87.0 272.0 L87.5 272.0 Q87.4 267.55 85.0 269.0 L85.0 270.0 85.0 271.0 84.1 270.8 Q83.5 270.5 83.0 270.0 L83.0 269.0 83.0 265.0 Q88.1 265.65 89.25 266.75 L90.0 267.0 90.25 267.75 91.0 268.0 90.75 268.75 90.0 269.0 Q90.55 271.95 92.25 273.75 L93.0 274.0 92.75 274.75 91.0 276.0 90.0 276.0" fill="#8b613b" fill-opacity="0.99215686" fill-rule="evenodd" stroke="none"/>
    <path d="M87.0 272.0 L86.0 272.0 85.0 272.0 85.0 271.0 85.0 270.0 85.0 269.0 Q87.4 267.55 87.5 272.0 L87.0 272.0" fill="#bf773d" fill-opacity="0.99607843" fill-rule="evenodd" stroke="none"/>
    <path d="M96.0 277.0 L97.0 277.0 96.75 277.75 95.0 279.0 Q95.3 280.7 97.0 280.95 L98.0 281.0 98.0 282.0 97.0 282.0 91.0 282.0 90.0 282.05 Q88.4 282.15 89.0 280.0 90.05 279.05 92.0 279.0 L93.0 279.0 95.15 277.25 Q95.5 277.0 96.0 277.0" fill="#452f1d" fill-opacity="0.84705883" fill-rule="evenodd" stroke="none"/>
    <path d="M100.0 275.0 Q109.95 271.5 104.75 276.75 L104.0 277.0 Q103.5 277.0 103.15 277.25 100.5 279.0 98.0 281.0 L97.0 280.95 Q95.3 280.7 95.0 279.0 L96.75 277.75 97.0 277.0 Q98.7 276.7 99.4 275.2 99.5 275.0 100.0 275.0" fill="#b46728" fill-opacity="0.99607843" fill-rule="evenodd" stroke="none"/>
    <path d="M93.0 274.0 Q95.2 274.3 95.85 276.05 L96.0 277.0 Q95.5 277.0 95.15 277.25 L93.0 279.0 92.8 278.4 Q91.3 277.7 91.0 276.0 L92.75 274.75 93.0 274.0" fill="#b97e4f" fill-opacity="0.9882353" fill-rule="evenodd" stroke="none"/>
    <path d="M91.0 283.0 Q89.5 283.0 88.85 282.25 88.15 281.4 87.25 282.8 81.55 292.05 66.0 291.0 L65.25 290.75 Q65.0 290.5 65.0 290.0 L65.0 289.0 Q73.45 289.45 74.4 287.9 74.95 287.05 75.6 286.8 81.35 284.95 76.0 284.0 L75.85 283.05 Q75.2 281.3 72.0 282.0 L71.0 282.0 71.0 281.0 78.0 280.05 Q77.4 282.15 78.95 282.35 L81.4 282.55 Q91.35 280.15 78.25 280.0 84.5 278.8 89.8 276.6 L90.0 276.0 91.0 276.0 Q91.3 277.7 92.8 278.4 L93.0 279.0 92.0 279.0 Q90.05 279.05 89.0 280.0 88.4 282.15 90.0 282.05 L91.0 282.0 91.0 283.0" fill="#1d1613" fill-opacity="0.52156866" fill-rule="evenodd" stroke="none"/>
    <path d="M128.0 293.0 L127.0 293.05 Q120.55 293.6 112.0 293.0 112.0 292.5 111.8 292.4 101.6 287.4 91.0 283.0 L91.0 282.0 97.0 282.0 98.0 282.0 Q111.55 284.95 122.5 289.9 125.0 291.0 128.0 291.0 L128.0 292.0 128.0 293.0" fill="#2a1504" fill-opacity="0.4" fill-rule="evenodd" stroke="none"/>
    <path d="M104.0 277.0 L104.0 279.0 104.0 280.0 103.8 280.65 Q101.5 282.0 98.0 282.0 L98.0 281.0 Q100.5 279.0 103.15 277.25 103.5 277.0 104.0 277.0" fill="#6e441e" fill-opacity="0.9882353" fill-rule="evenodd" stroke="none"/>
    <path d="M104.0 280.0 Q112.85 277.55 118.3 276.4 121.15 275.85 122.45 278.3 L125.0 283.0 Q125.3 286.2 127.2 287.75 L128.0 288.0 128.0 290.0 128.0 291.0 Q125.0 291.0 122.5 289.9 111.55 284.95 98.0 282.0 101.5 282.0 103.8 280.65 L104.0 280.0" fill="#53290a" fill-opacity="0.6862745" fill-rule="evenodd" stroke="none"/>
    <path d="M106.85 294.1 Q109.45 298.85 101.0 297.0 L105.05 293.3 Q106.0 292.5 106.85 294.1" fill="#100b09" fill-opacity="0.34117648" fill-rule="evenodd" stroke="none"/>
    <path d="M156.0 253.0 Q165.0 248.4 160.5 253.7 155.95 259.05 158.0 254.0 L157.1 253.7 156.0 253.0" fill="#5c6473" fill-rule="evenodd" stroke="none"/>
    <path d="M125.0 281.0 L126.8 284.1 127.0 285.0 Q126.4 287.15 127.9 287.5 L128.0 288.0 127.2 287.75 Q125.3 286.2 125.0 283.0 L125.0 282.0 125.0 281.0" fill="#6a3710" fill-opacity="0.8" fill-rule="evenodd" stroke="none"/>
    <path d="M127.0 285.0 Q143.9 295.7 157.15 286.25 L158.0 286.0 158.5 286.05 Q158.7 287.7 157.0 288.0 L157.0 289.0 Q156.5 289.0 156.25 289.25 153.8 291.85 151.0 294.0 L151.0 295.0 Q149.9 300.25 144.5 298.45 142.8 297.85 138.2 298.95 L138.0 299.0 Q137.45 293.55 132.0 292.0 L131.5 292.1 Q131.15 293.65 129.0 293.0 L128.8 292.1 128.0 291.0 128.0 290.0 128.0 288.0 127.9 287.5 Q126.4 287.15 127.0 285.0" fill="#ae632b" fill-opacity="0.99607843" fill-rule="evenodd" stroke="none"/>
    <path d="M175.0 296.0 Q175.0 295.5 174.8 295.4 173.3 294.7 173.0 293.0 L173.5 293.0 Q173.65 279.5 170.0 288.0 L170.95 292.0 171.0 293.0 170.0 293.1 166.0 294.0 166.0 295.0 165.1 295.2 152.0 302.0 151.1 302.2 Q147.9 303.9 143.0 304.0 L142.1 303.8 139.0 302.0 Q137.35 299.9 134.65 301.4 L134.5 301.5 133.85 303.3 133.0 303.0 133.15 304.5 Q130.6 308.25 126.0 304.0 127.0 304.0 127.8 303.6 L128.0 303.0 128.8 302.75 Q131.15 300.7 128.0 298.0 L128.0 297.0 128.0 293.0 128.0 292.0 128.0 291.0 128.8 292.1 129.0 293.0 Q130.9 300.7 131.95 293.0 L132.0 292.0 Q137.45 293.55 138.0 299.0 L138.2 298.95 Q142.8 297.85 144.5 298.45 149.9 300.25 151.0 295.0 156.05 294.55 156.9 290.0 L157.0 289.0 Q161.3 286.3 163.8 281.9 L164.0 281.0 Q171.75 280.25 172.5 273.0 L172.0 273.0 172.0 272.0 Q175.15 268.65 175.0 265.0 L175.0 264.0 Q176.65 264.15 176.5 262.0 L177.0 262.0 Q179.95 269.2 181.5 256.0 185.0 263.25 188.05 271.05 L188.85 270.05 Q194.6 263.3 200.0 270.0 L199.5 270.0 Q199.3 274.15 196.0 276.0 L197.1 276.8 198.0 277.0 197.75 277.85 Q196.45 279.95 193.0 280.0 197.95 281.85 206.1 277.2 L207.0 277.0 206.95 278.0 Q206.7 279.7 205.0 280.0 L204.45 280.1 Q203.7 283.2 201.0 284.0 L202.25 285.75 203.0 286.0 202.75 286.75 202.0 287.0 202.0 288.0 202.0 288.5 Q200.1 286.6 196.0 288.0 L196.0 289.0 195.2 289.25 Q192.5 291.5 189.0 293.0 L188.0 293.0 187.9 292.0 Q186.5 284.85 184.0 292.0 184.0 291.5 183.8 291.4 179.05 288.8 175.0 292.0 177.6 297.55 184.05 295.15 L185.0 295.0 184.75 295.65 Q181.95 297.45 178.0 298.0 177.5 298.0 177.4 297.8 176.7 296.3 175.0 296.0 M181.0 256.0 L181.0 255.0 181.5 256.0 181.0 256.0 M179.0 279.0 Q179.55 280.95 181.95 281.3 L187.0 281.5 188.0 281.5 Q188.8 276.35 179.0 279.0 M188.0 285.0 L188.0 285.5 Q196.8 282.35 188.0 285.0" fill="#41301f" fill-opacity="0.9882353" fill-rule="evenodd" stroke="none"/>
    <path d="M129.0 293.0 Q131.15 293.65 131.5 292.1 L132.0 292.0 131.95 293.0 Q130.9 300.7 129.0 293.0" fill="#626565" fill-rule="evenodd" stroke="none"/>
    <path d="M148.1 283.15 Q143.5 286.1 140.0 282.0 145.45 278.2 151.35 280.6 151.8 280.75 148.1 283.15" fill="#190e0c" fill-rule="evenodd" stroke="none"/>
    <path d="M151.0 295.0 L151.0 294.0 Q153.8 291.85 156.25 289.25 156.5 289.0 157.0 289.0 L156.9 290.0 Q156.05 294.55 151.0 295.0" fill="#894c1d" fill-rule="evenodd" stroke="none"/>
    <path d="M158.0 286.0 L158.0 285.0 Q159.9 282.9 162.8 281.6 163.0 281.5 163.0 281.0 L164.0 281.0 163.8 281.9 Q161.3 286.3 157.0 289.0 L157.0 288.0 Q158.7 287.7 158.5 286.05 L158.0 286.0" fill="#874616" fill-rule="evenodd" stroke="none"/>
    <path d="M56.0 208.0 L55.85 207.45 Q53.8 206.7 54.0 204.0 56.95 202.0 59.3 204.75 59.5 205.0 60.0 205.0 L60.2 205.9 Q63.2 212.0 56.0 208.0" fill="#525862" fill-opacity="0.90588236" fill-rule="evenodd" stroke="none"/>
    <path d="M69.0 241.0 L68.75 240.2 Q66.65 237.85 66.0 234.0 L66.0 233.0 66.0 226.0 Q67.2 231.35 71.0 228.5 L70.25 229.1 Q66.5 232.25 69.7 236.05 L71.25 238.3 Q72.65 240.75 69.0 241.0" fill="#535b61" fill-opacity="0.9843137" fill-rule="evenodd" stroke="none"/>
    <path d="M67.0 258.0 Q70.75 256.05 75.0 257.5 L75.0 257.0 75.55 257.15 Q76.4 259.95 73.0 259.0 74.45 260.5 73.25 262.15 73.0 262.5 73.0 263.0 L72.25 262.75 Q71.0 261.5 69.0 261.0 L68.15 260.75 Q67.05 259.95 67.0 258.0" fill="#80543a" fill-opacity="0.9019608" fill-rule="evenodd" stroke="none"/>
    <path d="M75.0 257.0 L75.0 256.0 75.0 255.0 Q79.05 259.95 79.95 268.0 L80.0 269.0 80.0 269.5 Q76.95 269.6 73.0 263.0 73.0 262.5 73.25 262.15 74.45 260.5 73.0 259.0 76.4 259.95 75.55 257.15 L75.0 257.0" fill="#b1652b" fill-opacity="0.99215686" fill-rule="evenodd" stroke="none"/>
    <path d="M64.0 260.0 Q65.7 259.7 66.4 258.2 66.5 258.0 67.0 258.0 67.05 259.95 68.15 260.75 L69.0 261.0 69.0 262.0 68.5 262.1 Q68.15 263.65 66.0 263.0 L65.75 262.25 64.0 261.0 64.0 260.0" fill="#080707" fill-opacity="0.16078432" fill-rule="evenodd" stroke="none"/>
    <path d="M69.0 262.0 Q69.3 264.2 71.95 264.5 L72.0 265.0 71.0 265.0 68.0 265.0 67.0 265.05 Q65.4 265.15 66.0 263.0 68.15 263.65 68.5 262.1 L69.0 262.0" fill="#443d3b" fill-opacity="0.7294118" fill-rule="evenodd" stroke="none"/>
    <path d="M56.0 263.0 Q56.0 262.5 56.25 262.3 61.65 258.1 53.0 255.0 59.7 255.8 63.75 259.3 L64.0 260.0 64.0 261.0 64.05 262.0 Q64.3 265.05 56.0 263.0" fill="#15120f" fill-opacity="0.39607844" fill-rule="evenodd" stroke="none"/>
    <path d="M72.0 265.0 L72.2 265.9 Q73.5 268.6 68.0 265.0 L71.0 265.0 72.0 265.0" fill="#15110f" fill-opacity="0.36078432" fill-rule="evenodd" stroke="none"/>
    <path d="M77.0 272.0 L76.9 272.55 73.0 273.0 72.8 272.1 72.0 271.0 72.0 270.0 73.0 270.0 74.0 270.0 Q75.7 270.3 76.4 271.8 L77.0 272.0" fill="#0a0706" fill-opacity="0.39607844" fill-rule="evenodd" stroke="none"/>
    <path d="M73.0 273.0 L72.1 273.2 67.0 275.0 67.0 276.0 67.0 277.0 Q66.5 277.0 66.3 276.75 64.9 275.1 62.0 275.0 L62.0 276.0 61.0 276.05 Q59.4 276.15 60.0 274.0 67.0 274.0 71.15 271.25 71.5 271.0 72.0 271.0 L72.8 272.1 73.0 273.0" fill="#1b1714" fill-opacity="0.49803922" fill-rule="evenodd" stroke="none"/>
    <path d="M61.0 268.0 Q52.9 266.6 46.5 273.45 L46.0 274.0 Q49.25 269.6 43.0 267.0 46.8 266.8 49.15 265.25 L50.0 265.0 Q53.65 267.0 58.15 266.65 59.45 266.55 61.0 268.0" fill="#140f0d" fill-opacity="0.49803922" fill-rule="evenodd" stroke="none"/>
    <path d="M44.0 282.0 L44.0 282.5 Q40.0 282.05 35.25 279.15 37.65 280.55 42.0 280.05 L43.0 280.0 Q43.0 281.0 43.4 281.8 L44.0 282.0" fill="#120e0c" fill-opacity="0.29803923" fill-rule="evenodd" stroke="none"/>
    <path d="M72.7 284.2 Q66.2 284.45 57.95 284.1 49.7 283.7 44.0 282.0 L43.4 281.8 Q43.0 281.0 43.0 280.0 58.9 279.1 70.05 281.9 L71.0 282.0 72.0 282.0 71.75 282.75 71.0 283.0 Q71.45 283.95 72.7 284.2" fill="#1f1815" fill-opacity="0.5764706" fill-rule="evenodd" stroke="none"/>
    <path d="M72.0 274.0 Q79.85 277.85 72.2 274.6 L72.0 274.0" fill="#0f0c0a" fill-opacity="0.32941177" fill-rule="evenodd" stroke="none"/>
    <path d="M76.0 284.0 L75.35 284.05 75.0 284.1 72.7 284.2 Q71.45 283.95 71.0 283.0 L71.75 282.75 72.0 282.0 Q75.2 281.3 75.85 283.05 L76.0 284.0" fill="#482d20" fill-opacity="0.9254902" fill-rule="evenodd" stroke="none"/>
    <path d="M78.0 280.05 L78.0 280.0 78.25 280.0 Q91.35 280.15 81.4 282.55 L78.95 282.35 Q77.4 282.15 78.0 280.05" fill="#3f342d" fill-opacity="0.9019608" fill-rule="evenodd" stroke="none"/>
    <path d="M67.0 277.0 L66.85 277.55 Q62.75 278.75 62.0 276.0 L62.0 275.0 Q64.9 275.1 66.3 276.75 66.5 277.0 67.0 277.0" fill="#171310" fill-opacity="0.6509804" fill-rule="evenodd" stroke="none"/>
    <path d="M66.0 291.0 L65.85 291.55 Q61.55 293.0 60.0 292.0 62.35 291.35 64.15 290.2 L65.0 290.0 Q65.0 290.5 65.25 290.75 L66.0 291.0" fill="#0e0b09" fill-opacity="0.40392157" fill-rule="evenodd" stroke="none"/>
    <path d="M70.0 303.0 Q86.7 304.75 70.05 303.5 L70.0 303.0" fill="#130f0e" fill-opacity="0.39215687" fill-rule="evenodd" stroke="none"/>
    <path d="M152.0 302.0 L151.8 302.65 Q149.5 304.0 147.0 305.0 L146.0 305.1 Q143.3 305.7 143.0 304.0 147.9 303.9 151.1 302.2 L152.0 302.0" fill="#26180d" fill-opacity="0.5019608" fill-rule="evenodd" stroke="none"/>
    <path d="M147.0 305.0 L147.0 305.5 Q141.35 305.35 139.0 308.0 L139.05 307.0 Q139.15 305.4 137.0 306.0 L137.0 305.0 137.0 302.0 138.0 302.0 139.0 302.0 142.1 303.8 143.0 304.0 Q143.3 305.7 146.0 305.1 L147.0 305.0" fill="#090806" fill-opacity="0.29411766" fill-rule="evenodd" stroke="none"/>
    <path d="M139.0 308.0 Q139.0 312.55 135.0 312.85 L133.0 313.0 Q133.15 306.9 122.0 305.0 L122.0 304.0 122.75 303.75 123.0 303.0 Q126.2 303.7 127.3 302.25 127.5 302.0 128.0 302.0 L128.0 303.0 127.8 303.6 Q127.0 304.0 126.0 304.0 130.6 308.25 133.15 304.5 L133.75 306.15 134.0 307.0 133.0 307.0 Q134.25 310.1 138.1 308.2 L139.0 308.0 M139.0 302.0 L138.0 302.0 137.0 302.0 137.0 305.0 137.0 306.0 136.0 306.0 135.8 305.1 Q135.2 303.85 133.85 303.3 L134.5 301.5 134.65 301.4 Q137.35 299.9 139.0 302.0" fill="#241d17" fill-opacity="0.7372549" fill-rule="evenodd" stroke="none"/>
    <path d="M134.0 307.0 L133.75 306.15 133.15 304.5 133.0 303.0 133.85 303.3 Q135.2 303.85 135.8 305.1 L136.0 306.0 Q136.0 306.5 135.8 306.6 L134.0 307.0" fill="#513b25" fill-opacity="0.99215686" fill-rule="evenodd" stroke="none"/>
    <path d="M137.0 306.0 Q139.15 305.4 139.05 307.0 L139.0 308.0 138.1 308.2 Q134.25 310.1 133.0 307.0 L134.0 307.0 135.8 306.6 Q136.0 306.5 136.0 306.0 L137.0 306.0" fill="#664227" fill-opacity="0.8627451" fill-rule="evenodd" stroke="none"/>
    <path d="M128.0 302.0 L128.0 301.0 128.0 298.0 Q131.15 300.7 128.8 302.75 L128.0 303.0 128.0 302.0" fill="#6d675f" fill-rule="evenodd" stroke="none"/>
    <path d="M122.0 305.0 Q119.1 305.1 119.5 306.6 120.65 310.65 113.0 313.0 L112.1 312.8 Q111.5 312.5 111.0 312.0 L111.75 311.75 Q115.8 307.9 111.0 306.0 L111.0 305.0 111.0 304.0 Q117.65 304.65 122.05 303.15 L123.0 303.0 122.75 303.75 122.0 304.0 122.0 305.0" fill="#25201d" fill-opacity="0.62352943" fill-rule="evenodd" stroke="none"/>
    <path d="M129.05 318.95 Q124.2 324.2 117.0 322.0 L129.95 317.95 129.05 318.95" fill="#130f0e" fill-opacity="0.41960785" fill-rule="evenodd" stroke="none"/>
    <path d="M111.0 306.0 L110.05 306.15 Q105.85 307.85 101.0 309.0 L100.0 309.05 Q95.25 309.75 93.0 308.0 L94.0 307.95 Q99.3 307.4 93.0 306.0 L93.0 305.0 110.0 304.0 111.0 304.0 111.0 305.0 111.0 306.0" fill="#1f1916" fill-opacity="0.54509807" fill-rule="evenodd" stroke="none"/>
    <path d="M113.0 313.0 L112.9 313.95 Q111.5 319.05 109.0 313.0 L110.1 312.2 111.0 312.0 Q111.5 312.5 112.1 312.8 L113.0 313.0" fill="#110d0c" fill-opacity="0.44705883" fill-rule="evenodd" stroke="none"/>
    <path d="M98.0 299.0 Q111.35 300.95 98.05 299.5 L98.0 299.0" fill="#120e0c" fill-opacity="0.3019608" fill-rule="evenodd" stroke="none"/>
    <path d="M101.0 309.0 L100.9 309.5 Q94.25 310.75 90.0 309.0 L92.05 308.15 93.0 308.0 Q95.25 309.75 100.0 309.05 L101.0 309.0" fill="#130e0b" fill-opacity="0.49803922" fill-rule="evenodd" stroke="none"/>
    <path d="M93.0 306.0 L92.0 306.0 Q87.9 306.1 87.0 303.0 89.75 303.75 92.1 304.8 L93.0 305.0 93.0 306.0" fill="#130f0d" fill-opacity="0.41960785" fill-rule="evenodd" stroke="none"/>
    <path d="M101.0 316.0 Q108.5 312.3 105.75 314.45 102.55 317.0 101.0 316.0" fill="#14100e" fill-opacity="0.29803923" fill-rule="evenodd" stroke="none"/>
    <path d="M254.0 246.0 Q260.45 240.95 267.9 236.85 L283.1 228.4 Q289.25 224.9 293.0 228.0 L292.75 228.8 Q276.8 249.3 252.0 261.0 242.8 263.9 242.6 258.0 242.5 255.3 240.0 250.0 242.15 250.65 242.5 249.1 L243.0 249.0 Q243.6 255.7 246.85 254.55 L247.0 254.0 Q248.7 253.7 249.4 252.2 249.5 252.0 250.0 252.0 253.25 250.75 253.9 247.0 L254.0 246.0" fill="#37302b" fill-opacity="0.972549" fill-rule="evenodd" stroke="none"/>
    <path d="M264.0 213.0 Q266.0 215.0 265.5 218.95 L265.0 219.0 264.75 218.2 Q262.9 216.1 262.0 213.0 L264.0 213.5 264.0 213.0" fill="#232727" fill-opacity="0.60784316" fill-rule="evenodd" stroke="none"/>
    <path d="M246.0 226.0 L246.0 225.0 Q252.75 214.25 262.2 211.7 263.7 211.3 264.0 213.0 L264.0 213.5 262.0 213.0 Q262.9 216.1 264.75 218.2 L265.0 219.0 264.9 220.0 Q264.5 222.0 263.0 223.0 257.85 220.45 252.8 227.05 247.0 234.65 246.0 226.0" fill="#343a3c" fill-opacity="0.93333334" fill-rule="evenodd" stroke="none"/>
    <path d="M242.0 228.0 Q243.5 229.45 245.35 226.2 245.5 226.0 246.0 226.0 247.0 234.65 252.8 227.05 257.85 220.45 263.0 223.0 L262.75 223.85 261.0 226.0 260.75 225.35 Q259.15 224.2 257.0 228.0 256.8 231.15 259.2 229.25 L260.0 229.0 259.8 229.9 Q255.1 238.1 250.0 246.0 L250.0 247.0 250.0 248.0 249.75 248.75 249.0 249.0 249.0 250.0 248.1 250.2 Q247.5 250.5 247.0 251.0 L246.1 250.8 243.0 249.0 242.5 249.1 Q242.15 250.65 240.0 250.0 242.5 255.3 242.6 258.0 242.8 263.9 252.0 261.0 L252.0 262.0 251.0 262.1 Q244.4 263.4 240.0 267.0 240.15 265.4 237.95 265.7 L236.05 265.95 Q239.15 263.65 236.6 258.7 L236.0 257.5 Q229.9 271.4 219.0 282.0 L219.0 283.0 218.0 283.0 217.15 282.75 Q215.95 282.05 214.0 282.0 L213.75 281.35 Q210.5 279.0 207.0 277.0 207.0 276.5 207.25 276.3 211.0 273.55 204.0 274.0 L203.75 273.3 Q201.75 271.75 200.0 270.0 194.6 263.3 188.85 270.05 L188.05 271.05 Q185.0 263.25 181.5 256.0 L181.0 255.0 181.0 256.0 180.75 256.8 Q178.65 259.15 177.0 262.0 L176.5 262.0 Q176.65 264.15 175.0 264.0 174.0 261.55 172.0 260.0 171.8 250.45 169.0 242.0 L170.0 242.0 Q172.95 247.9 176.75 242.8 L177.0 242.0 Q185.95 248.65 189.2 251.75 191.8 254.25 194.0 254.2 L195.5 255.5 Q196.0 256.0 197.0 256.0 199.65 253.65 193.05 250.9 184.85 247.55 190.0 248.0 202.2 255.5 207.55 253.65 208.0 253.5 209.3 254.65 214.0 258.85 215.0 255.0 219.0 259.7 218.05 262.05 L218.55 261.15 Q222.0 255.15 224.0 262.0 228.65 259.55 230.0 254.0 L230.0 253.9 Q229.3 247.8 234.0 246.0 233.8 241.65 236.65 239.55 240.3 236.85 242.0 228.0 M250.0 234.0 Q249.3 236.7 250.5 236.05 260.05 231.2 250.0 234.0" fill="#1e1d1a" fill-opacity="0.99607843" fill-rule="evenodd" stroke="none"/>
    <path d="M261.0 226.0 L260.8 226.9 260.0 228.0 260.0 229.0 259.2 229.25 Q256.8 231.15 257.0 228.0 259.15 224.2 260.75 225.35 L261.0 226.0" fill="#2e3031" fill-opacity="0.9882353" fill-rule="evenodd" stroke="none"/>
    <path d="M250.0 248.0 Q252.0 247.5 253.25 246.25 253.5 246.0 254.0 246.0 L253.9 247.0 Q253.25 250.75 250.0 252.0 L249.8 251.1 249.0 250.0 249.0 249.0 249.75 248.75 250.0 248.0" fill="#86461a" fill-opacity="0.92156863" fill-rule="evenodd" stroke="none"/>
    <path d="M250.0 234.0 Q260.05 231.2 250.5 236.05 249.3 236.7 250.0 234.0" fill="#2e3536" fill-rule="evenodd" stroke="none"/>
    <path d="M273.0 265.0 L273.0 264.0 273.0 261.0 Q275.95 257.45 278.4 253.2 278.5 253.0 279.0 253.0 L279.5 253.0 Q278.75 260.25 274.0 264.0 L274.0 265.0 273.0 265.0" fill="#4e5559" fill-opacity="0.92941177" fill-rule="evenodd" stroke="none"/>
    <path d="M279.0 253.0 L279.0 252.0 Q282.4 253.1 282.5 258.0 L283.0 258.0 282.75 258.75 282.0 259.0 Q282.0 260.5 282.45 261.85 L283.0 262.0 284.8 262.4 285.0 263.0 284.0 263.0 283.0 263.0 Q282.3 266.7 283.75 268.25 L284.0 269.0 284.0 270.0 Q284.0 271.5 284.45 272.85 284.5 273.0 285.0 273.0 284.9 274.65 287.0 274.5 L287.0 275.0 286.0 275.0 283.0 275.0 283.0 276.0 282.0 276.0 281.0 276.0 280.15 276.2 Q276.8 278.25 274.0 276.0 L273.8 275.1 273.0 274.0 Q278.0 267.6 274.2 265.6 274.0 265.5 274.0 265.0 L274.0 264.0 Q278.75 260.25 279.5 253.0 L279.0 253.0" fill="#2a271c" fill-opacity="0.9137255" fill-rule="evenodd" stroke="none"/>
    <path d="M283.0 258.0 Q285.0 255.0 287.75 252.7 L288.0 252.0 Q290.15 252.45 290.75 253.2 L291.0 254.0 290.8 254.65 Q286.35 257.35 283.0 261.0 L283.0 262.0 282.45 261.85 Q282.0 260.5 282.0 259.0 L282.75 258.75 283.0 258.0" fill="#706b69" fill-opacity="0.94509804" fill-rule="evenodd" stroke="none"/>
    <path d="M272.0 267.0 L272.0 266.0 272.0 265.0 273.0 265.0 274.0 265.0 Q274.0 265.5 274.2 265.6 278.0 267.6 273.0 274.0 L272.9 273.5 Q271.4 273.15 272.0 271.0 L272.0 270.0 272.0 267.0" fill="#464137" fill-opacity="0.972549" fill-rule="evenodd" stroke="none"/>
    <path d="M252.0 262.0 Q266.45 262.1 257.05 265.95 L258.9 265.55 Q267.2 263.6 272.0 267.0 L272.0 270.0 272.0 271.0 Q267.85 270.65 264.8 269.7 255.9 266.95 261.5 271.35 L262.7 272.3 Q255.35 266.9 243.0 269.0 243.8 270.7 247.0 270.5 L247.0 271.0 246.0 271.0 235.0 271.0 235.0 270.0 235.0 269.0 Q237.9 268.9 239.3 267.25 239.5 267.0 240.0 267.0 244.4 263.4 251.0 262.1 L252.0 262.0" fill="#1d1612" fill-opacity="0.59607846" fill-rule="evenodd" stroke="none"/>
    <path d="M274.0 276.0 L273.0 276.0 273.0 277.0 Q270.45 276.35 265.45 277.75 L265.35 277.8 Q260.9 277.85 256.2 278.95 248.8 278.6 245.0 273.0 247.7 273.2 247.5 271.05 L247.0 271.0 247.0 270.5 Q243.8 270.7 243.0 269.0 255.35 266.9 262.7 272.3 L261.5 271.35 Q255.9 266.95 264.8 269.7 267.85 270.65 272.0 271.0 271.4 273.15 272.9 273.5 L273.0 274.0 273.8 275.1 274.0 276.0" fill="#050403" fill-opacity="0.20392157" fill-rule="evenodd" stroke="none"/>
    <path d="M289.0 251.0 L289.0 250.0 Q293.65 243.25 297.75 248.05 299.0 249.5 297.75 250.95 295.05 254.05 294.0 259.0 L293.5 259.0 Q293.65 261.15 292.0 261.0 296.65 261.65 293.2 263.4 293.0 263.5 293.0 264.0 L292.0 264.0 Q287.85 264.15 285.0 263.0 L284.8 262.4 283.0 262.0 283.0 261.0 Q286.35 257.35 290.8 254.65 L291.0 254.0 291.6 253.8 Q296.1 245.55 289.0 251.0" fill="#363530" fill-opacity="0.92941177" fill-rule="evenodd" stroke="none"/>
    <path d="M250.0 252.0 Q249.5 252.0 249.4 252.2 248.7 253.7 247.0 254.0 246.5 254.0 246.4 253.8 246.0 253.0 246.0 252.0 L246.75 251.75 247.0 251.0 Q247.5 250.5 248.1 250.2 L249.0 250.0 249.8 251.1 250.0 252.0" fill="#be611e" fill-rule="evenodd" stroke="none"/>
    <path d="M247.0 251.0 L246.75 251.75 246.0 252.0 Q246.0 253.0 246.4 253.8 246.5 254.0 247.0 254.0 L246.85 254.55 Q243.6 255.7 243.0 249.0 L246.1 250.8 247.0 251.0" fill="#924d1c" fill-rule="evenodd" stroke="none"/>
    <path d="M235.0 271.0 L246.0 271.0 247.0 271.0 247.5 271.05 Q247.7 273.2 245.0 273.0 L244.45 273.15 Q243.1 277.35 239.0 273.0 L239.0 272.5 Q235.8 272.7 235.0 271.0" fill="#443124" fill-opacity="0.9019608" fill-rule="evenodd" stroke="none"/>
    <path d="M273.0 277.0 L273.0 278.5 265.35 277.8 265.45 277.75 Q270.45 276.35 273.0 277.0 M256.2 278.95 L256.0 279.0 255.0 279.0 255.0 280.0 255.0 281.0 254.0 281.0 Q242.25 281.25 239.0 273.0 243.1 277.35 244.45 273.15 L245.0 273.0 Q248.8 278.6 256.2 278.95" fill="#1a1512" fill-opacity="0.54901963" fill-rule="evenodd" stroke="none"/>
    <path d="M256.0 279.0 Q258.1 282.85 264.0 283.0 L265.95 283.05 Q262.6 285.8 255.0 281.0 L255.0 280.0 255.0 279.0 256.0 279.0" fill="#100d0b" fill-opacity="0.39215687" fill-rule="evenodd" stroke="none"/>
    <path d="M283.0 276.0 L283.1 276.95 Q284.35 282.2 280.0 278.0 L280.8 276.9 281.0 276.0 282.0 276.0 283.0 276.0" fill="#100c0a" fill-opacity="0.3647059" fill-rule="evenodd" stroke="none"/>
    <path d="M290.95 274.5 Q290.6 277.05 288.65 279.1 L283.0 276.0 283.0 275.0 286.0 275.0 287.0 275.0 290.9 274.55 290.95 274.5" fill="#19120f" fill-opacity="0.46666667" fill-rule="evenodd" stroke="none"/>
    <path d="M307.0 257.0 Q308.5 257.0 309.5 257.5 311.0 259.0 311.35 260.4 311.85 262.35 306.0 260.0 308.9 259.0 307.25 257.7 307.0 257.5 307.0 257.0" fill="#161211" fill-opacity="0.39607844" fill-rule="evenodd" stroke="none"/>
    <path d="M296.0 260.0 Q299.55 257.05 306.0 257.0 L307.0 257.0 Q307.0 257.5 307.25 257.7 308.9 259.0 306.0 260.0 L305.05 259.85 Q302.45 258.95 298.0 261.0 L297.1 260.8 296.0 260.0" fill="#251e1b" fill-opacity="0.6509804" fill-rule="evenodd" stroke="none"/>
    <path d="M294.0 259.0 L295.1 259.8 296.0 260.0 297.1 260.8 298.0 261.0 Q297.8 263.9 303.8 265.65 L305.05 265.95 Q299.85 266.05 293.0 264.0 293.0 263.5 293.2 263.4 296.65 261.65 292.0 261.0 293.65 261.15 293.5 259.0 L294.0 259.0" fill="#1c1510" fill-opacity="0.47058824" fill-rule="evenodd" stroke="none"/>
    <path d="M288.0 252.0 L288.0 251.0 289.0 251.0 Q296.1 245.55 291.6 253.8 L291.0 254.0 290.75 253.2 Q290.15 252.45 288.0 252.0" fill="#5d5f61" fill-opacity="0.9372549" fill-rule="evenodd" stroke="none"/>
    <path d="M293.0 264.0 L292.8 264.6 Q287.0 267.9 285.0 263.0 287.85 264.15 292.0 264.0 L293.0 264.0" fill="#140c09" fill-opacity="0.4745098" fill-rule="evenodd" stroke="none"/>
    <path d="M284.0 269.0 Q296.4 273.05 284.95 270.1 L284.0 270.0 284.0 269.0" fill="#110e0c" fill-opacity="0.2901961" fill-rule="evenodd" stroke="none"/>
    <path d="M297.0 279.85 Q311.45 278.3 306.0 284.0 298.6 285.65 292.6 287.95 L292.0 287.0 Q301.55 285.8 295.5 280.0 L297.0 279.85" fill="#1e1916" fill-opacity="0.4627451" fill-rule="evenodd" stroke="none"/>
    <path d="M285.0 273.0 Q288.7 272.3 290.25 273.75 L291.0 274.0 290.95 274.5 290.9 274.55 287.0 275.0 287.0 274.5 Q284.9 274.65 285.0 273.0" fill="#352f2a" fill-opacity="0.62352943" fill-rule="evenodd" stroke="none"/>
    <path d="M284.1 284.75 Q278.05 282.95 273.0 280.0 282.8 281.7 285.0 285.0 L284.1 284.75" fill="#100c0b" fill-opacity="0.35686275" fill-rule="evenodd" stroke="none"/>
    <path d="M185.0 217.0 L185.0 216.0 185.0 215.0 Q193.95 213.35 191.4 209.95 191.3 209.8 193.9 209.35 203.15 207.8 203.55 208.65 205.55 213.1 214.0 212.0 208.6 206.4 207.0 203.0 L207.8 202.6 Q211.0 201.0 210.0 205.0 220.6 200.7 228.4 211.45 231.1 215.15 226.0 217.0 214.1 212.8 225.85 222.4 L222.95 222.45 Q220.8 222.3 220.0 224.0 218.0 225.75 217.05 223.55 215.8 220.75 215.2 221.3 208.3 227.7 208.0 215.0 199.8 208.75 192.25 213.85 190.5 215.0 189.45 216.25 188.2 217.7 186.0 218.0 L185.25 217.75 Q185.0 217.5 185.0 217.0" fill="#191618" fill-rule="evenodd" stroke="none"/>
    <path d="M210.05 198.8 Q205.9 199.1 206.0 196.0 214.55 195.9 216.1 198.4 L210.05 198.8" fill="#666d7b" fill-rule="evenodd" stroke="none"/>
    <path d="M220.0 229.0 Q224.5 225.15 224.7 231.7 L224.8 231.7 Q226.95 232.0 225.15 234.75 221.45 240.5 221.5 234.0 L221.5 232.0 Q221.45 230.5 220.0 229.0" fill="#1b171d" fill-rule="evenodd" stroke="none"/>
    <path d="M207.45 228.15 Q209.15 234.8 207.0 237.0 206.3 237.7 205.35 236.5 203.2 233.6 202.0 231.0 207.55 229.6 207.0 226.5 L207.45 228.15" fill="#161618" fill-rule="evenodd" stroke="none"/>
    <path d="M211.0 240.0 Q218.1 245.1 211.25 240.65 211.0 240.5 211.0 240.0" fill="#171d1f" fill-rule="evenodd" stroke="none"/>
    <path d="M216.5 238.0 Q214.9 237.65 215.0 236.0 222.55 237.0 216.5 238.0" fill="#191d20" fill-rule="evenodd" stroke="none"/>
    <path d="M174.0 212.0 Q178.7 216.0 184.0 216.9 L185.0 217.0 Q185.0 217.5 185.25 217.75 L186.0 218.0 Q190.85 223.8 184.45 221.55 L179.0 218.0 Q184.8 225.45 184.05 231.0 L184.0 232.0 Q183.5 232.0 183.4 232.2 182.7 233.7 181.0 234.0 L181.0 235.0 180.45 235.15 Q179.3 238.3 177.0 240.0 L177.0 241.0 177.0 242.0 176.75 242.8 Q172.95 247.9 170.0 242.0 172.8 235.4 169.35 231.65 168.95 231.25 171.7 228.7 L173.0 227.5 Q166.75 227.3 165.0 226.0 L165.0 225.0 Q170.1 220.85 173.8 212.9 L174.0 212.0 M176.0 237.0 L176.0 237.5 Q183.1 228.2 176.0 237.0" fill="#5d626a" fill-rule="evenodd" stroke="none"/>
    <path d="M193.0 219.0 Q203.6 221.9 196.0 221.75 193.3 221.7 193.0 219.0" fill="#100b08" fill-rule="evenodd" stroke="none"/>
    <path d="M166.0 212.0 L166.0 211.0 Q168.3 209.8 169.4 207.2 L170.0 207.0 Q170.0 208.0 170.4 208.8 170.5 209.0 171.0 209.0 L170.85 209.55 Q168.45 210.45 167.0 212.0 L167.0 213.0 166.25 212.75 Q166.0 212.5 166.0 212.0" fill="#3b4244" fill-rule="evenodd" stroke="none"/>
    <path d="M164.0 214.0 Q165.65 214.15 165.5 212.0 L166.0 212.0 Q166.0 212.5 166.25 212.75 L167.0 213.0 Q174.8 211.6 170.4 215.45 163.7 221.4 164.0 214.0" fill="#4d4338" fill-rule="evenodd" stroke="none"/>
    <path d="M184.0 232.0 L184.5 232.05 Q185.4 240.0 181.0 235.0 L181.0 234.0 Q182.7 233.7 183.4 232.2 183.5 232.0 184.0 232.0" fill="#1c2423" fill-rule="evenodd" stroke="none"/>
    <path d="M164.85 235.1 Q171.7 244.15 162.0 245.0 166.25 241.55 164.0 234.0 L164.85 235.1" fill="#0b0505" fill-rule="evenodd" stroke="none"/>
    <path d="M176.0 237.0 Q183.1 228.2 176.0 237.5 L176.0 237.0" fill="#909598" fill-rule="evenodd" stroke="none"/>
    <path d="M186.0 236.0 Q195.2 233.05 186.0 236.5 L186.0 236.0" fill="#19211d" fill-rule="evenodd" stroke="none"/>
    <path d="M198.0 277.0 L197.1 276.8 196.0 276.0 Q199.3 274.15 199.5 270.0 L200.0 270.0 Q201.75 271.75 203.75 273.3 L204.0 274.0 203.9 274.5 Q200.2 275.2 198.0 277.0" fill="#92430c" fill-rule="evenodd" stroke="none"/>
    <path d="M181.5 256.0 Q179.95 269.2 177.0 262.0 178.65 259.15 180.75 256.8 L181.0 256.0 181.5 256.0" fill="#646f75" fill-rule="evenodd" stroke="none"/>
    <path d="M172.0 272.0 L171.0 272.05 Q169.4 272.15 170.0 270.0 172.5 267.5 174.4 264.2 174.5 264.0 175.0 264.0 L175.0 265.0 Q175.15 268.65 172.0 272.0" fill="#230f09" fill-rule="evenodd" stroke="none"/>
    <path d="M179.0 279.0 Q188.8 276.35 188.0 281.5 L187.0 281.5 181.95 281.3 Q179.55 280.95 179.0 279.0" fill="#1f1810" fill-rule="evenodd" stroke="none"/>
    <path d="M163.0 281.0 L163.0 280.0 Q168.4 277.0 171.3 273.25 171.5 273.0 172.0 273.0 L172.5 273.0 Q171.75 280.25 164.0 281.0 L163.0 281.0" fill="#652a0a" fill-rule="evenodd" stroke="none"/>
    <path d="M172.0 293.0 L171.75 293.7 Q169.0 296.05 166.0 295.0 L166.0 294.0 170.0 293.1 171.0 293.0 172.0 293.0" fill="#1e1005" fill-opacity="0.50980395" fill-rule="evenodd" stroke="none"/>
    <path d="M173.0 293.0 L172.0 293.0 171.0 293.0 170.95 292.0 170.0 288.0 Q173.65 279.5 173.5 293.0 L173.0 293.0" fill="#884310" fill-opacity="0.94509804" fill-rule="evenodd" stroke="none"/>
    <path d="M178.0 299.0 L177.0 299.1 Q172.1 299.9 171.0 297.0 L174.9 296.55 175.0 296.0 Q176.7 296.3 177.4 297.8 177.5 298.0 178.0 298.0 L178.0 299.0" fill="#0e0a06" fill-opacity="0.5411765" fill-rule="evenodd" stroke="none"/>
    <path d="M204.0 274.0 Q211.0 273.55 207.25 276.3 207.0 276.5 207.0 277.0 L206.1 277.2 Q197.95 281.85 193.0 280.0 196.45 279.95 197.75 277.85 L198.0 277.0 Q200.2 275.2 203.9 274.5 L204.0 274.0" fill="#67666f" fill-rule="evenodd" stroke="none"/>
    <path d="M188.0 285.0 Q196.8 282.35 188.0 285.5 L188.0 285.0" fill="#1e110c" fill-rule="evenodd" stroke="none"/>
    <path d="M227.0 285.0 L226.75 285.85 Q223.4 290.9 215.0 291.0 L215.0 292.0 215.0 293.0 214.1 293.2 Q209.25 295.35 205.0 295.0 L205.0 297.0 205.0 298.0 204.5 297.9 Q204.15 296.4 202.0 297.0 201.4 299.15 202.9 299.5 L203.0 300.0 202.0 299.95 183.0 299.0 Q182.75 302.7 184.75 304.3 L185.0 305.0 184.05 304.85 182.0 304.0 181.4 303.8 Q179.65 300.25 178.0 299.0 L178.0 298.0 Q181.95 297.45 184.75 295.65 L185.0 295.0 186.0 295.0 Q195.45 301.8 196.5 289.0 L196.0 289.0 196.0 288.0 Q200.1 286.6 202.0 288.5 L202.0 288.0 Q214.85 292.35 215.5 284.1 215.5 284.0 216.9 283.65 217.5 283.5 218.0 283.0 L219.0 283.0 Q224.15 283.65 226.3 281.25 226.5 281.0 227.0 281.0 L226.8 281.9 226.0 283.0 226.8 284.1 227.0 285.0 M197.0 293.0 L197.0 293.5 Q206.55 289.8 197.0 293.0" fill="#29180b" fill-opacity="0.54901963" fill-rule="evenodd" stroke="none"/>
    <path d="M184.0 292.0 Q186.5 284.85 187.9 292.0 L188.0 293.0 187.0 293.1 Q184.3 293.7 184.0 292.0" fill="#904c14" fill-rule="evenodd" stroke="none"/>
    <path d="M185.0 295.0 L184.05 295.15 Q177.6 297.55 175.0 292.0 179.05 288.8 183.8 291.4 184.0 291.5 184.0 292.0 184.3 293.7 187.0 293.1 L188.0 293.0 189.0 293.0 188.85 293.55 Q187.05 294.05 186.0 295.0 L185.0 295.0" fill="#1b1b10" fill-opacity="0.9764706" fill-rule="evenodd" stroke="none"/>
    <path d="M189.0 293.0 Q192.5 291.5 195.2 289.25 L196.0 289.0 196.5 289.0 Q195.45 301.8 186.0 295.0 187.05 294.05 188.85 293.55 L189.0 293.0" fill="#030201" fill-opacity="0.34117648" fill-rule="evenodd" stroke="none"/>
    <path d="M197.0 293.0 Q206.55 289.8 197.0 293.5 L197.0 293.0" fill="#0a0501" fill-opacity="0.3137255" fill-rule="evenodd" stroke="none"/>
    <path d="M214.0 282.0 Q215.95 282.05 217.15 282.75 L218.0 283.0 Q217.5 283.5 216.9 283.65 215.5 284.0 215.5 284.1 214.85 292.35 202.0 288.0 L202.0 287.0 202.75 286.75 203.0 286.0 Q204.05 285.05 205.85 284.55 L206.0 284.0 Q208.65 280.3 213.05 281.85 L214.0 282.0" fill="#663611" fill-opacity="0.8235294" fill-rule="evenodd" stroke="none"/>
    <path d="M205.0 280.0 Q206.2 282.55 205.5 284.0 L206.0 284.0 205.85 284.55 Q204.05 285.05 203.0 286.0 L202.25 285.75 201.0 284.0 Q203.7 283.2 204.45 280.1 L205.0 280.0" fill="#c6641d" fill-opacity="0.99607843" fill-rule="evenodd" stroke="none"/>
    <path d="M233.0 274.0 L232.8 274.9 Q231.15 278.15 228.0 280.0 L228.0 281.0 227.0 281.0 Q226.5 281.0 226.3 281.25 224.15 283.65 219.0 283.0 L219.0 282.0 Q229.9 271.4 236.0 257.5 L236.6 258.7 Q239.15 263.65 236.05 265.95 L237.95 265.7 Q240.15 265.4 240.0 267.0 239.5 267.0 239.3 267.25 237.9 268.9 235.0 269.0 L235.0 270.0 234.5 270.0 Q234.65 272.15 233.0 272.0 L233.0 273.0 233.0 274.0" fill="#463726" fill-opacity="0.9882353" fill-rule="evenodd" stroke="none"/>
    <path d="M239.0 273.0 L238.0 272.95 Q234.65 272.65 233.0 274.0 L233.0 273.0 233.0 272.0 Q234.65 272.15 234.5 270.0 L235.0 270.0 235.0 271.0 Q235.8 272.7 239.0 272.5 L239.0 273.0" fill="#28190f" fill-opacity="0.7137255" fill-rule="evenodd" stroke="none"/>
    <path d="M207.0 277.0 Q210.5 279.0 213.75 281.35 L214.0 282.0 213.05 281.85 Q208.65 280.3 206.0 284.0 L205.5 284.0 Q206.2 282.55 205.0 280.0 206.7 279.7 206.95 278.0 L207.0 277.0" fill="#ec7412" fill-opacity="0.99607843" fill-rule="evenodd" stroke="none"/>
    <path d="M215.0 293.0 L214.75 293.75 214.0 294.0 Q219.0 297.25 217.25 298.35 217.0 298.5 217.0 299.0 L216.5 298.9 Q216.15 297.4 214.0 298.0 L214.0 297.5 205.0 298.0 205.0 297.0 205.0 295.0 Q209.25 295.35 214.1 293.2 L215.0 293.0" fill="#080605" fill-opacity="0.25490198" fill-rule="evenodd" stroke="none"/>
    <path d="M228.0 281.0 L228.25 281.75 Q230.8 284.35 227.0 285.0 L226.8 284.1 226.0 283.0 226.8 281.9 227.0 281.0 228.0 281.0" fill="#190b02" fill-opacity="0.29803923" fill-rule="evenodd" stroke="none"/>
    <path d="M220.0 305.0 Q226.1 304.7 225.5 307.35 225.3 308.25 227.45 309.25 234.7 312.65 223.8 309.65 221.1 308.9 220.0 307.0 L220.5 307.0 Q220.5 306.0 220.0 305.0" fill="#171210" fill-opacity="0.41568628" fill-rule="evenodd" stroke="none"/>
    <path d="M219.0 298.0 Q227.45 294.15 219.0 298.5 L219.0 298.0" fill="#15110e" fill-opacity="0.39215687" fill-rule="evenodd" stroke="none"/>
    <path d="M217.0 299.0 L217.5 299.05 Q217.9 301.9 216.0 303.0 L215.0 303.0 215.15 302.05 Q215.2 301.7 213.0 299.0 L213.75 298.75 214.0 298.0 Q216.15 297.4 216.5 298.9 L217.0 299.0" fill="#2c2724" fill-opacity="0.4862745" fill-rule="evenodd" stroke="none"/>
    <path d="M216.0 303.0 L216.25 303.75 217.0 304.0 217.0 305.0 217.0 306.0 216.05 305.85 Q210.45 303.55 206.0 300.0 L205.8 299.1 205.0 298.0 214.0 297.5 214.0 298.0 213.0 298.0 210.0 298.0 Q209.45 301.75 214.05 302.9 L215.0 303.0 216.0 303.0" fill="#221812" fill-opacity="0.7058824" fill-rule="evenodd" stroke="none"/>
    <path d="M214.0 298.0 L213.75 298.75 213.0 299.0 Q215.2 301.7 215.15 302.05 L215.0 303.0 214.05 302.9 Q209.45 301.75 210.0 298.0 L213.0 298.0 214.0 298.0" fill="#4a3b32" fill-opacity="0.8666667" fill-rule="evenodd" stroke="none"/>
    <path d="M217.0 304.0 Q219.15 303.4 219.5 304.9 L220.0 305.0 Q220.5 306.0 220.5 307.0 L220.0 307.0 219.05 307.1 Q216.9 307.65 217.0 306.0 L217.0 305.0 217.0 304.0" fill="#2c241f" fill-opacity="0.7058824" fill-rule="evenodd" stroke="none"/>
    <path d="M206.0 300.0 L205.0 300.0 203.0 300.0 202.9 299.5 Q201.4 299.15 202.0 297.0 204.15 296.4 204.5 297.9 L205.0 298.0 205.8 299.1 206.0 300.0" fill="#33241b" fill-opacity="0.87058824" fill-rule="evenodd" stroke="none"/>
    <path d="M185.0 305.0 Q185.5 305.0 185.6 305.2 189.9 315.2 180.0 315.0 185.9 313.0 182.2 304.9 L182.0 304.0 184.05 304.85 185.0 305.0" fill="#140d0b" fill-opacity="0.35686275" fill-rule="evenodd" stroke="none"/>
    <path d="M177.85 312.25 Q175.25 310.75 175.0 307.0 179.7 305.2 180.5 310.25 181.1 314.15 177.85 312.25" fill="#1d0e04" fill-opacity="0.2784314" fill-rule="evenodd" stroke="none"/>
  </g>
</svg>
