<?xml version="1.0" encoding="UTF-8" standalone="no"?>
<svg xmlns:xlink="http://www.w3.org/1999/xlink" height="253.5px" width="344.35px" xmlns="http://www.w3.org/2000/svg">
  <g transform="matrix(1.0, 0.0, 0.0, 1.0, -13.0, -79.0)">
    <path d="M323.0 251.0 Q326.5 256.3 324.15 265.05 324.0 265.5 324.0 266.0 L324.8 267.1 325.0 268.0 324.5 268.0 Q324.65 270.15 323.0 270.0 L323.0 271.0 322.5 271.0 Q322.7 273.7 321.0 274.0 L321.0 275.0 320.95 276.0 Q320.35 280.35 318.0 283.0 L318.0 284.0 317.75 284.75 316.0 286.0 Q318.5 288.45 321.2 286.25 L322.0 286.0 327.0 286.0 328.0 286.0 328.5 286.05 Q328.85 291.0 318.0 289.0 L318.0 290.0 317.0 290.0 316.05 289.9 Q310.8 288.7 304.0 289.0 304.0 288.5 304.25 288.35 313.5 282.2 303.0 286.0 L303.0 288.0 303.0 289.0 302.0 289.0 301.0 289.0 300.75 288.15 Q299.0 285.55 294.0 286.0 298.0 286.55 298.9 290.05 L299.0 291.0 299.0 292.0 Q293.3 292.3 290.3 295.3 289.0 296.5 289.4 297.3 291.45 301.25 284.0 304.0 L283.5 304.0 Q283.7 299.8 279.0 301.0 L278.0 301.1 270.0 303.0 270.0 304.0 269.1 303.8 Q266.2 302.3 264.0 300.0 L263.75 299.25 262.0 298.0 Q261.4 303.6 262.8 307.05 L263.0 308.0 262.75 308.75 261.0 310.0 260.0 310.0 259.0 310.0 259.0 309.5 Q256.65 310.65 250.0 313.0 L250.0 314.0 249.05 313.9 Q244.1 312.65 240.0 315.0 L239.15 314.75 Q237.75 313.8 235.0 314.0 L234.85 313.45 Q233.05 312.95 232.0 312.0 L231.45 311.85 Q230.95 310.05 230.0 309.0 L230.5 308.95 Q230.75 304.75 228.0 303.0 229.05 305.5 228.15 308.05 228.0 308.5 228.0 309.0 L227.0 309.0 226.0 309.0 226.0 308.5 Q222.65 308.35 221.0 307.0 L220.25 306.75 Q212.65 299.85 201.0 297.0 L200.75 296.35 Q191.05 290.1 187.0 297.0 L187.0 298.0 186.0 298.0 181.0 298.0 181.0 299.0 180.1 299.2 Q179.5 299.5 179.0 300.0 L179.0 301.0 178.0 301.1 174.0 302.0 174.0 303.0 173.5 303.1 Q171.65 312.15 160.0 311.0 L159.0 310.95 Q147.75 309.75 140.0 305.0 L140.3 302.2 Q144.5 297.5 143.4 302.1 142.8 304.7 144.55 303.95 147.2 302.75 147.9 299.15 149.85 288.9 144.0 288.0 140.7 290.7 137.75 287.35 132.0 280.85 128.0 269.0 127.5 267.0 126.3 265.55 123.9 262.6 123.95 262.0 123.95 258.45 123.3 256.65 120.05 248.05 107.7 243.85 103.9 242.6 99.0 244.0 L99.0 245.0 99.0 246.0 Q95.75 246.55 95.65 243.0 95.45 238.1 91.35 236.85 86.3 235.4 81.0 238.0 L80.45 237.85 Q76.25 223.75 70.0 212.0 L70.0 211.0 70.0 199.0 70.0 198.0 71.0 198.0 Q76.0 200.0 80.15 202.75 L81.0 203.0 89.75 209.35 90.0 210.0 Q89.8 212.7 92.0 212.95 L93.0 213.0 Q95.7 213.2 96.45 211.15 96.5 211.0 97.0 211.0 98.55 223.6 106.0 231.0 L106.5 230.35 Q109.7 226.0 112.0 230.0 116.25 232.05 115.8 226.85 115.7 226.25 116.55 224.2 120.3 215.0 114.6 220.6 110.55 224.55 105.0 219.0 110.45 217.95 107.7 214.25 107.5 214.0 107.0 214.0 L107.0 213.0 109.85 213.45 110.0 214.0 Q114.3 217.25 117.8 211.3 L118.05 210.95 Q122.8 205.8 128.0 201.0 130.65 200.35 130.1 203.0 L130.0 204.0 129.05 204.15 Q124.05 206.15 123.0 209.0 126.0 211.0 130.0 211.5 L130.0 211.0 Q139.1 212.5 145.1 209.2 L146.0 209.0 Q151.8 198.8 149.5 186.1 L149.0 186.0 149.0 185.0 Q152.25 181.25 155.75 177.75 L156.0 177.0 Q168.9 173.75 174.8 160.9 L175.0 160.0 Q185.15 157.8 176.85 152.25 L176.0 152.0 175.8 151.4 Q174.0 150.5 173.0 149.0 174.7 148.7 174.95 147.0 L175.0 146.0 Q183.55 142.55 183.0 130.0 L183.0 129.0 183.5 129.0 Q183.5 125.0 183.0 121.0 L183.75 120.75 184.0 120.0 184.0 119.0 184.0 113.0 185.0 113.0 Q184.75 123.95 189.35 115.75 190.2 114.2 191.75 112.7 193.7 110.8 193.35 109.6 191.75 104.4 190.5 98.65 189.55 94.6 192.0 94.0 L192.0 95.0 Q192.9 105.15 196.65 93.9 197.95 90.0 193.0 88.0 196.9 86.45 194.75 84.25 194.5 84.0 194.0 84.0 L194.0 83.0 Q195.65 83.15 195.5 81.0 L196.0 81.0 Q196.3 82.2 199.05 81.15 L200.0 81.0 Q204.55 93.4 203.05 108.0 L203.0 109.0 203.0 116.0 203.0 117.0 203.0 129.0 203.0 130.0 Q203.65 140.35 209.8 139.05 L210.1 138.0 Q211.5 125.5 216.0 116.0 219.7 115.2 219.5 106.0 L219.0 106.0 219.0 105.0 Q225.25 100.0 227.85 112.05 230.75 125.35 227.0 137.0 L226.4 137.2 Q224.75 140.85 221.0 140.0 222.2 143.3 227.85 141.55 L228.0 141.0 228.0 140.0 234.3 123.1 Q235.0 121.1 237.0 123.0 236.55 136.95 242.85 144.1 246.85 148.65 250.0 153.0 L250.4 152.2 Q251.75 149.25 251.0 144.0 260.55 138.55 257.1 155.0 L257.0 156.0 Q253.5 161.7 250.0 165.85 L248.1 167.55 Q241.9 171.4 238.0 178.0 238.0 178.5 238.25 178.75 L239.0 179.0 238.8 179.65 227.0 187.0 Q228.2 182.2 231.05 179.05 234.4 175.45 227.0 175.6 221.95 175.65 213.0 179.0 209.95 175.55 203.1 174.95 199.85 174.65 196.35 176.6 191.1 179.5 182.0 182.0 195.05 191.95 210.6 198.6 211.5 199.0 212.3 197.6 214.55 193.55 219.0 192.0 L219.0 193.0 219.1 194.0 Q219.7 196.7 218.0 197.0 L217.85 196.45 Q216.45 196.0 214.0 200.0 214.0 200.5 214.25 200.75 L215.0 201.0 Q216.15 204.55 221.0 204.95 L222.0 205.0 Q223.95 206.55 225.35 208.75 L226.0 209.0 Q237.65 209.9 239.0 220.0 L238.6 220.5 Q237.7 221.65 236.0 220.0 236.0 219.5 236.2 219.35 241.45 216.15 232.0 216.0 L235.35 220.75 236.0 221.0 Q246.35 224.8 256.15 218.25 256.5 218.0 257.0 218.0 259.25 216.75 260.75 214.8 L261.0 214.0 Q266.75 215.1 266.05 210.0 L266.0 209.0 266.0 208.0 267.0 208.0 Q271.0 209.85 277.75 206.5 285.25 202.85 283.0 195.0 L284.0 195.0 285.0 195.0 Q290.0 194.65 290.5 188.0 L290.0 188.0 Q290.0 187.5 290.15 187.05 294.25 175.25 299.0 164.0 L299.1 165.0 Q300.55 173.95 300.0 185.0 299.5 185.0 299.45 185.15 293.1 204.1 285.0 221.0 L285.0 222.0 Q283.55 219.0 286.1 215.35 L287.05 214.05 Q275.2 219.2 262.6 230.55 252.7 239.4 239.0 237.0 245.95 239.55 242.2 244.0 239.5 247.2 246.95 247.85 248.3 247.95 250.95 252.45 L251.8 249.55 Q251.95 248.95 253.1 248.15 254.0 247.5 255.0 247.0 253.8 244.45 252.05 242.85 250.35 241.35 253.05 241.5 258.85 241.9 258.6 249.0 258.4 255.1 260.0 260.0 266.8 262.55 263.5 257.0 L264.0 257.0 Q257.9 248.6 259.4 237.8 259.55 236.5 261.0 235.0 269.8 240.15 275.7 236.0 279.65 233.25 280.0 238.0 L280.0 239.0 Q277.8 254.7 284.4 257.45 294.0 261.45 284.75 254.05 279.9 250.25 280.65 243.85 L281.0 240.0 Q289.9 245.9 299.0 247.9 L300.0 248.0 301.75 250.15 302.0 251.0 301.95 252.0 Q301.75 256.25 299.0 258.0 299.5 267.0 303.0 272.5 L303.0 272.0 Q308.5 279.75 307.05 271.15 L306.1 270.7 Q305.5 270.5 305.0 270.0 309.45 265.95 312.4 260.2 312.5 260.0 313.0 260.0 313.7 267.85 317.7 258.45 319.7 253.7 323.0 251.0 M221.0 143.0 Q215.3 145.0 210.0 144.95 202.65 144.8 201.6 142.15 198.8 135.05 200.1 145.0 200.7 149.8 193.0 149.0 194.0 154.5 194.8 154.25 205.35 151.65 215.0 152.0 L215.2 151.15 Q217.35 147.5 221.0 143.0 M199.65 103.35 Q200.55 99.05 193.0 106.0 197.3 114.75 199.65 103.35 M185.0 127.0 Q185.0 130.0 185.45 132.95 187.0 143.45 191.85 137.75 193.65 135.65 195.8 134.6 199.1 133.0 196.6 126.75 192.0 115.5 185.0 127.0 M193.0 156.0 L193.2 156.9 Q195.3 161.7 195.0 169.0 197.15 176.4 196.0 169.15 195.8 167.7 197.15 165.8 202.45 158.4 193.0 156.0 M185.6 149.85 L186.0 148.5 Q185.2 149.15 182.0 149.0 184.4 153.7 185.6 149.85 M189.5 159.55 L189.0 160.0 Q188.2 157.6 182.0 158.0 184.9 163.1 186.05 170.0 L186.45 172.2 Q184.75 177.95 190.0 177.0 191.15 174.1 192.35 166.9 194.3 155.15 189.5 159.55 M178.95 172.95 L178.0 172.0 Q174.3 168.25 171.0 174.0 171.25 177.75 172.35 180.85 173.35 183.65 172.35 186.45 170.45 191.9 170.05 200.0 L169.9 201.5 Q163.0 201.85 159.0 207.0 159.0 209.0 159.35 210.95 160.15 215.35 165.6 216.65 169.65 217.55 174.0 214.0 172.25 211.75 172.6 206.95 172.9 202.4 176.0 202.4 182.25 202.45 186.0 201.0 179.7 196.05 180.3 190.8 L180.95 190.15 Q183.45 188.1 179.9 185.45 178.3 184.2 179.25 183.05 181.2 180.65 182.0 178.0 182.5 178.25 178.95 172.95 M242.0 163.0 L241.75 162.25 Q239.75 160.25 235.0 161.0 240.75 162.1 240.0 167.0 L240.4 166.2 Q240.5 166.0 241.0 166.0 L241.1 166.95 Q241.65 169.15 240.0 169.0 244.5 170.1 247.6 163.25 250.95 155.8 242.0 163.0 M237.0 169.0 Q232.1 167.9 227.45 165.9 214.8 160.5 204.0 163.0 203.4 165.15 204.25 165.85 L206.35 167.65 Q217.4 173.45 237.0 169.0 M233.45 172.75 Q240.45 169.85 232.0 171.0 232.3 173.2 233.45 172.75 M187.0 144.0 Q185.35 153.2 190.7 152.75 L187.0 144.0 M152.0 206.0 Q152.0 206.5 152.25 206.75 160.2 214.7 152.0 206.0 M139.0 224.0 L139.0 225.0 139.0 226.0 138.05 226.15 Q137.0 226.5 136.0 227.0 137.75 235.6 142.75 230.75 L143.0 230.0 Q146.55 224.7 145.15 220.95 L145.0 220.0 145.0 219.0 Q152.85 224.05 155.3 221.25 155.5 221.0 156.0 221.0 L156.1 221.95 Q156.65 224.15 155.0 224.0 155.0 225.5 155.45 226.85 L156.0 227.0 Q162.6 229.05 168.3 221.7 L167.3 220.8 163.45 223.1 Q160.5 225.0 157.0 226.0 L157.2 225.1 Q163.5 212.8 157.0 219.0 150.8 214.7 141.0 214.05 L137.3 214.25 Q129.85 222.0 122.0 225.0 121.8 232.5 128.95 227.35 131.8 225.3 136.0 225.1 137.95 224.95 139.0 224.0 M125.0 217.5 Q134.0 211.65 125.0 217.0 L125.0 217.5 M127.0 229.0 L127.1 229.5 Q136.9 231.05 127.0 229.0 M152.05 239.05 Q150.7 237.45 151.0 236.0 152.0 236.0 152.7 235.55 L153.5 235.0 Q145.95 235.45 134.0 238.0 143.95 240.9 150.85 239.3 L152.05 239.05 M109.0 219.0 L109.0 219.5 Q115.7 217.5 109.0 219.0 M161.85 256.3 L161.95 256.85 162.0 257.0 161.85 256.3 M151.0 254.0 Q153.25 254.75 157.35 252.6 160.0 251.25 161.25 254.25 158.45 246.65 151.0 254.0 M137.0 255.0 L137.0 255.5 Q150.2 253.0 137.0 255.0 M130.0 255.0 Q130.0 255.5 130.15 255.55 141.2 259.7 130.0 255.0 M152.0 291.0 L152.0 290.5 Q150.5 291.0 149.0 292.0 L149.0 296.0 149.0 297.0 Q152.0 302.5 156.35 294.75 157.65 292.35 158.75 291.0 160.15 289.25 161.25 285.75 163.7 278.0 158.05 284.1 L152.0 291.0 M78.0 224.0 L78.25 224.75 Q83.7 230.75 78.0 224.0 M149.2 301.9 Q153.65 311.7 149.0 301.0 L149.2 301.9 M255.7 282.25 Q257.3 271.8 252.0 274.0 251.45 283.2 255.2 285.75 L255.7 282.25 M281.0 283.0 Q281.0 283.5 281.15 283.55 291.95 287.75 281.0 283.0 M278.0 289.0 L278.0 289.5 Q286.2 284.4 278.0 289.0 M271.9 277.1 L273.0 278.5 Q275.25 274.65 266.0 270.0 L271.9 277.1 M288.0 265.0 Q288.0 265.5 288.25 265.8 293.95 272.8 288.0 265.0 M213.75 203.95 Q211.7 203.7 211.0 212.0 206.7 216.5 200.05 210.8 193.2 204.9 187.2 211.15 183.8 214.8 177.0 215.0 180.0 217.45 182.85 214.85 189.2 208.95 194.0 211.0 195.95 212.55 195.65 215.95 194.5 230.45 185.0 223.0 L184.5 222.5 Q182.55 227.95 191.0 228.2 199.9 228.45 192.0 235.0 191.7 236.7 190.25 237.5 185.35 240.15 185.4 243.0 185.5 246.0 188.25 244.55 192.05 242.55 188.95 247.3 187.95 248.8 193.0 252.0 195.65 251.35 196.15 253.75 197.3 259.0 198.5 253.65 199.2 250.6 202.0 245.0 199.15 240.9 200.0 236.5 201.5 233.3 207.0 228.0 213.3 232.55 218.25 230.65 220.0 230.0 220.75 229.05 223.1 225.95 228.0 228.0 L227.75 227.3 Q219.85 221.15 213.0 214.0 213.9 210.4 213.95 206.0 214.0 204.0 213.75 203.95 M207.0 233.0 L207.15 233.95 Q210.25 243.5 207.0 233.0 M232.0 265.0 L232.05 264.0 Q232.75 249.3 230.0 242.0 L230.0 243.0 Q230.3 254.7 232.0 265.0 231.35 274.15 233.0 274.5 L233.0 273.0 233.0 266.0 Q234.7 267.3 234.2 271.05 L234.0 272.5 Q235.0 272.0 235.6 264.95 236.35 256.6 233.0 252.0 L233.0 264.0 233.0 265.0 232.0 265.0 M182.15 246.45 L183.5 246.0 Q180.2 239.65 172.0 248.0 173.25 251.1 174.25 251.9 L175.0 252.5 Q176.15 251.35 180.8 249.5 L182.05 249.05 Q181.35 246.7 182.15 246.45 M192.95 267.0 Q191.15 262.25 190.0 270.0 190.8 272.2 191.3 274.95 L191.95 278.45 Q197.05 277.95 192.95 267.0 M163.0 278.5 Q172.8 274.25 163.0 277.0 L163.0 278.5 M179.0 276.0 L179.0 276.5 Q189.25 273.5 179.0 276.0 M183.0 281.0 Q183.0 281.5 183.25 281.85 190.7 293.0 183.0 281.0 M227.9 257.6 Q230.2 254.35 229.15 253.5 222.5 248.4 222.0 255.0 221.25 259.2 222.55 261.3 L223.0 262.0 Q225.6 260.9 227.9 257.6 M210.6 253.5 L208.8 259.35 Q214.95 247.55 209.0 240.0 212.8 246.8 210.6 253.5 M216.0 291.0 L215.75 291.75 215.0 292.0 Q219.05 303.2 218.8 294.0 218.75 290.85 221.25 293.95 222.7 295.7 223.15 295.65 232.25 294.85 228.0 290.0 225.75 287.15 226.85 278.25 227.45 273.45 227.25 268.1 221.7 262.15 220.85 273.9 220.2 283.2 216.0 290.0 L215.95 289.0 Q215.75 284.75 213.0 283.0 213.3 287.7 215.35 290.75 215.5 291.0 216.0 291.0 M242.45 279.85 L241.5 277.2 Q240.0 273.55 239.6 275.35 237.35 285.85 234.0 294.0 247.45 294.35 242.45 279.85 M237.05 301.9 Q232.2 300.5 236.65 298.2 240.85 296.0 237.15 296.35 230.4 297.05 228.0 299.0 229.25 301.25 231.35 302.25 235.4 304.15 235.8 306.05 L236.0 307.0 Q243.35 303.7 237.05 301.9 M169.0 299.0 Q170.7 298.7 170.0 297.75 166.5 292.95 159.0 300.0 158.5 305.0 164.0 304.1 L165.0 304.0 Q168.25 303.25 168.9 300.0 L169.0 299.0 M255.2 298.9 L256.0 300.5 Q258.45 296.95 252.0 290.0 253.1 294.9 255.2 298.9 M246.0 311.0 Q245.4 313.15 245.95 312.3 251.0 304.8 246.0 311.0" fill="#2f2e2d" fill-opacity="0.99215686" fill-rule="evenodd" stroke="none"/>
    <path d="M324.0 266.0 Q329.25 265.25 331.5 267.0 L331.0 267.0 Q330.5 267.0 330.25 267.25 329.0 268.5 327.0 269.0 L326.1 268.8 Q325.5 268.5 325.0 268.0 L324.8 267.1 324.0 266.0" fill="#28221f" fill-opacity="0.5019608" fill-rule="evenodd" stroke="none"/>
    <path d="M331.0 267.0 Q331.0 267.5 331.2 267.6 337.55 271.15 327.0 269.0 329.0 268.5 330.25 267.25 330.5 267.0 331.0 267.0" fill="#14100f" fill-opacity="0.4" fill-rule="evenodd" stroke="none"/>
    <path d="M328.0 286.0 L328.0 285.0 330.05 284.15 331.0 284.0 Q333.9 287.75 343.9 285.5 L344.0 285.0 345.8 285.4 Q346.0 285.5 346.0 286.0 L345.0 286.0 345.0 287.0 341.0 287.0 Q331.65 286.95 335.4 289.35 L336.5 290.0 Q329.8 293.1 318.0 290.0 L318.0 289.0 Q328.85 291.0 328.5 286.05 L328.0 286.0" fill="#1c1511" fill-opacity="0.54901963" fill-rule="evenodd" stroke="none"/>
    <path d="M331.0 284.0 Q337.55 282.15 343.1 284.8 L344.0 285.0 343.9 285.5 Q333.9 287.75 331.0 284.0" fill="#362e2c" fill-opacity="0.8156863" fill-rule="evenodd" stroke="none"/>
    <path d="M346.0 286.0 Q349.95 285.55 352.15 286.8 L353.0 287.0 352.8 287.6 Q352.0 288.0 351.0 288.0 L350.0 288.05 Q346.65 288.35 345.0 287.0 L345.0 286.0 346.0 286.0" fill="#211b19" fill-opacity="0.5764706" fill-rule="evenodd" stroke="none"/>
    <path d="M353.0 287.0 L353.95 287.15 Q362.0 290.3 351.0 288.0 352.0 288.0 352.8 287.6 L353.0 287.0" fill="#14100f" fill-opacity="0.35686275" fill-rule="evenodd" stroke="none"/>
    <path d="M156.0 96.0 L156.0 95.0 156.0 94.0 Q159.95 91.45 165.05 90.1 L166.0 90.0 165.75 90.7 Q161.7 93.7 157.0 96.0 L156.0 96.0" fill="#6f7884" fill-opacity="0.9019608" fill-rule="evenodd" stroke="none"/>
    <path d="M100.0 135.0 Q104.6 125.75 112.75 132.3 L113.0 133.0 112.0 132.95 Q108.05 132.55 106.0 134.0 113.45 134.75 116.3 139.15 118.3 142.15 120.15 141.3 131.35 135.85 117.0 135.0 L117.0 134.0 Q123.95 132.45 125.5 125.1 L126.0 125.0 Q127.25 126.2 130.8 124.6 L131.0 124.0 Q133.7 124.7 134.4 123.2 134.5 123.0 135.0 123.0 137.55 122.55 138.75 120.85 L139.0 120.0 Q141.3 118.3 141.9 115.0 L142.0 114.0 Q147.65 110.1 152.4 100.2 152.5 100.0 153.0 100.0 155.3 103.15 156.9 96.95 L157.0 96.0 Q161.7 93.7 165.75 90.7 L166.0 90.0 Q167.75 92.75 166.55 97.9 L166.0 98.0 164.3 98.3 Q165.65 94.1 162.0 97.0 L158.7 102.8 Q157.95 103.95 157.9 104.4 155.2 117.25 153.0 132.0 159.0 133.5 157.15 138.05 157.0 138.5 157.0 139.0 L156.1 138.8 Q146.6 134.7 136.0 139.0 L136.45 137.95 Q131.1 134.9 124.95 142.1 117.9 150.35 112.0 146.0 L112.0 145.5 Q109.9 145.65 110.0 144.0 L110.55 143.9 Q111.9 138.05 109.0 140.0 L109.0 141.0 Q108.5 141.0 108.3 141.25 102.05 148.35 100.0 135.0 M150.0 118.0 Q149.3 120.7 149.65 120.15 156.1 109.65 150.0 118.0 M142.0 118.0 Q142.75 121.25 146.25 118.3 152.3 113.25 142.0 118.0 M138.35 126.85 L138.0 128.5 Q134.9 126.4 128.0 130.0 128.0 130.5 128.15 130.55 137.55 134.2 145.0 131.0 146.2 129.7 147.05 127.4 147.95 125.0 147.0 125.6 143.3 127.85 142.15 123.7 140.45 117.5 138.35 126.85 M103.0 136.0 Q103.5 138.0 104.1 138.05 107.45 138.15 103.0 136.0" fill="#41464f" fill-opacity="0.9882353" fill-rule="evenodd" stroke="none"/>
    <path d="M166.0 98.0 L165.85 98.95 Q164.3 102.8 163.0 107.0 163.6 112.9 166.35 116.75 166.5 117.0 167.0 117.0 164.75 119.15 166.1 119.65 L167.0 120.0 Q166.9 132.9 160.0 140.0 L159.05 140.1 Q156.9 140.65 157.0 139.0 157.0 138.5 157.15 138.05 159.0 133.5 153.0 132.0 155.2 117.25 157.9 104.4 157.95 103.95 158.7 102.8 L162.0 97.0 Q165.65 94.1 164.3 98.3 L166.0 98.0" fill="#1a181c" fill-opacity="0.9882353" fill-rule="evenodd" stroke="none"/>
    <path d="M167.0 117.0 L167.75 116.75 168.0 116.0 Q176.8 119.15 169.25 113.65 169.0 113.5 169.0 113.0 L169.0 112.0 169.0 98.0 170.0 98.0 Q171.3 108.65 172.5 101.0 L172.0 101.0 172.0 100.0 172.0 96.0 172.75 95.75 173.0 95.0 Q177.0 98.0 177.95 104.0 L178.0 105.0 177.5 105.0 Q177.65 107.65 175.0 107.0 179.6 117.75 177.25 121.75 175.8 124.2 176.2 125.55 L178.25 127.75 Q179.0 128.5 181.0 128.0 181.5 128.5 182.1 128.8 L183.0 129.0 183.0 130.0 Q183.55 142.55 175.0 146.0 L175.0 145.5 170.0 148.0 170.0 149.0 169.25 148.75 Q167.15 146.85 164.0 146.0 L164.2 145.15 Q166.15 141.8 161.0 141.0 L160.0 141.0 160.0 140.0 Q166.9 132.9 167.0 120.0 L166.1 119.65 Q164.75 119.15 167.0 117.0 M170.0 134.0 L170.0 135.5 Q174.75 130.05 170.0 134.0" fill="#4e525d" fill-opacity="0.99215686" fill-rule="evenodd" stroke="none"/>
    <path d="M170.0 98.0 L170.0 97.0 172.15 95.25 Q172.5 95.0 173.0 95.0 L172.75 95.75 172.0 96.0 172.0 100.0 172.0 101.0 171.5 101.0 Q171.7 98.3 170.0 98.0" fill="#707985" fill-opacity="0.98039216" fill-rule="evenodd" stroke="none"/>
    <path d="M192.0 88.0 L192.0 87.0 193.75 84.85 194.0 84.0 Q194.5 84.0 194.75 84.25 196.9 86.45 193.0 88.0 L192.0 88.0" fill="#4f565f" fill-opacity="0.92156863" fill-rule="evenodd" stroke="none"/>
    <path d="M196.0 81.0 L196.0 80.0 Q198.35 77.9 199.75 80.15 L200.0 81.0 199.05 81.15 Q196.3 82.2 196.0 81.0" fill="#515662" fill-opacity="0.8862745" fill-rule="evenodd" stroke="none"/>
    <path d="M185.0 113.0 L185.0 112.0 185.0 107.0 Q187.0 96.5 191.4 88.2 191.5 88.0 192.0 88.0 L193.0 88.0 Q197.95 90.0 196.65 93.9 192.9 105.15 192.0 95.0 L192.0 94.0 Q189.55 94.6 190.5 98.65 191.75 104.4 193.35 109.6 193.7 110.8 191.75 112.7 190.2 114.2 189.35 115.75 184.75 123.95 185.0 113.0" fill="#565d66" fill-opacity="0.9764706" fill-rule="evenodd" stroke="none"/>
    <path d="M216.0 116.0 L216.0 115.0 216.0 114.0 Q217.85 110.8 218.85 106.95 L219.0 106.0 219.5 106.0 Q219.7 115.2 216.0 116.0" fill="#50555e" fill-opacity="0.9411765" fill-rule="evenodd" stroke="none"/>
    <path d="M204.0 117.0 L204.05 118.0 Q204.75 125.25 203.0 130.0 L203.0 129.0 203.0 117.0 204.0 117.0" fill="#121314" fill-opacity="0.62352943" fill-rule="evenodd" stroke="none"/>
    <path d="M203.0 109.0 Q204.75 111.25 204.05 116.0 L204.0 117.0 203.0 117.0 203.0 116.0 203.0 109.0" fill="#121314" fill-opacity="0.59607846" fill-rule="evenodd" stroke="none"/>
    <path d="M221.0 143.0 Q217.35 147.5 215.2 151.15 L215.0 152.0 Q205.35 151.65 194.8 154.25 194.0 154.5 193.0 149.0 200.7 149.8 200.1 145.0 198.8 135.05 201.6 142.15 202.65 144.8 210.0 144.95 215.3 145.0 221.0 143.0 M206.0 148.0 Q205.9 149.65 207.5 150.0 212.75 148.35 206.0 148.0" fill="#5e6472" fill-rule="evenodd" stroke="none"/>
    <path d="M227.0 137.0 Q227.0 139.0 227.45 140.9 L228.0 141.0 227.85 141.55 Q222.2 143.3 221.0 140.0 224.75 140.85 226.4 137.2 L227.0 137.0" fill="#0f0f15" fill-opacity="0.89411765" fill-rule="evenodd" stroke="none"/>
    <path d="M199.65 103.35 Q197.3 114.75 193.0 106.0 200.55 99.05 199.65 103.35" fill="#09080a" fill-rule="evenodd" stroke="none"/>
    <path d="M182.0 120.0 L183.0 120.0 184.0 120.0 183.75 120.75 183.0 121.0 Q183.5 125.0 183.5 129.0 L183.0 129.0 182.1 128.8 Q181.5 128.5 181.0 128.0 L180.95 127.0 Q180.8 124.2 180.0 122.0 L181.75 120.75 182.0 120.0" fill="#0e0b0e" fill-opacity="0.98039216" fill-rule="evenodd" stroke="none"/>
    <path d="M178.0 105.0 Q179.85 112.15 181.85 119.05 L182.0 120.0 181.75 120.75 180.0 122.0 Q180.8 124.2 180.95 127.0 L181.0 128.0 Q179.0 128.5 178.25 127.75 L176.2 125.55 Q175.8 124.2 177.25 121.75 179.6 117.75 175.0 107.0 177.65 107.65 177.5 105.0 L178.0 105.0" fill="#1c2027" fill-opacity="0.9372549" fill-rule="evenodd" stroke="none"/>
    <path d="M172.0 101.0 L172.5 101.0 Q171.3 108.65 170.0 98.0 171.7 98.3 171.5 101.0 L172.0 101.0" fill="#79828f" fill-rule="evenodd" stroke="none"/>
    <path d="M168.0 116.0 L168.0 115.0 168.0 113.0 169.0 113.0 Q169.0 113.5 169.25 113.65 176.8 119.15 168.0 116.0" fill="#26272c" fill-opacity="0.92941177" fill-rule="evenodd" stroke="none"/>
    <path d="M170.0 134.0 Q174.75 130.05 170.0 135.5 L170.0 134.0" fill="#24262c" fill-rule="evenodd" stroke="none"/>
    <path d="M157.0 139.0 Q156.9 140.65 159.05 140.1 L160.0 140.0 160.0 141.0 Q156.0 141.5 152.7 140.2 141.55 135.95 139.0 145.0 136.65 146.0 138.55 147.55 L139.5 148.1 Q136.95 147.75 136.35 149.5 133.1 158.65 125.0 161.0 130.65 172.0 133.95 162.0 134.9 159.0 140.2 158.05 141.7 157.8 142.95 159.0 143.7 159.7 144.5 159.45 146.7 158.7 147.0 157.0 151.55 156.25 153.45 151.6 155.95 145.45 161.0 141.0 166.15 141.8 164.2 145.15 L164.0 146.0 163.1 146.2 162.0 147.0 Q162.2 152.3 169.0 151.1 L170.0 151.0 Q173.35 150.65 174.75 152.2 L175.0 153.0 Q176.7 156.35 175.2 159.1 L175.0 160.0 174.5 160.0 Q175.0 155.1 171.0 156.0 L171.0 157.0 Q170.5 157.0 170.25 157.25 164.0 163.05 160.0 168.0 L160.0 169.0 Q157.4 167.2 157.7 165.7 158.2 163.3 156.1 163.45 154.05 163.55 154.75 165.3 156.15 168.7 153.55 167.65 L152.7 167.3 Q151.4 177.75 143.0 178.0 137.75 176.25 130.0 176.9 L128.45 176.7 Q127.15 170.0 123.0 174.0 123.0 173.5 122.8 173.35 120.5 172.0 118.0 171.0 L118.2 170.1 Q118.5 169.45 112.0 167.0 L111.75 166.25 111.0 166.0 110.85 165.05 Q109.45 161.35 107.0 166.0 L107.0 170.0 107.0 171.0 106.95 172.0 Q106.7 173.7 105.0 174.0 L105.1 173.0 Q106.0 168.55 105.0 167.0 L105.0 166.0 106.75 163.85 107.0 163.0 107.8 161.9 108.0 161.0 108.0 160.0 108.0 159.0 108.75 158.75 109.0 158.0 110.0 158.0 Q113.8 159.3 112.55 156.15 L112.0 156.0 112.0 155.0 Q114.0 154.5 115.8 153.6 L116.0 153.0 Q118.15 152.15 119.35 150.2 L120.0 150.0 Q127.1 149.55 131.5 142.0 L131.0 142.0 131.0 141.0 Q133.9 140.9 135.3 139.25 135.5 139.0 136.0 139.0 146.6 134.7 156.1 138.8 L157.0 139.0 M141.0 170.0 L141.05 170.5 Q151.75 171.45 141.0 170.0 M125.0 154.0 L125.05 154.5 Q132.9 155.0 125.0 154.0 M135.0 164.0 Q138.0 169.15 142.1 162.45 143.2 160.7 135.0 164.0" fill="#adb5ab" fill-rule="evenodd" stroke="none"/>
    <path d="M170.0 151.0 L169.0 151.1 Q162.2 152.3 162.0 147.0 L163.1 146.2 164.0 146.0 Q167.15 146.85 169.25 148.75 L170.0 149.0 170.0 150.0 170.0 151.0 M120.0 150.0 L119.35 150.2 Q118.15 152.15 116.0 153.0 L115.4 152.8 Q114.7 151.3 113.0 151.0 L112.75 150.3 Q111.3 149.2 112.0 146.0 117.9 150.35 124.95 142.1 131.1 134.9 136.45 137.95 L136.0 139.0 Q135.5 139.0 135.3 139.25 133.9 140.9 131.0 141.0 L131.0 142.0 Q130.5 142.0 130.15 142.25 125.0 145.5 120.0 149.0 L120.0 150.0" fill="#212024" fill-rule="evenodd" stroke="none"/>
    <path d="M175.0 146.0 L174.95 147.0 Q174.7 148.7 173.0 149.0 174.0 150.5 175.8 151.4 L176.0 152.0 175.75 152.75 175.0 153.0 174.75 152.2 Q173.35 150.65 170.0 151.0 L170.0 150.0 170.0 149.0 170.0 148.0 175.0 145.5 175.0 146.0" fill="#606672" fill-rule="evenodd" stroke="none"/>
    <path d="M185.0 127.0 Q192.0 115.5 196.6 126.75 199.1 133.0 195.8 134.6 193.65 135.65 191.85 137.75 187.0 143.45 185.45 132.95 185.0 130.0 185.0 127.0" fill="#666d7b" fill-rule="evenodd" stroke="none"/>
    <path d="M193.0 156.0 Q202.45 158.4 197.15 165.8 195.8 167.7 196.0 169.15 197.15 176.4 195.0 169.0 195.3 161.7 193.2 156.9 L193.0 156.0" fill="#0f080a" fill-rule="evenodd" stroke="none"/>
    <path d="M189.5 159.55 Q194.3 155.15 192.35 166.9 191.15 174.1 190.0 177.0 184.75 177.95 186.45 172.2 L186.05 170.0 Q184.9 163.1 182.0 158.0 188.2 157.6 189.0 160.0 L189.5 159.55" fill="#58606e" fill-rule="evenodd" stroke="none"/>
    <path d="M185.6 149.85 Q184.4 153.7 182.0 149.0 185.2 149.15 186.0 148.5 L185.6 149.85" fill="#4e5560" fill-rule="evenodd" stroke="none"/>
    <path d="M176.0 152.0 L176.85 152.25 Q185.15 157.8 175.0 160.0 L175.2 159.1 Q176.7 156.35 175.0 153.0 L175.75 152.75 176.0 152.0" fill="#6e7977" fill-rule="evenodd" stroke="none"/>
    <path d="M175.0 160.0 L174.8 160.9 Q168.9 173.75 156.0 177.0 L155.75 177.75 Q152.25 181.25 149.0 185.0 L149.0 186.0 148.5 185.9 Q148.15 184.4 146.0 185.0 L146.0 186.0 146.0 187.0 145.45 186.85 Q144.95 185.05 144.0 184.0 L143.75 183.3 Q136.7 177.65 130.0 183.0 L130.1 182.0 Q131.15 177.35 125.0 180.0 L125.0 181.0 124.1 180.8 Q123.5 180.5 123.0 180.0 L123.5 180.0 Q122.75 177.75 121.0 176.0 L121.0 175.0 121.0 174.0 122.0 174.0 123.0 174.0 Q127.15 170.0 128.45 176.7 L130.0 176.9 Q137.75 176.25 143.0 178.0 151.3 182.05 153.95 173.05 L154.55 173.2 Q155.55 173.55 157.05 172.05 L160.0 169.0 Q169.45 166.45 170.9 158.0 L171.0 157.0 171.0 156.0 Q175.0 155.1 174.5 160.0 L175.0 160.0" fill="#61675d" fill-rule="evenodd" stroke="none"/>
    <path d="M171.0 157.0 L170.9 158.0 Q169.45 166.45 160.0 169.0 L160.0 168.0 Q164.0 163.05 170.25 157.25 170.5 157.0 171.0 157.0" fill="#7a837d" fill-rule="evenodd" stroke="none"/>
    <path d="M178.95 172.95 Q182.5 178.25 182.0 178.0 181.2 180.65 179.25 183.05 178.3 184.2 179.9 185.45 183.45 188.1 180.95 190.15 L180.3 190.8 Q179.7 196.05 186.0 201.0 182.25 202.45 176.0 202.4 172.9 202.4 172.6 206.95 172.25 211.75 174.0 214.0 169.65 217.55 165.6 216.65 160.15 215.35 159.35 210.95 159.0 209.0 159.0 207.0 163.0 201.85 169.9 201.5 L170.05 200.0 Q170.45 191.9 172.35 186.45 173.35 183.65 172.35 180.85 171.25 177.75 171.0 174.0 174.3 168.25 178.0 172.0 L178.95 172.95" fill="#0d080b" fill-rule="evenodd" stroke="none"/>
    <path d="M191.0 184.0 L191.0 184.5 Q199.05 184.8 191.0 184.0 M219.0 192.0 Q214.55 193.55 212.3 197.6 211.5 199.0 210.6 198.6 195.05 191.95 182.0 182.0 191.1 179.5 196.35 176.6 199.85 174.65 203.1 174.95 209.95 175.55 213.0 179.0 221.95 175.65 227.0 175.6 234.4 175.45 231.05 179.05 228.2 182.2 227.0 187.0 L226.05 187.15 Q222.0 188.5 219.0 191.0 L219.0 192.0 M207.0 196.0 L207.0 196.5 Q216.6 191.25 207.0 196.0" fill="#565b69" fill-rule="evenodd" stroke="none"/>
    <path d="M191.0 184.0 Q199.05 184.8 191.0 184.5 L191.0 184.0" fill="#717a88" fill-rule="evenodd" stroke="none"/>
    <path d="M241.0 166.0 L241.0 165.0 241.0 164.0 241.75 163.75 242.0 163.0 Q250.95 155.8 247.6 163.25 244.5 170.1 240.0 169.0 241.65 169.15 241.1 166.95 L241.0 166.0" fill="#585b67" fill-rule="evenodd" stroke="none"/>
    <path d="M242.0 163.0 L241.75 163.75 241.0 164.0 241.0 165.0 241.0 166.0 Q240.5 166.0 240.4 166.2 L240.0 167.0 Q240.75 162.1 235.0 161.0 239.75 160.25 241.75 162.25 L242.0 163.0" fill="#0e0c0f" fill-rule="evenodd" stroke="none"/>
    <path d="M233.45 172.75 Q232.3 173.2 232.0 171.0 240.45 169.85 233.45 172.75" fill="#5b5e6a" fill-rule="evenodd" stroke="none"/>
    <path d="M237.0 169.0 Q217.4 173.45 206.35 167.65 L204.25 165.85 Q203.4 165.15 204.0 163.0 214.8 160.5 227.45 165.9 232.1 167.9 237.0 169.0" fill="#110b0f" fill-rule="evenodd" stroke="none"/>
    <path d="M207.0 196.0 Q216.6 191.25 207.0 196.5 L207.0 196.0" fill="#727d8b" fill-rule="evenodd" stroke="none"/>
    <path d="M219.0 193.0 L219.0 192.0 219.0 191.0 Q222.0 188.5 226.05 187.15 L227.0 187.0 226.75 187.7 Q223.0 190.5 219.0 193.0" fill="#181c21" fill-rule="evenodd" stroke="none"/>
    <path d="M215.0 201.0 L214.25 200.75 Q214.0 200.5 214.0 200.0 216.45 196.0 217.85 196.45 L218.0 197.0 217.8 197.9 Q216.8 199.8 215.0 201.0" fill="#121215" fill-rule="evenodd" stroke="none"/>
    <path d="M281.0 191.0 L282.8 194.1 283.0 195.0 Q285.25 202.85 277.75 206.5 271.0 209.85 267.0 208.0 265.1 206.0 265.35 204.65 265.8 202.45 265.55 202.1 257.2 191.15 264.3 201.5 L265.0 202.5 Q259.6 199.9 255.0 195.0 259.55 202.45 265.25 208.75 L266.0 209.0 266.05 210.0 Q266.75 215.1 261.0 214.0 L260.1 214.2 Q258.5 215.0 257.0 216.0 L257.0 217.0 257.0 218.0 Q256.5 218.0 256.15 218.25 246.35 224.8 236.0 221.0 L236.0 220.0 Q237.7 221.65 238.6 220.5 L239.0 220.0 Q237.65 209.9 226.0 209.0 226.0 208.5 226.15 208.45 235.9 205.75 222.0 205.0 L221.0 204.95 Q216.15 204.55 215.0 201.0 216.8 199.8 217.8 197.9 L218.0 197.0 Q219.7 196.7 219.1 194.0 L219.0 193.0 Q223.0 190.5 226.75 187.7 L227.0 187.0 238.8 179.65 239.0 179.0 Q239.5 178.5 240.1 178.2 L241.0 178.0 Q246.65 185.55 254.05 179.25 255.25 178.3 256.1 178.3 259.55 178.45 259.8 179.35 260.8 182.7 265.0 182.0 266.85 191.15 276.35 193.75 277.6 194.1 279.3 192.25 280.0 191.5 281.0 191.0 M249.0 190.0 L249.2 190.6 Q258.0 194.8 249.0 190.0 M267.0 191.0 Q268.25 194.75 270.4 197.5 274.4 202.7 274.5 198.0 274.55 194.05 267.0 191.0 M258.45 209.25 Q266.55 206.4 256.0 206.0 256.45 210.0 258.45 209.25" fill="#666f7f" fill-opacity="0.99607843" fill-rule="evenodd" stroke="none"/>
    <path d="M267.0 154.0 L267.0 153.0 Q269.15 153.65 269.5 152.1 L270.0 152.0 Q274.6 153.95 275.85 150.95 L276.0 150.0 Q278.75 150.75 277.55 154.85 L277.0 155.0 Q276.0 155.0 275.8 155.4 274.95 156.95 273.8 157.65 262.85 163.85 256.0 170.0 256.3 173.55 262.0 173.05 L263.0 173.0 Q274.0 179.5 280.75 190.15 L281.0 191.0 Q280.0 191.5 279.3 192.25 277.6 194.1 276.35 193.75 266.85 191.15 265.0 182.0 260.8 182.7 259.8 179.35 259.55 178.45 256.1 178.3 255.25 178.3 254.05 179.25 246.65 185.55 241.0 178.0 L241.0 177.0 Q251.55 174.7 256.45 160.15 256.5 160.0 257.0 160.0 260.25 162.2 262.75 158.8 L263.0 158.0 Q269.1 157.15 267.6 154.2 L267.0 154.0" fill="#424651" fill-opacity="0.9882353" fill-rule="evenodd" stroke="none"/>
    <path d="M257.0 156.0 L257.0 158.0 257.0 159.0 257.0 160.0 Q256.5 160.0 256.45 160.15 251.55 174.7 241.0 177.0 L241.0 178.0 240.1 178.2 Q239.5 178.5 239.0 179.0 L238.25 178.75 Q238.0 178.5 238.0 178.0 241.9 171.4 248.1 167.55 L250.0 165.85 Q253.5 161.7 257.0 156.0" fill="#0f0e11" fill-opacity="0.972549" fill-rule="evenodd" stroke="none"/>
    <path d="M187.0 144.0 L190.7 152.75 Q185.35 153.2 187.0 144.0" fill="#0a090a" fill-rule="evenodd" stroke="none"/>
    <path d="M206.0 148.0 Q212.75 148.35 207.5 150.0 205.9 149.65 206.0 148.0" fill="#494e58" fill-rule="evenodd" stroke="none"/>
    <path d="M277.0 155.0 L276.75 155.85 Q271.2 164.7 262.0 170.0 261.4 172.15 262.9 172.5 L263.0 173.0 262.0 173.05 Q256.3 173.55 256.0 170.0 262.85 163.85 273.8 157.65 274.95 156.95 275.8 155.4 276.0 155.0 277.0 155.0" fill="#1a1b1b" fill-opacity="0.9254902" fill-rule="evenodd" stroke="none"/>
    <path d="M270.0 152.0 L270.0 151.0 Q272.25 148.2 275.1 149.8 L276.0 150.0 275.85 150.95 Q274.6 153.95 270.0 152.0" fill="#676e7d" fill-opacity="0.9019608" fill-rule="evenodd" stroke="none"/>
    <path d="M259.0 158.0 L259.0 157.0 266.05 154.15 267.0 154.0 267.6 154.2 Q269.1 157.15 263.0 158.0 L262.0 158.0 259.0 158.0" fill="#6a707e" fill-opacity="0.9019608" fill-rule="evenodd" stroke="none"/>
    <path d="M257.0 159.0 Q257.5 158.5 258.1 158.2 L259.0 158.0 262.0 158.0 263.0 158.0 262.75 158.8 Q260.25 162.2 257.0 160.0 L257.0 159.0" fill="#69707c" fill-opacity="0.94509804" fill-rule="evenodd" stroke="none"/>
    <path d="M249.0 190.0 Q258.0 194.8 249.2 190.6 L249.0 190.0" fill="#2f343c" fill-rule="evenodd" stroke="none"/>
    <path d="M267.0 191.0 Q274.55 194.05 274.5 198.0 274.4 202.7 270.4 197.5 268.25 194.75 267.0 191.0" fill="#484e5a" fill-rule="evenodd" stroke="none"/>
    <path d="M285.0 195.0 L285.0 194.0 285.0 193.0 Q287.55 191.05 289.35 188.25 289.5 188.0 290.0 188.0 L290.5 188.0 Q290.0 194.65 285.0 195.0" fill="#4f515b" fill-opacity="0.9019608" fill-rule="evenodd" stroke="none"/>
    <path d="M153.0 100.0 L153.0 99.0 Q154.5 98.0 155.4 96.2 155.5 96.0 156.0 96.0 L157.0 96.0 156.9 96.95 Q155.3 103.15 153.0 100.0" fill="#676f7c" fill-opacity="0.92941177" fill-rule="evenodd" stroke="none"/>
    <path d="M71.0 198.0 L71.0 197.0 Q72.65 197.15 72.5 195.0 L73.0 195.0 Q76.05 199.8 78.8 194.9 L79.0 194.0 81.75 196.25 82.0 197.0 81.45 197.15 Q80.7 199.2 78.0 199.0 78.85 201.15 80.8 202.35 81.0 202.5 81.0 203.0 L80.15 202.75 Q76.0 200.0 71.0 198.0" fill="#595f6b" fill-opacity="0.9843137" fill-rule="evenodd" stroke="none"/>
    <path d="M73.0 195.0 L73.0 194.0 Q74.55 192.05 78.0 192.0 L79.0 192.0 79.0 193.0 79.0 194.0 78.8 194.9 Q76.05 199.8 73.0 195.0" fill="#686f7d" fill-opacity="0.9764706" fill-rule="evenodd" stroke="none"/>
    <path d="M90.0 188.0 L90.0 187.0 Q92.9 187.45 92.5 184.0 L93.0 184.0 Q99.0 195.15 93.25 201.25 93.0 201.5 93.0 202.0 L92.0 202.0 91.1 201.8 Q86.25 199.75 82.0 197.0 L81.75 196.25 79.0 194.0 79.0 193.0 Q81.55 193.45 83.2 194.75 L84.0 195.0 Q89.55 200.15 90.5 188.0 L90.0 188.0" fill="#262427" fill-opacity="0.9843137" fill-rule="evenodd" stroke="none"/>
    <path d="M79.0 192.0 L79.0 191.0 Q82.55 191.55 83.45 189.15 83.5 189.0 84.0 189.0 91.65 189.8 84.85 194.75 L84.0 195.0 83.2 194.75 Q81.55 193.45 79.0 193.0 L79.0 192.0" fill="#626774" fill-opacity="0.94509804" fill-rule="evenodd" stroke="none"/>
    <path d="M150.0 118.0 Q156.1 109.65 149.65 120.15 149.3 120.7 150.0 118.0" fill="#6c7482" fill-rule="evenodd" stroke="none"/>
    <path d="M142.0 118.0 Q152.3 113.25 146.25 118.3 142.75 121.25 142.0 118.0" fill="#798291" fill-rule="evenodd" stroke="none"/>
    <path d="M136.0 115.0 Q137.75 112.75 141.9 113.5 L142.0 114.0 141.9 115.0 Q141.3 118.3 139.0 120.0 L138.2 119.75 Q136.3 118.2 136.0 115.0" fill="#727988" fill-opacity="0.91764706" fill-rule="evenodd" stroke="none"/>
    <path d="M126.0 125.0 L126.0 124.0 126.0 122.0 Q129.0 117.0 135.05 115.15 L136.0 115.0 Q136.3 118.2 138.2 119.75 L139.0 120.0 138.75 120.85 Q137.55 122.55 135.0 123.0 135.0 122.5 134.8 122.35 131.9 120.55 130.0 123.0 130.0 123.5 130.25 123.75 L131.0 124.0 130.8 124.6 Q127.25 126.2 126.0 125.0" fill="#6b7281" fill-opacity="0.972549" fill-rule="evenodd" stroke="none"/>
    <path d="M135.0 123.0 Q134.5 123.0 134.4 123.2 133.7 124.7 131.0 124.0 L130.25 123.75 Q130.0 123.5 130.0 123.0 131.9 120.55 134.8 122.35 135.0 122.5 135.0 123.0" fill="#798092" fill-rule="evenodd" stroke="none"/>
    <path d="M138.35 126.85 Q140.45 117.5 142.15 123.7 143.3 127.85 147.0 125.6 147.95 125.0 147.05 127.4 146.2 129.7 145.0 131.0 137.55 134.2 128.15 130.55 128.0 130.5 128.0 130.0 134.9 126.4 138.0 128.5 L138.35 126.85" fill="#151318" fill-rule="evenodd" stroke="none"/>
    <path d="M131.0 142.0 L131.5 142.0 Q127.1 149.55 120.0 150.0 L120.0 149.0 Q125.0 145.5 130.15 142.25 130.5 142.0 131.0 142.0" fill="#d6dfd1" fill-rule="evenodd" stroke="none"/>
    <path d="M161.0 141.0 Q155.95 145.45 153.45 151.6 151.55 156.25 147.0 157.0 146.7 158.7 144.5 159.45 143.7 159.7 142.95 159.0 141.7 157.8 140.2 158.05 134.9 159.0 133.95 162.0 130.65 172.0 125.0 161.0 133.1 158.65 136.35 149.5 136.95 147.75 139.5 148.1 L138.55 147.55 Q136.65 146.0 139.0 145.0 141.55 135.95 152.7 140.2 156.0 141.5 160.0 141.0 L161.0 141.0" fill="#d5ded3" fill-rule="evenodd" stroke="none"/>
    <path d="M96.0 150.0 L95.9 149.05 Q94.1 141.9 94.0 133.0 97.0 133.5 99.85 134.45 L100.0 135.0 Q102.05 148.35 108.3 141.25 108.5 141.0 109.0 141.0 108.4 143.15 109.9 143.5 L110.0 144.0 Q109.9 145.65 112.0 145.5 L112.0 146.0 Q111.3 149.2 112.75 150.3 L113.0 151.0 112.75 151.75 112.0 152.0 112.0 154.0 112.0 155.0 112.0 156.0 111.1 156.2 110.0 157.0 110.0 158.0 109.0 158.0 108.8 157.1 Q107.3 154.35 104.0 156.0 105.2 158.8 107.25 160.75 L108.0 161.0 107.8 161.9 107.0 163.0 107.0 162.5 Q103.8 163.8 99.0 163.0 97.25 157.25 100.65 160.25 L101.5 161.0 Q101.25 157.25 102.1 156.05 106.5 149.8 96.0 150.0 M106.65 148.4 Q111.6 145.25 103.0 146.0 105.0 153.6 106.5 148.5 L106.65 148.4" fill="#51575f" fill-opacity="0.9764706" fill-rule="evenodd" stroke="none"/>
    <path d="M113.0 133.0 Q113.3 135.2 116.0 135.05 L117.0 135.0 Q131.35 135.85 120.15 141.3 118.3 142.15 116.3 139.15 113.45 134.75 106.0 134.0 108.05 132.55 112.0 132.95 L113.0 133.0" fill="#6a707f" fill-opacity="0.99607843" fill-rule="evenodd" stroke="none"/>
    <path d="M106.65 148.4 L106.5 148.5 Q105.0 153.6 103.0 146.0 111.6 145.25 106.65 148.4" fill="#414248" fill-rule="evenodd" stroke="none"/>
    <path d="M109.0 141.0 L109.0 140.0 Q111.9 138.05 110.55 143.9 L110.0 144.0 109.9 143.5 Q108.4 143.15 109.0 141.0" fill="#22222a" fill-rule="evenodd" stroke="none"/>
    <path d="M103.0 136.0 Q107.45 138.15 104.1 138.05 103.5 138.0 103.0 136.0" fill="#1c1c21" fill-rule="evenodd" stroke="none"/>
    <path d="M116.0 153.0 L115.8 153.6 Q114.0 154.5 112.0 155.0 L112.0 154.0 112.0 152.0 112.75 151.75 113.0 151.0 Q114.7 151.3 115.4 152.8 L116.0 153.0" fill="#484950" fill-rule="evenodd" stroke="none"/>
    <path d="M112.0 156.0 L112.55 156.15 Q113.8 159.3 110.0 158.0 L110.0 157.0 111.1 156.2 112.0 156.0" fill="#d5decf" fill-rule="evenodd" stroke="none"/>
    <path d="M109.0 158.0 L108.75 158.75 108.0 159.0 108.0 160.0 108.0 161.0 107.25 160.75 Q105.2 158.8 104.0 156.0 107.3 154.35 108.8 157.1 L109.0 158.0" fill="#41474a" fill-rule="evenodd" stroke="none"/>
    <path d="M107.0 171.0 L107.0 170.0 107.0 166.0 Q109.45 161.35 110.85 165.05 L111.0 166.0 Q110.5 166.0 110.25 166.25 L108.0 169.0 108.0 170.0 108.0 171.0 107.0 171.0" fill="#846f4a" fill-rule="evenodd" stroke="none"/>
    <path d="M111.0 166.0 L111.75 166.25 112.0 167.0 Q113.2 168.3 112.55 170.9 L112.0 171.0 Q111.5 171.0 111.4 171.2 109.2 176.15 108.0 171.0 L108.0 170.0 108.0 169.0 110.25 166.25 Q110.5 166.0 111.0 166.0" fill="#593e21" fill-rule="evenodd" stroke="none"/>
    <path d="M103.0 169.0 L102.75 168.25 101.0 167.0 101.2 166.1 Q101.65 165.3 99.0 163.0 103.8 163.8 107.0 162.5 L107.0 163.0 106.75 163.85 105.0 166.0 105.0 167.0 104.75 167.75 103.0 169.0" fill="#434a4b" fill-opacity="0.98039216" fill-rule="evenodd" stroke="none"/>
    <path d="M95.0 180.0 L95.0 179.0 Q100.0 175.5 102.8 169.9 L103.0 169.0 104.75 167.75 105.0 167.0 Q106.0 168.55 105.1 173.0 L105.0 174.0 104.5 174.0 Q104.65 176.15 103.0 176.0 104.45 178.05 105.45 180.85 L106.0 181.0 Q105.9 182.65 108.05 182.1 L109.0 182.0 108.75 182.75 107.0 184.0 107.0 185.0 106.25 184.75 Q101.25 180.0 95.0 180.0" fill="#c8cdbe" fill-opacity="0.9372549" fill-rule="evenodd" stroke="none"/>
    <path d="M105.0 174.0 Q106.7 173.7 106.95 172.0 L107.0 171.0 108.0 171.0 Q109.2 176.15 111.4 171.2 111.5 171.0 112.0 171.0 113.9 173.0 112.25 174.3 112.0 174.5 112.0 175.0 L111.0 175.05 Q108.2 175.2 106.0 176.0 106.9 179.55 106.25 180.25 106.0 180.5 106.0 181.0 L105.45 180.85 Q104.45 178.05 103.0 176.0 104.65 176.15 104.5 174.0 L105.0 174.0" fill="#c58b53" fill-rule="evenodd" stroke="none"/>
    <path d="M112.0 167.0 Q118.5 169.45 118.2 170.1 L118.0 171.0 117.1 171.2 Q114.8 172.15 113.0 175.0 L112.0 175.0 Q112.0 174.5 112.25 174.3 113.9 173.0 112.0 171.0 L112.55 170.9 Q113.2 168.3 112.0 167.0" fill="#7c6a4c" fill-rule="evenodd" stroke="none"/>
    <path d="M123.0 174.0 L122.0 174.0 121.0 174.0 121.0 175.0 121.0 176.0 120.5 176.1 Q120.15 177.65 118.0 177.0 L117.05 176.9 Q114.65 176.35 113.0 175.0 114.8 172.15 117.1 171.2 L118.0 171.0 Q120.5 172.0 122.8 173.35 123.0 173.5 123.0 174.0" fill="#9a9d8d" fill-rule="evenodd" stroke="none"/>
    <path d="M97.0 164.0 L96.45 163.85 Q94.45 158.05 95.0 150.0 L96.0 150.0 Q106.5 149.8 102.1 156.05 101.25 157.25 101.5 161.0 L100.65 160.25 Q97.25 157.25 99.0 163.0 L98.1 163.2 Q97.5 163.5 97.0 164.0" fill="#41484b" fill-opacity="0.94509804" fill-rule="evenodd" stroke="none"/>
    <path d="M101.0 167.0 L100.1 166.8 Q98.2 165.8 97.0 164.0 97.5 163.5 98.1 163.2 L99.0 163.0 Q101.65 165.3 101.2 166.1 L101.0 167.0" fill="#2a2d2b" fill-opacity="0.9019608" fill-rule="evenodd" stroke="none"/>
    <path d="M93.0 184.0 L93.0 183.0 93.0 182.0 Q94.65 182.15 94.5 180.0 L95.0 180.0 Q101.25 180.0 106.25 184.75 L107.0 185.0 106.75 185.85 105.0 188.0 105.0 189.0 Q104.5 189.0 104.35 189.2 103.15 191.15 101.0 192.0 102.95 195.65 107.2 192.25 L108.0 192.0 Q108.3 193.7 110.0 193.95 L111.0 194.0 111.0 194.5 Q101.55 194.0 100.0 202.0 L100.0 203.0 100.0 204.0 99.3 202.9 99.0 202.0 Q95.9 203.25 93.0 202.0 93.0 201.5 93.25 201.25 99.0 195.15 93.0 184.0 M96.0 189.0 Q98.15 196.35 99.6 189.7 101.25 182.3 96.0 189.0" fill="#a6ad9e" fill-opacity="0.99607843" fill-rule="evenodd" stroke="none"/>
    <path d="M84.0 189.0 L84.0 188.0 89.0 188.0 90.0 188.0 90.5 188.0 Q89.55 200.15 84.0 195.0 L84.85 194.75 Q91.65 189.8 84.0 189.0" fill="#4a4e58" fill-opacity="0.93333334" fill-rule="evenodd" stroke="none"/>
    <path d="M90.0 210.0 L89.75 209.35 81.0 203.0 Q81.0 202.5 80.8 202.35 78.85 201.15 78.0 199.0 80.7 199.2 81.45 197.15 L82.0 197.0 Q86.25 199.75 91.1 201.8 L92.0 202.0 Q93.95 208.05 100.9 209.5 L101.0 210.0 100.0 210.0 97.0 210.0 96.75 209.2 Q95.5 207.55 94.0 209.0 L93.75 208.25 Q92.65 207.2 90.0 210.0" fill="#5d6168" fill-rule="evenodd" stroke="none"/>
    <path d="M96.0 189.0 Q101.25 182.3 99.6 189.7 98.15 196.35 96.0 189.0" fill="#707569" fill-rule="evenodd" stroke="none"/>
    <path d="M149.0 186.0 L149.5 186.1 Q151.8 198.8 146.0 209.0 L145.1 209.2 Q139.1 212.5 130.0 211.0 L129.1 210.8 128.0 210.0 Q137.0 206.7 130.15 204.55 130.0 204.5 130.0 204.0 L130.1 203.0 Q130.65 200.35 128.0 201.0 124.4 198.7 121.0 199.1 115.75 199.7 116.35 200.8 L117.05 201.95 110.0 214.0 109.85 213.45 107.0 213.0 106.5 212.95 Q106.1 209.9 102.0 211.0 L102.0 210.0 102.9 209.8 Q110.9 205.5 100.0 204.0 L100.0 203.0 100.0 202.0 Q101.55 194.0 111.0 194.5 L111.0 194.0 111.0 193.0 Q114.7 193.2 113.55 189.15 113.5 189.0 113.0 189.0 L112.0 189.0 112.0 188.0 112.0 185.0 Q116.9 186.9 116.05 181.0 L116.0 180.0 115.9 179.0 Q115.55 176.45 112.0 177.0 L112.0 176.0 112.0 175.0 113.0 175.0 Q114.65 176.35 117.05 176.9 L118.0 177.0 Q119.75 178.75 122.1 179.8 L123.0 180.0 Q123.5 180.5 124.1 180.8 L125.0 181.0 129.45 191.8 130.0 192.0 132.0 194.5 132.0 194.0 135.75 196.3 136.0 197.0 135.0 197.0 133.0 197.0 Q140.7 206.1 144.85 192.95 L145.0 192.0 145.5 191.95 Q145.7 189.8 144.0 189.0 146.15 189.65 146.05 188.0 L146.0 187.0 146.0 186.0 146.0 185.0 Q148.15 184.4 148.5 185.9 L149.0 186.0 M116.0 191.0 Q116.0 192.5 116.75 193.25 119.95 196.45 116.0 191.0" fill="#7f8579" fill-rule="evenodd" stroke="none"/>
    <path d="M121.0 176.0 Q122.75 177.75 123.5 180.0 L123.0 180.0 122.1 179.8 Q119.75 178.75 118.0 177.0 120.15 177.65 120.5 176.1 L121.0 176.0" fill="#353b34" fill-rule="evenodd" stroke="none"/>
    <path d="M112.0 177.0 Q115.55 176.45 115.9 179.0 L116.0 180.0 115.0 180.0 Q111.8 180.2 111.0 178.0 L111.0 179.0 110.0 179.0 110.0 178.0 110.0 176.0 111.1 176.8 112.0 177.0" fill="#392d19" fill-rule="evenodd" stroke="none"/>
    <path d="M112.0 175.0 L112.0 176.0 112.0 177.0 111.1 176.8 110.0 176.0 110.0 178.0 110.0 179.0 Q109.5 179.0 109.3 179.25 108.2 180.7 106.0 181.0 106.0 180.5 106.25 180.25 106.9 179.55 106.0 176.0 108.2 175.2 111.0 175.05 L112.0 175.0" fill="#7d5027" fill-rule="evenodd" stroke="none"/>
    <path d="M116.0 180.0 L116.05 181.0 Q116.9 186.9 112.0 185.0 L112.0 188.0 112.0 189.0 111.0 189.0 109.0 189.0 Q108.35 191.65 111.0 191.5 L111.0 192.0 110.0 192.0 Q110.0 192.5 110.25 192.75 L111.0 193.0 111.0 194.0 110.0 193.95 Q108.3 193.7 108.0 192.0 L107.85 191.45 Q105.8 190.7 105.0 189.0 L105.0 188.0 106.75 185.85 107.0 185.0 107.0 184.0 108.75 182.75 109.0 182.0 Q110.7 181.7 110.95 180.0 L111.0 179.0 111.0 178.0 Q111.8 180.2 115.0 180.0 L116.0 180.0" fill="#84693b" fill-rule="evenodd" stroke="none"/>
    <path d="M110.0 179.0 L111.0 179.0 110.95 180.0 Q110.7 181.7 109.0 182.0 L108.05 182.1 Q105.9 182.65 106.0 181.0 108.2 180.7 109.3 179.25 109.5 179.0 110.0 179.0" fill="#b99569" fill-rule="evenodd" stroke="none"/>
    <path d="M112.0 189.0 L113.0 189.0 112.75 189.85 111.0 192.0 111.0 191.5 Q108.35 191.65 109.0 189.0 L111.0 189.0 112.0 189.0" fill="#594226" fill-rule="evenodd" stroke="none"/>
    <path d="M105.0 189.0 Q105.8 190.7 107.85 191.45 L108.0 192.0 107.2 192.25 Q102.95 195.65 101.0 192.0 103.15 191.15 104.35 189.2 104.5 189.0 105.0 189.0" fill="#494034" fill-rule="evenodd" stroke="none"/>
    <path d="M113.0 189.0 Q113.5 189.0 113.55 189.15 114.7 193.2 111.0 193.0 L110.25 192.75 Q110.0 192.5 110.0 192.0 L111.0 192.0 112.75 189.85 113.0 189.0" fill="#1b130d" fill-rule="evenodd" stroke="none"/>
    <path d="M116.0 191.0 Q119.95 196.45 116.75 193.25 116.0 192.5 116.0 191.0" fill="#555b55" fill-rule="evenodd" stroke="none"/>
    <path d="M160.0 169.0 L157.05 172.05 Q155.55 173.55 154.55 173.2 L153.95 173.05 Q151.3 182.05 143.0 178.0 151.4 177.75 152.7 167.3 L153.55 167.65 Q156.15 168.7 154.75 165.3 154.05 163.55 156.1 163.45 158.2 163.3 157.7 165.7 157.4 167.2 160.0 169.0" fill="#7f8780" fill-rule="evenodd" stroke="none"/>
    <path d="M125.0 154.0 Q132.9 155.0 125.05 154.5 L125.0 154.0" fill="#ced5cb" fill-rule="evenodd" stroke="none"/>
    <path d="M141.0 170.0 Q151.75 171.45 141.05 170.5 L141.0 170.0" fill="#777d77" fill-rule="evenodd" stroke="none"/>
    <path d="M130.0 191.0 Q131.45 183.45 140.95 184.5 L141.0 185.0 140.0 185.1 Q132.2 186.6 132.0 193.0 L132.0 194.0 132.0 194.5 130.0 192.0 130.0 191.0" fill="#be813a" fill-rule="evenodd" stroke="none"/>
    <path d="M144.0 184.0 Q144.95 185.05 145.45 186.85 L146.0 187.0 146.05 188.0 Q146.15 189.65 144.0 189.0 145.7 189.8 145.5 191.95 L145.0 192.0 144.2 192.25 Q139.65 195.95 136.0 197.0 L135.75 196.3 132.0 194.0 132.0 193.0 Q132.2 186.6 140.0 185.1 L141.0 185.0 Q143.15 185.65 143.5 184.1 L144.0 184.0" fill="#dfbc4f" fill-rule="evenodd" stroke="none"/>
    <path d="M130.0 183.0 Q136.7 177.65 143.75 183.3 L144.0 184.0 143.5 184.1 Q143.15 185.65 141.0 185.0 L140.95 184.5 Q131.45 183.45 130.0 191.0 L129.75 190.3 Q128.1 188.9 128.0 186.0 129.7 185.7 129.5 183.0 L130.0 183.0" fill="#8b5924" fill-rule="evenodd" stroke="none"/>
    <path d="M125.0 181.0 L125.0 180.0 Q131.15 177.35 130.1 182.0 L130.0 183.0 129.5 183.0 Q129.7 185.7 128.0 186.0 128.1 188.9 129.75 190.3 L130.0 191.0 130.0 192.0 129.45 191.8 125.0 181.0" fill="#2a2014" fill-rule="evenodd" stroke="none"/>
    <path d="M145.0 192.0 L144.85 192.95 Q140.7 206.1 133.0 197.0 L135.0 197.0 136.0 197.0 Q139.65 195.95 144.2 192.25 L145.0 192.0" fill="#bbbba6" fill-rule="evenodd" stroke="none"/>
    <path d="M135.0 164.0 Q143.2 160.7 142.1 162.45 138.0 169.15 135.0 164.0" fill="#cfd7cc" fill-rule="evenodd" stroke="none"/>
    <path d="M152.0 206.0 Q160.2 214.7 152.25 206.75 152.0 206.5 152.0 206.0" fill="#0e1010" fill-rule="evenodd" stroke="none"/>
    <path d="M145.0 220.0 L144.05 220.15 Q140.7 221.2 139.0 224.0 137.95 224.95 136.0 225.1 131.8 225.3 128.95 227.35 121.8 232.5 122.0 225.0 129.85 222.0 137.3 214.25 L141.0 214.05 Q150.8 214.7 157.0 219.0 L156.8 219.9 156.0 221.0 Q155.5 221.0 155.3 221.25 152.85 224.05 145.0 219.0 L145.0 220.0" fill="#110609" fill-rule="evenodd" stroke="none"/>
    <path d="M139.0 224.0 Q140.7 221.2 144.05 220.15 L145.0 220.0 145.15 220.95 Q146.55 224.7 143.0 230.0 L141.5 230.0 Q145.5 226.75 139.0 226.0 L139.0 225.0 139.0 224.0" fill="#676c78" fill-rule="evenodd" stroke="none"/>
    <path d="M156.0 221.0 L156.8 219.9 157.0 219.0 Q163.5 212.8 157.2 225.1 L157.0 226.0 156.75 226.75 156.0 227.0 155.45 226.85 Q155.0 225.5 155.0 224.0 156.65 224.15 156.1 221.95 L156.0 221.0" fill="#616672" fill-rule="evenodd" stroke="none"/>
    <path d="M130.0 211.0 L130.0 211.5 Q126.0 211.0 123.0 209.0 124.05 206.15 129.05 204.15 L130.0 204.0 Q130.0 204.5 130.15 204.55 137.0 206.7 128.0 210.0 L129.1 210.8 130.0 211.0" fill="#575e54" fill-rule="evenodd" stroke="none"/>
    <path d="M125.0 217.5 L125.0 217.0 Q134.0 211.65 125.0 217.5" fill="#0e110d" fill-rule="evenodd" stroke="none"/>
    <path d="M139.0 226.0 Q145.5 226.75 141.5 230.0 L143.0 230.0 142.75 230.75 Q137.75 235.6 136.0 227.0 137.0 226.5 138.05 226.15 L139.0 226.0" fill="#60676f" fill-rule="evenodd" stroke="none"/>
    <path d="M127.0 229.0 Q136.9 231.05 127.1 229.5 L127.0 229.0" fill="#56555f" fill-rule="evenodd" stroke="none"/>
    <path d="M157.0 226.0 Q160.5 225.0 163.45 223.1 L167.3 220.8 168.3 221.7 Q162.6 229.05 156.0 227.0 L156.75 226.75 157.0 226.0" fill="#060507" fill-rule="evenodd" stroke="none"/>
    <path d="M152.05 239.05 L150.85 239.3 Q143.95 240.9 134.0 238.0 145.95 235.45 153.5 235.0 L152.7 235.55 Q152.0 236.0 151.0 236.0 150.7 237.45 152.05 239.05" fill="#5b606c" fill-rule="evenodd" stroke="none"/>
    <path d="M128.0 201.0 Q122.8 205.8 118.05 210.95 L117.8 211.3 Q114.3 217.25 110.0 214.0 L117.05 201.95 116.35 200.8 Q115.75 199.7 121.0 199.1 124.4 198.7 128.0 201.0" fill="#576058" fill-rule="evenodd" stroke="none"/>
    <path d="M92.0 202.0 L93.0 202.0 Q95.9 203.25 99.0 202.0 L99.3 202.9 100.0 204.0 Q110.9 205.5 102.9 209.8 L102.0 210.0 101.0 210.0 100.9 209.5 Q93.95 208.05 92.0 202.0" fill="#c6cebf" fill-rule="evenodd" stroke="none"/>
    <path d="M107.0 213.0 L107.0 214.0 106.5 214.0 Q106.65 216.15 105.0 216.0 L105.0 217.0 104.5 216.9 Q103.7 213.35 100.1 213.0 101.65 213.1 101.5 211.0 L102.0 211.0 Q106.1 209.9 106.5 212.95 L107.0 213.0" fill="#0f0906" fill-rule="evenodd" stroke="none"/>
    <path d="M107.0 214.0 Q107.5 214.0 107.7 214.25 110.45 217.95 105.0 219.0 L105.0 218.0 105.0 217.0 105.0 216.0 Q106.65 216.15 106.5 214.0 L107.0 214.0" fill="#8f988c" fill-rule="evenodd" stroke="none"/>
    <path d="M105.0 219.0 Q110.55 224.55 114.6 220.6 120.3 215.0 116.55 224.2 115.7 226.25 115.8 226.85 116.25 232.05 112.0 230.0 109.7 226.0 106.5 230.35 L106.0 231.0 Q98.55 223.6 97.0 211.0 L97.0 210.0 100.0 210.0 101.0 210.0 102.0 210.0 102.0 211.0 101.5 211.0 Q101.65 213.1 100.1 213.0 103.7 213.35 104.5 216.9 L105.0 217.0 105.0 218.0 105.0 219.0" fill="#140d0d" fill-rule="evenodd" stroke="none"/>
    <path d="M109.0 219.0 Q115.7 217.5 109.0 219.5 L109.0 219.0" fill="#83897f" fill-rule="evenodd" stroke="none"/>
    <path d="M93.0 213.0 L92.0 212.95 Q89.8 212.7 90.0 210.0 92.65 207.2 93.75 208.25 L94.0 209.0 93.75 209.75 92.0 211.0 92.8 212.1 93.0 213.0" fill="#9ba194" fill-rule="evenodd" stroke="none"/>
    <path d="M97.0 211.0 Q96.5 211.0 96.45 211.15 95.7 213.2 93.0 213.0 L92.8 212.1 92.0 211.0 93.75 209.75 94.0 209.0 Q95.5 207.55 96.75 209.2 L97.0 210.0 97.0 211.0" fill="#cfd7ca" fill-rule="evenodd" stroke="none"/>
    <path d="M85.0 265.0 L85.0 264.0 Q93.4 265.2 86.25 258.7 86.0 258.5 86.0 258.0 L85.8 257.1 84.0 254.0 84.8 253.75 Q86.2 252.75 83.0 251.0 L84.0 251.0 84.5 250.95 Q85.1 245.25 82.0 247.0 81.5 247.0 81.35 246.75 77.4 240.75 69.0 240.0 L69.0 239.0 69.0 238.0 Q74.9 236.25 81.0 238.5 L81.0 238.0 Q86.3 235.4 91.35 236.85 95.45 238.1 95.65 243.0 95.75 246.55 99.0 246.0 L99.5 246.0 Q99.35 248.35 98.0 250.0 95.8 260.05 106.0 260.95 L107.0 261.0 107.0 262.0 107.05 263.0 Q107.15 264.65 105.0 264.0 104.45 267.55 107.0 267.9 L108.0 268.0 107.9 268.55 104.0 269.0 104.1 268.0 Q104.65 265.35 102.0 266.0 L102.1 265.0 Q102.7 261.1 94.0 265.0 L94.0 266.0 93.05 266.2 Q89.55 267.65 86.0 265.0 L85.0 265.0" fill="#574431" fill-opacity="0.99607843" fill-rule="evenodd" stroke="none"/>
    <path d="M79.0 251.0 L78.2 250.75 Q72.9 246.1 69.0 240.0 77.4 240.75 81.35 246.75 81.5 247.0 82.0 247.0 82.3 249.25 83.75 250.3 L84.0 251.0 83.0 251.0 83.0 250.5 79.0 251.0" fill="#251f15" fill-opacity="0.972549" fill-rule="evenodd" stroke="none"/>
    <path d="M99.0 246.0 L99.0 245.0 99.0 244.0 Q103.9 242.6 107.7 243.85 120.05 248.05 123.3 256.65 123.95 258.45 123.95 262.0 123.9 262.6 126.3 265.55 127.5 267.0 128.0 269.0 L127.0 269.0 Q127.15 267.4 125.95 268.8 L124.95 269.95 Q123.15 263.6 120.0 271.0 L119.75 270.35 Q115.65 267.35 108.0 268.0 L107.0 267.9 Q104.45 267.55 105.0 264.0 107.15 264.65 107.05 263.0 L107.0 262.0 Q107.5 262.0 107.65 261.8 114.1 250.9 105.0 259.0 104.9 260.65 107.0 260.5 L107.0 261.0 106.0 260.95 Q95.8 260.05 98.0 250.0 99.35 248.35 99.5 246.0 L99.0 246.0 M101.0 258.0 L101.0 258.5 Q108.9 254.0 101.0 258.0" fill="#7d461a" fill-opacity="0.99607843" fill-rule="evenodd" stroke="none"/>
    <path d="M107.0 262.0 L107.0 261.0 107.0 260.5 Q104.9 260.65 105.0 259.0 114.1 250.9 107.65 261.8 107.5 262.0 107.0 262.0" fill="#3b2510" fill-rule="evenodd" stroke="none"/>
    <path d="M94.0 266.0 L94.0 265.0 Q102.7 261.1 102.1 265.0 L102.0 266.0 102.0 267.0 101.1 266.8 Q98.55 265.45 94.0 266.0" fill="#ad5918" fill-rule="evenodd" stroke="none"/>
    <path d="M102.0 267.0 Q102.0 268.5 102.45 269.85 L103.0 270.0 102.75 270.85 Q101.95 271.95 100.0 272.0 L100.0 273.0 99.0 273.0 98.0 272.95 92.0 272.0 91.45 271.85 Q90.7 269.8 88.0 270.0 L88.0 269.5 Q85.9 269.65 86.0 268.0 91.15 269.95 93.75 266.8 L94.0 266.0 Q98.55 265.45 101.1 266.8 L102.0 267.0" fill="#64492d" fill-opacity="0.99215686" fill-rule="evenodd" stroke="none"/>
    <path d="M104.0 269.0 L107.9 268.55 108.0 268.0 Q115.65 267.35 119.75 270.35 L120.0 271.0 120.0 272.0 119.0 272.0 Q119.05 283.3 111.0 277.0 L110.3 276.75 Q107.05 272.95 100.0 273.0 L100.0 272.0 Q101.95 271.95 102.75 270.85 L103.0 270.0 103.75 269.75 104.0 269.0" fill="#482409" fill-opacity="0.6392157" fill-rule="evenodd" stroke="none"/>
    <path d="M102.0 266.0 Q104.65 265.35 104.1 268.0 L104.0 269.0 103.75 269.75 103.0 270.0 102.45 269.85 Q102.0 268.5 102.0 267.0 L102.0 266.0" fill="#a75517" fill-rule="evenodd" stroke="none"/>
    <path d="M137.0 304.0 L136.2 303.75 Q128.35 297.65 124.0 288.0 L123.8 287.1 122.0 284.0 121.8 283.1 Q119.7 278.3 119.0 272.0 L120.0 272.0 Q127.7 280.05 127.05 270.0 L127.0 269.0 128.0 269.0 Q132.0 280.85 137.75 287.35 140.7 290.7 144.0 288.0 149.85 288.9 147.9 299.15 147.2 302.75 144.55 303.95 142.8 304.7 143.4 302.1 144.5 297.5 140.3 302.2 L140.0 305.0 139.5 304.9 Q139.15 303.4 137.0 304.0" fill="#514d46" fill-opacity="0.99215686" fill-rule="evenodd" stroke="none"/>
    <path d="M120.0 271.0 Q123.15 263.6 124.95 269.95 L125.95 268.8 Q127.15 267.4 127.0 269.0 L127.05 270.0 Q127.7 280.05 120.0 272.0 L120.0 271.0" fill="#716860" fill-rule="evenodd" stroke="none"/>
    <path d="M101.0 258.0 Q108.9 254.0 101.0 258.5 L101.0 258.0" fill="#46290f" fill-rule="evenodd" stroke="none"/>
    <path d="M80.0 253.0 L79.4 252.8 Q79.0 252.0 79.0 251.0 L83.0 250.5 83.0 251.0 Q86.2 252.75 84.8 253.75 L84.0 254.0 Q83.5 254.0 83.4 253.8 82.7 252.3 80.0 253.0" fill="#834516" fill-opacity="0.9843137" fill-rule="evenodd" stroke="none"/>
    <path d="M84.0 251.0 L83.75 250.3 Q82.3 249.25 82.0 247.0 85.1 245.25 84.5 250.95 L84.0 251.0" fill="#763c17" fill-rule="evenodd" stroke="none"/>
    <path d="M85.0 264.0 Q84.5 264.0 84.4 263.8 83.5 262.0 83.0 260.0 L82.8 259.1 82.0 258.0 81.9 257.5 Q80.4 257.15 81.0 255.0 83.95 255.55 85.35 257.8 85.5 258.0 86.0 258.0 86.0 258.5 86.25 258.7 93.4 265.2 85.0 264.0" fill="#945521" fill-opacity="0.972549" fill-rule="evenodd" stroke="none"/>
    <path d="M83.0 260.0 L82.0 260.0 79.0 260.0 Q78.5 260.0 78.2 260.25 73.15 264.55 73.0 258.0 L74.0 258.0 81.0 258.0 82.0 258.0 82.8 259.1 83.0 260.0" fill="#483527" fill-opacity="0.8666667" fill-rule="evenodd" stroke="none"/>
    <path d="M81.0 255.0 Q80.5 255.0 80.4 254.8 80.0 254.0 80.0 253.0 82.7 252.3 83.4 253.8 83.5 254.0 84.0 254.0 L85.8 257.1 86.0 258.0 Q85.5 258.0 85.35 257.8 83.95 255.55 81.0 255.0" fill="#3a2814" fill-opacity="0.94509804" fill-rule="evenodd" stroke="none"/>
    <path d="M88.0 270.0 Q87.5 270.0 87.25 270.25 83.25 273.95 82.0 271.0 85.5 270.5 85.05 266.0 L85.0 265.0 86.0 265.0 86.0 267.0 86.0 268.0 Q85.9 269.65 88.0 269.5 L88.0 270.0" fill="#150e0a" fill-opacity="0.41568628" fill-rule="evenodd" stroke="none"/>
    <path d="M94.0 266.0 L93.75 266.8 Q91.15 269.95 86.0 268.0 L86.0 267.0 86.0 265.0 Q89.55 267.65 93.05 266.2 L94.0 266.0" fill="#be6624" fill-opacity="0.99215686" fill-rule="evenodd" stroke="none"/>
    <path d="M124.0 288.0 L123.0 288.0 98.0 289.0 Q93.75 289.55 95.9 286.9 98.25 284.1 91.0 281.0 L91.0 280.5 Q84.9 284.55 71.0 290.0 L71.0 289.0 71.75 288.75 72.0 288.0 72.0 287.0 Q79.3 285.8 82.75 280.85 L83.0 280.0 Q84.0 280.0 84.8 279.6 85.0 279.5 85.0 279.0 L85.9 278.8 Q89.7 276.7 85.0 276.0 L85.0 275.0 Q89.35 273.4 88.2 270.9 L88.0 270.0 Q90.7 269.8 91.45 271.85 L92.0 272.0 91.85 272.95 Q91.2 274.7 88.0 274.0 91.45 279.5 97.9 275.4 99.15 274.65 99.0 273.0 L100.0 273.0 Q107.05 272.95 110.3 276.75 L111.0 277.0 Q113.15 285.75 121.0 284.1 L122.0 284.0 123.8 287.1 124.0 288.0" fill="#291607" fill-opacity="0.35686275" fill-rule="evenodd" stroke="none"/>
    <path d="M92.0 272.0 L98.0 272.95 99.0 273.0 Q99.15 274.65 97.9 275.4 91.45 279.5 88.0 274.0 91.2 274.7 91.85 272.95 L92.0 272.0" fill="#2e2016" fill-opacity="0.8" fill-rule="evenodd" stroke="none"/>
    <path d="M83.0 280.0 L82.1 280.2 Q77.9 282.45 77.0 279.0 80.05 277.1 84.05 276.1 L85.0 276.0 84.85 276.55 Q83.05 277.05 82.0 278.0 81.9 279.65 84.05 279.1 L85.0 279.0 Q85.0 279.5 84.8 279.6 84.0 280.0 83.0 280.0" fill="#1c120c" fill-opacity="0.53333336" fill-rule="evenodd" stroke="none"/>
    <path d="M85.0 279.0 L84.05 279.1 Q81.9 279.65 82.0 278.0 83.05 277.05 84.85 276.55 L85.0 276.0 Q89.7 276.7 85.9 278.8 L85.0 279.0" fill="#39281c" fill-opacity="0.79607844" fill-rule="evenodd" stroke="none"/>
    <path d="M111.0 277.0 Q119.05 283.3 119.0 272.0 119.7 278.3 121.8 283.1 L122.0 284.0 121.0 284.1 Q113.15 285.75 111.0 277.0" fill="#4f2809" fill-opacity="0.5294118" fill-rule="evenodd" stroke="none"/>
    <path d="M151.0 254.0 Q158.45 246.65 161.25 254.25 160.0 251.25 157.35 252.6 153.25 254.75 151.0 254.0 M161.85 256.3 L162.0 257.0 161.95 256.85 161.85 256.3" fill="#130a0b" fill-rule="evenodd" stroke="none"/>
    <path d="M137.0 255.0 Q150.2 253.0 137.0 255.5 L137.0 255.0" fill="#13090b" fill-rule="evenodd" stroke="none"/>
    <path d="M130.0 255.0 Q141.2 259.7 130.15 255.55 130.0 255.5 130.0 255.0" fill="#1a0c08" fill-rule="evenodd" stroke="none"/>
    <path d="M152.0 291.0 L151.8 291.85 Q150.25 294.25 149.0 297.0 L149.0 296.0 149.0 292.0 Q150.5 291.0 152.0 290.5 L152.0 291.0" fill="#281507" fill-rule="evenodd" stroke="none"/>
    <path d="M149.0 297.0 Q150.25 294.25 151.8 291.85 L152.0 291.0 158.05 284.1 Q163.7 278.0 161.25 285.75 160.15 289.25 158.75 291.0 157.65 292.35 156.35 294.75 152.0 302.5 149.0 297.0" fill="#695f59" fill-rule="evenodd" stroke="none"/>
    <path d="M70.0 212.0 L69.5 211.95 Q69.0 205.5 69.0 199.0 L70.0 199.0 70.0 211.0 70.0 212.0" fill="#1c1f20" fill-opacity="0.49803922" fill-rule="evenodd" stroke="none"/>
    <path d="M52.0 236.0 Q54.95 237.55 55.9 241.05 L56.0 242.0 55.05 241.9 Q51.5 241.0 52.0 236.0" fill="#22272c" fill-opacity="0.92941177" fill-rule="evenodd" stroke="none"/>
    <path d="M51.0 262.0 L51.1 261.05 Q51.65 258.9 50.0 259.0 L50.0 258.0 50.05 257.0 Q50.75 252.25 49.0 250.0 L48.8 249.1 Q46.1 243.4 47.0 234.0 50.35 233.65 51.75 235.2 L52.0 236.0 Q51.5 241.0 55.05 241.9 L56.0 242.0 Q59.2 244.3 60.8 248.1 L61.0 249.0 60.5 249.0 Q60.65 251.15 59.0 251.0 60.2 254.25 62.25 252.25 62.5 252.0 63.0 252.0 62.8 255.7 67.0 255.05 L68.0 255.0 67.85 255.55 65.0 256.0 Q66.55 257.45 66.95 260.0 L67.0 261.0 Q65.5 262.0 63.85 262.4 L63.5 262.5 Q62.95 266.9 60.75 266.5 52.0 264.95 54.3 263.1 59.95 258.55 51.0 262.0 M50.95 245.3 L51.7 246.3 Q53.0 238.6 49.0 243.0 L50.95 245.3" fill="#404548" fill-opacity="0.972549" fill-rule="evenodd" stroke="none"/>
    <path d="M50.95 245.3 L49.0 243.0 Q53.0 238.6 51.7 246.3 L50.95 245.3" fill="#2a3337" fill-rule="evenodd" stroke="none"/>
    <path d="M78.0 224.0 Q83.7 230.75 78.25 224.75 L78.0 224.0" fill="#19100f" fill-rule="evenodd" stroke="none"/>
    <path d="M40.0 273.0 L40.0 273.5 Q36.0 273.05 31.25 270.15 33.65 271.55 38.0 271.05 L39.0 271.0 Q39.0 272.0 39.4 272.8 39.5 273.0 40.0 273.0" fill="#110d0c" fill-opacity="0.3019608" fill-rule="evenodd" stroke="none"/>
    <path d="M52.0 274.0 L51.0 274.0 40.0 273.0 Q39.5 273.0 39.4 272.8 39.0 272.0 39.0 271.0 45.75 272.25 50.05 271.1 L51.0 271.0 51.85 273.05 52.0 274.0" fill="#221b19" fill-opacity="0.6156863" fill-rule="evenodd" stroke="none"/>
    <path d="M28.0 283.0 Q32.65 282.15 36.1 280.2 L37.0 280.0 Q37.0 281.0 37.4 281.8 L38.0 282.0 37.8 282.65 Q35.8 283.8 33.0 284.0 L32.0 284.1 Q28.8 284.7 28.0 283.0" fill="#462f1f" fill-opacity="0.78039217" fill-rule="evenodd" stroke="none"/>
    <path d="M33.0 285.0 L32.0 285.0 25.0 285.0 25.0 284.0 25.0 283.0 27.0 283.0 28.0 283.0 Q28.8 284.7 32.0 284.1 L33.0 284.0 33.0 285.0" fill="#382215" fill-opacity="0.81960785" fill-rule="evenodd" stroke="none"/>
    <path d="M37.0 280.0 L43.0 280.0 44.0 280.0 Q48.15 281.7 45.0 281.95 L44.0 282.0 43.0 282.0 38.0 282.0 37.4 281.8 Q37.0 281.0 37.0 280.0" fill="#613d23" fill-opacity="0.827451" fill-rule="evenodd" stroke="none"/>
    <path d="M44.0 283.0 L43.0 283.0 40.0 283.0 40.0 284.0 Q39.5 284.0 39.35 284.25 37.95 286.45 35.0 287.0 35.0 286.5 35.25 286.3 37.15 284.8 33.0 285.0 L33.0 284.0 Q35.8 283.8 37.8 282.65 L38.0 282.0 43.0 282.0 44.0 282.0 44.0 283.0" fill="#20150e" fill-opacity="0.48235294" fill-rule="evenodd" stroke="none"/>
    <path d="M40.0 284.0 L39.9 284.95 Q38.75 289.25 34.0 290.0 L33.25 289.75 33.0 289.0 33.75 288.75 34.0 288.0 34.0 287.0 35.0 287.0 Q37.95 286.45 39.35 284.25 39.5 284.0 40.0 284.0" fill="#2d231c" fill-opacity="0.65882355" fill-rule="evenodd" stroke="none"/>
    <path d="M25.0 285.0 L24.0 284.95 Q17.45 284.55 13.0 282.0 L24.95 282.5 25.0 283.0 25.0 284.0 25.0 285.0" fill="#1b1512" fill-opacity="0.49803922" fill-rule="evenodd" stroke="none"/>
    <path d="M34.0 290.0 L33.9 290.55 Q24.5 293.0 17.0 292.0 25.85 289.4 33.0 288.1 L34.0 288.0 33.75 288.75 33.0 289.0 33.25 289.75 34.0 290.0" fill="#15110e" fill-opacity="0.4862745" fill-rule="evenodd" stroke="none"/>
    <path d="M68.0 255.0 Q70.2 256.8 73.9 257.5 L74.0 258.0 73.0 258.0 72.15 258.25 Q70.5 259.45 69.0 258.0 L69.0 259.0 69.0 260.0 68.0 260.0 68.0 261.0 67.0 261.0 66.95 260.0 Q66.55 257.45 65.0 256.0 L67.85 255.55 68.0 255.0" fill="#1c1815" fill-opacity="0.43137255" fill-rule="evenodd" stroke="none"/>
    <path d="M79.0 260.0 L79.05 261.0 Q79.4 263.65 73.0 263.0 L72.2 262.75 69.0 260.0 69.0 259.0 69.0 258.0 Q70.5 259.45 72.15 258.25 L73.0 258.0 Q73.15 264.55 78.2 260.25 78.5 260.0 79.0 260.0" fill="#201610" fill-opacity="0.65882355" fill-rule="evenodd" stroke="none"/>
    <path d="M62.0 249.0 L65.9 249.45 66.0 250.0 66.25 250.75 67.0 251.0 66.8 251.9 66.0 253.0 Q65.9 254.65 68.0 254.5 L68.0 255.0 67.0 255.05 Q62.8 255.7 63.0 252.0 L62.9 251.5 Q61.4 251.15 62.0 249.0" fill="#1a1715" fill-opacity="0.39607844" fill-rule="evenodd" stroke="none"/>
    <path d="M66.0 250.0 Q80.25 253.3 68.0 251.1 L67.0 251.0 66.25 250.75 66.0 250.0" fill="#161311" fill-opacity="0.42352942" fill-rule="evenodd" stroke="none"/>
    <path d="M61.0 249.0 L62.0 249.0 Q61.4 251.15 62.9 251.5 L63.0 252.0 Q62.5 252.0 62.25 252.25 60.2 254.25 59.0 251.0 60.65 251.15 60.5 249.0 L61.0 249.0" fill="#2c2c2a" fill-opacity="0.93333334" fill-rule="evenodd" stroke="none"/>
    <path d="M69.0 264.0 L69.0 265.0 69.0 266.0 69.0 268.0 69.0 269.0 68.9 270.0 Q67.65 277.65 65.0 284.0 L64.0 284.0 61.0 284.0 60.95 283.5 Q57.75 283.25 58.0 280.0 61.5 281.7 63.4 277.2 63.5 277.0 64.0 277.0 L64.0 277.5 Q69.3 265.1 62.0 273.0 L61.9 272.05 Q61.2 269.2 58.0 271.0 58.3 272.7 60.0 272.95 L61.0 273.0 60.85 273.55 58.0 274.0 58.0 275.0 58.0 276.0 57.8 276.9 Q55.9 280.3 52.0 276.0 L52.0 275.0 52.0 274.0 51.85 273.05 51.0 271.0 51.0 270.0 51.0 262.0 Q59.95 258.55 54.3 263.1 52.0 264.95 60.75 266.5 62.95 266.9 63.5 262.5 L63.85 262.4 Q65.5 262.0 67.0 261.0 L68.0 261.0 Q67.4 263.15 68.9 263.5 L69.0 264.0" fill="#353128" fill-opacity="0.98039216" fill-rule="evenodd" stroke="none"/>
    <path d="M73.0 263.0 L72.9 263.55 69.0 264.0 68.9 263.5 Q67.4 263.15 68.0 261.0 L68.0 260.0 69.0 260.0 72.2 262.75 73.0 263.0" fill="#0a0907" fill-opacity="0.3019608" fill-rule="evenodd" stroke="none"/>
    <path d="M69.0 266.0 Q75.4 265.9 69.9 268.8 L69.0 269.0 69.0 268.0 69.0 266.0" fill="#100d0b" fill-opacity="0.30980393" fill-rule="evenodd" stroke="none"/>
    <path d="M73.0 271.0 Q79.9 271.85 73.05 271.5 L73.0 271.0" fill="#1e1816" fill-opacity="0.49803922" fill-rule="evenodd" stroke="none"/>
    <path d="M46.0 256.0 Q50.45 256.45 49.1 250.95 L49.0 250.0 Q50.75 252.25 50.05 257.0 L50.0 258.0 49.0 258.0 Q46.55 257.95 46.0 256.0" fill="#252321" fill-opacity="0.6745098" fill-rule="evenodd" stroke="none"/>
    <path d="M50.0 259.0 Q45.5 261.0 42.5 264.45 L42.0 265.0 Q45.25 260.6 39.0 258.0 42.8 257.8 45.15 256.25 45.5 256.0 46.0 256.0 46.55 257.95 49.0 258.0 L50.0 258.0 50.0 259.0" fill="#140f0d" fill-opacity="0.47843137" fill-rule="evenodd" stroke="none"/>
    <path d="M51.0 278.0 L51.0 277.0 51.0 276.0 52.0 276.0 Q55.9 280.3 57.8 276.9 L58.0 276.0 Q61.8 274.75 63.75 276.3 L64.0 277.0 Q63.5 277.0 63.4 277.2 61.5 281.7 58.0 280.0 57.75 283.25 60.95 283.5 L61.0 284.0 60.0 284.0 54.0 284.0 53.8 283.1 Q52.8 281.2 51.0 280.0 L51.0 279.0 51.0 278.0" fill="#935a2b" fill-opacity="0.9882353" fill-rule="evenodd" stroke="none"/>
    <path d="M58.0 276.0 L58.0 275.0 58.0 274.0 60.85 273.55 61.0 273.0 62.0 273.0 Q69.3 265.1 64.0 277.5 L64.0 277.0 63.75 276.3 Q61.8 274.75 58.0 276.0" fill="#222620" fill-rule="evenodd" stroke="none"/>
    <path d="M54.0 284.0 L53.0 284.0 Q51.05 283.95 50.0 283.0 L49.85 282.05 49.0 280.0 50.0 280.0 51.0 280.0 Q52.8 281.2 53.8 283.1 L54.0 284.0" fill="#524538" fill-opacity="0.93333334" fill-rule="evenodd" stroke="none"/>
    <path d="M50.0 283.0 L49.0 283.0 44.0 283.0 44.0 282.0 45.0 281.95 Q48.15 281.7 44.0 280.0 47.55 279.55 50.1 278.2 L51.0 278.0 51.0 279.0 51.0 280.0 50.0 280.0 49.0 280.0 49.85 282.05 50.0 283.0" fill="#3c2819" fill-opacity="0.6901961" fill-rule="evenodd" stroke="none"/>
    <path d="M65.0 284.0 L64.9 284.5 Q58.25 285.75 54.0 284.0 L60.0 284.0 61.0 284.0 64.0 284.0 65.0 284.0" fill="#19120b" fill-opacity="0.5176471" fill-rule="evenodd" stroke="none"/>
    <path d="M53.0 295.0 L52.8 295.6 Q47.3 298.25 43.0 297.0 47.55 296.05 51.1 294.2 L52.0 294.0 Q52.0 294.5 52.25 294.75 L53.0 295.0" fill="#120e0c" fill-opacity="0.44705883" fill-rule="evenodd" stroke="none"/>
    <path d="M64.0 292.0 L63.05 292.15 53.0 295.0 52.25 294.75 Q52.0 294.5 52.0 294.0 55.2 291.7 60.0 291.05 L61.0 291.0 63.85 291.45 64.0 292.0" fill="#251a13" fill-opacity="0.5921569" fill-rule="evenodd" stroke="none"/>
    <path d="M62.0 273.0 L61.0 273.0 60.0 272.95 Q58.3 272.7 58.0 271.0 61.2 269.2 61.9 272.05 L62.0 273.0" fill="#775940" fill-rule="evenodd" stroke="none"/>
    <path d="M71.0 290.0 L70.5 290.05 Q70.25 293.0 64.0 292.0 L63.85 291.45 61.0 291.0 61.0 290.0 Q66.8 289.8 71.05 288.15 L72.0 288.0 71.75 288.75 71.0 289.0 71.0 290.0" fill="#171311" fill-opacity="0.46666667" fill-rule="evenodd" stroke="none"/>
    <path d="M50.0 299.0 Q62.7 304.1 50.15 299.55 50.0 299.5 50.0 299.0" fill="#181412" fill-opacity="0.45490196" fill-rule="evenodd" stroke="none"/>
    <path d="M68.0 311.0 Q84.4 313.05 68.05 311.5 L68.0 311.0" fill="#130f0e" fill-opacity="0.35686275" fill-rule="evenodd" stroke="none"/>
    <path d="M37.0 306.0 Q52.1 303.65 37.0 306.5 L37.0 306.0" fill="#120e0d" fill-opacity="0.35686275" fill-rule="evenodd" stroke="none"/>
    <path d="M149.2 301.9 L149.0 301.0 Q153.65 311.7 149.2 301.9" fill="#a15015" fill-opacity="0.99215686" fill-rule="evenodd" stroke="none"/>
    <path d="M180.0 307.0 L179.75 307.75 Q177.95 309.5 175.0 308.0 175.2 312.9 180.1 310.2 L181.0 310.0 Q181.0 310.5 180.8 310.6 L179.0 311.0 Q179.5 311.5 180.1 311.8 L181.0 312.0 180.75 312.75 180.0 313.0 180.0 315.0 180.0 316.0 Q179.5 316.0 179.3 315.75 176.15 311.75 160.0 312.0 L160.0 311.0 Q171.65 312.15 173.5 303.1 L174.0 303.0 Q175.85 303.85 179.75 306.35 L180.0 307.0" fill="#221811" fill-opacity="0.69411767" fill-rule="evenodd" stroke="none"/>
    <path d="M160.0 312.0 L159.05 311.85 153.0 312.0 Q152.3 315.2 153.75 316.3 L154.0 317.0 154.0 318.0 153.3 317.75 Q146.45 310.0 136.0 317.0 L136.0 318.0 136.0 319.0 135.05 318.85 Q133.3 318.25 133.0 316.0 135.7 316.7 135.95 315.0 L136.0 314.0 Q143.9 311.75 137.25 304.75 137.0 304.5 137.0 304.0 139.15 303.4 139.5 304.9 L140.0 305.0 Q147.75 309.75 159.0 310.95 L160.0 311.0 160.0 312.0" fill="#27180d" fill-opacity="0.46666667" fill-rule="evenodd" stroke="none"/>
    <path d="M154.0 317.0 Q159.85 322.9 154.25 318.7 154.0 318.5 154.0 318.0 L154.0 317.0" fill="#1f1b19" fill-opacity="0.32941177" fill-rule="evenodd" stroke="none"/>
    <path d="M124.0 315.0 L123.1 314.8 122.0 314.0 122.0 313.0 122.0 312.0 126.0 312.0 127.0 312.0 127.0 313.0 127.0 314.0 126.85 314.55 124.0 315.0" fill="#463324" fill-opacity="0.827451" fill-rule="evenodd" stroke="none"/>
    <path d="M136.0 319.0 Q135.7 320.7 134.0 320.85 132.0 321.0 131.8 320.4 130.5 316.55 124.0 315.0 L126.85 314.55 127.0 314.0 135.0 314.0 136.0 314.0 135.95 315.0 Q135.7 316.7 133.0 316.0 133.3 318.25 135.05 318.85 L136.0 319.0" fill="#32261f" fill-opacity="0.7176471" fill-rule="evenodd" stroke="none"/>
    <path d="M122.0 314.0 L121.0 314.0 117.0 314.0 117.0 313.0 118.0 313.0 Q119.7 311.7 119.5 308.0 L120.0 308.0 Q120.3 312.7 127.0 311.5 L127.0 312.0 126.0 312.0 122.0 312.0 122.0 313.0 122.0 314.0" fill="#1e1816" fill-opacity="0.627451" fill-rule="evenodd" stroke="none"/>
    <path d="M123.0 328.5 L123.0 328.0 Q131.1 321.75 123.0 328.5" fill="#130f0f" fill-opacity="0.41960785" fill-rule="evenodd" stroke="none"/>
    <path d="M152.0 327.0 Q153.2 321.95 153.7 322.4 156.2 324.7 155.4 326.2 153.8 329.25 152.0 327.0" fill="#120e0c" fill-opacity="0.41568628" fill-rule="evenodd" stroke="none"/>
    <path d="M111.0 311.0 L111.0 310.0 111.0 309.0 111.0 308.0 111.0 300.0 111.0 299.0 111.0 298.0 Q117.4 298.3 119.85 307.05 L120.0 308.0 119.5 308.0 Q119.7 311.7 118.0 313.0 L117.75 312.2 Q116.2 310.25 112.0 311.0 L111.0 311.0" fill="#2c2b24" fill-opacity="0.94509804" fill-rule="evenodd" stroke="none"/>
    <path d="M111.0 309.0 L110.5 308.95 Q110.0 304.5 110.0 300.0 L111.0 300.0 111.0 308.0 111.0 309.0" fill="#0c0e0e" fill-opacity="0.3019608" fill-rule="evenodd" stroke="none"/>
    <path d="M117.0 314.0 L116.5 314.0 Q118.8 318.75 113.0 318.0 L113.0 319.0 112.4 318.8 Q112.0 318.0 112.0 317.0 L112.5 317.0 Q111.15 313.1 105.55 313.0 L110.9 312.5 111.0 312.0 111.0 311.0 112.0 311.0 Q111.9 314.1 116.05 313.1 L117.0 313.0 117.0 314.0" fill="#3e2e24" fill-opacity="0.7490196" fill-rule="evenodd" stroke="none"/>
    <path d="M112.0 317.0 Q112.0 316.5 111.8 316.35 108.6 314.4 103.0 315.0 L103.05 314.0 Q103.15 312.4 101.0 313.0 L101.0 312.0 110.0 312.0 111.0 312.0 110.9 312.5 105.55 313.0 Q111.15 313.1 112.5 317.0 L112.0 317.0" fill="#1a1411" fill-opacity="0.45882353" fill-rule="evenodd" stroke="none"/>
    <path d="M103.0 315.0 Q102.5 315.0 102.25 315.25 96.9 320.4 88.0 317.0 90.45 315.45 95.0 315.5 L95.0 315.0 95.0 314.0 95.75 313.75 96.0 313.0 100.0 313.0 101.0 313.0 Q103.15 312.4 103.05 314.0 L103.0 315.0" fill="#1f1a17" fill-opacity="0.5764706" fill-rule="evenodd" stroke="none"/>
    <path d="M110.0 322.0 L109.8 322.95 Q108.15 326.95 107.0 320.0 L108.0 320.0 109.0 320.0 108.75 320.75 108.0 321.0 109.1 321.8 110.0 322.0" fill="#0f0b0b" fill-opacity="0.41568628" fill-rule="evenodd" stroke="none"/>
    <path d="M113.0 319.0 L112.95 320.0 Q112.7 322.2 110.0 322.0 L109.1 321.8 108.0 321.0 108.75 320.75 109.0 320.0 109.0 319.0 109.0 318.0 Q110.0 317.5 111.05 317.15 L112.0 317.0 Q112.0 318.0 112.4 318.8 L113.0 319.0" fill="#181310" fill-opacity="0.5254902" fill-rule="evenodd" stroke="none"/>
    <path d="M118.0 313.0 L117.0 313.0 116.05 313.1 Q111.9 314.1 112.0 311.0 116.2 310.25 117.75 312.2 L118.0 313.0" fill="#b86321" fill-rule="evenodd" stroke="none"/>
    <path d="M96.0 307.0 Q107.1 309.65 96.1 307.5 L96.0 307.0" fill="#14100d" fill-opacity="0.2901961" fill-rule="evenodd" stroke="none"/>
    <path d="M95.0 315.0 L94.0 315.0 Q87.75 314.75 84.0 312.0 L95.0 312.95 96.0 313.0 95.75 313.75 95.0 314.0 95.0 315.0" fill="#14110f" fill-opacity="0.4117647" fill-rule="evenodd" stroke="none"/>
    <path d="M100.0 323.0 Q111.5 322.6 100.0 323.5 L100.0 323.0" fill="#15110f" fill-opacity="0.29803923" fill-rule="evenodd" stroke="none"/>
    <path d="M114.0 330.0 Q120.65 327.9 120.5 329.9 L119.35 330.65 Q115.0 333.15 114.0 330.0" fill="#130f0e" fill-opacity="0.40784314" fill-rule="evenodd" stroke="none"/>
    <path d="M285.0 222.0 L284.85 222.95 Q283.0 227.5 280.0 231.0 L280.0 237.0 280.0 238.0 Q279.65 233.25 275.7 236.0 269.8 240.15 261.0 235.0 259.55 236.5 259.4 237.8 257.9 248.6 264.0 257.0 L263.5 257.0 Q266.8 262.55 260.0 260.0 258.4 255.1 258.6 249.0 258.85 241.9 253.05 241.5 250.35 241.35 252.05 242.85 253.8 244.45 255.0 247.0 254.0 247.5 253.1 248.15 251.95 248.95 251.8 249.55 L250.95 252.45 Q248.3 247.95 246.95 247.85 239.5 247.2 242.2 244.0 245.95 239.55 239.0 237.0 252.7 239.4 262.6 230.55 275.2 219.2 287.05 214.05 L286.1 215.35 Q283.55 219.0 285.0 222.0" fill="#170c0d" fill-opacity="0.9882353" fill-rule="evenodd" stroke="none"/>
    <path d="M266.0 209.0 L265.25 208.75 Q259.55 202.45 255.0 195.0 259.6 199.9 265.0 202.5 L264.3 201.5 Q257.2 191.15 265.55 202.1 265.8 202.45 265.35 204.65 265.1 206.0 267.0 208.0 L266.0 208.0 266.0 209.0" fill="#3d424c" fill-rule="evenodd" stroke="none"/>
    <path d="M258.45 209.25 Q256.45 210.0 256.0 206.0 266.55 206.4 258.45 209.25" fill="#414652" fill-rule="evenodd" stroke="none"/>
    <path d="M257.0 218.0 L257.0 217.0 257.0 216.0 Q258.5 215.0 260.1 214.2 L261.0 214.0 260.75 214.8 Q259.25 216.75 257.0 218.0" fill="#4e5664" fill-rule="evenodd" stroke="none"/>
    <path d="M280.0 239.0 L280.75 239.25 281.0 240.0 280.65 243.85 Q279.9 250.25 284.75 254.05 294.0 261.45 284.4 257.45 277.8 254.7 280.0 239.0" fill="#130b09" fill-opacity="0.99607843" fill-rule="evenodd" stroke="none"/>
    <path d="M255.7 282.25 L255.2 285.75 Q251.45 283.2 252.0 274.0 257.3 271.8 255.7 282.25" fill="#120b08" fill-rule="evenodd" stroke="none"/>
    <path d="M271.9 277.1 L266.0 270.0 Q275.25 274.65 273.0 278.5 L271.9 277.1" fill="#140d09" fill-rule="evenodd" stroke="none"/>
    <path d="M278.0 289.0 Q286.2 284.4 278.0 289.5 L278.0 289.0" fill="#2e1606" fill-rule="evenodd" stroke="none"/>
    <path d="M281.0 283.0 Q291.95 287.75 281.15 283.55 281.0 283.5 281.0 283.0" fill="#241207" fill-rule="evenodd" stroke="none"/>
    <path d="M313.0 260.0 L313.0 259.0 Q317.2 252.2 322.0 251.1 L323.0 251.0 Q319.7 253.7 317.7 258.45 313.7 267.85 313.0 260.0" fill="#5c636d" fill-opacity="0.93333334" fill-rule="evenodd" stroke="none"/>
    <path d="M303.0 272.0 L303.0 271.0 Q303.5 270.5 304.1 270.2 L305.0 270.0 Q305.5 270.5 306.1 270.7 L307.05 271.15 Q308.5 279.75 303.0 272.0" fill="#120c0d" fill-opacity="0.9411765" fill-rule="evenodd" stroke="none"/>
    <path d="M323.0 271.0 Q323.0 271.5 323.2 271.6 337.15 278.65 321.0 275.0 L321.0 274.0 Q322.7 273.7 322.5 271.0 L323.0 271.0" fill="#15110f" fill-opacity="0.39607844" fill-rule="evenodd" stroke="none"/>
    <path d="M300.0 248.0 Q310.6 246.05 302.85 250.8 L302.0 251.0 301.75 250.15 300.0 248.0" fill="#1b1716" fill-opacity="0.42352942" fill-rule="evenodd" stroke="none"/>
    <path d="M288.0 265.0 Q293.95 272.8 288.25 265.8 288.0 265.5 288.0 265.0" fill="#1c0f09" fill-rule="evenodd" stroke="none"/>
    <path d="M317.0 290.0 L317.0 290.5 Q305.9 290.05 299.0 292.0 L299.0 291.0 300.75 289.75 301.0 289.0 302.0 289.0 303.0 289.0 304.0 289.0 Q310.8 288.7 316.05 289.9 L317.0 290.0" fill="#120d08" fill-opacity="0.6784314" fill-rule="evenodd" stroke="none"/>
    <path d="M299.0 291.0 L298.9 290.05 Q298.0 286.55 294.0 286.0 299.0 285.55 300.75 288.15 L301.0 289.0 300.75 289.75 299.0 291.0" fill="#8a4714" fill-opacity="0.9882353" fill-rule="evenodd" stroke="none"/>
    <path d="M303.0 289.0 L303.0 288.0 303.0 286.0 Q313.5 282.2 304.25 288.35 304.0 288.5 304.0 289.0 L303.0 289.0" fill="#96561e" fill-opacity="0.99607843" fill-rule="evenodd" stroke="none"/>
    <path d="M318.0 284.0 Q329.0 283.95 322.1 285.5 322.0 285.5 322.0 286.0 L321.2 286.25 Q318.5 288.45 316.0 286.0 L317.75 284.75 318.0 284.0" fill="#130f0d" fill-opacity="0.3019608" fill-rule="evenodd" stroke="none"/>
    <path d="M314.0 296.0 Q307.7 295.85 303.0 294.0 313.8 293.7 315.5 296.0 L314.0 296.0" fill="#110d0c" fill-opacity="0.31764707" fill-rule="evenodd" stroke="none"/>
    <path d="M319.0 296.0 Q335.1 299.95 319.1 296.5 L319.0 296.0" fill="#120e0c" fill-opacity="0.2901961" fill-rule="evenodd" stroke="none"/>
    <path d="M222.0 205.0 Q235.9 205.75 226.15 208.45 226.0 208.5 226.0 209.0 L225.35 208.75 Q223.95 206.55 222.0 205.0" fill="#4d525f" fill-rule="evenodd" stroke="none"/>
    <path d="M236.0 220.0 L236.0 221.0 235.35 220.75 232.0 216.0 Q241.45 216.15 236.2 219.35 236.0 219.5 236.0 220.0" fill="#50595e" fill-rule="evenodd" stroke="none"/>
    <path d="M213.75 203.95 Q214.0 204.0 213.95 206.0 213.9 210.4 213.0 214.0 219.85 221.15 227.75 227.3 L228.0 228.0 Q223.1 225.95 220.75 229.05 220.0 230.0 218.25 230.65 213.3 232.55 207.0 228.0 201.5 233.3 200.0 236.5 199.15 240.9 202.0 245.0 199.2 250.6 198.5 253.65 197.3 259.0 196.15 253.75 195.65 251.35 193.0 252.0 187.95 248.8 188.95 247.3 192.05 242.55 188.25 244.55 185.5 246.0 185.4 243.0 185.35 240.15 190.25 237.5 191.7 236.7 192.0 235.0 199.9 228.45 191.0 228.2 182.55 227.95 184.5 222.5 L185.0 223.0 Q194.5 230.45 195.65 215.95 195.95 212.55 194.0 211.0 189.2 208.95 182.85 214.85 180.0 217.45 177.0 215.0 183.8 214.8 187.2 211.15 193.2 204.9 200.05 210.8 206.7 216.5 211.0 212.0 211.7 203.7 213.75 203.95" fill="#140a0c" fill-rule="evenodd" stroke="none"/>
    <path d="M207.0 233.0 Q210.25 243.5 207.15 233.95 L207.0 233.0" fill="#0d0809" fill-rule="evenodd" stroke="none"/>
    <path d="M232.0 265.0 Q230.3 254.7 230.0 243.0 L230.0 242.0 Q232.75 249.3 232.05 264.0 L232.0 265.0" fill="#0c0607" fill-rule="evenodd" stroke="none"/>
    <path d="M182.15 246.45 Q181.35 246.7 182.05 249.05 L180.8 249.5 Q176.15 251.35 175.0 252.5 L174.25 251.9 Q173.25 251.1 172.0 248.0 180.2 239.65 183.5 246.0 L182.15 246.45" fill="#180c0d" fill-rule="evenodd" stroke="none"/>
    <path d="M192.95 267.0 Q197.05 277.95 191.95 278.45 L191.3 274.95 Q190.8 272.2 190.0 270.0 191.15 262.25 192.95 267.0" fill="#713610" fill-rule="evenodd" stroke="none"/>
    <path d="M163.0 278.5 L163.0 277.0 Q172.8 274.25 163.0 278.5" fill="#596066" fill-rule="evenodd" stroke="none"/>
    <path d="M179.0 276.0 Q189.25 273.5 179.0 276.5 L179.0 276.0" fill="#6a2f0a" fill-rule="evenodd" stroke="none"/>
    <path d="M183.0 281.0 Q190.7 293.0 183.25 281.85 183.0 281.5 183.0 281.0" fill="#281102" fill-rule="evenodd" stroke="none"/>
    <path d="M227.9 257.6 Q225.6 260.9 223.0 262.0 L222.55 261.3 Q221.25 259.2 222.0 255.0 222.5 248.4 229.15 253.5 230.2 254.35 227.9 257.6" fill="#535a5f" fill-rule="evenodd" stroke="none"/>
    <path d="M233.0 265.0 L233.0 264.0 233.0 252.0 Q236.35 256.6 235.6 264.95 235.0 272.0 234.0 272.5 L234.2 271.05 Q234.7 267.3 233.0 266.0 L233.0 265.0" fill="#586063" fill-rule="evenodd" stroke="none"/>
    <path d="M232.0 265.0 L233.0 265.0 233.0 266.0 233.0 273.0 233.0 274.5 Q231.35 274.15 232.0 265.0" fill="#160b06" fill-rule="evenodd" stroke="none"/>
    <path d="M210.6 253.5 Q212.8 246.8 209.0 240.0 214.95 247.55 208.8 259.35 L210.6 253.5" fill="#0f0706" fill-rule="evenodd" stroke="none"/>
    <path d="M216.0 290.0 Q220.2 283.2 220.85 273.9 221.7 262.15 227.25 268.1 227.45 273.45 226.85 278.25 225.75 287.15 228.0 290.0 232.25 294.85 223.15 295.65 222.7 295.7 221.25 293.95 218.75 290.85 218.8 294.0 219.05 303.2 215.0 292.0 L215.75 291.75 216.0 291.0 216.0 290.0" fill="#5a5c60" fill-rule="evenodd" stroke="none"/>
    <path d="M216.0 290.0 L216.0 291.0 Q215.5 291.0 215.35 290.75 213.3 287.7 213.0 283.0 215.75 284.75 215.95 289.0 L216.0 290.0" fill="#5b2704" fill-rule="evenodd" stroke="none"/>
    <path d="M242.45 279.85 Q247.45 294.35 234.0 294.0 237.35 285.85 239.6 275.35 240.0 273.55 241.5 277.2 L242.45 279.85" fill="#595f62" fill-rule="evenodd" stroke="none"/>
    <path d="M237.05 301.9 Q243.35 303.7 236.0 307.0 L235.8 306.05 Q235.4 304.15 231.35 302.25 229.25 301.25 228.0 299.0 230.4 297.05 237.15 296.35 240.85 296.0 236.65 298.2 232.2 300.5 237.05 301.9" fill="#57585c" fill-rule="evenodd" stroke="none"/>
    <path d="M221.0 312.0 L220.0 312.0 218.0 312.0 218.0 311.0 218.0 309.0 Q220.7 309.7 220.95 308.0 L221.0 307.0 Q222.65 308.35 226.0 308.5 L226.0 309.0 225.0 308.95 Q222.3 308.8 221.0 310.0 L221.0 311.0 221.0 312.0" fill="#28221f" fill-opacity="0.62352943" fill-rule="evenodd" stroke="none"/>
    <path d="M229.0 314.0 L228.95 313.5 Q223.8 313.15 221.0 312.0 L221.0 311.0 221.0 310.0 Q222.3 308.8 225.0 308.95 L226.0 309.0 227.0 309.0 228.0 309.0 229.0 309.0 230.0 309.0 Q230.95 310.05 231.45 311.85 L232.0 312.0 231.85 312.55 Q230.05 313.05 229.0 314.0" fill="#0e0b09" fill-opacity="0.31764707" fill-rule="evenodd" stroke="none"/>
    <path d="M228.0 309.0 Q228.0 308.5 228.15 308.05 229.05 305.5 228.0 303.0 230.75 304.75 230.5 308.95 L230.0 309.0 229.0 309.0 228.0 309.0" fill="#8c623d" fill-opacity="0.99215686" fill-rule="evenodd" stroke="none"/>
    <path d="M235.0 314.0 L234.05 314.15 Q228.75 315.75 225.0 319.0 L225.0 320.0 225.0 321.0 224.15 320.75 Q223.05 319.95 223.0 318.0 L223.0 317.0 Q225.25 315.25 228.05 314.15 L229.0 314.0 Q230.05 313.05 231.85 312.55 L232.0 312.0 Q233.05 312.95 234.85 313.45 L235.0 314.0" fill="#1f1a16" fill-opacity="0.64705884" fill-rule="evenodd" stroke="none"/>
    <path d="M225.0 321.0 Q228.55 320.45 229.95 322.25 L230.5 323.0 Q227.5 327.2 222.0 325.0 228.75 322.7 224.0 322.05 L223.0 322.0 222.25 321.75 222.0 321.0 222.0 320.0 222.0 318.0 223.0 318.0 Q223.05 319.95 224.15 320.75 L225.0 321.0" fill="#171310" fill-opacity="0.4392157" fill-rule="evenodd" stroke="none"/>
    <path d="M240.0 316.0 L239.85 316.55 Q234.55 318.45 235.0 314.0 237.75 313.8 239.15 314.75 L240.0 315.0 240.0 316.0" fill="#0a0706" fill-opacity="0.46666667" fill-rule="evenodd" stroke="none"/>
    <path d="M250.0 314.0 Q250.0 314.5 249.8 314.6 245.95 316.45 240.0 316.0 L240.0 315.0 Q244.1 312.65 249.05 313.9 L250.0 314.0" fill="#110c0a" fill-opacity="0.6666667" fill-rule="evenodd" stroke="none"/>
    <path d="M218.0 312.0 Q213.25 313.0 212.15 314.15 206.5 320.1 204.0 316.0 207.6 315.1 209.75 312.75 L210.0 312.0 211.0 312.0 212.0 312.0 212.85 311.75 Q218.4 307.95 210.0 309.0 L210.0 308.0 Q214.75 307.25 217.15 308.8 L218.0 309.0 218.0 311.0 218.0 312.0" fill="#14100e" fill-opacity="0.39215687" fill-rule="evenodd" stroke="none"/>
    <path d="M210.0 312.0 L209.1 311.8 Q207.2 310.8 206.0 309.0 207.5 307.55 209.15 308.75 L210.0 309.0 Q210.3 310.7 211.8 311.4 L212.0 312.0 211.0 312.0 210.0 312.0" fill="#171310" fill-opacity="0.6666667" fill-rule="evenodd" stroke="none"/>
    <path d="M212.0 312.0 L211.8 311.4 Q210.3 310.7 210.0 309.0 218.4 307.95 212.85 311.75 L212.0 312.0" fill="#2d2824" fill-opacity="0.53333336" fill-rule="evenodd" stroke="none"/>
    <path d="M223.0 322.0 Q223.0 322.5 222.8 322.6 218.7 324.65 216.0 323.0 219.2 322.7 221.15 321.25 221.5 321.0 222.0 321.0 L222.25 321.75 223.0 322.0" fill="#191210" fill-opacity="0.43529412" fill-rule="evenodd" stroke="none"/>
    <path d="M212.0 332.0 Q227.05 326.45 212.0 332.5 L212.0 332.0" fill="#120f0d" fill-opacity="0.4117647" fill-rule="evenodd" stroke="none"/>
    <path d="M202.0 302.0 L201.0 302.0 194.0 302.0 194.0 301.0 201.95 301.5 202.0 302.0" fill="#0f0d0c" fill-opacity="0.32156864" fill-rule="evenodd" stroke="none"/>
    <path d="M194.0 302.0 L201.0 302.0 202.0 302.0 Q204.9 303.0 202.9 303.7 L202.0 304.0 Q202.9 309.9 196.0 304.0 L195.0 304.05 Q193.4 304.15 194.0 302.0" fill="#271e1a" fill-opacity="0.6784314" fill-rule="evenodd" stroke="none"/>
    <path d="M194.0 302.0 Q193.4 304.15 195.0 304.05 L196.0 304.0 196.0 305.0 Q196.0 312.25 188.0 310.0 193.7 307.4 193.5 302.0 L194.0 302.0" fill="#100c0a" fill-opacity="0.39215687" fill-rule="evenodd" stroke="none"/>
    <path d="M187.0 298.0 L186.95 298.5 Q183.5 299.0 183.0 302.0 L182.75 301.15 181.0 299.0 181.0 298.0 186.0 298.0 187.0 298.0" fill="#040402" fill-opacity="0.6117647" fill-rule="evenodd" stroke="none"/>
    <path d="M179.0 301.0 L179.0 300.0 Q179.5 299.5 180.1 299.2 L181.0 299.0 182.75 301.15 183.0 302.0 182.5 302.05 Q182.05 306.35 179.0 301.0" fill="#2a2321" fill-opacity="0.7921569" fill-rule="evenodd" stroke="none"/>
    <path d="M183.0 302.0 Q183.0 302.5 183.25 302.85 188.2 310.05 180.0 307.0 L179.75 306.35 Q175.85 303.85 174.0 303.0 L174.0 302.0 178.0 301.1 179.0 301.0 Q182.05 306.35 182.5 302.05 L183.0 302.0" fill="#0e0b09" fill-opacity="0.4627451" fill-rule="evenodd" stroke="none"/>
    <path d="M201.0 297.0 L200.0 296.95 Q192.45 296.45 187.0 298.0 L187.0 297.0 Q191.05 290.1 200.75 296.35 L201.0 297.0" fill="#130902" fill-opacity="0.5921569" fill-rule="evenodd" stroke="none"/>
    <path d="M182.0 317.0 L181.8 316.4 180.0 316.0 180.0 315.0 180.0 313.0 180.75 312.75 181.0 312.0 182.0 312.0 Q182.45 314.55 186.0 314.5 L186.0 315.0 Q185.5 315.0 185.45 315.15 184.7 317.2 182.0 317.0" fill="#432e21" fill-opacity="0.83137256" fill-rule="evenodd" stroke="none"/>
    <path d="M186.0 315.0 Q186.65 317.35 189.0 317.9 L190.0 318.0 189.85 318.55 187.0 319.0 186.05 318.9 Q183.65 318.35 182.0 317.0 184.7 317.2 185.45 315.15 185.5 315.0 186.0 315.0" fill="#2f2119" fill-opacity="0.6313726" fill-rule="evenodd" stroke="none"/>
    <path d="M184.0 311.0 Q189.65 311.0 186.7 314.75 L186.0 315.0 186.0 314.5 Q182.45 314.55 182.0 312.0 183.0 312.0 183.8 311.6 184.0 311.5 184.0 311.0" fill="#2a2624" fill-opacity="0.4509804" fill-rule="evenodd" stroke="none"/>
    <path d="M181.0 310.0 L183.85 310.45 184.0 311.0 Q184.0 311.5 183.8 311.6 183.0 312.0 182.0 312.0 L181.0 312.0 180.1 311.8 Q179.5 311.5 179.0 311.0 L180.8 310.6 Q181.0 310.5 181.0 310.0" fill="#48423e" fill-opacity="0.83137256" fill-rule="evenodd" stroke="none"/>
    <path d="M190.0 318.0 L192.0 318.0 Q192.05 320.3 197.95 321.2 L200.0 321.5 Q196.3 323.65 187.0 319.0 L189.85 318.55 190.0 318.0" fill="#161211" fill-opacity="0.43529412" fill-rule="evenodd" stroke="none"/>
    <path d="M169.0 299.0 L168.75 298.35 Q166.3 296.65 163.0 299.0 165.15 301.2 165.05 303.0 L165.0 304.0 164.0 304.1 Q158.5 305.0 159.0 300.0 166.5 292.95 170.0 297.75 170.7 298.7 169.0 299.0" fill="#8f522a" fill-rule="evenodd" stroke="none"/>
    <path d="M165.0 304.0 L165.05 303.0 Q165.15 301.2 163.0 299.0 166.3 296.65 168.75 298.35 L169.0 299.0 168.9 300.0 Q168.25 303.25 165.0 304.0" fill="#966e56" fill-rule="evenodd" stroke="none"/>
    <path d="M305.0 305.0 Q318.2 304.75 314.8 309.05 314.3 309.7 313.4 309.25 310.25 307.75 307.0 307.0 L307.0 306.5 Q304.3 306.7 304.0 305.0 L305.0 305.0" fill="#251a14" fill-opacity="0.5137255" fill-rule="evenodd" stroke="none"/>
    <path d="M293.0 307.0 L293.0 306.0 Q298.45 304.45 305.0 304.5 L305.0 305.0 304.0 305.0 Q304.3 306.7 307.0 306.5 L307.0 307.0 306.0 306.95 Q300.65 306.65 297.0 308.0 L296.9 307.45 293.0 307.0" fill="#15110f" fill-opacity="0.3529412" fill-rule="evenodd" stroke="none"/>
    <path d="M297.0 308.0 Q300.2 310.8 305.05 311.65 L307.0 312.0 Q301.15 313.85 295.0 309.0 295.5 308.5 296.1 308.2 L297.0 308.0" fill="#110e0c" fill-opacity="0.40392157" fill-rule="evenodd" stroke="none"/>
    <path d="M318.0 310.0 Q329.65 312.1 318.05 310.5 L318.0 310.0" fill="#110d0c" fill-opacity="0.3529412" fill-rule="evenodd" stroke="none"/>
    <path d="M284.0 304.0 Q286.75 306.75 292.0 307.0 L293.0 307.0 296.9 307.45 297.0 308.0 296.1 308.2 Q295.5 308.5 295.0 309.0 L294.0 309.0 Q282.9 308.6 279.0 301.0 283.7 299.8 283.5 304.0 L284.0 304.0" fill="#18120f" fill-opacity="0.63529414" fill-rule="evenodd" stroke="none"/>
    <path d="M289.0 320.0 Q298.95 322.3 289.1 320.5 L289.0 320.0" fill="#1a1513" fill-opacity="0.32156864" fill-rule="evenodd" stroke="none"/>
    <path d="M267.0 307.0 L266.8 307.6 Q266.0 308.0 265.0 308.0 L264.0 308.0 263.0 308.0 262.8 307.05 Q261.4 303.6 262.0 298.0 L263.75 299.25 264.0 300.0 263.0 300.0 Q262.95 305.05 266.1 306.8 L267.0 307.0" fill="#8f572c" fill-opacity="0.972549" fill-rule="evenodd" stroke="none"/>
    <path d="M265.0 308.0 L265.0 309.0 Q264.8 312.25 261.0 310.0 L262.75 308.75 263.0 308.0 264.0 308.0 265.0 308.0" fill="#2a211b" fill-opacity="0.627451" fill-rule="evenodd" stroke="none"/>
    <path d="M270.0 304.0 L269.8 304.9 Q269.0 306.5 267.0 307.0 L266.1 306.8 Q262.95 305.05 263.0 300.0 L264.0 300.0 Q266.2 302.3 269.1 303.8 L270.0 304.0" fill="#cb6c20" fill-opacity="0.9764706" fill-rule="evenodd" stroke="none"/>
    <path d="M259.0 310.0 Q265.25 314.95 271.45 311.9 272.65 311.3 271.0 313.0 271.85 315.15 274.05 315.85 L275.0 316.0 274.75 316.75 274.0 317.0 273.1 316.8 Q269.1 314.85 263.0 315.0 L262.0 315.0 256.0 315.0 255.05 314.85 250.0 314.0 250.0 313.0 Q256.65 310.65 259.0 309.5 L259.0 310.0" fill="#1a1411" fill-opacity="0.5764706" fill-rule="evenodd" stroke="none"/>
    <path d="M271.0 313.0 Q277.6 313.4 281.5 315.0 L280.05 314.8 Q276.3 314.3 275.0 316.0 L274.05 315.85 Q271.85 315.15 271.0 313.0" fill="#1b1714" fill-opacity="0.3529412" fill-rule="evenodd" stroke="none"/>
    <path d="M275.0 316.0 Q278.95 316.55 282.15 317.55 L283.5 318.0 Q279.35 320.1 274.0 317.0 L274.75 316.75 275.0 316.0" fill="#110d0b" fill-opacity="0.40784314" fill-rule="evenodd" stroke="none"/>
    <path d="M255.2 298.9 Q253.1 294.9 252.0 290.0 258.45 296.95 256.0 300.5 L255.2 298.9" fill="#1c0d04" fill-rule="evenodd" stroke="none"/>
    <path d="M246.0 311.0 Q251.0 304.8 245.95 312.3 245.4 313.15 246.0 311.0" fill="#a1561f" fill-opacity="0.99215686" fill-rule="evenodd" stroke="none"/>
    <path d="M263.0 315.0 L263.25 315.85 Q267.4 322.45 256.0 315.0 L262.0 315.0 263.0 315.0" fill="#130e0d" fill-opacity="0.4" fill-rule="evenodd" stroke="none"/>
  </g>
</svg>
