<?xml version="1.0" encoding="UTF-8" standalone="no"?>
<svg xmlns:xlink="http://www.w3.org/1999/xlink" height="70.1px" width="146.0px" xmlns="http://www.w3.org/2000/svg">
  <g transform="matrix(1.0, 0.0, 0.0, 1.0, 0.0, -1.9)">
    <path d="M127.25 21.9 L128.0 22.3 Q130.85 22.95 134.8 25.7 136.8 27.1 140.05 36.7 143.15 45.9 146.0 47.0 L146.0 72.0 0.0 72.0 0.0 44.0 1.0 44.0 1.0 40.0 2.0 40.0 Q3.25 37.25 8.15 34.55 12.2 32.35 12.2 28.85 12.2 27.7 11.6 25.95 10.9 24.0 10.0 23.0 L32.9 17.55 33.0 17.6 33.0 17.0 31.85 15.9 Q30.8 14.9 31.0 13.0 32.75 13.35 34.2 14.5 L36.5 16.0 36.5 14.95 Q35.4 11.2 33.4 10.45 32.0 9.95 32.0 6.0 32.0 5.55 33.55 4.55 35.7 3.25 38.65 3.25 40.0 3.25 43.35 5.4 46.9 7.7 50.0 8.0 L53.0 8.0 Q52.9 7.0 54.4 4.4 L56.0 2.0 Q57.85 2.0 61.55 3.5 L65.0 5.0 Q69.75 5.0 72.05 3.45 74.35 1.9 74.75 1.9 77.65 1.9 81.35 3.65 L88.2 7.45 Q97.9 13.0 105.5 13.0 L108.45 11.9 Q111.55 10.8 112.45 10.8 115.75 10.8 118.6 14.35 121.45 17.9 122.15 17.9 L125.65 17.2 Q127.2 17.15 127.2 20.2 L127.25 21.9" fill="#ff0000" fill-opacity="0.972549" fill-rule="evenodd" stroke="none"/>
  </g>
</svg>
