<?xml version="1.0" encoding="UTF-8" standalone="no"?>
<svg xmlns:xlink="http://www.w3.org/1999/xlink" height="91.1px" width="81.0px" xmlns="http://www.w3.org/2000/svg">
  <g transform="matrix(1.0, 0.0, 0.0, 1.0, 0.0, 0.0)">
    <path d="M81.0 72.0 L80.8 72.9 Q79.8 74.8 78.0 76.0 L77.85 76.55 75.0 77.0 74.5 76.9 Q74.0 74.5 74.0 72.0 L73.1 71.8 Q70.55 70.45 67.0 70.0 L66.0 70.0 64.0 70.0 64.0 71.0 Q64.0 72.0 64.4 72.8 67.55 79.1 61.2 78.3 53.2 77.3 53.0 67.0 L52.05 67.1 Q49.9 67.65 50.0 66.0 L49.0 65.95 Q42.8 65.3 42.0 70.0 L42.0 71.0 42.0 75.0 42.0 76.0 Q43.7 76.3 43.1 79.0 L43.0 80.0 44.0 80.0 44.0 79.0 44.75 78.75 45.0 78.0 45.0 77.0 49.9 77.5 50.0 78.0 Q50.5 78.0 50.6 78.2 55.2 86.45 49.0 88.0 L48.15 87.75 Q46.95 87.05 45.0 87.0 L44.5 87.0 Q44.65 89.15 43.0 89.0 43.0 89.5 42.8 89.6 35.75 93.3 33.0 88.0 L33.0 87.0 32.05 87.1 Q29.9 87.65 30.0 86.0 L29.2 85.75 Q25.3 82.7 19.0 82.0 L18.05 82.1 Q15.9 82.65 16.0 81.0 L15.1 80.8 Q13.1 79.9 13.0 77.0 14.7 76.7 14.5 74.0 L15.0 74.0 15.0 73.0 16.0 73.0 16.0 72.0 17.0 72.0 17.0 71.0 17.0 68.0 16.75 67.25 16.0 67.0 15.0 67.1 Q11.8 67.7 11.0 66.0 L10.45 65.9 Q10.0 64.0 10.0 62.0 L11.0 62.0 11.0 61.0 11.0 57.0 10.85 56.45 Q9.05 55.95 8.0 55.0 L7.05 54.85 Q4.85 54.15 4.0 52.0 3.5 52.0 3.4 51.8 3.0 51.0 3.0 50.0 5.3 46.5 8.25 49.75 L9.0 50.0 10.0 50.0 10.0 49.0 10.0 47.0 11.0 47.0 11.0 46.0 11.0 35.0 10.5 34.9 Q10.0 32.0 10.0 29.0 L10.0 28.0 10.0 26.0 Q11.65 26.15 11.5 24.0 L12.0 24.0 12.0 23.0 12.0 22.0 11.0 22.0 10.0 22.0 9.9 22.55 Q7.2 23.2 5.0 24.0 L5.1 25.0 Q5.7 28.7 4.0 30.0 L3.25 29.75 Q1.25 27.75 0.0 25.0 L0.0 24.0 0.0 23.0 Q1.7 22.7 2.4 21.2 2.5 21.0 3.0 21.0 4.05 20.05 5.85 19.55 L6.0 19.0 6.0 18.0 8.0 18.0 9.0 18.0 Q10.05 17.05 12.0 17.0 L13.0 17.0 13.0 16.0 15.85 16.45 16.0 17.0 16.75 17.25 17.0 18.0 19.0 18.0 20.0 18.0 20.0 17.0 20.0 15.0 Q22.2 14.7 22.5 12.05 L23.0 12.0 Q24.0 11.5 25.05 11.15 L26.0 11.0 26.0 10.0 27.0 10.0 Q29.6 8.1 33.05 7.15 L34.0 7.0 35.0 7.0 36.0 7.0 37.0 7.0 37.75 7.25 38.0 8.0 39.0 8.0 39.0 7.0 39.0 5.0 40.0 5.0 41.0 5.0 Q42.7 5.3 42.1 8.0 L42.0 9.0 42.0 11.0 42.0 12.0 Q43.75 9.25 43.5 4.0 L44.0 4.0 44.0 3.0 45.0 3.0 45.0 2.0 Q45.5 1.5 46.1 1.2 L47.0 1.0 47.0 0.0 49.0 0.0 50.0 0.0 Q50.95 1.05 50.55 2.9 L50.0 3.0 49.75 3.75 49.0 4.0 49.0 5.0 49.0 14.0 49.0 15.0 50.8 15.4 51.0 16.0 54.0 16.0 55.0 16.0 55.0 15.0 58.9 15.45 59.0 16.0 58.8 16.9 58.0 18.0 57.85 18.55 55.0 19.0 54.0 19.0 53.0 19.0 52.0 19.0 52.9 23.0 53.0 24.0 Q53.3 25.7 54.8 26.4 55.0 26.5 55.0 27.0 L56.8 27.4 57.0 28.0 58.8 31.1 59.0 32.0 59.0 35.0 59.0 36.0 59.0 37.0 59.0 38.0 59.1 38.95 Q59.65 41.15 58.0 41.0 L58.0 51.0 58.0 52.0 58.0 53.0 Q59.65 52.9 59.1 55.05 L59.0 56.0 59.0 57.0 Q59.95 61.05 62.75 63.3 L63.0 64.0 63.0 65.0 Q68.7 66.8 75.95 67.5 L76.0 68.0 Q78.8 68.2 80.8 69.35 81.0 69.5 81.0 70.0 L81.0 71.0 81.0 72.0 M22.0 74.0 Q23.3 75.2 25.95 75.5 L26.0 76.0 33.95 77.5 34.0 78.0 36.05 78.85 37.0 79.0 37.0 78.0 37.0 77.0 37.0 76.0 38.0 76.0 38.0 75.0 38.0 71.0 37.75 70.3 Q30.9 64.7 21.0 67.0 L21.0 68.0 21.0 71.0 21.0 72.0 21.0 73.0 21.75 73.25 22.0 74.0 M5.0 73.0 L5.0 72.5 Q2.9 72.65 3.0 71.0 L3.0 70.0 6.9 70.45 7.0 71.0 7.0 72.0 7.0 73.0 8.5 73.0 Q5.8 81.4 2.0 73.0 L4.0 73.0 5.0 73.0" fill="#ff0000" fill-rule="evenodd" stroke="none"/>
  </g>
</svg>
