<?xml version="1.0" encoding="UTF-8" standalone="no"?>
<svg xmlns:xlink="http://www.w3.org/1999/xlink" height="104.3px" width="69.0px" xmlns="http://www.w3.org/2000/svg">
  <g transform="matrix(1.0, 0.0, 0.0, 1.0, 0.0, -0.7)">
    <path d="M54.0 8.0 Q58.5 13.7 59.9 23.0 L60.0 24.0 Q60.6 26.6 60.05 33.0 L60.0 34.0 Q61.7 35.3 60.55 38.85 L60.0 39.0 60.0 40.0 60.0 41.0 Q74.2 45.65 64.75 55.75 L64.0 56.0 63.75 56.75 62.0 58.0 Q61.4 60.15 63.0 60.05 L64.0 60.0 Q66.55 61.95 66.95 66.0 L67.0 67.0 67.0 68.0 Q66.75 72.75 64.0 75.0 L63.75 75.75 63.0 76.0 63.0 78.0 63.0 79.0 Q64.7 80.3 64.5 84.0 L65.0 84.0 65.0 83.0 67.85 83.45 68.0 84.0 68.0 85.0 Q67.4 90.6 68.8 94.05 L69.0 95.0 68.85 95.55 Q65.8 96.7 65.0 95.0 L64.0 95.0 64.0 96.0 63.8 96.9 Q59.35 104.85 55.0 97.0 L55.0 96.0 55.0 95.0 55.0 94.0 54.8 93.1 54.0 92.0 Q53.5 92.0 53.3 92.25 51.9 93.9 49.0 94.0 L48.85 94.55 46.0 95.0 45.85 95.95 Q43.05 103.85 40.0 95.0 L39.25 94.75 39.0 94.0 38.0 94.0 33.0 94.0 33.0 95.0 33.0 96.0 33.85 98.05 34.0 99.0 34.0 100.0 34.0 101.0 34.1 102.0 Q34.65 104.65 32.0 104.0 L32.0 105.0 31.0 105.0 27.0 105.0 27.0 104.0 26.1 103.8 Q23.75 102.7 24.0 99.0 25.65 99.15 25.1 96.95 L25.0 96.0 24.0 96.0 23.0 96.0 22.9 96.55 Q21.05 96.95 20.0 96.0 L19.45 95.85 Q19.0 94.5 19.0 93.0 L19.0 92.0 Q20.7 91.2 20.1 88.0 L20.0 87.0 20.0 86.0 19.0 86.1 Q15.3 86.7 14.0 85.0 L13.45 84.9 Q13.0 83.0 13.0 81.0 L14.0 81.0 14.0 80.0 14.0 76.0 13.8 75.1 13.0 74.0 12.0 74.0 11.0 74.0 11.0 77.0 11.0 78.0 11.0 80.0 11.0 81.0 11.1 81.95 Q11.65 84.15 10.0 84.0 9.65 89.35 10.85 93.05 L11.0 94.0 11.05 95.0 Q11.15 96.65 9.0 96.0 L7.45 95.7 Q5.8 88.45 5.0 79.0 6.7 78.7 6.1 76.0 L6.0 75.0 6.0 74.0 6.0 72.0 7.0 72.0 7.0 71.0 8.0 71.0 8.0 70.0 10.0 70.0 11.0 70.0 Q11.0 69.5 11.25 69.2 11.85 68.45 8.0 63.0 L7.45 62.85 Q7.0 61.5 7.0 60.0 L8.0 60.0 7.75 59.15 Q6.65 57.35 7.0 54.0 L6.45 53.85 Q6.0 52.5 6.0 51.0 L5.75 50.15 Q4.65 48.35 5.0 45.0 L4.45 44.85 Q4.0 43.5 4.0 42.0 L3.75 41.15 Q3.05 39.95 3.0 38.0 L2.5 37.9 Q2.0 35.5 2.0 33.0 L2.0 32.0 2.0 30.0 1.45 29.85 Q1.0 28.5 1.0 27.0 L0.0 27.0 0.0 26.0 0.0 21.0 1.0 21.0 1.0 20.0 1.0 19.0 2.0 19.0 2.0 18.0 2.0 17.0 3.0 17.0 3.0 16.0 4.0 16.0 4.0 15.0 Q8.2 13.7 11.2 11.25 L12.0 11.0 12.0 10.0 13.0 10.0 12.75 9.3 Q11.1 7.9 11.0 5.0 12.7 4.7 13.4 3.2 L14.0 3.0 15.0 3.0 16.0 3.0 16.0 2.0 18.85 2.45 19.0 3.0 21.85 3.45 22.0 4.0 Q23.7 4.8 22.55 7.85 L22.0 8.0 Q23.45 19.45 23.95 29.0 L24.0 30.0 25.0 30.0 26.0 30.0 28.0 30.0 29.0 30.0 Q31.15 30.65 31.45 29.1 L32.0 29.0 31.9 28.0 Q31.35 24.65 27.0 20.0 28.65 20.15 28.5 18.0 L29.0 18.0 Q31.0 17.0 33.05 16.15 L34.0 16.0 34.0 15.0 37.0 15.0 38.0 15.0 39.0 15.0 39.0 14.0 39.0 10.0 39.0 9.0 39.0 5.0 40.0 5.0 40.0 4.0 41.1 3.2 42.0 3.0 42.0 2.0 Q44.7 2.7 45.4 1.2 45.5 1.0 46.0 1.0 52.1 -0.1 53.8 3.1 L54.0 4.0 54.0 7.0 54.0 8.0 M43.0 11.0 L43.0 12.0 Q45.45 10.95 48.95 10.5 L49.0 10.0 49.0 9.0 49.0 7.0 49.0 6.5 Q47.0 7.75 45.0 6.0 L44.1 6.2 43.0 7.0 43.0 8.0 43.0 9.0 43.0 11.0 M46.25 17.75 Q46.0 17.5 46.0 17.0 L45.0 17.0 44.0 17.0 43.0 17.0 43.0 18.0 43.75 18.25 44.0 19.0 Q45.65 18.9 45.5 21.0 L46.0 21.0 46.0 20.0 46.75 19.75 47.0 19.0 47.0 18.0 46.25 17.75 M60.0 47.0 Q61.65 46.9 61.1 49.05 L61.0 50.0 61.75 50.25 62.0 51.0 Q63.65 50.9 63.5 53.0 L64.0 53.0 65.75 51.75 66.0 51.0 66.0 50.0 66.0 48.0 65.0 48.05 Q63.4 48.15 64.0 46.0 L63.1 45.8 62.0 45.0 61.0 45.0 60.0 45.0 60.0 46.0 60.0 47.0 M10.0 16.0 L9.75 16.8 Q8.7 18.2 6.0 18.0 L5.75 18.75 5.0 19.0 5.0 20.0 5.0 27.0 5.0 28.0 5.0 30.0 5.0 31.0 5.0 32.0 5.0 33.0 6.75 35.15 7.0 36.0 7.0 41.0 7.0 42.0 7.0 43.0 Q8.65 42.9 8.1 45.05 L8.0 46.0 8.0 47.0 9.1 46.2 10.0 46.0 10.0 45.0 10.0 42.0 Q12.0 40.0 12.5 36.05 L13.0 36.0 13.0 35.0 14.0 35.0 15.0 35.0 15.0 34.0 15.0 33.0 15.0 30.0 14.9 29.05 Q13.0 21.25 13.0 15.0 L12.0 15.0 11.0 15.0 10.75 15.75 10.0 16.0 M40.0 91.0 L40.55 90.9 Q40.95 89.05 40.0 88.0 L39.2 87.75 Q36.75 85.8 34.0 88.0 L34.0 90.0 34.0 91.0 35.0 91.0 36.0 91.0 39.0 91.0 40.0 91.0 M55.0 84.0 L55.0 83.5 Q50.15 84.15 46.0 86.0 L46.0 88.0 46.0 89.0 46.0 91.0 46.0 92.0 48.0 92.0 49.0 92.0 49.0 91.0 Q51.15 91.65 51.5 90.1 L52.0 90.0 52.0 89.0 54.85 88.55 55.0 88.0 55.0 87.0 55.0 84.0" fill="#ff0000" fill-rule="evenodd" stroke="none"/>
  </g>
</svg>
