<?xml version="1.0" encoding="UTF-8" standalone="no"?>
<svg xmlns:xlink="http://www.w3.org/1999/xlink" height="103.85px" width="89.25px" xmlns="http://www.w3.org/2000/svg">
  <g transform="matrix(1.0, 0.0, 0.0, 1.0, 0.0, 0.0)">
    <path d="M84.0 81.0 Q86.8 81.2 88.8 82.35 89.0 82.5 89.0 83.0 L89.1 83.95 Q89.65 86.15 88.0 86.0 87.95 87.95 86.8 88.4 L85.05 89.05 Q83.4 85.7 78.85 84.45 L77.05 83.95 Q80.2 88.2 74.0 88.0 L73.0 88.0 Q74.45 89.5 72.85 90.85 66.65 96.15 64.95 88.8 62.9 80.1 54.0 79.0 L53.05 79.15 Q52.0 79.5 51.0 80.0 L51.0 82.0 51.0 83.0 51.0 88.0 51.0 89.0 51.0 92.0 51.0 93.0 Q60.7 87.7 58.15 95.05 58.0 95.5 58.0 96.0 L58.5 96.0 Q56.1 99.75 52.0 96.0 L51.3 95.75 Q49.9 94.1 47.0 94.0 L46.0 94.0 45.0 94.0 45.0 95.0 Q44.1 98.4 47.0 98.5 L47.0 99.0 49.05 99.25 Q49.9 106.75 41.0 102.0 L41.0 101.0 41.0 100.5 Q37.8 100.7 37.0 99.0 L36.25 98.75 36.0 98.0 35.15 97.75 Q32.2 95.8 28.0 95.0 L27.0 95.1 Q24.3 95.7 24.0 94.0 L23.1 93.8 22.0 93.0 21.45 92.85 Q21.0 91.5 21.0 90.0 L22.0 90.0 22.0 89.0 22.0 87.0 23.0 87.0 23.0 86.0 24.0 86.0 24.0 85.0 25.0 85.0 25.0 84.0 25.0 81.0 25.0 80.0 24.0 80.1 Q20.3 80.7 19.0 79.0 L18.45 78.9 Q18.0 77.0 18.0 75.0 L19.0 75.0 19.0 74.0 19.0 71.0 18.8 70.1 Q18.0 68.5 16.0 68.0 16.0 71.5 15.6 74.95 15.25 78.25 16.6 81.25 19.95 88.65 14.0 90.0 L13.0 90.05 Q8.55 90.45 10.0 85.0 11.75 82.75 11.05 78.0 L11.0 77.0 10.45 76.85 Q10.0 75.5 10.0 74.0 L10.0 73.0 Q10.55 63.15 14.05 62.15 L15.0 62.0 17.0 62.0 18.0 62.0 18.0 61.0 18.0 60.0 19.0 60.0 19.0 59.0 19.0 49.0 18.75 48.35 Q8.55 41.25 1.0 29.0 L0.0 29.0 0.0 28.0 0.0 25.0 1.0 25.0 1.0 24.0 1.0 23.0 Q2.95 20.45 4.4 17.2 L5.0 17.0 5.0 16.0 5.75 15.75 6.0 15.0 6.0 14.0 6.0 13.0 Q7.05 10.55 10.0 10.5 L10.0 11.0 Q14.25 10.45 11.75 12.75 L11.0 13.0 10.85 13.95 Q10.15 16.15 8.0 17.0 L7.8 17.9 7.0 19.0 7.1 19.95 Q7.65 22.15 6.0 22.0 L5.75 22.75 4.0 24.0 4.0 25.0 4.0 29.0 4.0 30.0 Q7.25 31.25 8.45 34.85 L9.0 35.0 Q10.0 34.5 11.05 34.15 L12.0 34.0 12.0 33.0 Q13.0 33.0 13.8 32.6 L14.0 32.0 14.0 31.0 16.0 31.0 17.0 31.0 18.0 31.0 18.0 30.0 20.0 30.0 21.0 30.0 21.1 29.05 Q22.5 23.5 21.0 16.0 L22.0 16.0 22.0 15.0 22.0 11.0 23.0 11.0 23.0 10.0 Q22.8 5.7 21.0 3.0 22.65 3.1 22.5 1.0 L23.0 1.0 24.0 1.0 25.0 1.0 25.75 0.75 26.0 0.0 27.0 0.0 28.0 0.0 28.8 1.1 29.0 2.0 Q33.1 0.9 32.5 3.9 L32.0 4.0 32.0 5.0 31.8 5.9 31.0 7.0 31.0 14.0 31.0 15.0 Q33.05 19.3 31.15 24.05 31.0 24.5 31.0 25.0 32.0 24.5 33.05 24.15 L34.0 24.0 34.0 23.0 35.0 23.0 36.75 21.75 37.0 21.0 36.95 20.0 Q36.35 12.15 35.0 5.0 L36.0 5.0 36.0 4.0 37.1 3.2 38.0 3.0 38.0 2.0 39.8 2.4 Q40.0 2.5 40.0 3.0 42.9 2.75 40.65 5.75 L40.0 6.0 Q39.95 12.55 40.9 18.0 L41.0 19.0 41.0 20.0 42.0 20.0 43.0 20.0 44.0 20.0 45.0 20.0 Q45.5 20.5 46.1 20.8 L47.0 21.0 47.0 20.0 47.0 18.0 Q49.15 17.4 49.05 19.0 L49.0 20.0 Q50.65 20.15 50.5 18.0 L51.0 18.0 51.0 17.0 51.0 16.0 51.0 15.0 52.0 15.0 52.0 14.0 53.0 14.0 53.0 13.0 58.9 13.5 59.0 14.0 Q60.7 15.75 59.55 19.85 L59.0 20.0 59.2 20.85 Q60.7 23.25 58.0 25.0 L58.0 27.0 58.0 28.0 Q59.3 29.2 62.0 29.05 L63.0 29.0 63.0 28.0 65.0 28.0 66.0 28.0 66.8 29.1 67.0 30.0 66.75 30.7 Q64.55 32.55 60.0 32.0 L60.0 33.0 60.0 34.0 Q70.6 34.4 73.8 42.05 L74.0 43.0 Q73.1 49.6 67.9 51.8 L67.0 52.0 Q66.35 54.65 69.0 54.1 L70.0 54.0 Q71.7 55.3 71.1 59.0 L71.0 60.0 71.0 61.0 71.0 62.0 71.5 62.0 Q71.75 68.25 68.0 71.0 L67.0 71.0 67.0 72.0 67.0 73.0 Q70.5 77.0 73.95 77.5 L74.0 78.0 Q75.3 79.2 77.95 79.5 L78.0 80.0 83.9 80.5 84.0 81.0 M69.0 40.0 L68.05 39.85 66.0 39.0 65.0 39.0 64.0 39.0 64.0 40.0 64.75 40.25 65.0 41.0 Q66.65 40.9 66.1 43.05 L66.0 44.0 66.8 45.1 67.0 46.0 Q72.7 48.55 69.2 40.9 L69.0 40.0 M67.1 56.2 L66.0 57.0 66.0 64.0 66.0 65.0 66.0 66.0 Q67.7 66.3 67.5 69.0 L68.0 69.0 68.0 68.0 68.0 66.0 69.0 66.0 69.0 65.0 69.0 61.0 69.0 60.0 69.0 56.0 68.0 56.0 67.1 56.2 M36.0 80.0 L35.05 80.1 Q32.9 80.65 33.0 79.0 L32.0 79.0 31.0 79.0 30.1 79.2 Q29.5 79.5 29.0 80.0 L29.0 81.0 29.0 84.0 29.0 85.0 29.0 86.0 30.75 87.25 31.0 88.0 37.0 88.95 38.0 89.0 38.0 88.0 38.0 87.0 Q42.15 90.1 45.8 88.6 46.0 88.5 46.0 88.0 L46.0 87.0 46.0 84.0 45.9 83.5 Q44.4 83.15 45.0 81.0 L44.95 80.5 36.0 80.0 M20.0 35.0 L19.0 35.0 18.0 35.0 17.95 35.5 Q15.3 35.8 14.0 37.0 14.9 40.1 18.0 40.5 L18.0 40.0 18.0 39.0 Q19.65 39.15 19.5 37.0 L20.0 37.0 20.0 36.0 20.0 35.0" fill="#ff0000" fill-rule="evenodd" stroke="none"/>
  </g>
</svg>
