<?xml version="1.0" encoding="UTF-8" standalone="no"?>
<svg xmlns:xlink="http://www.w3.org/1999/xlink" height="57.0px" width="53.25px" xmlns="http://www.w3.org/2000/svg">
  <g transform="matrix(1.0, 0.0, 0.0, 1.0, -1.0, 0.0)">
    <path d="M43.0 10.0 L44.8 13.1 45.0 14.0 Q46.7 14.3 46.95 16.0 L47.0 17.0 Q47.5 17.0 47.75 17.25 L48.0 18.0 48.8 19.1 49.0 20.0 49.0 21.0 50.85 25.05 51.0 26.0 Q52.7 27.3 52.1 31.0 L52.0 32.0 52.0 33.0 52.0 34.0 Q53.7 35.3 53.1 39.0 L53.0 40.0 Q54.7 40.8 54.1 44.0 L54.0 45.0 54.0 47.0 54.0 48.0 53.95 49.0 Q53.7 50.7 52.0 51.0 L51.9 51.55 48.0 52.0 47.15 51.75 Q46.05 50.95 46.0 49.0 L45.85 48.05 Q45.1 45.4 41.0 49.0 L40.0 49.0 35.0 49.0 34.9 49.55 31.0 50.0 30.75 50.85 Q29.95 51.95 28.0 52.0 L28.0 53.0 27.9 54.0 Q27.5 56.0 26.0 57.0 L25.0 57.0 23.0 57.0 22.9 56.45 Q21.4 56.15 22.0 54.0 L22.0 53.0 22.0 51.0 21.0 51.0 20.0 51.0 20.1 51.95 Q20.65 54.15 19.0 54.0 18.5 54.0 18.3 54.25 16.5 56.4 15.0 54.0 L14.25 53.75 13.0 52.0 12.15 51.75 Q10.45 50.55 10.0 48.0 L9.0 48.1 Q6.3 48.7 6.0 47.0 L5.0 46.9 Q2.45 46.55 3.0 43.0 L2.9 42.5 Q1.4 42.15 2.0 40.0 L1.4 39.8 Q1.0 39.0 1.0 38.0 L1.0 37.0 1.0 36.0 1.0 35.0 1.0 31.0 Q2.65 31.15 2.5 29.0 L3.0 29.0 3.0 28.0 3.0 26.0 3.0 25.0 Q4.7 24.7 4.95 23.0 L5.0 22.0 5.0 21.0 5.0 20.0 5.0 18.0 Q6.95 17.95 8.15 17.25 8.5 17.0 9.0 17.0 L9.0 16.0 Q12.45 15.95 14.25 14.25 14.5 14.0 15.0 14.0 L14.8 13.1 Q14.0 11.5 12.0 11.0 L11.0 11.1 Q7.8 11.7 7.0 10.0 9.0 9.5 10.25 8.25 10.5 8.0 11.0 8.0 L11.0 7.0 12.0 7.0 12.0 6.0 Q13.05 5.05 14.9 5.45 L15.0 6.0 Q17.15 6.65 17.45 5.1 L18.0 5.0 18.0 4.0 19.1 3.2 20.0 3.0 20.0 2.0 20.0 0.0 21.0 0.0 22.0 0.0 22.1 0.95 Q22.65 3.1 21.0 3.0 L20.75 3.75 20.0 4.0 20.0 7.0 20.0 8.0 20.0 9.0 22.85 9.45 23.0 10.0 24.0 10.0 24.0 9.0 25.0 9.0 26.0 9.0 26.0 8.0 35.95 8.5 36.0 9.0 Q37.95 9.05 39.15 9.75 L40.0 10.0 Q41.05 9.05 42.9 9.45 L43.0 10.0" fill="#ff0000" fill-rule="evenodd" stroke="none"/>
  </g>
</svg>
