<?xml version="1.0" encoding="UTF-8" standalone="no"?>
<svg xmlns:xlink="http://www.w3.org/1999/xlink" height="52.0px" width="77.0px" xmlns="http://www.w3.org/2000/svg">
  <g transform="matrix(1.0, 0.0, 0.0, 1.0, -1.0, -5.0)">
    <path d="M45.1 7.3 L52.2 12.45 Q62.5 20.2 70.0 21.0 74.75 27.15 76.7 29.1 L78.0 30.0 78.0 32.0 Q71.4 33.85 72.75 36.85 73.3 38.05 72.75 38.4 71.85 39.0 67.5 39.0 L69.3 41.2 Q70.05 42.25 70.05 43.2 70.05 45.1 65.2 45.1 64.35 45.1 61.25 48.05 58.2 50.95 55.65 50.95 54.75 50.95 53.6 50.05 52.05 48.85 52.0 47.0 L51.6 47.1 45.45 52.4 Q39.65 57.0 35.0 57.0 34.4 57.0 32.2 55.25 L18.0 44.0 Q17.2 43.4 15.05 42.35 12.9 41.3 12.35 40.85 10.25 39.05 6.15 34.65 1.0 29.25 1.0 28.0 3.75 27.45 6.8 23.25 9.8 19.15 9.8 16.15 9.8 13.9 8.9 12.4 8.0 10.95 8.0 10.0 8.0 9.45 9.45 8.7 L11.05 8.1 Q13.35 8.1 14.45 9.25 15.55 10.4 17.45 10.4 19.7 10.4 20.3 8.8 L21.0 6.0 24.3 8.0 Q26.2 8.8 30.3 8.8 32.2 8.8 34.65 8.0 35.7 7.65 37.45 6.3 L39.0 5.0 Q41.5 5.0 45.1 7.3" fill="#ff0000" fill-rule="evenodd" stroke="none"/>
  </g>
</svg>
