<?xml version="1.0" encoding="UTF-8" standalone="no"?>
<svg xmlns:xlink="http://www.w3.org/1999/xlink" height="93.15px" width="61.1px" xmlns="http://www.w3.org/2000/svg">
  <g transform="matrix(1.0, 0.0, 0.0, 1.0, 0.0, -1.6)">
    <path d="M46.0 31.0 Q43.0 36.35 43.0 45.5 L45.05 47.4 Q47.05 49.8 47.05 54.05 47.05 55.7 45.55 57.05 44.0 58.4 44.0 60.0 44.0 62.85 46.65 65.4 49.3 67.95 49.3 69.25 49.3 72.75 55.2 76.25 L61.1 80.0 Q61.1 84.05 48.35 89.7 37.05 94.75 33.6 94.75 L25.3 93.65 Q19.1 92.45 17.25 91.45 16.05 90.95 15.35 90.45 14.05 89.5 14.0 88.0 L6.7 84.4 Q0.0 80.95 0.0 79.5 0.0 78.4 5.8 75.6 11.9 72.65 12.55 70.95 L15.1 66.8 Q17.0 63.75 17.0 62.0 L20.25 62.15 Q21.05 61.6 21.05 60.45 L18.0 47.0 Q18.7 46.0 19.65 45.9 20.3 45.85 20.3 45.15 L20.0 42.0 Q20.0 37.2 20.7 36.75 21.6 37.15 22.0 37.0 L22.0 35.0 Q19.0 33.35 19.0 31.0 L21.0 27.0 Q25.55 17.55 27.45 14.8 28.3 10.85 29.25 7.7 31.1 1.6 34.4 1.6 36.4 1.6 37.0 2.65 37.35 3.3 37.95 6.9 39.7 17.7 46.0 31.0" fill="#ff0000" fill-opacity="0.98039216" fill-rule="evenodd" stroke="none"/>
  </g>
</svg>
