<?xml version="1.0" encoding="UTF-8" standalone="no"?>
<svg xmlns:xlink="http://www.w3.org/1999/xlink" height="76.1px" width="66.0px" xmlns="http://www.w3.org/2000/svg">
  <g transform="matrix(1.0, 0.0, 0.0, 1.0, 0.0, -2.9)">
    <path d="M50.0 14.0 L50.0 13.0 50.0 12.0 Q54.15 8.25 51.6 13.8 L51.0 14.0 51.0 15.0 51.0 16.0 Q57.15 12.75 54.25 16.2 54.0 16.5 54.0 17.0 L53.75 17.75 53.0 18.0 53.0 20.0 53.0 21.0 52.75 21.75 52.0 22.0 Q51.4 24.15 52.9 24.5 L53.0 25.0 55.75 27.25 56.0 28.0 Q56.5 28.0 56.75 28.25 L57.0 29.0 57.0 30.0 58.0 30.0 Q59.7 31.3 59.1 35.0 L59.0 36.0 59.0 38.0 59.0 39.0 Q60.55 41.45 60.95 45.0 L61.0 46.0 61.8 47.1 62.0 48.0 62.8 49.1 63.0 50.0 64.75 51.25 65.0 52.0 66.0 52.0 66.0 62.0 66.0 63.0 65.0 63.0 64.75 63.85 Q63.95 64.95 62.0 65.0 L61.9 65.55 Q57.25 66.75 55.0 65.0 L54.0 65.0 53.0 65.0 52.0 65.0 52.0 66.0 51.85 66.55 Q50.05 67.05 49.0 68.0 L48.8 68.65 Q45.85 70.35 42.0 71.0 L41.85 71.95 40.0 76.0 39.0 76.0 38.75 76.85 Q37.95 77.95 36.0 78.0 L36.0 79.0 35.0 79.0 30.0 79.0 30.0 78.0 29.25 77.75 Q29.0 77.5 29.0 77.0 L28.0 76.9 Q25.45 76.55 26.0 73.0 L25.8 72.1 25.0 71.0 24.1 70.8 Q23.5 70.5 23.0 70.0 L22.0 70.0 21.0 70.0 20.1 69.8 Q19.5 69.5 19.0 69.0 L18.1 68.8 Q16.2 67.8 15.0 66.0 L14.25 65.75 Q14.0 65.5 14.0 65.0 L13.0 65.0 12.0 65.0 11.9 65.55 Q7.25 66.75 5.0 65.0 L4.1 64.8 Q3.5 64.5 3.0 64.0 L2.1 63.8 Q1.5 63.5 1.0 63.0 L0.0 63.0 0.0 62.0 0.0 53.0 1.0 53.0 1.0 52.0 Q2.65 52.15 2.5 50.0 L3.0 50.0 3.0 49.0 Q5.45 47.45 5.5 43.0 L6.0 43.0 6.0 42.0 6.0 39.0 Q7.7 38.7 7.5 36.0 L8.0 36.0 8.0 35.0 8.0 30.0 9.0 30.0 9.0 29.0 9.75 28.75 10.0 28.0 10.0 27.0 Q11.7 26.7 12.4 25.2 12.5 25.0 13.0 25.0 13.0 24.5 13.25 24.3 14.9 23.0 13.0 21.0 L13.75 20.75 14.0 20.0 13.75 19.25 Q11.45 17.05 10.0 14.0 16.85 17.0 14.5 10.0 L15.1 10.95 Q16.45 13.05 17.0 16.0 18.7 17.3 18.1 21.0 L18.0 22.0 19.0 22.0 20.0 22.0 20.0 21.0 21.0 21.0 21.0 20.0 21.0 17.0 21.0 16.0 21.0 15.0 20.75 14.25 Q19.3 12.7 20.0 9.0 22.3 6.35 23.1 6.8 L24.0 7.0 24.0 6.0 Q27.35 6.35 29.15 5.25 L30.0 5.0 Q31.0 5.0 31.8 4.6 L32.0 4.0 Q33.35 1.45 36.3 4.75 L37.0 5.0 Q46.25 3.75 46.0 12.0 L46.0 13.0 45.8 13.9 45.0 15.0 45.0 18.0 45.0 19.0 Q44.4 21.15 45.9 21.45 L46.0 22.0 47.0 22.0 48.0 22.0 48.0 21.0 48.0 16.0 49.0 16.0 49.0 15.0 49.0 14.0 50.0 14.0 M45.0 33.0 Q44.4 35.15 45.9 35.45 L46.0 36.0 46.65 35.8 Q49.95 30.35 44.0 29.0 44.05 30.95 44.75 32.15 L45.0 33.0 M51.0 43.0 L51.0 44.0 Q53.7 44.2 54.75 42.8 L55.0 42.0 55.0 41.0 Q54.5 41.0 54.15 41.25 52.95 41.95 51.0 42.0 L51.0 43.0 M18.0 33.0 Q17.4 35.15 18.9 35.45 L19.0 36.0 Q21.3 34.8 21.9 32.0 L22.0 31.0 22.0 30.0 22.0 29.0 21.1 29.2 18.0 31.0 18.0 32.0 18.0 33.0 M12.0 42.0 L12.0 43.0 12.75 43.25 13.0 44.0 13.95 43.9 Q17.45 43.1 13.0 41.0 L12.0 41.0 12.0 42.0" fill="#ff0000" fill-rule="evenodd" stroke="none"/>
  </g>
</svg>
