<?xml version="1.0" encoding="UTF-8" standalone="no"?>
<svg xmlns:xlink="http://www.w3.org/1999/xlink" height="81.0px" width="81.0px" xmlns="http://www.w3.org/2000/svg">
  <g transform="matrix(1.0, 0.0, 0.0, 1.0, 0.0, 0.0)">
    <path d="M81.0 63.0 L80.0 63.0 79.75 63.75 78.0 65.0 77.0 65.0 76.9 65.5 71.0 66.0 70.75 66.7 Q68.65 68.5 67.0 66.0 L66.85 66.55 Q65.05 67.05 64.0 68.0 L63.75 68.65 Q60.7 70.7 56.0 71.0 L55.0 71.0 55.0 73.0 55.0 74.0 55.0 75.0 Q57.0 75.5 58.25 76.75 L59.0 77.0 Q59.5 77.0 59.55 77.2 60.9 80.4 58.0 80.0 L58.0 81.0 57.0 81.0 46.0 81.0 45.0 81.0 40.0 81.0 40.0 80.0 39.15 79.75 37.0 78.0 36.25 77.75 33.0 74.0 32.0 74.1 Q29.3 74.7 29.0 73.0 L28.0 73.0 27.0 73.1 Q24.35 73.65 25.0 71.0 25.75 67.75 29.0 67.5 L29.0 68.0 30.0 68.0 31.0 68.0 31.0 67.0 Q30.5 67.0 30.4 66.8 29.7 65.3 28.0 65.0 L27.0 65.0 26.9 65.55 Q22.25 66.75 20.0 65.0 L19.05 65.1 Q16.9 65.65 17.0 64.0 L16.25 63.75 Q16.0 63.5 16.0 63.0 L16.0 62.0 16.0 61.0 15.15 61.25 Q13.95 61.95 12.0 62.0 L11.9 62.55 Q7.25 63.75 5.0 62.0 L4.0 62.0 2.0 62.0 1.0 62.0 0.0 62.0 0.0 61.0 0.0 60.0 4.0 60.0 5.0 60.0 6.0 60.0 Q10.7 59.7 13.75 57.65 L14.0 57.0 14.0 56.0 Q16.65 55.35 16.1 58.0 L16.0 59.0 Q17.5 58.0 18.4 56.2 18.5 56.0 19.0 56.0 L19.0 55.0 19.0 54.0 18.45 53.85 Q18.0 52.5 18.0 51.0 L19.0 51.0 19.0 50.0 19.0 49.0 19.0 48.0 19.0 47.0 Q21.0 42.5 21.9 37.0 L22.0 36.0 21.5 35.9 Q21.0 33.0 21.0 30.0 L22.0 30.0 22.75 29.75 23.0 29.0 23.0 28.0 29.2 23.25 30.0 23.0 30.05 22.0 Q30.55 13.95 28.0 9.0 30.35 11.15 31.8 14.1 L32.0 15.0 Q33.7 16.3 33.1 20.0 L33.0 21.0 34.0 21.0 35.0 21.0 36.0 21.0 36.0 20.0 36.0 16.0 36.0 15.0 36.0 14.0 36.0 13.0 36.0 10.0 37.0 10.0 37.0 9.0 38.0 9.0 39.0 9.0 39.0 8.0 Q42.95 7.45 46.05 6.2 L47.0 6.0 47.0 5.0 47.0 1.0 47.75 0.75 48.0 0.0 49.0 0.0 49.0 1.0 49.0 2.0 Q48.3 6.2 53.0 5.5 L53.0 6.0 Q56.2 5.3 57.3 6.75 L58.0 7.0 Q59.7 7.3 59.95 9.0 L60.0 10.0 60.8 11.1 61.0 12.0 61.0 16.0 61.0 17.0 62.0 17.0 62.0 16.0 62.0 15.0 Q68.85 8.1 64.2 16.15 L64.0 17.0 64.0 18.0 64.0 19.0 Q65.5 18.0 66.4 16.2 66.5 16.0 67.0 16.0 L67.0 15.0 Q72.75 13.25 69.25 16.3 69.0 16.5 69.0 17.0 L68.75 17.75 68.0 18.0 68.0 19.0 68.0 24.0 68.0 25.0 68.0 26.0 68.0 27.0 Q69.2 28.8 70.75 30.25 L71.0 31.0 Q72.35 32.65 72.9 35.05 L73.0 36.0 73.8 37.1 74.0 38.0 74.8 39.1 75.0 40.0 Q75.2 44.3 76.8 47.1 L77.0 48.0 77.8 49.1 78.0 50.0 79.75 51.25 80.0 52.0 81.0 52.0 81.0 62.0 81.0 63.0 M64.0 73.15 Q62.4 73.15 63.0 71.0 73.0 73.25 64.0 73.15" fill="#ff0000" fill-rule="evenodd" stroke="none"/>
  </g>
</svg>
