<?xml version="1.0" encoding="UTF-8" standalone="no"?>
<svg xmlns:xlink="http://www.w3.org/1999/xlink" height="50.0px" width="83.0px" xmlns="http://www.w3.org/2000/svg">
  <g transform="matrix(1.0, 0.0, 0.0, 1.0, -1.0, -1.0)">
    <path d="M84.0 32.0 L83.0 32.1 Q78.75 32.7 77.0 31.0 L76.05 31.1 Q73.9 31.65 74.0 30.0 L73.0 29.9 Q71.0 29.5 70.0 28.0 L69.1 27.8 Q68.25 27.3 67.0 31.0 L66.95 32.0 Q66.7 33.7 65.0 34.0 L65.0 35.0 65.0 36.0 Q66.0 38.35 67.35 36.25 67.5 36.0 68.0 36.0 L68.0 35.0 Q71.75 35.25 72.85 38.05 L73.0 39.0 73.0 40.0 72.9 40.5 67.0 41.0 66.05 41.2 Q62.25 42.75 61.0 42.0 L61.0 41.0 61.75 40.75 62.0 40.0 61.0 40.0 60.05 40.15 Q59.0 40.5 58.0 41.0 L57.75 41.75 57.0 42.0 57.0 43.0 58.0 43.0 Q58.3 44.7 59.8 45.4 L60.0 46.0 59.85 46.55 57.0 47.0 56.8 47.6 Q56.0 48.0 55.0 48.0 L54.75 48.85 Q53.35 51.1 51.0 49.0 50.5 49.0 50.25 49.25 49.0 50.5 47.0 51.0 L46.8 50.1 46.0 49.0 45.45 48.85 Q45.0 47.5 45.0 46.0 L44.0 46.1 Q39.75 46.7 38.0 45.0 L38.0 44.0 37.5 44.0 Q37.7 40.8 36.0 40.0 L35.0 40.0 34.85 40.55 32.0 41.0 31.75 41.85 Q29.65 44.8 29.0 41.0 L28.25 40.75 Q28.0 40.5 28.0 40.0 L27.05 40.1 Q24.9 40.65 25.0 39.0 L24.1 38.8 Q22.5 38.0 21.0 37.0 L20.1 36.8 Q19.5 36.5 19.0 36.0 L18.0 35.95 Q16.3 35.7 16.0 34.0 15.5 34.0 15.4 33.8 14.7 32.3 13.0 32.0 L12.05 31.85 Q10.3 31.2 11.0 28.0 10.5 28.0 10.15 28.25 8.7 29.2 6.0 29.0 L5.9 29.5 1.0 30.0 1.0 29.0 1.0 28.0 2.0 28.0 3.0 28.0 7.0 27.1 8.0 27.0 8.0 26.0 Q10.85 22.1 12.9 22.5 L13.0 23.0 13.75 23.25 14.0 24.0 15.0 24.0 15.0 23.0 15.0 20.0 Q18.7 19.1 22.8 21.4 L23.0 22.0 24.0 22.0 24.75 22.25 25.0 23.0 26.0 23.0 27.0 23.0 27.0 22.0 27.0 21.0 27.0 20.0 27.0 18.0 Q28.65 18.15 28.1 15.95 L28.0 15.0 28.0 14.0 28.75 13.75 29.0 13.0 29.0 12.0 Q31.2 11.7 31.5 9.05 L32.0 9.0 32.0 8.0 33.1 7.2 34.0 7.0 34.0 6.0 Q37.8 5.8 40.15 4.25 L41.0 4.0 42.0 4.0 43.0 4.0 43.0 3.0 44.0 3.0 45.0 3.0 45.0 2.0 46.0 2.0 47.0 2.0 47.0 1.0 48.0 1.0 49.0 1.0 52.0 1.0 53.0 1.0 55.85 1.45 56.0 2.0 Q54.8 6.7 59.0 6.5 L59.0 7.0 Q61.7 6.8 62.45 8.85 L63.0 9.0 Q68.75 6.85 65.25 11.2 65.0 11.5 65.0 12.0 L65.8 13.1 66.0 14.0 66.0 15.0 66.0 16.0 66.0 17.0 67.75 18.25 68.0 19.0 70.8 23.15 71.0 24.0 Q71.3 25.7 72.8 26.4 73.0 26.5 73.0 27.0 75.25 28.75 78.05 29.85 L79.0 30.0 Q80.65 31.35 84.0 31.5 L84.0 32.0" fill="#ff0000" fill-rule="evenodd" stroke="none"/>
  </g>
</svg>
