<?xml version="1.0" encoding="UTF-8" standalone="no"?>
<svg xmlns:xlink="http://www.w3.org/1999/xlink" height="134.05px" width="89.0px" xmlns="http://www.w3.org/2000/svg">
  <g transform="matrix(1.0, 0.0, 0.0, 1.0, 0.0, 0.0)">
    <path d="M58.0 24.0 Q65.4 24.95 62.2 32.1 L62.0 33.0 63.0 33.0 64.0 32.9 Q73.1 31.5 74.0 43.0 L73.85 43.95 Q71.35 51.35 71.0 61.0 L70.5 61.0 Q72.3 46.2 61.0 45.0 66.1 60.55 62.65 78.95 60.75 89.05 64.0 87.0 L65.0 87.0 65.0 86.0 Q67.05 83.05 72.0 83.0 L73.0 83.0 Q74.75 85.75 74.05 91.0 L74.0 92.0 74.0 100.0 74.0 101.0 Q79.5 105.5 74.25 111.25 74.0 111.5 74.0 112.0 77.85 112.65 80.2 114.75 L81.0 115.0 Q84.4 116.6 84.05 119.75 L84.05 119.95 Q85.05 125.2 77.0 123.0 L76.9 124.0 Q76.0 128.95 72.0 126.0 70.05 126.05 69.0 127.0 L67.95 127.95 Q71.2 130.55 65.0 131.0 L64.75 131.8 Q59.9 137.4 59.0 129.0 56.95 127.55 54.0 127.55 32.4 127.6 19.0 120.0 L18.2 119.75 Q15.8 117.7 15.0 114.0 L15.0 113.0 15.0 110.0 14.05 110.1 Q9.9 111.1 10.0 108.0 12.55 109.2 14.15 108.2 L15.0 108.0 15.0 107.0 14.2 106.75 Q11.85 104.65 8.0 104.0 L7.2 104.25 Q3.7 106.95 2.0 102.0 5.2 102.7 5.85 100.95 L6.0 100.0 6.0 99.0 Q5.5 99.0 5.35 99.2 3.4 102.45 0.0 100.0 L0.0 99.0 0.0 98.0 Q3.2 97.7 5.2 96.25 L6.0 96.0 6.0 95.0 6.0 94.0 6.0 93.0 6.0 81.0 6.0 80.0 6.0 77.0 Q7.7 76.7 8.4 75.2 8.5 75.0 9.0 75.0 L9.0 74.0 Q10.0 73.5 11.05 73.15 L12.0 73.0 Q13.95 73.05 15.15 73.75 L16.0 74.0 16.0 73.0 16.0 69.0 15.85 68.05 Q14.1 62.4 11.0 58.0 L16.0 58.0 17.0 58.0 17.95 58.15 Q19.8 58.75 17.0 55.0 L16.4 54.8 Q16.0 54.0 16.0 53.0 L15.0 52.9 Q12.45 52.55 13.0 49.0 L13.75 48.75 14.0 48.0 14.0 47.0 14.1 46.05 Q15.1 42.0 14.0 38.0 L15.0 38.0 15.0 37.0 Q16.7 36.7 16.1 34.0 L16.0 33.0 16.0 32.0 16.0 31.0 15.5 30.95 Q15.0 22.0 15.0 13.0 L16.0 13.0 16.0 12.0 16.0 11.0 15.95 10.0 Q15.55 7.45 14.0 6.0 L13.45 5.9 Q13.0 4.0 13.0 2.0 L14.0 2.0 14.0 1.0 14.75 0.75 15.0 0.0 17.0 0.0 18.0 0.0 Q18.3 1.7 20.0 1.95 L21.0 2.0 21.0 1.0 Q26.45 1.05 28.75 4.2 L29.0 5.0 29.0 6.0 32.0 6.0 33.0 6.0 Q36.8 7.2 36.05 13.0 L36.0 14.0 Q37.75 17.75 41.8 19.45 42.0 19.5 42.0 20.0 48.95 19.05 49.95 24.85 L50.8 25.4 51.0 26.0 52.0 26.0 53.0 26.0 Q55.0 25.0 57.05 24.15 L58.0 24.0 M39.0 32.0 Q38.5 32.0 38.15 31.8 33.15 28.9 29.0 35.0 L29.0 40.0 29.0 41.0 Q29.0 53.5 29.5 66.0 L30.0 66.0 31.1 65.2 32.0 65.0 32.0 64.0 34.0 64.0 35.0 64.0 35.0 63.0 37.75 60.75 38.0 60.0 38.0 59.0 38.0 57.0 39.0 57.0 39.0 56.0 Q41.15 56.65 41.5 55.1 L42.0 55.0 Q42.0 54.5 42.15 54.05 43.85 47.7 36.0 50.0 35.5 50.0 35.4 49.8 35.0 49.0 35.0 48.0 36.65 48.15 36.5 46.0 L37.0 46.0 37.0 45.0 37.0 40.0 37.0 39.0 38.0 39.0 39.0 39.0 39.0 38.0 39.0 32.0 M89.0 128.0 L88.0 128.05 Q83.8 128.7 84.0 125.0 87.55 124.45 88.45 126.85 L89.0 127.0 89.0 128.0" fill="#ff0000" fill-opacity="0.98039216" fill-rule="evenodd" stroke="none"/>
  </g>
</svg>
