<?xml version="1.0" encoding="UTF-8" standalone="no"?>
<svg xmlns:xlink="http://www.w3.org/1999/xlink" height="144.0px" width="60.5px" xmlns="http://www.w3.org/2000/svg">
  <g transform="matrix(1.0, 0.0, 0.0, 1.0, 0.0, -1.0)">
    <path d="M47.0 14.0 Q49.85 11.3 52.0 10.5 52.0 11.3 52.55 13.2 L53.1 15.4 52.0 20.0 Q52.0 20.55 52.65 22.15 L53.3 24.35 Q53.3 26.55 53.95 27.7 54.6 28.9 54.6 29.85 54.6 30.8 52.0 32.0 50.05 32.85 48.85 37.95 L46.85 45.85 Q41.0 58.85 41.0 59.5 L42.6 71.15 Q43.45 74.85 44.65 78.6 45.05 79.8 45.6 80.25 46.0 80.6 46.0 81.0 46.0 84.1 44.5 89.3 43.0 94.55 43.0 95.5 L45.05 97.4 Q47.05 99.75 47.05 104.05 47.05 105.75 45.55 107.05 44.0 108.4 44.0 110.0 44.0 112.05 46.45 114.95 48.95 117.95 49.0 119.0 49.3 122.95 54.45 125.8 58.35 128.0 60.5 128.0 56.5 133.8 46.55 139.3 36.3 145.0 29.0 145.0 26.7 145.0 23.1 143.95 19.5 142.85 17.15 141.45 L15.35 140.5 Q14.05 139.5 14.0 138.0 L6.7 134.4 Q0.0 130.95 0.0 129.5 0.0 128.4 5.8 125.6 11.9 122.65 12.55 120.95 L15.1 116.8 Q17.0 113.75 17.0 112.0 L20.25 112.15 Q21.05 111.6 21.05 110.45 21.05 108.8 20.0 107.15 18.95 105.55 19.0 98.95 18.55 98.95 18.3 98.35 18.0 97.8 18.0 97.0 L19.15 95.25 Q20.3 93.55 20.3 92.4 20.3 91.35 21.15 88.65 22.0 86.0 22.0 85.0 L20.5 83.85 Q19.0 82.5 19.0 81.0 L21.05 77.45 23.1 73.7 Q23.1 72.25 23.25 71.65 23.4 70.95 24.0 70.0 20.4 69.65 18.55 67.6 16.75 65.6 17.0 62.5 L14.15 62.6 14.0 61.0 15.9 60.6 Q17.0 60.15 17.0 59.8 L16.95 59.25 16.85 59.45 11.0 58.0 12.15 57.8 Q16.85 57.8 20.0 51.0 L19.55 49.8 19.0 49.0 Q22.2 49.85 22.2 46.0 22.2 43.7 21.0 41.45 19.3 38.35 14.0 32.0 15.3 31.6 15.8 29.25 16.2 27.5 16.0 26.0 L18.0 26.0 Q17.45 21.0 18.4 20.2 18.95 19.75 20.0 20.0 L15.0 3.0 Q16.05 3.1 16.9 2.3 L18.0 1.0 Q20.75 7.95 23.2 10.3 25.3 12.35 28.8 12.35 L35.05 11.45 39.45 10.5 Q40.65 10.5 43.4 11.7 46.3 12.95 47.0 14.0" fill="#ff0000" fill-opacity="0.98039216" fill-rule="evenodd" stroke="none"/>
  </g>
</svg>
