<?xml version="1.0" encoding="UTF-8" standalone="no"?>
<svg xmlns:xlink="http://www.w3.org/1999/xlink" height="129.35px" width="160.65px" xmlns="http://www.w3.org/2000/svg">
  <g transform="matrix(1.0, 0.0, 0.0, 1.0, -16.7, -2.85)">
    <path d="M167.2 73.35 Q167.15 76.25 168.7 77.35 172.35 78.2 174.45 80.55 L174.7 81.35 175.45 81.6 Q180.35 86.4 172.7 82.35 L171.85 82.1 Q170.7 81.35 169.7 80.35 L165.45 80.05 Q163.0 79.7 160.7 86.35 160.7 86.85 160.95 87.1 L161.7 87.35 162.6 87.55 Q169.25 90.5 158.7 88.35 L158.7 87.85 Q153.8 87.95 150.7 90.35 L150.7 91.35 150.7 92.35 Q160.6 94.35 158.6 95.75 L155.6 96.1 Q152.35 95.7 150.7 94.35 L149.7 94.45 Q146.0 95.05 144.7 93.35 144.2 93.35 143.85 93.6 142.7 94.35 141.7 95.35 142.95 98.1 146.7 98.3 L147.7 98.35 148.5 98.6 Q154.0 102.8 145.7 99.35 139.15 100.6 144.95 107.05 L146.45 108.45 Q151.85 113.0 150.75 114.4 147.8 118.05 146.75 117.9 141.5 117.05 137.7 114.35 L136.8 114.15 135.7 113.35 134.7 113.25 Q129.25 112.4 126.7 113.35 L125.75 113.5 Q123.25 114.4 121.7 116.35 L121.45 117.1 120.7 117.35 Q122.25 120.3 125.5 121.75 L125.7 122.35 Q133.7 132.4 125.95 124.1 L125.7 123.35 124.85 123.1 Q121.4 120.65 118.7 117.35 L119.5 116.25 119.7 115.35 Q119.2 115.35 119.05 115.15 117.85 113.2 115.7 112.35 L114.7 112.35 Q110.55 112.2 107.7 113.35 L106.7 113.35 103.7 113.35 104.5 114.45 104.7 115.35 Q106.35 115.65 104.35 116.35 102.0 117.15 102.1 118.2 102.65 124.0 92.25 130.3 87.0 133.45 85.7 131.35 96.4 125.6 99.55 115.3 L99.7 114.35 98.7 114.35 Q91.95 114.1 88.7 110.35 L97.7 111.3 98.7 111.35 Q101.4 111.55 101.65 109.35 L101.7 108.35 100.75 108.2 Q97.8 107.25 98.7 102.35 L98.2 102.3 Q97.6 98.45 95.7 96.35 96.7 96.35 97.5 95.95 L97.7 95.35 97.45 94.6 93.7 91.35 92.7 91.35 85.7 91.35 84.7 91.3 Q80.0 90.65 78.7 93.35 L78.7 94.35 78.75 95.35 Q79.45 101.6 77.7 105.35 L77.45 106.15 Q72.25 112.8 67.7 110.35 71.6 108.25 74.9 105.6 L75.7 105.35 75.7 104.35 75.7 103.85 66.7 103.35 Q69.65 102.8 71.8 101.55 L72.7 101.35 Q76.95 99.1 77.2 92.35 L77.7 92.35 77.45 91.6 Q77.2 91.35 76.7 91.35 L75.7 91.35 69.7 91.35 69.2 91.35 Q69.35 94.0 66.7 93.35 67.35 95.5 65.7 95.4 64.2 95.35 64.1 94.95 63.05 91.55 55.7 92.35 L54.7 92.35 53.7 92.35 53.65 92.85 Q45.8 93.75 41.7 90.35 46.25 89.3 48.75 90.2 L49.7 90.35 49.7 89.35 49.7 88.35 49.7 87.85 Q42.85 89.0 37.7 87.35 L46.7 85.35 Q47.0 83.65 50.7 84.35 L51.8 83.55 52.7 83.35 52.7 82.35 52.7 81.35 52.5 80.75 50.7 80.35 Q50.2 80.35 49.9 80.6 47.9 82.05 43.7 81.35 L42.7 81.35 Q35.55 81.0 30.7 78.35 L29.8 78.55 Q24.65 81.05 16.7 77.35 L30.7 77.85 30.7 77.35 31.3 77.85 32.7 77.85 32.7 78.35 Q38.25 77.1 44.7 78.25 L45.7 78.35 Q49.4 79.05 50.95 77.6 51.2 77.35 51.7 77.35 L51.9 76.45 Q53.1 73.95 50.7 70.35 L49.7 70.25 Q46.95 69.6 44.7 68.35 L48.6 67.9 48.7 67.35 48.5 66.45 43.7 57.35 43.6 56.85 Q42.1 56.5 42.7 54.35 45.2 55.35 47.5 56.7 47.7 56.85 47.7 57.35 54.7 64.35 59.7 67.35 L60.1 66.55 Q60.2 66.35 60.7 66.35 L60.7 65.35 61.7 65.35 61.7 64.35 Q63.85 65.0 63.75 63.35 L63.7 62.35 Q63.2 62.35 63.1 62.15 62.7 61.35 62.7 60.35 62.2 60.35 62.1 60.15 59.15 54.9 56.7 49.35 L56.15 49.2 Q54.8 45.75 54.7 41.35 57.95 41.1 58.2 44.3 L58.7 44.35 Q62.95 49.1 67.9 53.1 L68.7 53.35 Q70.35 53.5 69.8 51.3 L69.7 50.35 69.7 49.35 69.7 45.35 Q71.35 45.5 70.8 43.3 L70.7 42.35 70.5 41.75 Q69.0 41.05 69.7 38.35 L69.2 38.3 Q68.7 33.35 68.7 28.35 L69.7 28.35 70.7 28.35 70.7 27.35 Q75.55 25.7 82.6 26.85 L82.7 27.35 Q90.6 31.45 89.75 44.35 L89.7 45.35 Q94.1 49.45 92.75 59.35 L92.7 60.35 92.7 61.35 93.5 62.45 93.7 63.35 Q95.75 60.4 95.7 55.35 L95.7 54.35 95.7 53.35 95.7 50.35 95.7 49.35 95.7 37.35 Q101.95 20.6 107.7 2.85 L108.7 3.35 Q115.6 6.95 116.65 16.35 L116.7 17.35 117.65 23.35 117.7 24.35 117.75 25.35 Q118.45 31.1 116.7 34.35 L116.8 35.35 Q117.6 40.25 114.7 41.35 114.5 44.1 115.9 45.1 L116.7 45.35 116.7 44.35 117.7 44.35 118.7 44.35 Q121.0 45.55 121.6 48.35 L121.7 49.35 123.5 52.45 123.7 53.35 123.7 54.35 Q124.8 59.45 126.5 56.25 L126.7 55.35 126.7 54.35 126.7 51.35 Q129.25 42.9 133.1 35.55 L133.7 35.35 133.7 34.35 135.5 34.75 Q135.7 34.85 135.7 35.35 137.45 40.6 136.75 48.35 L136.7 49.35 Q136.0 61.2 142.3 56.8 148.9 52.15 152.2 54.95 152.7 55.35 152.7 56.35 L152.7 57.35 Q152.45 62.1 149.7 64.35 149.75 67.65 151.05 65.6 151.2 65.35 151.7 65.35 154.35 63.5 154.2 58.35 L154.7 58.35 154.7 57.35 154.7 54.35 Q156.3 48.5 159.7 49.25 L160.7 49.35 Q164.8 59.75 167.15 73.1 L167.2 73.35" fill="#ff0000" fill-opacity="0.99215686" fill-rule="evenodd" stroke="none"/>
  </g>
</svg>
