<?xml version="1.0" encoding="UTF-8" standalone="no"?>
<svg xmlns:xlink="http://www.w3.org/1999/xlink" height="325.15px" width="284.85px" xmlns="http://www.w3.org/2000/svg">
  <g transform="matrix(1.0, 0.0, 0.0, 1.0, -1.0, -1.0)">
    <path d="M54.0 280.0 Q62.25 278.4 54.0 280.5 L54.0 280.0 M130.0 317.0 Q146.5 314.5 130.0 317.5 L130.0 317.0 M93.0 318.5 L93.0 318.0 Q103.25 315.45 93.0 318.5 M281.0 278.0 Q284.8 274.75 285.65 277.45 286.65 280.65 282.25 279.25 281.5 279.0 281.0 278.0 M201.0 303.0 Q209.75 300.55 201.0 303.5 L201.0 303.0 M189.05 320.2 Q183.2 327.1 179.0 326.0 L190.05 319.05 189.05 320.2 M163.0 322.0 Q173.5 319.8 163.0 322.5 L163.0 322.0" fill="#ff0000" fill-opacity="0.99215686" fill-rule="evenodd" stroke="none"/>
    <path d="M179.0 56.0 L178.85 56.95 Q175.7 67.7 173.0 79.0 L173.0 81.0 173.0 82.0 Q173.5 82.0 173.75 82.25 L174.0 83.0 174.75 83.25 175.0 84.0 Q177.3 88.2 177.95 94.0 L178.0 95.0 Q182.45 95.55 182.05 101.0 L182.0 102.0 Q183.05 104.45 185.85 105.45 L186.0 106.0 Q187.0 108.9 188.3 107.25 188.5 107.0 189.0 107.0 L189.0 106.0 189.0 105.0 Q194.2 96.2 201.25 89.25 201.5 89.0 202.0 89.0 L202.0 88.0 Q205.65 80.25 208.75 82.35 L209.0 83.0 Q210.75 85.75 209.55 90.9 L209.0 91.0 208.9 91.95 206.0 102.0 206.05 103.0 Q206.45 107.45 204.0 109.0 L204.0 111.0 204.0 112.0 205.1 112.8 206.0 113.0 Q209.95 111.95 215.0 112.0 L216.0 112.0 216.0 111.0 Q220.15 110.85 223.05 111.85 L224.0 112.0 Q233.75 109.65 224.95 112.85 L224.0 113.0 223.5 113.1 Q223.15 114.65 221.0 114.0 221.85 117.15 225.95 117.5 L226.0 118.0 Q231.9 118.1 234.5 121.0 L234.0 121.0 233.8 121.6 Q233.0 122.0 232.0 122.0 L231.75 122.8 Q229.05 125.9 228.0 122.0 L228.75 121.75 229.0 121.0 228.25 120.75 Q227.0 119.5 225.0 119.0 L224.0 118.9 Q221.05 118.45 220.0 116.0 219.5 116.0 219.15 116.25 217.7 117.2 215.0 117.0 L214.2 116.75 Q211.9 115.1 208.0 115.0 L207.0 115.0 202.0 115.0 201.8 115.65 Q199.15 117.15 195.0 117.0 L194.85 117.55 192.0 118.0 192.0 121.0 192.0 122.0 Q195.25 119.75 201.0 120.0 L202.0 120.0 Q203.45 124.05 208.95 124.5 L209.0 125.0 Q216.05 124.95 221.05 126.85 L222.0 127.0 Q233.1 125.75 233.75 124.95 235.0 123.5 240.0 125.0 242.05 126.45 246.0 126.05 L247.0 126.0 247.0 125.0 Q256.75 124.25 262.5 126.0 L261.0 126.0 Q252.65 125.8 254.0 129.0 L253.2 128.6 Q252.0 128.0 251.0 127.0 L250.1 127.2 Q243.75 130.85 239.0 127.0 238.5 127.0 238.2 127.25 235.0 130.0 228.0 129.0 L227.05 129.15 Q221.65 131.15 216.0 129.0 L215.75 129.75 215.0 130.0 215.8 131.1 216.0 132.0 217.1 132.8 218.0 133.0 Q223.4 132.55 222.25 134.15 222.0 134.5 222.0 135.0 229.45 134.55 234.1 136.8 L235.0 137.0 Q232.9 139.4 225.95 137.15 L225.0 137.0 224.0 137.05 Q218.85 137.65 217.0 135.0 L216.0 134.9 Q211.9 134.1 211.0 130.0 L210.45 129.85 Q210.0 128.5 210.0 127.0 L209.0 127.05 203.0 128.0 202.0 128.1 190.0 129.0 189.8 129.9 189.0 131.0 189.0 132.0 189.0 133.0 189.0 134.0 189.0 135.0 Q189.0 139.95 186.0 137.0 L185.0 136.95 Q182.3 136.8 181.0 138.0 L180.85 138.95 Q179.6 142.6 176.0 144.0 L176.0 145.0 176.0 146.0 Q176.5 146.0 176.75 146.25 179.15 148.75 174.0 148.0 174.0 149.0 174.4 149.8 174.5 150.0 175.0 150.0 177.55 148.8 178.75 150.2 L179.0 151.0 Q191.7 149.25 185.2 152.4 185.0 152.5 185.0 153.0 L196.5 156.0 195.0 156.0 Q195.0 156.5 195.25 156.7 199.55 160.5 192.0 157.0 L191.0 157.05 Q186.75 157.25 185.0 155.0 L184.0 155.0 181.0 155.0 181.0 156.0 181.85 156.25 Q186.45 159.6 179.0 156.0 L178.05 155.85 Q175.85 155.15 175.0 153.0 L174.05 152.85 Q171.85 152.15 171.0 150.0 L170.5 150.0 Q170.75 157.35 169.0 149.0 L168.0 149.05 Q163.25 149.75 161.0 148.0 L160.1 148.2 Q157.95 149.45 155.0 150.0 L154.1 150.2 153.0 151.0 153.2 151.65 Q158.1 154.6 146.0 154.0 148.0 155.5 150.2 156.6 L151.0 157.0 Q145.4 159.1 140.0 155.0 L139.2 154.75 Q135.7 151.8 131.0 150.0 L130.0 150.0 129.75 150.75 128.0 152.0 Q128.05 155.45 129.75 157.25 L130.0 158.0 Q132.5 159.0 135.1 159.6 L136.95 160.05 Q133.85 162.55 126.0 158.0 L127.0 158.0 126.75 157.2 Q124.2 153.8 121.0 151.0 L120.45 150.85 Q120.0 149.5 120.0 148.0 L119.0 147.9 Q115.3 147.3 108.0 148.0 L108.15 148.95 Q109.8 155.25 105.0 151.0 L104.0 150.95 Q101.3 150.7 101.0 148.0 105.9 147.95 103.8 146.25 L103.0 146.0 103.0 146.5 Q99.9 143.1 95.0 141.0 L94.25 140.75 Q94.0 140.5 94.0 140.0 L93.0 140.1 Q90.35 140.65 91.0 138.0 92.7 137.7 92.95 136.0 L93.0 135.0 93.0 134.5 Q73.05 135.9 61.0 125.0 L60.0 125.1 Q57.3 125.7 57.0 124.0 L56.0 124.0 55.0 124.0 Q50.65 126.25 51.65 130.85 52.0 132.5 51.6 133.1 51.05 133.95 51.1 133.1 52.05 123.6 48.0 124.0 49.7 123.7 50.4 122.2 50.5 122.0 51.0 122.0 L51.05 121.0 Q51.65 116.35 41.0 118.0 L40.0 117.95 Q37.2 117.8 35.0 117.0 L34.0 117.0 Q32.05 117.05 31.0 118.0 L30.9 118.55 27.0 119.0 26.95 120.0 Q26.7 123.2 22.0 122.0 L21.85 122.55 Q18.65 123.65 16.0 125.0 L15.85 125.55 Q7.45 128.95 1.0 129.0 7.3 126.8 13.1 124.2 L14.0 124.0 14.0 123.0 Q15.65 121.65 19.0 121.5 L19.0 121.0 18.1 120.8 Q16.5 120.0 16.0 118.0 18.75 114.75 24.95 115.5 L25.0 116.0 26.0 116.0 27.0 116.0 27.75 115.75 28.0 115.0 27.25 114.75 27.0 114.0 26.15 113.75 Q22.2 111.15 19.0 110.0 21.65 110.65 21.1 108.0 L21.0 107.0 21.0 106.0 21.0 105.0 22.0 105.0 23.0 105.0 23.0 104.0 22.25 103.75 Q22.0 103.5 22.0 103.0 L21.05 102.85 Q17.7 101.85 16.0 99.0 18.55 96.6 25.9 98.45 L26.0 99.0 Q27.15 102.5 28.9 103.8 30.5 105.0 33.0 105.0 L32.95 104.0 32.0 92.0 Q30.25 89.75 29.3 85.35 27.15 75.35 21.0 63.0 L21.0 62.0 21.0 47.0 21.0 46.0 21.0 44.0 Q23.0 43.5 24.25 42.25 24.5 42.0 25.0 42.0 38.2 57.8 48.8 76.1 L49.0 77.0 Q52.7 85.3 55.85 94.05 L56.0 95.0 57.0 95.0 57.0 94.0 57.0 93.0 Q58.7 92.7 58.5 90.0 L59.0 90.0 59.0 89.0 59.0 88.0 Q61.85 83.35 63.45 77.1 L64.0 77.0 63.8 76.1 62.0 73.0 61.2 72.75 Q59.65 71.35 60.0 68.0 L60.75 67.75 61.0 67.0 61.0 66.0 61.0 52.0 Q65.8 49.95 68.4 54.8 68.5 55.0 69.0 55.0 L69.0 54.0 69.0 47.0 70.0 47.0 70.0 46.0 70.0 43.0 70.8 41.9 71.0 41.0 71.0 40.0 Q72.7 39.7 72.5 37.0 L73.0 37.0 73.0 36.0 73.0 33.0 73.0 32.0 73.0 20.0 74.0 20.0 74.0 19.0 74.0 15.0 Q76.15 7.15 80.35 1.25 80.5 1.0 81.0 1.0 84.2 4.8 84.95 11.0 L85.0 12.0 Q87.9 13.1 87.1 18.0 L87.0 19.0 Q88.15 23.85 90.75 27.2 L91.0 28.0 Q93.3 32.7 94.85 38.05 L95.0 39.0 Q96.1 45.1 98.3 42.25 98.5 42.0 99.0 42.0 L98.95 41.0 Q98.05 33.45 98.0 25.0 100.2 24.7 100.5 22.05 L101.0 22.0 101.0 21.0 106.0 21.0 107.0 21.0 107.0 20.0 110.45 9.15 Q110.5 9.0 111.0 9.0 L111.0 8.0 Q119.6 18.4 121.5 35.95 L122.0 36.0 122.0 35.0 Q123.5 34.0 124.4 32.2 L125.0 32.0 125.0 31.0 Q127.35 25.85 130.75 21.8 L131.0 21.0 131.0 20.0 133.4 15.2 134.0 15.0 134.0 14.0 134.0 13.0 139.75 5.8 140.0 5.0 Q145.65 0.95 143.05 11.0 138.75 27.75 133.0 43.0 L133.0 44.0 133.0 45.0 Q135.7 47.3 139.1 48.8 L140.0 49.0 Q142.6 50.9 144.35 53.8 L145.0 54.0 Q149.95 53.7 155.75 57.35 L156.0 58.0 Q164.5 59.75 161.15 71.05 L161.0 72.0 160.75 72.75 160.0 73.0 160.0 77.0 160.0 78.0 Q162.65 75.15 164.4 71.2 164.5 71.0 165.0 71.0 L165.0 70.0 165.0 69.0 Q165.5 68.5 166.1 68.2 L167.0 68.0 167.0 67.0 167.0 66.0 Q168.65 66.15 168.5 64.0 L169.0 64.0 169.0 63.0 172.3 59.25 Q172.5 59.0 173.0 59.0 L173.0 58.0 Q175.5 53.55 178.8 55.4 L179.0 56.0 M204.0 155.0 Q214.25 158.55 204.15 155.55 204.0 155.5 204.0 155.0 M245.15 116.55 Q245.0 116.5 245.0 116.0 255.6 120.75 245.15 116.55 M11.45 116.8 Q11.05 116.95 10.6 115.1 10.5 114.5 10.0 114.0 16.9 114.3 11.45 116.8 M108.2 156.85 L108.0 156.0 Q112.5 158.0 115.95 160.9 L119.6 164.35 Q121.95 166.95 118.0 165.0 111.5 162.5 108.2 156.85 M161.0 154.0 Q179.2 157.4 161.1 154.5 L161.0 154.0" fill="#fe0404" fill-opacity="0.98039216" fill-rule="evenodd" stroke="none"/>
  </g>
</svg>
