<?xml version="1.0" encoding="UTF-8" standalone="no"?>
<svg xmlns:xlink="http://www.w3.org/1999/xlink" height="57.0px" width="64.05px" xmlns="http://www.w3.org/2000/svg">
  <g transform="matrix(1.0, 0.0, 0.0, 1.0, -1.0, 0.0)">
    <path d="M45.7 16.15 Q50.85 19.2 50.85 23.2 50.85 25.2 49.35 29.0 47.1 34.75 43.0 37.0 L52.5 35.35 Q58.25 35.35 61.65 37.45 65.45 39.75 65.0 44.0 L64.55 43.95 Q61.1 41.95 59.15 40.0 L56.95 37.85 57.85 39.6 Q58.45 40.9 58.45 41.45 58.45 43.7 57.5 44.85 56.6 45.95 55.1 45.85 54.6 43.55 54.1 42.6 53.45 41.2 52.35 41.2 51.15 41.2 49.85 42.55 48.85 43.6 47.0 46.4 46.35 47.35 41.2 50.55 36.85 53.25 36.0 57.0 L33.0 57.0 Q31.1 55.4 29.05 52.95 L25.55 49.0 Q20.6 44.25 8.6 39.8 L5.0 39.8 5.0 42.0 8.15 42.5 8.05 42.6 3.9 43.0 3.15 42.9 3.0 38.0 6.45 36.85 Q7.65 36.25 7.95 35.35 L5.1 32.35 Q3.4 30.6 1.45 31.0 1.0 28.0 1.0 26.0 1.0 24.85 1.75 22.85 2.75 20.15 4.25 19.65 L4.4 19.6 4.45 20.25 Q4.45 21.3 3.7 22.95 2.95 24.55 3.0 29.0 7.85 27.95 11.15 32.3 L13.65 35.5 Q15.15 37.0 17.0 37.0 20.6 37.0 23.15 35.95 25.15 35.15 26.0 34.0 24.0 34.2 22.85 33.6 L22.0 33.0 15.45 33.55 Q12.25 33.25 12.0 29.0 L15.55 28.3 Q18.8 28.3 20.6 30.65 22.45 33.0 25.5 33.0 L28.45 31.4 Q31.0 29.75 31.0 29.0 31.0 27.3 29.55 25.5 28.35 24.0 28.0 24.0 L24.8 24.7 21.55 25.4 Q17.25 25.4 14.4 22.9 11.8 20.65 12.0 18.0 L13.95 17.85 Q15.15 17.6 15.15 16.25 15.15 15.2 14.5 14.0 15.2 14.0 16.2 13.3 L19.0 11.4 17.45 7.8 Q15.9 4.2 16.0 3.0 17.85 3.0 18.7 1.15 19.3 -0.25 22.0 1.0 22.0 0.0 25.5 0.0 29.4 0.0 32.0 2.45 38.1 8.25 41.5 10.65 L39.0 13.0 Q40.0 13.6 45.7 16.15" fill="#ff0000" fill-rule="evenodd" stroke="none"/>
  </g>
</svg>
