<?xml version="1.0" encoding="UTF-8" standalone="no"?>
<svg xmlns:xlink="http://www.w3.org/1999/xlink" height="152.0px" width="119.0px" xmlns="http://www.w3.org/2000/svg">
  <g transform="matrix(1.0, 0.0, 0.0, 1.0, 0.0, 0.0)">
    <path d="M97.85 50.95 Q97.55 51.4 98.5 52.85 L98.4 53.3 98.05 53.4 96.1 51.75 Q95.45 51.0 95.0 51.0 93.25 51.0 90.3 55.35 87.0 60.25 87.0 65.0 87.0 70.0 88.25 72.45 88.65 73.25 91.1 75.95 95.45 80.65 95.95 95.0 L99.0 95.0 99.0 93.0 Q104.9 93.8 109.8 92.3 115.5 90.5 118.0 90.5 118.5 90.5 118.5 90.75 118.5 91.0 119.0 91.0 L119.0 114.0 Q118.35 115.1 117.5 115.85 115.8 117.25 114.0 116.0 L114.3 122.25 Q114.3 131.95 112.4 134.5 111.0 136.4 105.65 136.4 102.15 136.4 100.1 135.65 97.9 134.85 94.85 132.3 93.05 130.8 89.2 129.9 L85.35 129.3 83.1 128.65 Q81.55 128.0 81.0 128.0 77.55 128.0 75.85 129.1 74.85 129.75 73.1 131.5 68.55 135.0 52.5 135.0 47.85 135.0 46.75 135.75 46.05 136.25 46.05 138.3 46.05 145.25 41.7 147.4 L37.75 149.1 Q35.4 150.2 34.0 152.0 32.95 152.0 30.85 150.3 L28.0 148.0 Q25.0 146.35 24.9 145.5 24.8 144.95 26.25 144.2 29.75 142.3 26.85 138.45 18.65 140.05 18.25 137.25 L18.3 135.1 Q18.25 134.0 17.0 134.0 L4.95 138.3 Q3.1 138.3 2.0 137.0 0.0 134.6 0.0 128.0 0.0 120.0 1.0 120.0 1.45 118.85 6.25 115.35 L11.0 112.0 Q11.0 110.95 12.9 110.9 L17.35 111.0 Q24.2 110.65 26.0 103.85 L26.0 103.0 Q23.2 104.0 22.2 104.0 18.55 104.0 15.3 99.75 10.85 93.95 10.85 82.95 10.85 76.2 17.55 73.3 L22.1 71.35 Q24.2 70.15 24.2 68.25 L24.0 66.0 17.0 65.0 16.05 66.3 Q14.95 67.55 13.6 67.55 L13.3 67.05 Q13.0 66.6 13.0 66.0 13.0 65.2 18.55 57.1 24.1 48.95 24.1 47.7 24.1 45.95 23.35 44.9 22.6 43.9 21.4 43.9 L20.45 43.9 Q35.75 38.75 41.75 33.3 45.2 30.1 45.2 27.15 45.2 21.15 42.1 16.3 38.95 11.45 38.95 8.65 38.95 4.55 46.05 1.9 51.2 0.0 54.5 0.0 63.2 0.0 67.8 3.5 71.35 6.2 71.35 9.65 71.35 12.05 67.6 18.75 63.8 25.45 63.8 28.5 63.8 30.1 64.1 30.5 L66.4 31.9 Q74.95 35.95 85.2 42.45 L98.05 50.55 97.85 50.95" fill="#fc0909" fill-opacity="0.99215686" fill-rule="evenodd" stroke="none"/>
  </g>
</svg>
