<?xml version="1.0" encoding="UTF-8" standalone="no"?>
<svg xmlns:xlink="http://www.w3.org/1999/xlink" height="154.0px" width="126.0px" xmlns="http://www.w3.org/2000/svg">
  <g transform="matrix(1.0, 0.0, 0.0, 1.0, 0.0, 0.0)">
    <path d="M98.15 81.65 L98.05 81.45 Q97.1 80.7 97.25 79.35 L97.35 77.7 Q98.2 79.15 98.2 81.1 L98.15 81.65 M96.1 13.1 L95.25 14.25 Q91.65 17.85 86.6 25.1 84.4 28.25 83.7 31.55 83.2 33.7 82.0 34.0 87.7 41.0 97.05 49.5 104.0 55.8 104.0 57.0 104.0 58.3 102.75 59.7 L100.0 62.35 Q96.0 66.5 96.0 72.8 96.0 75.25 96.8 76.75 94.6 75.4 85.0 76.0 85.4 78.65 88.15 86.75 90.85 94.7 91.0 96.0 L100.0 96.0 Q100.8 93.6 102.95 91.9 104.8 90.35 105.85 90.5 107.0 95.0 115.0 95.0 L118.75 92.9 Q122.2 90.8 122.8 90.8 L126.0 91.0 126.0 109.0 Q121.8 117.25 120.5 124.6 119.8 128.55 119.65 133.45 119.3 136.55 117.05 137.4 L106.35 138.3 Q102.8 138.3 101.55 137.25 100.85 136.7 100.55 135.0 100.3 133.35 99.3 132.7 97.8 131.65 93.7 131.65 90.95 131.65 88.65 132.85 86.3 134.05 85.5 136.0 85.85 134.45 85.15 133.4 84.6 132.6 84.1 132.6 80.25 134.45 75.1 136.15 64.75 139.55 54.65 138.85 48.4 138.4 48.15 141.85 L48.2 145.2 Q48.1 147.3 47.05 148.6 45.6 150.4 43.6 151.0 40.25 152.05 37.0 154.0 L32.0 154.0 32.0 150.0 Q33.0 150.0 33.0 147.0 33.0 145.65 30.1 142.8 26.25 139.0 21.0 139.0 20.5 139.0 20.4 139.5 20.3 139.95 19.8 139.95 L19.1 139.85 19.15 139.75 18.9 139.15 Q18.35 137.95 17.25 137.55 L15.1 137.25 Q12.4 137.25 9.65 139.1 6.85 140.9 5.65 140.9 3.55 140.9 2.65 140.4 0.0 138.95 0.0 134.0 0.0 121.9 5.95 118.6 9.2 117.2 10.65 116.15 13.1 114.45 14.0 110.95 16.35 110.4 18.35 111.65 19.35 112.25 20.0 113.0 23.2 113.0 25.8 110.1 28.0 107.7 28.0 106.0 L27.3 104.5 Q26.35 103.0 25.0 103.0 23.3 103.0 19.0 105.5 14.7 108.0 14.0 108.0 12.3 107.85 10.2 106.5 6.15 103.85 4.0 98.0 5.3 98.1 5.75 96.4 L7.0 91.0 Q10.6 90.15 11.75 83.9 12.35 80.8 12.85 79.8 13.7 78.0 15.65 78.0 17.7 78.0 19.0 80.0 L21.0 80.0 21.0 76.0 Q20.9 75.1 20.0 74.0 L22.15 73.3 24.25 72.95 26.0 73.0 26.3 68.0 26.0 65.5 Q25.6 63.85 25.0 63.0 L24.95 63.45 Q24.7 64.2 23.85 64.85 L22.85 65.55 Q22.3 65.45 22.0 64.0 26.2 60.7 27.65 56.75 30.25 49.5 32.0 46.5 L32.0 36.0 Q27.75 36.45 26.0 34.0 L33.0 34.0 Q48.35 31.75 54.7 28.6 57.25 27.35 58.1 27.15 L64.0 27.0 Q64.6 23.75 65.55 20.4 66.15 18.15 66.15 16.9 66.15 13.35 64.1 10.55 62.0 7.7 62.0 4.0 62.0 1.8 65.7 0.65 L69.5 0.0 Q81.95 0.0 90.1 4.8 96.1 8.35 96.1 10.75 L96.1 13.1" fill="#ff0000" fill-opacity="0.92941177" fill-rule="evenodd" stroke="none"/>
  </g>
</svg>
