<?xml version="1.0" encoding="UTF-8" standalone="no"?>
<svg xmlns:xlink="http://www.w3.org/1999/xlink" height="100.0px" width="122.15px" xmlns="http://www.w3.org/2000/svg">
  <g transform="matrix(1.0, 0.0, 0.0, 1.0, -0.85, 0.0)">
    <path d="M96.15 15.3 Q99.5 18.75 99.5 21.0 99.5 24.8 95.45 28.05 91.4 31.25 87.0 31.0 88.4 31.65 90.5 32.15 L93.25 32.6 Q98.35 32.6 106.15 27.95 114.1 23.15 116.0 23.0 105.95 34.35 100.0 37.55 98.2 38.55 97.0 38.6 L96.15 38.55 Q96.15 39.05 96.85 40.05 97.85 41.4 99.25 41.4 101.0 41.4 101.4 40.6 101.8 39.65 102.45 39.5 103.1 40.45 103.6 42.4 104.15 44.55 104.0 46.0 107.8 46.05 115.6 44.5 L123.0 43.0 122.9 58.4 Q122.75 61.0 122.0 61.0 L121.8 64.05 Q121.6 65.1 120.05 65.8 L118.25 66.15 Q117.2 71.4 117.05 76.3 116.95 78.85 117.0 82.0 116.9 83.95 115.75 84.55 114.65 85.1 110.95 85.1 L106.5 84.55 104.0 84.0 Q97.25 84.0 97.05 81.4 L96.85 79.6 Q96.45 78.8 94.5 78.8 93.35 78.8 92.15 81.15 L90.0 84.65 Q89.45 84.4 88.8 83.25 88.0 82.0 88.0 81.0 88.0 80.45 88.5 79.8 L89.0 79.0 84.45 78.3 81.0 78.0 74.75 82.65 Q68.4 87.25 67.6 87.25 L59.85 86.15 52.0 85.0 Q51.6 87.65 44.7 93.95 38.05 100.0 36.5 100.0 34.95 100.0 33.9 99.45 32.9 98.95 32.9 98.2 32.9 97.65 33.6 96.4 34.3 95.15 34.3 94.1 L33.85 88.0 Q32.8 87.9 28.2 86.45 L23.5 85.0 Q23.75 86.05 23.35 86.6 23.0 87.05 22.45 87.05 21.85 87.05 21.85 88.1 L22.0 89.5 16.35 84.15 Q15.15 83.0 14.0 83.0 L4.75 86.1 Q2.65 86.1 0.85 83.0 2.0 78.85 4.35 74.55 9.0 66.0 15.0 65.0 L15.0 64.0 14.75 63.9 10.0 63.0 10.0 61.0 Q12.05 60.8 12.75 59.45 L13.0 58.0 Q13.0 56.4 11.9 55.4 L9.25 53.6 Q4.85 50.8 3.0 45.0 5.75 43.05 7.65 35.8 9.2 29.9 13.25 29.9 13.85 29.9 14.8 30.45 15.75 31.0 16.0 31.0 L17.0 30.75 17.3 29.5 Q17.0 27.0 17.0 25.0 L23.3 24.25 28.4 23.4 Q33.0 21.75 33.0 14.0 33.0 10.0 31.9 8.95 L27.0 6.0 42.0 12.0 Q43.25 12.0 43.55 11.05 44.15 9.4 47.0 7.5 45.9 12.05 48.3 13.4 49.75 14.25 54.5 14.25 L60.4 13.55 Q63.0 12.85 63.0 12.0 L61.55 6.05 60.0 0.0 62.0 0.0 Q60.85 3.55 64.45 9.05 67.5 13.8 70.0 15.0 70.5 11.6 73.45 10.25 75.35 9.35 77.95 9.35 78.7 9.35 79.9 11.2 81.15 13.0 82.0 13.0 L88.6 11.4 Q92.4 11.4 96.15 15.3" fill="#ff0000" fill-rule="evenodd" stroke="none"/>
  </g>
</svg>
