<?xml version="1.0" encoding="UTF-8" standalone="no"?>
<svg xmlns:xlink="http://www.w3.org/1999/xlink" height="156.0px" width="116.3px" xmlns="http://www.w3.org/2000/svg">
  <g transform="matrix(1.0, 0.0, 0.0, 1.0, 0.0, -1.0)">
    <path d="M106.35 70.65 Q109.35 72.5 109.45 72.8 109.75 73.6 110.1 79.9 110.75 86.1 113.75 91.25 116.3 95.75 116.3 103.35 116.3 115.6 114.85 120.45 113.85 123.65 112.0 124.0 111.75 133.45 111.1 135.15 109.45 139.4 102.5 139.4 99.3 139.4 98.0 138.0 97.35 137.3 96.0 134.0 91.5 134.5 90.0 133.9 87.75 132.95 80.25 132.95 77.2 132.95 75.05 134.15 L71.3 136.8 Q65.5 140.65 52.6 140.65 L46.0 140.0 Q41.0 139.95 41.0 143.0 41.0 148.55 40.45 150.45 38.55 157.0 31.5 157.0 29.15 157.0 26.05 155.35 21.7 152.95 23.0 149.0 18.85 148.6 16.8 147.1 15.0 145.8 13.15 145.8 L11.25 146.2 9.3 146.55 Q4.95 146.55 3.5 145.75 0.0 143.85 0.0 137.0 0.0 132.5 6.0 122.7 12.0 112.9 12.0 106.0 L13.0 106.0 13.0 104.0 Q11.1 103.3 9.65 101.1 7.95 98.5 7.95 95.0 7.95 83.1 14.0 78.05 L18.1 75.1 Q20.0 73.7 20.0 72.0 L19.8 70.5 19.55 69.4 18.0 69.05 14.25 69.85 11.25 70.6 10.35 70.45 10.0 70.0 Q14.9 65.55 18.45 57.65 22.2 49.2 19.5 46.5 30.35 38.4 40.25 34.85 42.95 33.85 43.6 33.0 44.35 31.95 44.35 28.6 44.35 22.15 40.7 17.4 37.0 12.6 37.0 9.0 37.0 6.95 38.1 6.65 L40.5 6.8 Q44.0 7.15 44.0 1.0 L44.25 1.55 Q45.15 3.05 47.25 3.05 L48.5 2.9 Q49.0 2.7 49.0 2.0 56.5 -0.5 71.0 10.7 68.5 13.5 65.95 17.15 60.9 24.55 60.9 31.95 60.9 33.4 65.95 36.0 L77.35 41.25 Q94.35 49.1 96.0 55.0 91.2 54.25 88.5 58.6 86.0 62.6 86.0 69.5 86.0 76.05 86.55 77.25 L87.7 78.75 87.9 79.05 87.1 79.1 87.1 82.25 86.9 82.4 90.4 91.1 Q95.45 103.0 97.0 103.0 101.15 103.0 102.95 91.05 104.0 84.05 104.0 76.0 L105.0 76.0 Q105.0 75.15 105.5 73.2 L106.35 70.65" fill="#ff0000" fill-opacity="0.92156863" fill-rule="evenodd" stroke="none"/>
  </g>
</svg>
