<?xml version="1.0" encoding="UTF-8" standalone="no"?>
<svg xmlns:xlink="http://www.w3.org/1999/xlink" height="158.0px" width="117.0px" xmlns="http://www.w3.org/2000/svg">
  <g transform="matrix(1.0, 0.0, 0.0, 1.0, 0.0, -1.0)">
    <path d="M82.0 51.55 L96.0 64.5 Q91.75 62.0 89.6 66.8 88.0 70.3 88.0 76.0 L89.5 81.5 89.4 81.95 89.3 81.95 87.15 78.8 Q84.9 76.15 82.15 75.95 L80.0 75.95 Q80.0 81.0 79.45 86.9 79.45 90.7 81.35 93.6 82.9 96.0 84.0 96.0 L89.8 95.7 Q93.0 96.35 93.0 101.5 L92.9 105.6 Q93.25 107.0 96.0 107.0 104.3 107.0 106.55 94.35 107.5 87.65 108.15 84.75 109.25 79.85 111.4 78.45 111.9 79.7 112.25 86.45 112.5 92.4 114.8 97.5 117.0 102.45 117.0 103.0 117.0 105.5 112.65 117.0 108.3 128.7 108.15 131.95 108.05 134.6 104.5 137.9 101.15 141.1 99.0 141.1 L96.95 140.55 Q95.25 140.0 93.5 140.0 92.45 140.0 86.85 143.05 79.95 146.8 73.0 149.0 78.7 145.9 82.65 141.75 86.0 138.3 86.0 136.8 L85.95 136.25 85.85 136.45 82.5 135.65 79.95 135.35 Q75.9 135.35 74.25 136.75 73.25 137.55 72.6 139.75 71.95 141.95 70.95 142.8 69.25 144.15 65.1 144.15 61.65 142.95 60.0 141.0 L59.45 141.15 Q58.8 142.05 56.2 142.7 L51.35 143.3 48.8 142.6 Q46.5 141.85 46.1 141.85 45.45 141.85 44.35 144.55 L41.95 150.45 Q38.05 159.0 32.5 159.0 28.3 159.0 25.95 157.1 L22.4 152.95 Q17.55 146.9 4.7 146.9 L0.0 147.0 0.0 133.0 Q1.5 131.35 3.5 130.0 L5.8 128.1 Q7.45 125.75 7.45 114.15 7.45 110.75 6.75 103.35 6.0 95.95 6.0 95.0 6.0 90.15 13.0 82.7 20.0 75.2 20.0 72.0 L19.9 68.95 Q19.75 68.5 19.0 68.0 18.85 69.5 18.4 70.2 L16.55 72.1 Q16.0 71.35 16.0 70.0 L20.1 61.85 Q24.2 53.05 24.2 49.35 24.2 48.6 23.75 48.25 L21.95 47.3 Q23.2 45.15 31.7 41.45 36.95 39.15 52.0 33.0 52.0 30.65 52.5 26.9 L53.0 23.0 Q53.0 19.85 52.0 14.1 51.0 8.3 51.0 6.0 51.0 5.5 51.5 5.0 52.0 4.5 52.0 4.0 L52.8 4.0 Q52.95 3.3 54.75 2.45 L55.75 2.0 55.85 1.7 57.0 1.0 Q57.9 1.15 58.75 1.55 L61.2 1.55 70.65 4.55 Q74.9 6.15 76.7 7.8 77.95 8.35 78.85 9.9 80.1 12.0 81.0 16.45 L80.85 17.1 79.0 17.0 Q78.6 18.7 76.5 20.35 73.75 22.6 73.45 22.95 L69.0 29.0 68.85 36.0 Q68.85 38.95 82.0 51.55" fill="#ff0000" fill-opacity="0.972549" fill-rule="evenodd" stroke="none"/>
  </g>
</svg>
