<?xml version="1.0" encoding="UTF-8" standalone="no"?>
<svg xmlns:xlink="http://www.w3.org/1999/xlink" height="169.0px" width="117.0px" xmlns="http://www.w3.org/2000/svg">
  <g transform="matrix(1.0, 0.0, 0.0, 1.0, 0.0, -3.0)">
    <path d="M110.55 64.05 L112.75 61.45 113.0 61.4 113.25 62.55 112.65 65.65 Q112.0 69.6 112.0 79.5 112.0 90.0 113.3 91.45 113.75 91.95 114.85 91.9 L117.0 92.0 117.0 136.0 Q113.6 137.5 112.3 143.05 112.0 144.25 111.0 153.0 L102.2 150.9 Q93.2 149.0 84.0 149.0 80.95 151.5 74.65 154.0 62.1 159.0 45.5 159.0 38.45 159.0 35.95 161.7 34.05 163.65 28.0 172.0 L25.0 172.0 22.05 169.65 Q19.9 167.45 21.0 165.0 L10.15 163.3 0.0 162.0 0.0 153.0 Q0.0 146.1 1.6 143.0 2.45 141.3 5.15 139.35 7.65 137.5 8.7 134.9 10.3 130.9 10.3 122.5 10.3 119.0 9.6 111.0 8.85 103.0 8.85 100.75 8.85 93.45 11.9 91.7 13.45 91.1 14.0 90.6 14.95 89.8 14.95 87.9 14.95 86.1 14.45 84.1 L14.0 83.0 15.1 84.3 16.0 86.0 Q18.6 83.85 18.65 83.85 20.45 81.85 20.45 79.05 L20.25 77.35 19.9 77.2 19.0 77.05 12.25 78.6 11.35 78.45 11.0 78.0 Q16.8 62.95 19.3 62.65 L20.15 63.2 20.2 61.05 Q20.2 60.1 19.65 59.0 19.05 57.75 18.0 57.0 L19.0 57.0 Q18.6 53.5 19.6 53.9 21.6 54.75 22.0 54.5 25.6 52.45 24.0 19.0 25.9 21.6 26.95 32.05 28.0 41.8 27.5 48.85 L27.5 49.0 Q32.8 47.45 37.8 43.15 42.55 39.0 44.0 35.0 42.6 28.25 39.85 25.3 37.2 22.55 36.65 19.0 L36.25 16.35 36.0 13.0 Q36.0 12.95 39.75 10.35 43.25 7.0 42.0 3.0 43.35 5.3 47.0 6.65 49.1 7.45 54.55 8.55 65.6 10.85 69.0 15.0 70.85 13.4 72.3 12.55 L72.55 12.35 72.6 12.9 Q72.6 14.0 70.05 16.85 67.45 19.75 66.0 20.0 66.0 23.15 62.85 30.0 L59.65 36.65 Q59.65 39.55 61.15 40.95 62.1 41.85 63.0 41.85 63.7 41.85 66.65 43.65 72.05 47.0 90.8 59.4 L92.45 61.2 Q93.9 63.0 94.2 63.9 L94.25 64.05 93.95 64.1 Q92.35 63.45 91.0 62.0 88.25 65.1 86.2 69.15 83.0 75.45 83.0 81.5 83.0 82.85 84.35 84.55 85.65 86.3 85.65 87.3 L85.7 87.45 84.4 86.05 83.0 84.0 82.0 84.0 82.0 101.0 Q82.0 102.2 82.75 104.5 83.35 106.45 83.65 106.85 L84.25 107.1 Q84.9 106.75 85.95 104.9 87.0 103.0 87.0 102.25 85.0 93.7 84.0 91.0 85.55 92.8 87.5 97.75 L90.95 106.9 Q95.55 118.4 100.2 118.4 103.8 118.4 105.0 115.95 106.85 112.1 107.0 99.0 L107.0 96.0 106.5 96.0 106.0 86.0 107.1 84.95 108.0 83.85 109.65 85.0 110.0 85.0 110.0 72.0 Q108.95 67.1 110.55 64.05" fill="#ff0000" fill-opacity="0.92156863" fill-rule="evenodd" stroke="none"/>
  </g>
</svg>
