<?xml version="1.0" encoding="UTF-8" standalone="no"?>
<svg xmlns:xlink="http://www.w3.org/1999/xlink" height="168.0px" width="133.0px" xmlns="http://www.w3.org/2000/svg">
  <g transform="matrix(1.0, 0.0, 0.0, 1.0, 0.0, 0.0)">
    <path d="M93.0 61.0 L92.2 60.6 92.05 60.6 Q89.8 59.5 88.6 63.35 87.7 66.2 87.7 69.7 87.7 73.55 88.75 76.9 L89.8 80.95 Q89.8 82.95 88.0 87.0 88.0 89.3 94.0 94.5 100.0 99.7 100.0 100.0 L99.5 101.5 Q99.0 102.5 99.0 103.0 99.0 107.8 100.5 110.1 102.35 112.9 106.75 112.9 L111.8 112.45 Q113.55 111.7 114.25 108.85 114.95 106.05 116.0 79.0 117.95 78.6 119.25 79.9 L121.0 82.0 Q122.45 77.75 123.55 72.35 L125.15 64.9 Q127.0 58.1 133.0 56.0 L132.95 56.45 Q129.9 59.1 126.75 66.4 123.0 75.05 123.0 83.0 123.0 85.6 124.55 87.05 126.1 88.5 126.1 92.05 126.1 93.7 124.5 104.8 122.85 115.85 122.85 118.25 122.85 123.85 124.2 127.55 124.9 129.35 125.55 130.1 125.55 131.4 124.45 132.4 123.1 133.55 121.0 133.0 121.85 136.05 120.45 136.05 120.2 136.05 119.95 141.05 119.1 146.0 115.55 146.0 L109.95 144.4 Q103.85 142.75 100.8 142.75 96.25 142.75 91.9 144.45 89.6 145.3 84.45 148.15 74.55 153.5 66.0 153.5 62.75 153.5 58.8 155.0 L55.0 156.5 Q52.85 156.5 50.3 154.75 48.2 153.0 48.0 153.0 41.4 153.0 38.2 160.5 L35.8 165.65 Q34.3 168.0 32.0 168.0 30.25 168.0 28.25 166.35 26.05 164.55 26.0 162.5 24.0 163.5 22.9 163.5 22.35 163.5 21.95 163.1 L21.0 162.0 23.0 160.0 19.75 158.95 17.5 158.0 14.85 156.85 12.0 155.65 Q10.4 155.65 9.5 156.65 8.55 157.6 7.45 157.6 4.55 157.6 3.55 155.4 3.0 154.2 3.0 151.85 3.0 151.35 3.5 151.2 4.0 151.0 4.0 150.5 L3.5 145.65 3.0 140.0 Q0.85 140.6 0.85 138.95 0.85 137.9 1.95 135.45 3.0 132.95 3.0 130.5 L1.5 129.2 Q0.0 127.65 0.0 125.0 0.0 116.75 6.65 108.85 L11.2 103.9 Q13.3 101.7 13.3 100.75 13.3 85.15 16.6 83.65 18.55 83.2 19.55 82.35 21.25 80.85 22.25 76.1 L21.25 75.25 Q20.25 74.7 18.3 74.7 16.9 74.7 15.1 75.6 L13.45 76.5 12.5 76.35 12.0 76.0 Q15.7 71.7 19.1 63.55 22.35 55.65 22.35 51.45 22.35 51.15 21.0 50.0 21.55 46.8 25.1 45.2 27.2 44.3 32.6 43.3 37.8 42.35 39.8 41.35 43.0 39.75 43.0 36.5 43.0 28.5 38.35 26.05 L34.7 24.35 Q32.75 23.15 32.0 21.0 33.1 21.9 34.0 22.0 L33.95 21.55 32.1 18.2 Q31.25 16.25 31.0 14.0 35.8 13.45 38.25 10.9 40.05 9.0 40.05 6.75 L38.0 0.0 39.0 0.0 Q39.4 3.05 41.35 5.05 43.35 7.0 46.0 7.0 47.8 7.0 50.35 5.05 52.85 3.1 53.85 3.1 60.05 3.1 63.25 7.2 L65.85 10.65 Q67.55 12.6 69.7 13.55 66.8 15.0 62.85 19.55 58.95 24.05 58.95 25.85 58.95 29.8 73.0 41.9 89.65 56.35 93.0 61.0" fill="#ff0000" fill-opacity="0.92156863" fill-rule="evenodd" stroke="none"/>
  </g>
</svg>
