<?xml version="1.0" encoding="UTF-8" standalone="no"?>
<svg xmlns:xlink="http://www.w3.org/1999/xlink" height="126.0px" width="134.05px" xmlns="http://www.w3.org/2000/svg">
  <g transform="matrix(1.0, 0.0, 0.0, 1.0, -6.95, -1.0)">
    <path d="M85.5 32.75 L98.95 44.05 Q98.95 45.1 96.0 52.0 L96.6 53.55 Q97.15 54.65 97.15 55.5 97.15 59.1 98.95 62.05 100.75 65.0 103.0 65.0 L108.0 63.0 Q111.9 63.0 125.3 68.65 139.9 74.75 141.0 75.0 140.25 78.35 139.0 79.75 137.65 81.2 135.1 81.2 133.6 81.2 130.0 80.0 L130.0 82.0 Q131.15 83.15 132.55 87.65 132.55 89.55 130.75 90.65 128.5 92.0 127.25 96.75 125.8 102.3 124.7 103.75 122.95 106.1 118.55 106.1 L116.05 106.5 113.55 106.85 Q110.4 106.85 107.8 106.05 L104.0 105.0 98.0 105.0 98.0 106.0 107.8 108.3 Q117.2 110.65 119.5 113.0 L118.1 112.6 109.0 112.25 102.85 111.75 Q102.2 111.6 100.0 108.95 97.9 106.55 96.05 106.55 95.15 106.55 94.4 106.95 93.6 107.45 93.6 108.2 93.6 109.5 94.05 111.35 94.25 112.05 93.35 113.05 92.15 112.6 90.0 109.0 88.95 109.2 86.2 110.6 83.65 111.85 83.2 111.85 L80.6 111.45 78.0 111.0 Q78.05 112.2 75.4 113.35 72.4 114.65 71.75 115.8 L68.45 122.3 Q66.5 125.45 63.7 125.45 L62.9 125.25 62.65 125.05 63.25 121.75 63.8 119.35 Q63.8 117.0 56.0 117.0 53.5 117.0 51.3 118.65 48.1 121.0 46.95 121.5 45.8 122.0 42.2 124.65 39.0 127.0 38.5 127.0 37.8 127.0 35.55 124.85 32.85 122.35 28.0 121.0 L28.95 120.9 29.8 120.45 30.0 119.8 29.9 119.45 Q26.9 118.65 23.15 116.35 20.65 114.8 17.0 115.0 L17.0 117.0 18.55 118.45 19.2 119.4 19.1 120.0 18.85 119.95 14.65 118.85 Q11.0 116.9 10.0 112.0 10.7 112.0 10.9 111.65 L11.0 110.5 Q11.0 108.4 10.0 100.0 8.0 99.7 8.0 98.5 8.0 97.45 9.0 93.65 L10.0 90.0 8.5 87.6 Q6.95 85.0 6.95 83.25 6.95 80.05 10.0 72.5 13.5 63.85 16.55 63.85 L18.55 63.95 20.15 63.85 20.25 62.65 Q20.25 45.2 21.9 43.45 L24.3 42.0 Q26.2 40.7 28.0 37.0 L30.85 29.6 Q32.65 24.55 33.6 23.2 L33.8 25.0 33.35 27.65 32.9 30.3 33.1 31.3 Q33.5 32.25 34.75 32.25 35.4 32.25 38.55 30.7 42.35 28.75 43.0 27.0 L43.0 31.0 Q46.15 31.55 47.35 27.7 48.0 25.65 48.0 23.0 48.95 28.0 50.4 28.5 52.0 28.15 52.5 27.0 53.0 25.8 53.0 22.3 53.0 19.85 51.15 18.7 49.25 17.5 49.0 15.0 L49.85 15.7 Q51.3 16.5 53.0 16.5 53.05 15.6 53.55 14.35 L54.0 13.0 53.5 11.85 Q52.95 10.75 52.8 9.5 55.4 6.0 60.0 6.0 L63.0 6.45 65.95 6.9 Q68.5 6.9 70.3 4.8 L73.0 1.0 72.95 2.0 71.0 8.0 Q71.0 8.5 73.7 10.45 76.35 12.45 76.35 14.4 76.35 17.6 74.2 18.15 72.0 18.75 72.0 21.0 72.0 21.5 85.5 32.75" fill="#ff0000" fill-opacity="0.92156863" fill-rule="evenodd" stroke="none"/>
  </g>
</svg>
