<?xml version="1.0" encoding="UTF-8" standalone="no"?>
<svg xmlns:xlink="http://www.w3.org/1999/xlink" height="42.5px" width="50.0px" xmlns="http://www.w3.org/2000/svg">
  <g transform="matrix(1.0, 0.0, 0.0, 1.0, 0.0, -1.5)">
    <path d="M45.6 15.35 Q45.6 16.6 47.8 22.4 L50.0 28.0 Q50.0 28.9 49.1 29.6 47.8 30.45 47.0 31.0 47.1 31.65 47.9 32.6 L48.65 33.45 Q48.65 34.1 44.0 38.0 39.25 42.0 38.0 42.0 36.1 42.0 32.9 43.0 L29.0 44.0 24.0 43.0 16.1 42.0 Q14.95 42.0 14.2 42.55 13.4 43.05 12.9 43.05 L0.0 32.0 0.0 26.0 1.0 26.0 1.0 23.0 2.4 22.9 Q3.0 22.65 3.0 22.0 0.85 22.65 0.85 20.95 0.85 18.8 9.15 10.9 17.0 3.35 17.55 3.35 L19.55 2.95 21.0 2.5 22.3 2.0 27.0 1.5 Q30.05 1.5 37.4 6.15 45.6 11.35 45.6 15.35" fill="#ff0000" fill-rule="evenodd" stroke="none"/>
  </g>
</svg>
