<?xml version="1.0" encoding="UTF-8" standalone="no"?>
<svg xmlns:xlink="http://www.w3.org/1999/xlink" height="115.3px" width="87.0px" xmlns="http://www.w3.org/2000/svg">
  <g transform="matrix(1.0, 0.0, 0.0, 1.0, 0.0, -1.0)">
    <path d="M87.0 43.0 L87.0 64.0 87.0 65.0 86.5 65.0 Q86.7 68.2 85.0 69.0 L85.1 70.0 Q90.15 94.65 73.0 97.0 L73.0 98.0 72.9 99.0 Q69.05 121.05 42.0 115.0 L41.0 115.0 Q36.25 115.25 34.0 113.0 L33.2 112.75 Q25.6 105.9 22.0 95.0 L22.05 94.0 Q23.8 81.7 18.0 74.0 L17.15 73.75 Q12.05 70.45 11.0 63.0 12.7 62.7 12.5 60.0 L13.0 60.0 13.0 59.8 12.9 59.05 Q8.05 40.05 10.0 24.0 L9.8 23.1 Q8.45 20.55 8.0 17.0 L7.1 16.8 Q2.65 14.85 1.0 10.0 L0.0 10.0 0.0 9.0 0.0 8.0 Q2.6 3.6 8.05 2.1 L9.0 2.0 9.0 1.0 22.0 1.0 23.0 1.0 Q29.6 3.4 33.75 8.2 L34.0 9.0 Q27.9 15.45 24.2 24.1 L24.0 25.0 Q32.05 26.95 36.35 20.25 36.5 20.0 37.0 20.0 L37.0 19.0 Q47.75 11.85 52.0 8.5 L52.0 9.0 Q52.4 19.55 62.95 20.5 L63.0 21.0 Q64.65 20.9 64.1 23.05 L64.0 24.0 Q72.4 25.6 78.8 29.35 79.0 29.5 79.0 30.0 84.4 32.6 86.45 38.85 86.5 39.0 87.0 39.0 L87.0 42.0 87.0 43.0" fill="#ff0000" fill-rule="evenodd" stroke="none"/>
  </g>
</svg>
