<?xml version="1.0" encoding="UTF-8" standalone="no"?>
<svg xmlns:xlink="http://www.w3.org/1999/xlink" height="193.0px" width="115.0px" xmlns="http://www.w3.org/2000/svg">
  <g transform="matrix(1.0, 0.0, 0.0, 1.0, 0.0, -1.0)">
    <path d="M86.0 48.0 Q86.95 55.05 90.75 59.25 L91.0 60.0 Q95.0 62.0 99.1 63.8 L100.0 64.0 Q104.6 61.1 112.9 62.5 L113.0 63.0 113.5 63.05 Q114.95 80.5 96.0 75.0 103.35 88.65 114.25 98.75 L115.0 99.0 Q114.55 119.05 112.05 137.0 L112.0 138.0 112.55 138.1 Q115.15 149.3 113.0 160.0 L112.05 160.15 Q101.7 163.95 104.0 176.0 L103.75 176.8 Q95.0 188.0 80.0 193.0 L80.0 194.0 79.0 194.0 76.0 194.0 75.0 194.0 53.0 194.0 52.0 194.0 50.0 194.0 Q50.0 193.5 50.25 193.2 56.35 186.1 46.0 179.0 45.5 179.0 45.35 179.25 42.4 183.4 36.0 174.0 L35.45 173.85 Q34.05 169.95 32.0 167.0 L32.05 166.0 Q32.75 160.75 31.0 158.0 L30.85 158.95 Q29.65 162.65 30.0 168.0 L30.6 168.2 Q34.9 176.6 37.0 182.0 L36.45 181.85 Q32.9 171.5 27.0 173.0 L26.3 172.75 Q18.7 163.85 10.0 159.0 11.05 158.05 13.0 158.0 L14.0 158.0 13.9 157.45 Q10.75 156.7 10.0 154.0 L9.25 153.75 Q4.0 149.0 5.0 138.0 7.5 128.0 17.9 125.55 L18.0 125.0 Q22.95 125.0 20.25 121.8 20.0 121.5 20.0 121.0 16.75 117.25 16.05 111.0 L16.0 110.0 15.75 109.2 Q13.55 106.45 14.0 101.0 L13.75 100.15 Q12.65 98.35 13.0 95.0 19.2 86.7 28.15 81.2 L29.0 81.0 29.0 80.0 Q33.45 78.05 30.25 73.8 30.0 73.5 30.0 73.0 L29.0 73.05 Q17.7 73.95 6.0 71.0 L5.3 70.75 Q1.8 66.2 4.0 61.0 L3.8 60.1 Q0.3 53.2 0.0 43.0 L0.0 42.0 0.0 39.0 Q21.7 8.7 66.0 1.1 L67.0 1.0 Q72.7 7.8 77.75 15.15 L78.0 16.0 Q84.15 21.35 87.45 29.85 L88.0 30.0 Q88.95 40.45 86.2 47.05 L86.0 48.0" fill="#ff0000" fill-rule="evenodd" stroke="none"/>
  </g>
</svg>
