<?xml version="1.0" encoding="UTF-8" standalone="no"?>
<svg xmlns:xlink="http://www.w3.org/1999/xlink" height="103.45px" width="123.0px" xmlns="http://www.w3.org/2000/svg">
  <g transform="matrix(1.0, 0.0, 0.0, 1.0, 0.0, -1.0)">
    <path d="M105.0 14.0 L104.0 14.05 Q94.55 14.95 90.0 11.0 L89.25 10.75 Q84.4 5.85 81.0 13.0 80.35 15.65 83.0 15.5 L83.0 16.0 Q85.8 16.2 87.8 17.35 88.0 17.5 88.0 18.0 L90.85 18.45 91.0 19.0 Q95.0 19.0 97.2 20.75 L98.0 21.0 100.0 21.0 101.0 21.0 101.0 20.0 Q103.15 17.65 104.8 14.85 L105.0 14.0 M108.0 12.0 Q112.8 11.7 112.5 15.95 L112.0 16.0 111.75 16.75 108.0 20.0 107.8 20.9 Q106.75 23.25 105.0 25.0 L104.9 26.0 Q104.35 28.35 103.0 30.0 L102.8 30.9 102.0 32.0 102.0 33.0 102.0 34.0 Q101.35 36.65 104.0 36.1 L105.0 36.0 Q107.15 35.4 107.05 37.0 L107.0 38.0 108.75 39.25 109.0 40.0 Q115.7 42.65 115.05 50.0 L115.0 51.0 Q115.5 51.5 116.1 51.8 L117.0 52.0 117.5 52.0 Q117.45 55.45 114.0 56.0 L113.5 56.1 Q113.15 57.65 111.0 57.0 L111.0 58.0 111.1 59.0 Q111.7 62.7 110.0 64.0 L109.75 64.75 109.0 65.0 109.0 66.0 109.0 67.0 109.75 67.25 110.0 68.0 Q111.75 74.25 110.5 82.95 L110.0 83.0 109.0 83.0 109.0 84.0 109.0 86.0 109.0 87.0 Q111.0 86.5 112.8 85.6 L113.0 85.0 113.0 84.0 Q114.65 84.15 114.1 81.95 L114.0 81.0 114.0 80.0 114.0 79.0 Q118.15 72.1 117.1 79.0 L117.0 80.0 117.0 84.0 117.0 85.0 117.8 86.1 118.0 87.0 122.0 87.0 123.0 87.0 122.85 87.55 Q118.75 88.7 117.0 87.0 L116.0 87.0 114.0 87.0 113.05 87.15 Q110.1 88.1 109.0 91.0 L108.0 91.0 Q104.45 91.0 102.0 90.0 L101.0 90.0 96.0 90.0 95.0 90.0 94.8 90.6 Q94.0 91.0 93.0 91.0 L92.85 91.55 Q90.05 92.55 88.0 94.0 L87.0 94.0 86.75 94.7 Q79.75 99.9 74.0 95.0 L73.05 94.85 71.0 94.0 70.0 94.0 Q70.0 94.5 69.8 94.6 68.0 95.5 66.0 96.0 L66.0 97.0 67.8 97.4 68.0 98.0 Q70.7 97.3 71.4 98.8 71.5 99.0 72.0 99.0 76.7 99.75 72.8 102.75 L72.0 103.0 72.0 103.5 Q67.95 103.55 66.0 101.0 L65.5 101.0 Q66.2 96.3 62.0 97.0 L61.0 97.0 60.0 97.0 60.1 97.95 Q60.65 100.15 59.0 100.0 L58.1 100.2 Q57.5 100.5 57.0 101.0 L56.85 101.95 Q55.45 105.5 53.0 104.0 L52.9 103.5 Q51.4 103.15 52.0 101.0 53.0 101.0 53.8 100.6 L54.0 100.0 54.0 99.5 Q47.25 99.75 43.0 98.0 L42.15 97.75 Q40.35 96.65 37.0 97.0 L36.95 98.0 Q36.7 100.2 34.0 100.0 L33.1 99.8 32.0 99.0 32.75 98.75 33.0 98.0 32.0 98.05 Q27.25 98.75 25.0 97.0 L24.05 96.85 22.0 96.0 21.05 95.85 Q15.25 94.25 14.0 88.0 L15.0 88.0 16.0 88.0 17.0 88.0 17.0 87.0 17.0 86.0 16.8 85.1 16.0 84.0 15.5 83.95 Q15.0 80.0 15.0 76.0 L15.0 75.0 15.0 74.0 15.0 69.0 15.0 68.0 15.0 63.0 15.0 62.0 15.0 59.0 14.0 59.05 Q11.2 59.2 9.0 60.0 L9.2 60.9 Q10.9 64.8 6.0 63.0 L5.75 63.7 Q2.55 66.5 2.0 62.0 L1.0 62.0 0.0 62.0 0.0 61.0 0.0 60.0 0.0 55.0 1.0 55.0 Q3.1 54.4 3.45 55.9 L4.0 56.0 6.05 55.15 7.0 55.0 7.0 54.0 Q9.45 52.95 13.0 53.0 L14.0 53.0 14.0 52.0 14.0 51.0 15.0 51.0 15.0 50.0 15.0 49.0 15.0 48.0 15.0 43.0 16.0 43.0 16.0 42.0 16.0 39.0 17.0 39.0 18.0 39.0 18.0 38.0 19.0 38.0 Q21.15 37.15 22.35 35.2 22.5 35.0 23.0 35.0 24.65 35.15 24.5 33.0 L25.0 33.0 26.0 33.0 27.0 33.0 27.0 32.0 27.0 28.0 28.0 28.0 28.0 27.0 28.0 26.0 29.0 26.0 29.0 25.0 29.0 24.0 33.15 21.2 34.0 21.0 34.0 20.0 36.0 20.0 37.0 20.0 37.0 19.0 47.95 19.5 48.0 20.0 52.0 20.0 53.0 20.0 54.0 20.0 54.0 19.0 Q56.9 18.9 58.3 17.25 58.5 17.0 59.0 17.0 59.5 16.5 60.1 16.2 L61.0 16.0 61.0 15.0 Q62.0 14.5 63.05 14.15 L64.0 14.0 64.0 13.0 Q68.55 12.45 70.75 14.3 L71.0 15.0 73.85 14.55 74.0 14.0 74.0 13.0 Q77.65 7.65 82.25 3.25 82.5 3.0 83.0 3.0 L83.0 2.0 83.0 1.0 84.0 1.0 85.0 1.0 86.0 1.0 Q87.8 4.25 89.75 7.15 L90.0 8.0 Q91.05 8.95 92.85 9.45 L93.0 10.0 98.0 10.0 99.0 10.0 100.0 10.0 101.0 10.0 Q104.75 10.25 107.85 11.45 L108.0 12.0 M82.0 30.0 L81.25 29.75 81.0 29.0 80.1 28.8 Q77.95 27.55 75.0 27.0 L74.0 27.0 76.15 28.75 77.0 29.0 Q77.5 29.0 77.75 29.25 L78.0 30.0 Q79.95 30.05 81.15 30.75 L82.0 31.0 82.0 30.0 M93.0 32.0 L92.1 31.8 Q91.5 31.5 91.0 31.0 L90.0 31.0 88.0 31.0 92.15 33.8 93.0 34.0 93.0 33.0 93.0 32.0 M88.0 20.0 L87.0 19.95 Q83.05 19.45 80.0 18.0 L79.1 17.8 78.0 17.0 77.05 17.15 Q76.0 17.5 75.0 18.0 75.95 19.05 76.0 21.0 L76.0 22.0 76.8 23.1 77.0 24.0 Q80.7 23.75 82.3 25.75 L83.0 26.0 84.0 26.0 85.0 26.0 86.75 28.15 87.0 29.0 Q88.0 28.5 89.05 28.15 L90.0 28.0 Q91.0 28.0 91.8 27.6 L92.0 27.0 92.0 26.0 96.0 25.1 97.0 25.0 96.8 24.1 96.0 23.0 95.0 22.9 Q90.95 22.05 88.0 20.0 M90.0 36.0 L90.55 35.9 Q91.25 33.25 85.0 32.0 86.2 33.8 88.1 34.8 L89.0 35.0 Q89.5 35.0 89.75 35.25 L90.0 36.0 M86.0 103.0 L85.0 103.05 Q82.3 103.2 82.0 101.0 83.7 100.7 84.4 99.2 84.5 99.0 85.0 99.0 L85.0 98.0 Q88.2 98.3 86.55 102.85 L86.0 103.0" fill="#ff0000" fill-rule="evenodd" stroke="none"/>
  </g>
</svg>
