<?xml version="1.0" encoding="UTF-8" standalone="no"?>
<svg xmlns:xlink="http://www.w3.org/1999/xlink" height="170.3px" width="131.5px" xmlns="http://www.w3.org/2000/svg">
  <g transform="matrix(1.0, 0.0, 0.0, 1.0, -0.8, -1.0)">
    <path d="M108.5 65.25 L107.25 68.55 Q106.0 72.2 106.0 74.5 106.0 77.9 107.55 79.15 108.35 79.8 110.95 80.25 113.35 80.7 114.35 81.8 115.9 83.5 115.9 87.65 L114.0 93.5 Q114.0 94.75 116.2 96.55 L121.05 99.95 Q128.05 104.9 128.05 109.15 128.05 110.5 126.95 112.35 L125.85 114.0 128.95 118.65 Q128.95 119.45 127.0 121.25 L125.0 123.0 Q125.0 130.25 128.65 132.5 L131.15 133.95 Q132.3 134.9 132.3 136.75 132.3 140.15 129.05 141.1 124.55 141.85 122.0 143.0 L127.55 150.1 Q130.95 154.6 130.95 155.5 130.95 156.5 130.45 156.15 L128.0 156.5 Q126.65 156.5 123.15 152.45 117.3 145.8 112.0 141.0 L108.85 143.8 Q108.0 144.7 108.0 146.35 108.0 151.4 112.05 152.45 114.2 153.0 114.8 153.4 116.05 154.3 116.05 156.55 116.05 158.4 114.55 160.1 112.3 162.7 107.65 162.7 104.6 162.7 101.45 161.7 96.85 160.25 96.85 157.45 96.85 154.05 100.6 152.2 104.3 150.35 104.3 146.4 104.3 144.35 102.35 142.35 99.65 139.95 98.0 138.0 94.15 148.9 90.95 154.6 87.9 160.1 85.85 160.1 84.0 160.1 84.0 156.0 84.0 155.5 85.8 153.05 88.55 149.25 92.0 140.0 L72.0 144.0 Q72.85 145.6 72.85 147.05 72.85 148.05 70.45 149.7 68.0 151.35 68.0 155.0 68.0 159.35 72.0 160.4 74.25 161.0 74.75 161.3 76.0 162.05 76.0 163.85 76.0 167.25 74.35 168.75 71.5 171.3 63.05 171.3 61.0 171.3 59.05 170.0 56.85 168.55 56.85 166.5 56.85 165.85 57.95 163.2 L59.0 160.0 Q59.0 158.9 54.5 155.4 L33.0 139.0 Q32.9 140.2 31.7 141.4 30.25 142.9 28.0 143.0 L28.0 145.0 Q34.85 145.65 37.7 147.4 41.3 149.6 41.3 154.55 41.3 158.45 39.45 161.35 37.05 165.1 32.3 165.1 25.7 165.1 20.7 160.6 L17.0 156.0 Q17.0 153.3 20.55 150.2 24.1 147.1 24.1 144.75 24.1 142.95 22.6 141.4 21.25 140.0 20.0 140.0 18.7 140.0 15.5 141.4 12.35 142.8 11.15 142.8 7.65 142.8 4.1 141.15 0.85 139.65 0.85 138.5 0.85 136.85 2.6 134.25 4.2 131.8 4.0 131.0 L7.0 131.0 7.0 122.5 Q4.95 123.0 3.8 121.7 2.85 120.65 2.85 118.9 4.0 117.5 4.0 117.0 4.0 115.6 2.4 112.45 L0.8 109.5 Q0.8 103.6 4.15 100.25 6.45 98.0 8.0 98.0 L16.1 99.0 Q18.45 99.0 20.15 97.6 22.0 96.1 22.0 93.8 22.0 93.05 21.0 89.6 20.0 86.15 20.0 84.0 L22.0 81.85 24.0 79.8 Q24.0 79.0 23.15 76.55 L20.0 68.0 22.7 71.45 25.0 75.0 26.2 72.8 27.05 70.65 Q26.05 70.45 25.35 69.3 24.0 67.05 24.0 59.0 24.0 56.5 27.9 51.2 31.85 45.85 37.6 40.6 52.2 27.3 62.0 28.05 L62.0 26.0 Q58.95 24.45 54.95 23.2 L49.15 21.45 Q43.8 19.55 43.8 15.15 43.8 12.1 47.45 7.4 52.4 1.0 60.0 1.0 67.2 1.0 78.1 6.1 87.9 10.7 87.9 11.95 87.9 18.3 80.95 23.2 75.4 27.1 72.0 27.1 L70.0 26.9 70.0 29.0 Q73.0 31.35 80.55 34.2 89.9 37.75 93.3 39.55 108.5 47.7 108.5 65.25 M44.25 141.1 L44.0 141.0 48.75 145.55 63.0 158.0 Q64.3 155.9 64.3 154.4 64.3 152.05 60.0 144.0 58.75 144.2 44.25 141.1" fill="#ff0000" fill-rule="evenodd" stroke="none"/>
  </g>
</svg>
