<?xml version="1.0" encoding="UTF-8" standalone="no"?>
<svg xmlns:xlink="http://www.w3.org/1999/xlink" height="167.1px" width="165.2px" xmlns="http://www.w3.org/2000/svg">
  <g transform="matrix(1.0, 0.0, 0.0, 1.0, -1.0, -4.0)">
    <path d="M164.75 133.15 Q164.0 133.2 164.0 134.0 L164.2 137.35 164.3 140.15 163.6 139.6 162.4 139.2 Q161.75 139.2 159.0 140.25 L155.75 141.4 Q152.45 141.7 151.1 143.8 149.9 145.55 150.0 149.0 L149.85 154.45 Q149.7 157.5 149.4 158.2 148.95 158.0 148.4 156.5 147.85 154.85 147.5 154.5 147.25 156.45 144.35 158.25 L132.0 165.0 Q130.35 161.5 123.9 159.35 L117.5 157.85 116.0 158.0 117.25 160.55 Q117.65 161.9 117.65 164.15 L117.35 165.55 116.95 166.5 Q116.15 168.55 114.9 169.7 L113.3 170.6 Q112.85 170.7 112.4 170.4 111.45 169.8 111.0 168.0 112.45 167.75 113.5 166.45 114.45 165.2 114.45 163.95 114.45 162.75 113.65 161.7 L112.0 160.0 Q109.15 162.7 94.6 167.0 80.75 171.1 76.3 171.1 L72.5 170.55 67.0 170.0 56.55 169.75 Q52.85 169.3 52.85 167.5 L52.6 166.05 52.0 164.0 53.0 164.0 96.0 156.0 96.0 151.0 Q97.55 152.1 98.65 152.1 102.9 152.1 106.25 148.55 108.7 145.85 109.0 144.0 L108.05 144.15 105.5 144.7 103.0 145.0 96.1 144.0 89.25 142.95 83.55 144.8 Q78.0 146.6 75.55 146.6 67.6 146.6 64.7 144.35 61.25 141.65 55.5 141.0 55.8 144.6 53.95 146.1 53.0 146.9 52.0 147.0 L52.5 151.0 53.0 155.0 Q53.0 157.25 52.4 158.75 51.65 160.8 49.95 160.8 L46.35 160.3 39.6 159.8 31.0 159.95 31.0 161.0 46.3 165.25 Q47.5 165.65 47.65 166.05 L47.65 167.15 Q47.65 168.6 46.1 169.6 44.2 170.85 40.6 170.85 35.55 170.85 23.45 167.9 12.85 165.3 10.0 164.0 9.6 166.85 8.45 167.65 4.5 165.3 2.35 158.5 L1.0 152.0 Q1.0 151.25 4.15 147.35 L7.3 143.5 Q7.0 141.0 7.0 139.0 L8.0 139.35 8.75 139.9 9.55 141.75 Q9.65 142.15 10.0 142.0 10.9 141.0 11.0 140.0 L9.25 138.55 Q7.6 137.1 7.05 137.1 6.3 137.1 4.8 139.0 L4.5 138.95 4.0 129.0 5.0 129.0 4.5 126.9 Q3.95 125.65 3.95 123.6 3.95 121.25 12.85 115.85 21.75 110.4 21.75 107.6 21.75 104.45 20.85 103.45 20.45 103.0 18.9 102.65 16.0 101.95 16.0 95.0 16.0 92.3 25.55 91.05 L38.1 89.6 Q50.45 85.95 53.0 79.0 47.75 78.6 46.0 74.0 L46.65 73.65 47.0 73.0 Q45.0 72.55 43.6 70.8 42.0 68.85 42.0 66.0 42.0 65.15 44.0 61.15 46.0 57.1 46.0 56.0 L45.0 48.85 44.0 42.0 Q44.7 42.25 46.2 39.25 47.75 36.05 50.15 36.15 58.4 36.45 58.2 31.1 L57.55 26.35 Q57.15 23.45 58.0 22.0 L67.0 22.5 Q67.0 22.9 67.15 22.95 L68.0 23.0 Q68.7 23.0 69.7 22.15 70.85 21.1 70.85 19.9 70.85 18.3 68.55 17.0 L62.0 13.0 Q63.0 13.0 63.0 12.0 63.0 11.5 63.5 11.5 64.0 11.5 64.0 11.0 L63.5 9.3 Q62.65 7.6 61.0 7.0 L61.9 7.1 Q63.9 7.35 67.0 9.0 L71.05 8.2 77.1 6.2 Q80.4 5.2 85.2 4.5 L91.0 4.0 Q92.5 4.0 94.4 5.3 96.4 6.65 96.4 7.8 96.4 9.8 93.7 12.15 91.0 14.5 91.0 17.5 91.0 21.0 94.25 23.65 97.15 25.95 100.0 26.0 L99.95 25.55 98.6 23.35 Q97.8 22.2 97.8 20.5 97.8 18.3 99.35 14.85 101.15 11.0 103.0 11.0 118.8 11.0 123.25 16.1 123.95 16.85 125.85 20.3 127.2 22.8 129.25 23.8 128.9 24.95 128.35 25.0 128.0 25.05 128.0 26.5 128.0 29.15 129.85 38.55 131.75 48.55 131.95 51.0 L133.3 69.8 133.2 76.85 Q133.05 78.45 132.0 80.0 143.0 89.0 150.75 92.55 152.65 93.4 152.95 93.95 L153.2 97.3 Q153.2 98.2 152.7 98.5 L151.6 98.9 Q150.0 99.85 150.0 105.0 150.0 113.1 155.25 115.7 L159.7 117.45 Q162.25 118.45 163.45 119.95 167.05 131.0 165.95 132.7 L164.75 133.15" fill="#ff0000" fill-opacity="0.9019608" fill-rule="evenodd" stroke="none"/>
  </g>
</svg>
