<?xml version="1.0" encoding="UTF-8" standalone="no"?>
<svg xmlns:xlink="http://www.w3.org/1999/xlink" height="148.35px" width="156.5px" xmlns="http://www.w3.org/2000/svg">
  <g transform="matrix(1.0, 0.0, 0.0, 1.0, -1.0, -0.9)">
    <path d="M139.0 40.0 Q137.85 36.65 140.05 35.15 141.65 34.1 144.85 34.1 146.35 34.1 152.0 37.0 157.5 39.8 157.5 40.15 157.5 41.25 156.25 44.4 155.0 47.5 155.0 51.8 155.0 52.55 155.35 54.75 155.7 57.0 156.0 58.0 155.35 58.15 145.0 66.0 146.4 67.7 147.05 70.6 147.55 72.7 147.55 74.75 147.55 78.35 146.85 80.7 146.35 82.25 145.8 82.65 L145.6 82.7 Q145.3 82.5 144.95 81.45 144.4 79.9 144.2 77.4 144.0 76.0 143.5 76.0 143.75 77.45 143.4 79.6 143.0 82.15 142.0 83.0 L142.0 90.0 Q145.35 90.5 146.7 92.7 150.15 98.3 154.2 102.7 L152.3 101.6 150.95 101.0 Q149.65 101.0 147.45 102.4 145.0 104.0 145.0 105.5 145.0 107.8 146.7 109.7 148.35 111.65 148.35 112.5 L147.85 114.85 Q147.25 116.65 147.0 128.55 L146.75 128.6 146.35 129.1 146.0 130.5 Q146.15 128.6 144.05 126.2 141.6 123.35 138.0 123.0 138.2 124.25 140.3 126.65 142.2 128.85 142.2 131.7 142.2 133.4 141.6 135.2 L141.0 137.0 Q141.4 132.95 137.55 129.45 133.75 125.95 129.0 126.0 129.0 135.5 128.5 138.1 L128.4 138.2 Q127.75 137.0 127.2 131.25 126.75 126.9 124.8 126.9 122.0 126.9 121.65 131.15 121.25 137.1 120.55 138.25 L120.45 138.25 120.35 133.45 120.4 128.95 Q120.4 126.3 118.3 126.3 115.7 126.35 115.0 125.0 110.9 124.7 109.95 130.6 L109.55 135.1 Q109.35 137.4 108.9 137.9 L108.5 136.35 107.5 134.0 107.0 125.1 Q105.65 126.1 105.25 127.7 104.65 130.1 104.05 130.55 103.05 129.45 102.85 127.7 102.6 126.0 103.0 123.0 L96.3 124.5 90.0 126.0 90.0 127.0 Q91.6 127.0 92.4 127.7 93.0 128.25 93.0 129.0 93.0 132.8 91.95 134.35 90.95 133.4 90.0 130.0 L85.0 130.0 Q85.0 133.0 88.65 136.3 L94.5 142.0 Q91.7 143.25 87.7 139.0 83.65 133.95 82.3 132.8 L81.0 132.0 Q80.95 132.4 83.05 135.5 85.15 138.65 85.15 140.25 85.15 144.9 81.45 146.95 79.35 148.1 77.45 148.1 75.7 148.1 74.95 147.45 L73.7 146.05 Q71.55 144.0 63.0 144.0 L62.15 144.85 Q61.1 145.65 60.0 145.65 58.5 145.65 54.4 142.2 49.4 138.0 47.0 133.0 42.25 134.75 42.3 138.7 L42.2 141.05 Q41.8 142.0 40.0 142.0 L38.45 142.75 36.0 143.0 Q35.3 146.75 34.1 148.25 33.4 149.05 32.3 149.25 L31.0 149.05 30.0 148.0 Q32.1 147.1 32.75 144.75 L33.0 141.5 32.6 139.05 32.2 136.0 Q32.2 134.3 30.25 132.3 27.95 130.05 25.0 130.0 25.4 132.95 24.8 136.55 24.3 139.4 23.7 140.65 L23.5 140.65 Q23.1 139.75 23.25 137.2 L23.45 132.65 Q23.2 127.0 18.0 127.0 15.45 127.0 14.95 127.85 14.7 128.35 14.95 130.5 15.55 135.95 10.65 140.85 L10.1 140.85 9.9 138.25 Q11.3 131.7 11.3 130.6 L11.15 128.05 Q10.9 128.05 10.6 127.7 L10.0 127.0 8.25 130.05 Q6.35 132.85 4.9 133.8 3.75 132.95 3.35 131.65 3.15 131.05 2.95 131.5 L2.25 130.25 Q1.85 129.15 1.85 127.35 1.85 121.55 5.95 117.3 L8.75 114.7 Q10.0 113.6 10.0 113.0 L9.1 111.55 Q8.2 109.75 8.0 108.0 L7.6 102.0 7.55 101.2 7.45 101.05 7.35 100.9 5.15 102.55 Q3.45 103.95 2.3 103.95 1.0 103.95 1.0 100.0 1.0 99.0 1.15 98.65 1.35 98.0 2.0 98.0 L2.0 97.0 Q4.45 97.0 7.75 93.65 11.0 90.3 11.0 88.0 11.0 80.55 9.85 79.4 10.15 79.15 9.15 79.15 L8.3 79.75 Q7.65 80.5 8.0 81.5 6.85 78.8 5.55 71.25 4.05 62.35 4.0 55.0 L11.65 44.7 Q19.15 34.9 23.0 34.9 26.4 34.9 26.4 37.9 26.4 41.45 25.35 42.95 24.85 43.75 22.6 45.2 17.4 48.5 14.0 58.0 L14.0 61.0 Q15.3 61.05 21.95 56.1 28.6 51.1 30.35 51.1 L37.0 50.0 Q37.55 50.0 38.1 51.75 38.6 53.65 38.1 55.0 L38.0 56.0 Q43.45 53.0 45.15 44.3 46.0 40.1 46.0 31.5 46.0 30.85 47.25 27.1 L48.5 22.6 Q48.5 21.55 47.25 20.35 46.0 19.1 46.0 16.9 46.0 15.85 48.05 14.2 L52.5 10.9 Q59.0 5.85 59.0 1.0 61.55 0.65 62.55 1.8 L64.55 3.95 65.0 4.0 Q65.2 2.75 66.5 1.8 L67.85 2.05 Q68.95 6.25 73.5 8.85 77.6 11.15 77.6 13.35 L76.0 17.0 Q76.0 20.1 81.1 21.4 86.2 22.65 86.2 25.9 86.2 27.4 85.2 29.1 83.95 31.25 82.1 31.25 L80.25 30.85 75.35 29.15 Q69.7 27.25 62.0 25.0 63.1 26.95 63.1 31.45 63.1 33.25 62.65 34.2 62.05 35.35 61.7 40.2 61.5 43.4 60.15 48.15 L58.9 52.3 Q58.9 53.7 59.8 54.1 L60.75 54.25 Q70.15 54.25 72.05 51.2 72.9 49.75 73.3 46.5 L74.0 39.0 Q74.0 37.75 75.45 36.25 76.65 35.0 77.0 35.0 82.6 35.0 84.75 37.3 86.1 38.7 88.0 44.5 86.35 43.5 85.05 43.3 L82.0 43.0 82.0 51.0 Q90.3 50.2 96.1 55.85 L100.2 60.5 Q102.45 63.1 104.0 64.0 L108.0 64.0 Q107.55 61.55 108.5 60.1 109.0 59.35 110.9 58.0 114.85 55.25 115.0 50.0 L117.6 49.95 119.6 50.45 122.0 51.0 122.0 50.0 128.9 49.9 Q129.3 43.15 131.55 41.35 133.2 40.0 139.0 40.0 M108.0 124.5 Q107.5 124.7 107.15 125.0 108.0 124.95 108.0 124.5" fill="#ff0000" fill-opacity="0.9607843" fill-rule="evenodd" stroke="none"/>
  </g>
</svg>
