<?xml version="1.0" encoding="UTF-8" standalone="no"?>
<svg xmlns:xlink="http://www.w3.org/1999/xlink" height="41.0px" width="42.0px" xmlns="http://www.w3.org/2000/svg">
  <g transform="matrix(1.0, 0.0, 0.0, 1.0, 0.0, 0.0)">
    <path d="M41.0 25.0 L42.0 25.0 42.0 30.0 42.0 31.0 41.0 31.0 40.75 31.75 40.0 32.0 39.1 32.2 38.0 33.0 37.8 33.6 Q37.0 34.0 36.0 34.0 L35.8 34.6 Q35.0 35.0 34.0 35.0 L33.85 35.55 Q27.2 38.2 21.0 41.0 L20.15 40.75 18.0 39.0 17.0 39.0 16.1 38.8 Q14.5 38.0 13.0 37.0 L12.1 36.8 Q8.15 34.85 4.0 33.0 L3.1 32.8 2.0 32.0 1.25 31.75 Q1.0 31.5 1.0 31.0 L0.0 31.0 0.0 30.0 0.0 26.0 0.0 25.0 0.0 23.0 0.0 22.0 0.0 19.0 0.0 18.0 0.0 13.0 1.0 13.0 1.0 12.0 1.0 10.0 2.0 10.0 Q10.7 6.2 18.15 1.25 18.5 1.0 19.0 1.0 L19.0 0.0 21.0 0.0 22.0 0.0 22.0 1.0 Q24.35 1.65 26.15 2.8 L27.0 3.0 29.85 3.45 30.0 4.0 30.75 4.25 31.0 5.0 31.75 5.25 32.0 6.0 33.75 7.25 34.0 8.0 34.8 9.1 35.0 10.0 Q37.65 11.35 38.8 14.1 L39.0 15.0 39.8 16.1 40.0 17.0 Q41.75 19.25 41.05 24.0 L41.0 25.0" fill="#ff0000" fill-rule="evenodd" stroke="none"/>
  </g>
</svg>
