<?xml version="1.0" encoding="UTF-8" standalone="no"?>
<svg xmlns:xlink="http://www.w3.org/1999/xlink" height="92.0px" width="67.0px" xmlns="http://www.w3.org/2000/svg">
  <g transform="matrix(1.0, 0.0, 0.0, 1.0, 0.0, 0.0)">
    <path d="M63.0 10.0 L63.1 10.95 Q63.65 13.15 62.0 13.0 L62.0 14.0 62.0 15.0 62.0 16.0 62.1 16.95 Q62.65 19.15 61.0 19.0 L61.1 19.95 Q61.65 22.15 60.0 22.0 L60.0 23.0 60.0 25.0 60.0 26.0 63.9 26.45 64.0 27.0 63.8 27.9 63.0 29.0 62.0 29.0 60.0 29.0 60.0 30.0 60.0 34.0 60.0 35.0 60.0 36.0 60.0 41.0 60.0 42.0 Q59.1 45.4 62.0 45.5 L62.0 46.0 63.0 46.0 64.0 46.0 Q65.7 46.3 65.95 48.0 L66.0 49.0 67.0 49.0 67.0 52.0 67.0 53.0 66.0 53.0 65.9 54.0 Q64.85 58.85 60.0 60.0 L60.0 68.0 60.0 69.0 60.15 69.95 Q61.1 72.65 59.0 77.0 L59.0 78.0 58.75 78.75 58.0 79.0 Q58.0 79.5 57.8 79.6 55.3 80.7 55.0 79.0 L54.0 79.0 54.05 80.0 Q54.7 84.2 53.0 86.0 L52.45 86.15 Q50.35 92.05 47.0 87.0 46.5 87.0 46.35 86.75 44.45 84.05 45.0 79.0 L46.0 79.0 46.0 78.0 45.1 77.8 44.0 77.0 43.0 77.0 39.0 77.0 38.0 77.0 37.75 77.8 Q33.95 82.4 33.0 91.0 L32.85 91.55 Q29.8 92.7 29.0 91.0 L28.4 90.8 Q27.5 89.0 27.0 87.0 L27.0 86.0 27.0 84.0 Q29.2 80.35 26.4 81.25 19.8 83.35 15.45 83.95 L15.0 84.0 Q14.5 84.0 14.4 83.8 14.0 83.0 14.0 82.0 L13.5 81.9 Q13.0 79.5 13.0 77.0 L12.25 76.75 12.0 76.0 11.0 76.0 10.0 75.9 Q8.0 75.5 7.0 74.0 L6.05 73.85 Q2.5 72.5 1.0 69.0 L0.75 68.25 0.0 68.0 0.0 67.0 1.0 67.0 1.0 66.0 Q2.95 65.95 3.75 64.85 L4.0 64.0 4.0 63.0 Q5.6 63.15 5.5 61.0 L6.0 61.0 6.0 60.0 Q8.15 59.4 8.45 60.9 L9.0 61.0 Q10.45 62.55 13.0 62.95 L14.0 63.0 14.0 62.0 13.05 61.85 Q10.55 60.95 10.0 58.0 L10.0 57.0 13.75 53.7 14.0 53.0 14.0 52.0 14.0 51.0 13.45 50.85 Q13.0 49.5 13.0 48.0 L12.75 47.25 Q7.75 42.25 8.0 32.0 L8.0 31.0 8.0 30.0 9.0 30.0 9.0 29.0 9.0 28.0 Q8.5 28.0 8.4 27.8 8.0 27.0 8.0 26.0 L7.25 25.75 5.0 23.0 4.25 22.75 Q4.0 22.5 4.0 22.0 L5.0 22.0 5.0 21.0 5.0 20.0 6.0 20.0 7.0 20.0 7.0 19.0 8.0 19.0 9.0 19.0 9.0 18.0 14.9 18.5 15.0 19.0 Q17.0 19.5 18.8 20.4 19.0 20.5 19.0 21.0 L21.15 22.75 22.0 23.0 25.0 23.0 26.0 23.0 26.0 22.0 27.0 22.0 28.0 22.0 28.0 21.0 29.0 21.0 29.0 20.0 29.75 19.75 30.0 19.0 30.0 18.0 31.1 17.2 32.0 17.0 32.0 16.0 32.0 13.0 33.75 10.85 34.0 10.0 33.45 9.85 Q32.95 8.05 32.0 7.0 L31.25 6.75 Q31.0 6.5 31.0 6.0 32.2 3.45 33.75 5.2 L34.0 6.0 Q35.65 6.15 35.5 4.0 L36.0 4.0 36.0 3.0 36.0 1.0 37.0 1.0 37.0 0.0 38.0 0.0 39.0 0.0 39.1 0.95 Q39.65 3.1 38.0 3.0 L38.0 5.0 38.0 6.0 Q38.0 6.5 38.25 6.75 L39.0 7.0 40.0 7.0 40.0 6.0 Q43.15 5.8 40.8 7.75 L40.0 8.0 39.75 8.75 39.0 9.0 39.0 10.0 Q41.55 14.45 45.25 17.75 L46.0 18.0 47.1 18.8 48.0 19.0 48.0 18.0 Q50.25 13.75 51.85 8.95 L52.0 8.0 52.0 7.0 52.0 6.0 53.0 6.0 54.0 6.0 58.9 6.5 59.0 7.0 Q61.9 7.1 62.8 9.1 L63.0 10.0" fill="#ff0000" fill-rule="evenodd" stroke="none"/>
  </g>
</svg>
