<?xml version="1.0" encoding="UTF-8" standalone="no"?>
<svg xmlns:xlink="http://www.w3.org/1999/xlink" height="94.0px" width="72.2px" xmlns="http://www.w3.org/2000/svg">
  <g transform="matrix(1.0, 0.0, 0.0, 1.0, -0.8, 0.0)">
    <path d="M56.0 8.0 Q58.15 7.4 58.5 8.9 L59.0 9.0 Q62.85 13.4 59.15 24.05 L59.0 25.0 Q61.45 26.0 64.95 26.5 L65.0 27.0 64.8 27.9 64.0 29.0 63.0 29.0 61.0 29.0 60.95 30.0 Q60.45 34.95 57.0 37.0 56.4 39.15 57.9 39.45 L58.0 40.0 59.0 40.0 Q59.5 39.5 60.1 39.2 L61.0 39.0 61.0 38.0 Q63.75 31.35 64.0 38.0 L64.0 39.0 Q64.0 40.0 64.4 40.8 L65.0 41.0 65.0 40.0 65.0 38.0 Q66.7 37.7 66.5 35.0 L67.0 35.0 67.0 34.0 68.0 34.0 70.85 34.45 71.0 35.0 Q71.5 35.5 72.1 35.8 L73.0 36.0 73.0 37.0 72.0 37.0 72.0 38.0 72.1 38.95 Q72.65 41.15 71.0 41.0 L70.9 42.0 Q70.35 44.35 69.0 46.0 L69.0 47.0 69.0 48.0 Q69.05 49.95 69.75 51.15 L70.0 52.0 Q71.7 53.3 70.55 56.85 L70.0 57.0 Q70.0 58.5 69.5 59.8 L69.05 61.05 Q64.2 59.9 62.0 66.0 L62.0 67.0 62.0 68.0 62.1 68.95 Q62.65 71.15 61.0 71.0 L61.05 72.0 Q61.65 77.15 59.0 79.0 L58.8 79.6 Q56.3 80.7 56.0 79.0 L55.0 79.0 55.0 80.0 55.1 81.0 Q55.7 84.7 54.0 86.0 L53.8 86.9 53.0 88.0 52.9 88.95 Q52.2 91.7 50.0 93.0 L50.0 94.0 49.0 94.0 47.0 94.0 46.0 94.0 44.0 94.0 43.0 94.0 41.0 94.0 41.0 93.0 40.15 92.75 Q39.0 92.0 38.0 91.0 L37.5 91.0 Q37.65 88.35 35.0 89.0 L34.95 90.0 Q34.7 92.2 32.0 92.0 L31.1 91.8 30.0 91.0 29.5 91.0 Q29.65 88.35 27.0 89.0 L26.75 89.85 Q25.95 90.95 24.0 91.0 L23.85 91.55 Q20.3 92.7 19.0 91.0 L18.1 90.8 Q10.4 87.1 3.0 83.0 L2.0 82.95 Q0.3 82.7 1.0 80.0 3.8 78.8 4.85 75.95 L5.0 75.0 4.25 74.75 Q4.0 74.5 4.0 74.0 6.0 72.1 7.3 73.75 L8.0 74.0 11.0 74.0 12.0 74.0 13.0 74.0 13.0 73.0 13.75 72.75 14.0 72.0 14.0 71.0 14.0 63.0 14.0 62.0 13.15 61.75 Q12.05 60.95 12.0 59.0 L12.0 58.0 12.0 56.0 Q13.7 55.7 14.4 54.2 14.5 54.0 15.0 54.0 L15.0 53.0 15.0 51.0 14.45 50.85 Q14.0 49.5 14.0 48.0 L14.0 47.0 13.3 46.75 Q9.2 41.3 9.0 32.0 L9.0 31.0 9.0 30.0 10.0 30.0 10.0 29.0 10.0 28.0 Q9.5 28.0 9.4 27.8 9.0 27.0 9.0 26.0 L8.25 25.75 6.0 23.0 5.25 22.75 Q5.0 22.5 5.0 22.0 L6.0 22.0 6.0 21.0 6.0 20.0 7.0 20.0 8.0 20.0 8.0 19.0 9.0 19.0 10.0 19.0 10.0 18.0 15.9 18.5 16.0 19.0 Q18.0 19.5 19.8 20.4 L20.0 21.0 Q20.5 21.0 20.75 21.25 L21.0 22.0 26.0 22.0 27.0 22.0 Q29.7 22.2 30.45 20.15 30.5 20.0 31.0 20.0 L31.0 19.0 31.0 18.0 31.0 16.0 32.0 16.0 32.0 15.0 32.0 14.0 33.0 14.0 Q33.5 13.5 34.1 13.2 L35.0 13.0 Q35.0 12.5 35.2 12.4 36.65 11.7 35.0 10.0 L34.45 9.85 Q33.95 8.05 33.0 7.0 L32.25 6.75 Q32.0 6.5 32.0 6.0 33.2 3.45 34.75 5.2 L35.0 6.0 Q36.65 6.15 36.5 4.0 L37.0 4.0 37.0 3.0 37.0 1.0 38.0 1.0 38.0 0.0 39.0 0.0 40.0 0.0 40.1 0.95 Q40.65 3.1 39.0 3.0 L39.0 5.0 39.0 6.0 39.25 6.75 40.0 7.0 41.0 7.0 41.0 6.0 Q44.15 5.8 41.8 7.75 L41.0 8.0 40.75 8.75 40.0 9.0 40.0 11.0 40.0 12.0 Q44.65 13.3 46.45 17.85 L47.0 18.0 47.0 17.0 47.0 16.0 48.0 16.0 48.8 14.9 49.0 14.0 49.0 13.0 49.0 11.0 50.0 11.0 50.0 10.0 50.0 9.0 Q51.0 8.5 52.05 8.15 L53.0 8.0 55.0 8.0 56.0 8.0" fill="#ff0000" fill-rule="evenodd" stroke="none"/>
  </g>
</svg>
