<?xml version="1.0" encoding="UTF-8" standalone="no"?>
<svg xmlns:xlink="http://www.w3.org/1999/xlink" height="72.0px" width="73.0px" xmlns="http://www.w3.org/2000/svg">
  <g transform="matrix(1.0, 0.0, 0.0, 1.0, -1.0, -1.0)">
    <path d="M64.0 20.0 L64.55 20.1 Q66.2 27.2 63.0 30.0 L63.0 31.0 63.0 32.0 62.9 33.0 Q62.2 36.2 61.0 39.0 L61.0 40.0 Q61.5 40.5 62.1 40.8 L63.0 41.0 Q65.8 41.2 67.8 42.35 68.0 42.5 68.0 43.0 L69.8 43.4 Q70.0 43.5 70.0 44.0 72.0 44.5 72.5 46.0 L72.0 46.0 Q73.3 49.2 73.9 53.0 L74.0 54.0 73.8 54.9 73.0 56.0 73.0 57.0 73.05 58.0 Q73.55 61.55 71.0 62.0 L71.0 63.0 70.75 63.75 Q68.95 65.45 66.0 66.0 L65.9 66.5 61.0 67.0 60.0 67.0 57.0 67.0 57.0 68.0 58.8 68.4 59.0 69.0 58.75 69.7 Q56.25 71.75 51.0 71.0 L50.45 70.9 Q50.15 69.4 48.0 70.0 L47.0 70.1 40.0 71.0 39.0 71.0 39.0 72.0 39.0 73.0 38.0 73.0 37.0 73.0 37.0 72.0 36.1 71.8 Q32.65 69.85 28.0 69.0 L27.0 69.0 24.0 69.0 23.45 68.9 Q23.15 67.4 21.0 68.0 L20.85 68.55 Q19.4 69.15 20.0 67.0 L19.0 67.0 18.0 67.0 17.0 67.0 14.0 67.0 13.1 66.8 12.0 66.0 11.05 66.15 Q6.3 67.95 3.0 64.0 L2.45 63.9 Q2.0 62.0 2.0 60.0 L2.0 59.0 2.0 58.0 1.45 57.85 Q1.0 56.5 1.0 55.0 L1.0 54.0 1.0 52.0 1.0 51.0 1.0 50.0 2.8 46.9 3.0 46.0 3.0 45.0 3.0 44.0 Q4.95 43.95 6.15 43.25 L7.0 43.0 7.0 42.0 9.0 42.0 10.0 42.0 10.0 41.0 12.0 41.0 13.0 41.0 13.0 40.0 14.0 40.0 15.0 40.0 15.0 39.0 15.0 38.0 14.75 37.35 Q11.65 35.35 12.0 30.0 L12.0 29.0 12.0 28.0 11.5 27.9 Q11.0 25.0 11.0 22.0 L12.0 22.0 12.0 21.0 Q13.65 21.15 13.5 19.0 L14.0 19.0 14.0 18.0 Q16.0 16.5 18.15 15.2 L19.0 15.0 19.0 14.0 20.0 14.0 19.8 13.4 Q18.0 12.5 17.0 11.0 L16.2 10.75 Q14.8 9.7 15.0 7.0 16.55 5.05 19.95 5.5 L20.0 6.0 21.0 6.0 Q23.95 3.7 24.9 9.0 L25.0 10.0 Q27.15 10.65 27.45 9.1 L28.0 9.0 27.9 8.45 Q26.4 8.15 27.0 6.0 L31.25 5.75 32.0 6.0 33.0 6.0 34.0 6.0 34.0 5.0 36.0 5.0 37.0 5.0 Q43.15 4.35 45.35 7.75 45.5 8.0 46.0 8.0 L47.0 8.0 47.0 7.0 47.0 5.0 Q48.7 4.7 49.4 3.2 L50.0 3.0 50.0 2.0 Q51.95 1.95 53.15 1.25 53.5 1.0 54.0 1.0 L55.0 1.0 56.0 1.0 Q57.7 1.3 58.4 2.8 L59.0 3.0 Q60.6 6.6 59.1 12.05 L59.0 13.0 Q59.5 13.0 59.75 13.25 L60.0 14.0 Q62.95 15.55 63.9 19.05 L64.0 20.0" fill="#ff0000" fill-rule="evenodd" stroke="none"/>
  </g>
</svg>
