<?xml version="1.0" encoding="UTF-8" standalone="no"?>
<svg xmlns:xlink="http://www.w3.org/1999/xlink" height="47.0px" width="73.3px" xmlns="http://www.w3.org/2000/svg">
  <g transform="matrix(1.0, 0.0, 0.0, 1.0, -0.95, -1.0)">
    <path d="M62.0 17.0 L64.85 17.45 65.0 18.0 Q67.8 18.2 69.8 19.35 70.0 19.5 70.0 20.0 L71.75 21.25 72.0 22.0 72.0 23.0 72.75 23.25 73.0 24.0 73.0 25.0 73.0 26.0 73.0 27.0 Q74.65 26.9 74.1 29.05 L74.0 30.0 73.8 30.9 73.0 32.0 73.0 33.0 73.0 34.0 73.0 35.0 72.75 35.85 71.0 38.0 71.0 39.0 70.85 39.55 Q69.05 40.05 68.0 41.0 L67.8 41.6 Q67.0 42.0 66.0 42.0 L65.85 42.55 63.0 43.0 62.0 43.0 61.0 43.0 60.0 43.0 59.0 43.0 Q58.5 43.0 58.15 43.25 56.7 44.2 54.0 44.0 L53.0 44.0 52.0 44.0 51.0 44.0 50.75 44.75 50.0 45.0 49.0 45.0 48.0 45.0 47.85 45.55 45.0 46.0 44.05 46.15 39.0 47.0 38.85 47.55 36.0 48.0 36.0 47.0 35.1 46.8 34.0 46.0 33.0 46.1 Q29.3 46.7 28.0 45.0 L27.0 45.0 26.0 44.95 20.0 44.0 19.45 43.9 Q19.15 42.4 17.0 43.0 L16.0 43.1 Q13.3 43.7 13.0 42.0 L12.0 42.0 11.0 42.0 10.0 42.0 Q5.25 42.25 3.0 40.0 L2.45 39.9 Q2.0 38.0 2.0 36.0 L1.75 35.15 Q0.8 33.7 1.0 31.0 L1.0 30.0 1.0 26.0 Q2.7 25.7 2.5 23.0 L3.0 23.0 3.0 22.0 3.0 20.0 Q4.95 19.95 6.15 19.25 L7.0 19.0 7.0 18.0 9.0 18.0 10.0 18.0 10.0 17.0 12.0 17.0 13.0 17.0 13.0 16.0 18.05 15.15 19.0 15.0 19.0 14.0 Q20.95 13.95 22.15 13.25 L23.0 13.0 23.0 12.0 Q25.15 12.65 25.45 11.1 L26.0 11.0 27.0 11.0 28.0 11.0 Q30.7 11.2 32.15 10.25 L33.0 10.0 33.0 9.0 42.95 9.5 43.0 10.0 47.9 10.5 48.0 11.0 49.8 11.4 50.0 12.0 Q52.15 11.4 52.45 12.9 L53.0 13.0 Q53.5 13.5 54.1 13.8 L55.0 14.0 Q57.45 16.05 61.95 16.5 L62.0 17.0 M57.0 8.0 L56.0 8.0 Q52.45 8.0 50.0 7.0 L49.0 7.0 45.0 7.0 44.0 6.95 Q39.75 6.75 38.0 4.0 44.2 -2.0 51.45 4.5 52.0 5.0 52.95 5.2 55.35 5.65 57.0 7.0 64.9 9.25 58.0 8.1 L57.0 8.0 M22.0 1.0 Q35.9 2.75 23.95 5.9 L23.0 6.0 22.1 6.2 Q18.2 8.0 18.0 2.0 20.7 2.7 21.4 1.2 21.5 1.0 22.0 1.0" fill="#ff0000" fill-rule="evenodd" stroke="none"/>
  </g>
</svg>
