<?xml version="1.0" encoding="UTF-8" standalone="no"?>
<svg xmlns:xlink="http://www.w3.org/1999/xlink" height="30.05px" width="26.1px" xmlns="http://www.w3.org/2000/svg">
  <g transform="matrix(1.0, 0.0, 0.0, 1.0, 0.0, -1.0)">
    <path d="M20.7 5.7 Q24.3 10.4 25.6 16.05 27.05 22.4 24.35 26.35 21.2 31.05 12.7 31.05 8.3 29.15 0.0 26.0 L0.0 25.0 2.3 23.65 3.0 23.0 Q1.65 22.05 1.0 20.0 2.5 19.25 2.85 18.85 L3.0 18.0 2.5 16.0 Q2.0 14.5 2.0 14.0 L4.3 11.15 Q4.3 6.45 9.3 3.25 11.8 1.65 14.0 1.0 17.1 1.0 20.7 5.7" fill="#ff0000" fill-rule="evenodd" stroke="none"/>
  </g>
</svg>
