<?xml version="1.0" encoding="UTF-8" standalone="no"?>
<svg xmlns:xlink="http://www.w3.org/1999/xlink" height="125.0px" width="60.5px" xmlns="http://www.w3.org/2000/svg">
  <g transform="matrix(1.0, 0.0, 0.0, 1.0, 0.0, 0.0)">
    <path d="M42.4 11.95 Q46.55 14.85 48.0 15.0 48.3 13.9 49.35 11.8 50.25 10.05 50.7 9.45 L51.95 10.55 Q53.0 11.95 53.0 14.25 53.0 15.45 51.95 17.25 50.5 19.65 48.0 21.0 50.65 25.2 50.65 31.15 50.65 36.3 48.0 39.0 45.95 41.15 43.15 41.15 L41.0 41.0 Q41.0 48.15 43.5 55.25 44.75 58.8 46.0 61.0 46.0 64.1 44.5 69.3 43.0 74.55 43.0 75.5 L45.05 77.4 Q47.05 79.8 47.05 84.05 47.05 85.7 45.55 87.05 44.0 88.4 44.0 90.0 44.0 92.85 46.65 95.4 49.3 97.95 49.3 99.25 L49.45 100.85 Q50.35 102.65 54.25 104.8 59.0 107.45 59.8 108.15 L60.5 108.0 Q56.65 114.25 46.25 119.65 35.95 125.0 28.0 125.0 26.95 125.0 16.05 120.85 15.1 120.5 14.6 119.65 L13.55 117.95 6.65 114.45 Q0.0 110.95 0.0 109.5 0.0 108.4 5.8 105.6 11.9 102.65 12.55 100.95 L15.1 96.8 Q17.0 93.75 17.0 92.0 L18.0 91.85 19.4 92.25 20.0 93.0 20.5 91.75 20.85 90.35 Q20.85 88.85 19.85 84.9 18.45 79.5 18.0 77.0 18.7 76.0 19.65 75.9 20.3 75.85 20.3 75.15 20.0 72.0 20.0 68.0 L21.45 66.05 22.0 65.0 20.5 63.85 Q19.0 62.5 19.0 61.0 20.55 58.8 20.55 57.8 20.55 56.8 22.05 55.25 23.55 53.7 23.55 52.05 23.55 51.2 24.8 49.15 26.0 47.1 26.0 46.5 22.8 47.25 19.3 41.1 15.65 33.55 14.0 31.0 15.6 30.1 16.2 27.8 17.0 24.15 18.0 21.0 L19.0 21.0 Q19.0 20.5 19.5 20.0 20.0 19.5 20.0 19.0 20.0 18.0 17.5 12.45 15.0 6.95 15.0 3.0 15.0 1.0 15.8 0.6 L19.0 0.0 Q18.4 5.0 20.6 8.55 22.7 12.0 26.0 12.0 26.5 12.0 27.0 11.5 27.5 11.0 28.0 11.0 28.0 10.35 30.65 9.8 L34.0 9.3 Q38.5 9.3 42.4 11.95" fill="#ff0000" fill-opacity="0.98039216" fill-rule="evenodd" stroke="none"/>
  </g>
</svg>
