<?xml version="1.0" encoding="UTF-8" standalone="no"?>
<svg xmlns:xlink="http://www.w3.org/1999/xlink" height="411.0px" width="671.0px" xmlns="http://www.w3.org/2000/svg">
  <g transform="matrix(1.0, 0.0, 0.0, 1.0, -44.5, -74.5)">
    <path d="M707.0 75.0 Q715.0 75.0 715.0 83.0 L715.0 477.0 Q715.0 485.0 707.0 485.0 L53.0 485.0 Q45.0 485.0 45.0 477.0 L45.0 83.0 Q45.0 75.0 53.0 75.0 L707.0 75.0" fill="#ffffff" fill-rule="evenodd" stroke="none"/>
    <path d="M707.0 75.0 L53.0 75.0 Q45.0 75.0 45.0 83.0 L45.0 477.0 Q45.0 485.0 53.0 485.0 L707.0 485.0 Q715.0 485.0 715.0 477.0 L715.0 83.0 Q715.0 75.0 707.0 75.0 Z" fill="none" stroke="#8e8e8e" stroke-linecap="round" stroke-linejoin="round" stroke-width="1.0"/>
    <path d="M698.95 299.0 L580.95 299.0 580.95 141.0 698.95 141.0 698.95 299.0 M698.95 469.05 L580.95 469.05 580.95 311.05 698.95 311.05 698.95 469.05 M569.0 311.05 L569.0 469.05 451.0 469.05 451.0 311.05 569.0 311.05 M569.0 299.0 L451.0 299.0 451.0 141.0 569.0 141.0 569.0 299.0 M439.05 299.0 L321.05 299.0 321.05 141.0 439.05 141.0 439.05 299.0 M309.0 141.0 L309.0 299.0 191.0 299.0 191.0 141.0 309.0 141.0 M309.0 311.05 L309.0 469.05 191.0 469.05 191.0 311.05 309.0 311.05 M179.0 311.05 L179.0 469.05 61.0 469.05 61.0 311.05 179.0 311.05 M179.0 141.05 L179.0 299.05 61.0 299.05 61.0 141.05 179.0 141.05 M321.05 311.05 L439.05 311.05 439.05 469.05 321.05 469.05 321.05 311.05 Z" fill="none" stroke="#333333" stroke-linecap="round" stroke-linejoin="round" stroke-opacity="0.2509804" stroke-width="0.05"/>
  </g>
</svg>
