<?xml version="1.0" encoding="UTF-8" standalone="no"?>
<svg xmlns:xlink="http://www.w3.org/1999/xlink" height="16.0px" width="38.8px" xmlns="http://www.w3.org/2000/svg">
  <g transform="matrix(1.0, 0.0, 0.0, 1.0, 18.5, 7.5)">
    <path d="M12.4 -7.0 Q15.5 -7.0 17.6 -4.8 19.8 -2.6 19.8 0.5 19.8 3.6 17.6 5.8 15.55 7.85 12.4 8.0 L-10.4 8.0 -10.5 8.0 Q-13.6 8.0 -15.8 5.8 -18.0 3.65 -18.0 0.5 -18.0 -2.65 -15.8 -4.8 -13.65 -7.0 -10.65 -7.0 L12.4 -7.0" fill="#ff0000" fill-rule="evenodd" stroke="none"/>
    <path d="M12.4 -7.0 Q15.5 -7.0 17.6 -4.8 19.8 -2.6 19.8 0.5 19.8 3.6 17.6 5.8 15.55 7.85 12.4 8.0 M-10.4 8.0 L-10.5 8.0 Q-13.6 8.0 -15.8 5.8 -18.0 3.65 -18.0 0.5 -18.0 -2.65 -15.8 -4.8 -13.65 -7.0 -10.65 -7.0" fill="none" stroke="#333333" stroke-linecap="round" stroke-linejoin="round" stroke-width="1.0"/>
    <path d="M12.4 8.0 L-10.4 8.0 M-10.65 -7.0 L12.4 -7.0" fill="none" stroke="#000000" stroke-linecap="round" stroke-linejoin="round" stroke-width="1.0"/>
  </g>
</svg>
