<?xml version="1.0" encoding="UTF-8" standalone="no"?>
<svg xmlns:xlink="http://www.w3.org/1999/xlink" height="436.0px" width="696.85px" xmlns="http://www.w3.org/2000/svg">
  <g transform="matrix(1.0, 0.0, 0.0, 1.0, -29.5, -54.5)">
    <path d="M725.85 490.0 L30.0 490.0 30.0 275.0 725.85 275.0 725.85 490.0" fill="#ffffff" fill-rule="evenodd" stroke="none"/>
    <path d="M725.85 490.0 L30.0 490.0 30.0 275.0 725.85 275.0 725.85 490.0 Z" fill="none" stroke="#666666" stroke-linecap="round" stroke-linejoin="bevel" stroke-width="1.0"/>
    <path d="M725.0 267.0 L385.0 267.0 373.0 279.0 361.0 267.0 30.0 267.0 30.0 142.0 725.0 142.0 725.0 267.0" fill="url(#gradient0)" fill-rule="evenodd" stroke="none"/>
    <path d="M725.0 267.0 L385.0 267.0 373.0 279.0 361.0 267.0 30.0 267.0 30.0 142.0 725.0 142.0 725.0 267.0 Z" fill="none" stroke="#666666" stroke-linecap="round" stroke-linejoin="bevel" stroke-width="1.0"/>
    <path d="M631.0 55.0 L631.0 135.0 384.0 135.0 372.0 147.0 360.0 135.0 121.0 135.0 121.0 55.0 631.0 55.0" fill="#f2f2f2" fill-rule="evenodd" stroke="none"/>
    <path d="M631.0 55.0 L121.0 55.0 121.0 135.0 360.0 135.0 372.0 147.0 384.0 135.0 631.0 135.0 631.0 55.0 Z" fill="none" stroke="#666666" stroke-linecap="round" stroke-linejoin="bevel" stroke-width="1.0"/>
  </g>
  <defs>
    <linearGradient gradientTransform="matrix(7.0E-4, 0.0789, -0.0836, 7.0E-4, 377.5, 210.45)" gradientUnits="userSpaceOnUse" id="gradient0" spreadMethod="pad" x1="-819.2" x2="819.2">
      <stop offset="0.00784313725490196" stop-color="#f2f2f2"/>
      <stop offset="1.0" stop-color="#ffffff"/>
    </linearGradient>
  </defs>
</svg>
