<?xml version="1.0" encoding="UTF-8" standalone="no"?>
<svg xmlns:xlink="http://www.w3.org/1999/xlink" height="57.0px" width="1.0px" xmlns="http://www.w3.org/2000/svg">
  <g transform="matrix(1.0, 0.0, 0.0, 1.0, 0.5, -0.85)">
    <path d="M0.5 1.35 L0.35 1.7 0.0 1.85 -0.35 1.7 -0.5 1.35 -0.35 1.0 0.0 0.85 0.35 1.0 0.5 1.35 M0.35 5.0 L0.5 5.35 0.35 5.7 0.0 5.85 -0.35 5.7 -0.5 5.35 -0.35 5.0 0.0 4.85 0.35 5.0 M0.35 9.0 L0.5 9.35 0.35 9.7 0.0 9.85 -0.35 9.7 -0.5 9.35 -0.35 9.0 0.0 8.85 0.35 9.0 M0.5 13.35 L0.35 13.7 0.0 13.85 -0.35 13.7 -0.5 13.35 -0.35 13.0 0.0 12.85 0.35 13.0 0.5 13.35 M0.5 17.35 L0.35 17.7 0.0 17.85 -0.35 17.7 -0.5 17.35 -0.35 17.0 0.0 16.85 0.35 17.0 0.5 17.35 M0.5 21.35 L0.35 21.7 0.0 21.85 -0.35 21.7 -0.5 21.35 -0.35 21.0 0.0 20.85 0.35 21.0 0.5 21.35 M0.5 25.35 L0.35 25.7 0.0 25.85 -0.35 25.7 -0.5 25.35 -0.35 25.0 0.0 24.85 0.35 25.0 0.5 25.35 M0.35 29.0 L0.5 29.35 0.35 29.7 0.0 29.85 -0.35 29.7 -0.5 29.35 -0.35 29.0 0.0 28.85 0.35 29.0 M0.35 37.0 L0.5 37.35 0.35 37.7 0.0 37.85 -0.35 37.7 -0.5 37.35 -0.35 37.0 0.0 36.85 0.35 37.0 M0.35 33.0 L0.5 33.35 0.35 33.7 0.0 33.85 -0.35 33.7 -0.5 33.35 -0.35 33.0 0.0 32.85 0.35 33.0 M0.5 41.35 L0.35 41.7 0.0 41.85 -0.35 41.7 -0.5 41.35 -0.35 41.0 0.0 40.85 0.35 41.0 0.5 41.35 M0.35 49.0 L0.5 49.35 0.35 49.7 0.0 49.85 -0.35 49.7 -0.5 49.35 -0.35 49.0 0.0 48.85 0.35 49.0 M0.35 45.0 L0.5 45.35 0.35 45.7 0.0 45.85 -0.35 45.7 -0.5 45.35 -0.35 45.0 0.0 44.85 0.35 45.0 M0.35 53.0 L0.5 53.35 0.35 53.7 0.0 53.85 -0.35 53.7 -0.5 53.35 -0.35 53.0 0.0 52.85 0.35 53.0 M0.35 57.0 L0.5 57.35 0.35 57.7 0.0 57.85 -0.35 57.7 -0.5 57.35 -0.35 57.0 0.0 56.85 0.35 57.0" fill="#999999" fill-rule="evenodd" stroke="none"/>
  </g>
</svg>
