<?xml version="1.0" encoding="UTF-8" standalone="no"?>
<svg xmlns:xlink="http://www.w3.org/1999/xlink" height="71.35px" width="138.6px" xmlns="http://www.w3.org/2000/svg">
  <g transform="matrix(1.0, 0.0, 0.0, 1.0, 69.75, 36.0)">
    <path d="M68.85 -0.3 Q68.7 14.5 48.25 24.95 27.8 35.4 -0.9 35.35 -29.65 35.35 -49.8 24.9 -69.95 14.45 -69.75 -0.35 -69.6 -15.1 -49.15 -25.55 -28.7 -36.0 0.0 -36.0 28.75 -35.95 48.9 -25.5 69.05 -15.05 68.85 -0.3" fill="url(#gradient0)" fill-rule="evenodd" stroke="none"/>
    <path d="M68.85 -0.3 Q68.7 14.5 48.25 24.95 27.8 35.4 -0.9 35.35 -29.65 35.35 -49.8 24.9 -69.95 14.45 -69.75 -0.35 -69.6 -15.1 -49.15 -25.55 -28.7 -36.0 0.0 -36.0 28.75 -35.95 48.9 -25.5 69.05 -15.05 68.85 -0.3 Z" fill="none" stroke="#ff0000" stroke-linecap="round" stroke-linejoin="round" stroke-width="0.05"/>
  </g>
  <defs>
    <radialGradient cx="0" cy="0" gradientTransform="matrix(0.0859, 0.0034, -0.0016, 0.0416, -0.45, -0.3)" gradientUnits="userSpaceOnUse" id="gradient0" r="819.2" spreadMethod="pad">
      <stop offset="0.0" stop-color="#ff0000" stop-opacity="0.047058824"/>
      <stop offset="1.0" stop-color="#ff0000" stop-opacity="0.2509804"/>
    </radialGradient>
  </defs>
</svg>
