<?xml version="1.0" encoding="UTF-8" standalone="no"?>
<svg xmlns:xlink="http://www.w3.org/1999/xlink" height="456.0px" width="571.0px" xmlns="http://www.w3.org/2000/svg">
  <g transform="matrix(1.0, 0.0, 0.0, 1.0, 285.5, 225.5)">
    <path d="M-135.0 190.0 L-135.0 189.0 -135.0 75.0 285.0 75.0 285.0 189.0 285.0 190.0 -135.0 190.0 285.0 190.0 285.0 225.0 Q285.0 230.0 280.0 230.0 L-130.0 230.0 Q-135.0 230.0 -135.0 225.0 L-135.0 190.0" fill="#ffffff" fill-rule="evenodd" stroke="none"/>
    <path d="M285.0 190.0 L285.0 189.0 285.0 75.0 -135.0 75.0 -135.0 189.0 -135.0 190.0 -135.0 225.0 Q-135.0 230.0 -130.0 230.0 L280.0 230.0 Q285.0 230.0 285.0 225.0 L285.0 190.0" fill="none" stroke="#333333" stroke-linecap="round" stroke-linejoin="round" stroke-width="1.0"/>
    <path d="M-135.0 190.0 L285.0 190.0" fill="none" stroke="#cccccc" stroke-linecap="round" stroke-linejoin="round" stroke-width="1.0"/>
    <path d="M285.0 -219.8 L285.0 -199.0 -135.0 -199.0 -135.0 -219.8 Q-135.0 -225.0 -130.0 -225.0 L280.0 -225.0 Q285.0 -225.0 285.0 -219.8 M285.0 -71.1 L285.0 -49.55 -285.0 -49.55 -285.0 -71.1 285.0 -71.1 M285.0 -28.1 L285.0 -6.65 -285.0 -6.65 -285.0 -28.1 285.0 -28.1 M285.0 14.85 L285.0 36.3 -285.0 36.3 -285.0 14.85 285.0 14.85 M-285.0 -92.55 L-285.0 -114.0 285.0 -114.0 285.0 -92.55 -285.0 -92.55 M285.0 58.55 L285.0 80.0 -285.0 80.0 -285.0 58.55 285.0 58.55" fill="#ffffff" fill-rule="evenodd" stroke="none"/>
    <path d="M285.0 -92.55 L285.0 -71.1 -285.0 -71.1 -285.0 -92.55 285.0 -92.55 M285.0 -49.55 L285.0 -28.1 -285.0 -28.1 -285.0 -49.55 285.0 -49.55 M285.0 -6.65 L285.0 14.85 -285.0 14.85 -285.0 -6.65 285.0 -6.65 M285.0 36.3 L285.0 57.8 -285.0 57.8 -285.0 36.3 285.0 36.3 M285.0 80.0 L285.0 101.45 -285.0 101.45 -285.0 80.0 285.0 80.0" fill="#f3ecd5" fill-rule="evenodd" stroke="none"/>
    <path d="M285.0 -219.8 Q285.0 -225.0 280.0 -225.0 L-130.0 -225.0 Q-135.0 -225.0 -135.0 -219.8 L-135.0 -199.0 285.0 -199.0 285.0 -219.8" fill="none" stroke="#333333" stroke-linecap="round" stroke-linejoin="round" stroke-width="1.0"/>
    <path d="M285.0 -92.55 L285.0 -71.1 285.0 -49.55 285.0 -28.1 285.0 -6.65 285.0 14.85 285.0 36.3 285.0 57.8 M-285.0 57.8 L-285.0 36.3 -285.0 14.85 -285.0 -6.65 -285.0 -28.1 -285.0 -49.55 -285.0 -71.1 -285.0 -92.55 -285.0 -114.0 285.0 -114.0 285.0 -92.55 -285.0 -92.55 M285.0 58.55 L285.0 80.0 285.0 101.45 -285.0 101.45 -285.0 80.0 -285.0 58.55 M285.0 117.4 L285.0 129.95 M285.0 80.0 L-285.0 80.0 M-285.0 36.3 L285.0 36.3 M285.0 14.85 L-285.0 14.85 M-285.0 -6.65 L285.0 -6.65 M285.0 -28.1 L-285.0 -28.1 M-285.0 -49.55 L285.0 -49.55 M285.0 -71.1 L-285.0 -71.1" fill="none" stroke="#4d4d4d" stroke-linecap="round" stroke-linejoin="round" stroke-width="1.0"/>
    <path d="M-285.0 58.3 L285.0 58.3" fill="none" stroke="#666666" stroke-linecap="round" stroke-linejoin="round" stroke-width="1.0"/>
    <path d="M-45.0 -225.0 L-15.0 -225.0 -5.0 -225.0 5.0 -225.0 135.0 -225.0 145.0 -225.0 275.0 -225.0 M285.0 -212.0 L285.0 129.95 M145.0 -225.0 L145.0 230.0 M5.0 230.0 L5.0 -225.0 M-135.0 155.0 L-135.0 -215.0" fill="none" stroke="#4d4d4d" stroke-linecap="round" stroke-linejoin="round" stroke-width="1.0"/>
  </g>
</svg>
