<?xml version="1.0" encoding="UTF-8" standalone="no"?>
<svg xmlns:xlink="http://www.w3.org/1999/xlink" height="96.0px" width="156.0px" xmlns="http://www.w3.org/2000/svg">
  <g transform="matrix(1.0, 0.0, 0.0, 1.0, 285.5, 215.5)">
    <path d="M-143.0 -164.0 L-143.0 -125.0 Q-143.0 -120.0 -148.0 -120.0 L-280.0 -120.0 Q-285.0 -120.0 -285.0 -125.0 L-285.0 -210.0 Q-285.0 -215.0 -280.0 -215.0 L-148.0 -215.0 Q-143.0 -215.0 -143.0 -210.0 L-143.0 -190.0 -130.0 -177.0 -143.0 -164.0" fill="#ffff95" fill-rule="evenodd" stroke="none"/>
    <path d="M-143.0 -190.0 L-143.0 -210.0 Q-143.0 -215.0 -148.0 -215.0 L-280.0 -215.0 Q-285.0 -215.0 -285.0 -210.0 L-285.0 -125.0 Q-285.0 -120.0 -280.0 -120.0 L-148.0 -120.0 Q-143.0 -120.0 -143.0 -125.0 L-143.0 -164.0" fill="none" stroke="#666666" stroke-linecap="round" stroke-linejoin="round" stroke-width="1.0"/>
    <path d="M-143.0 -164.0 L-130.0 -177.0 -143.0 -190.0" fill="none" stroke="#000000" stroke-linecap="round" stroke-linejoin="round" stroke-width="1.0"/>
  </g>
</svg>
