<?xml version="1.0" encoding="UTF-8" standalone="no"?>
<svg xmlns:xlink="http://www.w3.org/1999/xlink" height="11.0px" width="11.0px" xmlns="http://www.w3.org/2000/svg">
  <g transform="matrix(1.0, 0.0, 0.0, 1.0, 5.5, 5.45)">
    <path d="M3.55 -3.5 Q5.0 -2.0 5.0 0.05 5.0 2.15 3.55 3.6 2.1 5.05 0.0 5.05 -2.1 5.05 -3.55 3.6 -5.0 2.15 -5.0 0.05 -5.0 -2.0 -3.55 -3.5 -2.1 -4.95 0.0 -4.95 2.1 -4.95 3.55 -3.5" fill="url(#gradient0)" fill-rule="evenodd" stroke="none"/>
    <path d="M3.55 -3.5 Q5.0 -2.0 5.0 0.05 5.0 2.15 3.55 3.6 2.1 5.05 0.0 5.05 -2.1 5.05 -3.55 3.6 -5.0 2.15 -5.0 0.05 -5.0 -2.0 -3.55 -3.5 -2.1 -4.95 0.0 -4.95 2.1 -4.95 3.55 -3.5 Z" fill="none" stroke="#000000" stroke-linecap="round" stroke-linejoin="round" stroke-width="1.0"/>
  </g>
  <defs>
    <radialGradient cx="0" cy="0" gradientTransform="matrix(0.0123, 0.0, 0.0, 0.0123, -1.95, -2.55)" gradientUnits="userSpaceOnUse" id="gradient0" r="819.2" spreadMethod="pad">
      <stop offset="0.058823529411764705" stop-color="#faf5e3"/>
      <stop offset="0.2823529411764706" stop-color="#d7cdac"/>
      <stop offset="0.34509803921568627" stop-color="#d0c5a3"/>
      <stop offset="0.8588235294117647" stop-color="#563902"/>
    </radialGradient>
  </defs>
</svg>
