<?xml version="1.0" encoding="UTF-8" standalone="no"?>
<svg xmlns:xlink="http://www.w3.org/1999/xlink" height="20.0px" width="55.0px" xmlns="http://www.w3.org/2000/svg">
  <g transform="matrix(1.0, 0.0, 0.0, 1.0, 0.0, 0.0)">
    <path d="M55.0 2.0 L55.0 18.0 Q55.0 20.0 53.0 20.0 L2.0 20.0 Q0.0 20.0 0.0 18.0 L0.0 2.0 Q0.0 0.0 2.0 0.0 L53.0 0.0 Q55.0 0.0 55.0 2.0" fill="#ffcc00" fill-rule="evenodd" stroke="none"/>
    <path d="M55.0 2.0 Q55.0 0.0 53.0 0.0 L2.0 0.0 Q0.0 0.0 0.0 2.0 L0.0 18.0 Q0.0 20.0 2.0 20.0 L53.0 20.0 Q55.0 20.0 55.0 18.0 L55.0 2.0 Z" fill="none" stroke="#333333" stroke-linecap="round" stroke-linejoin="round" stroke-width="0.05"/>
  </g>
</svg>
