<?xml version="1.0" encoding="UTF-8" standalone="no"?>
<svg xmlns:xlink="http://www.w3.org/1999/xlink" height="411.0px" width="683.0px" xmlns="http://www.w3.org/2000/svg">
  <g transform="matrix(1.0, 0.0, 0.0, 1.0, 342.5, 195.5)">
    <path d="M-342.0 -50.0 L-342.0 -54.0 -342.0 -187.0 Q-342.0 -192.25 -338.65 -194.0 -336.8 -195.0 -334.0 -195.0 L332.0 -195.0 Q340.0 -195.0 340.0 -187.0 L340.0 -50.0 -342.0 -50.0 340.0 -50.0 340.0 34.0 -342.0 34.0 -342.0 -50.0 M340.0 35.0 L340.0 207.05 Q340.0 215.0 332.0 215.0 L38.0 215.0 38.0 35.0 340.0 35.0" fill="#ffffff" fill-opacity="0.7058824" fill-rule="evenodd" stroke="none"/>
    <path d="M38.0 35.0 L38.0 215.0 -334.0 215.0 Q-342.0 215.0 -342.0 207.05 L-342.0 35.0 38.0 35.0" fill="#ffffff" fill-opacity="0.49803922" fill-rule="evenodd" stroke="none"/>
    <path d="M340.0 -50.0 L340.0 -187.0 Q340.0 -195.0 332.0 -195.0 L-334.0 -195.0 Q-336.8 -195.0 -338.65 -194.0 -342.0 -192.25 -342.0 -187.0 L-342.0 -54.0 -342.0 -50.0 -342.0 34.0 M340.0 -50.0 L340.0 34.0 M38.0 215.0 L332.0 215.0 Q340.0 215.0 340.0 207.05 L340.0 35.0 M38.0 35.0 L38.0 215.0 -334.0 215.0 Q-342.0 215.0 -342.0 207.05 L-342.0 35.0" fill="none" stroke="#666666" stroke-linecap="round" stroke-linejoin="round" stroke-width="1.0"/>
    <path d="M-342.0 -50.0 L340.0 -50.0 M340.0 34.0 L-342.0 34.0" fill="none" stroke="#999999" stroke-linecap="round" stroke-linejoin="round" stroke-width="1.0"/>
  </g>
</svg>
