<?xml version="1.0" encoding="UTF-8" standalone="no"?>
<svg xmlns:xlink="http://www.w3.org/1999/xlink" height="140.0px" width="350.0px" xmlns="http://www.w3.org/2000/svg">
  <g transform="matrix(1.0, 0.0, 0.0, 1.0, -205.0, -165.0)">
    <path d="M552.7 165.0 Q555.0 165.0 555.0 167.0 L555.0 303.0 Q555.0 305.0 552.7 305.0 L207.25 305.0 Q205.0 305.0 205.0 303.0 L205.0 167.0 Q205.0 165.0 207.25 165.0 L552.7 165.0" fill="#ffffff" fill-opacity="0.9019608" fill-rule="evenodd" stroke="none"/>
    <path d="M552.7 165.0 L207.25 165.0 Q205.0 165.0 205.0 167.0 L205.0 303.0 Q205.0 305.0 207.25 305.0 L552.7 305.0 Q555.0 305.0 555.0 303.0 L555.0 167.0 Q555.0 165.0 552.7 165.0 Z" fill="none" stroke="#000000" stroke-linecap="round" stroke-linejoin="round" stroke-opacity="0.49803922" stroke-width="0.05"/>
  </g>
</svg>
