<?xml version="1.0" encoding="UTF-8" standalone="no"?>
<svg xmlns:xlink="http://www.w3.org/1999/xlink" height="171.0px" width="271.0px" xmlns="http://www.w3.org/2000/svg">
  <g transform="matrix(1.0, 0.0, 0.0, 1.0, 140.5, 90.5)">
    <path d="M124.0 -90.0 Q130.0 -90.0 130.0 -84.0 L130.0 74.0 Q130.0 80.0 124.0 80.0 L-134.0 80.0 Q-140.0 80.0 -140.0 74.0 L-140.0 -84.0 Q-140.0 -90.0 -134.0 -90.0 L124.0 -90.0" fill="#ffffff" fill-rule="evenodd" stroke="none"/>
    <path d="M124.0 -90.0 L-134.0 -90.0 Q-140.0 -90.0 -140.0 -84.0 L-140.0 74.0 Q-140.0 80.0 -134.0 80.0 L124.0 80.0 Q130.0 80.0 130.0 74.0 L130.0 -84.0 Q130.0 -90.0 124.0 -90.0 Z" fill="none" stroke="#999999" stroke-linecap="round" stroke-linejoin="round" stroke-width="1.0"/>
  </g>
</svg>
