<?xml version="1.0" encoding="UTF-8" standalone="no"?>
<svg xmlns:xlink="http://www.w3.org/1999/xlink" height="76.0px" width="247.0px" xmlns="http://www.w3.org/2000/svg">
  <g transform="matrix(1.0, 0.0, 0.0, 1.0, 96.0, 40.5)">
    <path d="M147.0 -40.5 Q151.0 -40.5 151.0 -36.5 L151.0 31.5 Q151.0 35.5 147.0 35.5 L-82.0 35.5 Q-86.0 35.5 -86.0 31.5 L-86.0 -11.5 -96.0 -28.5 -86.0 -27.5 -86.0 -36.5 Q-86.0 -40.5 -82.0 -40.5 L147.0 -40.5" fill="#ffffff" fill-rule="evenodd" stroke="none"/>
    <path d="M147.0 -40.5 L-82.0 -40.5 Q-86.0 -40.5 -86.0 -36.5 L-86.0 -27.5 -96.0 -28.5 -86.0 -11.5 -86.0 31.5 Q-86.0 35.5 -82.0 35.5 L147.0 35.5 Q151.0 35.5 151.0 31.5 L151.0 -36.5 Q151.0 -40.5 147.0 -40.5 Z" fill="none" stroke="#000000" stroke-linecap="round" stroke-linejoin="round" stroke-opacity="0.49803922" stroke-width="0.05"/>
  </g>
</svg>
