<?xml version="1.0" encoding="UTF-8" standalone="no"?>
<svg xmlns:xlink="http://www.w3.org/1999/xlink" height="15.5px" width="15.5px" xmlns="http://www.w3.org/2000/svg">
  <g transform="matrix(1.0, 0.0, 0.0, 1.0, 0.25, 0.25)">
    <path d="M2.3 0.0 L12.7 0.0 Q15.0 0.0 15.0 2.6 L15.0 12.45 Q15.0 15.0 12.7 15.0 L2.3 15.0 Q0.0 15.0 0.0 12.45 L0.0 2.6 Q0.0 0.0 2.3 0.0" fill="#006699" fill-opacity="0.0" fill-rule="evenodd" stroke="none"/>
    <path d="M15.0 7.5 Q15.0 10.6 12.8 12.8 10.6 15.0 7.5 15.0 4.4 15.0 2.2 12.8 0.0 10.6 0.0 7.5 0.0 4.45 2.2 2.25 4.4 0.0 7.5 0.0 10.6 0.0 12.8 2.25 15.0 4.45 15.0 7.5 M11.05 11.0 Q12.5 9.6 12.5 7.5 12.5 5.45 11.05 3.95 9.6 2.5 7.5 2.5 5.45 2.5 3.95 3.95 2.5 5.45 2.5 7.5 2.5 9.6 3.95 11.0 5.45 12.5 7.5 12.5 9.6 12.5 11.05 11.0" fill="url(#gradient0)" fill-rule="evenodd" stroke="none"/>
    <path d="M15.0 7.5 Q15.0 10.6 12.8 12.8 10.6 15.0 7.5 15.0 4.4 15.0 2.2 12.8 0.0 10.6 0.0 7.5 0.0 4.45 2.2 2.25 4.4 0.0 7.5 0.0 10.6 0.0 12.8 2.25 15.0 4.45 15.0 7.5 Z" fill="none" stroke="url(#gradient1)" stroke-linecap="round" stroke-linejoin="round" stroke-width="0.5"/>
    <path d="M12.45 6.3 Q12.95 6.3 13.2 6.65 L13.65 7.6 13.3 8.45 12.4 8.75 2.8 8.75 Q2.4 8.75 1.95 8.4 1.6 8.05 1.65 7.5 1.65 7.0 2.0 6.65 2.35 6.3 2.85 6.3 L12.45 6.3" fill="url(#gradient2)" fill-rule="evenodd" stroke="none"/>
  </g>
  <defs>
    <radialGradient cx="0" cy="0" gradientTransform="matrix(0.0195, 0.0, 0.0, 0.0116, 7.4, 8.75)" gradientUnits="userSpaceOnUse" id="gradient0" r="819.2" spreadMethod="pad">
      <stop offset="0.30196078431372547" stop-color="#306d2f"/>
      <stop offset="0.6823529411764706" stop-color="#60bb54"/>
      <stop offset="0.8941176470588236" stop-color="#deffdb"/>
    </radialGradient>
    <linearGradient gradientTransform="matrix(0.0095, 0.0, 0.0, 0.0095, 7.5, 7.5)" gradientUnits="userSpaceOnUse" id="gradient1" spreadMethod="pad" x1="-819.2" x2="819.2">
      <stop offset="0.30196078431372547" stop-color="#32984b"/>
      <stop offset="0.8666666666666667" stop-color="#d3fcd2"/>
      <stop offset="0.9725490196078431" stop-color="#eeffee"/>
    </linearGradient>
    <radialGradient cx="0" cy="0" gradientTransform="matrix(0.0, 0.0, 0.0, 0.0, 0.0, 0.0)" gradientUnits="userSpaceOnUse" id="gradient2" r="819.2" spreadMethod="pad">
      <stop offset="0.30196078431372547" stop-color="#306d2f"/>
      <stop offset="0.6823529411764706" stop-color="#60bb54"/>
      <stop offset="0.8941176470588236" stop-color="#deffdb"/>
    </radialGradient>
  </defs>
</svg>
