<?xml version="1.0" encoding="UTF-8" standalone="no"?>
<svg xmlns:xlink="http://www.w3.org/1999/xlink" height="37.0px" width="61.0px" xmlns="http://www.w3.org/2000/svg">
  <g transform="matrix(1.0, 0.0, 0.0, 1.0, 30.5, 36.5)">
    <path d="M-30.0 -3.85 L-30.0 -8.9 -30.0 -27.9 -30.0 -32.15 Q-29.95 -36.0 -26.0 -36.0 L-15.3 -36.0 15.3 -36.0 26.0 -36.0 Q29.95 -36.0 30.0 -32.15 L30.0 -27.9 30.0 -8.9 30.0 -3.85 Q29.95 0.0 26.0 0.0 L15.3 0.0 -15.3 0.0 -26.0 0.0 Q-29.95 0.0 -30.0 -3.85" fill="#cccccc" fill-rule="evenodd" stroke="none"/>
    <path d="M-30.0 -3.85 Q-29.95 0.0 -26.0 0.0 L-15.3 0.0 15.3 0.0 26.0 0.0 Q29.95 0.0 30.0 -3.85 L30.0 -8.9 30.0 -27.9 30.0 -32.15 Q29.95 -36.0 26.0 -36.0 L15.3 -36.0 -15.3 -36.0 -26.0 -36.0 Q-29.95 -36.0 -30.0 -32.15 L-30.0 -27.9 -30.0 -8.9 -30.0 -3.85 Z" fill="none" stroke="#333333" stroke-linecap="round" stroke-linejoin="round" stroke-width="1.0"/>
  </g>
</svg>
