<?xml version="1.0" encoding="UTF-8" standalone="no"?>
<svg xmlns:xlink="http://www.w3.org/1999/xlink" height="83.05px" width="78.65px" xmlns="http://www.w3.org/2000/svg">
  <g transform="matrix(1.0, 0.0, 0.0, 1.0, 35.9, 78.3)">
    <path d="M21.1 -56.4 Q29.25 -50.25 29.25 -48.8 29.25 -40.35 27.55 -37.3 26.0 -34.4 15.75 -24.0 L15.75 -19.85 Q23.3 -19.15 33.05 -13.8 42.75 -8.5 42.75 -5.15 42.75 -1.6 41.15 0.05 39.15 2.1 32.0 4.75 L5.0 4.75 0.15 4.4 -4.75 4.0 -32.0 3.75 Q-34.8 2.5 -35.5 -0.25 L-35.75 -4.15 -35.9 -7.1 Q-35.8 -8.2 -34.55 -8.8 -33.2 -9.45 -24.65 -11.05 L-22.0 -13.35 -19.3 -15.25 -18.0 -18.4 Q-16.25 -22.8 -16.25 -24.0 L-19.5 -31.2 Q-22.75 -38.85 -22.75 -42.9 -22.75 -47.2 -19.45 -50.25 L-18.25 -51.25 -18.25 -51.35 Q-18.25 -53.6 -7.5 -61.65 -6.25 -62.4 -4.85 -64.0 L-4.4 -66.75 -4.4 -73.0 Q-6.75 -76.2 -6.75 -76.85 -6.75 -77.65 -6.3 -78.0 L-5.5 -78.3 14.5 -78.3 15.5 -77.55 15.75 -76.35 Q15.75 -75.6 13.65 -69.8 L11.25 -63.0 11.1 -63.0 Q13.2 -62.4 21.1 -56.4" fill="#000000" fill-opacity="0.003921569" fill-rule="evenodd" stroke="none"/>
  </g>
</svg>
