<?xml version="1.0" encoding="UTF-8" standalone="no"?>
<svg xmlns:xlink="http://www.w3.org/1999/xlink" height="11.0px" width="11.0px" xmlns="http://www.w3.org/2000/svg">
  <g transform="matrix(1.0, 0.0, 0.0, 1.0, 0.5, 0.5)">
    <path d="M8.55 1.45 Q10.0 2.95 10.0 5.0 10.0 7.05 8.55 8.55 7.05 10.0 5.0 10.0 2.95 10.0 1.45 8.55 0.0 7.05 0.0 5.0 0.0 2.95 1.45 1.45 2.95 0.0 5.0 0.0 7.05 0.0 8.55 1.45" fill="#cccccc" fill-rule="evenodd" stroke="none"/>
    <path d="M8.55 1.45 Q10.0 2.95 10.0 5.0 10.0 7.05 8.55 8.55 7.05 10.0 5.0 10.0 2.95 10.0 1.45 8.55 0.0 7.05 0.0 5.0 0.0 2.95 1.45 1.45 2.95 0.0 5.0 0.0 7.05 0.0 8.55 1.45 Z" fill="none" stroke="#cccccc" stroke-linecap="round" stroke-linejoin="round" stroke-width="1.0"/>
  </g>
</svg>
