<?xml version="1.0" encoding="UTF-8" standalone="no"?>
<svg xmlns:xlink="http://www.w3.org/1999/xlink" height="22.0px" width="360.0px" xmlns="http://www.w3.org/2000/svg">
  <g transform="matrix(1.0, 0.0, 0.0, 1.0, 0.0, 0.0)">
    <path d="M359.5 14.1 Q358.15 20.65 351.0 21.0 L351.0 22.0 220.5 22.0 212.0 22.0 188.0 22.0 162.0 22.0 9.0 22.0 8.9 21.45 Q2.3 19.7 0.0 14.0 L0.0 13.0 0.0 9.0 Q1.95 2.45 8.85 0.55 L9.0 0.0 162.0 0.0 188.0 0.0 212.0 0.0 220.5 0.0 352.0 0.0 Q357.6 2.4 359.45 8.85 L360.0 9.0 360.0 13.0 360.0 14.0 359.5 14.1" fill="#000000" fill-opacity="0.99607843" fill-rule="evenodd" stroke="none"/>
  </g>
</svg>
