<?xml version="1.0" encoding="UTF-8" standalone="no"?>
<svg xmlns:xlink="http://www.w3.org/1999/xlink" height="55.0px" width="250.0px" xmlns="http://www.w3.org/2000/svg">
  <g transform="matrix(1.0, 0.0, 0.0, 1.0, 76.0, 15.0)">
    <path d="M170.0 -15.0 Q174.0 -15.0 174.0 -10.4 L174.0 35.45 Q174.0 40.0 170.0 40.0 L-60.0 40.0 Q-64.0 40.0 -64.0 35.45 L-64.0 14.8 -76.0 7.95 -64.0 -3.55 -64.0 -10.4 Q-64.0 -15.0 -60.0 -15.0 L170.0 -15.0" fill="#ffffff" fill-opacity="0.9019608" fill-rule="evenodd" stroke="none"/>
    <path d="M170.0 -15.0 L-60.0 -15.0 Q-64.0 -15.0 -64.0 -10.4 L-64.0 -3.55 -76.0 7.95 -64.0 14.8 -64.0 35.45 Q-64.0 40.0 -60.0 40.0 L170.0 40.0 Q174.0 40.0 174.0 35.45 L174.0 -10.4 Q174.0 -15.0 170.0 -15.0 Z" fill="none" stroke="#000000" stroke-linecap="round" stroke-linejoin="round" stroke-opacity="0.49803922" stroke-width="0.05"/>
  </g>
</svg>
