<?xml version="1.0" encoding="UTF-8" standalone="no"?>
<svg xmlns:xlink="http://www.w3.org/1999/xlink" height="24.6px" width="25.5px" xmlns="http://www.w3.org/2000/svg">
  <g transform="matrix(1.0, 0.0, 0.0, 1.0, 0.0, 1.85)">
    <path d="M11.15 18.4 L15.3 18.4 13.85 15.95 11.15 15.95 11.15 18.4 Z" fill="none" stroke="#000000" stroke-linecap="butt" stroke-linejoin="miter-clip" stroke-miterlimit="10.0" stroke-width="1.0"/>
    <path d="M13.5 9.2 L17.4 15.95 25.0 15.95 25.0 9.2 13.5 9.2 Z" fill="none" stroke="#000000" stroke-linecap="butt" stroke-linejoin="miter-clip" stroke-miterlimit="10.0" stroke-width="1.0"/>
    <path d="M3.65 9.2 L3.65 15.95 8.2 15.95 8.2 9.2 3.65 9.2 Z" fill="none" stroke="#000000" stroke-linecap="butt" stroke-linejoin="miter-clip" stroke-miterlimit="10.0" stroke-width="1.0"/>
    <path d="M11.15 15.95 L13.85 15.95 11.15 11.25 11.15 15.95 Z" fill="none" stroke="#000000" stroke-linecap="butt" stroke-linejoin="miter-clip" stroke-miterlimit="10.0" stroke-width="1.0"/>
    <path d="M11.15 11.25 L15.3 18.4 11.15 18.4 11.15 11.25 M21.0 22.2 L8.2 0.0 8.2 22.2 21.0 22.2 Z" fill="none" stroke="#000000" stroke-linecap="butt" stroke-linejoin="miter-clip" stroke-miterlimit="10.0" stroke-width="1.0"/>
    <path d="M23.35 12.6 L23.15 13.0 Q23.0 13.2 22.75 13.2 22.15 13.2 22.15 12.6 22.15 12.0 22.75 12.0 23.35 12.0 23.35 12.6" fill="#000000" fill-rule="evenodd" stroke="none"/>
    <path d="M2.75 4.9 Q2.95 3.8 4.7 2.4 L4.7 22.75 Q2.9 21.35 2.75 20.3 L2.3 18.25 Q1.75 16.6 1.05 15.9 L0.2 14.7 0.0 12.6 0.2 10.5 Q0.4 9.95 1.05 9.3 1.75 8.6 2.3 6.95 L2.75 4.9" fill="#000000" fill-rule="evenodd" stroke="none"/>
  </g>
</svg>
