<?xml version="1.0" encoding="UTF-8" standalone="no"?>
<svg xmlns:xlink="http://www.w3.org/1999/xlink" height="22.45px" width="22.0px" xmlns="http://www.w3.org/2000/svg">
  <g transform="matrix(1.0, 0.0, 0.0, 1.0, 0.0, 0.0)">
    <path d="M6.15 19.4 Q6.15 20.65 5.25 21.55 4.35 22.45 3.05 22.45 1.8 22.45 0.9 21.55 0.0 20.7 0.0 19.4 0.0 18.1 0.9 17.2 1.8 16.3 3.05 16.3 4.35 16.3 5.25 17.2 6.15 18.15 6.15 19.4" fill="#000000" fill-rule="evenodd" stroke="none"/>
    <path d="M22.0 19.4 Q22.0 20.65 21.1 21.55 20.2 22.45 18.9 22.45 17.65 22.45 16.75 21.55 15.85 20.7 15.85 19.4 15.85 18.1 16.75 17.2 17.65 16.3 18.9 16.3 20.2 16.3 21.1 17.2 22.0 18.15 22.0 19.4" fill="#000000" fill-rule="evenodd" stroke="none"/>
    <path d="M19.0 20.4 L3.5 20.4 3.5 18.35 19.0 18.35 19.0 20.4" fill="#000000" fill-rule="evenodd" stroke="none"/>
    <path d="M10.25 19.75 L5.9 4.8 7.9 4.25 12.2 19.15 10.25 19.75" fill="#000000" fill-rule="evenodd" stroke="none"/>
    <path d="M2.65 18.6 L9.55 11.7 11.0 13.15 4.1 20.05 2.65 18.6" fill="#000000" fill-rule="evenodd" stroke="none"/>
    <path d="M19.35 18.6 L17.9 20.05 11.0 13.15 12.45 11.7 19.35 18.6" fill="#000000" fill-rule="evenodd" stroke="none"/>
    <path d="M11.0 10.25 L12.45 11.7 11.0 13.15 9.55 11.7 11.0 10.25" fill="#000000" fill-rule="evenodd" stroke="none"/>
    <path d="M8.2 1.0 L8.45 1.0 10.25 7.2 Q9.3 7.85 8.2 7.85 6.8 7.85 5.8 6.85 4.8 5.9 4.8 4.45 4.8 3.0 5.8 2.0 6.8 1.0 8.2 1.0" fill="#000000" fill-rule="evenodd" stroke="none"/>
    <path d="M18.4 1.8 Q18.4 2.5 17.9 3.05 17.35 3.55 16.6 3.55 15.9 3.55 15.35 3.05 14.85 2.5 14.85 1.8 14.85 1.05 15.35 0.55 15.9 0.0 16.6 0.0 17.35 0.0 17.9 0.55 18.4 1.05 18.4 1.8" fill="#000000" fill-rule="evenodd" stroke="none"/>
    <path d="M11.4 4.85 L16.9 3.25" fill="none" stroke="#000000" stroke-linecap="butt" stroke-linejoin="miter-clip" stroke-miterlimit="10.0" stroke-width="0.5"/>
    <path d="M10.5 2.0 L16.0 0.4" fill="none" stroke="#000000" stroke-linecap="butt" stroke-linejoin="miter-clip" stroke-miterlimit="10.0" stroke-width="0.5"/>
  </g>
</svg>
