<?xml version="1.0" encoding="UTF-8" standalone="no"?>
<svg xmlns:xlink="http://www.w3.org/1999/xlink" height="22.1px" width="19.8px" xmlns="http://www.w3.org/2000/svg">
  <g transform="matrix(1.0, 0.0, 0.0, 1.0, 0.0, 0.0)">
    <path d="M6.15 11.65 L7.05 11.25 7.55 12.0 6.75 12.65 6.15 11.65" fill="#000000" fill-rule="evenodd" stroke="none"/>
    <path d="M10.8 7.0 L9.9 6.9 9.9 5.9 10.55 5.95 11.05 6.05 10.8 7.0" fill="#000000" fill-rule="evenodd" stroke="none"/>
    <path d="M5.85 9.35 L6.85 9.5 6.8 10.0 6.85 10.4 5.85 10.55 5.8 10.0 5.85 9.35" fill="#000000" fill-rule="evenodd" stroke="none"/>
    <path d="M6.2 8.25 L6.8 7.3 7.55 7.95 7.1 8.7 6.2 8.25" fill="#000000" fill-rule="evenodd" stroke="none"/>
    <path d="M7.7 6.55 L8.75 6.05 9.05 7.0 8.25 7.35 7.7 6.55" fill="#000000" fill-rule="evenodd" stroke="none"/>
    <path d="M12.15 6.55 L13.0 7.3 12.25 7.95 11.6 7.4 12.15 6.55" fill="#000000" fill-rule="evenodd" stroke="none"/>
    <path d="M13.65 8.3 L13.95 9.4 12.95 9.55 12.7 8.7 13.65 8.3" fill="#000000" fill-rule="evenodd" stroke="none"/>
    <path d="M13.95 10.6 L13.6 11.75 12.7 11.3 12.95 10.45 13.95 10.6" fill="#000000" fill-rule="evenodd" stroke="none"/>
    <path d="M16.6 11.05 L15.95 13.05 15.05 12.6 15.6 10.9 16.6 11.0 16.6 11.05" fill="#000000" fill-rule="evenodd" stroke="none"/>
    <path d="M12.45 4.8 L12.9 3.95 14.65 5.15 13.95 5.85 Q13.3 5.25 12.45 4.8" fill="#000000" fill-rule="evenodd" stroke="none"/>
    <path d="M5.1 5.25 L6.8 4.0 7.25 4.85 Q6.35 5.35 5.8 5.95 L5.1 5.25" fill="#000000" fill-rule="evenodd" stroke="none"/>
    <path d="M10.9 3.3 L10.75 4.3 Q9.85 4.15 8.95 4.3 L8.8 3.3 Q9.85 3.15 10.9 3.3" fill="#000000" fill-rule="evenodd" stroke="none"/>
    <path d="M15.9 6.85 L16.6 8.85 15.6 9.05 15.0 7.3 15.9 6.85" fill="#000000" fill-rule="evenodd" stroke="none"/>
    <path d="M4.75 12.65 L3.9 13.1 3.2 11.1 4.2 10.9 4.75 12.65" fill="#000000" fill-rule="evenodd" stroke="none"/>
    <path d="M4.2 9.1 L3.2 8.95 Q3.35 7.95 3.85 6.95 L4.75 7.4 Q4.35 8.1 4.2 9.1" fill="#000000" fill-rule="evenodd" stroke="none"/>
    <path d="M14.0 14.05 L14.7 14.75 13.0 16.0 12.55 15.15 14.0 14.05" fill="#000000" fill-rule="evenodd" stroke="none"/>
    <path d="M5.15 14.8 L5.85 14.1 Q6.4 14.65 7.3 15.15 L6.85 16.05 5.15 14.8" fill="#000000" fill-rule="evenodd" stroke="none"/>
    <path d="M8.3 0.1 Q9.9 -0.1 11.45 0.1 L11.3 1.1 Q9.9 0.9 8.45 1.1 L8.3 0.1" fill="#000000" fill-rule="evenodd" stroke="none"/>
    <path d="M14.0 18.0 Q15.15 17.45 16.25 16.35 L16.95 17.05 14.45 18.9 14.0 18.0" fill="#000000" fill-rule="evenodd" stroke="none"/>
    <path d="M19.75 8.4 L18.8 8.55 Q18.55 7.1 17.9 5.9 L18.8 5.4 Q19.5 6.75 19.75 8.4" fill="#000000" fill-rule="evenodd" stroke="none"/>
    <path d="M16.95 2.9 L16.25 3.6 13.95 1.95 14.4 1.05 16.95 2.9" fill="#000000" fill-rule="evenodd" stroke="none"/>
    <path d="M17.9 14.1 Q18.6 12.85 18.8 11.4 L19.8 11.55 18.8 14.55 17.9 14.1" fill="#000000" fill-rule="evenodd" stroke="none"/>
    <path d="M1.85 5.9 Q1.2 7.25 1.0 8.6 L0.0 8.45 Q0.35 6.75 1.0 5.45 L1.85 5.9" fill="#000000" fill-rule="evenodd" stroke="none"/>
    <path d="M2.85 17.05 L3.55 16.35 Q4.45 17.35 5.8 18.0 L5.35 18.9 Q4.05 18.25 2.85 17.05" fill="#000000" fill-rule="evenodd" stroke="none"/>
    <path d="M0.0 11.55 L1.0 11.4 Q1.25 12.85 1.9 14.1 L1.0 14.55 Q0.35 13.3 0.0 11.55" fill="#000000" fill-rule="evenodd" stroke="none"/>
    <path d="M5.8 2.0 Q4.55 2.6 3.5 3.65 L2.8 2.95 Q4.0 1.75 5.35 1.1 L5.8 2.0" fill="#000000" fill-rule="evenodd" stroke="none"/>
    <path d="M9.9 18.0 L8.55 19.35 9.9 20.65 11.25 19.35 9.9 18.0 M11.25 16.65 L10.6 17.25 11.45 18.1 11.25 16.65 M10.75 15.75 L9.9 14.9 9.05 15.75 9.9 16.55 10.75 15.75 M9.2 17.25 L8.55 16.65 8.35 18.1 9.2 17.25 M9.9 12.6 L9.45 13.05 9.9 13.5 10.35 13.05 9.9 12.6 M8.95 13.95 L8.9 14.5 9.2 14.2 8.95 13.95 M10.9 14.5 L10.85 13.95 10.6 14.2 10.9 14.5 M8.65 8.3 Q9.35 7.8 10.25 7.9 11.1 8.05 11.6 8.75 12.1 9.5 11.95 10.3 11.9 10.9 11.45 11.4 L11.65 12.55 12.2 12.05 12.95 12.7 12.05 13.45 11.7 12.85 13.05 22.1 12.05 22.1 11.75 20.25 10.6 21.4 11.35 22.1 8.45 22.1 9.2 21.4 8.05 20.25 7.75 22.1 6.75 22.1 8.0 13.6 7.65 13.4 8.15 12.65 8.35 11.35 8.2 11.2 Q7.7 10.55 7.85 9.65 7.95 8.8 8.65 8.3" fill="#000000" fill-rule="evenodd" stroke="none"/>
  </g>
</svg>
