<?xml version="1.0" encoding="UTF-8" standalone="no"?>
<svg xmlns:xlink="http://www.w3.org/1999/xlink" height="48.0px" width="48.0px" xmlns="http://www.w3.org/2000/svg">
  <g transform="matrix(1.0, 0.0, 0.0, 1.0, 0.0, -0.1)">
    <path d="M17.15 30.95 L17.15 17.2 30.85 17.2 30.85 30.95 17.15 30.95 M25.25 24.4 Q26.8 23.7 26.8 21.95 26.8 20.9 25.95 20.05 25.15 19.3 24.0 19.3 22.85 19.3 22.1 20.05 21.25 20.9 21.25 21.95 21.25 23.7 22.75 24.4 L21.25 28.85 26.75 28.85 25.25 24.4" fill="#000000" fill-rule="evenodd" stroke="none"/>
    <path d="M2.95 0.1 L2.95 48.1 0.0 48.1 0.0 0.1 2.95 0.1" fill="#000000" fill-rule="evenodd" stroke="none"/>
    <path d="M48.0 0.1 L48.0 48.1 45.05 48.1 45.05 0.1 48.0 0.1" fill="#000000" fill-rule="evenodd" stroke="none"/>
    <path d="M41.6 0.1 L41.6 48.1 38.65 48.1 38.65 0.1 41.6 0.1" fill="#000000" fill-rule="evenodd" stroke="none"/>
    <path d="M35.15 0.1 L35.15 48.1 32.25 48.1 32.25 0.1 35.15 0.1" fill="#000000" fill-rule="evenodd" stroke="none"/>
    <path d="M9.4 0.1 L9.4 48.1 6.45 48.1 6.45 0.1 9.4 0.1" fill="#000000" fill-rule="evenodd" stroke="none"/>
    <path d="M15.8 0.1 L15.8 48.1 12.9 48.1 12.9 0.1 15.8 0.1" fill="#000000" fill-rule="evenodd" stroke="none"/>
    <path d="M22.3 18.15 L19.35 18.15 19.35 0.1 22.3 0.1 22.3 18.15" fill="#000000" fill-rule="evenodd" stroke="none"/>
    <path d="M28.7 18.15 L25.75 18.15 25.75 0.1 28.7 0.1 28.7 18.15" fill="#000000" fill-rule="evenodd" stroke="none"/>
    <path d="M22.3 29.95 L22.3 48.1 19.35 48.1 19.35 29.95 22.3 29.95" fill="#000000" fill-rule="evenodd" stroke="none"/>
    <path d="M28.7 29.95 L28.7 48.1 25.75 48.1 25.75 29.95 28.7 29.95" fill="#000000" fill-rule="evenodd" stroke="none"/>
  </g>
</svg>
