<?xml version="1.0" encoding="UTF-8" standalone="no"?>
<svg xmlns:xlink="http://www.w3.org/1999/xlink" height="26.2px" width="26.15px" xmlns="http://www.w3.org/2000/svg">
  <g transform="matrix(1.0, 0.0, 0.0, 1.0, 1.6, 2.0)">
    <path d="M22.8 2.95 Q22.0 2.45 18.45 1.55 L13.85 0.4 Q12.65 -0.1 11.65 0.0 10.75 0.05 9.55 0.6 L7.55 2.05 5.7 3.3 2.95 4.75 Q1.25 5.75 0.8 6.1 0.5 6.35 0.35 7.45 L0.05 8.8 0.25 11.35 0.4 14.8 Q0.25 16.4 0.45 18.2 0.7 20.45 1.4 20.7 L3.5 21.6 6.15 22.45 8.75 22.6 10.65 22.9 Q11.5 23.4 14.4 23.65 15.1 23.8 15.95 23.3 L17.3 22.4 Q20.3 20.6 20.8 19.6 21.0 19.2 22.35 18.2 L23.7 16.8 23.6 13.55 Q23.4 10.6 23.7 9.6 24.15 8.0 24.0 5.9 23.75 3.6 22.8 2.95 Z" fill="none" stroke="#000000" stroke-linecap="butt" stroke-linejoin="miter-clip" stroke-miterlimit="10.0" stroke-width="1.0"/>
    <path d="M7.85 8.85 L9.2 9.0 10.05 8.9 Q10.2 8.6 10.9 8.55 11.6 8.55 11.8 8.9 12.0 9.3 13.0 9.6 L14.35 9.7 15.0 9.05 Q15.45 8.6 16.0 8.45 17.0 8.15 17.9 7.15 18.2 6.75 19.0 6.5 19.8 6.25 19.1 6.8 L17.9 7.9 Q17.3 8.45 16.7 8.6 15.95 8.85 15.4 9.3 14.85 9.8 14.85 10.2 L15.1 16.2 15.3 17.1 Q15.55 17.8 15.45 18.45 15.2 19.8 15.8 22.15 15.9 22.85 16.8 22.75 L15.65 23.45 14.4 23.65 13.3 23.5 Q14.95 22.9 15.0 21.75 L15.05 20.1 Q15.0 19.15 14.45 18.75 13.85 18.3 13.75 17.75 13.7 17.25 14.1 16.9 14.55 16.55 14.7 14.65 14.8 12.7 14.35 11.8 13.15 9.5 11.55 9.8 L10.4 9.7 9.5 9.5 Q7.85 9.75 7.1 9.15 6.0 8.2 4.85 8.35 4.15 8.4 3.25 7.8 2.35 7.2 2.8 7.05 L3.45 7.55 Q4.2 8.05 4.9 7.95 L6.55 8.35 7.85 8.85" fill="#000000" fill-rule="evenodd" stroke="none"/>
    <path d="M21.95 4.65 Q22.55 4.65 21.7 5.35 20.85 6.1 20.75 5.75 20.65 5.4 21.0 5.05 21.4 4.65 21.95 4.65" fill="#000000" fill-rule="evenodd" stroke="none"/>
    <path d="M12.9 3.95 L13.65 3.25 14.8 2.55 Q15.35 2.5 15.95 3.2 16.6 4.0 16.4 5.0 16.2 5.95 15.85 6.1 15.2 6.3 15.8 5.8 16.1 5.6 15.75 4.8 L14.95 3.65 Q14.6 3.35 13.7 3.65 L12.9 3.95" fill="#000000" fill-rule="evenodd" stroke="none"/>
    <path d="M4.35 11.25 Q4.35 13.8 3.2 14.3 2.5 14.6 2.2 13.75 L2.1 12.9 Q2.5 13.7 3.2 13.35 3.95 13.0 4.35 11.25" fill="#000000" fill-rule="evenodd" stroke="none"/>
    <path d="M21.95 11.15 L21.55 13.05 21.05 14.35 Q20.85 15.1 21.25 15.1 21.7 15.1 21.9 16.1 22.1 17.1 21.85 16.95 L21.55 16.6 20.65 16.05 Q19.8 15.75 19.6 15.1 19.35 14.35 20.05 13.8 L21.3 12.2 21.95 11.15" fill="#000000" fill-rule="evenodd" stroke="none"/>
  </g>
</svg>
