<?xml version="1.0" encoding="UTF-8" standalone="no"?>
<svg xmlns:xlink="http://www.w3.org/1999/xlink" height="22.9px" width="22.9px" xmlns="http://www.w3.org/2000/svg">
  <g transform="matrix(1.0, 0.0, 0.0, 1.0, -1.9, -1.6)">
    <path d="M24.8 24.5 L1.9 24.5 1.9 1.6 24.8 1.6 24.8 24.5" fill="#ff00ff" fill-opacity="0.0" fill-rule="evenodd" stroke="none"/>
    <path d="M20.4 5.2 L19.7 4.9 Q19.4 4.6 19.4 4.2 L19.1 4.9 18.4 5.2 16.4 5.2 Q16.0 5.2 15.7 4.9 15.4 4.6 15.4 4.2 L15.1 4.9 Q14.8 5.2 14.4 5.2 L12.4 5.2 11.7 4.9 Q11.4 4.6 11.4 4.2 L11.1 4.9 10.4 5.2 8.4 5.2 7.7 4.9 Q7.4 4.6 7.4 4.2 L7.1 4.9 6.4 5.2 5.35 5.2 5.35 6.2 5.05 6.9 Q4.75 7.2 4.35 7.2 4.75 7.2 5.05 7.5 L5.35 8.2 5.35 10.2 5.05 10.9 Q4.75 11.2 4.35 11.2 4.75 11.2 5.05 11.5 L5.35 12.2 5.35 14.2 5.05 14.9 Q4.75 15.2 4.35 15.2 4.75 15.2 5.05 15.5 L5.35 16.2 5.35 18.2 5.05 18.9 Q4.75 19.2 4.35 19.2 4.75 19.2 5.05 19.5 L5.35 20.2 5.35 21.25 6.35 21.25 Q6.75 21.25 7.05 21.55 L7.35 22.25 Q7.35 21.85 7.65 21.55 7.95 21.25 8.35 21.25 L10.35 21.25 Q10.75 21.25 11.05 21.55 L11.35 22.25 Q11.35 21.85 11.65 21.55 11.95 21.25 12.35 21.25 L14.35 21.25 Q14.75 21.25 15.05 21.55 L15.35 22.25 Q15.35 21.85 15.65 21.55 15.95 21.25 16.35 21.25 L18.35 21.25 Q18.75 21.25 19.05 21.55 L19.35 22.25 Q19.35 21.85 19.65 21.55 19.95 21.25 20.35 21.25 L21.4 21.25 21.4 20.25 Q21.4 19.85 21.7 19.55 22.0 19.25 22.4 19.25 22.0 19.25 21.7 18.95 21.4 18.65 21.4 18.25 L21.4 16.25 Q21.4 15.85 21.7 15.55 22.0 15.25 22.4 15.25 22.0 15.25 21.7 14.95 21.4 14.65 21.4 14.25 L21.4 12.25 Q21.4 11.85 21.7 11.55 22.0 11.25 22.4 11.25 22.0 11.25 21.7 10.95 21.4 10.65 21.4 10.25 L21.4 8.25 Q21.4 7.85 21.7 7.55 22.0 7.25 22.4 7.25 22.0 7.25 21.7 6.95 21.4 6.65 21.4 6.25 L21.4 5.2 20.4 5.2 M22.4 3.2 Q22.8 3.2 23.1 3.5 L23.4 4.2 23.4 6.25 23.1 6.95 22.4 7.25 Q22.8 7.25 23.1 7.55 L23.4 8.25 23.4 10.25 23.1 10.95 22.4 11.25 Q22.8 11.25 23.1 11.55 L23.4 12.25 23.4 14.25 23.1 14.95 22.4 15.25 Q22.8 15.25 23.1 15.55 L23.4 16.25 23.4 18.25 23.1 18.95 22.4 19.25 Q22.8 19.25 23.1 19.55 L23.4 20.25 23.4 22.25 23.1 22.95 22.4 23.25 20.35 23.25 19.65 22.95 Q19.35 22.65 19.35 22.25 L19.05 22.95 18.35 23.25 16.35 23.25 15.65 22.95 Q15.35 22.65 15.35 22.25 L15.05 22.95 14.35 23.25 12.35 23.25 Q11.95 23.25 11.65 22.95 11.35 22.65 11.35 22.25 L11.05 22.95 10.35 23.25 8.35 23.25 Q7.95 23.25 7.65 22.95 7.35 22.65 7.35 22.25 L7.05 22.95 6.35 23.25 4.35 23.25 3.65 22.95 Q3.35 22.65 3.35 22.25 L3.35 20.2 Q3.35 19.8 3.65 19.5 3.95 19.2 4.35 19.2 L3.65 18.9 Q3.35 18.6 3.35 18.2 L3.35 16.2 Q3.35 15.8 3.65 15.5 3.95 15.2 4.35 15.2 L3.65 14.9 Q3.35 14.6 3.35 14.2 L3.35 12.2 Q3.35 11.8 3.65 11.5 3.95 11.2 4.35 11.2 L3.65 10.9 Q3.35 10.6 3.35 10.2 L3.35 8.2 Q3.35 7.8 3.65 7.5 3.95 7.2 4.35 7.2 L3.65 6.9 Q3.35 6.6 3.35 6.2 L3.35 4.2 Q3.35 3.8 3.65 3.5 3.95 3.2 4.35 3.2 L6.4 3.2 Q6.8 3.2 7.1 3.5 L7.4 4.2 Q7.4 3.8 7.7 3.5 8.0 3.2 8.4 3.2 L10.4 3.2 Q10.8 3.2 11.1 3.5 L11.4 4.2 Q11.4 3.8 11.7 3.5 12.0 3.2 12.4 3.2 L14.4 3.2 Q14.8 3.2 15.1 3.5 L15.4 4.2 Q15.4 3.8 15.7 3.5 16.0 3.2 16.4 3.2 L18.4 3.2 Q18.8 3.2 19.1 3.5 L19.4 4.2 Q19.4 3.8 19.7 3.5 20.0 3.2 20.4 3.2 L22.4 3.2 M20.05 7.65 L20.05 19.15 19.75 19.85 Q19.45 20.15 19.05 20.15 L7.55 20.15 Q7.15 20.15 6.85 19.85 6.55 19.55 6.55 19.15 L6.55 7.65 Q6.55 7.25 6.85 6.95 7.15 6.65 7.55 6.65 L19.05 6.65 Q19.45 6.65 19.75 6.95 L20.05 7.65 M16.55 16.65 L16.55 10.15 10.05 10.15 10.05 16.65 16.55 16.65" fill="#000000" fill-rule="evenodd" stroke="none"/>
  </g>
</svg>
