<?xml version="1.0" encoding="UTF-8" standalone="no"?>
<svg xmlns:xlink="http://www.w3.org/1999/xlink" height="25.0px" width="161.0px" xmlns="http://www.w3.org/2000/svg">
  <g transform="matrix(1.0, 0.0, 0.0, 1.0, 80.5, 0.5)">
    <path d="M80.0 14.4 L80.0 15.1 Q79.75 18.6 77.05 21.15 74.3 23.8 70.6 24.0 L69.95 24.0 -69.95 24.0 -70.55 24.0 Q-74.3 23.8 -77.1 21.15 -79.75 18.65 -79.95 15.1 L-80.0 14.4 -80.0 9.6 Q-80.0 5.6 -77.1 2.8 -74.3 0.2 -70.55 0.05 L-69.95 0.0 69.95 0.0 70.6 0.05 Q74.3 0.2 77.05 2.8 80.0 5.6 80.0 9.6 L80.0 14.4" fill="#000000" fill-rule="evenodd" stroke="none"/>
    <path d="M80.0 14.4 L80.0 9.6 Q80.0 5.6 77.05 2.8 74.3 0.2 70.6 0.05 L69.95 0.0 -69.95 0.0 -70.55 0.05 Q-74.3 0.2 -77.1 2.8 -80.0 5.6 -80.0 9.6 L-80.0 14.4 -79.95 15.1 Q-79.75 18.65 -77.1 21.15 -74.3 23.8 -70.55 24.0 L-69.95 24.0 69.95 24.0 70.6 24.0 Q74.3 23.8 77.05 21.15 79.75 18.6 80.0 15.1 L80.0 14.4 Z" fill="none" stroke="#f8f0e4" stroke-linecap="round" stroke-linejoin="round" stroke-width="1.0"/>
  </g>
</svg>
