<?xml version="1.0" encoding="UTF-8" standalone="no"?>
<svg xmlns:xlink="http://www.w3.org/1999/xlink" height="84.0px" width="80.9px" xmlns="http://www.w3.org/2000/svg">
  <g transform="matrix(1.0, 0.0, 0.0, 1.0, 0.0, 49.95)">
    <path d="M22.9 -49.8 L25.9 -49.95 27.05 -49.8 27.2 -49.0 27.1 -48.1 27.2 -47.4 27.15 -46.9 33.15 -44.35 Q38.3 -41.95 38.9 -41.95 L40.85 -41.6 Q41.45 -42.0 43.9 -46.95 53.7 -44.4 56.8 -39.9 58.1 -38.05 58.1 -35.0 L58.1 -34.2 58.1 -33.4 58.05 -31.9 68.25 -29.55 Q70.45 -28.8 73.0 -25.3 77.2 -26.9 79.35 -19.2 80.45 -15.35 80.7 -11.1 L80.65 -10.3 80.7 -9.5 Q80.7 -8.0 79.95 -7.1 L79.25 -6.45 Q79.75 -5.35 79.75 -3.85 L79.75 -2.95 79.75 -2.25 Q79.75 1.35 77.9 3.65 76.35 5.6 76.1 8.3 L76.55 10.25 77.0 12.7 76.95 13.7 77.0 14.3 Q77.0 15.75 76.45 16.8 L76.3 17.15 78.55 20.4 Q80.9 25.2 80.9 26.05 L80.5 26.3 80.9 27.65 Q69.1 34.05 68.5 34.05 66.95 34.05 61.9 31.55 56.85 29.0 53.2 29.0 L38.0 29.8 Q30.1 30.85 29.95 32.7 L28.15 32.7 Q18.45 33.5 12.95 27.35 8.95 22.9 8.95 18.7 L9.1 18.55 8.95 17.1 Q14.55 7.9 15.05 6.35 14.75 2.35 12.75 -1.85 L7.55 -10.55 Q0.0 -22.55 0.0 -33.45 L0.0 -34.25 0.0 -35.05 Q0.0 -39.15 1.0 -40.55 2.55 -42.7 7.7 -42.7 12.7 -42.7 15.75 -40.25 18.15 -38.3 18.15 -36.35 L18.15 -34.85 18.2 -31.0 18.4 -27.0 18.3 -27.0 18.3 -26.95 18.7 -26.95 Q22.15 -26.95 22.75 -35.45 L22.9 -49.8" fill="#fe0707" fill-opacity="0.99215686" fill-rule="evenodd" stroke="none"/>
  </g>
</svg>
