<?xml version="1.0" encoding="UTF-8" standalone="no"?>
<svg xmlns:xlink="http://www.w3.org/1999/xlink" height="109.0px" width="65.0px" xmlns="http://www.w3.org/2000/svg">
  <g transform="matrix(1.0, 0.0, 0.0, 1.0, 0.0, 0.0)">
    <path d="M49.85 11.05 L50.0 12.0 Q50.5 12.0 50.75 12.25 L51.0 13.0 51.0 14.0 51.0 15.0 Q52.7 16.75 51.55 20.85 L51.0 21.0 50.9 21.95 Q49.65 26.7 45.0 28.0 L45.0 37.0 45.0 38.0 Q47.0 38.5 48.25 39.75 L49.0 40.0 Q49.5 40.5 50.1 40.8 L51.0 41.0 Q53.0 41.5 54.25 42.75 L55.0 43.0 61.95 43.5 62.0 44.0 Q63.7 45.75 62.55 49.85 L62.0 50.0 62.0 56.0 62.0 57.0 Q65.8 60.35 62.2 62.4 62.0 62.5 62.0 63.0 L62.0 75.0 62.0 76.0 Q62.5 78.0 63.75 79.25 L64.0 80.0 65.0 80.0 65.0 94.0 65.0 95.0 64.0 95.0 63.8 95.65 Q61.5 97.0 58.0 97.0 L57.0 97.0 56.0 97.0 55.0 97.0 55.0 98.0 Q55.0 102.0 50.0 101.0 L50.0 102.0 49.85 102.55 47.0 103.0 46.0 103.0 44.0 103.0 44.05 104.0 Q44.15 105.65 42.0 105.0 L41.0 105.0 40.0 105.0 39.9 106.0 Q39.15 109.15 35.0 109.0 L34.0 109.0 31.0 109.0 30.25 108.75 30.0 108.0 29.0 108.05 Q27.4 108.15 28.0 106.0 L27.1 105.8 Q24.75 104.7 25.0 101.0 L24.25 100.75 24.0 100.0 23.05 99.85 Q20.05 98.95 18.0 97.0 L17.05 96.85 15.0 96.0 14.0 96.0 13.15 96.25 Q10.25 98.2 8.0 96.0 L7.0 96.0 Q5.05 95.95 4.0 95.0 L3.1 94.8 2.0 94.0 1.25 93.75 Q1.0 93.5 1.0 93.0 L0.0 93.0 0.0 92.0 0.0 80.0 1.0 80.0 1.0 79.0 1.0 78.0 Q2.65 78.15 2.5 76.0 L3.0 76.0 3.0 75.0 3.0 74.0 3.0 68.0 3.0 67.0 3.0 62.0 3.0 61.0 3.0 56.0 3.0 55.0 3.0 48.0 2.5 47.9 Q2.0 45.0 2.0 42.0 L3.0 42.0 10.1 41.8 11.0 42.0 11.0 41.0 12.0 41.0 13.0 41.0 13.0 40.0 Q15.15 40.65 15.45 39.1 L16.0 39.0 17.0 39.0 17.0 38.0 Q18.95 37.95 20.15 37.25 20.5 37.0 21.0 37.0 L21.0 36.0 Q22.95 35.95 24.15 35.25 24.5 35.0 25.0 35.0 L25.0 34.0 26.0 34.0 26.0 33.0 26.0 32.0 26.8 30.9 27.0 30.0 26.05 30.1 Q23.9 30.65 24.0 29.0 L23.0 28.9 Q19.4 28.1 17.0 26.0 L16.15 25.75 Q15.05 24.95 15.0 23.0 L14.45 22.85 Q14.0 21.5 14.0 20.0 L13.5 19.95 Q13.0 16.5 13.0 13.0 L14.0 13.0 14.0 12.0 14.0 11.0 Q15.65 11.15 15.5 9.0 L16.0 9.0 16.0 8.0 16.0 7.0 17.0 7.0 17.0 6.0 Q17.5 5.5 18.1 5.2 L19.0 5.0 19.0 4.0 20.0 4.0 21.0 4.0 21.0 3.0 Q24.2 2.7 26.2 1.25 26.5 1.0 27.0 1.0 L28.0 1.0 28.0 0.0 33.0 0.0 34.0 0.0 34.0 1.0 38.9 1.5 39.0 2.0 40.0 2.0 41.0 2.0 42.8 2.4 Q43.0 2.5 43.0 3.0 L44.1 3.8 45.0 4.0 Q48.55 6.45 49.85 11.05 M12.0 56.0 L11.0 56.0 Q11.0 61.0 11.5 65.95 L12.0 66.0 Q13.7 65.7 13.1 63.0 L13.0 62.0 12.5 61.9 Q12.0 59.0 12.0 56.0" fill="#ff0000" fill-rule="evenodd" stroke="none"/>
  </g>
</svg>
