<?xml version="1.0" encoding="UTF-8" standalone="no"?>
<svg xmlns:xlink="http://www.w3.org/1999/xlink" height="96.1px" width="67.3px" xmlns="http://www.w3.org/2000/svg">
  <g transform="matrix(1.0, 0.0, 0.0, 1.0, 4.3, 1.5)">
    <path d="M40.55 8.8 Q41.15 7.0 40.6 6.85 29.8 3.65 18.15 7.0 17.8 12.35 20.9 14.35 L21.15 14.75 21.8 14.95 21.95 15.5 Q22.45 15.5 22.7 15.75 L22.95 16.5 23.05 17.45 Q23.55 19.6 21.95 19.5 20.35 28.05 25.0 26.65 L25.95 26.5 Q29.8 24.85 35.95 25.45 L36.95 25.5 36.75 24.6 35.95 23.5 35.05 23.3 Q34.45 23.0 33.95 22.5 L35.7 21.25 35.95 20.5 35.95 19.5 35.95 15.2 35.15 15.0 34.05 14.1 33.15 13.5 35.95 13.85 35.95 13.5 36.9 13.6 Q39.3 12.7 40.55 8.8 M49.65 9.95 L50.15 10.0 50.0 10.95 Q49.45 12.3 48.5 13.3 50.95 12.85 52.95 12.0 L52.95 12.5 Q59.45 9.55 56.15 15.6 L55.95 16.5 55.95 19.5 55.95 20.5 Q58.2 22.65 56.85 23.3 L55.95 23.5 55.95 29.5 55.95 30.5 Q58.9 32.05 59.85 35.55 L59.95 36.5 Q61.55 36.35 61.05 38.55 L60.95 39.5 61.0 40.5 Q62.0 47.55 57.95 49.5 L56.95 49.5 55.65 49.5 Q58.75 51.35 57.1 57.95 L57.0 58.9 57.05 59.9 Q57.55 64.35 55.5 66.25 L55.6 66.45 55.75 66.9 59.35 65.3 Q63.5 63.15 62.95 73.5 59.0 74.9 55.7 70.4 55.25 69.8 54.25 70.75 51.9 72.95 49.95 75.5 L50.75 76.6 50.95 77.5 Q52.65 77.8 52.25 80.55 51.95 82.5 51.2 82.8 43.55 86.2 42.95 76.5 L41.95 76.4 Q25.35 73.5 26.95 84.5 19.05 86.9 20.25 80.55 21.2 75.55 20.05 74.7 17.3 72.6 16.1 69.05 14.65 73.15 10.7 74.6 10.1 83.2 11.6 89.65 L11.7 90.6 11.45 91.45 Q10.25 93.15 7.7 93.6 L7.7 94.6 6.7 94.6 -0.3 94.6 -0.35 94.1 Q-3.95 93.75 -4.3 90.6 L-4.3 89.6 -4.3 85.6 -3.55 85.35 -3.3 84.6 -3.8 84.6 Q-4.3 72.1 -4.3 59.6 L-4.3 58.6 -4.3 54.6 -4.3 53.6 -4.3 48.6 Q-2.6 48.3 -2.8 45.6 L-2.3 45.6 -2.3 44.6 -2.3 42.6 Q0.25 40.65 2.05 37.85 2.2 37.6 2.7 37.6 L2.7 36.6 2.7 35.6 3.7 35.6 3.7 34.6 Q6.65 34.05 8.8 32.8 L9.7 32.6 9.7 31.6 12.0 31.6 Q7.45 31.05 3.95 29.5 L3.35 29.3 Q1.0 23.95 0.95 16.5 2.7 14.25 2.0 9.5 L1.95 8.5 1.1 8.3 Q-0.75 7.2 -0.05 3.5 L-0.05 2.5 -0.05 1.5 Q2.4 -0.05 6.85 1.0 L6.95 1.5 Q10.9 3.75 7.6 8.25 7.45 8.5 6.95 8.5 L6.95 11.5 6.95 12.5 10.4 12.65 10.15 12.0 Q12.2 9.05 12.65 4.05 L13.15 4.0 13.15 3.0 16.25 1.2 17.15 1.0 17.15 0.0 Q31.4 -2.7 45.05 -0.5 L45.15 0.0 Q49.3 4.4 49.65 9.95 M19.6 51.5 L19.55 51.45 19.45 51.5 19.6 51.5" fill="#fd0808" fill-opacity="0.99215686" fill-rule="evenodd" stroke="none"/>
  </g>
</svg>
