<?xml version="1.0" encoding="UTF-8" standalone="no"?>
<svg xmlns:xlink="http://www.w3.org/1999/xlink" height="102.0px" width="74.0px" xmlns="http://www.w3.org/2000/svg">
  <g transform="matrix(1.0, 0.0, 0.0, 1.0, 0.0, 0.0)">
    <path d="M63.1 18.7 L60.0 19.0 59.0 19.0 59.0 30.0 64.0 32.1 Q68.15 34.4 69.0 38.0 69.9 39.15 70.6 41.85 71.2 44.15 71.2 45.55 L71.0 48.0 Q72.1 50.6 72.1 56.85 L71.8 60.3 71.4 63.0 71.0 63.0 Q71.55 64.75 71.05 66.05 L70.0 68.0 Q70.0 68.85 70.6 69.45 71.15 70.0 71.95 70.0 L72.0 70.0 Q73.0 70.85 73.55 70.95 74.0 71.05 74.0 80.0 73.05 79.6 72.1 78.15 71.05 76.55 71.0 75.0 L70.15 74.4 68.0 74.0 63.9 77.0 Q60.45 79.55 60.0 80.0 62.7 81.3 63.9 83.2 64.65 84.45 64.65 85.65 64.65 87.05 63.1 88.6 61.3 90.4 58.9 90.4 L56.75 87.05 54.0 82.0 49.1 82.8 Q43.9 83.45 38.0 83.0 L37.4 83.7 37.0 86.0 37.0 91.0 Q36.45 92.25 35.5 92.9 34.65 93.5 33.8 93.5 L31.0 93.0 31.0 94.0 Q29.9 95.95 24.7 98.5 20.0 100.85 20.0 102.0 L14.0 102.0 Q12.75 100.2 8.0 97.95 2.85 95.55 0.0 96.0 L0.0 91.0 Q1.9 91.15 3.5 89.9 4.55 89.0 5.0 88.0 L5.0 66.0 Q2.95 64.1 2.95 60.65 L3.0 59.0 4.0 59.0 4.0 47.0 5.0 47.0 Q5.0 42.85 7.95 39.95 10.85 37.0 15.0 37.0 L15.0 28.0 12.25 28.3 Q11.65 28.3 10.0 27.0 9.1 26.9 8.0 26.0 L7.5 26.0 Q7.0 21.7 7.0 20.0 7.0 19.35 7.85 19.15 L9.0 19.0 9.0 16.0 8.5 16.0 7.9 13.05 7.0 10.0 6.15 8.9 Q5.55 7.9 5.8 6.5 6.0 5.0 7.0 5.0 L7.0 4.0 8.0 4.0 8.0 2.95 10.85 2.95 Q14.3 2.65 17.1 4.8 19.95 7.0 19.05 9.5 L18.9 10.45 21.0 7.0 Q25.4 3.85 32.95 1.95 37.45 0.85 44.0 0.0 L46.0 0.0 Q48.5 0.0 50.25 0.9 52.0 1.75 52.0 3.0 53.0 4.75 53.0 7.0 L55.15 7.4 56.0 8.0 60.35 7.25 Q62.15 7.25 62.95 7.8 63.85 8.35 63.85 9.75 63.85 11.1 63.0 13.0 66.2 14.2 67.65 15.95 L65.6 17.3 64.0 18.0 Q65.25 18.15 63.1 18.7 M31.35 9.95 L29.0 10.0 28.0 10.0 27.0 11.1 26.0 12.0 Q28.05 14.7 28.8 20.15 29.45 24.7 29.0 29.0 30.1 28.1 31.0 28.0 L37.0 28.0 Q37.25 26.6 39.0 24.6 40.65 22.65 40.65 21.6 40.65 20.2 39.1 19.35 37.95 18.7 35.0 18.0 L32.2 18.15 31.9 17.2 32.0 15.15 35.0 15.0 35.0 14.0 37.35 14.2 38.0 13.0 Q37.35 11.65 34.75 10.65 33.05 10.05 31.35 9.95" fill="#ff0000" fill-opacity="0.99215686" fill-rule="evenodd" stroke="none"/>
  </g>
</svg>
