<?xml version="1.0" encoding="UTF-8" standalone="no"?>
<svg xmlns:xlink="http://www.w3.org/1999/xlink" height="83.8px" width="70.0px" xmlns="http://www.w3.org/2000/svg">
  <g transform="matrix(1.0, 0.0, 0.0, 1.0, -1.0, 0.0)">
    <path d="M58.75 24.25 Q64.35 29.35 57.0 35.0 L56.95 36.0 Q55.85 45.05 54.0 52.0 L53.95 53.0 Q53.65 58.15 49.0 59.0 49.0 59.5 48.8 59.6 48.0 60.0 47.95 60.25 46.2 66.7 44.0 72.0 L45.1 72.8 46.0 73.0 Q52.7 76.75 42.05 77.45 37.45 77.75 35.0 74.0 L34.1 73.8 Q28.9 71.1 22.0 70.0 L21.5 69.95 Q20.15 55.75 11.0 65.0 L10.0 64.9 Q6.85 64.15 7.0 60.0 L6.0 60.1 Q3.3 60.7 3.0 59.0 L2.25 58.75 1.0 57.0 1.0 56.0 1.0 53.0 2.0 53.0 3.0 53.0 3.0 52.0 6.9 52.45 7.0 53.0 Q7.5 55.25 8.4 53.2 8.5 53.0 9.0 53.0 L9.0 52.0 9.0 51.0 8.75 50.3 Q7.1 48.9 7.0 46.0 L6.5 45.95 Q6.0 42.0 6.0 38.0 L6.8 36.9 7.0 36.0 7.0 35.0 7.0 33.0 8.0 33.0 8.0 32.0 8.0 31.0 Q9.5 30.0 10.4 28.2 L11.0 28.0 11.0 27.0 Q12.3 20.8 14.8 15.9 L15.0 15.0 15.0 14.0 15.0 13.0 Q16.5 12.0 17.4 10.2 17.5 10.0 18.0 10.0 L18.0 9.0 Q17.95 7.05 17.0 6.0 21.6 6.2 19.25 3.75 19.0 3.5 19.0 3.0 L18.25 2.75 18.0 2.0 Q19.05 1.05 20.85 0.55 L21.0 0.0 25.0 0.0 26.0 0.0 Q27.65 1.7 26.2 2.4 26.0 2.5 26.0 3.0 25.35 5.65 28.0 5.1 L29.0 5.0 29.0 4.0 Q31.7 3.8 32.75 5.2 L33.0 6.0 Q42.05 4.8 45.3 10.05 46.3 11.7 48.0 12.0 L49.75 13.25 50.0 14.0 Q53.7 18.8 57.75 23.25 L58.0 24.0 58.75 24.25 M10.0 76.8 Q8.3 76.7 9.0 74.0 18.85 66.5 12.6 76.1 12.0 77.0 10.0 76.8 M35.0 80.0 L34.75 80.7 Q26.95 87.7 21.0 79.0 L22.1 78.2 23.0 78.0 Q24.95 77.95 26.15 77.25 26.5 77.0 27.0 77.0 L27.0 76.0 Q31.75 75.25 33.75 77.25 L34.0 78.0 34.8 79.1 35.0 80.0 M18.0 72.0 Q29.8 72.85 20.55 75.4 17.85 76.15 18.0 72.0 M69.3 63.25 Q68.2 64.7 65.0 64.0 L64.9 64.55 Q57.6 66.4 59.0 59.0 65.05 53.2 70.25 58.75 L71.0 59.0 71.0 62.0 71.0 63.0 70.0 63.0 Q69.5 63.0 69.3 63.25" fill="#ff0000" fill-rule="evenodd" stroke="none"/>
  </g>
</svg>
