<?xml version="1.0" encoding="UTF-8" standalone="no"?>
<svg xmlns:xlink="http://www.w3.org/1999/xlink" height="88.0px" width="73.05px" xmlns="http://www.w3.org/2000/svg">
  <g transform="matrix(1.0, 0.0, 0.0, 1.0, 0.0, 0.0)">
    <path d="M64.0 20.0 Q63.9 21.65 66.05 21.1 L67.0 21.0 Q70.15 20.8 68.25 23.2 68.0 23.5 68.0 24.0 L68.8 25.1 69.0 26.0 70.8 26.4 71.0 27.0 70.8 27.9 70.0 29.0 70.0 30.0 70.0 31.0 Q74.45 32.45 71.0 32.95 L70.0 33.0 69.75 33.75 69.0 34.0 69.0 35.0 69.0 36.0 69.05 37.0 Q69.15 38.65 67.0 38.0 L67.0 41.0 67.0 42.0 67.1 43.0 Q67.7 45.7 66.0 46.0 L66.0 47.0 65.75 47.8 Q59.85 54.35 58.0 65.0 L58.0 66.0 57.85 66.55 55.0 67.0 54.5 67.05 Q54.0 72.5 52.0 76.0 L52.0 77.0 52.0 78.0 53.0 78.0 54.0 78.0 Q55.7 78.3 54.6 80.8 L54.0 81.0 53.1 81.2 52.0 82.0 Q52.0 82.5 51.8 82.6 49.3 83.7 49.0 82.0 L48.05 81.85 Q46.3 81.2 46.0 79.0 L47.0 79.0 47.0 78.0 49.0 78.0 50.0 78.0 50.0 77.0 49.15 76.75 Q45.6 74.4 44.0 70.0 L43.0 70.0 39.0 70.0 38.1 70.2 Q37.5 70.5 37.0 71.0 L37.0 72.0 37.1 73.0 Q37.7 75.7 36.0 76.0 L35.95 77.0 Q35.7 78.7 33.0 78.0 L32.85 78.55 Q29.8 79.7 29.0 78.0 L28.0 78.0 27.0 78.0 26.0 78.0 25.75 78.8 Q20.85 84.5 15.0 80.0 17.95 79.45 20.1 78.2 L21.0 78.0 21.0 77.0 Q25.7 78.2 25.5 74.0 L26.0 74.0 26.0 73.0 Q25.75 68.25 23.0 66.0 L23.1 67.0 Q23.7 69.7 22.0 70.0 L21.75 70.75 21.0 71.0 20.8 71.6 Q20.0 72.0 19.0 72.0 L18.85 72.55 16.0 73.0 16.0 74.0 16.1 75.0 Q16.7 77.7 15.0 78.0 L14.0 78.0 13.85 78.55 Q10.8 79.7 10.0 78.0 L9.2 77.75 Q7.8 76.7 8.0 74.0 L8.0 73.0 9.0 73.0 9.0 72.0 12.0 72.0 13.0 72.0 13.75 71.75 14.0 71.0 13.45 70.9 Q13.0 69.0 13.0 67.0 L13.0 66.0 13.0 63.0 14.0 63.0 14.0 62.0 14.0 61.0 13.9 60.5 Q12.4 60.15 13.0 58.0 L12.0 57.95 Q9.3 57.7 9.0 55.0 L9.0 54.0 8.5 53.95 Q8.0 50.0 8.0 46.0 L9.0 46.0 9.0 45.0 9.0 44.0 9.0 43.0 10.0 43.0 10.0 42.0 10.75 41.75 11.0 41.0 11.0 40.0 12.0 40.0 12.0 39.0 12.0 38.0 12.75 37.75 13.0 37.0 13.0 36.0 13.0 35.0 13.0 34.0 13.0 26.0 12.85 25.05 Q11.15 20.85 10.0 16.0 L9.5 16.0 Q9.45 12.05 8.0 10.0 L7.15 9.8 Q5.0 8.5 3.0 7.0 L3.0 6.0 3.0 4.0 7.2 1.25 8.0 1.0 9.0 1.0 9.0 0.0 14.0 0.0 15.0 0.0 16.0 0.0 Q19.35 1.15 18.5 5.9 L18.0 6.0 17.75 6.75 17.0 7.0 17.0 10.0 17.0 11.0 17.0 12.0 Q18.7 13.3 18.1 17.0 L18.0 18.0 19.0 18.0 19.0 17.0 19.75 16.75 20.0 16.0 19.8 15.1 19.0 14.0 19.0 13.0 19.0 10.0 20.0 10.0 20.0 9.0 20.0 8.0 22.0 8.0 23.0 8.0 26.0 8.0 27.0 8.0 27.0 7.0 Q28.5 6.0 29.4 4.2 29.5 4.0 30.0 4.0 L30.0 3.0 30.0 2.0 31.0 2.0 31.0 1.0 Q40.4 0.7 41.85 5.05 L42.0 6.0 43.0 6.0 Q46.2 5.3 47.3 6.75 L48.0 7.0 Q49.05 10.95 52.85 12.45 L53.0 13.0 Q55.7 12.8 56.45 14.85 L57.0 15.0 Q60.05 16.95 63.85 18.45 L64.0 19.0 64.0 20.0 M8.0 66.0 Q9.7 66.3 8.6 68.8 8.5 69.0 8.0 69.0 L7.8 69.6 Q7.0 70.0 6.0 70.0 L5.05 70.1 Q2.9 70.65 3.0 69.0 L2.25 68.75 1.0 67.0 0.0 67.0 0.0 66.0 0.0 64.0 1.0 64.0 1.0 63.0 Q3.2 61.2 6.95 61.5 L7.0 62.0 Q8.7 62.3 8.1 65.0 L8.0 66.0 M33.0 81.0 Q35.7 80.3 36.4 81.8 36.5 82.0 37.0 82.0 L37.75 82.25 38.0 83.0 Q39.7 83.8 38.55 86.85 L38.0 87.0 37.0 87.0 36.85 87.55 34.0 88.0 33.0 88.0 31.0 88.0 30.0 88.0 Q24.2 87.8 24.0 82.0 L25.0 82.0 Q27.7 82.7 28.4 81.2 L29.0 81.0 29.0 80.0 32.9 80.45 33.0 81.0 M72.0 60.0 Q73.7 60.3 72.6 62.8 L72.0 63.0 71.85 63.55 69.0 64.0 68.85 64.55 66.0 65.0 Q67.0 66.5 68.8 67.4 L69.0 68.0 Q70.7 69.3 69.55 72.85 L69.0 73.0 68.8 73.9 68.0 75.0 67.8 75.6 Q65.3 76.7 65.0 75.0 L64.0 74.9 Q62.0 74.5 61.0 73.0 L60.5 72.9 Q60.0 70.5 60.0 68.0 L61.0 68.0 Q61.0 67.5 61.15 67.45 65.25 66.05 61.0 63.0 L60.45 62.9 Q60.0 61.0 60.0 59.0 L61.0 59.0 61.0 58.0 Q62.3 56.8 65.0 56.95 L66.0 57.0 66.0 56.0 69.9 56.45 70.0 57.0 71.75 59.15 72.0 60.0 M60.0 86.0 L59.25 85.75 Q59.0 85.5 59.0 85.0 L59.0 84.0 61.85 84.45 62.0 85.0 62.5 85.0 Q62.35 88.8 60.0 86.0 M60.0 78.0 L60.0 77.0 64.9 77.5 65.0 78.0 65.1 79.0 Q65.65 81.65 63.0 81.0 L62.8 81.6 Q60.3 82.7 60.0 81.0 L59.9 80.5 Q58.4 80.15 59.0 78.0 L60.0 78.0" fill="#ff0000" fill-rule="evenodd" stroke="none"/>
  </g>
</svg>
