<?xml version="1.0" encoding="UTF-8" standalone="no"?>
<svg xmlns:xlink="http://www.w3.org/1999/xlink" height="44.35px" width="49.1px" xmlns="http://www.w3.org/2000/svg">
  <g transform="matrix(1.0, 0.0, 0.0, 1.0, 0.0, -1.65)">
    <path d="M40.6 22.1 Q40.05 20.95 40.0 20.0 L40.0 15.0 Q44.35 14.55 45.85 18.4 46.65 20.5 47.0 24.0 L49.0 24.0 49.1 25.45 Q49.1 26.0 48.6 26.2 L47.0 26.0 Q48.0 29.0 44.95 32.1 L39.3 36.6 Q27.2 46.0 26.5 46.0 26.05 46.0 22.85 44.3 19.6 42.55 17.1 42.55 14.0 42.55 13.45 43.35 L12.65 44.85 Q11.4 42.95 9.7 42.0 9.0 41.6 9.0 39.0 9.0 38.5 9.5 38.5 10.0 38.5 10.0 38.0 L9.4 37.65 9.0 37.0 Q6.9 37.2 4.9 39.1 L2.95 40.95 Q2.1 40.95 1.1 39.6 0.0 38.05 0.0 36.0 0.0 34.45 3.75 30.8 7.95 26.8 11.0 27.5 L11.0 22.0 12.3 25.15 Q12.6 26.0 16.0 26.0 L16.8 24.1 Q17.6 22.1 18.0 22.0 L18.0 15.5 12.8 14.4 Q9.85 13.7 8.35 11.75 L8.0 11.0 Q11.1 11.45 14.2 12.4 L17.0 13.25 Q23.0 9.4 23.0 7.0 L22.5 5.5 Q22.0 4.5 22.0 4.0 L23.0 2.85 24.4 1.65 24.35 3.15 24.0 4.8 Q25.45 4.85 25.8 5.45 26.1 5.95 26.1 7.7 26.1 8.2 25.05 9.1 L24.0 10.0 24.45 13.9 27.8 14.0 Q29.35 14.0 30.5 13.25 31.95 12.3 32.4 12.2 L32.9 12.2 Q32.9 13.05 34.3 17.9 L33.65 19.6 33.0 21.0 Q33.0 21.55 35.3 23.9 37.7 26.35 38.0 29.0 39.7 28.95 40.5 27.6 41.0 26.75 41.0 26.0 41.0 25.45 40.55 25.3 L40.0 25.0 41.35 24.6 42.0 24.0 40.6 22.1" fill="#ff0000" fill-rule="evenodd" stroke="none"/>
  </g>
</svg>
