<?xml version="1.0" encoding="UTF-8" standalone="no"?>
<svg xmlns:xlink="http://www.w3.org/1999/xlink" height="101.0px" width="74.65px" xmlns="http://www.w3.org/2000/svg">
  <g transform="matrix(1.0, 0.0, 0.0, 1.0, 0.0, 53.0)">
    <path d="M43.0 -52.0 Q48.75 -47.75 51.8 -40.9 L52.0 -40.0 53.0 -40.0 54.0 -40.0 Q55.45 -38.45 57.85 -37.55 L58.0 -37.0 59.0 -37.0 60.0 -37.0 Q61.45 -35.45 63.85 -34.55 L64.0 -34.0 Q68.95 -32.6 65.65 -27.2 L65.0 -27.0 64.8 -26.1 Q62.0 -21.15 59.0 -25.0 L58.0 -25.0 58.0 -21.0 58.0 -20.0 Q59.75 -16.25 58.5 -10.1 L58.0 -10.0 57.95 -9.0 Q57.7 -7.3 56.0 -7.0 L56.0 -6.0 56.0 -5.0 56.0 -4.0 56.0 -1.0 56.0 0.0 57.0 0.0 Q58.3 3.7 58.95 8.0 L59.0 9.0 Q60.05 8.05 61.9 8.45 L62.0 9.0 Q62.1 11.9 63.75 13.3 L64.0 14.0 Q68.25 13.75 67.5 17.9 L67.0 18.0 67.8 19.1 68.0 20.0 Q71.2 19.3 71.85 21.05 L72.0 22.0 Q75.3 24.2 74.5 29.95 L74.0 30.0 Q71.75 31.25 70.45 33.05 69.35 34.55 67.6 38.35 64.6 45.05 56.2 41.55 50.55 39.2 50.0 41.25 48.6 46.6 39.0 47.0 L39.0 48.0 38.0 48.0 Q32.35 46.15 28.75 42.3 L28.0 41.5 Q18.45 44.0 10.0 42.0 9.5 42.0 9.4 41.8 9.0 41.0 9.0 40.0 L8.85 39.05 8.0 37.0 Q10.15 36.15 11.35 34.2 11.5 34.0 12.0 34.0 L12.0 33.5 Q4.75 33.6 0.0 29.0 L0.0 28.0 0.0 26.0 Q5.9 18.95 11.1 16.2 L12.0 16.0 12.0 15.0 Q13.95 12.95 14.85 9.95 L15.0 9.0 15.0 8.0 16.8 8.4 17.0 9.0 18.0 9.0 18.0 8.0 18.0 7.0 18.0 5.0 Q19.7 4.2 19.1 1.0 L19.0 0.0 20.0 0.0 20.15 -0.95 Q21.95 -6.0 18.0 -10.0 L17.5 -10.05 Q17.0 -14.0 17.0 -18.0 L18.0 -18.0 18.0 -19.0 18.0 -26.0 19.0 -26.0 19.0 -27.0 Q21.15 -27.85 22.35 -29.8 22.5 -30.0 23.0 -30.0 L23.0 -31.0 Q28.0 -31.05 26.2 -35.1 L26.0 -36.0 26.0 -37.0 26.0 -39.0 26.0 -40.0 26.0 -41.0 26.0 -42.0 26.0 -43.0 26.0 -45.0 Q27.6 -44.9 27.5 -47.0 L28.0 -47.0 28.0 -48.0 Q30.65 -50.35 34.1 -51.8 L35.0 -52.0 35.0 -53.0 42.95 -52.5 43.0 -52.0" fill="#ff0202" fill-opacity="0.9764706" fill-rule="evenodd" stroke="none"/>
  </g>
</svg>
