<?xml version="1.0" encoding="UTF-8" standalone="no"?>
<svg xmlns:xlink="http://www.w3.org/1999/xlink" height="71.85px" width="104.5px" xmlns="http://www.w3.org/2000/svg">
  <g transform="matrix(1.0, 0.0, 0.0, 1.0, -1.0, -1.0)">
    <path d="M86.75 14.25 Q86.75 16.35 85.0 17.8 82.75 19.6 77.0 21.0 77.15 25.45 78.9 27.85 80.5 30.0 83.0 30.0 85.6 30.0 86.45 27.7 87.15 25.85 86.5 23.0 L95.1 33.1 100.2 39.25 Q100.2 39.9 102.2 43.8 104.15 47.75 104.15 49.7 104.15 50.75 101.6 51.5 98.75 52.3 98.0 54.0 100.6 53.55 103.05 54.05 105.1 54.45 105.5 55.0 L104.55 55.3 Q104.0 55.4 104.0 56.0 L103.25 58.4 Q102.05 60.75 99.75 60.75 99.15 60.75 98.5 59.0 96.05 63.3 89.95 65.35 84.85 67.1 77.85 67.1 75.0 67.1 73.4 65.05 L71.0 62.0 71.0 63.0 70.45 64.45 Q70.0 65.45 70.0 66.0 L72.1 67.8 Q74.3 69.55 74.65 70.5 L74.4 70.7 72.15 70.1 69.0 69.0 67.35 71.45 Q66.1 72.85 64.45 72.85 63.95 72.85 63.25 72.45 62.5 72.0 62.0 72.0 L49.0 70.0 Q46.1 70.0 44.95 69.2 43.2 67.95 43.0 64.0 L42.1 64.2 Q41.35 65.45 40.7 68.3 40.3 70.0 39.1 70.0 37.15 70.0 36.4 68.5 L35.0 66.0 20.35 67.1 19.45 67.0 19.05 66.85 18.8 65.5 Q18.9 64.25 20.0 62.0 19.75 62.0 19.45 61.05 L19.0 59.0 Q20.85 58.8 21.85 57.45 22.6 56.05 23.0 55.8 L22.95 55.5 Q12.95 54.8 10.95 50.75 10.25 49.45 9.35 45.25 8.3 40.45 7.0 37.0 4.95 37.0 3.15 35.8 1.0 34.3 1.0 32.0 1.0 28.3 5.3 26.25 8.15 24.9 10.2 24.9 L13.0 25.0 Q13.85 22.55 13.85 21.55 L13.55 18.9 13.0 16.0 Q18.6 16.7 21.85 13.4 24.9 10.3 24.0 6.0 L25.0 6.0 Q25.3 3.8 26.85 2.9 27.65 2.45 28.4 2.45 L30.0 2.65 30.0 4.0 31.45 2.05 Q32.25 1.0 33.65 1.0 35.95 1.0 41.65 6.65 47.3 12.25 48.2 12.25 48.6 12.25 50.85 9.25 54.1 6.25 59.3 6.25 62.95 6.25 65.55 7.65 L68.0 9.0 Q69.0 9.0 74.0 7.05 L82.0 6.0 Q83.1 6.0 84.9 9.05 86.75 12.15 86.75 14.25" fill="#ff0000" fill-opacity="0.9843137" fill-rule="evenodd" stroke="none"/>
  </g>
</svg>
