<?xml version="1.0" encoding="UTF-8" standalone="no"?>
<svg xmlns:xlink="http://www.w3.org/1999/xlink" height="173.0px" width="139.15px" xmlns="http://www.w3.org/2000/svg">
  <g transform="matrix(1.0, 0.0, 0.0, 1.0, -0.85, 0.0)">
    <path d="M83.4 3.0 Q89.2 5.9 89.45 9.25 90.0 15.5 82.05 19.05 L76.45 21.45 Q73.9 22.7 73.9 24.2 73.9 25.2 82.5 27.8 91.7 30.65 93.0 32.0 98.25 31.2 98.95 29.0 99.25 27.95 99.0 27.0 102.7 27.0 104.5 28.65 106.4 30.35 107.6 34.95 108.4 37.9 109.3 43.8 109.7 46.5 111.0 47.2 112.9 48.15 117.35 54.5 122.3 61.5 122.3 64.95 L122.0 71.0 126.6 71.85 Q127.9 72.4 128.0 75.0 L130.8 75.15 130.95 77.4 129.0 81.1 Q127.0 84.5 127.0 85.0 127.0 88.55 131.5 89.0 131.25 90.2 130.25 91.25 129.15 92.45 128.1 92.1 127.0 92.0 127.0 101.5 127.0 112.25 129.05 113.0 L130.45 113.0 Q131.1 113.05 131.1 114.6 131.1 115.3 130.45 115.5 L129.05 115.95 Q127.0 116.95 127.0 122.0 127.0 124.4 127.55 125.1 127.95 125.55 129.15 125.65 132.3 125.9 134.45 129.65 L135.0 131.35 135.3 133.35 Q135.3 136.4 137.65 140.3 L140.0 144.5 Q140.0 148.45 134.35 150.75 130.15 152.5 123.45 153.15 L118.0 153.95 109.05 158.05 Q100.4 161.8 100.95 164.45 L101.65 165.7 Q101.85 166.05 100.45 166.05 100.05 166.05 99.2 166.45 L97.0 167.0 Q97.35 169.15 97.0 169.95 91.9 170.1 91.5 171.2 L91.3 171.95 89.75 172.25 88.45 172.65 86.5 173.0 Q82.85 173.0 80.05 172.1 L77.9 171.2 78.0 170.0 Q72.9 169.75 58.4 166.35 L44.5 163.0 40.7 164.05 Q37.5 165.05 35.25 165.05 34.75 165.05 34.45 164.55 34.15 164.0 32.0 164.0 27.1 164.65 23.0 163.95 15.0 162.6 15.0 156.0 15.0 155.4 15.5 155.15 L16.0 155.0 Q15.75 155.0 15.35 150.4 15.0 146.15 15.0 145.0 15.0 144.35 15.65 144.15 L17.0 144.0 Q15.85 142.15 12.7 140.05 L6.9 136.4 Q-0.05 131.8 1.0 127.0 2.9 126.55 4.55 122.55 6.65 121.45 8.8 119.05 13.0 114.25 13.0 107.8 13.0 101.9 11.0 99.8 9.0 98.7 9.0 98.0 9.0 97.4 9.3 97.25 L9.55 97.2 13.0 97.0 13.0 77.65 10.75 75.9 Q9.15 74.65 9.0 73.0 L10.0 73.0 11.9 72.6 13.0 71.8 12.95 71.25 12.85 71.45 Q11.35 71.5 10.6 69.95 10.0 68.65 10.0 66.55 10.0 66.25 13.35 62.35 16.9 58.2 18.0 58.0 21.8 44.2 23.4 40.75 25.55 36.0 29.0 36.0 30.5 36.0 33.5 37.5 36.5 39.0 39.0 39.0 39.5 39.0 39.5 38.0 39.5 37.0 40.0 37.0 L41.5 37.5 Q42.5 38.0 43.0 38.0 L45.8 37.7 46.8 36.45 Q48.7 33.25 55.15 29.2 58.1 27.4 58.5 24.45 L59.0 22.0 Q60.55 22.0 61.35 23.3 62.0 24.4 62.0 26.2 L63.5 26.25 Q64.3 26.25 65.0 25.65 65.7 25.05 66.0 25.0 65.0 21.65 62.2 19.85 61.0 19.05 56.85 17.5 53.5 16.25 52.05 14.65 50.0 12.35 50.0 8.0 50.0 3.25 60.05 1.15 65.15 0.1 70.5 0.0 77.45 0.0 83.4 3.0 M35.55 40.45 L32.95 40.3 27.4 40.45 Q22.0 42.8 22.0 54.0 22.0 56.7 23.95 58.6 25.35 60.0 26.0 60.0 32.2 60.0 35.15 53.45 37.0 49.35 37.0 45.25 37.0 41.25 35.55 40.45" fill="#ff0000" fill-opacity="0.9843137" fill-rule="evenodd" stroke="none"/>
  </g>
</svg>
