<?xml version="1.0" encoding="UTF-8" standalone="no"?>
<svg xmlns:xlink="http://www.w3.org/1999/xlink" height="48.15px" width="107.0px" xmlns="http://www.w3.org/2000/svg">
  <g transform="matrix(1.0, 0.0, 0.0, 1.0, -1.0, -0.85)">
    <path d="M89.0 3.0 L88.5 1.6 Q92.15 6.05 94.85 11.4 97.0 15.65 97.0 16.85 97.1 15.45 98.25 14.7 99.0 14.2 99.5 14.2 100.35 14.2 101.2 15.7 101.95 17.05 102.0 18.0 104.2 23.5 106.1 26.65 L107.6 28.9 Q108.0 29.45 108.0 30.0 108.0 31.0 105.6 31.0 L104.0 30.6 102.5 30.0 Q102.3 31.3 101.25 31.9 100.45 32.4 99.4 32.4 L97.0 32.0 Q97.0 36.6 96.6 37.5 L96.45 37.4 Q96.15 36.9 95.0 31.0 L94.75 31.5 Q94.6 32.0 94.0 32.0 L91.75 30.5 Q89.6 28.95 86.8 28.95 L84.0 29.0 84.25 29.8 87.5 33.05 Q90.2 35.6 91.65 37.6 L86.7 34.0 Q82.05 30.55 81.45 30.55 78.85 30.55 75.15 35.2 71.7 39.6 69.0 39.0 L72.45 36.6 Q74.5 34.9 75.0 33.0 70.95 33.45 56.5 41.35 42.45 49.0 39.0 49.0 L29.1 43.65 Q19.05 38.25 18.0 38.0 9.95 36.15 5.05 31.45 1.0 27.5 1.0 24.0 L4.85 22.25 Q8.8 20.4 9.0 17.0 14.5 18.4 24.3 10.95 33.1 4.25 34.0 1.0 35.95 0.25 40.05 3.0 44.55 6.0 46.0 6.0 L54.0 5.0 54.0 3.0 64.45 3.75 74.0 4.5 Q75.4 5.25 78.25 7.3 81.15 8.95 85.0 8.95 86.75 8.95 87.55 7.65 88.5 6.1 88.0 3.0 L89.0 3.0" fill="#ff0000" fill-rule="evenodd" stroke="none"/>
  </g>
</svg>
