<?xml version="1.0" encoding="UTF-8" standalone="no"?>
<svg xmlns:xlink="http://www.w3.org/1999/xlink" height="72.3px" width="66.5px" xmlns="http://www.w3.org/2000/svg">
  <g transform="matrix(1.0, 0.0, 0.0, 1.0, 0.0, 0.0)">
    <path d="M50.1 12.05 L50.0 13.0 Q50.5 13.0 50.75 13.25 L51.0 14.0 Q51.95 21.45 51.05 32.0 L51.0 33.0 Q52.7 32.7 52.5 30.0 L53.0 30.0 Q54.05 29.05 56.0 29.0 L57.0 29.0 59.85 29.45 60.0 30.0 60.75 30.25 61.0 31.0 62.0 31.0 Q65.2 28.35 65.9 32.0 L66.0 33.0 66.5 33.0 Q66.8 40.6 63.0 36.0 L62.5 36.0 Q62.75 40.25 60.0 41.0 L60.0 47.0 60.0 48.0 60.05 49.0 Q60.75 57.25 59.0 63.0 L58.75 63.75 58.0 64.0 Q58.0 64.5 57.8 64.6 55.3 65.7 55.0 64.0 L54.25 63.75 54.0 63.0 54.0 62.0 53.45 61.9 Q53.0 60.0 53.0 58.0 L52.9 57.45 49.0 57.0 49.05 58.0 Q50.45 71.15 43.1 66.5 L43.0 66.5 43.0 66.45 41.0 65.0 41.1 64.0 Q42.4 56.6 39.0 54.0 L38.85 54.55 36.0 55.0 35.0 55.1 27.0 56.0 27.0 60.0 27.0 61.0 27.05 62.0 Q27.75 67.75 26.0 71.0 25.5 71.0 25.15 71.25 22.0 73.45 19.0 71.0 18.5 71.0 18.4 70.8 18.0 70.0 18.0 69.0 L18.0 68.0 18.0 57.0 19.0 57.0 18.95 56.0 Q18.7 54.3 17.0 54.0 L16.0 54.1 Q12.8 54.7 12.0 53.0 L11.25 52.75 Q11.0 52.5 11.0 52.0 L10.4 51.8 Q10.0 51.0 10.0 50.0 L9.0 50.0 9.0 51.0 9.0 59.0 9.0 60.0 8.95 61.0 Q8.7 62.7 7.0 63.0 L6.0 63.0 5.0 63.0 4.0 63.1 Q1.3 63.7 1.0 62.0 L0.0 62.0 0.0 61.0 0.0 59.0 0.0 58.0 0.0 50.0 0.0 49.0 0.0 48.0 0.0 43.0 0.0 42.0 0.0 41.0 1.0 41.0 Q1.5 40.5 2.1 40.2 L3.0 40.0 3.0 39.0 3.0 36.0 4.0 36.0 5.0 36.0 6.0 36.0 6.0 35.0 6.0 31.0 5.45 30.85 Q5.0 29.5 5.0 28.0 L5.0 27.0 5.0 25.0 4.45 24.85 Q4.0 23.5 4.0 22.0 L4.0 21.0 Q5.0 18.5 9.0 18.95 L10.0 19.0 11.75 16.85 12.0 16.0 12.0 15.0 12.0 13.0 13.0 13.0 13.0 12.0 13.0 10.0 Q14.5 9.0 15.4 7.2 15.5 7.0 16.0 7.0 L16.0 6.0 16.0 5.0 Q18.65 2.65 22.1 1.2 L23.0 1.0 23.0 0.0 26.0 0.0 27.0 0.0 27.0 1.0 Q29.95 1.55 31.75 3.25 L32.0 4.0 32.8 5.1 33.0 6.0 37.0 6.0 38.0 6.0 38.0 5.0 Q43.5 6.0 47.8 8.4 L48.0 9.0 Q50.9 8.6 50.1 12.05 M24.0 7.0 L23.85 7.55 Q21.05 8.55 20.0 11.0 L20.0 12.0 21.1 12.8 22.0 13.0 25.0 13.0 26.0 13.0 27.75 10.85 28.0 10.0 27.5 10.0 Q27.9 6.1 24.0 7.0" fill="#ff0000" fill-rule="evenodd" stroke="none"/>
  </g>
</svg>
