<?xml version="1.0" encoding="UTF-8" standalone="no"?>
<svg xmlns:xlink="http://www.w3.org/1999/xlink" height="93.0px" width="79.0px" xmlns="http://www.w3.org/2000/svg">
  <g transform="matrix(1.0, 0.0, 0.0, 1.0, -1.0, -2.0)">
    <path d="M62.0 15.0 Q63.65 14.9 63.1 17.05 L63.0 18.0 Q64.45 20.05 63.55 23.9 L63.0 24.0 63.1 24.95 Q63.65 27.15 62.0 27.0 61.45 30.55 63.85 31.45 L64.0 32.0 65.0 32.0 65.0 33.0 66.1 32.2 67.0 32.0 68.0 32.0 68.0 31.0 70.85 31.45 71.0 32.0 72.8 32.4 Q73.0 32.5 73.0 33.0 L74.0 33.0 75.0 33.0 Q79.0 30.35 79.5 35.95 L80.0 36.0 80.0 38.0 80.0 39.0 Q79.5 39.0 79.25 39.25 77.35 41.1 75.0 39.0 L75.1 39.95 Q75.65 42.15 74.0 42.0 L73.75 42.75 73.0 43.0 73.0 44.0 73.05 45.0 Q73.75 56.25 72.0 65.0 L71.75 65.7 Q68.25 68.8 67.0 65.0 L66.5 65.0 Q66.0 54.5 66.0 44.0 L65.8 43.4 65.0 42.65 65.0 43.0 64.25 42.75 Q64.0 42.5 64.0 42.0 L63.25 41.75 63.0 41.0 Q62.5 41.0 62.3 41.25 59.15 45.15 55.0 48.0 L54.75 48.75 54.0 49.0 54.0 51.8 54.9 52.5 Q55.8 53.4 56.15 54.95 60.6 54.95 58.25 58.2 58.0 58.5 58.0 59.0 L58.0 61.0 58.0 62.0 58.8 63.1 59.0 64.0 59.0 65.0 Q61.2 65.3 60.55 67.9 L60.0 68.0 60.0 69.0 Q60.8 71.2 60.5 73.95 L60.0 74.0 60.05 75.0 Q60.6 81.1 54.0 80.0 L54.1 81.0 Q54.7 83.7 53.0 84.0 L53.2 84.9 Q54.8 88.75 51.0 90.0 L50.85 90.55 Q46.75 91.7 45.0 90.0 L44.1 89.8 43.0 89.0 42.45 88.85 Q42.0 87.5 42.0 86.0 L43.0 86.0 42.75 85.15 Q41.8 83.7 42.0 81.0 L42.0 80.0 42.0 77.0 43.0 77.0 43.0 76.0 42.0 76.0 41.0 76.0 40.0 76.0 38.0 76.0 37.9 76.55 34.0 77.0 33.0 77.0 32.0 77.0 31.8 77.6 Q31.0 78.0 30.0 78.0 L30.0 79.0 Q32.5 85.5 30.2 89.15 L30.0 90.0 Q31.7 90.3 30.6 92.8 L30.0 93.0 29.8 93.6 Q29.0 94.0 28.0 94.0 L27.85 94.55 Q23.75 95.7 22.0 94.0 L21.1 93.8 Q19.5 93.0 19.0 91.0 19.5 90.5 20.1 90.2 L21.0 90.0 21.0 89.0 Q20.5 89.0 20.45 88.85 19.3 85.2 19.0 81.0 19.5 80.5 20.1 80.2 L21.0 80.0 21.0 79.0 Q21.0 78.5 21.25 78.3 22.9 77.0 20.0 76.0 L19.85 76.55 17.0 77.0 16.1 76.8 Q15.5 76.5 15.0 76.0 L14.0 76.0 14.0 77.0 14.0 78.0 14.5 78.05 Q14.7 79.7 13.0 80.0 L13.05 81.0 Q13.7 86.2 9.0 86.0 L8.8 86.6 Q6.3 87.7 6.0 86.0 L5.1 85.8 4.0 85.0 3.1 84.8 2.0 84.0 2.0 83.0 2.0 82.0 2.0 81.0 2.0 76.0 3.0 76.0 2.8 75.1 2.0 74.0 1.4 73.8 Q1.0 73.0 1.0 72.0 1.5 71.5 2.1 71.2 L3.0 71.0 3.0 70.0 Q3.5 69.5 4.1 69.2 L5.0 69.0 5.0 68.0 4.85 67.05 4.0 65.0 Q3.5 65.0 3.4 64.8 3.0 64.0 3.0 63.0 L4.0 63.0 4.0 62.0 Q6.0 60.1 7.3 61.75 L8.0 62.0 8.0 61.0 8.0 50.0 8.0 49.0 8.0 46.0 7.5 45.9 Q7.0 43.5 7.0 41.0 L8.0 41.0 9.0 41.0 9.0 40.0 12.0 40.0 13.0 40.0 13.8 38.9 14.0 38.0 14.0 37.0 14.0 36.0 13.0 36.1 Q10.3 36.7 10.0 35.0 9.5 35.0 9.35 34.75 7.25 31.75 8.0 26.0 L8.0 25.0 8.0 24.0 8.0 22.0 11.75 17.75 12.0 17.0 12.0 16.0 12.0 8.0 13.0 8.0 13.0 7.0 13.0 6.0 14.0 6.0 15.0 6.0 15.0 5.0 17.0 5.0 18.0 5.0 18.0 4.0 18.0 3.0 Q20.7 2.3 20.95 4.0 L21.0 4.75 21.0 2.0 22.0 2.0 23.0 2.0 30.0 2.0 31.0 2.0 Q33.1 3.9 33.9 7.05 L34.0 8.0 Q35.0 7.5 36.05 7.15 L37.0 7.0 37.0 6.0 Q38.7 5.7 39.4 4.2 39.5 4.0 40.0 4.0 L40.0 3.0 42.0 3.0 43.0 3.0 49.95 3.5 50.0 4.0 Q53.45 5.05 56.15 6.75 L57.0 7.0 Q58.5 8.0 59.75 9.25 L60.0 10.0 Q61.9 11.1 62.0 14.0 L62.0 15.0 M65.0 36.95 Q65.0 36.5 65.2 36.4 66.65 35.7 65.0 34.0 L65.0 36.0 65.0 36.95 M21.0 9.0 L21.0 8.4 Q20.7 8.9 20.0 9.0 L20.0 10.0 20.0 11.0 20.1 11.95 Q21.7 18.35 17.0 12.0 L16.0 12.0 16.0 17.0 16.0 18.0 Q17.25 20.25 18.75 22.2 L19.0 23.0 19.8 24.1 20.0 25.0 Q20.7 25.1 21.0 25.65 L21.0 24.0 21.0 23.0 21.0 17.0 21.0 16.0 21.0 15.0 21.0 13.0 21.0 12.0 21.0 10.0 21.0 9.0" fill="#ff0000" fill-rule="evenodd" stroke="none"/>
  </g>
</svg>
