<?xml version="1.0" encoding="UTF-8" standalone="no"?>
<svg xmlns:xlink="http://www.w3.org/1999/xlink" height="45.0px" width="20.0px" xmlns="http://www.w3.org/2000/svg">
  <g transform="matrix(1.0, 0.0, 0.0, 1.0, -1.0, -1.0)">
    <path d="M16.85 1.5 L16.95 2.05 Q15.2 5.0 16.85 13.8 L19.0 26.1 18.5 29.55 18.0 33.0 Q18.0 34.1 19.5 37.15 L21.0 40.25 Q21.0 41.9 17.9 43.1 14.1 44.55 13.0 46.0 L7.0 46.0 7.0 45.0 Q4.3 45.55 2.65 43.85 1.0 42.1 1.0 38.65 1.0 38.1 2.5 36.2 4.5 33.75 7.0 33.0 6.4 31.65 4.25 29.0 3.0 27.4 3.0 24.5 3.0 22.1 4.25 20.45 L7.0 17.0 11.0 7.45 Q13.65 1.0 16.0 1.0 L16.75 1.2 16.85 1.5" fill="#ff0303" fill-opacity="0.99607843" fill-rule="evenodd" stroke="none"/>
  </g>
</svg>
