<?xml version="1.0" encoding="UTF-8" standalone="no"?>
<svg xmlns:xlink="http://www.w3.org/1999/xlink" height="150.0px" width="137.0px" xmlns="http://www.w3.org/2000/svg">
  <g transform="matrix(1.0, 0.0, 0.0, 1.0, -1.0, -1.0)">
    <path d="M123.65 26.75 L123.0 27.0 Q123.0 27.5 123.15 27.55 131.55 30.95 138.0 36.0 L137.8 36.9 Q132.85 46.85 127.0 56.0 L126.1 55.8 Q117.25 51.25 108.0 47.0 L107.75 47.75 105.0 50.0 105.8 51.1 106.0 52.0 Q131.9 59.05 132.5 81.0 L132.0 81.0 131.45 80.85 Q124.8 62.7 106.0 57.0 L106.0 58.0 Q106.5 74.0 99.0 82.0 L99.05 83.0 Q99.9 92.5 94.0 100.0 100.3 101.8 107.25 95.25 107.5 95.0 108.0 95.0 L108.0 94.0 Q118.8 91.7 115.55 102.85 L115.0 103.0 115.0 104.0 Q114.85 110.75 113.0 119.0 112.5 119.0 112.25 119.25 102.0 128.7 96.0 117.0 L96.0 116.5 Q88.0 126.0 69.0 130.0 L68.5 130.05 Q67.9 139.5 63.0 139.0 L63.0 145.0 63.0 146.0 Q80.1 145.7 64.15 150.45 64.0 150.5 64.0 151.0 L63.0 151.0 60.0 151.0 60.0 150.0 60.0 148.0 61.75 146.75 62.0 146.0 61.0 146.1 Q58.25 146.75 56.0 148.0 L55.0 147.9 Q50.1 146.9 46.0 145.0 46.0 144.5 46.15 144.05 48.2 136.85 48.0 131.0 L47.9 130.5 Q40.15 129.1 35.0 121.0 L34.0 120.9 Q29.1 119.9 25.0 117.0 L24.5 117.0 Q24.15 108.6 23.0 102.0 L22.5 102.05 Q21.7 112.25 10.0 105.0 L9.25 104.75 Q5.1 100.95 6.0 93.0 12.6 88.1 20.1 84.2 L21.0 84.0 26.75 78.75 27.0 78.0 26.5 77.9 Q24.05 62.75 18.0 65.0 L18.0 65.5 Q12.95 61.05 13.0 51.0 L13.0 50.0 13.0 48.0 Q22.15 41.5 24.9 33.85 21.0 27.6 29.25 19.25 29.5 19.0 30.0 19.0 30.0 18.5 30.25 18.25 32.7 15.8 30.0 13.0 37.05 12.25 44.05 10.15 L45.0 10.0 46.0 10.0 47.0 10.0 Q52.25 8.6 59.0 9.9 L60.0 10.0 Q67.75 8.6 77.05 5.15 L78.0 5.0 Q78.0 12.05 82.2 15.75 L83.0 16.0 Q94.75 12.65 98.65 21.75 101.25 12.0 101.0 2.0 L101.0 1.0 Q107.7 5.8 106.5 19.0 L107.0 19.0 Q113.55 12.2 122.95 13.5 L123.0 14.0 Q128.55 19.4 123.65 26.75 M18.85 121.05 L19.0 122.0 Q13.15 123.85 17.75 127.3 L18.0 128.0 Q42.05 130.0 22.95 136.85 L22.0 137.0 Q22.3 138.7 23.8 139.4 L24.0 140.0 24.5 140.0 Q17.6 143.8 6.0 132.0 L5.3 131.75 Q1.25 127.05 1.0 117.0 14.2 106.4 18.85 121.05" fill="#ff0000" fill-rule="evenodd" stroke="none"/>
  </g>
</svg>
