<?xml version="1.0" encoding="UTF-8" standalone="no"?>
<svg xmlns:xlink="http://www.w3.org/1999/xlink" height="97.45px" width="78.65px" xmlns="http://www.w3.org/2000/svg">
  <g transform="matrix(1.0, 0.0, 0.0, 1.0, 0.0, 0.0)">
    <path d="M44.2 8.4 Q46.0 11.35 46.65 14.25 L48.8 16.45 Q50.3 17.95 50.65 19.25 51.6 19.35 52.75 19.9 L54.65 21.25 Q55.6 21.35 56.75 21.9 57.9 22.45 58.65 23.25 61.15 23.25 62.9 26.2 64.65 29.1 64.65 33.25 L64.45 34.75 Q64.65 35.65 65.0 36.3 L65.65 37.25 Q66.25 38.95 66.65 41.65 L66.95 45.7 66.65 51.25 Q67.7 52.55 69.0 55.45 70.4 58.5 71.65 60.25 L71.65 82.25 Q74.7 82.4 76.65 84.55 78.65 86.75 78.65 90.25 78.65 91.65 75.65 93.8 71.7 96.65 65.65 97.25 L62.95 97.45 Q61.15 97.45 59.15 96.45 56.8 95.25 55.65 93.25 53.65 91.3 53.65 86.25 53.65 85.7 54.15 85.55 L54.65 85.25 54.65 84.75 Q52.6 85.0 49.9 84.15 46.6 83.15 45.65 81.25 L44.0 81.75 41.65 82.25 Q41.65 82.65 41.1 82.95 L39.65 83.25 39.65 84.25 41.1 86.35 41.75 88.2 41.35 89.9 Q40.75 91.5 39.65 92.25 38.9 93.75 37.05 94.4 L32.45 95.0 Q29.5 95.0 28.7 93.9 28.3 93.3 28.05 90.75 27.4 84.35 20.65 79.25 L20.85 81.25 Q20.85 82.45 20.3 83.1 19.55 84.0 17.65 84.25 18.3 84.45 17.15 84.9 L14.1 85.35 12.25 85.05 9.65 84.25 Q7.95 83.5 7.05 81.8 6.4 80.5 6.4 79.05 6.4 76.3 7.15 75.95 7.9 75.6 7.9 75.15 L7.8 74.2 7.65 73.25 4.8 72.95 Q2.85 72.8 1.9 71.95 -1.1 69.3 0.65 57.25 0.75 54.7 1.35 53.55 1.95 52.45 1.95 51.35 L1.65 48.25 1.65 28.25 2.65 28.25 2.65 27.25 Q2.65 25.6 3.55 24.45 4.4 23.25 5.65 23.25 5.65 22.25 6.65 22.1 7.9 22.2 8.1 22.55 L8.65 23.25 Q8.65 22.25 10.15 22.05 11.55 21.8 12.55 22.4 L13.65 23.25 Q16.15 23.25 17.9 19.75 19.55 16.4 19.65 11.75 L19.65 11.25 20.8 9.65 21.65 8.25 Q22.1 7.1 23.3 5.9 24.5 4.7 25.65 4.25 L25.65 0.0 27.3 0.0 Q32.1 -0.25 33.85 4.7 L34.35 6.45 Q34.8 4.65 35.7 2.7 36.55 0.9 37.1 0.3 L38.5 1.7 39.65 3.25 Q42.25 5.15 44.2 8.4" fill="#ff0000" fill-opacity="0.99215686" fill-rule="evenodd" stroke="none"/>
  </g>
</svg>
