<?xml version="1.0" encoding="UTF-8" standalone="no"?>
<svg xmlns:xlink="http://www.w3.org/1999/xlink" height="74.0px" width="115.0px" xmlns="http://www.w3.org/2000/svg">
  <g transform="matrix(1.0, 0.0, 0.0, 1.0, 0.0, 0.0)">
    <path d="M108.0 23.0 Q111.95 21.75 114.75 26.15 L115.0 27.0 114.75 27.7 Q108.75 32.25 101.0 35.0 L101.0 36.0 101.0 37.0 101.8 38.1 102.0 39.0 Q105.3 36.85 106.75 38.25 L107.0 39.0 109.1 38.7 Q114.1 38.4 105.0 44.0 107.75 49.75 109.85 56.05 L110.0 57.0 110.55 57.1 Q112.9 67.05 97.0 64.0 L96.05 63.85 Q92.9 62.6 89.0 62.0 88.5 62.0 88.3 62.25 87.2 63.7 84.0 63.0 L83.75 63.75 83.0 64.0 82.75 64.85 Q78.15 72.15 68.0 74.0 L67.0 74.0 66.0 74.0 Q59.8 73.7 58.0 69.0 L57.0 69.0 54.0 69.0 Q53.5 69.0 53.15 69.25 51.7 70.2 49.0 70.0 L48.8 70.65 Q46.3 72.05 44.0 72.0 L43.0 72.05 Q39.05 72.45 32.0 72.0 L31.0 72.0 Q25.9 72.1 25.0 68.0 L24.1 68.2 Q23.2 68.7 20.0 67.0 L20.0 67.5 14.0 66.0 Q13.5 66.0 13.35 65.8 11.65 62.85 9.0 61.0 L8.05 60.85 Q5.1 59.9 6.0 55.0 7.7 54.7 7.5 52.0 L8.0 52.0 8.15 51.05 Q8.8 49.15 8.0 44.0 L7.0 44.0 6.0 44.0 5.0 44.0 4.0 44.0 3.0 44.0 Q1.05 43.95 0.0 43.0 L0.0 42.0 0.0 40.0 Q4.2 21.7 22.05 17.1 L23.0 17.0 24.0 17.0 24.0 16.0 33.05 13.15 34.0 13.0 34.2 12.15 Q35.45 10.0 34.0 6.0 36.65 4.65 40.0 4.1 L41.0 4.0 42.0 4.0 42.0 3.0 42.0 2.0 Q44.05 0.55 47.0 0.1 L48.0 0.0 57.95 0.5 58.0 1.0 62.9 1.5 63.0 2.0 Q74.9 5.6 83.75 12.3 L84.0 13.0 Q85.9 14.1 86.5 16.9 L87.0 17.0 Q93.85 9.4 101.0 7.5 L101.0 8.0 Q106.5 6.45 110.2 14.8 110.95 16.45 109.0 18.0 107.05 19.55 106.0 22.0 L107.1 22.8 108.0 23.0" fill="#ff0000" fill-rule="evenodd" stroke="none"/>
  </g>
</svg>
