<?xml version="1.0" encoding="UTF-8" standalone="no"?>
<svg xmlns:xlink="http://www.w3.org/1999/xlink" height="44.2px" width="72.0px" xmlns="http://www.w3.org/2000/svg">
  <g transform="matrix(1.0, 0.0, 0.0, 1.0, 0.0, 0.0)">
    <path d="M69.2 17.85 L70.3 18.95 Q70.3 24.2 69.4 26.0 68.45 27.9 65.0 29.0 65.55 30.55 67.2 33.95 67.2 37.1 59.8 40.95 L52.3 44.2 Q50.15 44.2 48.65 43.1 47.1 42.0 45.0 42.0 42.4 43.95 41.9 43.95 L40.3 43.7 34.3 43.3 28.0 43.0 15.15 43.9 14.15 44.15 Q13.15 44.15 12.0 43.0 10.8 41.8 10.8 40.5 L11.9 37.8 Q13.0 35.2 13.0 34.0 L12.65 31.1 12.0 27.0 11.0 27.0 Q10.5 29.85 9.25 31.05 7.85 32.4 4.8 32.4 1.5 32.4 0.6 30.5 0.0 29.3 0.0 25.0 0.0 22.5 3.3 20.0 6.05 18.0 7.0 18.0 8.65 18.0 10.2 18.75 12.4 19.85 12.0 22.0 12.8 18.9 15.85 13.25 18.5 8.3 18.5 7.0 18.5 2.55 20.95 1.4 23.9 0.0 35.5 0.0 49.7 0.0 49.75 2.95 L49.35 5.55 Q49.4 7.15 52.0 8.0 54.55 8.85 58.3 11.1 61.55 13.0 62.0 13.0 63.95 13.0 65.05 12.4 66.15 11.8 67.15 11.8 68.95 11.8 70.3 12.45 71.55 13.05 72.0 14.0 L67.0 14.0 Q67.85 16.5 69.2 17.85" fill="#ff0000" fill-opacity="0.89411765" fill-rule="evenodd" stroke="none"/>
  </g>
</svg>
