<?xml version="1.0" encoding="UTF-8" standalone="no"?>
<svg xmlns:xlink="http://www.w3.org/1999/xlink" height="126.0px" width="66.0px" xmlns="http://www.w3.org/2000/svg">
  <g transform="matrix(1.0, 0.0, 0.0, 1.0, 0.0, 66.0)">
    <path d="M44.85 -58.0 Q46.75 -54.1 45.0 -48.95 L44.85 -48.0 Q45.85 -48.0 46.65 -47.6 L46.85 -47.0 Q52.05 -46.7 51.35 -41.05 L50.85 -41.0 50.65 -40.1 Q47.8 -33.85 42.85 -38.0 42.35 -38.0 42.05 -38.25 35.75 -43.15 28.85 -40.0 L28.85 -39.0 Q35.3 -39.45 38.6 -36.7 L38.85 -36.0 Q39.95 -33.1 42.9 -32.15 L43.85 -32.0 47.6 -28.75 47.85 -28.0 47.85 -27.0 Q48.0 -23.35 44.85 -23.0 L44.85 -22.0 Q44.9 -20.05 45.6 -18.85 L45.85 -18.0 45.9 -17.0 Q46.05 -14.3 43.85 -14.0 L43.6 -13.35 Q40.3 -11.1 37.85 -13.0 41.1 -14.25 41.35 -18.0 L40.85 -18.0 39.85 -18.0 30.85 -18.0 Q34.3 -17.4 35.7 -12.95 L35.85 -12.0 36.05 -11.1 Q37.95 -7.25 34.85 -6.0 34.65 -3.3 38.85 -4.5 L38.85 -4.0 Q40.55 -3.2 39.95 0.0 L39.85 1.0 40.0 1.0 41.0 1.0 46.85 1.0 46.85 0.0 Q50.85 0.0 50.35 -5.0 L50.85 -5.0 50.85 -6.0 54.85 -6.5 54.85 -6.0 55.85 -6.0 55.85 -7.0 55.85 -8.0 Q62.3 -5.45 57.65 -1.25 57.35 -1.0 56.85 -1.0 L56.85 0.0 56.85 1.0 56.0 1.0 55.75 1.75 55.0 2.0 55.0 3.0 55.0 13.0 55.0 14.0 56.75 15.25 57.0 16.0 57.0 18.0 57.0 19.0 Q57.85 21.15 59.8 22.35 60.0 22.5 60.0 23.0 L64.9 41.05 65.0 42.0 Q65.0 42.5 65.25 42.75 L66.0 43.0 66.0 47.0 66.0 48.0 Q65.5 48.0 65.35 48.2 60.35 56.85 48.0 58.0 L47.9 58.55 Q35.0 61.75 24.0 58.0 L23.0 57.9 Q7.1 55.4 1.0 43.0 L0.0 43.0 0.0 42.0 0.0 38.0 1.0 38.0 1.0 37.0 1.0 36.0 Q3.35 29.85 4.5 22.05 L5.0 22.0 5.0 21.0 5.0 20.0 Q6.6 20.15 6.5 18.0 L7.0 18.0 7.0 17.0 Q11.1 12.1 10.05 2.0 L10.0 1.0 9.85 1.0 Q9.85 0.5 9.65 0.4 7.1 -0.75 7.85 -5.0 L7.85 -6.0 7.15 -5.75 Q4.35 -2.0 4.85 -9.0 6.85 -11.4 8.6 -9.75 L8.85 -9.0 9.85 -9.0 9.85 -10.0 11.65 -10.4 11.85 -11.0 11.6 -11.7 Q10.15 -12.8 10.85 -16.0 L10.65 -16.9 9.85 -18.0 8.85 -17.95 Q7.2 -17.9 7.85 -20.0 L7.3 -20.1 Q6.85 -22.0 6.85 -24.0 7.35 -24.5 7.95 -24.8 L8.85 -25.0 8.85 -26.0 7.85 -25.95 Q6.2 -25.9 6.85 -28.0 L8.9 -28.85 9.85 -29.0 9.85 -30.0 9.85 -34.0 9.85 -34.5 Q4.4 -33.55 4.85 -38.0 7.3 -39.55 11.85 -39.05 L12.85 -39.0 12.7 -39.55 Q4.8 -41.85 6.85 -55.0 L6.85 -56.0 6.85 -57.0 Q16.75 -61.1 25.95 -65.8 L26.85 -66.0 Q37.4 -63.5 43.65 -60.6 L43.85 -60.0 44.65 -58.9 44.85 -58.0 M23.0 5.0 L22.8 4.4 21.0 4.0 20.1 3.8 Q19.5 3.5 19.0 3.0 L19.8 1.9 20.0 1.0 19.85 1.0 19.0 1.0 18.85 1.0 17.85 1.0 13.0 1.0 Q13.0 6.0 13.5 10.95 L14.0 11.0 14.0 10.0 Q18.55 8.05 22.2 5.25 22.5 5.0 23.0 5.0 M52.05 5.0 Q52.2 2.3 51.0 1.0 L48.0 1.0 47.85 1.55 Q45.05 2.55 43.0 4.0 L43.0 5.0 43.0 6.0 Q47.0 8.0 50.2 10.75 L51.0 11.0 Q52.7 10.2 52.1 7.0 L52.0 6.0 52.05 5.0" fill="#ff0000" fill-opacity="0.99215686" fill-rule="evenodd" stroke="none"/>
  </g>
</svg>
