<?xml version="1.0" encoding="UTF-8" standalone="no"?>
<svg xmlns:xlink="http://www.w3.org/1999/xlink" height="155.2px" width="143.5px" xmlns="http://www.w3.org/2000/svg">
  <g transform="matrix(1.0, 0.0, 0.0, 1.0, -1.0, -1.1)">
    <path d="M89.85 15.5 Q92.15 18.9 94.0 20.2 97.15 22.4 100.6 30.65 102.45 35.1 104.75 42.0 105.7 44.55 112.35 50.75 116.55 54.65 125.9 62.55 L125.1 63.25 124.0 64.0 124.0 76.5 124.05 83.1 Q124.15 89.0 124.45 89.1 L124.7 89.55 125.0 90.0 130.75 92.55 Q134.35 94.05 136.3 95.35 L139.85 97.6 140.0 99.1 Q140.0 104.65 135.0 104.0 L135.2 112.05 Q135.25 119.65 135.7 124.85 137.25 142.75 144.5 150.0 142.55 151.55 140.1 154.3 137.9 156.3 134.6 156.3 L119.65 155.6 Q114.8 154.35 105.55 154.15 L96.25 153.8 Q90.2 151.65 87.0 146.0 L59.0 146.0 54.3 151.55 Q51.75 153.8 47.15 153.8 L42.2 153.25 Q41.5 152.65 41.0 152.65 25.85 152.65 21.05 154.0 16.2 155.35 12.65 155.35 9.15 155.35 5.9 153.85 2.7 152.35 1.0 150.0 6.25 147.4 8.05 141.85 9.5 137.45 9.5 127.4 L9.0 106.0 10.5 106.0 Q8.5 105.25 7.15 101.9 6.0 99.15 6.0 97.0 6.0 96.4 13.4 92.95 L20.8 89.6 Q21.0 89.35 21.0 88.0 21.05 84.15 21.7 79.75 22.3 75.5 22.3 71.5 22.3 64.0 21.05 63.05 L20.15 62.6 Q19.75 62.25 19.75 60.85 19.75 60.25 27.2 55.15 35.5 49.45 40.0 49.0 L40.0 46.0 Q40.95 45.75 41.4 44.85 L42.0 43.0 Q43.2 39.95 44.95 38.9 46.3 38.1 46.3 37.25 L45.55 36.15 43.0 34.0 Q49.95 31.55 57.5 24.5 64.3 18.15 64.3 15.75 64.3 13.1 68.65 7.15 73.05 1.1 75.35 1.1 80.65 1.1 85.85 9.1 L89.85 15.5" fill="#ff0000" fill-opacity="0.8980392" fill-rule="evenodd" stroke="none"/>
  </g>
</svg>
