<?xml version="1.0" encoding="UTF-8" standalone="no"?>
<svg xmlns:xlink="http://www.w3.org/1999/xlink" height="86.0px" width="50.3px" xmlns="http://www.w3.org/2000/svg">
  <g transform="matrix(1.0, 0.0, 0.0, 1.0, 0.0, 0.0)">
    <path d="M41.8 25.1 L42.0 26.0 42.25 26.85 Q44.65 30.15 41.0 32.0 L41.0 38.0 41.0 39.0 41.0 50.0 41.0 51.0 Q44.65 53.35 47.3 56.75 L48.0 57.0 Q49.45 62.55 49.95 69.0 L50.0 70.0 50.0 77.0 50.0 78.0 50.0 79.0 50.0 80.0 50.0 81.0 50.1 81.95 Q50.65 84.25 49.55 84.85 L48.0 85.0 48.0 86.0 47.0 86.0 43.0 86.0 42.75 85.2 Q39.55 80.95 41.0 72.0 L40.0 72.05 Q32.85 73.15 33.0 67.0 L32.0 67.0 32.0 68.0 31.75 68.75 31.0 69.0 31.0 70.0 31.0 77.0 31.0 78.0 Q33.3 82.1 28.0 83.0 23.75 83.7 23.55 81.8 22.75 75.05 20.0 69.0 L19.75 69.75 18.0 71.0 18.0 72.0 18.1 72.95 Q18.65 75.15 17.0 75.0 L16.8 75.6 Q14.35 76.65 15.0 74.0 L14.5 73.9 Q14.0 71.0 14.0 68.0 L14.0 67.0 13.0 67.0 12.0 67.0 Q11.95 72.05 12.5 76.0 L12.0 76.0 11.8 76.6 Q11.0 77.0 10.0 77.0 L9.85 77.55 Q5.75 78.7 4.0 77.0 L3.25 76.75 3.0 76.0 2.45 75.9 Q2.0 74.0 2.0 72.0 L2.0 71.0 2.0 64.0 1.0 64.0 0.0 64.0 0.0 63.0 0.0 60.0 1.0 60.0 1.0 59.0 1.0 58.0 3.15 56.25 Q3.5 56.0 4.0 56.0 L4.0 55.0 4.0 54.0 5.0 54.0 5.0 53.0 5.75 52.75 6.0 52.0 6.0 51.0 6.0 41.0 5.45 40.9 Q5.0 39.0 5.0 37.0 6.7 36.2 6.1 33.0 L6.0 32.0 5.75 31.15 Q5.05 29.95 5.0 28.0 L4.45 27.85 Q4.0 26.5 4.0 25.0 L5.0 25.0 5.0 24.0 5.0 23.0 7.05 22.15 8.0 22.0 8.0 21.0 13.05 20.15 14.0 20.0 14.0 19.0 Q16.0 18.5 17.25 17.25 17.5 17.0 18.0 17.0 L18.0 16.0 Q19.7 15.7 19.1 13.0 L19.0 12.0 Q18.5 12.0 18.4 11.8 16.7 8.8 14.0 7.0 L13.8 6.1 13.0 5.0 Q15.35 2.3 19.05 1.15 L20.0 1.0 20.0 0.0 22.0 0.0 23.0 0.0 25.0 0.0 26.0 0.0 26.0 1.0 29.9 1.45 30.0 2.0 Q31.95 2.05 32.75 3.15 L33.0 4.0 Q34.7 4.3 33.6 6.8 L33.0 7.0 32.75 7.75 32.0 8.0 31.85 8.55 Q28.75 9.75 28.0 13.0 28.05 14.95 28.75 16.15 L29.0 17.0 Q37.05 17.95 40.75 23.15 L41.0 24.0 41.8 25.1" fill="#ff0000" fill-rule="evenodd" stroke="none"/>
  </g>
</svg>
