<?xml version="1.0" encoding="UTF-8" standalone="no"?>
<svg xmlns:xlink="http://www.w3.org/1999/xlink" height="67.0px" width="91.2px" xmlns="http://www.w3.org/2000/svg">
  <g transform="matrix(1.0, 0.0, 0.0, 1.0, 0.0, 0.0)">
    <path d="M81.0 34.0 L80.75 34.8 Q79.25 36.75 77.0 38.0 L77.0 38.5 Q73.65 38.65 72.0 40.0 71.4 42.15 73.0 42.05 L74.0 42.0 Q76.4 41.65 78.75 45.15 L79.0 46.0 Q81.9 46.1 83.3 47.75 L84.0 48.0 Q86.95 49.55 88.75 52.15 L89.0 53.0 89.9 53.2 Q93.55 55.0 87.0 55.0 L86.8 55.6 Q86.0 56.0 85.0 56.0 L84.95 57.0 Q84.5 64.55 74.0 62.0 L73.0 62.0 72.0 62.0 71.75 62.65 Q68.65 64.65 66.0 67.0 L65.0 67.0 64.0 66.95 Q61.8 66.7 62.0 64.0 L62.8 62.9 63.0 62.0 62.05 61.85 58.0 60.0 Q57.5 60.0 57.35 60.2 56.0 62.5 52.0 62.0 L51.0 62.0 50.85 62.55 Q46.75 63.75 46.0 61.0 L46.0 60.5 Q42.8 60.7 42.0 59.0 L41.0 59.0 Q27.9 58.6 21.0 52.0 L20.2 52.25 Q16.4 55.65 14.0 51.0 L14.0 52.0 13.75 52.7 Q10.75 55.35 9.0 52.0 9.0 51.5 9.25 51.35 14.7 47.8 7.0 44.0 L6.75 44.7 Q3.75 47.35 2.0 44.0 3.05 43.05 4.85 42.55 L5.0 42.0 4.0 41.95 Q0.75 41.75 1.0 38.0 L2.0 38.0 1.75 37.25 0.0 36.0 0.0 35.0 Q1.05 34.05 3.0 34.0 L4.0 34.0 4.0 33.0 4.0 31.0 5.0 31.0 5.0 30.0 7.85 29.55 8.0 29.0 7.2 28.75 Q4.9 27.1 4.0 24.0 L5.0 24.0 5.0 23.0 Q7.0 22.5 8.25 21.25 8.5 21.0 9.0 21.0 L9.0 20.0 11.75 17.75 12.0 17.0 12.0 16.0 Q20.3 11.8 23.0 9.0 L24.0 10.05 26.0 12.0 26.0 11.0 Q33.0 7.0 39.2 2.25 L40.0 2.0 40.0 1.0 40.75 0.75 41.0 0.0 42.0 0.0 43.0 0.0 Q44.9 3.1 45.9 7.05 L46.0 8.0 72.1 5.15 Q73.9 5.0 71.6 5.9 66.15 8.0 72.0 9.0 L75.0 9.0 76.0 9.0 Q76.85 14.6 78.95 23.8 L79.1 24.3 Q80.45 28.25 81.0 33.0 L81.0 34.0" fill="#ff0000" fill-opacity="0.99215686" fill-rule="evenodd" stroke="none"/>
  </g>
</svg>
