<?xml version="1.0" encoding="UTF-8" standalone="no"?>
<svg xmlns:xlink="http://www.w3.org/1999/xlink" height="105.0px" width="320.0px" xmlns="http://www.w3.org/2000/svg">
  <g transform="matrix(1.0, 0.0, 0.0, 1.0, 155.0, 45.0)">
    <path d="M161.9 -45.0 Q165.0 -45.0 165.0 -41.5 L165.0 56.5 Q165.0 60.0 161.9 60.0 L-151.9 60.0 Q-155.0 60.0 -155.0 56.5 L-155.0 -41.5 Q-155.0 -45.0 -151.9 -45.0 L161.9 -45.0" fill="#ffffff" fill-opacity="0.9019608" fill-rule="evenodd" stroke="none"/>
    <path d="M161.9 -45.0 L-151.9 -45.0 Q-155.0 -45.0 -155.0 -41.5 L-155.0 56.5 Q-155.0 60.0 -151.9 60.0 L161.9 60.0 Q165.0 60.0 165.0 56.5 L165.0 -41.5 Q165.0 -45.0 161.9 -45.0 Z" fill="none" stroke="#000000" stroke-linecap="round" stroke-linejoin="round" stroke-opacity="0.49803922" stroke-width="0.05"/>
  </g>
</svg>
