<?xml version="1.0" encoding="UTF-8" standalone="no"?>
<svg xmlns:xlink="http://www.w3.org/1999/xlink" height="102.95px" width="121.0px" xmlns="http://www.w3.org/2000/svg">
  <g transform="matrix(1.0, 0.0, 0.0, 1.0, 0.0, -0.05)">
    <path d="M95.0 31.0 L94.0 31.0 Q90.15 28.15 87.25 33.2 85.0 37.15 85.0 40.5 85.0 43.55 85.15 43.75 L85.75 44.1 85.65 44.35 78.0 45.0 81.3 49.45 Q82.1 50.3 84.15 50.3 84.95 50.3 86.2 48.8 87.5 47.3 90.05 47.3 91.35 47.3 92.2 47.95 93.75 49.1 93.0 52.0 L99.0 52.0 Q100.4 50.6 107.3 45.85 L107.85 45.95 107.8 46.05 108.05 47.65 Q108.5 49.1 110.85 51.7 112.7 53.7 112.7 57.2 112.7 59.75 111.85 62.4 L111.0 65.0 Q112.8 66.2 116.15 67.1 L121.0 68.0 121.0 71.0 120.55 70.95 Q118.55 69.95 116.15 69.1 L113.4 68.25 Q108.1 68.25 107.35 74.0 L107.0 78.65 Q106.75 81.2 105.85 82.25 103.7 84.85 97.9 84.0 91.45 83.05 89.6 84.1 L82.75 88.7 Q77.8 91.85 74.4 91.95 74.15 91.55 75.1 91.05 L73.0 91.0 Q73.0 91.6 71.0 91.6 L68.95 91.55 66.55 92.05 Q65.05 92.05 63.9 91.0 L61.9 88.7 Q58.9 85.35 52.9 85.35 47.8 85.35 45.2 86.6 41.35 88.45 41.3 93.25 41.25 96.7 38.05 98.75 34.5 101.1 34.0 103.0 L0.0 103.0 0.0 77.0 Q0.5 77.0 0.5 76.5 0.5 76.0 1.0 76.0 L3.1 76.0 Q3.6 75.65 4.0 73.0 6.85 73.15 7.8 71.65 9.0 69.55 9.0 62.25 9.0 59.8 8.65 59.35 L3.0 54.0 4.5 54.3 Q6.4 54.95 7.15 55.85 L8.0 57.0 Q11.0 52.25 17.5 45.25 21.1 41.4 21.1 36.9 L21.0 34.0 Q25.35 33.15 29.2 29.85 33.0 26.55 33.0 23.5 31.95 25.25 30.35 25.95 L28.9 26.25 Q28.25 26.25 27.8 25.85 L27.0 25.0 Q29.85 24.55 32.65 21.35 36.0 17.5 36.0 12.5 L35.0 9.85 Q34.0 7.5 34.0 6.0 34.0 5.95 34.3 5.85 34.65 5.5 35.0 4.0 L41.0 4.0 41.0 1.0 41.85 1.95 43.75 3.05 46.0 4.0 Q46.15 3.1 47.1 2.55 47.3 0.75 52.45 0.15 56.05 -0.25 57.9 1.1 64.1 1.65 64.1 6.3 64.1 8.15 63.45 8.65 L62.05 9.0 Q60.0 9.4 60.0 15.0 60.0 23.2 73.75 26.4 L85.3 28.5 Q92.1 29.7 95.0 31.0" fill="#ff0000" fill-opacity="0.98039216" fill-rule="evenodd" stroke="none"/>
  </g>
</svg>
